<?xml version="1.0" encoding="UTF-8" standalone="no"?>
<!DOCTYPE svg PUBLIC "-//W3C//DTD SVG 1.1//EN"
 "http://www.w3.org/Graphics/SVG/1.1/DTD/svg11.dtd">
<!-- Generated by graphviz version 2.40.1 (20161225.0304)
 -->
<!-- Title: AnalogToDigitalController.h Pages: 1 -->
<svg width="346pt" height="86pt"
 viewBox="0.00 0.00 345.63 86.00" xmlns="http://www.w3.org/2000/svg" xmlns:xlink="http://www.w3.org/1999/xlink">
<g id="graph0" class="graph" transform="scale(1 1) rotate(0) translate(4 82)">
<title>AnalogToDigitalController.h</title>
<polygon fill="#ffffff" stroke="transparent" points="-4,4 -4,-82 341.6275,-82 341.6275,4 -4,4"/>
<!-- Node1 -->
<g id="node1" class="node">
<title>Node1</title>
<polygon fill="#bfbfbf" stroke="#000000" points="94.2795,-57.5 94.2795,-77.5 232.5125,-77.5 232.5125,-57.5 94.2795,-57.5"/>
<text text-anchor="middle" x="163.396" y="-64.5" font-family="Helvetica,sans-Serif" font-size="10.00" fill="#000000">AnalogToDigitalController.h</text>
</g>
<!-- Node2 -->
<g id="node2" class="node">
<title>Node2</title>
<g id="a_node2"><a xlink:href="AnalogToDigitalController_8cpp.html" target="_top" xlink:title="AnalogToDigitalController.cpp">
<polygon fill="#ffffff" stroke="#000000" points="0,-.5 0,-20.5 148.792,-20.5 148.792,-.5 0,-.5"/>
<text text-anchor="middle" x="74.396" y="-7.5" font-family="Helvetica,sans-Serif" font-size="10.00" fill="#000000">AnalogToDigitalController.cpp</text>
</a>
</g>
</g>
<!-- Node1&#45;&gt;Node2 -->
<g id="edge1" class="edge">
<title>Node1&#45;&gt;Node2</title>
<path fill="none" stroke="#191970" d="M138.8811,-51.7994C123.3304,-41.84 103.6699,-29.2484 90.1697,-20.6022"/>
<polygon fill="#191970" stroke="#191970" points="137.1759,-54.8636 147.4846,-57.3095 140.9512,-48.9689 137.1759,-54.8636"/>
</g>
<!-- Node3 -->
<g id="node3" class="node">
<title>Node3</title>
<g id="a_node3"><a xlink:href="CommunicationProtocolParser_8cpp.html" target="_top" xlink:title="CommunicationProtocolParser.cpp">
<polygon fill="#ffffff" stroke="#000000" points="167.1645,-.5 167.1645,-20.5 337.6275,-20.5 337.6275,-.5 167.1645,-.5"/>
<text text-anchor="middle" x="252.396" y="-7.5" font-family="Helvetica,sans-Serif" font-size="10.00" fill="#000000">CommunicationProtocolParser.cpp</text>
</a>
</g>
</g>
<!-- Node1&#45;&gt;Node3 -->
<g id="edge2" class="edge">
<title>Node1&#45;&gt;Node3</title>
<path fill="none" stroke="#191970" d="M187.9109,-51.7994C203.4616,-41.84 223.1221,-29.2484 236.6223,-20.6022"/>
<polygon fill="#191970" stroke="#191970" points="185.8408,-48.9689 179.3074,-57.3095 189.6161,-54.8636 185.8408,-48.9689"/>
</g>
</g>
</svg>
