<?xml version="1.0" encoding="UTF-8" standalone="no"?>
<!DOCTYPE svg PUBLIC "-//W3C//DTD SVG 1.1//EN"
 "http://www.w3.org/Graphics/SVG/1.1/DTD/svg11.dtd">
<!-- Generated by graphviz version 2.40.1 (20161225.0304)
 -->
<!-- Title: BluetoothManager.h Pages: 1 -->
<svg width="494pt" height="257pt"
 viewBox="0.00 0.00 493.53 257.00" xmlns="http://www.w3.org/2000/svg" xmlns:xlink="http://www.w3.org/1999/xlink">
<g id="graph0" class="graph" transform="scale(1 1) rotate(0) translate(4 253)">
<title>BluetoothManager.h</title>
<polygon fill="#ffffff" stroke="transparent" points="-4,4 -4,-253 489.527,-253 489.527,4 -4,4"/>
<!-- Node3 -->
<g id="node1" class="node">
<title>Node3</title>
<polygon fill="#bfbfbf" stroke="#000000" points="123.2795,-228.5 123.2795,-248.5 229.3115,-248.5 229.3115,-228.5 123.2795,-228.5"/>
<text text-anchor="middle" x="176.2955" y="-235.5" font-family="Helvetica,sans-Serif" font-size="10.00" fill="#000000">BluetoothManager.h</text>
</g>
<!-- Node4 -->
<g id="node2" class="node">
<title>Node4</title>
<g id="a_node2"><a xlink:href="BluetoothInterface_8h.html" target="_top" xlink:title="BluetoothInterface.h">
<polygon fill="#ffffff" stroke="#000000" points="123.555,-171.5 123.555,-191.5 229.036,-191.5 229.036,-171.5 123.555,-171.5"/>
<text text-anchor="middle" x="176.2955" y="-178.5" font-family="Helvetica,sans-Serif" font-size="10.00" fill="#000000">BluetoothInterface.h</text>
</a>
</g>
</g>
<!-- Node3&#45;&gt;Node4 -->
<g id="edge1" class="edge">
<title>Node3&#45;&gt;Node4</title>
<path fill="none" stroke="#191970" d="M176.2955,-218.1771C176.2955,-209.1625 176.2955,-198.9556 176.2955,-191.6022"/>
<polygon fill="#191970" stroke="#191970" points="172.7956,-218.3095 176.2955,-228.3095 179.7956,-218.3096 172.7956,-218.3095"/>
</g>
<!-- Node5 -->
<g id="node3" class="node">
<title>Node5</title>
<g id="a_node3"><a xlink:href="BluetoothManager_8cpp.html" target="_top" xlink:title="BluetoothManager.cpp">
<polygon fill="#ffffff" stroke="#000000" points="0,-114.5 0,-134.5 116.591,-134.5 116.591,-114.5 0,-114.5"/>
<text text-anchor="middle" x="58.2955" y="-121.5" font-family="Helvetica,sans-Serif" font-size="10.00" fill="#000000">BluetoothManager.cpp</text>
</a>
</g>
</g>
<!-- Node3&#45;&gt;Node5 -->
<g id="edge12" class="edge">
<title>Node3&#45;&gt;Node5</title>
<path fill="none" stroke="#191970" d="M152.5034,-222.6479C140.511,-214.1744 126.0574,-203.1987 114.2955,-192 94.8868,-173.5207 75.6963,-148.5461 65.5977,-134.7417"/>
<polygon fill="#191970" stroke="#191970" points="150.5132,-225.5271 160.727,-228.3431 154.4986,-219.7723 150.5132,-225.5271"/>
</g>
<!-- Node8 -->
<g id="node6" class="node">
<title>Node8</title>
<g id="a_node6"><a xlink:href="BoeingSurfaceVehicleControl_8cpp.html" target="_top" xlink:title="BoeingSurfaceVehicleControl.cpp">
<polygon fill="#ffffff" stroke="#000000" points="131.5545,-.5 131.5545,-20.5 297.0365,-20.5 297.0365,-.5 131.5545,-.5"/>
<text text-anchor="middle" x="214.2955" y="-7.5" font-family="Helvetica,sans-Serif" font-size="10.00" fill="#000000">BoeingSurfaceVehicleControl.cpp</text>
</a>
</g>
</g>
<!-- Node3&#45;&gt;Node8 -->
<g id="edge13" class="edge">
<title>Node3&#45;&gt;Node8</title>
<path fill="none" stroke="#191970" d="M215.5336,-224.8843C270.5177,-203.4176 368.3434,-155.9372 409.2955,-78 413.6369,-69.7378 415.0793,-64.3252 409.2955,-57 395.061,-38.972 343.6613,-27.1724 297.2076,-19.9713"/>
<polygon fill="#191970" stroke="#191970" points="214.2146,-221.6413 206.1145,-228.4706 216.7054,-228.1832 214.2146,-221.6413"/>
</g>
<!-- Node4&#45;&gt;Node5 -->
<g id="edge2" class="edge">
<title>Node4&#45;&gt;Node5</title>
<path fill="none" stroke="#191970" d="M146.3614,-167.0403C125.4169,-156.923 97.9581,-143.659 79.3086,-134.6504"/>
<polygon fill="#191970" stroke="#191970" points="144.9442,-170.2426 155.4711,-171.4408 147.989,-163.9395 144.9442,-170.2426"/>
</g>
<!-- Node6 -->
<g id="node4" class="node">
<title>Node6</title>
<g id="a_node4"><a xlink:href="BoeingSurfaceVehicleControl_8h.html" target="_top" xlink:title="BoeingSurfaceVehicleControl.h">
<polygon fill="#ffffff" stroke="#000000" points="134.834,-114.5 134.834,-134.5 289.757,-134.5 289.757,-114.5 134.834,-114.5"/>
<text text-anchor="middle" x="212.2955" y="-121.5" font-family="Helvetica,sans-Serif" font-size="10.00" fill="#000000">BoeingSurfaceVehicleControl.h</text>
</a>
</g>
</g>
<!-- Node4&#45;&gt;Node6 -->
<g id="edge3" class="edge">
<title>Node4&#45;&gt;Node6</title>
<path fill="none" stroke="#191970" d="M188.1998,-162.6515C194.1106,-153.2928 201.0158,-142.3596 205.9151,-134.6022"/>
<polygon fill="#191970" stroke="#191970" points="185.1123,-160.9856 182.7316,-171.3095 191.0308,-164.7236 185.1123,-160.9856"/>
</g>
<!-- Node7 -->
<g id="node5" class="node">
<title>Node7</title>
<g id="a_node5"><a xlink:href="CommunicationProtocolParser_8h.html" target="_top" xlink:title="CommunicationProtocolParser.h">
<polygon fill="#ffffff" stroke="#000000" points="240.3435,-57.5 240.3435,-77.5 400.2475,-77.5 400.2475,-57.5 240.3435,-57.5"/>
<text text-anchor="middle" x="320.2955" y="-64.5" font-family="Helvetica,sans-Serif" font-size="10.00" fill="#000000">CommunicationProtocolParser.h</text>
</a>
</g>
</g>
<!-- Node6&#45;&gt;Node7 -->
<g id="edge4" class="edge">
<title>Node6&#45;&gt;Node7</title>
<path fill="none" stroke="#191970" d="M240.2124,-109.7661C259.3146,-99.6844 284.1479,-86.5779 301.0631,-77.6504"/>
<polygon fill="#191970" stroke="#191970" points="238.5653,-106.6778 231.3551,-114.4408 241.8327,-112.8685 238.5653,-106.6778"/>
</g>
<!-- Node6&#45;&gt;Node8 -->
<g id="edge11" class="edge">
<title>Node6&#45;&gt;Node8</title>
<path fill="none" stroke="#191970" d="M212.654,-104.0663C213.0837,-79.5741 213.7868,-39.4944 214.1155,-20.7579"/>
<polygon fill="#191970" stroke="#191970" points="209.149,-104.3234 212.473,-114.3833 216.148,-104.4462 209.149,-104.3234"/>
</g>
<!-- Node10 -->
<g id="node8" class="node">
<title>Node10</title>
<g id="a_node8"><a xlink:href="IOFactory_8h.html" target="_top" xlink:title="IOFactory.h">
<polygon fill="#ffffff" stroke="#000000" points="42.18,-57.5 42.18,-77.5 110.411,-77.5 110.411,-57.5 42.18,-57.5"/>
<text text-anchor="middle" x="76.2955" y="-64.5" font-family="Helvetica,sans-Serif" font-size="10.00" fill="#000000">IOFactory.h</text>
</a>
</g>
</g>
<!-- Node6&#45;&gt;Node10 -->
<g id="edge7" class="edge">
<title>Node6&#45;&gt;Node10</title>
<path fill="none" stroke="#191970" d="M178.7696,-110.4487C154.5129,-100.2823 122.2988,-86.7808 100.514,-77.6504"/>
<polygon fill="#191970" stroke="#191970" points="177.7188,-113.8032 188.2945,-114.4408 180.4247,-107.3473 177.7188,-113.8032"/>
</g>
<!-- Node12 -->
<g id="node10" class="node">
<title>Node12</title>
<g id="a_node10"><a xlink:href="main_8cpp.html" target="_top" xlink:title="main.cpp">
<polygon fill="#ffffff" stroke="#000000" points="128.014,-57.5 128.014,-77.5 184.577,-77.5 184.577,-57.5 128.014,-57.5"/>
<text text-anchor="middle" x="156.2955" y="-64.5" font-family="Helvetica,sans-Serif" font-size="10.00" fill="#000000">main.cpp</text>
</a>
</g>
</g>
<!-- Node6&#45;&gt;Node12 -->
<g id="edge10" class="edge">
<title>Node6&#45;&gt;Node12</title>
<path fill="none" stroke="#191970" d="M195.2011,-107.1004C185.7105,-97.4403 174.2387,-85.7636 166.2205,-77.6022"/>
<polygon fill="#191970" stroke="#191970" points="192.7789,-109.629 202.2838,-114.3095 197.7723,-104.7233 192.7789,-109.629"/>
</g>
<!-- Node7&#45;&gt;Node8 -->
<g id="edge5" class="edge">
<title>Node7&#45;&gt;Node8</title>
<path fill="none" stroke="#191970" d="M292.388,-52.4931C273.6751,-42.4305 249.5367,-29.4505 233.0821,-20.6022"/>
<polygon fill="#191970" stroke="#191970" points="290.8798,-55.656 301.3448,-57.3095 294.1951,-49.4909 290.8798,-55.656"/>
</g>
<!-- Node9 -->
<g id="node7" class="node">
<title>Node9</title>
<g id="a_node7"><a xlink:href="CommunicationProtocolParser_8cpp.html" target="_top" xlink:title="CommunicationProtocolParser.cpp">
<polygon fill="#ffffff" stroke="#000000" points="315.064,-.5 315.064,-20.5 485.527,-20.5 485.527,-.5 315.064,-.5"/>
<text text-anchor="middle" x="400.2955" y="-7.5" font-family="Helvetica,sans-Serif" font-size="10.00" fill="#000000">CommunicationProtocolParser.cpp</text>
</a>
</g>
</g>
<!-- Node7&#45;&gt;Node9 -->
<g id="edge6" class="edge">
<title>Node7&#45;&gt;Node9</title>
<path fill="none" stroke="#191970" d="M343.119,-51.2383C356.9683,-41.3707 374.2087,-29.0868 386.1169,-20.6022"/>
<polygon fill="#191970" stroke="#191970" points="340.7111,-48.6563 334.5979,-57.3095 344.7731,-54.3572 340.7111,-48.6563"/>
</g>
<!-- Node10&#45;&gt;Node8 -->
<g id="edge8" class="edge">
<title>Node10&#45;&gt;Node8</title>
<path fill="none" stroke="#191970" d="M109.9867,-53.5841C134.6371,-43.4024 167.5175,-29.8214 189.7208,-20.6504"/>
<polygon fill="#191970" stroke="#191970" points="108.5559,-50.3882 100.6495,-57.4408 111.2283,-56.858 108.5559,-50.3882"/>
</g>
<!-- Node11 -->
<g id="node9" class="node">
<title>Node11</title>
<g id="a_node9"><a xlink:href="IOFactory_8cpp.html" target="_top" xlink:title="IOFactory.cpp">
<polygon fill="#ffffff" stroke="#000000" points="34.9005,-.5 34.9005,-20.5 113.6905,-20.5 113.6905,-.5 34.9005,-.5"/>
<text text-anchor="middle" x="74.2955" y="-7.5" font-family="Helvetica,sans-Serif" font-size="10.00" fill="#000000">IOFactory.cpp</text>
</a>
</g>
</g>
<!-- Node10&#45;&gt;Node11 -->
<g id="edge9" class="edge">
<title>Node10&#45;&gt;Node11</title>
<path fill="none" stroke="#191970" d="M75.5824,-47.1771C75.2661,-38.1625 74.908,-27.9556 74.65,-20.6022"/>
<polygon fill="#191970" stroke="#191970" points="72.0893,-47.4385 75.9379,-57.3095 79.085,-47.1929 72.0893,-47.4385"/>
</g>
</g>
</svg>
