<?xml version="1.0" encoding="UTF-8" standalone="no"?>
<!DOCTYPE svg PUBLIC "-//W3C//DTD SVG 1.1//EN"
 "http://www.w3.org/Graphics/SVG/1.1/DTD/svg11.dtd">
<!-- Generated by graphviz version 2.40.1 (20161225.0304)
 -->
<!-- Title: BluetoothClient.h Pages: 1 -->
<svg width="100pt" height="143pt"
 viewBox="0.00 0.00 100.13 143.00" xmlns="http://www.w3.org/2000/svg" xmlns:xlink="http://www.w3.org/1999/xlink">
<g id="graph0" class="graph" transform="scale(1 1) rotate(0) translate(4 139)">
<title>BluetoothClient.h</title>
<polygon fill="#ffffff" stroke="transparent" points="-4,4 -4,-139 96.133,-139 96.133,4 -4,4"/>
<!-- Node0 -->
<g id="node1" class="node">
<title>Node0</title>
<polygon fill="#bfbfbf" stroke="#000000" points="0,-114.5 0,-134.5 92.133,-134.5 92.133,-114.5 0,-114.5"/>
<text text-anchor="middle" x="46.0665" y="-121.5" font-family="Helvetica,sans-Serif" font-size="10.00" fill="#000000">BluetoothClient.h</text>
</g>
<!-- Node1 -->
<g id="node2" class="node">
<title>Node1</title>
<g id="a_node2"><a xlink:href="BluetoothBase_8h.html" target="_top" xlink:title="BluetoothBase.h">
<polygon fill="#ffffff" stroke="#000000" points="1.3835,-57.5 1.3835,-77.5 90.7495,-77.5 90.7495,-57.5 1.3835,-57.5"/>
<text text-anchor="middle" x="46.0665" y="-64.5" font-family="Helvetica,sans-Serif" font-size="10.00" fill="#000000">BluetoothBase.h</text>
</a>
</g>
</g>
<!-- Node0&#45;&gt;Node1 -->
<g id="edge1" class="edge">
<title>Node0&#45;&gt;Node1</title>
<path fill="none" stroke="#191970" d="M46.0665,-114.3095C46.0665,-106.9335 46.0665,-96.72 46.0665,-87.715"/>
<polygon fill="#191970" stroke="#191970" points="49.5666,-87.6022 46.0665,-77.6022 42.5666,-87.6023 49.5666,-87.6022"/>
</g>
<!-- Node2 -->
<g id="node3" class="node">
<title>Node2</title>
<polygon fill="#ffffff" stroke="#bfbfbf" points="25.844,-.5 25.844,-20.5 66.289,-20.5 66.289,-.5 25.844,-.5"/>
<text text-anchor="middle" x="46.0665" y="-7.5" font-family="Helvetica,sans-Serif" font-size="10.00" fill="#000000">string</text>
</g>
<!-- Node1&#45;&gt;Node2 -->
<g id="edge2" class="edge">
<title>Node1&#45;&gt;Node2</title>
<path fill="none" stroke="#191970" d="M46.0665,-57.3095C46.0665,-49.9335 46.0665,-39.72 46.0665,-30.715"/>
<polygon fill="#191970" stroke="#191970" points="49.5666,-30.6022 46.0665,-20.6022 42.5666,-30.6023 49.5666,-30.6022"/>
</g>
</g>
</svg>
