<?xml version="1.0" encoding="UTF-8" standalone="no"?>
<!DOCTYPE svg PUBLIC "-//W3C//DTD SVG 1.1//EN"
 "http://www.w3.org/Graphics/SVG/1.1/DTD/svg11.dtd">
<!-- Generated by graphviz version 2.40.1 (20161225.0304)
 -->
<!-- Title: BluetoothDefinitions.h Pages: 1 -->
<svg width="270pt" height="200pt"
 viewBox="0.00 0.00 270.14 200.00" xmlns="http://www.w3.org/2000/svg" xmlns:xlink="http://www.w3.org/1999/xlink">
<g id="graph0" class="graph" transform="scale(1 1) rotate(0) translate(4 196)">
<title>BluetoothDefinitions.h</title>
<polygon fill="#ffffff" stroke="transparent" points="-4,4 -4,-196 266.136,-196 266.136,4 -4,4"/>
<!-- Node2 -->
<g id="node1" class="node">
<title>Node2</title>
<polygon fill="#bfbfbf" stroke="#000000" points="110.7705,-171.5 110.7705,-191.5 224.0195,-191.5 224.0195,-171.5 110.7705,-171.5"/>
<text text-anchor="middle" x="167.395" y="-178.5" font-family="Helvetica,sans-Serif" font-size="10.00" fill="#000000">BluetoothDefinitions.h</text>
</g>
<!-- Node3 -->
<g id="node2" class="node">
<title>Node3</title>
<g id="a_node2"><a xlink:href="BoeingSurfaceVehicleControl_8h.html" target="_top" xlink:title="BoeingSurfaceVehicleControl.h">
<polygon fill="#ffffff" stroke="#000000" points="37.9335,-114.5 37.9335,-134.5 192.8565,-134.5 192.8565,-114.5 37.9335,-114.5"/>
<text text-anchor="middle" x="115.395" y="-121.5" font-family="Helvetica,sans-Serif" font-size="10.00" fill="#000000">BoeingSurfaceVehicleControl.h</text>
</a>
</g>
</g>
<!-- Node2&#45;&gt;Node3 -->
<g id="edge1" class="edge">
<title>Node2&#45;&gt;Node3</title>
<path fill="none" stroke="#191970" d="M151.2593,-163.8128C142.4983,-154.2094 131.9828,-142.6828 124.6111,-134.6022"/>
<polygon fill="#191970" stroke="#191970" points="148.7731,-166.2807 158.0984,-171.3095 153.9445,-161.563 148.7731,-166.2807"/>
</g>
<!-- Node5 -->
<g id="node4" class="node">
<title>Node5</title>
<g id="a_node4"><a xlink:href="BoeingSurfaceVehicleControl_8cpp.html" target="_top" xlink:title="BoeingSurfaceVehicleControl.cpp">
<polygon fill="#ffffff" stroke="#000000" points="96.654,-.5 96.654,-20.5 262.136,-20.5 262.136,-.5 96.654,-.5"/>
<text text-anchor="middle" x="179.395" y="-7.5" font-family="Helvetica,sans-Serif" font-size="10.00" fill="#000000">BoeingSurfaceVehicleControl.cpp</text>
</a>
</g>
</g>
<!-- Node2&#45;&gt;Node5 -->
<g id="edge7" class="edge">
<title>Node2&#45;&gt;Node5</title>
<path fill="none" stroke="#191970" d="M184.6529,-163.5475C191.2412,-155.4846 197.9846,-145.4424 201.395,-135 214.8193,-93.8962 194.5548,-42.3275 184.5012,-20.7408"/>
<polygon fill="#191970" stroke="#191970" points="181.9377,-161.3355 177.9896,-171.1672 187.2071,-165.9435 181.9377,-161.3355"/>
</g>
<!-- Node4 -->
<g id="node3" class="node">
<title>Node4</title>
<g id="a_node3"><a xlink:href="IOFactory_8h.html" target="_top" xlink:title="IOFactory.h">
<polygon fill="#ffffff" stroke="#000000" points="6.2795,-57.5 6.2795,-77.5 74.5105,-77.5 74.5105,-57.5 6.2795,-57.5"/>
<text text-anchor="middle" x="40.395" y="-64.5" font-family="Helvetica,sans-Serif" font-size="10.00" fill="#000000">IOFactory.h</text>
</a>
</g>
</g>
<!-- Node3&#45;&gt;Node4 -->
<g id="edge2" class="edge">
<title>Node3&#45;&gt;Node4</title>
<path fill="none" stroke="#191970" d="M93.998,-108.2383C81.0143,-98.3707 64.8514,-86.0868 53.6874,-77.6022"/>
<polygon fill="#191970" stroke="#191970" points="91.9071,-111.0452 101.9865,-114.3095 96.1427,-105.4721 91.9071,-111.0452"/>
</g>
<!-- Node3&#45;&gt;Node5 -->
<g id="edge6" class="edge">
<title>Node3&#45;&gt;Node5</title>
<path fill="none" stroke="#191970" d="M134.1607,-107.2859C142.2245,-99.0674 151.1989,-88.7014 157.395,-78 168.2646,-59.2268 174.5869,-34.3625 177.4769,-20.6556"/>
<polygon fill="#191970" stroke="#191970" points="131.5363,-104.9568 126.8289,-114.4484 136.4279,-109.964 131.5363,-104.9568"/>
</g>
<!-- Node7 -->
<g id="node6" class="node">
<title>Node7</title>
<g id="a_node6"><a xlink:href="main_8cpp.html" target="_top" xlink:title="main.cpp">
<polygon fill="#ffffff" stroke="#000000" points="92.1135,-57.5 92.1135,-77.5 148.6765,-77.5 148.6765,-57.5 92.1135,-57.5"/>
<text text-anchor="middle" x="120.395" y="-64.5" font-family="Helvetica,sans-Serif" font-size="10.00" fill="#000000">main.cpp</text>
</a>
</g>
</g>
<!-- Node3&#45;&gt;Node7 -->
<g id="edge5" class="edge">
<title>Node3&#45;&gt;Node7</title>
<path fill="none" stroke="#191970" d="M117.1777,-104.1771C117.9685,-95.1625 118.8638,-84.9556 119.5088,-77.6022"/>
<polygon fill="#191970" stroke="#191970" points="113.6762,-104.0419 116.2889,-114.3095 120.6494,-104.6537 113.6762,-104.0419"/>
</g>
<!-- Node4&#45;&gt;Node5 -->
<g id="edge3" class="edge">
<title>Node4&#45;&gt;Node5</title>
<path fill="none" stroke="#191970" d="M74.3303,-53.5841C99.1593,-43.4024 132.278,-29.8214 154.6422,-20.6504"/>
<polygon fill="#191970" stroke="#191970" points="72.8498,-50.4083 64.9254,-57.4408 75.5057,-56.8849 72.8498,-50.4083"/>
</g>
<!-- Node6 -->
<g id="node5" class="node">
<title>Node6</title>
<g id="a_node5"><a xlink:href="IOFactory_8cpp.html" target="_top" xlink:title="IOFactory.cpp">
<polygon fill="#ffffff" stroke="#000000" points="0,-.5 0,-20.5 78.79,-20.5 78.79,-.5 0,-.5"/>
<text text-anchor="middle" x="39.395" y="-7.5" font-family="Helvetica,sans-Serif" font-size="10.00" fill="#000000">IOFactory.cpp</text>
</a>
</g>
</g>
<!-- Node4&#45;&gt;Node6 -->
<g id="edge4" class="edge">
<title>Node4&#45;&gt;Node6</title>
<path fill="none" stroke="#191970" d="M40.0385,-47.1771C39.8803,-38.1625 39.7012,-27.9556 39.5722,-20.6022"/>
<polygon fill="#191970" stroke="#191970" points="36.5412,-47.3725 40.2162,-57.3095 43.5402,-47.2497 36.5412,-47.3725"/>
</g>
</g>
</svg>
