<?xml version="1.0" encoding="UTF-8" standalone="no"?>
<!DOCTYPE svg PUBLIC "-//W3C//DTD SVG 1.1//EN"
 "http://www.w3.org/Graphics/SVG/1.1/DTD/svg11.dtd">
<!-- Generated by graphviz version 2.40.1 (20161225.0304)
 -->
<!-- Title: BluetoothClient.h Pages: 1 -->
<svg width="351pt" height="200pt"
 viewBox="0.00 0.00 351.09 200.00" xmlns="http://www.w3.org/2000/svg" xmlns:xlink="http://www.w3.org/1999/xlink">
<g id="graph0" class="graph" transform="scale(1 1) rotate(0) translate(4 196)">
<title>BluetoothClient.h</title>
<polygon fill="#ffffff" stroke="transparent" points="-4,4 -4,-196 347.087,-196 347.087,4 -4,4"/>
<!-- Node3 -->
<g id="node1" class="node">
<title>Node3</title>
<polygon fill="#bfbfbf" stroke="#000000" points="171.6745,-171.5 171.6745,-191.5 263.8075,-191.5 263.8075,-171.5 171.6745,-171.5"/>
<text text-anchor="middle" x="217.741" y="-178.5" font-family="Helvetica,sans-Serif" font-size="10.00" fill="#000000">BluetoothClient.h</text>
</g>
<!-- Node4 -->
<g id="node2" class="node">
<title>Node4</title>
<g id="a_node2"><a xlink:href="BoeingSurfaceVehicleControl_8h.html" target="_top" xlink:title="BoeingSurfaceVehicleControl.h">
<polygon fill="#ffffff" stroke="#000000" points="67.2795,-114.5 67.2795,-134.5 222.2025,-134.5 222.2025,-114.5 67.2795,-114.5"/>
<text text-anchor="middle" x="144.741" y="-121.5" font-family="Helvetica,sans-Serif" font-size="10.00" fill="#000000">BoeingSurfaceVehicleControl.h</text>
</a>
</g>
</g>
<!-- Node3&#45;&gt;Node4 -->
<g id="edge1" class="edge">
<title>Node3&#45;&gt;Node4</title>
<path fill="none" stroke="#191970" d="M196.5527,-164.9557C183.9779,-155.137 168.4417,-143.006 157.6789,-134.6022"/>
<polygon fill="#191970" stroke="#191970" points="194.6541,-167.9138 204.6901,-171.3095 198.9622,-162.3965 194.6541,-167.9138"/>
</g>
<!-- Node9 -->
<g id="node7" class="node">
<title>Node9</title>
<g id="a_node7"><a xlink:href="BluetoothClient_8cpp.html" target="_top" xlink:title="BluetoothClient.cpp">
<polygon fill="#ffffff" stroke="#000000" points="240.395,-114.5 240.395,-134.5 343.087,-134.5 343.087,-114.5 240.395,-114.5"/>
<text text-anchor="middle" x="291.741" y="-121.5" font-family="Helvetica,sans-Serif" font-size="10.00" fill="#000000">BluetoothClient.cpp</text>
</a>
</g>
</g>
<!-- Node3&#45;&gt;Node9 -->
<g id="edge7" class="edge">
<title>Node3&#45;&gt;Node9</title>
<path fill="none" stroke="#191970" d="M239.2196,-164.9557C251.9666,-155.137 267.7156,-143.006 278.6258,-134.6022"/>
<polygon fill="#191970" stroke="#191970" points="236.7572,-162.4344 230.9707,-171.3095 241.0288,-167.98 236.7572,-162.4344"/>
</g>
<!-- Node5 -->
<g id="node3" class="node">
<title>Node5</title>
<g id="a_node3"><a xlink:href="IOFactory_8h.html" target="_top" xlink:title="IOFactory.h">
<polygon fill="#ffffff" stroke="#000000" points="110.6255,-57.5 110.6255,-77.5 178.8565,-77.5 178.8565,-57.5 110.6255,-57.5"/>
<text text-anchor="middle" x="144.741" y="-64.5" font-family="Helvetica,sans-Serif" font-size="10.00" fill="#000000">IOFactory.h</text>
</a>
</g>
</g>
<!-- Node4&#45;&gt;Node5 -->
<g id="edge2" class="edge">
<title>Node4&#45;&gt;Node5</title>
<path fill="none" stroke="#191970" d="M144.741,-104.1771C144.741,-95.1625 144.741,-84.9556 144.741,-77.6022"/>
<polygon fill="#191970" stroke="#191970" points="141.2411,-104.3095 144.741,-114.3095 148.2411,-104.3096 141.2411,-104.3095"/>
</g>
<!-- Node6 -->
<g id="node4" class="node">
<title>Node6</title>
<g id="a_node4"><a xlink:href="BoeingSurfaceVehicleControl_8cpp.html" target="_top" xlink:title="BoeingSurfaceVehicleControl.cpp">
<polygon fill="#ffffff" stroke="#000000" points="0,-.5 0,-20.5 165.482,-20.5 165.482,-.5 0,-.5"/>
<text text-anchor="middle" x="82.741" y="-7.5" font-family="Helvetica,sans-Serif" font-size="10.00" fill="#000000">BoeingSurfaceVehicleControl.cpp</text>
</a>
</g>
</g>
<!-- Node4&#45;&gt;Node6 -->
<g id="edge6" class="edge">
<title>Node4&#45;&gt;Node6</title>
<path fill="none" stroke="#191970" d="M124.9752,-107.1474C116.7641,-99.018 107.765,-88.7608 101.741,-78 91.2746,-59.3038 86.219,-34.4106 84.0814,-20.6781"/>
<polygon fill="#191970" stroke="#191970" points="122.8095,-109.9162 132.4834,-114.2366 127.6152,-104.8265 122.8095,-109.9162"/>
</g>
<!-- Node8 -->
<g id="node6" class="node">
<title>Node8</title>
<g id="a_node6"><a xlink:href="main_8cpp.html" target="_top" xlink:title="main.cpp">
<polygon fill="#ffffff" stroke="#000000" points="196.4595,-57.5 196.4595,-77.5 253.0225,-77.5 253.0225,-57.5 196.4595,-57.5"/>
<text text-anchor="middle" x="224.741" y="-64.5" font-family="Helvetica,sans-Serif" font-size="10.00" fill="#000000">main.cpp</text>
</a>
</g>
</g>
<!-- Node4&#45;&gt;Node8 -->
<g id="edge5" class="edge">
<title>Node4&#45;&gt;Node8</title>
<path fill="none" stroke="#191970" d="M167.5645,-108.2383C181.4138,-98.3707 198.6542,-86.0868 210.5624,-77.6022"/>
<polygon fill="#191970" stroke="#191970" points="165.1566,-105.6563 159.0434,-114.3095 169.2186,-111.3572 165.1566,-105.6563"/>
</g>
<!-- Node5&#45;&gt;Node6 -->
<g id="edge3" class="edge">
<title>Node5&#45;&gt;Node6</title>
<path fill="none" stroke="#191970" d="M126.1265,-50.3867C115.5595,-40.6718 102.6946,-28.8444 93.7294,-20.6022"/>
<polygon fill="#191970" stroke="#191970" points="123.9261,-53.1181 133.6566,-57.3095 128.6637,-47.9649 123.9261,-53.1181"/>
</g>
<!-- Node7 -->
<g id="node5" class="node">
<title>Node7</title>
<g id="a_node5"><a xlink:href="IOFactory_8cpp.html" target="_top" xlink:title="IOFactory.cpp">
<polygon fill="#ffffff" stroke="#000000" points="183.346,-.5 183.346,-20.5 262.136,-20.5 262.136,-.5 183.346,-.5"/>
<text text-anchor="middle" x="222.741" y="-7.5" font-family="Helvetica,sans-Serif" font-size="10.00" fill="#000000">IOFactory.cpp</text>
</a>
</g>
</g>
<!-- Node5&#45;&gt;Node7 -->
<g id="edge4" class="edge">
<title>Node5&#45;&gt;Node7</title>
<path fill="none" stroke="#191970" d="M166.9939,-51.2383C180.4969,-41.3707 197.3064,-29.0868 208.9169,-20.6022"/>
<polygon fill="#191970" stroke="#191970" points="164.6947,-48.5835 158.6858,-57.3095 168.8248,-54.2352 164.6947,-48.5835"/>
</g>
</g>
</svg>
