<?xml version="1.0" encoding="UTF-8" standalone="no"?>
<!DOCTYPE svg PUBLIC "-//W3C//DTD SVG 1.1//EN"
 "http://www.w3.org/Graphics/SVG/1.1/DTD/svg11.dtd">
<!-- Generated by graphviz version 2.40.1 (20161225.0304)
 -->
<!-- Title: BluetoothDefinitions.h Pages: 1 -->
<svg width="362pt" height="143pt"
 viewBox="0.00 0.00 361.97 143.00" xmlns="http://www.w3.org/2000/svg" xmlns:xlink="http://www.w3.org/1999/xlink">
<g id="graph0" class="graph" transform="scale(1 1) rotate(0) translate(4 139)">
<title>BluetoothDefinitions.h</title>
<polygon fill="#ffffff" stroke="transparent" points="-4,4 -4,-139 357.9725,-139 357.9725,4 -4,4"/>
<!-- Node2 -->
<g id="node1" class="node">
<title>Node2</title>
<polygon fill="#bfbfbf" stroke="#000000" points="134.1165,-114.5 134.1165,-134.5 247.3655,-134.5 247.3655,-114.5 134.1165,-114.5"/>
<text text-anchor="middle" x="190.741" y="-121.5" font-family="Helvetica,sans-Serif" font-size="10.00" fill="#000000">BluetoothDefinitions.h</text>
</g>
<!-- Node3 -->
<g id="node2" class="node">
<title>Node3</title>
<g id="a_node2"><a xlink:href="CommunicationProtocolParser_8h.html" target="_top" xlink:title="CommunicationProtocolParser.h">
<polygon fill="#ffffff" stroke="#000000" points="110.789,-57.5 110.789,-77.5 270.693,-77.5 270.693,-57.5 110.789,-57.5"/>
<text text-anchor="middle" x="190.741" y="-64.5" font-family="Helvetica,sans-Serif" font-size="10.00" fill="#000000">CommunicationProtocolParser.h</text>
</a>
</g>
</g>
<!-- Node2&#45;&gt;Node3 -->
<g id="edge1" class="edge">
<title>Node2&#45;&gt;Node3</title>
<path fill="none" stroke="#191970" d="M190.741,-104.1771C190.741,-95.1625 190.741,-84.9556 190.741,-77.6022"/>
<polygon fill="#191970" stroke="#191970" points="187.2411,-104.3095 190.741,-114.3095 194.2411,-104.3096 187.2411,-104.3095"/>
</g>
<!-- Node4 -->
<g id="node3" class="node">
<title>Node4</title>
<g id="a_node3"><a xlink:href="BoeingSurfaceVehicleControl_8cpp.html" target="_top" xlink:title="BoeingSurfaceVehicleControl.cpp">
<polygon fill="#ffffff" stroke="#000000" points="0,-.5 0,-20.5 165.482,-20.5 165.482,-.5 0,-.5"/>
<text text-anchor="middle" x="82.741" y="-7.5" font-family="Helvetica,sans-Serif" font-size="10.00" fill="#000000">BoeingSurfaceVehicleControl.cpp</text>
</a>
</g>
</g>
<!-- Node2&#45;&gt;Node4 -->
<g id="edge5" class="edge">
<title>Node2&#45;&gt;Node4</title>
<path fill="none" stroke="#191970" d="M147.7189,-110.469C131.2474,-103.146 113.589,-92.5958 101.741,-78 88.0838,-61.1753 84.2329,-35.114 83.1541,-20.7947"/>
<polygon fill="#191970" stroke="#191970" points="146.6491,-113.8144 157.227,-114.414 149.3318,-107.3488 146.6491,-113.8144"/>
</g>
<!-- Node6 -->
<g id="node5" class="node">
<title>Node6</title>
<g id="a_node5"><a xlink:href="main_8cpp.html" target="_top" xlink:title="main.cpp">
<polygon fill="#ffffff" stroke="#000000" points="288.4595,-57.5 288.4595,-77.5 345.0225,-77.5 345.0225,-57.5 288.4595,-57.5"/>
<text text-anchor="middle" x="316.741" y="-64.5" font-family="Helvetica,sans-Serif" font-size="10.00" fill="#000000">main.cpp</text>
</a>
</g>
</g>
<!-- Node2&#45;&gt;Node6 -->
<g id="edge4" class="edge">
<title>Node2&#45;&gt;Node6</title>
<path fill="none" stroke="#191970" d="M222.1018,-110.313C244.54,-100.1624 274.21,-86.7402 294.3032,-77.6504"/>
<polygon fill="#191970" stroke="#191970" points="220.6457,-107.1301 212.9772,-114.4408 223.5309,-113.5079 220.6457,-107.1301"/>
</g>
<!-- Node3&#45;&gt;Node4 -->
<g id="edge2" class="edge">
<title>Node3&#45;&gt;Node4</title>
<path fill="none" stroke="#191970" d="M162.8241,-52.7661C143.7219,-42.6844 118.8886,-29.5779 101.9734,-20.6504"/>
<polygon fill="#191970" stroke="#191970" points="161.2038,-55.8685 171.6814,-57.4408 164.4712,-49.6778 161.2038,-55.8685"/>
</g>
<!-- Node5 -->
<g id="node4" class="node">
<title>Node5</title>
<g id="a_node4"><a xlink:href="CommunicationProtocolParser_8cpp.html" target="_top" xlink:title="CommunicationProtocolParser.cpp">
<polygon fill="#ffffff" stroke="#000000" points="183.5095,-.5 183.5095,-20.5 353.9725,-20.5 353.9725,-.5 183.5095,-.5"/>
<text text-anchor="middle" x="268.741" y="-7.5" font-family="Helvetica,sans-Serif" font-size="10.00" fill="#000000">CommunicationProtocolParser.cpp</text>
</a>
</g>
</g>
<!-- Node3&#45;&gt;Node5 -->
<g id="edge3" class="edge">
<title>Node3&#45;&gt;Node5</title>
<path fill="none" stroke="#191970" d="M212.9939,-51.2383C226.4969,-41.3707 243.3064,-29.0868 254.9169,-20.6022"/>
<polygon fill="#191970" stroke="#191970" points="210.6947,-48.5835 204.6858,-57.3095 214.8248,-54.2352 210.6947,-48.5835"/>
</g>
</g>
</svg>
