<?xml version="1.0" encoding="UTF-8" standalone="no"?>
<!DOCTYPE svg PUBLIC "-//W3C//DTD SVG 1.1//EN"
 "http://www.w3.org/Graphics/SVG/1.1/DTD/svg11.dtd">
<!-- Generated by graphviz version 2.40.1 (20161225.0304)
 -->
<!-- Title: /home/jc/Documents/School/SeniorDesign/ControlCode/MainApplication/Headers/Bluetooth/BluetoothServer.h Pages: 1 -->
<svg width="192pt" height="179pt"
 viewBox="0.00 0.00 192.39 179.00" xmlns="http://www.w3.org/2000/svg" xmlns:xlink="http://www.w3.org/1999/xlink">
<g id="graph0" class="graph" transform="scale(1 1) rotate(0) translate(4 175)">
<title>/home/jc/Documents/School/SeniorDesign/ControlCode/MainApplication/Headers/Bluetooth/BluetoothServer.h</title>
<polygon fill="#ffffff" stroke="transparent" points="-4,4 -4,-175 188.386,-175 188.386,4 -4,4"/>
<!-- Node0 -->
<g id="node1" class="node">
<title>Node0</title>
<polygon fill="#bfbfbf" stroke="#000000" points="0,-114.5 0,-170.5 184.386,-170.5 184.386,-114.5 0,-114.5"/>
<text text-anchor="start" x="8" y="-157.5" font-family="Helvetica,sans-Serif" font-size="10.00" fill="#000000">/home/jc/Documents</text>
<text text-anchor="start" x="8" y="-145.5" font-family="Helvetica,sans-Serif" font-size="10.00" fill="#000000">/School/SeniorDesign</text>
<text text-anchor="start" x="8" y="-133.5" font-family="Helvetica,sans-Serif" font-size="10.00" fill="#000000">/ControlCode/MainApplication</text>
<text text-anchor="middle" x="92.193" y="-121.5" font-family="Helvetica,sans-Serif" font-size="10.00" fill="#000000">/Headers/Bluetooth/BluetoothServer.h</text>
</g>
<!-- Node1 -->
<g id="node2" class="node">
<title>Node1</title>
<g id="a_node2"><a xlink:href="BluetoothBase_8h.html" target="_top" xlink:title="BluetoothBase.h">
<polygon fill="#ffffff" stroke="#000000" points="47.51,-57.5 47.51,-77.5 136.876,-77.5 136.876,-57.5 47.51,-57.5"/>
<text text-anchor="middle" x="92.193" y="-64.5" font-family="Helvetica,sans-Serif" font-size="10.00" fill="#000000">BluetoothBase.h</text>
</a>
</g>
</g>
<!-- Node0&#45;&gt;Node1 -->
<g id="edge1" class="edge">
<title>Node0&#45;&gt;Node1</title>
<path fill="none" stroke="#191970" d="M92.193,-114.1457C92.193,-105.3619 92.193,-95.8652 92.193,-87.7476"/>
<polygon fill="#191970" stroke="#191970" points="95.6931,-87.7295 92.193,-77.7296 88.6931,-87.7296 95.6931,-87.7295"/>
</g>
<!-- Node2 -->
<g id="node3" class="node">
<title>Node2</title>
<polygon fill="#ffffff" stroke="#bfbfbf" points="71.9705,-.5 71.9705,-20.5 112.4155,-20.5 112.4155,-.5 71.9705,-.5"/>
<text text-anchor="middle" x="92.193" y="-7.5" font-family="Helvetica,sans-Serif" font-size="10.00" fill="#000000">string</text>
</g>
<!-- Node1&#45;&gt;Node2 -->
<g id="edge2" class="edge">
<title>Node1&#45;&gt;Node2</title>
<path fill="none" stroke="#191970" d="M92.193,-57.3095C92.193,-49.9335 92.193,-39.72 92.193,-30.715"/>
<polygon fill="#191970" stroke="#191970" points="95.6931,-30.6022 92.193,-20.6022 88.6931,-30.6023 95.6931,-30.6022"/>
</g>
</g>
</svg>
