<?xml version="1.0" encoding="UTF-8" standalone="no"?>
<!DOCTYPE svg PUBLIC "-//W3C//DTD SVG 1.1//EN"
 "http://www.w3.org/Graphics/SVG/1.1/DTD/svg11.dtd">
<!-- Generated by graphviz version 2.40.1 (20161225.0304)
 -->
<!-- Title: BluetoothBase.h Pages: 1 -->
<svg width="428pt" height="257pt"
 viewBox="0.00 0.00 428.31 257.00" xmlns="http://www.w3.org/2000/svg" xmlns:xlink="http://www.w3.org/1999/xlink">
<g id="graph0" class="graph" transform="scale(1 1) rotate(0) translate(4 253)">
<title>BluetoothBase.h</title>
<polygon fill="#ffffff" stroke="transparent" points="-4,4 -4,-253 424.3085,-253 424.3085,4 -4,4"/>
<!-- Node2 -->
<g id="node1" class="node">
<title>Node2</title>
<polygon fill="#bfbfbf" stroke="#000000" points="209.663,-228.5 209.663,-248.5 299.029,-248.5 299.029,-228.5 209.663,-228.5"/>
<text text-anchor="middle" x="254.346" y="-235.5" font-family="Helvetica,sans-Serif" font-size="10.00" fill="#000000">BluetoothBase.h</text>
</g>
<!-- Node3 -->
<g id="node2" class="node">
<title>Node3</title>
<g id="a_node2"><a xlink:href="BluetoothClient_8h.html" target="_top" xlink:title="BluetoothClient.h">
<polygon fill="#ffffff" stroke="#000000" points="96.2795,-171.5 96.2795,-191.5 188.4125,-191.5 188.4125,-171.5 96.2795,-171.5"/>
<text text-anchor="middle" x="142.346" y="-178.5" font-family="Helvetica,sans-Serif" font-size="10.00" fill="#000000">BluetoothClient.h</text>
</a>
</g>
</g>
<!-- Node2&#45;&gt;Node3 -->
<g id="edge1" class="edge">
<title>Node2&#45;&gt;Node3</title>
<path fill="none" stroke="#191970" d="M225.6649,-223.9034C205.8198,-213.8036 179.9121,-200.6185 162.2907,-191.6504"/>
<polygon fill="#191970" stroke="#191970" points="224.0807,-227.0243 234.5805,-228.4408 227.2557,-220.7857 224.0807,-227.0243"/>
</g>
<!-- Node10 -->
<g id="node9" class="node">
<title>Node10</title>
<g id="a_node9"><a xlink:href="BluetoothServer_8h.html" target="_top" xlink:title="BluetoothServer.h">
<polygon fill="#ffffff" stroke="#000000" points="206.334,-171.5 206.334,-191.5 302.358,-191.5 302.358,-171.5 206.334,-171.5"/>
<text text-anchor="middle" x="254.346" y="-178.5" font-family="Helvetica,sans-Serif" font-size="10.00" fill="#000000">BluetoothServer.h</text>
</a>
</g>
</g>
<!-- Node2&#45;&gt;Node10 -->
<g id="edge9" class="edge">
<title>Node2&#45;&gt;Node10</title>
<path fill="none" stroke="#191970" d="M254.346,-218.1771C254.346,-209.1625 254.346,-198.9556 254.346,-191.6022"/>
<polygon fill="#191970" stroke="#191970" points="250.8461,-218.3095 254.346,-228.3095 257.8461,-218.3096 250.8461,-218.3095"/>
</g>
<!-- Node12 -->
<g id="node11" class="node">
<title>Node12</title>
<g id="a_node11"><a xlink:href="BluetoothBase_8cpp.html" target="_top" xlink:title="BluetoothBase.cpp">
<polygon fill="#ffffff" stroke="#000000" points="320.3835,-171.5 320.3835,-191.5 420.3085,-191.5 420.3085,-171.5 320.3835,-171.5"/>
<text text-anchor="middle" x="370.346" y="-178.5" font-family="Helvetica,sans-Serif" font-size="10.00" fill="#000000">BluetoothBase.cpp</text>
</a>
</g>
</g>
<!-- Node2&#45;&gt;Node12 -->
<g id="edge12" class="edge">
<title>Node2&#45;&gt;Node12</title>
<path fill="none" stroke="#191970" d="M284.0514,-223.9034C304.6053,-213.8036 331.4382,-200.6185 349.689,-191.6504"/>
<polygon fill="#191970" stroke="#191970" points="282.2489,-220.8893 274.8174,-228.4408 285.336,-227.1718 282.2489,-220.8893"/>
</g>
<!-- Node4 -->
<g id="node3" class="node">
<title>Node4</title>
<g id="a_node3"><a xlink:href="BoeingSurfaceVehicleControl_8h.html" target="_top" xlink:title="BoeingSurfaceVehicleControl.h">
<polygon fill="#ffffff" stroke="#000000" points="120.8845,-114.5 120.8845,-134.5 275.8075,-134.5 275.8075,-114.5 120.8845,-114.5"/>
<text text-anchor="middle" x="198.346" y="-121.5" font-family="Helvetica,sans-Serif" font-size="10.00" fill="#000000">BoeingSurfaceVehicleControl.h</text>
</a>
</g>
</g>
<!-- Node3&#45;&gt;Node4 -->
<g id="edge2" class="edge">
<title>Node3&#45;&gt;Node4</title>
<path fill="none" stroke="#191970" d="M159.4404,-164.1004C168.931,-154.4403 180.4028,-142.7636 188.421,-134.6022"/>
<polygon fill="#191970" stroke="#191970" points="156.8692,-161.7233 152.3577,-171.3095 161.8626,-166.629 156.8692,-161.7233"/>
</g>
<!-- Node9 -->
<g id="node8" class="node">
<title>Node9</title>
<g id="a_node8"><a xlink:href="BluetoothClient_8cpp.html" target="_top" xlink:title="BluetoothClient.cpp">
<polygon fill="#ffffff" stroke="#000000" points="0,-114.5 0,-134.5 102.692,-134.5 102.692,-114.5 0,-114.5"/>
<text text-anchor="middle" x="51.346" y="-121.5" font-family="Helvetica,sans-Serif" font-size="10.00" fill="#000000">BluetoothClient.cpp</text>
</a>
</g>
</g>
<!-- Node3&#45;&gt;Node9 -->
<g id="edge8" class="edge">
<title>Node3&#45;&gt;Node9</title>
<path fill="none" stroke="#191970" d="M117.2802,-165.7994C101.38,-155.84 81.2777,-143.2484 67.4741,-134.6022"/>
<polygon fill="#191970" stroke="#191970" points="115.7443,-168.9673 126.077,-171.3095 119.4602,-163.035 115.7443,-168.9673"/>
</g>
<!-- Node5 -->
<g id="node4" class="node">
<title>Node5</title>
<g id="a_node4"><a xlink:href="IOFactory_8h.html" target="_top" xlink:title="IOFactory.h">
<polygon fill="#ffffff" stroke="#000000" points="164.2305,-57.5 164.2305,-77.5 232.4615,-77.5 232.4615,-57.5 164.2305,-57.5"/>
<text text-anchor="middle" x="198.346" y="-64.5" font-family="Helvetica,sans-Serif" font-size="10.00" fill="#000000">IOFactory.h</text>
</a>
</g>
</g>
<!-- Node4&#45;&gt;Node5 -->
<g id="edge3" class="edge">
<title>Node4&#45;&gt;Node5</title>
<path fill="none" stroke="#191970" d="M198.346,-104.1771C198.346,-95.1625 198.346,-84.9556 198.346,-77.6022"/>
<polygon fill="#191970" stroke="#191970" points="194.8461,-104.3095 198.346,-114.3095 201.8461,-104.3096 194.8461,-104.3095"/>
</g>
<!-- Node6 -->
<g id="node5" class="node">
<title>Node6</title>
<g id="a_node5"><a xlink:href="BoeingSurfaceVehicleControl_8cpp.html" target="_top" xlink:title="BoeingSurfaceVehicleControl.cpp">
<polygon fill="#ffffff" stroke="#000000" points="53.605,-.5 53.605,-20.5 219.087,-20.5 219.087,-.5 53.605,-.5"/>
<text text-anchor="middle" x="136.346" y="-7.5" font-family="Helvetica,sans-Serif" font-size="10.00" fill="#000000">BoeingSurfaceVehicleControl.cpp</text>
</a>
</g>
</g>
<!-- Node4&#45;&gt;Node6 -->
<g id="edge7" class="edge">
<title>Node4&#45;&gt;Node6</title>
<path fill="none" stroke="#191970" d="M178.5802,-107.1474C170.3691,-99.018 161.37,-88.7608 155.346,-78 144.8796,-59.3038 139.824,-34.4106 137.6864,-20.6781"/>
<polygon fill="#191970" stroke="#191970" points="176.4145,-109.9162 186.0884,-114.2366 181.2202,-104.8265 176.4145,-109.9162"/>
</g>
<!-- Node8 -->
<g id="node7" class="node">
<title>Node8</title>
<g id="a_node7"><a xlink:href="main_8cpp.html" target="_top" xlink:title="main.cpp">
<polygon fill="#ffffff" stroke="#000000" points="250.0645,-57.5 250.0645,-77.5 306.6275,-77.5 306.6275,-57.5 250.0645,-57.5"/>
<text text-anchor="middle" x="278.346" y="-64.5" font-family="Helvetica,sans-Serif" font-size="10.00" fill="#000000">main.cpp</text>
</a>
</g>
</g>
<!-- Node4&#45;&gt;Node8 -->
<g id="edge6" class="edge">
<title>Node4&#45;&gt;Node8</title>
<path fill="none" stroke="#191970" d="M221.1695,-108.2383C235.0188,-98.3707 252.2592,-86.0868 264.1674,-77.6022"/>
<polygon fill="#191970" stroke="#191970" points="218.7616,-105.6563 212.6484,-114.3095 222.8236,-111.3572 218.7616,-105.6563"/>
</g>
<!-- Node5&#45;&gt;Node6 -->
<g id="edge4" class="edge">
<title>Node5&#45;&gt;Node6</title>
<path fill="none" stroke="#191970" d="M179.7315,-50.3867C169.1645,-40.6718 156.2996,-28.8444 147.3344,-20.6022"/>
<polygon fill="#191970" stroke="#191970" points="177.5311,-53.1181 187.2616,-57.3095 182.2687,-47.9649 177.5311,-53.1181"/>
</g>
<!-- Node7 -->
<g id="node6" class="node">
<title>Node7</title>
<g id="a_node6"><a xlink:href="IOFactory_8cpp.html" target="_top" xlink:title="IOFactory.cpp">
<polygon fill="#ffffff" stroke="#000000" points="236.951,-.5 236.951,-20.5 315.741,-20.5 315.741,-.5 236.951,-.5"/>
<text text-anchor="middle" x="276.346" y="-7.5" font-family="Helvetica,sans-Serif" font-size="10.00" fill="#000000">IOFactory.cpp</text>
</a>
</g>
</g>
<!-- Node5&#45;&gt;Node7 -->
<g id="edge5" class="edge">
<title>Node5&#45;&gt;Node7</title>
<path fill="none" stroke="#191970" d="M220.5989,-51.2383C234.1019,-41.3707 250.9114,-29.0868 262.5219,-20.6022"/>
<polygon fill="#191970" stroke="#191970" points="218.2997,-48.5835 212.2908,-57.3095 222.4298,-54.2352 218.2997,-48.5835"/>
</g>
<!-- Node10&#45;&gt;Node4 -->
<g id="edge10" class="edge">
<title>Node10&#45;&gt;Node4</title>
<path fill="none" stroke="#191970" d="M237.2516,-164.1004C227.761,-154.4403 216.2892,-142.7636 208.271,-134.6022"/>
<polygon fill="#191970" stroke="#191970" points="234.8294,-166.629 244.3343,-171.3095 239.8228,-161.7233 234.8294,-166.629"/>
</g>
<!-- Node11 -->
<g id="node10" class="node">
<title>Node11</title>
<g id="a_node10"><a xlink:href="BluetoothServer_8cpp.html" target="_top" xlink:title="BluetoothServer.cpp">
<polygon fill="#ffffff" stroke="#000000" points="294.0545,-114.5 294.0545,-134.5 400.6375,-134.5 400.6375,-114.5 294.0545,-114.5"/>
<text text-anchor="middle" x="347.346" y="-121.5" font-family="Helvetica,sans-Serif" font-size="10.00" fill="#000000">BluetoothServer.cpp</text>
</a>
</g>
</g>
<!-- Node10&#45;&gt;Node11 -->
<g id="edge11" class="edge">
<title>Node10&#45;&gt;Node11</title>
<path fill="none" stroke="#191970" d="M279.5082,-166.078C295.8278,-156.0757 316.6246,-143.3293 330.8634,-134.6022"/>
<polygon fill="#191970" stroke="#191970" points="277.6696,-163.0998 270.9725,-171.3095 281.3275,-169.068 277.6696,-163.0998"/>
</g>
</g>
</svg>
