<?xml version="1.0" encoding="UTF-8" standalone="no"?>
<!DOCTYPE svg PUBLIC "-//W3C//DTD SVG 1.1//EN"
 "http://www.w3.org/Graphics/SVG/1.1/DTD/svg11.dtd">
<!-- Generated by graphviz version 2.40.1 (20161225.0304)
 -->
<!-- Title: BluetoothDefinitions.h Pages: 1 -->
<svg width="459pt" height="200pt"
 viewBox="0.00 0.00 458.63 200.00" xmlns="http://www.w3.org/2000/svg" xmlns:xlink="http://www.w3.org/1999/xlink">
<g id="graph0" class="graph" transform="scale(1 1) rotate(0) translate(4 196)">
<title>BluetoothDefinitions.h</title>
<polygon fill="#ffffff" stroke="transparent" points="-4,4 -4,-196 454.6265,-196 454.6265,4 -4,4"/>
<!-- Node2 -->
<g id="node1" class="node">
<title>Node2</title>
<polygon fill="#bfbfbf" stroke="#000000" points="274.607,-171.5 274.607,-191.5 387.856,-191.5 387.856,-171.5 274.607,-171.5"/>
<text text-anchor="middle" x="331.2315" y="-178.5" font-family="Helvetica,sans-Serif" font-size="10.00" fill="#000000">BluetoothDefinitions.h</text>
</g>
<!-- Node3 -->
<g id="node2" class="node">
<title>Node3</title>
<g id="a_node2"><a xlink:href="BoeingSurfaceVehicleControl_8h.html" target="_top" xlink:title="BoeingSurfaceVehicleControl.h">
<polygon fill="#ffffff" stroke="#000000" points="191.77,-114.5 191.77,-134.5 346.693,-134.5 346.693,-114.5 191.77,-114.5"/>
<text text-anchor="middle" x="269.2315" y="-121.5" font-family="Helvetica,sans-Serif" font-size="10.00" fill="#000000">BoeingSurfaceVehicleControl.h</text>
</a>
</g>
</g>
<!-- Node2&#45;&gt;Node3 -->
<g id="edge1" class="edge">
<title>Node2&#45;&gt;Node3</title>
<path fill="none" stroke="#191970" d="M312.617,-164.3867C302.05,-154.6718 289.1851,-142.8444 280.2199,-134.6022"/>
<polygon fill="#191970" stroke="#191970" points="310.4166,-167.1181 320.1471,-171.3095 315.1542,-161.9649 310.4166,-167.1181"/>
</g>
<!-- Node5 -->
<g id="node4" class="node">
<title>Node5</title>
<g id="a_node4"><a xlink:href="BoeingSurfaceVehicleControl_8cpp.html" target="_top" xlink:title="BoeingSurfaceVehicleControl.cpp">
<polygon fill="#ffffff" stroke="#000000" points="188.4905,-.5 188.4905,-20.5 353.9725,-20.5 353.9725,-.5 188.4905,-.5"/>
<text text-anchor="middle" x="271.2315" y="-7.5" font-family="Helvetica,sans-Serif" font-size="10.00" fill="#000000">BoeingSurfaceVehicleControl.cpp</text>
</a>
</g>
</g>
<!-- Node2&#45;&gt;Node5 -->
<g id="edge10" class="edge">
<title>Node2&#45;&gt;Node5</title>
<path fill="none" stroke="#191970" d="M346.9201,-163.3978C366.8941,-138.0342 396.3134,-91.1969 374.2315,-57 362.3113,-38.54 341.1065,-27.3321 321.0226,-20.564"/>
<polygon fill="#191970" stroke="#191970" points="343.9795,-161.4643 340.3489,-171.4177 349.3941,-165.9008 343.9795,-161.4643"/>
</g>
<!-- Node4 -->
<g id="node3" class="node">
<title>Node4</title>
<g id="a_node3"><a xlink:href="CommunicationProtocolParser_8h.html" target="_top" xlink:title="CommunicationProtocolParser.h">
<polygon fill="#ffffff" stroke="#000000" points="7.2795,-57.5 7.2795,-77.5 167.1835,-77.5 167.1835,-57.5 7.2795,-57.5"/>
<text text-anchor="middle" x="87.2315" y="-64.5" font-family="Helvetica,sans-Serif" font-size="10.00" fill="#000000">CommunicationProtocolParser.h</text>
</a>
</g>
</g>
<!-- Node3&#45;&gt;Node4 -->
<g id="edge2" class="edge">
<title>Node3&#45;&gt;Node4</title>
<path fill="none" stroke="#191970" d="M227.3327,-111.3778C194.4604,-101.0827 149.3862,-86.966 119.335,-77.5544"/>
<polygon fill="#191970" stroke="#191970" points="226.5235,-114.792 237.1125,-114.4408 228.6156,-108.1119 226.5235,-114.792"/>
</g>
<!-- Node3&#45;&gt;Node5 -->
<g id="edge9" class="edge">
<title>Node3&#45;&gt;Node5</title>
<path fill="none" stroke="#191970" d="M269.59,-104.0663C270.0197,-79.5741 270.7228,-39.4944 271.0515,-20.7579"/>
<polygon fill="#191970" stroke="#191970" points="266.085,-104.3234 269.409,-114.3833 273.084,-104.4462 266.085,-104.3234"/>
</g>
<!-- Node7 -->
<g id="node6" class="node">
<title>Node7</title>
<g id="a_node6"><a xlink:href="IOFactory_8h.html" target="_top" xlink:title="IOFactory.h">
<polygon fill="#ffffff" stroke="#000000" points="297.116,-57.5 297.116,-77.5 365.347,-77.5 365.347,-57.5 297.116,-57.5"/>
<text text-anchor="middle" x="331.2315" y="-64.5" font-family="Helvetica,sans-Serif" font-size="10.00" fill="#000000">IOFactory.h</text>
</a>
</g>
</g>
<!-- Node3&#45;&gt;Node7 -->
<g id="edge5" class="edge">
<title>Node3&#45;&gt;Node7</title>
<path fill="none" stroke="#191970" d="M287.846,-107.3867C298.413,-97.6718 311.2779,-85.8444 320.2431,-77.6022"/>
<polygon fill="#191970" stroke="#191970" points="285.3088,-104.9649 280.3159,-114.3095 290.0464,-110.1181 285.3088,-104.9649"/>
</g>
<!-- Node9 -->
<g id="node8" class="node">
<title>Node9</title>
<g id="a_node8"><a xlink:href="main_8cpp.html" target="_top" xlink:title="main.cpp">
<polygon fill="#ffffff" stroke="#000000" points="184.95,-57.5 184.95,-77.5 241.513,-77.5 241.513,-57.5 184.95,-57.5"/>
<text text-anchor="middle" x="213.2315" y="-64.5" font-family="Helvetica,sans-Serif" font-size="10.00" fill="#000000">main.cpp</text>
</a>
</g>
</g>
<!-- Node3&#45;&gt;Node9 -->
<g id="edge8" class="edge">
<title>Node3&#45;&gt;Node9</title>
<path fill="none" stroke="#191970" d="M252.1371,-107.1004C242.6465,-97.4403 231.1747,-85.7636 223.1565,-77.6022"/>
<polygon fill="#191970" stroke="#191970" points="249.7149,-109.629 259.2198,-114.3095 254.7083,-104.7233 249.7149,-109.629"/>
</g>
<!-- Node4&#45;&gt;Node5 -->
<g id="edge3" class="edge">
<title>Node4&#45;&gt;Node5</title>
<path fill="none" stroke="#191970" d="M129.5908,-54.3778C162.8242,-44.0827 208.3938,-29.966 238.7752,-20.5544"/>
<polygon fill="#191970" stroke="#191970" points="128.2199,-51.1383 119.7035,-57.4408 130.2913,-57.8248 128.2199,-51.1383"/>
</g>
<!-- Node6 -->
<g id="node5" class="node">
<title>Node6</title>
<g id="a_node5"><a xlink:href="CommunicationProtocolParser_8cpp.html" target="_top" xlink:title="CommunicationProtocolParser.cpp">
<polygon fill="#ffffff" stroke="#000000" points="0,-.5 0,-20.5 170.463,-20.5 170.463,-.5 0,-.5"/>
<text text-anchor="middle" x="85.2315" y="-7.5" font-family="Helvetica,sans-Serif" font-size="10.00" fill="#000000">CommunicationProtocolParser.cpp</text>
</a>
</g>
</g>
<!-- Node4&#45;&gt;Node6 -->
<g id="edge4" class="edge">
<title>Node4&#45;&gt;Node6</title>
<path fill="none" stroke="#191970" d="M86.5184,-47.1771C86.2021,-38.1625 85.844,-27.9556 85.586,-20.6022"/>
<polygon fill="#191970" stroke="#191970" points="83.0253,-47.4385 86.8739,-57.3095 90.021,-47.1929 83.0253,-47.4385"/>
</g>
<!-- Node7&#45;&gt;Node5 -->
<g id="edge6" class="edge">
<title>Node7&#45;&gt;Node5</title>
<path fill="none" stroke="#191970" d="M313.2175,-50.3867C302.9913,-40.6718 290.5414,-28.8444 281.8654,-20.6022"/>
<polygon fill="#191970" stroke="#191970" points="310.844,-52.9595 320.5047,-57.3095 315.6653,-47.8845 310.844,-52.9595"/>
</g>
<!-- Node8 -->
<g id="node7" class="node">
<title>Node8</title>
<g id="a_node7"><a xlink:href="IOFactory_8cpp.html" target="_top" xlink:title="IOFactory.cpp">
<polygon fill="#ffffff" stroke="#000000" points="371.8365,-.5 371.8365,-20.5 450.6265,-20.5 450.6265,-.5 371.8365,-.5"/>
<text text-anchor="middle" x="411.2315" y="-7.5" font-family="Helvetica,sans-Serif" font-size="10.00" fill="#000000">IOFactory.cpp</text>
</a>
</g>
</g>
<!-- Node7&#45;&gt;Node8 -->
<g id="edge7" class="edge">
<title>Node7&#45;&gt;Node8</title>
<path fill="none" stroke="#191970" d="M354.055,-51.2383C367.9043,-41.3707 385.1447,-29.0868 397.0529,-20.6022"/>
<polygon fill="#191970" stroke="#191970" points="351.6471,-48.6563 345.5339,-57.3095 355.7091,-54.3572 351.6471,-48.6563"/>
</g>
</g>
</svg>
