<?xml version="1.0" encoding="UTF-8" standalone="no"?>
<!DOCTYPE svg PUBLIC "-//W3C//DTD SVG 1.1//EN"
 "http://www.w3.org/Graphics/SVG/1.1/DTD/svg11.dtd">
<!-- Generated by graphviz version 2.40.1 (20161225.0304)
 -->
<!-- Title: BluetoothInterface.h Pages: 1 -->
<svg width="338pt" height="200pt"
 viewBox="0.00 0.00 337.69 200.00" xmlns="http://www.w3.org/2000/svg" xmlns:xlink="http://www.w3.org/1999/xlink">
<g id="graph0" class="graph" transform="scale(1 1) rotate(0) translate(4 196)">
<title>BluetoothInterface.h</title>
<polygon fill="#ffffff" stroke="transparent" points="-4,4 -4,-196 333.6905,-196 333.6905,4 -4,4"/>
<!-- Node3 -->
<g id="node1" class="node">
<title>Node3</title>
<polygon fill="#bfbfbf" stroke="#000000" points="82.555,-171.5 82.555,-191.5 188.036,-191.5 188.036,-171.5 82.555,-171.5"/>
<text text-anchor="middle" x="135.2955" y="-178.5" font-family="Helvetica,sans-Serif" font-size="10.00" fill="#000000">BluetoothInterface.h</text>
</g>
<!-- Node4 -->
<g id="node2" class="node">
<title>Node4</title>
<g id="a_node2"><a xlink:href="BluetoothManager_8cpp.html" target="_top" xlink:title="BluetoothManager.cpp">
<polygon fill="#ffffff" stroke="#000000" points="0,-114.5 0,-134.5 116.591,-134.5 116.591,-114.5 0,-114.5"/>
<text text-anchor="middle" x="58.2955" y="-121.5" font-family="Helvetica,sans-Serif" font-size="10.00" fill="#000000">BluetoothManager.cpp</text>
</a>
</g>
</g>
<!-- Node3&#45;&gt;Node4 -->
<g id="edge1" class="edge">
<title>Node3&#45;&gt;Node4</title>
<path fill="none" stroke="#191970" d="M113.3279,-165.2383C99.998,-155.3707 83.404,-143.0868 71.9424,-134.6022"/>
<polygon fill="#191970" stroke="#191970" points="111.4096,-168.1728 121.5294,-171.3095 115.5744,-162.5466 111.4096,-168.1728"/>
</g>
<!-- Node5 -->
<g id="node3" class="node">
<title>Node5</title>
<g id="a_node3"><a xlink:href="BoeingSurfaceVehicleControl_8h.html" target="_top" xlink:title="BoeingSurfaceVehicleControl.h">
<polygon fill="#ffffff" stroke="#000000" points="134.834,-114.5 134.834,-134.5 289.757,-134.5 289.757,-114.5 134.834,-114.5"/>
<text text-anchor="middle" x="212.2955" y="-121.5" font-family="Helvetica,sans-Serif" font-size="10.00" fill="#000000">BoeingSurfaceVehicleControl.h</text>
</a>
</g>
</g>
<!-- Node3&#45;&gt;Node5 -->
<g id="edge2" class="edge">
<title>Node3&#45;&gt;Node5</title>
<path fill="none" stroke="#191970" d="M157.2631,-165.2383C170.593,-155.3707 187.187,-143.0868 198.6486,-134.6022"/>
<polygon fill="#191970" stroke="#191970" points="155.0166,-162.5466 149.0616,-171.3095 159.1814,-168.1728 155.0166,-162.5466"/>
</g>
<!-- Node6 -->
<g id="node4" class="node">
<title>Node6</title>
<g id="a_node4"><a xlink:href="IOFactory_8h.html" target="_top" xlink:title="IOFactory.h">
<polygon fill="#ffffff" stroke="#000000" points="178.18,-57.5 178.18,-77.5 246.411,-77.5 246.411,-57.5 178.18,-57.5"/>
<text text-anchor="middle" x="212.2955" y="-64.5" font-family="Helvetica,sans-Serif" font-size="10.00" fill="#000000">IOFactory.h</text>
</a>
</g>
</g>
<!-- Node5&#45;&gt;Node6 -->
<g id="edge3" class="edge">
<title>Node5&#45;&gt;Node6</title>
<path fill="none" stroke="#191970" d="M212.2955,-104.1771C212.2955,-95.1625 212.2955,-84.9556 212.2955,-77.6022"/>
<polygon fill="#191970" stroke="#191970" points="208.7956,-104.3095 212.2955,-114.3095 215.7956,-104.3096 208.7956,-104.3095"/>
</g>
<!-- Node7 -->
<g id="node5" class="node">
<title>Node7</title>
<g id="a_node5"><a xlink:href="BoeingSurfaceVehicleControl_8cpp.html" target="_top" xlink:title="BoeingSurfaceVehicleControl.cpp">
<polygon fill="#ffffff" stroke="#000000" points="67.5545,-.5 67.5545,-20.5 233.0365,-20.5 233.0365,-.5 67.5545,-.5"/>
<text text-anchor="middle" x="150.2955" y="-7.5" font-family="Helvetica,sans-Serif" font-size="10.00" fill="#000000">BoeingSurfaceVehicleControl.cpp</text>
</a>
</g>
</g>
<!-- Node5&#45;&gt;Node7 -->
<g id="edge7" class="edge">
<title>Node5&#45;&gt;Node7</title>
<path fill="none" stroke="#191970" d="M192.5297,-107.1474C184.3186,-99.018 175.3195,-88.7608 169.2955,-78 158.8291,-59.3038 153.7735,-34.4106 151.6359,-20.6781"/>
<polygon fill="#191970" stroke="#191970" points="190.364,-109.9162 200.0379,-114.2366 195.1697,-104.8265 190.364,-109.9162"/>
</g>
<!-- Node9 -->
<g id="node7" class="node">
<title>Node9</title>
<g id="a_node7"><a xlink:href="main_8cpp.html" target="_top" xlink:title="main.cpp">
<polygon fill="#ffffff" stroke="#000000" points="264.014,-57.5 264.014,-77.5 320.577,-77.5 320.577,-57.5 264.014,-57.5"/>
<text text-anchor="middle" x="292.2955" y="-64.5" font-family="Helvetica,sans-Serif" font-size="10.00" fill="#000000">main.cpp</text>
</a>
</g>
</g>
<!-- Node5&#45;&gt;Node9 -->
<g id="edge6" class="edge">
<title>Node5&#45;&gt;Node9</title>
<path fill="none" stroke="#191970" d="M235.119,-108.2383C248.9683,-98.3707 266.2087,-86.0868 278.1169,-77.6022"/>
<polygon fill="#191970" stroke="#191970" points="232.7111,-105.6563 226.5979,-114.3095 236.7731,-111.3572 232.7111,-105.6563"/>
</g>
<!-- Node6&#45;&gt;Node7 -->
<g id="edge4" class="edge">
<title>Node6&#45;&gt;Node7</title>
<path fill="none" stroke="#191970" d="M193.681,-50.3867C183.114,-40.6718 170.2491,-28.8444 161.2839,-20.6022"/>
<polygon fill="#191970" stroke="#191970" points="191.4806,-53.1181 201.2111,-57.3095 196.2182,-47.9649 191.4806,-53.1181"/>
</g>
<!-- Node8 -->
<g id="node6" class="node">
<title>Node8</title>
<g id="a_node6"><a xlink:href="IOFactory_8cpp.html" target="_top" xlink:title="IOFactory.cpp">
<polygon fill="#ffffff" stroke="#000000" points="250.9005,-.5 250.9005,-20.5 329.6905,-20.5 329.6905,-.5 250.9005,-.5"/>
<text text-anchor="middle" x="290.2955" y="-7.5" font-family="Helvetica,sans-Serif" font-size="10.00" fill="#000000">IOFactory.cpp</text>
</a>
</g>
</g>
<!-- Node6&#45;&gt;Node8 -->
<g id="edge5" class="edge">
<title>Node6&#45;&gt;Node8</title>
<path fill="none" stroke="#191970" d="M234.5484,-51.2383C248.0514,-41.3707 264.8609,-29.0868 276.4714,-20.6022"/>
<polygon fill="#191970" stroke="#191970" points="232.2492,-48.5835 226.2403,-57.3095 236.3793,-54.2352 232.2492,-48.5835"/>
</g>
</g>
</svg>
