<?xml version="1.0" encoding="UTF-8" standalone="no"?>
<!DOCTYPE svg PUBLIC "-//W3C//DTD SVG 1.1//EN"
 "http://www.w3.org/Graphics/SVG/1.1/DTD/svg11.dtd">
<!-- Generated by graphviz version 2.40.1 (20161225.0304)
 -->
<!-- Title: BluetoothManager.h Pages: 1 -->
<svg width="366pt" height="257pt"
 viewBox="0.00 0.00 366.04 257.00" xmlns="http://www.w3.org/2000/svg" xmlns:xlink="http://www.w3.org/1999/xlink">
<g id="graph0" class="graph" transform="scale(1 1) rotate(0) translate(4 253)">
<title>BluetoothManager.h</title>
<polygon fill="#ffffff" stroke="transparent" points="-4,4 -4,-253 362.0365,-253 362.0365,4 -4,4"/>
<!-- Node2 -->
<g id="node1" class="node">
<title>Node2</title>
<polygon fill="#bfbfbf" stroke="#000000" points="123.2795,-228.5 123.2795,-248.5 229.3115,-248.5 229.3115,-228.5 123.2795,-228.5"/>
<text text-anchor="middle" x="176.2955" y="-235.5" font-family="Helvetica,sans-Serif" font-size="10.00" fill="#000000">BluetoothManager.h</text>
</g>
<!-- Node3 -->
<g id="node2" class="node">
<title>Node3</title>
<g id="a_node2"><a xlink:href="BluetoothInterface_8h.html" target="_top" xlink:title="BluetoothInterface.h">
<polygon fill="#ffffff" stroke="#000000" points="123.555,-171.5 123.555,-191.5 229.036,-191.5 229.036,-171.5 123.555,-171.5"/>
<text text-anchor="middle" x="176.2955" y="-178.5" font-family="Helvetica,sans-Serif" font-size="10.00" fill="#000000">BluetoothInterface.h</text>
</a>
</g>
</g>
<!-- Node2&#45;&gt;Node3 -->
<g id="edge1" class="edge">
<title>Node2&#45;&gt;Node3</title>
<path fill="none" stroke="#191970" d="M176.2955,-218.1771C176.2955,-209.1625 176.2955,-198.9556 176.2955,-191.6022"/>
<polygon fill="#191970" stroke="#191970" points="172.7956,-218.3095 176.2955,-228.3095 179.7956,-218.3096 172.7956,-218.3095"/>
</g>
<!-- Node4 -->
<g id="node3" class="node">
<title>Node4</title>
<g id="a_node3"><a xlink:href="BluetoothManager_8cpp.html" target="_top" xlink:title="BluetoothManager.cpp">
<polygon fill="#ffffff" stroke="#000000" points="0,-114.5 0,-134.5 116.591,-134.5 116.591,-114.5 0,-114.5"/>
<text text-anchor="middle" x="58.2955" y="-121.5" font-family="Helvetica,sans-Serif" font-size="10.00" fill="#000000">BluetoothManager.cpp</text>
</a>
</g>
</g>
<!-- Node2&#45;&gt;Node4 -->
<g id="edge9" class="edge">
<title>Node2&#45;&gt;Node4</title>
<path fill="none" stroke="#191970" d="M152.5034,-222.6479C140.511,-214.1744 126.0574,-203.1987 114.2955,-192 94.8868,-173.5207 75.6963,-148.5461 65.5977,-134.7417"/>
<polygon fill="#191970" stroke="#191970" points="150.5132,-225.5271 160.727,-228.3431 154.4986,-219.7723 150.5132,-225.5271"/>
</g>
<!-- Node7 -->
<g id="node6" class="node">
<title>Node7</title>
<g id="a_node6"><a xlink:href="BoeingSurfaceVehicleControl_8cpp.html" target="_top" xlink:title="BoeingSurfaceVehicleControl.cpp">
<polygon fill="#ffffff" stroke="#000000" points="192.5545,-.5 192.5545,-20.5 358.0365,-20.5 358.0365,-.5 192.5545,-.5"/>
<text text-anchor="middle" x="275.2955" y="-7.5" font-family="Helvetica,sans-Serif" font-size="10.00" fill="#000000">BoeingSurfaceVehicleControl.cpp</text>
</a>
</g>
</g>
<!-- Node2&#45;&gt;Node7 -->
<g id="edge10" class="edge">
<title>Node2&#45;&gt;Node7</title>
<path fill="none" stroke="#191970" d="M206.261,-223.6764C236.2853,-206.8935 280.5206,-176.4032 298.2955,-135 315.4643,-95.0086 292.3164,-42.4023 280.9462,-20.6179"/>
<polygon fill="#191970" stroke="#191970" points="204.5774,-220.6078 197.4444,-228.4417 207.9058,-226.7658 204.5774,-220.6078"/>
</g>
<!-- Node3&#45;&gt;Node4 -->
<g id="edge2" class="edge">
<title>Node3&#45;&gt;Node4</title>
<path fill="none" stroke="#191970" d="M146.3614,-167.0403C125.4169,-156.923 97.9581,-143.659 79.3086,-134.6504"/>
<polygon fill="#191970" stroke="#191970" points="144.9442,-170.2426 155.4711,-171.4408 147.989,-163.9395 144.9442,-170.2426"/>
</g>
<!-- Node5 -->
<g id="node4" class="node">
<title>Node5</title>
<g id="a_node4"><a xlink:href="BoeingSurfaceVehicleControl_8h.html" target="_top" xlink:title="BoeingSurfaceVehicleControl.h">
<polygon fill="#ffffff" stroke="#000000" points="134.834,-114.5 134.834,-134.5 289.757,-134.5 289.757,-114.5 134.834,-114.5"/>
<text text-anchor="middle" x="212.2955" y="-121.5" font-family="Helvetica,sans-Serif" font-size="10.00" fill="#000000">BoeingSurfaceVehicleControl.h</text>
</a>
</g>
</g>
<!-- Node3&#45;&gt;Node5 -->
<g id="edge3" class="edge">
<title>Node3&#45;&gt;Node5</title>
<path fill="none" stroke="#191970" d="M188.1998,-162.6515C194.1106,-153.2928 201.0158,-142.3596 205.9151,-134.6022"/>
<polygon fill="#191970" stroke="#191970" points="185.1123,-160.9856 182.7316,-171.3095 191.0308,-164.7236 185.1123,-160.9856"/>
</g>
<!-- Node6 -->
<g id="node5" class="node">
<title>Node6</title>
<g id="a_node5"><a xlink:href="IOFactory_8h.html" target="_top" xlink:title="IOFactory.h">
<polygon fill="#ffffff" stroke="#000000" points="103.18,-57.5 103.18,-77.5 171.411,-77.5 171.411,-57.5 103.18,-57.5"/>
<text text-anchor="middle" x="137.2955" y="-64.5" font-family="Helvetica,sans-Serif" font-size="10.00" fill="#000000">IOFactory.h</text>
</a>
</g>
</g>
<!-- Node5&#45;&gt;Node6 -->
<g id="edge4" class="edge">
<title>Node5&#45;&gt;Node6</title>
<path fill="none" stroke="#191970" d="M190.8985,-108.2383C177.9148,-98.3707 161.7519,-86.0868 150.5879,-77.6022"/>
<polygon fill="#191970" stroke="#191970" points="188.8076,-111.0452 198.887,-114.3095 193.0432,-105.4721 188.8076,-111.0452"/>
</g>
<!-- Node5&#45;&gt;Node7 -->
<g id="edge8" class="edge">
<title>Node5&#45;&gt;Node7</title>
<path fill="none" stroke="#191970" d="M231.1281,-107.3243C239.2052,-99.1135 248.1715,-88.7428 254.2955,-78 264.9927,-59.2347 270.907,-34.3674 273.5588,-20.6579"/>
<polygon fill="#191970" stroke="#191970" points="228.5041,-104.994 223.7783,-114.4765 233.386,-110.0108 228.5041,-104.994"/>
</g>
<!-- Node9 -->
<g id="node8" class="node">
<title>Node9</title>
<g id="a_node8"><a xlink:href="main_8cpp.html" target="_top" xlink:title="main.cpp">
<polygon fill="#ffffff" stroke="#000000" points="189.014,-57.5 189.014,-77.5 245.577,-77.5 245.577,-57.5 189.014,-57.5"/>
<text text-anchor="middle" x="217.2955" y="-64.5" font-family="Helvetica,sans-Serif" font-size="10.00" fill="#000000">main.cpp</text>
</a>
</g>
</g>
<!-- Node5&#45;&gt;Node9 -->
<g id="edge7" class="edge">
<title>Node5&#45;&gt;Node9</title>
<path fill="none" stroke="#191970" d="M214.0782,-104.1771C214.869,-95.1625 215.7643,-84.9556 216.4093,-77.6022"/>
<polygon fill="#191970" stroke="#191970" points="210.5767,-104.0419 213.1894,-114.3095 217.5499,-104.6537 210.5767,-104.0419"/>
</g>
<!-- Node6&#45;&gt;Node7 -->
<g id="edge5" class="edge">
<title>Node6&#45;&gt;Node7</title>
<path fill="none" stroke="#191970" d="M170.9867,-53.5841C195.6371,-43.4024 228.5175,-29.8214 250.7208,-20.6504"/>
<polygon fill="#191970" stroke="#191970" points="169.5559,-50.3882 161.6495,-57.4408 172.2283,-56.858 169.5559,-50.3882"/>
</g>
<!-- Node8 -->
<g id="node7" class="node">
<title>Node8</title>
<g id="a_node7"><a xlink:href="IOFactory_8cpp.html" target="_top" xlink:title="IOFactory.cpp">
<polygon fill="#ffffff" stroke="#000000" points="95.9005,-.5 95.9005,-20.5 174.6905,-20.5 174.6905,-.5 95.9005,-.5"/>
<text text-anchor="middle" x="135.2955" y="-7.5" font-family="Helvetica,sans-Serif" font-size="10.00" fill="#000000">IOFactory.cpp</text>
</a>
</g>
</g>
<!-- Node6&#45;&gt;Node8 -->
<g id="edge6" class="edge">
<title>Node6&#45;&gt;Node8</title>
<path fill="none" stroke="#191970" d="M136.5824,-47.1771C136.2661,-38.1625 135.908,-27.9556 135.65,-20.6022"/>
<polygon fill="#191970" stroke="#191970" points="133.0893,-47.4385 136.9379,-57.3095 140.085,-47.1929 133.0893,-47.4385"/>
</g>
</g>
</svg>
