<?xml version="1.0" encoding="UTF-8" standalone="no"?>
<!DOCTYPE svg PUBLIC "-//W3C//DTD SVG 1.1//EN"
 "http://www.w3.org/Graphics/SVG/1.1/DTD/svg11.dtd">
<!-- Generated by graphviz version 2.40.1 (20161225.0304)
 -->
<!-- Title: /home/jc/Documents/School/SeniorDesign/ControlCode/MainApplication/Sources/Bluetooth/BluetoothBase.cpp Pages: 1 -->
<svg width="516pt" height="179pt"
 viewBox="0.00 0.00 516.41 179.00" xmlns="http://www.w3.org/2000/svg" xmlns:xlink="http://www.w3.org/1999/xlink">
<g id="graph0" class="graph" transform="scale(1 1) rotate(0) translate(4 175)">
<title>/home/jc/Documents/School/SeniorDesign/ControlCode/MainApplication/Sources/Bluetooth/BluetoothBase.cpp</title>
<polygon fill="#ffffff" stroke="transparent" points="-4,4 -4,-175 512.411,-175 512.411,4 -4,4"/>
<!-- Node0 -->
<g id="node1" class="node">
<title>Node0</title>
<polygon fill="#bfbfbf" stroke="#000000" points="137.094,-114.5 137.094,-170.5 324.272,-170.5 324.272,-114.5 137.094,-114.5"/>
<text text-anchor="start" x="145.094" y="-157.5" font-family="Helvetica,sans-Serif" font-size="10.00" fill="#000000">/home/jc/Documents</text>
<text text-anchor="start" x="145.094" y="-145.5" font-family="Helvetica,sans-Serif" font-size="10.00" fill="#000000">/School/SeniorDesign</text>
<text text-anchor="start" x="145.094" y="-133.5" font-family="Helvetica,sans-Serif" font-size="10.00" fill="#000000">/ControlCode/MainApplication</text>
<text text-anchor="middle" x="230.683" y="-121.5" font-family="Helvetica,sans-Serif" font-size="10.00" fill="#000000">/Sources/Bluetooth/BluetoothBase.cpp</text>
</g>
<!-- Node1 -->
<g id="node2" class="node">
<title>Node1</title>
<g id="a_node2"><a xlink:href="BluetoothBase_8h.html" target="_top" xlink:title="BluetoothBase.h">
<polygon fill="#ffffff" stroke="#000000" points="0,-57.5 0,-77.5 89.366,-77.5 89.366,-57.5 0,-57.5"/>
<text text-anchor="middle" x="44.683" y="-64.5" font-family="Helvetica,sans-Serif" font-size="10.00" fill="#000000">BluetoothBase.h</text>
</a>
</g>
</g>
<!-- Node0&#45;&gt;Node1 -->
<g id="edge1" class="edge">
<title>Node0&#45;&gt;Node1</title>
<path fill="none" stroke="#191970" d="M161.159,-114.4661C133.1701,-103.1803 102.1458,-90.6705 79.1581,-81.4012"/>
<polygon fill="#191970" stroke="#191970" points="80.4138,-78.1338 69.8305,-77.6401 77.796,-84.6259 80.4138,-78.1338"/>
</g>
<!-- Node3 -->
<g id="node4" class="node">
<title>Node3</title>
<polygon fill="#ffffff" stroke="#bfbfbf" points="107.1765,-57.5 107.1765,-77.5 158.1895,-77.5 158.1895,-57.5 107.1765,-57.5"/>
<text text-anchor="middle" x="132.683" y="-64.5" font-family="Helvetica,sans-Serif" font-size="10.00" fill="#000000">unistd.h</text>
</g>
<!-- Node0&#45;&gt;Node3 -->
<g id="edge3" class="edge">
<title>Node0&#45;&gt;Node3</title>
<path fill="none" stroke="#191970" d="M193.9126,-114.3594C180.5823,-104.1576 165.962,-92.9686 154.3517,-84.0832"/>
<polygon fill="#191970" stroke="#191970" points="156.1997,-81.0901 146.1312,-77.792 151.9454,-86.649 156.1997,-81.0901"/>
</g>
<!-- Node4 -->
<g id="node5" class="node">
<title>Node4</title>
<polygon fill="#ffffff" stroke="#bfbfbf" points="175.9935,-57.5 175.9935,-77.5 285.3725,-77.5 285.3725,-57.5 175.9935,-57.5"/>
<text text-anchor="middle" x="230.683" y="-64.5" font-family="Helvetica,sans-Serif" font-size="10.00" fill="#000000">bluetooth/bluetooth.h</text>
</g>
<!-- Node0&#45;&gt;Node4 -->
<g id="edge4" class="edge">
<title>Node0&#45;&gt;Node4</title>
<path fill="none" stroke="#191970" d="M230.683,-114.1457C230.683,-105.3619 230.683,-95.8652 230.683,-87.7476"/>
<polygon fill="#191970" stroke="#191970" points="234.1831,-87.7295 230.683,-77.7296 227.1831,-87.7296 234.1831,-87.7295"/>
</g>
<!-- Node5 -->
<g id="node6" class="node">
<title>Node5</title>
<polygon fill="#ffffff" stroke="#bfbfbf" points="302.8965,-57.5 302.8965,-77.5 404.4695,-77.5 404.4695,-57.5 302.8965,-57.5"/>
<text text-anchor="middle" x="353.683" y="-64.5" font-family="Helvetica,sans-Serif" font-size="10.00" fill="#000000">bluetooth/rfcomm.h</text>
</g>
<!-- Node0&#45;&gt;Node5 -->
<g id="edge5" class="edge">
<title>Node0&#45;&gt;Node5</title>
<path fill="none" stroke="#191970" d="M276.8336,-114.3594C294.3335,-103.6887 313.6047,-91.938 328.4714,-82.8729"/>
<polygon fill="#191970" stroke="#191970" points="330.3878,-85.8038 337.1037,-77.6094 326.7435,-79.8272 330.3878,-85.8038"/>
</g>
<!-- Node6 -->
<g id="node7" class="node">
<title>Node6</title>
<g id="a_node7"><a xlink:href="ThreadHelper_8h.html" target="_top" xlink:title="ThreadHelper.h">
<polygon fill="#ffffff" stroke="#000000" points="422.955,-57.5 422.955,-77.5 508.411,-77.5 508.411,-57.5 422.955,-57.5"/>
<text text-anchor="middle" x="465.683" y="-64.5" font-family="Helvetica,sans-Serif" font-size="10.00" fill="#000000">ThreadHelper.h</text>
</a>
</g>
</g>
<!-- Node0&#45;&gt;Node6 -->
<g id="edge6" class="edge">
<title>Node0&#45;&gt;Node6</title>
<path fill="none" stroke="#191970" d="M318.5225,-114.4661C354.7908,-102.8911 395.0931,-90.0287 424.3378,-80.6953"/>
<polygon fill="#191970" stroke="#191970" points="425.7337,-83.9238 434.1961,-77.549 423.6054,-77.2552 425.7337,-83.9238"/>
</g>
<!-- Node2 -->
<g id="node3" class="node">
<title>Node2</title>
<polygon fill="#ffffff" stroke="#bfbfbf" points="24.4605,-.5 24.4605,-20.5 64.9055,-20.5 64.9055,-.5 24.4605,-.5"/>
<text text-anchor="middle" x="44.683" y="-7.5" font-family="Helvetica,sans-Serif" font-size="10.00" fill="#000000">string</text>
</g>
<!-- Node1&#45;&gt;Node2 -->
<g id="edge2" class="edge">
<title>Node1&#45;&gt;Node2</title>
<path fill="none" stroke="#191970" d="M44.683,-57.3095C44.683,-49.9335 44.683,-39.72 44.683,-30.715"/>
<polygon fill="#191970" stroke="#191970" points="48.1831,-30.6022 44.683,-20.6022 41.1831,-30.6023 48.1831,-30.6022"/>
</g>
<!-- Node7 -->
<g id="node8" class="node">
<title>Node7</title>
<polygon fill="#ffffff" stroke="#bfbfbf" points="436.5625,-.5 436.5625,-20.5 494.8035,-20.5 494.8035,-.5 436.5625,-.5"/>
<text text-anchor="middle" x="465.683" y="-7.5" font-family="Helvetica,sans-Serif" font-size="10.00" fill="#000000">pthread.h</text>
</g>
<!-- Node6&#45;&gt;Node7 -->
<g id="edge7" class="edge">
<title>Node6&#45;&gt;Node7</title>
<path fill="none" stroke="#191970" d="M465.683,-57.3095C465.683,-49.9335 465.683,-39.72 465.683,-30.715"/>
<polygon fill="#191970" stroke="#191970" points="469.1831,-30.6022 465.683,-20.6022 462.1831,-30.6023 469.1831,-30.6022"/>
</g>
</g>
</svg>
