<?xml version="1.0" encoding="UTF-8" standalone="no"?>
<!DOCTYPE svg PUBLIC "-//W3C//DTD SVG 1.1//EN"
 "http://www.w3.org/Graphics/SVG/1.1/DTD/svg11.dtd">
<!-- Generated by graphviz version 2.40.1 (20161225.0304)
 -->
<!-- Title: BluetoothServer.h Pages: 1 -->
<svg width="104pt" height="143pt"
 viewBox="0.00 0.00 104.02 143.00" xmlns="http://www.w3.org/2000/svg" xmlns:xlink="http://www.w3.org/1999/xlink">
<g id="graph0" class="graph" transform="scale(1 1) rotate(0) translate(4 139)">
<title>BluetoothServer.h</title>
<polygon fill="#ffffff" stroke="transparent" points="-4,4 -4,-139 100.024,-139 100.024,4 -4,4"/>
<!-- Node0 -->
<g id="node1" class="node">
<title>Node0</title>
<polygon fill="#bfbfbf" stroke="#000000" points="0,-114.5 0,-134.5 96.024,-134.5 96.024,-114.5 0,-114.5"/>
<text text-anchor="middle" x="48.012" y="-121.5" font-family="Helvetica,sans-Serif" font-size="10.00" fill="#000000">BluetoothServer.h</text>
</g>
<!-- Node1 -->
<g id="node2" class="node">
<title>Node1</title>
<g id="a_node2"><a xlink:href="BluetoothBase_8h.html" target="_top" xlink:title="BluetoothBase.h">
<polygon fill="#ffffff" stroke="#000000" points="3.329,-57.5 3.329,-77.5 92.695,-77.5 92.695,-57.5 3.329,-57.5"/>
<text text-anchor="middle" x="48.012" y="-64.5" font-family="Helvetica,sans-Serif" font-size="10.00" fill="#000000">BluetoothBase.h</text>
</a>
</g>
</g>
<!-- Node0&#45;&gt;Node1 -->
<g id="edge1" class="edge">
<title>Node0&#45;&gt;Node1</title>
<path fill="none" stroke="#191970" d="M48.012,-114.3095C48.012,-106.9335 48.012,-96.72 48.012,-87.715"/>
<polygon fill="#191970" stroke="#191970" points="51.5121,-87.6022 48.012,-77.6022 44.5121,-87.6023 51.5121,-87.6022"/>
</g>
<!-- Node2 -->
<g id="node3" class="node">
<title>Node2</title>
<polygon fill="#ffffff" stroke="#bfbfbf" points="27.7895,-.5 27.7895,-20.5 68.2345,-20.5 68.2345,-.5 27.7895,-.5"/>
<text text-anchor="middle" x="48.012" y="-7.5" font-family="Helvetica,sans-Serif" font-size="10.00" fill="#000000">string</text>
</g>
<!-- Node1&#45;&gt;Node2 -->
<g id="edge2" class="edge">
<title>Node1&#45;&gt;Node2</title>
<path fill="none" stroke="#191970" d="M48.012,-57.3095C48.012,-49.9335 48.012,-39.72 48.012,-30.715"/>
<polygon fill="#191970" stroke="#191970" points="51.5121,-30.6022 48.012,-20.6022 44.5121,-30.6023 51.5121,-30.6022"/>
</g>
</g>
</svg>
