<?xml version="1.0" encoding="UTF-8" standalone="no"?>
<!DOCTYPE svg PUBLIC "-//W3C//DTD SVG 1.1//EN"
 "http://www.w3.org/Graphics/SVG/1.1/DTD/svg11.dtd">
<!-- Generated by graphviz version 2.40.1 (20161225.0304)
 -->
<!-- Title: BluetoothServer.cpp Pages: 1 -->
<svg width="523pt" height="200pt"
 viewBox="0.00 0.00 522.74 200.00" xmlns="http://www.w3.org/2000/svg" xmlns:xlink="http://www.w3.org/1999/xlink">
<g id="graph0" class="graph" transform="scale(1 1) rotate(0) translate(4 196)">
<title>BluetoothServer.cpp</title>
<polygon fill="#ffffff" stroke="transparent" points="-4,4 -4,-196 518.74,-196 518.74,4 -4,4"/>
<!-- Node0 -->
<g id="node1" class="node">
<title>Node0</title>
<polygon fill="#bfbfbf" stroke="#000000" points="238.7205,-171.5 238.7205,-191.5 345.3035,-191.5 345.3035,-171.5 238.7205,-171.5"/>
<text text-anchor="middle" x="292.012" y="-178.5" font-family="Helvetica,sans-Serif" font-size="10.00" fill="#000000">BluetoothServer.cpp</text>
</g>
<!-- Node1 -->
<g id="node2" class="node">
<title>Node1</title>
<g id="a_node2"><a xlink:href="BluetoothServer_8h.html" target="_top" xlink:title="BluetoothServer.h">
<polygon fill="#ffffff" stroke="#000000" points="0,-114.5 0,-134.5 96.024,-134.5 96.024,-114.5 0,-114.5"/>
<text text-anchor="middle" x="48.012" y="-121.5" font-family="Helvetica,sans-Serif" font-size="10.00" fill="#000000">BluetoothServer.h</text>
</a>
</g>
</g>
<!-- Node0&#45;&gt;Node1 -->
<g id="edge1" class="edge">
<title>Node0&#45;&gt;Node1</title>
<path fill="none" stroke="#191970" d="M248.9514,-171.4408C207.7008,-161.8043 145.3497,-147.2387 101.0555,-136.8913"/>
<polygon fill="#191970" stroke="#191970" points="101.5859,-133.421 91.0518,-134.5544 99.9935,-140.2375 101.5859,-133.421"/>
</g>
<!-- Node4 -->
<g id="node5" class="node">
<title>Node4</title>
<polygon fill="#ffffff" stroke="#bfbfbf" points="114.3225,-114.5 114.3225,-134.5 223.7015,-134.5 223.7015,-114.5 114.3225,-114.5"/>
<text text-anchor="middle" x="169.012" y="-121.5" font-family="Helvetica,sans-Serif" font-size="10.00" fill="#000000">bluetooth/bluetooth.h</text>
</g>
<!-- Node0&#45;&gt;Node4 -->
<g id="edge4" class="edge">
<title>Node0&#45;&gt;Node4</title>
<path fill="none" stroke="#191970" d="M270.3052,-171.4408C250.8405,-162.4205 222.0558,-149.0813 200.1408,-138.9255"/>
<polygon fill="#191970" stroke="#191970" points="201.4603,-135.6795 190.9155,-134.6504 198.517,-142.0307 201.4603,-135.6795"/>
</g>
<!-- Node5 -->
<g id="node6" class="node">
<title>Node5</title>
<polygon fill="#ffffff" stroke="#bfbfbf" points="241.2255,-114.5 241.2255,-134.5 342.7985,-134.5 342.7985,-114.5 241.2255,-114.5"/>
<text text-anchor="middle" x="292.012" y="-121.5" font-family="Helvetica,sans-Serif" font-size="10.00" fill="#000000">bluetooth/rfcomm.h</text>
</g>
<!-- Node0&#45;&gt;Node5 -->
<g id="edge5" class="edge">
<title>Node0&#45;&gt;Node5</title>
<path fill="none" stroke="#191970" d="M292.012,-171.3095C292.012,-163.9335 292.012,-153.72 292.012,-144.715"/>
<polygon fill="#191970" stroke="#191970" points="295.5121,-144.6022 292.012,-134.6022 288.5121,-144.6023 295.5121,-144.6022"/>
</g>
<!-- Node6 -->
<g id="node7" class="node">
<title>Node6</title>
<polygon fill="#ffffff" stroke="#bfbfbf" points="360.5055,-114.5 360.5055,-134.5 411.5185,-134.5 411.5185,-114.5 360.5055,-114.5"/>
<text text-anchor="middle" x="386.012" y="-121.5" font-family="Helvetica,sans-Serif" font-size="10.00" fill="#000000">unistd.h</text>
</g>
<!-- Node0&#45;&gt;Node6 -->
<g id="edge6" class="edge">
<title>Node0&#45;&gt;Node6</title>
<path fill="none" stroke="#191970" d="M308.8173,-171.3095C323.2537,-162.5556 344.2811,-149.8049 360.7455,-139.8211"/>
<polygon fill="#191970" stroke="#191970" points="362.6162,-142.7801 369.3522,-134.6022 358.9866,-136.7945 362.6162,-142.7801"/>
</g>
<!-- Node7 -->
<g id="node8" class="node">
<title>Node7</title>
<g id="a_node8"><a xlink:href="ThreadHelper_8h.html" target="_top" xlink:title="ThreadHelper.h">
<polygon fill="#ffffff" stroke="#000000" points="429.284,-114.5 429.284,-134.5 514.74,-134.5 514.74,-114.5 429.284,-114.5"/>
<text text-anchor="middle" x="472.012" y="-121.5" font-family="Helvetica,sans-Serif" font-size="10.00" fill="#000000">ThreadHelper.h</text>
</a>
</g>
</g>
<!-- Node0&#45;&gt;Node7 -->
<g id="edge7" class="edge">
<title>Node0&#45;&gt;Node7</title>
<path fill="none" stroke="#191970" d="M323.778,-171.4408C353.5041,-162.0275 398.0835,-147.9107 430.5904,-137.6169"/>
<polygon fill="#191970" stroke="#191970" points="431.7845,-140.9101 440.2613,-134.5544 429.6712,-134.2367 431.7845,-140.9101"/>
</g>
<!-- Node2 -->
<g id="node3" class="node">
<title>Node2</title>
<g id="a_node3"><a xlink:href="BluetoothBase_8h.html" target="_top" xlink:title="BluetoothBase.h">
<polygon fill="#ffffff" stroke="#000000" points="3.329,-57.5 3.329,-77.5 92.695,-77.5 92.695,-57.5 3.329,-57.5"/>
<text text-anchor="middle" x="48.012" y="-64.5" font-family="Helvetica,sans-Serif" font-size="10.00" fill="#000000">BluetoothBase.h</text>
</a>
</g>
</g>
<!-- Node1&#45;&gt;Node2 -->
<g id="edge2" class="edge">
<title>Node1&#45;&gt;Node2</title>
<path fill="none" stroke="#191970" d="M48.012,-114.3095C48.012,-106.9335 48.012,-96.72 48.012,-87.715"/>
<polygon fill="#191970" stroke="#191970" points="51.5121,-87.6022 48.012,-77.6022 44.5121,-87.6023 51.5121,-87.6022"/>
</g>
<!-- Node3 -->
<g id="node4" class="node">
<title>Node3</title>
<polygon fill="#ffffff" stroke="#bfbfbf" points="27.7895,-.5 27.7895,-20.5 68.2345,-20.5 68.2345,-.5 27.7895,-.5"/>
<text text-anchor="middle" x="48.012" y="-7.5" font-family="Helvetica,sans-Serif" font-size="10.00" fill="#000000">string</text>
</g>
<!-- Node2&#45;&gt;Node3 -->
<g id="edge3" class="edge">
<title>Node2&#45;&gt;Node3</title>
<path fill="none" stroke="#191970" d="M48.012,-57.3095C48.012,-49.9335 48.012,-39.72 48.012,-30.715"/>
<polygon fill="#191970" stroke="#191970" points="51.5121,-30.6022 48.012,-20.6022 44.5121,-30.6023 51.5121,-30.6022"/>
</g>
<!-- Node8 -->
<g id="node9" class="node">
<title>Node8</title>
<polygon fill="#ffffff" stroke="#bfbfbf" points="442.8915,-57.5 442.8915,-77.5 501.1325,-77.5 501.1325,-57.5 442.8915,-57.5"/>
<text text-anchor="middle" x="472.012" y="-64.5" font-family="Helvetica,sans-Serif" font-size="10.00" fill="#000000">pthread.h</text>
</g>
<!-- Node7&#45;&gt;Node8 -->
<g id="edge8" class="edge">
<title>Node7&#45;&gt;Node8</title>
<path fill="none" stroke="#191970" d="M472.012,-114.3095C472.012,-106.9335 472.012,-96.72 472.012,-87.715"/>
<polygon fill="#191970" stroke="#191970" points="475.5121,-87.6022 472.012,-77.6022 468.5121,-87.6023 475.5121,-87.6022"/>
</g>
</g>
</svg>
