<?xml version="1.0" encoding="UTF-8" standalone="no"?>
<!DOCTYPE svg PUBLIC "-//W3C//DTD SVG 1.1//EN"
 "http://www.w3.org/Graphics/SVG/1.1/DTD/svg11.dtd">
<!-- Generated by graphviz version 2.40.1 (20161225.0304)
 -->
<!-- Title: BluetoothInterface.h Pages: 1 -->
<svg width="459pt" height="200pt"
 viewBox="0.00 0.00 458.63 200.00" xmlns="http://www.w3.org/2000/svg" xmlns:xlink="http://www.w3.org/1999/xlink">
<g id="graph0" class="graph" transform="scale(1 1) rotate(0) translate(4 196)">
<title>BluetoothInterface.h</title>
<polygon fill="#ffffff" stroke="transparent" points="-4,4 -4,-196 454.6265,-196 454.6265,4 -4,4"/>
<!-- Node4 -->
<g id="node1" class="node">
<title>Node4</title>
<polygon fill="#bfbfbf" stroke="#000000" points="172.491,-171.5 172.491,-191.5 277.972,-191.5 277.972,-171.5 172.491,-171.5"/>
<text text-anchor="middle" x="225.2315" y="-178.5" font-family="Helvetica,sans-Serif" font-size="10.00" fill="#000000">BluetoothInterface.h</text>
</g>
<!-- Node5 -->
<g id="node2" class="node">
<title>Node5</title>
<g id="a_node2"><a xlink:href="BluetoothManager_8cpp.html" target="_top" xlink:title="BluetoothManager.cpp">
<polygon fill="#ffffff" stroke="#000000" points="89.936,-114.5 89.936,-134.5 206.527,-134.5 206.527,-114.5 89.936,-114.5"/>
<text text-anchor="middle" x="148.2315" y="-121.5" font-family="Helvetica,sans-Serif" font-size="10.00" fill="#000000">BluetoothManager.cpp</text>
</a>
</g>
</g>
<!-- Node4&#45;&gt;Node5 -->
<g id="edge1" class="edge">
<title>Node4&#45;&gt;Node5</title>
<path fill="none" stroke="#191970" d="M203.2639,-165.2383C189.934,-155.3707 173.34,-143.0868 161.8784,-134.6022"/>
<polygon fill="#191970" stroke="#191970" points="201.3456,-168.1728 211.4654,-171.3095 205.5104,-162.5466 201.3456,-168.1728"/>
</g>
<!-- Node6 -->
<g id="node3" class="node">
<title>Node6</title>
<g id="a_node3"><a xlink:href="BoeingSurfaceVehicleControl_8h.html" target="_top" xlink:title="BoeingSurfaceVehicleControl.h">
<polygon fill="#ffffff" stroke="#000000" points="224.77,-114.5 224.77,-134.5 379.693,-134.5 379.693,-114.5 224.77,-114.5"/>
<text text-anchor="middle" x="302.2315" y="-121.5" font-family="Helvetica,sans-Serif" font-size="10.00" fill="#000000">BoeingSurfaceVehicleControl.h</text>
</a>
</g>
</g>
<!-- Node4&#45;&gt;Node6 -->
<g id="edge2" class="edge">
<title>Node4&#45;&gt;Node6</title>
<path fill="none" stroke="#191970" d="M247.1991,-165.2383C260.529,-155.3707 277.123,-143.0868 288.5846,-134.6022"/>
<polygon fill="#191970" stroke="#191970" points="244.9526,-162.5466 238.9976,-171.3095 249.1174,-168.1728 244.9526,-162.5466"/>
</g>
<!-- Node7 -->
<g id="node4" class="node">
<title>Node7</title>
<g id="a_node4"><a xlink:href="CommunicationProtocolParser_8h.html" target="_top" xlink:title="CommunicationProtocolParser.h">
<polygon fill="#ffffff" stroke="#000000" points="83.2795,-57.5 83.2795,-77.5 243.1835,-77.5 243.1835,-57.5 83.2795,-57.5"/>
<text text-anchor="middle" x="163.2315" y="-64.5" font-family="Helvetica,sans-Serif" font-size="10.00" fill="#000000">CommunicationProtocolParser.h</text>
</a>
</g>
</g>
<!-- Node6&#45;&gt;Node7 -->
<g id="edge3" class="edge">
<title>Node6&#45;&gt;Node7</title>
<path fill="none" stroke="#191970" d="M268.2962,-110.5841C243.4672,-100.4024 210.3485,-86.8214 187.9843,-77.6504"/>
<polygon fill="#191970" stroke="#191970" points="267.1208,-113.8849 277.7011,-114.4408 269.7767,-107.4083 267.1208,-113.8849"/>
</g>
<!-- Node8 -->
<g id="node5" class="node">
<title>Node8</title>
<g id="a_node5"><a xlink:href="BoeingSurfaceVehicleControl_8cpp.html" target="_top" xlink:title="BoeingSurfaceVehicleControl.cpp">
<polygon fill="#ffffff" stroke="#000000" points="188.4905,-.5 188.4905,-20.5 353.9725,-20.5 353.9725,-.5 188.4905,-.5"/>
<text text-anchor="middle" x="271.2315" y="-7.5" font-family="Helvetica,sans-Serif" font-size="10.00" fill="#000000">BoeingSurfaceVehicleControl.cpp</text>
</a>
</g>
</g>
<!-- Node6&#45;&gt;Node8 -->
<g id="edge10" class="edge">
<title>Node6&#45;&gt;Node8</title>
<path fill="none" stroke="#191970" d="M296.8547,-104.7273C290.2125,-80.3012 279.1621,-39.664 274.0209,-20.7579"/>
<polygon fill="#191970" stroke="#191970" points="293.479,-105.6521 299.4805,-114.3833 300.2337,-103.8152 293.479,-105.6521"/>
</g>
<!-- Node10 -->
<g id="node7" class="node">
<title>Node10</title>
<g id="a_node7"><a xlink:href="IOFactory_8h.html" target="_top" xlink:title="IOFactory.h">
<polygon fill="#ffffff" stroke="#000000" points="299.116,-57.5 299.116,-77.5 367.347,-77.5 367.347,-57.5 299.116,-57.5"/>
<text text-anchor="middle" x="333.2315" y="-64.5" font-family="Helvetica,sans-Serif" font-size="10.00" fill="#000000">IOFactory.h</text>
</a>
</g>
</g>
<!-- Node6&#45;&gt;Node10 -->
<g id="edge6" class="edge">
<title>Node6&#45;&gt;Node10</title>
<path fill="none" stroke="#191970" d="M312.6418,-105.3586C317.696,-96.0653 323.5623,-85.2788 327.7373,-77.6022"/>
<polygon fill="#191970" stroke="#191970" points="309.4768,-103.8525 307.7737,-114.3095 315.6261,-107.1969 309.4768,-103.8525"/>
</g>
<!-- Node12 -->
<g id="node9" class="node">
<title>Node12</title>
<g id="a_node9"><a xlink:href="main_8cpp.html" target="_top" xlink:title="main.cpp">
<polygon fill="#ffffff" stroke="#000000" points="384.95,-57.5 384.95,-77.5 441.513,-77.5 441.513,-57.5 384.95,-57.5"/>
<text text-anchor="middle" x="413.2315" y="-64.5" font-family="Helvetica,sans-Serif" font-size="10.00" fill="#000000">main.cpp</text>
</a>
</g>
</g>
<!-- Node6&#45;&gt;Node12 -->
<g id="edge9" class="edge">
<title>Node6&#45;&gt;Node12</title>
<path fill="none" stroke="#191970" d="M330.9238,-109.7661C350.5567,-99.6844 376.0798,-86.5779 393.4649,-77.6504"/>
<polygon fill="#191970" stroke="#191970" points="329.1174,-106.7592 321.8206,-114.4408 332.3151,-112.9861 329.1174,-106.7592"/>
</g>
<!-- Node7&#45;&gt;Node8 -->
<g id="edge4" class="edge">
<title>Node7&#45;&gt;Node8</title>
<path fill="none" stroke="#191970" d="M191.1484,-52.7661C210.2506,-42.6844 235.0839,-29.5779 251.9991,-20.6504"/>
<polygon fill="#191970" stroke="#191970" points="189.5013,-49.6778 182.2911,-57.4408 192.7687,-55.8685 189.5013,-49.6778"/>
</g>
<!-- Node9 -->
<g id="node6" class="node">
<title>Node9</title>
<g id="a_node6"><a xlink:href="CommunicationProtocolParser_8cpp.html" target="_top" xlink:title="CommunicationProtocolParser.cpp">
<polygon fill="#ffffff" stroke="#000000" points="0,-.5 0,-20.5 170.463,-20.5 170.463,-.5 0,-.5"/>
<text text-anchor="middle" x="85.2315" y="-7.5" font-family="Helvetica,sans-Serif" font-size="10.00" fill="#000000">CommunicationProtocolParser.cpp</text>
</a>
</g>
</g>
<!-- Node7&#45;&gt;Node9 -->
<g id="edge5" class="edge">
<title>Node7&#45;&gt;Node9</title>
<path fill="none" stroke="#191970" d="M140.9786,-51.2383C127.4756,-41.3707 110.6661,-29.0868 99.0556,-20.6022"/>
<polygon fill="#191970" stroke="#191970" points="139.1477,-54.2352 149.2867,-57.3095 143.2778,-48.5835 139.1477,-54.2352"/>
</g>
<!-- Node10&#45;&gt;Node8 -->
<g id="edge7" class="edge">
<title>Node10&#45;&gt;Node8</title>
<path fill="none" stroke="#191970" d="M314.617,-50.3867C304.05,-40.6718 291.1851,-28.8444 282.2199,-20.6022"/>
<polygon fill="#191970" stroke="#191970" points="312.4166,-53.1181 322.1471,-57.3095 317.1542,-47.9649 312.4166,-53.1181"/>
</g>
<!-- Node11 -->
<g id="node8" class="node">
<title>Node11</title>
<g id="a_node8"><a xlink:href="IOFactory_8cpp.html" target="_top" xlink:title="IOFactory.cpp">
<polygon fill="#ffffff" stroke="#000000" points="371.8365,-.5 371.8365,-20.5 450.6265,-20.5 450.6265,-.5 371.8365,-.5"/>
<text text-anchor="middle" x="411.2315" y="-7.5" font-family="Helvetica,sans-Serif" font-size="10.00" fill="#000000">IOFactory.cpp</text>
</a>
</g>
</g>
<!-- Node10&#45;&gt;Node11 -->
<g id="edge8" class="edge">
<title>Node10&#45;&gt;Node11</title>
<path fill="none" stroke="#191970" d="M355.4844,-51.2383C368.9874,-41.3707 385.7969,-29.0868 397.4074,-20.6022"/>
<polygon fill="#191970" stroke="#191970" points="353.1852,-48.5835 347.1763,-57.3095 357.3153,-54.2352 353.1852,-48.5835"/>
</g>
</g>
</svg>
