<?xml version="1.0" encoding="UTF-8" standalone="no"?>
<!DOCTYPE svg PUBLIC "-//W3C//DTD SVG 1.1//EN"
 "http://www.w3.org/Graphics/SVG/1.1/DTD/svg11.dtd">
<!-- Generated by graphviz version 2.40.1 (20161225.0304)
 -->
<!-- Title: BluetoothClient.cpp Pages: 1 -->
<svg width="519pt" height="200pt"
 viewBox="0.00 0.00 518.79 200.00" xmlns="http://www.w3.org/2000/svg" xmlns:xlink="http://www.w3.org/1999/xlink">
<g id="graph0" class="graph" transform="scale(1 1) rotate(0) translate(4 196)">
<title>BluetoothClient.cpp</title>
<polygon fill="#ffffff" stroke="transparent" points="-4,4 -4,-196 514.7945,-196 514.7945,4 -4,4"/>
<!-- Node0 -->
<g id="node1" class="node">
<title>Node0</title>
<polygon fill="#bfbfbf" stroke="#000000" points="236.7205,-171.5 236.7205,-191.5 339.4125,-191.5 339.4125,-171.5 236.7205,-171.5"/>
<text text-anchor="middle" x="288.0665" y="-178.5" font-family="Helvetica,sans-Serif" font-size="10.00" fill="#000000">BluetoothClient.cpp</text>
</g>
<!-- Node1 -->
<g id="node2" class="node">
<title>Node1</title>
<g id="a_node2"><a xlink:href="BluetoothClient_8h.html" target="_top" xlink:title="BluetoothClient.h">
<polygon fill="#ffffff" stroke="#000000" points="0,-114.5 0,-134.5 92.133,-134.5 92.133,-114.5 0,-114.5"/>
<text text-anchor="middle" x="46.0665" y="-121.5" font-family="Helvetica,sans-Serif" font-size="10.00" fill="#000000">BluetoothClient.h</text>
</a>
</g>
</g>
<!-- Node0&#45;&gt;Node1 -->
<g id="edge1" class="edge">
<title>Node0&#45;&gt;Node1</title>
<path fill="none" stroke="#191970" d="M245.3588,-171.4408C204.4464,-161.8043 142.6063,-147.2387 98.6752,-136.8913"/>
<polygon fill="#191970" stroke="#191970" points="99.2897,-133.4403 88.7536,-134.5544 97.6848,-140.2539 99.2897,-133.4403"/>
</g>
<!-- Node4 -->
<g id="node5" class="node">
<title>Node4</title>
<polygon fill="#ffffff" stroke="#bfbfbf" points="110.377,-114.5 110.377,-134.5 219.756,-134.5 219.756,-114.5 110.377,-114.5"/>
<text text-anchor="middle" x="165.0665" y="-121.5" font-family="Helvetica,sans-Serif" font-size="10.00" fill="#000000">bluetooth/bluetooth.h</text>
</g>
<!-- Node0&#45;&gt;Node4 -->
<g id="edge4" class="edge">
<title>Node0&#45;&gt;Node4</title>
<path fill="none" stroke="#191970" d="M266.3597,-171.4408C246.895,-162.4205 218.1103,-149.0813 196.1953,-138.9255"/>
<polygon fill="#191970" stroke="#191970" points="197.5148,-135.6795 186.97,-134.6504 194.5715,-142.0307 197.5148,-135.6795"/>
</g>
<!-- Node5 -->
<g id="node6" class="node">
<title>Node5</title>
<polygon fill="#ffffff" stroke="#bfbfbf" points="237.28,-114.5 237.28,-134.5 338.853,-134.5 338.853,-114.5 237.28,-114.5"/>
<text text-anchor="middle" x="288.0665" y="-121.5" font-family="Helvetica,sans-Serif" font-size="10.00" fill="#000000">bluetooth/rfcomm.h</text>
</g>
<!-- Node0&#45;&gt;Node5 -->
<g id="edge5" class="edge">
<title>Node0&#45;&gt;Node5</title>
<path fill="none" stroke="#191970" d="M288.0665,-171.3095C288.0665,-163.9335 288.0665,-153.72 288.0665,-144.715"/>
<polygon fill="#191970" stroke="#191970" points="291.5666,-144.6022 288.0665,-134.6022 284.5666,-144.6023 291.5666,-144.6022"/>
</g>
<!-- Node6 -->
<g id="node7" class="node">
<title>Node6</title>
<polygon fill="#ffffff" stroke="#bfbfbf" points="356.56,-114.5 356.56,-134.5 407.573,-134.5 407.573,-114.5 356.56,-114.5"/>
<text text-anchor="middle" x="382.0665" y="-121.5" font-family="Helvetica,sans-Serif" font-size="10.00" fill="#000000">unistd.h</text>
</g>
<!-- Node0&#45;&gt;Node6 -->
<g id="edge6" class="edge">
<title>Node0&#45;&gt;Node6</title>
<path fill="none" stroke="#191970" d="M304.8718,-171.3095C319.3082,-162.5556 340.3356,-149.8049 356.8,-139.8211"/>
<polygon fill="#191970" stroke="#191970" points="358.6707,-142.7801 365.4067,-134.6022 355.0411,-136.7945 358.6707,-142.7801"/>
</g>
<!-- Node7 -->
<g id="node8" class="node">
<title>Node7</title>
<g id="a_node8"><a xlink:href="ThreadHelper_8h.html" target="_top" xlink:title="ThreadHelper.h">
<polygon fill="#ffffff" stroke="#000000" points="425.3385,-114.5 425.3385,-134.5 510.7945,-134.5 510.7945,-114.5 425.3385,-114.5"/>
<text text-anchor="middle" x="468.0665" y="-121.5" font-family="Helvetica,sans-Serif" font-size="10.00" fill="#000000">ThreadHelper.h</text>
</a>
</g>
</g>
<!-- Node0&#45;&gt;Node7 -->
<g id="edge7" class="edge">
<title>Node0&#45;&gt;Node7</title>
<path fill="none" stroke="#191970" d="M319.8325,-171.4408C349.5586,-162.0275 394.138,-147.9107 426.6449,-137.6169"/>
<polygon fill="#191970" stroke="#191970" points="427.839,-140.9101 436.3158,-134.5544 425.7257,-134.2367 427.839,-140.9101"/>
</g>
<!-- Node2 -->
<g id="node3" class="node">
<title>Node2</title>
<g id="a_node3"><a xlink:href="BluetoothBase_8h.html" target="_top" xlink:title="BluetoothBase.h">
<polygon fill="#ffffff" stroke="#000000" points="1.3835,-57.5 1.3835,-77.5 90.7495,-77.5 90.7495,-57.5 1.3835,-57.5"/>
<text text-anchor="middle" x="46.0665" y="-64.5" font-family="Helvetica,sans-Serif" font-size="10.00" fill="#000000">BluetoothBase.h</text>
</a>
</g>
</g>
<!-- Node1&#45;&gt;Node2 -->
<g id="edge2" class="edge">
<title>Node1&#45;&gt;Node2</title>
<path fill="none" stroke="#191970" d="M46.0665,-114.3095C46.0665,-106.9335 46.0665,-96.72 46.0665,-87.715"/>
<polygon fill="#191970" stroke="#191970" points="49.5666,-87.6022 46.0665,-77.6022 42.5666,-87.6023 49.5666,-87.6022"/>
</g>
<!-- Node3 -->
<g id="node4" class="node">
<title>Node3</title>
<polygon fill="#ffffff" stroke="#bfbfbf" points="25.844,-.5 25.844,-20.5 66.289,-20.5 66.289,-.5 25.844,-.5"/>
<text text-anchor="middle" x="46.0665" y="-7.5" font-family="Helvetica,sans-Serif" font-size="10.00" fill="#000000">string</text>
</g>
<!-- Node2&#45;&gt;Node3 -->
<g id="edge3" class="edge">
<title>Node2&#45;&gt;Node3</title>
<path fill="none" stroke="#191970" d="M46.0665,-57.3095C46.0665,-49.9335 46.0665,-39.72 46.0665,-30.715"/>
<polygon fill="#191970" stroke="#191970" points="49.5666,-30.6022 46.0665,-20.6022 42.5666,-30.6023 49.5666,-30.6022"/>
</g>
<!-- Node8 -->
<g id="node9" class="node">
<title>Node8</title>
<polygon fill="#ffffff" stroke="#bfbfbf" points="438.946,-57.5 438.946,-77.5 497.187,-77.5 497.187,-57.5 438.946,-57.5"/>
<text text-anchor="middle" x="468.0665" y="-64.5" font-family="Helvetica,sans-Serif" font-size="10.00" fill="#000000">pthread.h</text>
</g>
<!-- Node7&#45;&gt;Node8 -->
<g id="edge8" class="edge">
<title>Node7&#45;&gt;Node8</title>
<path fill="none" stroke="#191970" d="M468.0665,-114.3095C468.0665,-106.9335 468.0665,-96.72 468.0665,-87.715"/>
<polygon fill="#191970" stroke="#191970" points="471.5666,-87.6022 468.0665,-77.6022 464.5666,-87.6023 471.5666,-87.6022"/>
</g>
</g>
</svg>
