<?xml version="1.0" encoding="UTF-8" standalone="no"?>
<!DOCTYPE svg PUBLIC "-//W3C//DTD SVG 1.1//EN"
 "http://www.w3.org/Graphics/SVG/1.1/DTD/svg11.dtd">
<!-- Generated by graphviz version 2.40.1 (20161225.0304)
 -->
<!-- Title: /home/jc/Documents/School/SeniorDesign/ControlCode/MainApplication/Headers/Bluetooth/BluetoothBase.h Pages: 1 -->
<svg width="714pt" height="461pt"
 viewBox="0.00 0.00 713.56 461.00" xmlns="http://www.w3.org/2000/svg" xmlns:xlink="http://www.w3.org/1999/xlink">
<g id="graph0" class="graph" transform="scale(1 1) rotate(0) translate(4 457)">
<title>/home/jc/Documents/School/SeniorDesign/ControlCode/MainApplication/Headers/Bluetooth/BluetoothBase.h</title>
<polygon fill="#ffffff" stroke="transparent" points="-4,4 -4,-457 709.5615,-457 709.5615,4 -4,4"/>
<!-- Node2 -->
<g id="node1" class="node">
<title>Node2</title>
<polygon fill="#bfbfbf" stroke="#000000" points="319.1085,-396.5 319.1085,-452.5 496.8365,-452.5 496.8365,-396.5 319.1085,-396.5"/>
<text text-anchor="start" x="327.1085" y="-439.5" font-family="Helvetica,sans-Serif" font-size="10.00" fill="#000000">/home/jc/Documents</text>
<text text-anchor="start" x="327.1085" y="-427.5" font-family="Helvetica,sans-Serif" font-size="10.00" fill="#000000">/School/SeniorDesign</text>
<text text-anchor="start" x="327.1085" y="-415.5" font-family="Helvetica,sans-Serif" font-size="10.00" fill="#000000">/ControlCode/MainApplication</text>
<text text-anchor="middle" x="407.9725" y="-403.5" font-family="Helvetica,sans-Serif" font-size="10.00" fill="#000000">/Headers/Bluetooth/BluetoothBase.h</text>
</g>
<!-- Node3 -->
<g id="node2" class="node">
<title>Node3</title>
<g id="a_node2"><a xlink:href="BluetoothClient_8h.html" target="_top" xlink:title="/home/jc/Documents\l/School/SeniorDesign\l/ControlCode/MainApplication\l/Headers/Bluetooth/BluetoothClient.h">
<polygon fill="#ffffff" stroke="#000000" points="117.725,-303.5 117.725,-359.5 298.22,-359.5 298.22,-303.5 117.725,-303.5"/>
<text text-anchor="start" x="125.725" y="-346.5" font-family="Helvetica,sans-Serif" font-size="10.00" fill="#000000">/home/jc/Documents</text>
<text text-anchor="start" x="125.725" y="-334.5" font-family="Helvetica,sans-Serif" font-size="10.00" fill="#000000">/School/SeniorDesign</text>
<text text-anchor="start" x="125.725" y="-322.5" font-family="Helvetica,sans-Serif" font-size="10.00" fill="#000000">/ControlCode/MainApplication</text>
<text text-anchor="middle" x="207.9725" y="-310.5" font-family="Helvetica,sans-Serif" font-size="10.00" fill="#000000">/Headers/Bluetooth/BluetoothClient.h</text>
</a>
</g>
</g>
<!-- Node2&#45;&gt;Node3 -->
<g id="edge1" class="edge">
<title>Node2&#45;&gt;Node3</title>
<path fill="none" stroke="#191970" d="M338.425,-392.1604C315.643,-381.5668 290.5299,-369.8892 268.472,-359.6323"/>
<polygon fill="#191970" stroke="#191970" points="337.1513,-395.428 347.6947,-396.4708 340.1028,-389.0807 337.1513,-395.428"/>
</g>
<!-- Node10 -->
<g id="node9" class="node">
<title>Node10</title>
<g id="a_node9"><a xlink:href="BluetoothServer_8h.html" target="_top" xlink:title="/home/jc/Documents\l/School/SeniorDesign\l/ControlCode/MainApplication\l/Headers/Bluetooth/BluetoothServer.h">
<polygon fill="#ffffff" stroke="#000000" points="315.7795,-303.5 315.7795,-359.5 500.1655,-359.5 500.1655,-303.5 315.7795,-303.5"/>
<text text-anchor="start" x="323.7795" y="-346.5" font-family="Helvetica,sans-Serif" font-size="10.00" fill="#000000">/home/jc/Documents</text>
<text text-anchor="start" x="323.7795" y="-334.5" font-family="Helvetica,sans-Serif" font-size="10.00" fill="#000000">/School/SeniorDesign</text>
<text text-anchor="start" x="323.7795" y="-322.5" font-family="Helvetica,sans-Serif" font-size="10.00" fill="#000000">/ControlCode/MainApplication</text>
<text text-anchor="middle" x="407.9725" y="-310.5" font-family="Helvetica,sans-Serif" font-size="10.00" fill="#000000">/Headers/Bluetooth/BluetoothServer.h</text>
</a>
</g>
</g>
<!-- Node2&#45;&gt;Node10 -->
<g id="edge9" class="edge">
<title>Node2&#45;&gt;Node10</title>
<path fill="none" stroke="#191970" d="M407.9725,-386.1582C407.9725,-377.2499 407.9725,-367.9293 407.9725,-359.5597"/>
<polygon fill="#191970" stroke="#191970" points="404.4726,-386.3445 407.9725,-396.3446 411.4726,-386.3446 404.4726,-386.3445"/>
</g>
<!-- Node12 -->
<g id="node11" class="node">
<title>Node12</title>
<g id="a_node11"><a xlink:href="BluetoothBase_8cpp.html" target="_top" xlink:title="/home/jc/Documents\l/School/SeniorDesign\l/ControlCode/MainApplication\l/Sources/Bluetooth/BluetoothBase.cpp">
<polygon fill="#ffffff" stroke="#000000" points="518.3835,-303.5 518.3835,-359.5 705.5615,-359.5 705.5615,-303.5 518.3835,-303.5"/>
<text text-anchor="start" x="526.3835" y="-346.5" font-family="Helvetica,sans-Serif" font-size="10.00" fill="#000000">/home/jc/Documents</text>
<text text-anchor="start" x="526.3835" y="-334.5" font-family="Helvetica,sans-Serif" font-size="10.00" fill="#000000">/School/SeniorDesign</text>
<text text-anchor="start" x="526.3835" y="-322.5" font-family="Helvetica,sans-Serif" font-size="10.00" fill="#000000">/ControlCode/MainApplication</text>
<text text-anchor="middle" x="611.9725" y="-310.5" font-family="Helvetica,sans-Serif" font-size="10.00" fill="#000000">/Sources/Bluetooth/BluetoothBase.cpp</text>
</a>
</g>
</g>
<!-- Node2&#45;&gt;Node12 -->
<g id="edge12" class="edge">
<title>Node2&#45;&gt;Node12</title>
<path fill="none" stroke="#191970" d="M478.6013,-392.3016C501.9208,-381.6706 527.664,-369.9348 550.263,-359.6323"/>
<polygon fill="#191970" stroke="#191970" points="477.1031,-389.138 469.4559,-396.4708 480.0068,-395.5073 477.1031,-389.138"/>
</g>
<!-- Node4 -->
<g id="node3" class="node">
<title>Node4</title>
<g id="a_node3"><a xlink:href="BoeingSurfaceVehicleControl_8h.html" target="_top" xlink:title="/home/jc/Documents\l/School/SeniorDesign\l/ControlCode/MainApplication\l/Headers/ControlSoftware/BoeingSurface\lVehicleControl.h">
<polygon fill="#ffffff" stroke="#000000" points="208.2855,-198.5 208.2855,-266.5 407.6595,-266.5 407.6595,-198.5 208.2855,-198.5"/>
<text text-anchor="start" x="216.2855" y="-253.5" font-family="Helvetica,sans-Serif" font-size="10.00" fill="#000000">/home/jc/Documents</text>
<text text-anchor="start" x="216.2855" y="-241.5" font-family="Helvetica,sans-Serif" font-size="10.00" fill="#000000">/School/SeniorDesign</text>
<text text-anchor="start" x="216.2855" y="-229.5" font-family="Helvetica,sans-Serif" font-size="10.00" fill="#000000">/ControlCode/MainApplication</text>
<text text-anchor="start" x="216.2855" y="-217.5" font-family="Helvetica,sans-Serif" font-size="10.00" fill="#000000">/Headers/ControlSoftware/BoeingSurface</text>
<text text-anchor="middle" x="307.9725" y="-205.5" font-family="Helvetica,sans-Serif" font-size="10.00" fill="#000000">VehicleControl.h</text>
</a>
</g>
</g>
<!-- Node3&#45;&gt;Node4 -->
<g id="edge2" class="edge">
<title>Node3&#45;&gt;Node4</title>
<path fill="none" stroke="#191970" d="M243.6069,-296.2219C253.3195,-286.6065 263.8223,-276.2087 273.4707,-266.6568"/>
<polygon fill="#191970" stroke="#191970" points="241.0051,-293.8726 236.361,-303.3954 245.93,-298.8472 241.0051,-293.8726"/>
</g>
<!-- Node9 -->
<g id="node8" class="node">
<title>Node9</title>
<g id="a_node8"><a xlink:href="BluetoothClient_8cpp.html" target="_top" xlink:title="/home/jc/Documents\l/School/SeniorDesign\l/ControlCode/MainApplication\l/Sources/Bluetooth/BluetoothClient.cpp">
<polygon fill="#ffffff" stroke="#000000" points="0,-204.5 0,-260.5 189.945,-260.5 189.945,-204.5 0,-204.5"/>
<text text-anchor="start" x="8" y="-247.5" font-family="Helvetica,sans-Serif" font-size="10.00" fill="#000000">/home/jc/Documents</text>
<text text-anchor="start" x="8" y="-235.5" font-family="Helvetica,sans-Serif" font-size="10.00" fill="#000000">/School/SeniorDesign</text>
<text text-anchor="start" x="8" y="-223.5" font-family="Helvetica,sans-Serif" font-size="10.00" fill="#000000">/ControlCode/MainApplication</text>
<text text-anchor="middle" x="94.9725" y="-211.5" font-family="Helvetica,sans-Serif" font-size="10.00" fill="#000000">/Sources/Bluetooth/BluetoothClient.cpp</text>
</a>
</g>
</g>
<!-- Node3&#45;&gt;Node9 -->
<g id="edge8" class="edge">
<title>Node3&#45;&gt;Node9</title>
<path fill="none" stroke="#191970" d="M168.1666,-296.6258C154.7274,-284.8517 139.9037,-271.8645 127.1317,-260.6749"/>
<polygon fill="#191970" stroke="#191970" points="166.0654,-299.4382 175.8935,-303.3954 170.6783,-294.173 166.0654,-299.4382"/>
</g>
<!-- Node5 -->
<g id="node4" class="node">
<title>Node5</title>
<g id="a_node4"><a xlink:href="IOFactory_8h.html" target="_top" xlink:title="/home/jc/Documents\l/School/SeniorDesign\l/ControlCode/MainApplication\l/Headers/IO/IOFactory.h">
<polygon fill="#ffffff" stroke="#000000" points="233.851,-105.5 233.851,-161.5 382.094,-161.5 382.094,-105.5 233.851,-105.5"/>
<text text-anchor="start" x="241.851" y="-148.5" font-family="Helvetica,sans-Serif" font-size="10.00" fill="#000000">/home/jc/Documents</text>
<text text-anchor="start" x="241.851" y="-136.5" font-family="Helvetica,sans-Serif" font-size="10.00" fill="#000000">/School/SeniorDesign</text>
<text text-anchor="start" x="241.851" y="-124.5" font-family="Helvetica,sans-Serif" font-size="10.00" fill="#000000">/ControlCode/MainApplication</text>
<text text-anchor="middle" x="307.9725" y="-112.5" font-family="Helvetica,sans-Serif" font-size="10.00" fill="#000000">/Headers/IO/IOFactory.h</text>
</a>
</g>
</g>
<!-- Node4&#45;&gt;Node5 -->
<g id="edge3" class="edge">
<title>Node4&#45;&gt;Node5</title>
<path fill="none" stroke="#191970" d="M307.9725,-188.3768C307.9725,-179.3231 307.9725,-170.0267 307.9725,-161.7183"/>
<polygon fill="#191970" stroke="#191970" points="304.4726,-188.4298 307.9725,-198.4298 311.4726,-188.4299 304.4726,-188.4298"/>
</g>
<!-- Node6 -->
<g id="node5" class="node">
<title>Node6</title>
<g id="a_node5"><a xlink:href="BoeingSurfaceVehicleControl_8cpp.html" target="_top" xlink:title="/home/jc/Documents\l/School/SeniorDesign\l/ControlCode/MainApplication\l/Sources/ControlSoftware/BoeingSurface\lVehicleControl.cpp">
<polygon fill="#ffffff" stroke="#000000" points="106.84,-.5 106.84,-68.5 305.105,-68.5 305.105,-.5 106.84,-.5"/>
<text text-anchor="start" x="114.84" y="-55.5" font-family="Helvetica,sans-Serif" font-size="10.00" fill="#000000">/home/jc/Documents</text>
<text text-anchor="start" x="114.84" y="-43.5" font-family="Helvetica,sans-Serif" font-size="10.00" fill="#000000">/School/SeniorDesign</text>
<text text-anchor="start" x="114.84" y="-31.5" font-family="Helvetica,sans-Serif" font-size="10.00" fill="#000000">/ControlCode/MainApplication</text>
<text text-anchor="start" x="114.84" y="-19.5" font-family="Helvetica,sans-Serif" font-size="10.00" fill="#000000">/Sources/ControlSoftware/BoeingSurface</text>
<text text-anchor="middle" x="205.9725" y="-7.5" font-family="Helvetica,sans-Serif" font-size="10.00" fill="#000000">VehicleControl.cpp</text>
</a>
</g>
</g>
<!-- Node4&#45;&gt;Node6 -->
<g id="edge7" class="edge">
<title>Node4&#45;&gt;Node6</title>
<path fill="none" stroke="#191970" d="M248.4835,-191.4621C239.3577,-182.7221 230.9879,-172.8228 224.9725,-162 208.9901,-133.2447 205.0977,-95.4729 204.6805,-68.5208"/>
<polygon fill="#191970" stroke="#191970" points="246.1749,-194.0935 255.9338,-198.2184 250.8773,-188.9081 246.1749,-194.0935"/>
</g>
<!-- Node8 -->
<g id="node7" class="node">
<title>Node8</title>
<g id="a_node7"><a xlink:href="main_8cpp.html" target="_top" xlink:title="/home/jc/Documents\l/School/SeniorDesign\l/ControlCode/MainApplication\l/main.cpp">
<polygon fill="#ffffff" stroke="#000000" points="399.851,-105.5 399.851,-161.5 548.094,-161.5 548.094,-105.5 399.851,-105.5"/>
<text text-anchor="start" x="407.851" y="-148.5" font-family="Helvetica,sans-Serif" font-size="10.00" fill="#000000">/home/jc/Documents</text>
<text text-anchor="start" x="407.851" y="-136.5" font-family="Helvetica,sans-Serif" font-size="10.00" fill="#000000">/School/SeniorDesign</text>
<text text-anchor="start" x="407.851" y="-124.5" font-family="Helvetica,sans-Serif" font-size="10.00" fill="#000000">/ControlCode/MainApplication</text>
<text text-anchor="middle" x="473.9725" y="-112.5" font-family="Helvetica,sans-Serif" font-size="10.00" fill="#000000">/main.cpp</text>
</a>
</g>
</g>
<!-- Node4&#45;&gt;Node8 -->
<g id="edge6" class="edge">
<title>Node4&#45;&gt;Node8</title>
<path fill="none" stroke="#191970" d="M373.726,-193.2856C391.5086,-182.6803 410.3961,-171.416 426.9255,-161.5581"/>
<polygon fill="#191970" stroke="#191970" points="371.8961,-190.3016 365.1003,-198.4298 375.4816,-196.3137 371.8961,-190.3016"/>
</g>
<!-- Node5&#45;&gt;Node6 -->
<g id="edge4" class="edge">
<title>Node5&#45;&gt;Node6</title>
<path fill="none" stroke="#191970" d="M271.6254,-98.2219C261.7186,-88.6065 251.0057,-78.2087 241.1644,-68.6568"/>
<polygon fill="#191970" stroke="#191970" points="269.4027,-100.9421 279.0162,-105.3954 274.2781,-95.9191 269.4027,-100.9421"/>
</g>
<!-- Node7 -->
<g id="node6" class="node">
<title>Node7</title>
<g id="a_node6"><a xlink:href="IOFactory_8cpp.html" target="_top" xlink:title="/home/jc/Documents\l/School/SeniorDesign\l/ControlCode/MainApplication\l/Sources/IO/IOFactory.cpp">
<polygon fill="#ffffff" stroke="#000000" points="322.851,-6.5 322.851,-62.5 471.094,-62.5 471.094,-6.5 322.851,-6.5"/>
<text text-anchor="start" x="330.851" y="-49.5" font-family="Helvetica,sans-Serif" font-size="10.00" fill="#000000">/home/jc/Documents</text>
<text text-anchor="start" x="330.851" y="-37.5" font-family="Helvetica,sans-Serif" font-size="10.00" fill="#000000">/School/SeniorDesign</text>
<text text-anchor="start" x="330.851" y="-25.5" font-family="Helvetica,sans-Serif" font-size="10.00" fill="#000000">/ControlCode/MainApplication</text>
<text text-anchor="middle" x="396.9725" y="-13.5" font-family="Helvetica,sans-Serif" font-size="10.00" fill="#000000">/Sources/IO/IOFactory.cpp</text>
</a>
</g>
</g>
<!-- Node5&#45;&gt;Node7 -->
<g id="edge5" class="edge">
<title>Node5&#45;&gt;Node7</title>
<path fill="none" stroke="#191970" d="M340.2168,-97.6327C350.5623,-86.1248 361.8662,-73.5508 371.6436,-62.6749"/>
<polygon fill="#191970" stroke="#191970" points="337.3209,-95.6188 333.2383,-105.3954 342.5266,-100.2986 337.3209,-95.6188"/>
</g>
<!-- Node10&#45;&gt;Node4 -->
<g id="edge10" class="edge">
<title>Node10&#45;&gt;Node4</title>
<path fill="none" stroke="#191970" d="M372.3381,-296.2219C362.6255,-286.6065 352.1227,-276.2087 342.4743,-266.6568"/>
<polygon fill="#191970" stroke="#191970" points="370.015,-298.8472 379.584,-303.3954 374.9399,-293.8726 370.015,-298.8472"/>
</g>
<!-- Node11 -->
<g id="node10" class="node">
<title>Node11</title>
<g id="a_node10"><a xlink:href="BluetoothServer_8cpp.html" target="_top" xlink:title="/home/jc/Documents\l/School/SeniorDesign\l/ControlCode/MainApplication\l/Sources/Bluetooth/BluetoothServer.cpp">
<polygon fill="#ffffff" stroke="#000000" points="426.0545,-204.5 426.0545,-260.5 619.8905,-260.5 619.8905,-204.5 426.0545,-204.5"/>
<text text-anchor="start" x="434.0545" y="-247.5" font-family="Helvetica,sans-Serif" font-size="10.00" fill="#000000">/home/jc/Documents</text>
<text text-anchor="start" x="434.0545" y="-235.5" font-family="Helvetica,sans-Serif" font-size="10.00" fill="#000000">/School/SeniorDesign</text>
<text text-anchor="start" x="434.0545" y="-223.5" font-family="Helvetica,sans-Serif" font-size="10.00" fill="#000000">/ControlCode/MainApplication</text>
<text text-anchor="middle" x="522.9725" y="-211.5" font-family="Helvetica,sans-Serif" font-size="10.00" fill="#000000">/Sources/Bluetooth/BluetoothServer.cpp</text>
</a>
</g>
</g>
<!-- Node10&#45;&gt;Node11 -->
<g id="edge11" class="edge">
<title>Node10&#45;&gt;Node11</title>
<path fill="none" stroke="#191970" d="M448.4829,-296.6258C462.16,-284.8517 477.246,-271.8645 490.2441,-260.6749"/>
<polygon fill="#191970" stroke="#191970" points="445.9144,-294.2187 440.6193,-303.3954 450.4814,-299.5237 445.9144,-294.2187"/>
</g>
</g>
</svg>
