<?xml version="1.0" encoding="UTF-8" standalone="no"?>
<!DOCTYPE svg PUBLIC "-//W3C//DTD SVG 1.1//EN"
 "http://www.w3.org/Graphics/SVG/1.1/DTD/svg11.dtd">
<!-- Generated by graphviz version 2.40.1 (20161225.0304)
 -->
<!-- Title: /home/jc/Documents/School/SeniorDesign/ControlCode/MainApplication/Sources/Bluetooth/BluetoothClient.cpp Pages: 1 -->
<svg width="519pt" height="236pt"
 viewBox="0.00 0.00 518.79 236.00" xmlns="http://www.w3.org/2000/svg" xmlns:xlink="http://www.w3.org/1999/xlink">
<g id="graph0" class="graph" transform="scale(1 1) rotate(0) translate(4 232)">
<title>/home/jc/Documents/School/SeniorDesign/ControlCode/MainApplication/Sources/Bluetooth/BluetoothClient.cpp</title>
<polygon fill="#ffffff" stroke="transparent" points="-4,4 -4,-232 514.7945,-232 514.7945,4 -4,4"/>
<!-- Node0 -->
<g id="node1" class="node">
<title>Node0</title>
<polygon fill="#bfbfbf" stroke="#000000" points="193.094,-171.5 193.094,-227.5 383.039,-227.5 383.039,-171.5 193.094,-171.5"/>
<text text-anchor="start" x="201.094" y="-214.5" font-family="Helvetica,sans-Serif" font-size="10.00" fill="#000000">/home/jc/Documents</text>
<text text-anchor="start" x="201.094" y="-202.5" font-family="Helvetica,sans-Serif" font-size="10.00" fill="#000000">/School/SeniorDesign</text>
<text text-anchor="start" x="201.094" y="-190.5" font-family="Helvetica,sans-Serif" font-size="10.00" fill="#000000">/ControlCode/MainApplication</text>
<text text-anchor="middle" x="288.0665" y="-178.5" font-family="Helvetica,sans-Serif" font-size="10.00" fill="#000000">/Sources/Bluetooth/BluetoothClient.cpp</text>
</g>
<!-- Node1 -->
<g id="node2" class="node">
<title>Node1</title>
<g id="a_node2"><a xlink:href="BluetoothClient_8h.html" target="_top" xlink:title="BluetoothClient.h">
<polygon fill="#ffffff" stroke="#000000" points="0,-114.5 0,-134.5 92.133,-134.5 92.133,-114.5 0,-114.5"/>
<text text-anchor="middle" x="46.0665" y="-121.5" font-family="Helvetica,sans-Serif" font-size="10.00" fill="#000000">BluetoothClient.h</text>
</a>
</g>
</g>
<!-- Node0&#45;&gt;Node1 -->
<g id="edge1" class="edge">
<title>Node0&#45;&gt;Node1</title>
<path fill="none" stroke="#191970" d="M197.6105,-171.4661C160.0988,-159.8406 118.3966,-146.9163 88.2494,-137.5732"/>
<polygon fill="#191970" stroke="#191970" points="89.0792,-134.1662 78.4913,-134.549 87.007,-140.8525 89.0792,-134.1662"/>
</g>
<!-- Node4 -->
<g id="node5" class="node">
<title>Node4</title>
<polygon fill="#ffffff" stroke="#bfbfbf" points="110.377,-114.5 110.377,-134.5 219.756,-134.5 219.756,-114.5 110.377,-114.5"/>
<text text-anchor="middle" x="165.0665" y="-121.5" font-family="Helvetica,sans-Serif" font-size="10.00" fill="#000000">bluetooth/bluetooth.h</text>
</g>
<!-- Node0&#45;&gt;Node4 -->
<g id="edge4" class="edge">
<title>Node0&#45;&gt;Node4</title>
<path fill="none" stroke="#191970" d="M241.9159,-171.3594C224.416,-160.6887 205.1448,-148.938 190.2781,-139.8729"/>
<polygon fill="#191970" stroke="#191970" points="192.006,-136.8272 181.6458,-134.6094 188.3617,-142.8038 192.006,-136.8272"/>
</g>
<!-- Node5 -->
<g id="node6" class="node">
<title>Node5</title>
<polygon fill="#ffffff" stroke="#bfbfbf" points="237.28,-114.5 237.28,-134.5 338.853,-134.5 338.853,-114.5 237.28,-114.5"/>
<text text-anchor="middle" x="288.0665" y="-121.5" font-family="Helvetica,sans-Serif" font-size="10.00" fill="#000000">bluetooth/rfcomm.h</text>
</g>
<!-- Node0&#45;&gt;Node5 -->
<g id="edge5" class="edge">
<title>Node0&#45;&gt;Node5</title>
<path fill="none" stroke="#191970" d="M288.0665,-171.1457C288.0665,-162.3619 288.0665,-152.8652 288.0665,-144.7476"/>
<polygon fill="#191970" stroke="#191970" points="291.5666,-144.7295 288.0665,-134.7296 284.5666,-144.7296 291.5666,-144.7295"/>
</g>
<!-- Node6 -->
<g id="node7" class="node">
<title>Node6</title>
<polygon fill="#ffffff" stroke="#bfbfbf" points="356.56,-114.5 356.56,-134.5 407.573,-134.5 407.573,-114.5 356.56,-114.5"/>
<text text-anchor="middle" x="382.0665" y="-121.5" font-family="Helvetica,sans-Serif" font-size="10.00" fill="#000000">unistd.h</text>
</g>
<!-- Node0&#45;&gt;Node6 -->
<g id="edge6" class="edge">
<title>Node0&#45;&gt;Node6</title>
<path fill="none" stroke="#191970" d="M323.3361,-171.3594C336.1223,-161.1576 350.1458,-149.9686 361.2822,-141.0832"/>
<polygon fill="#191970" stroke="#191970" points="363.5333,-143.7647 369.1672,-134.792 359.1675,-138.293 363.5333,-143.7647"/>
</g>
<!-- Node7 -->
<g id="node8" class="node">
<title>Node7</title>
<g id="a_node8"><a xlink:href="ThreadHelper_8h.html" target="_top" xlink:title="ThreadHelper.h">
<polygon fill="#ffffff" stroke="#000000" points="425.3385,-114.5 425.3385,-134.5 510.7945,-134.5 510.7945,-114.5 425.3385,-114.5"/>
<text text-anchor="middle" x="468.0665" y="-121.5" font-family="Helvetica,sans-Serif" font-size="10.00" fill="#000000">ThreadHelper.h</text>
</a>
</g>
</g>
<!-- Node0&#45;&gt;Node7 -->
<g id="edge7" class="edge">
<title>Node0&#45;&gt;Node7</title>
<path fill="none" stroke="#191970" d="M355.3478,-171.4661C382.3129,-160.2307 412.1893,-147.7822 434.4051,-138.5256"/>
<polygon fill="#191970" stroke="#191970" points="435.8456,-141.7171 443.7302,-134.6401 433.1533,-135.2556 435.8456,-141.7171"/>
</g>
<!-- Node2 -->
<g id="node3" class="node">
<title>Node2</title>
<g id="a_node3"><a xlink:href="BluetoothBase_8h.html" target="_top" xlink:title="BluetoothBase.h">
<polygon fill="#ffffff" stroke="#000000" points="1.3835,-57.5 1.3835,-77.5 90.7495,-77.5 90.7495,-57.5 1.3835,-57.5"/>
<text text-anchor="middle" x="46.0665" y="-64.5" font-family="Helvetica,sans-Serif" font-size="10.00" fill="#000000">BluetoothBase.h</text>
</a>
</g>
</g>
<!-- Node1&#45;&gt;Node2 -->
<g id="edge2" class="edge">
<title>Node1&#45;&gt;Node2</title>
<path fill="none" stroke="#191970" d="M46.0665,-114.3095C46.0665,-106.9335 46.0665,-96.72 46.0665,-87.715"/>
<polygon fill="#191970" stroke="#191970" points="49.5666,-87.6022 46.0665,-77.6022 42.5666,-87.6023 49.5666,-87.6022"/>
</g>
<!-- Node3 -->
<g id="node4" class="node">
<title>Node3</title>
<polygon fill="#ffffff" stroke="#bfbfbf" points="25.844,-.5 25.844,-20.5 66.289,-20.5 66.289,-.5 25.844,-.5"/>
<text text-anchor="middle" x="46.0665" y="-7.5" font-family="Helvetica,sans-Serif" font-size="10.00" fill="#000000">string</text>
</g>
<!-- Node2&#45;&gt;Node3 -->
<g id="edge3" class="edge">
<title>Node2&#45;&gt;Node3</title>
<path fill="none" stroke="#191970" d="M46.0665,-57.3095C46.0665,-49.9335 46.0665,-39.72 46.0665,-30.715"/>
<polygon fill="#191970" stroke="#191970" points="49.5666,-30.6022 46.0665,-20.6022 42.5666,-30.6023 49.5666,-30.6022"/>
</g>
<!-- Node8 -->
<g id="node9" class="node">
<title>Node8</title>
<polygon fill="#ffffff" stroke="#bfbfbf" points="438.946,-57.5 438.946,-77.5 497.187,-77.5 497.187,-57.5 438.946,-57.5"/>
<text text-anchor="middle" x="468.0665" y="-64.5" font-family="Helvetica,sans-Serif" font-size="10.00" fill="#000000">pthread.h</text>
</g>
<!-- Node7&#45;&gt;Node8 -->
<g id="edge8" class="edge">
<title>Node7&#45;&gt;Node8</title>
<path fill="none" stroke="#191970" d="M468.0665,-114.3095C468.0665,-106.9335 468.0665,-96.72 468.0665,-87.715"/>
<polygon fill="#191970" stroke="#191970" points="471.5666,-87.6022 468.0665,-77.6022 464.5666,-87.6023 471.5666,-87.6022"/>
</g>
</g>
</svg>
