<?xml version="1.0" encoding="UTF-8" standalone="no"?>
<!DOCTYPE svg PUBLIC "-//W3C//DTD SVG 1.1//EN"
 "http://www.w3.org/Graphics/SVG/1.1/DTD/svg11.dtd">
<!-- Generated by graphviz version 2.40.1 (20161225.0304)
 -->
<!-- Title: BluetoothBase.cpp Pages: 1 -->
<svg width="516pt" height="143pt"
 viewBox="0.00 0.00 516.41 143.00" xmlns="http://www.w3.org/2000/svg" xmlns:xlink="http://www.w3.org/1999/xlink">
<g id="graph0" class="graph" transform="scale(1 1) rotate(0) translate(4 139)">
<title>BluetoothBase.cpp</title>
<polygon fill="#ffffff" stroke="transparent" points="-4,4 -4,-139 512.411,-139 512.411,4 -4,4"/>
<!-- Node0 -->
<g id="node1" class="node">
<title>Node0</title>
<polygon fill="#bfbfbf" stroke="#000000" points="180.7205,-114.5 180.7205,-134.5 280.6455,-134.5 280.6455,-114.5 180.7205,-114.5"/>
<text text-anchor="middle" x="230.683" y="-121.5" font-family="Helvetica,sans-Serif" font-size="10.00" fill="#000000">BluetoothBase.cpp</text>
</g>
<!-- Node1 -->
<g id="node2" class="node">
<title>Node1</title>
<g id="a_node2"><a xlink:href="BluetoothBase_8h.html" target="_top" xlink:title="BluetoothBase.h">
<polygon fill="#ffffff" stroke="#000000" points="0,-57.5 0,-77.5 89.366,-77.5 89.366,-57.5 0,-57.5"/>
<text text-anchor="middle" x="44.683" y="-64.5" font-family="Helvetica,sans-Serif" font-size="10.00" fill="#000000">BluetoothBase.h</text>
</a>
</g>
</g>
<!-- Node0&#45;&gt;Node1 -->
<g id="edge1" class="edge">
<title>Node0&#45;&gt;Node1</title>
<path fill="none" stroke="#191970" d="M197.8581,-114.4408C167.1412,-105.0275 121.0758,-90.9107 87.4854,-80.6169"/>
<polygon fill="#191970" stroke="#191970" points="88.0787,-77.1381 77.4921,-77.5544 86.0277,-83.8309 88.0787,-77.1381"/>
</g>
<!-- Node3 -->
<g id="node4" class="node">
<title>Node3</title>
<polygon fill="#ffffff" stroke="#bfbfbf" points="107.1765,-57.5 107.1765,-77.5 158.1895,-77.5 158.1895,-57.5 107.1765,-57.5"/>
<text text-anchor="middle" x="132.683" y="-64.5" font-family="Helvetica,sans-Serif" font-size="10.00" fill="#000000">unistd.h</text>
</g>
<!-- Node0&#45;&gt;Node3 -->
<g id="edge3" class="edge">
<title>Node0&#45;&gt;Node3</title>
<path fill="none" stroke="#191970" d="M213.1626,-114.3095C198.1118,-105.5556 176.1897,-92.8049 159.0246,-82.8211"/>
<polygon fill="#191970" stroke="#191970" points="160.4557,-79.6046 150.0518,-77.6022 156.9362,-85.6555 160.4557,-79.6046"/>
</g>
<!-- Node4 -->
<g id="node5" class="node">
<title>Node4</title>
<polygon fill="#ffffff" stroke="#bfbfbf" points="175.9935,-57.5 175.9935,-77.5 285.3725,-77.5 285.3725,-57.5 175.9935,-57.5"/>
<text text-anchor="middle" x="230.683" y="-64.5" font-family="Helvetica,sans-Serif" font-size="10.00" fill="#000000">bluetooth/bluetooth.h</text>
</g>
<!-- Node0&#45;&gt;Node4 -->
<g id="edge4" class="edge">
<title>Node0&#45;&gt;Node4</title>
<path fill="none" stroke="#191970" d="M230.683,-114.3095C230.683,-106.9335 230.683,-96.72 230.683,-87.715"/>
<polygon fill="#191970" stroke="#191970" points="234.1831,-87.6022 230.683,-77.6022 227.1831,-87.6023 234.1831,-87.6022"/>
</g>
<!-- Node5 -->
<g id="node6" class="node">
<title>Node5</title>
<polygon fill="#ffffff" stroke="#bfbfbf" points="302.8965,-57.5 302.8965,-77.5 404.4695,-77.5 404.4695,-57.5 302.8965,-57.5"/>
<text text-anchor="middle" x="353.683" y="-64.5" font-family="Helvetica,sans-Serif" font-size="10.00" fill="#000000">bluetooth/rfcomm.h</text>
</g>
<!-- Node0&#45;&gt;Node5 -->
<g id="edge5" class="edge">
<title>Node0&#45;&gt;Node5</title>
<path fill="none" stroke="#191970" d="M252.3898,-114.4408C271.8545,-105.4205 300.6392,-92.0813 322.5542,-81.9255"/>
<polygon fill="#191970" stroke="#191970" points="324.178,-85.0307 331.7795,-77.6504 321.2347,-78.6795 324.178,-85.0307"/>
</g>
<!-- Node6 -->
<g id="node7" class="node">
<title>Node6</title>
<g id="a_node7"><a xlink:href="ThreadHelper_8h.html" target="_top" xlink:title="ThreadHelper.h">
<polygon fill="#ffffff" stroke="#000000" points="422.955,-57.5 422.955,-77.5 508.411,-77.5 508.411,-57.5 422.955,-57.5"/>
<text text-anchor="middle" x="465.683" y="-64.5" font-family="Helvetica,sans-Serif" font-size="10.00" fill="#000000">ThreadHelper.h</text>
</a>
</g>
</g>
<!-- Node0&#45;&gt;Node6 -->
<g id="edge6" class="edge">
<title>Node0&#45;&gt;Node6</title>
<path fill="none" stroke="#191970" d="M272.1553,-114.4408C311.8007,-104.8246 371.6829,-90.3 414.3264,-79.9567"/>
<polygon fill="#191970" stroke="#191970" points="415.3375,-83.313 424.2307,-77.5544 413.6874,-76.5103 415.3375,-83.313"/>
</g>
<!-- Node2 -->
<g id="node3" class="node">
<title>Node2</title>
<polygon fill="#ffffff" stroke="#bfbfbf" points="24.4605,-.5 24.4605,-20.5 64.9055,-20.5 64.9055,-.5 24.4605,-.5"/>
<text text-anchor="middle" x="44.683" y="-7.5" font-family="Helvetica,sans-Serif" font-size="10.00" fill="#000000">string</text>
</g>
<!-- Node1&#45;&gt;Node2 -->
<g id="edge2" class="edge">
<title>Node1&#45;&gt;Node2</title>
<path fill="none" stroke="#191970" d="M44.683,-57.3095C44.683,-49.9335 44.683,-39.72 44.683,-30.715"/>
<polygon fill="#191970" stroke="#191970" points="48.1831,-30.6022 44.683,-20.6022 41.1831,-30.6023 48.1831,-30.6022"/>
</g>
<!-- Node7 -->
<g id="node8" class="node">
<title>Node7</title>
<polygon fill="#ffffff" stroke="#bfbfbf" points="436.5625,-.5 436.5625,-20.5 494.8035,-20.5 494.8035,-.5 436.5625,-.5"/>
<text text-anchor="middle" x="465.683" y="-7.5" font-family="Helvetica,sans-Serif" font-size="10.00" fill="#000000">pthread.h</text>
</g>
<!-- Node6&#45;&gt;Node7 -->
<g id="edge7" class="edge">
<title>Node6&#45;&gt;Node7</title>
<path fill="none" stroke="#191970" d="M465.683,-57.3095C465.683,-49.9335 465.683,-39.72 465.683,-30.715"/>
<polygon fill="#191970" stroke="#191970" points="469.1831,-30.6022 465.683,-20.6022 462.1831,-30.6023 469.1831,-30.6022"/>
</g>
</g>
</svg>
