<?xml version="1.0" encoding="UTF-8" standalone="no"?>
<!DOCTYPE svg PUBLIC "-//W3C//DTD SVG 1.1//EN"
 "http://www.w3.org/Graphics/SVG/1.1/DTD/svg11.dtd">
<!-- Generated by graphviz version 2.40.1 (20161225.0304)
 -->
<!-- Title: BluetoothManager.h Pages: 1 -->
<svg width="320pt" height="257pt"
 viewBox="0.00 0.00 320.41 257.00" xmlns="http://www.w3.org/2000/svg" xmlns:xlink="http://www.w3.org/1999/xlink">
<g id="graph0" class="graph" transform="scale(1 1) rotate(0) translate(4 253)">
<title>BluetoothManager.h</title>
<polygon fill="#ffffff" stroke="transparent" points="-4,4 -4,-253 316.411,-253 316.411,4 -4,4"/>
<!-- Node2 -->
<g id="node1" class="node">
<title>Node2</title>
<polygon fill="#bfbfbf" stroke="#000000" points="206.379,-228.5 206.379,-248.5 312.411,-248.5 312.411,-228.5 206.379,-228.5"/>
<text text-anchor="middle" x="259.395" y="-235.5" font-family="Helvetica,sans-Serif" font-size="10.00" fill="#000000">BluetoothManager.h</text>
</g>
<!-- Node3 -->
<g id="node2" class="node">
<title>Node3</title>
<g id="a_node2"><a xlink:href="BluetoothInterface_8h.html" target="_top" xlink:title="BluetoothInterface.h">
<polygon fill="#ffffff" stroke="#000000" points="125.6545,-171.5 125.6545,-191.5 231.1355,-191.5 231.1355,-171.5 125.6545,-171.5"/>
<text text-anchor="middle" x="178.395" y="-178.5" font-family="Helvetica,sans-Serif" font-size="10.00" fill="#000000">BluetoothInterface.h</text>
</a>
</g>
</g>
<!-- Node2&#45;&gt;Node3 -->
<g id="edge1" class="edge">
<title>Node2&#45;&gt;Node3</title>
<path fill="none" stroke="#191970" d="M236.6859,-222.5195C222.5968,-212.605 204.9227,-200.1676 192.7508,-191.6022"/>
<polygon fill="#191970" stroke="#191970" points="234.7215,-225.4169 244.9138,-228.3095 238.75,-219.6922 234.7215,-225.4169"/>
</g>
<!-- Node6 -->
<g id="node5" class="node">
<title>Node6</title>
<g id="a_node5"><a xlink:href="BoeingSurfaceVehicleControl_8cpp.html" target="_top" xlink:title="BoeingSurfaceVehicleControl.cpp">
<polygon fill="#ffffff" stroke="#000000" points="96.654,-.5 96.654,-20.5 262.136,-20.5 262.136,-.5 96.654,-.5"/>
<text text-anchor="middle" x="179.395" y="-7.5" font-family="Helvetica,sans-Serif" font-size="10.00" fill="#000000">BoeingSurfaceVehicleControl.cpp</text>
</a>
</g>
</g>
<!-- Node2&#45;&gt;Node6 -->
<g id="edge10" class="edge">
<title>Node2&#45;&gt;Node6</title>
<path fill="none" stroke="#191970" d="M274.5151,-220.0835C292.8511,-195.3699 319.326,-150.3743 302.395,-114 281.3141,-68.7099 229.578,-36.1533 200.3626,-20.6659"/>
<polygon fill="#191970" stroke="#191970" points="271.5734,-218.1661 268.2234,-228.2173 277.1103,-222.449 271.5734,-218.1661"/>
</g>
<!-- Node9 -->
<g id="node8" class="node">
<title>Node9</title>
<g id="a_node8"><a xlink:href="BluetoothManager_8cpp.html" target="_top" xlink:title="BluetoothManager.cpp">
<polygon fill="#ffffff" stroke="#000000" points="177.0995,-114.5 177.0995,-134.5 293.6905,-134.5 293.6905,-114.5 177.0995,-114.5"/>
<text text-anchor="middle" x="235.395" y="-121.5" font-family="Helvetica,sans-Serif" font-size="10.00" fill="#000000">BluetoothManager.cpp</text>
</a>
</g>
</g>
<!-- Node2&#45;&gt;Node9 -->
<g id="edge9" class="edge">
<title>Node2&#45;&gt;Node9</title>
<path fill="none" stroke="#191970" d="M255.163,-218.3978C250.0134,-193.9372 241.5169,-153.5792 237.5546,-134.7579"/>
<polygon fill="#191970" stroke="#191970" points="251.7801,-219.3188 257.2652,-228.3833 258.6299,-217.8767 251.7801,-219.3188"/>
</g>
<!-- Node4 -->
<g id="node3" class="node">
<title>Node4</title>
<g id="a_node3"><a xlink:href="BoeingSurfaceVehicleControl_8h.html" target="_top" xlink:title="BoeingSurfaceVehicleControl.h">
<polygon fill="#ffffff" stroke="#000000" points="3.9335,-114.5 3.9335,-134.5 158.8565,-134.5 158.8565,-114.5 3.9335,-114.5"/>
<text text-anchor="middle" x="81.395" y="-121.5" font-family="Helvetica,sans-Serif" font-size="10.00" fill="#000000">BoeingSurfaceVehicleControl.h</text>
</a>
</g>
</g>
<!-- Node3&#45;&gt;Node4 -->
<g id="edge2" class="edge">
<title>Node3&#45;&gt;Node4</title>
<path fill="none" stroke="#191970" d="M152.1505,-166.078C135.1291,-156.0757 113.4378,-143.3293 98.5865,-134.6022"/>
<polygon fill="#191970" stroke="#191970" points="150.6585,-169.2608 161.0533,-171.3095 154.2049,-163.2256 150.6585,-169.2608"/>
</g>
<!-- Node3&#45;&gt;Node9 -->
<g id="edge8" class="edge">
<title>Node3&#45;&gt;Node9</title>
<path fill="none" stroke="#191970" d="M195.7946,-164.1004C205.4547,-154.4403 217.1314,-142.7636 225.2928,-134.6022"/>
<polygon fill="#191970" stroke="#191970" points="193.1817,-161.7636 188.5855,-171.3095 198.1314,-166.7133 193.1817,-161.7636"/>
</g>
<!-- Node5 -->
<g id="node4" class="node">
<title>Node5</title>
<g id="a_node4"><a xlink:href="IOFactory_8h.html" target="_top" xlink:title="IOFactory.h">
<polygon fill="#ffffff" stroke="#000000" points="7.2795,-57.5 7.2795,-77.5 75.5105,-77.5 75.5105,-57.5 7.2795,-57.5"/>
<text text-anchor="middle" x="41.395" y="-64.5" font-family="Helvetica,sans-Serif" font-size="10.00" fill="#000000">IOFactory.h</text>
</a>
</g>
</g>
<!-- Node4&#45;&gt;Node5 -->
<g id="edge3" class="edge">
<title>Node4&#45;&gt;Node5</title>
<path fill="none" stroke="#191970" d="M68.3729,-105.9435C61.7605,-96.5209 53.9847,-85.4404 48.4843,-77.6022"/>
<polygon fill="#191970" stroke="#191970" points="65.6345,-108.1345 74.2438,-114.3095 71.3645,-104.1135 65.6345,-108.1345"/>
</g>
<!-- Node4&#45;&gt;Node6 -->
<g id="edge7" class="edge">
<title>Node4&#45;&gt;Node6</title>
<path fill="none" stroke="#191970" d="M117.0093,-109.8933C131.6472,-102.3067 147.6504,-91.7145 158.395,-78 171.8676,-60.8035 176.7575,-34.8874 178.4866,-20.6912"/>
<polygon fill="#191970" stroke="#191970" points="115.1149,-106.9228 107.6563,-114.4474 118.1793,-113.2164 115.1149,-106.9228"/>
</g>
<!-- Node8 -->
<g id="node7" class="node">
<title>Node8</title>
<g id="a_node7"><a xlink:href="main_8cpp.html" target="_top" xlink:title="main.cpp">
<polygon fill="#ffffff" stroke="#000000" points="93.1135,-57.5 93.1135,-77.5 149.6765,-77.5 149.6765,-57.5 93.1135,-57.5"/>
<text text-anchor="middle" x="121.395" y="-64.5" font-family="Helvetica,sans-Serif" font-size="10.00" fill="#000000">main.cpp</text>
</a>
</g>
</g>
<!-- Node4&#45;&gt;Node8 -->
<g id="edge6" class="edge">
<title>Node4&#45;&gt;Node8</title>
<path fill="none" stroke="#191970" d="M94.4171,-105.9435C101.0295,-96.5209 108.8053,-85.4404 114.3057,-77.6022"/>
<polygon fill="#191970" stroke="#191970" points="91.4255,-104.1135 88.5462,-114.3095 97.1555,-108.1345 91.4255,-104.1135"/>
</g>
<!-- Node5&#45;&gt;Node6 -->
<g id="edge4" class="edge">
<title>Node5&#45;&gt;Node6</title>
<path fill="none" stroke="#191970" d="M75.0862,-53.5841C99.7366,-43.4024 132.617,-29.8214 154.8203,-20.6504"/>
<polygon fill="#191970" stroke="#191970" points="73.6554,-50.3882 65.749,-57.4408 76.3278,-56.858 73.6554,-50.3882"/>
</g>
<!-- Node7 -->
<g id="node6" class="node">
<title>Node7</title>
<g id="a_node6"><a xlink:href="IOFactory_8cpp.html" target="_top" xlink:title="IOFactory.cpp">
<polygon fill="#ffffff" stroke="#000000" points="0,-.5 0,-20.5 78.79,-20.5 78.79,-.5 0,-.5"/>
<text text-anchor="middle" x="39.395" y="-7.5" font-family="Helvetica,sans-Serif" font-size="10.00" fill="#000000">IOFactory.cpp</text>
</a>
</g>
</g>
<!-- Node5&#45;&gt;Node7 -->
<g id="edge5" class="edge">
<title>Node5&#45;&gt;Node7</title>
<path fill="none" stroke="#191970" d="M40.6819,-47.1771C40.3656,-38.1625 40.0075,-27.9556 39.7495,-20.6022"/>
<polygon fill="#191970" stroke="#191970" points="37.1888,-47.4385 41.0374,-57.3095 44.1845,-47.1929 37.1888,-47.4385"/>
</g>
</g>
</svg>
