<?xml version="1.0" encoding="UTF-8" standalone="no"?>
<!DOCTYPE svg PUBLIC "-//W3C//DTD SVG 1.1//EN"
 "http://www.w3.org/Graphics/SVG/1.1/DTD/svg11.dtd">
<!-- Generated by graphviz version 2.40.1 (20161225.0304)
 -->
<!-- Title: BoeingSurfaceVehicleControl.cpp Pages: 1 -->
<svg width="1526pt" height="314pt"
 viewBox="0.00 0.00 1526.45 314.00" xmlns="http://www.w3.org/2000/svg" xmlns:xlink="http://www.w3.org/1999/xlink">
<g id="graph0" class="graph" transform="scale(1 1) rotate(0) translate(4 310)">
<title>BoeingSurfaceVehicleControl.cpp</title>
<polygon fill="#ffffff" stroke="transparent" points="-4,4 -4,-310 1522.454,-310 1522.454,4 -4,4"/>
<!-- Node0 -->
<g id="node1" class="node">
<title>Node0</title>
<polygon fill="#bfbfbf" stroke="#000000" points="675.5455,-285.5 675.5455,-305.5 841.0275,-305.5 841.0275,-285.5 675.5455,-285.5"/>
<text text-anchor="middle" x="758.2865" y="-292.5" font-family="Helvetica,sans-Serif" font-size="10.00" fill="#000000">BoeingSurfaceVehicleControl.cpp</text>
</g>
<!-- Node1 -->
<g id="node2" class="node">
<title>Node1</title>
<g id="a_node2"><a xlink:href="BoeingSurfaceVehicleControl_8h.html" target="_top" xlink:title="BoeingSurfaceVehicleControl.h">
<polygon fill="#ffffff" stroke="#000000" points="322.825,-171.5 322.825,-191.5 477.748,-191.5 477.748,-171.5 322.825,-171.5"/>
<text text-anchor="middle" x="400.2865" y="-178.5" font-family="Helvetica,sans-Serif" font-size="10.00" fill="#000000">BoeingSurfaceVehicleControl.h</text>
</a>
</g>
</g>
<!-- Node0&#45;&gt;Node1 -->
<g id="edge1" class="edge">
<title>Node0&#45;&gt;Node1</title>
<path fill="none" stroke="#191970" d="M675.448,-287.2207C604.6523,-279.1864 508.9125,-265.7644 474.2865,-249 450.2521,-237.3636 428.425,-215.3993 414.8052,-199.6847"/>
<polygon fill="#191970" stroke="#191970" points="417.2247,-197.1224 408.1211,-191.7025 411.8578,-201.6166 417.2247,-197.1224"/>
</g>
<!-- Node4 -->
<g id="node5" class="node">
<title>Node4</title>
<g id="a_node5"><a xlink:href="BluetoothManager_8h.html" target="_top" xlink:title="BluetoothManager.h">
<polygon fill="#ffffff" stroke="#000000" points="385.2705,-57.5 385.2705,-77.5 491.3025,-77.5 491.3025,-57.5 385.2705,-57.5"/>
<text text-anchor="middle" x="438.2865" y="-64.5" font-family="Helvetica,sans-Serif" font-size="10.00" fill="#000000">BluetoothManager.h</text>
</a>
</g>
</g>
<!-- Node0&#45;&gt;Node4 -->
<g id="edge37" class="edge">
<title>Node0&#45;&gt;Node4</title>
<path fill="none" stroke="#191970" d="M727.4445,-285.3506C704.4961,-277.1511 672.8577,-264.4528 647.2865,-249 567.3233,-200.678 488.2756,-121.0732 454.8704,-85.5687"/>
<polygon fill="#191970" stroke="#191970" points="457.1182,-82.847 447.7393,-77.9187 451.9978,-87.6201 457.1182,-82.847"/>
</g>
<!-- Node6 -->
<g id="node7" class="node">
<title>Node6</title>
<polygon fill="#ffffff" stroke="#bfbfbf" points="608.6745,-.5 608.6745,-20.5 651.8985,-20.5 651.8985,-.5 608.6745,-.5"/>
<text text-anchor="middle" x="630.2865" y="-7.5" font-family="Helvetica,sans-Serif" font-size="10.00" fill="#000000">time.h</text>
</g>
<!-- Node0&#45;&gt;Node6 -->
<g id="edge42" class="edge">
<title>Node0&#45;&gt;Node6</title>
<path fill="none" stroke="#191970" d="M765.6642,-285.3614C785.582,-256.6455 836.7541,-173.0224 803.2865,-114 772.9686,-60.5325 702.833,-31.7155 661.7775,-18.8903"/>
<polygon fill="#191970" stroke="#191970" points="662.5918,-15.4807 652.0082,-15.9689 660.5862,-22.1873 662.5918,-15.4807"/>
</g>
<!-- Node8 -->
<g id="node9" class="node">
<title>Node8</title>
<polygon fill="#ffffff" stroke="#bfbfbf" points="106.6195,-57.5 106.6195,-77.5 155.9535,-77.5 155.9535,-57.5 106.6195,-57.5"/>
<text text-anchor="middle" x="131.2865" y="-64.5" font-family="Helvetica,sans-Serif" font-size="10.00" fill="#000000">fstream</text>
</g>
<!-- Node0&#45;&gt;Node8 -->
<g id="edge44" class="edge">
<title>Node0&#45;&gt;Node8</title>
<path fill="none" stroke="#191970" d="M675.4927,-294.0485C549.854,-290.8416 317.5944,-280.6939 241.2865,-249 204.8674,-233.8736 195.5296,-224.5639 173.2865,-192 150.9828,-159.3474 139.6268,-113.8301 134.6189,-87.8422"/>
<polygon fill="#191970" stroke="#191970" points="138.009,-86.9177 132.7978,-77.693 131.119,-88.154 138.009,-86.9177"/>
</g>
<!-- Node9 -->
<g id="node10" class="node">
<title>Node9</title>
<polygon fill="#ffffff" stroke="#bfbfbf" points="820.9495,-228.5 820.9495,-248.5 863.6235,-248.5 863.6235,-228.5 820.9495,-228.5"/>
<text text-anchor="middle" x="842.2865" y="-235.5" font-family="Helvetica,sans-Serif" font-size="10.00" fill="#000000">fcntl.h</text>
</g>
<!-- Node0&#45;&gt;Node9 -->
<g id="edge10" class="edge">
<title>Node0&#45;&gt;Node9</title>
<path fill="none" stroke="#191970" d="M773.304,-285.3095C785.9657,-276.7177 804.3012,-264.2758 818.8865,-254.3786"/>
<polygon fill="#191970" stroke="#191970" points="821.0895,-257.1135 827.399,-248.6022 817.159,-251.3211 821.0895,-257.1135"/>
</g>
<!-- Node10 -->
<g id="node11" class="node">
<title>Node10</title>
<polygon fill="#ffffff" stroke="#bfbfbf" points="882.06,-228.5 882.06,-248.5 932.513,-248.5 932.513,-228.5 882.06,-228.5"/>
<text text-anchor="middle" x="907.2865" y="-235.5" font-family="Helvetica,sans-Serif" font-size="10.00" fill="#000000">signal.h</text>
</g>
<!-- Node0&#45;&gt;Node10 -->
<g id="edge11" class="edge">
<title>Node0&#45;&gt;Node10</title>
<path fill="none" stroke="#191970" d="M784.5817,-285.4408C808.9873,-276.1044 845.488,-262.141 872.3371,-251.8699"/>
<polygon fill="#191970" stroke="#191970" points="873.6626,-255.1103 881.7519,-248.2683 871.1614,-248.5723 873.6626,-255.1103"/>
</g>
<!-- Node11 -->
<g id="node12" class="node">
<title>Node11</title>
<polygon fill="#ffffff" stroke="#bfbfbf" points="950.45,-228.5 950.45,-248.5 998.123,-248.5 998.123,-228.5 950.45,-228.5"/>
<text text-anchor="middle" x="974.2865" y="-235.5" font-family="Helvetica,sans-Serif" font-size="10.00" fill="#000000">stdlib.h</text>
</g>
<!-- Node0&#45;&gt;Node11 -->
<g id="edge12" class="edge">
<title>Node0&#45;&gt;Node11</title>
<path fill="none" stroke="#191970" d="M800.634,-285.4931C835.7395,-277.0286 887.1473,-264.2457 940.5486,-249.1025"/>
<polygon fill="#191970" stroke="#191970" points="941.5318,-252.4618 950.1859,-246.3498 939.6092,-245.731 941.5318,-252.4618"/>
</g>
<!-- Node12 -->
<g id="node13" class="node">
<title>Node12</title>
<polygon fill="#ffffff" stroke="#bfbfbf" points="615.5595,-57.5 615.5595,-77.5 661.0135,-77.5 661.0135,-57.5 615.5595,-57.5"/>
<text text-anchor="middle" x="638.2865" y="-64.5" font-family="Helvetica,sans-Serif" font-size="10.00" fill="#000000">stdio.h</text>
</g>
<!-- Node0&#45;&gt;Node12 -->
<g id="edge13" class="edge">
<title>Node0&#45;&gt;Node12</title>
<path fill="none" stroke="#191970" d="M723.7979,-285.3335C704.3102,-278.0233 680.8168,-266.3515 665.2865,-249 624.6597,-203.6091 629.661,-124.7629 634.7937,-87.7652"/>
<polygon fill="#191970" stroke="#191970" points="638.2793,-88.1259 636.3405,-77.71 631.3607,-87.0616 638.2793,-88.1259"/>
</g>
<!-- Node13 -->
<g id="node14" class="node">
<title>Node13</title>
<polygon fill="#ffffff" stroke="#bfbfbf" points="1015.895,-228.5 1015.895,-248.5 1064.678,-248.5 1064.678,-228.5 1015.895,-228.5"/>
<text text-anchor="middle" x="1040.2865" y="-235.5" font-family="Helvetica,sans-Serif" font-size="10.00" fill="#000000">string.h</text>
</g>
<!-- Node0&#45;&gt;Node13 -->
<g id="edge14" class="edge">
<title>Node0&#45;&gt;Node13</title>
<path fill="none" stroke="#191970" d="M824.0363,-285.4967C872.1505,-277.6549 939.1315,-265.659 1006.0103,-249.1118"/>
<polygon fill="#191970" stroke="#191970" points="1007.0268,-252.4653 1015.8747,-246.6373 1005.3236,-245.6757 1007.0268,-252.4653"/>
</g>
<!-- Node14 -->
<g id="node15" class="node">
<title>Node14</title>
<polygon fill="#ffffff" stroke="#bfbfbf" points="1082.78,-228.5 1082.78,-248.5 1133.793,-248.5 1133.793,-228.5 1082.78,-228.5"/>
<text text-anchor="middle" x="1108.2865" y="-235.5" font-family="Helvetica,sans-Serif" font-size="10.00" fill="#000000">unistd.h</text>
</g>
<!-- Node0&#45;&gt;Node14 -->
<g id="edge15" class="edge">
<title>Node0&#45;&gt;Node14</title>
<path fill="none" stroke="#191970" d="M841.1271,-286.5974C902.5717,-279.2249 988.474,-267.3058 1072.4402,-248.9335"/>
<polygon fill="#191970" stroke="#191970" points="1073.3999,-252.3058 1082.4031,-246.7208 1071.8821,-245.4723 1073.3999,-252.3058"/>
</g>
<!-- Node15 -->
<g id="node16" class="node">
<title>Node15</title>
<g id="a_node16"><a xlink:href="Input_8h.html" target="_top" xlink:title="Input.h">
<polygon fill="#ffffff" stroke="#000000" points="0,-228.5 0,-248.5 46.573,-248.5 46.573,-228.5 0,-228.5"/>
<text text-anchor="middle" x="23.2865" y="-235.5" font-family="Helvetica,sans-Serif" font-size="10.00" fill="#000000">Input.h</text>
</a>
</g>
</g>
<!-- Node0&#45;&gt;Node15 -->
<g id="edge16" class="edge">
<title>Node0&#45;&gt;Node15</title>
<path fill="none" stroke="#191970" d="M675.3604,-292.625C519.9158,-286.8159 189.1886,-272.3617 56.8123,-248.8304"/>
<polygon fill="#191970" stroke="#191970" points="57.3497,-245.3703 46.8767,-246.9728 56.0632,-252.2511 57.3497,-245.3703"/>
</g>
<!-- Node17 -->
<g id="node18" class="node">
<title>Node17</title>
<g id="a_node18"><a xlink:href="MotorControl_8h.html" target="_top" xlink:title="MotorControl.h">
<polygon fill="#ffffff" stroke="#000000" points="653.2285,-171.5 653.2285,-191.5 735.3445,-191.5 735.3445,-171.5 653.2285,-171.5"/>
<text text-anchor="middle" x="694.2865" y="-178.5" font-family="Helvetica,sans-Serif" font-size="10.00" fill="#000000">MotorControl.h</text>
</a>
</g>
</g>
<!-- Node0&#45;&gt;Node17 -->
<g id="edge20" class="edge">
<title>Node0&#45;&gt;Node17</title>
<path fill="none" stroke="#191970" d="M722.6896,-285.3629C704.8179,-278.2724 684.7819,-266.8062 674.2865,-249 665.4115,-233.943 672.6921,-214.6457 680.8487,-200.5434"/>
<polygon fill="#191970" stroke="#191970" points="684.0416,-202.0443 686.4477,-191.7263 678.1324,-198.2918 684.0416,-202.0443"/>
</g>
<!-- Node22 -->
<g id="node23" class="node">
<title>Node22</title>
<g id="a_node23"><a xlink:href="ServoControl_8h.html" target="_top" xlink:title="ServoControl.h">
<polygon fill="#ffffff" stroke="#000000" points="682.948,-228.5 682.948,-248.5 765.625,-248.5 765.625,-228.5 682.948,-228.5"/>
<text text-anchor="middle" x="724.2865" y="-235.5" font-family="Helvetica,sans-Serif" font-size="10.00" fill="#000000">ServoControl.h</text>
</a>
</g>
</g>
<!-- Node0&#45;&gt;Node22 -->
<g id="edge26" class="edge">
<title>Node0&#45;&gt;Node22</title>
<path fill="none" stroke="#191970" d="M752.208,-285.3095C747.5665,-277.5282 741.0414,-266.589 735.4661,-257.2423"/>
<polygon fill="#191970" stroke="#191970" points="738.4411,-255.3975 730.3124,-248.6022 732.4294,-258.9834 738.4411,-255.3975"/>
</g>
<!-- Node23 -->
<g id="node24" class="node">
<title>Node23</title>
<g id="a_node24"><a xlink:href="Output_8h.html" target="_top" xlink:title="Output.h">
<polygon fill="#ffffff" stroke="#000000" points="64.1105,-228.5 64.1105,-248.5 118.4625,-248.5 118.4625,-228.5 64.1105,-228.5"/>
<text text-anchor="middle" x="91.2865" y="-235.5" font-family="Helvetica,sans-Serif" font-size="10.00" fill="#000000">Output.h</text>
</a>
</g>
</g>
<!-- Node0&#45;&gt;Node23 -->
<g id="edge28" class="edge">
<title>Node0&#45;&gt;Node23</title>
<path fill="none" stroke="#191970" d="M675.4579,-293.9925C555.108,-290.7537 325.1963,-280.6123 132.2865,-249 131.0221,-248.7928 129.7397,-248.5651 128.4477,-248.3207"/>
<polygon fill="#191970" stroke="#191970" points="129.0037,-244.8603 118.4915,-246.1815 127.5331,-251.7041 129.0037,-244.8603"/>
</g>
<!-- Node24 -->
<g id="node25" class="node">
<title>Node24</title>
<g id="a_node25"><a xlink:href="InputList_8h.html" target="_top" xlink:title="InputList.h">
<polygon fill="#ffffff" stroke="#000000" points="1152.2215,-228.5 1152.2215,-248.5 1214.3515,-248.5 1214.3515,-228.5 1152.2215,-228.5"/>
<text text-anchor="middle" x="1183.2865" y="-235.5" font-family="Helvetica,sans-Serif" font-size="10.00" fill="#000000">InputList.h</text>
</a>
</g>
</g>
<!-- Node0&#45;&gt;Node24 -->
<g id="edge30" class="edge">
<title>Node0&#45;&gt;Node24</title>
<path fill="none" stroke="#191970" d="M841.4029,-288.7642C917.4261,-281.8478 1033.099,-269.4305 1142.0874,-249.0309"/>
<polygon fill="#191970" stroke="#191970" points="1142.7639,-252.4651 1151.936,-247.162 1141.4588,-245.5878 1142.7639,-252.4651"/>
</g>
<!-- Node25 -->
<g id="node26" class="node">
<title>Node25</title>
<g id="a_node26"><a xlink:href="OutputList_8h.html" target="_top" xlink:title="OutputList.h">
<polygon fill="#ffffff" stroke="#000000" points="1232.332,-228.5 1232.332,-248.5 1302.241,-248.5 1302.241,-228.5 1232.332,-228.5"/>
<text text-anchor="middle" x="1267.2865" y="-235.5" font-family="Helvetica,sans-Serif" font-size="10.00" fill="#000000">OutputList.h</text>
</a>
</g>
</g>
<!-- Node0&#45;&gt;Node25 -->
<g id="edge31" class="edge">
<title>Node0&#45;&gt;Node25</title>
<path fill="none" stroke="#191970" d="M841.0501,-290.5983C932.2006,-284.4371 1083.1982,-271.9833 1222.3143,-248.9709"/>
<polygon fill="#191970" stroke="#191970" points="1223.0252,-252.4006 1232.3091,-247.2957 1221.8681,-245.4969 1223.0252,-252.4006"/>
</g>
<!-- Node26 -->
<g id="node27" class="node">
<title>Node26</title>
<g id="a_node27"><a xlink:href="ServoList_8h.html" target="_top" xlink:title="ServoList.h">
<polygon fill="#ffffff" stroke="#000000" points="1320.281,-228.5 1320.281,-248.5 1386.292,-248.5 1386.292,-228.5 1320.281,-228.5"/>
<text text-anchor="middle" x="1353.2865" y="-235.5" font-family="Helvetica,sans-Serif" font-size="10.00" fill="#000000">ServoList.h</text>
</a>
</g>
</g>
<!-- Node0&#45;&gt;Node26 -->
<g id="edge32" class="edge">
<title>Node0&#45;&gt;Node26</title>
<path fill="none" stroke="#191970" d="M841.2483,-292.6903C947.7991,-288.15 1138.4716,-276.882 1309.9533,-249.0002"/>
<polygon fill="#191970" stroke="#191970" points="1310.6201,-252.4376 1319.9176,-247.3575 1309.4814,-245.5308 1310.6201,-252.4376"/>
</g>
<!-- Node27 -->
<g id="node28" class="node">
<title>Node27</title>
<g id="a_node28"><a xlink:href="IOFactory_8h.html" target="_top" xlink:title="IOFactory.h">
<polygon fill="#ffffff" stroke="#000000" points="483.171,-228.5 483.171,-248.5 551.402,-248.5 551.402,-228.5 483.171,-228.5"/>
<text text-anchor="middle" x="517.2865" y="-235.5" font-family="Helvetica,sans-Serif" font-size="10.00" fill="#000000">IOFactory.h</text>
</a>
</g>
</g>
<!-- Node0&#45;&gt;Node27 -->
<g id="edge33" class="edge">
<title>Node0&#45;&gt;Node27</title>
<path fill="none" stroke="#191970" d="M715.7553,-285.4408C672.3792,-275.1817 605.3818,-259.3358 561.431,-248.9408"/>
<polygon fill="#191970" stroke="#191970" points="562.139,-245.5118 551.6019,-246.6161 560.5278,-252.3238 562.139,-245.5118"/>
</g>
<!-- Node28 -->
<g id="node29" class="node">
<title>Node28</title>
<g id="a_node29"><a xlink:href="BluetoothDefinitions_8h.html" target="_top" xlink:title="BluetoothDefinitions.h">
<polygon fill="#ffffff" stroke="#000000" points="182.662,-171.5 182.662,-191.5 295.911,-191.5 295.911,-171.5 182.662,-171.5"/>
<text text-anchor="middle" x="239.2865" y="-178.5" font-family="Helvetica,sans-Serif" font-size="10.00" fill="#000000">BluetoothDefinitions.h</text>
</a>
</g>
</g>
<!-- Node0&#45;&gt;Node28 -->
<g id="edge35" class="edge">
<title>Node0&#45;&gt;Node28</title>
<path fill="none" stroke="#191970" d="M675.4528,-292.8621C541.622,-287.8569 289.58,-275.0692 258.2865,-249 244.5877,-237.5881 240.3443,-217.142 239.2211,-201.7332"/>
<polygon fill="#191970" stroke="#191970" points="242.7142,-201.4751 238.8641,-191.6047 235.7186,-201.7218 242.7142,-201.4751"/>
</g>
<!-- Node29 -->
<g id="node30" class="node">
<title>Node29</title>
<g id="a_node30"><a xlink:href="CommunicationProtocolParser_8h.html" target="_top" xlink:title="CommunicationProtocolParser.h">
<polygon fill="#ffffff" stroke="#000000" points="267.3345,-228.5 267.3345,-248.5 427.2385,-248.5 427.2385,-228.5 267.3345,-228.5"/>
<text text-anchor="middle" x="347.2865" y="-235.5" font-family="Helvetica,sans-Serif" font-size="10.00" fill="#000000">CommunicationProtocolParser.h</text>
</a>
</g>
</g>
<!-- Node0&#45;&gt;Node29 -->
<g id="edge38" class="edge">
<title>Node0&#45;&gt;Node29</title>
<path fill="none" stroke="#191970" d="M685.754,-285.4408C614.1125,-275.5051 504.6866,-260.3292 429.7727,-249.9397"/>
<polygon fill="#191970" stroke="#191970" points="429.8246,-246.4135 419.4386,-248.5065 428.863,-253.3471 429.8246,-246.4135"/>
</g>
<!-- Node30 -->
<g id="node31" class="node">
<title>Node30</title>
<polygon fill="#ffffff" stroke="#bfbfbf" points="1404.509,-228.5 1404.509,-248.5 1456.064,-248.5 1456.064,-228.5 1404.509,-228.5"/>
<text text-anchor="middle" x="1430.2865" y="-235.5" font-family="Helvetica,sans-Serif" font-size="10.00" fill="#000000">sstream</text>
</g>
<!-- Node0&#45;&gt;Node30 -->
<g id="edge43" class="edge">
<title>Node0&#45;&gt;Node30</title>
<path fill="none" stroke="#191970" d="M841.0691,-291.7112C984.4272,-284.785 1274.2609,-269.0813 1394.3845,-248.7297"/>
<polygon fill="#191970" stroke="#191970" points="1395.2156,-252.1369 1404.4474,-246.9385 1393.9888,-245.2452 1395.2156,-252.1369"/>
</g>
<!-- Node31 -->
<g id="node32" class="node">
<title>Node31</title>
<polygon fill="#ffffff" stroke="#bfbfbf" points="1474.119,-228.5 1474.119,-248.5 1518.454,-248.5 1518.454,-228.5 1474.119,-228.5"/>
<text text-anchor="middle" x="1496.2865" y="-235.5" font-family="Helvetica,sans-Serif" font-size="10.00" fill="#000000">iosfwd</text>
</g>
<!-- Node0&#45;&gt;Node31 -->
<g id="edge45" class="edge">
<title>Node0&#45;&gt;Node31</title>
<path fill="none" stroke="#191970" d="M841.0845,-292.7636C997.1802,-287.1693 1330.54,-273.0389 1463.7857,-248.7948"/>
<polygon fill="#191970" stroke="#191970" points="1464.6226,-252.1982 1473.7855,-246.8793 1463.3056,-245.3232 1464.6226,-252.1982"/>
</g>
<!-- Node2 -->
<g id="node3" class="node">
<title>Node2</title>
<polygon fill="#ffffff" stroke="#bfbfbf" points="212.6735,-114.5 212.6735,-134.5 255.8995,-134.5 255.8995,-114.5 212.6735,-114.5"/>
<text text-anchor="middle" x="234.2865" y="-121.5" font-family="Helvetica,sans-Serif" font-size="10.00" fill="#000000">vector</text>
</g>
<!-- Node1&#45;&gt;Node2 -->
<g id="edge2" class="edge">
<title>Node1&#45;&gt;Node2</title>
<path fill="none" stroke="#191970" d="M370.9911,-171.4408C341.5556,-161.3334 296.3273,-145.8032 266.0462,-135.4054"/>
<polygon fill="#191970" stroke="#191970" points="266.989,-132.0286 256.3944,-132.0913 264.7156,-138.6492 266.989,-132.0286"/>
</g>
<!-- Node3 -->
<g id="node4" class="node">
<title>Node3</title>
<g id="a_node4"><a xlink:href="BluetoothInterface_8h.html" target="_top" xlink:title="BluetoothInterface.h">
<polygon fill="#ffffff" stroke="#000000" points="356.546,-114.5 356.546,-134.5 462.027,-134.5 462.027,-114.5 356.546,-114.5"/>
<text text-anchor="middle" x="409.2865" y="-121.5" font-family="Helvetica,sans-Serif" font-size="10.00" fill="#000000">BluetoothInterface.h</text>
</a>
</g>
</g>
<!-- Node1&#45;&gt;Node3 -->
<g id="edge3" class="edge">
<title>Node1&#45;&gt;Node3</title>
<path fill="none" stroke="#191970" d="M401.8955,-171.3095C403.0602,-163.9335 404.6728,-153.72 406.0947,-144.715"/>
<polygon fill="#191970" stroke="#191970" points="409.5889,-145.0258 407.6914,-134.6022 402.6745,-143.934 409.5889,-145.0258"/>
</g>
<!-- Node7 -->
<g id="node8" class="node">
<title>Node7</title>
<g id="a_node8"><a xlink:href="UserLED_8h.html" target="_top" xlink:title="UserLED.h">
<polygon fill="#ffffff" stroke="#000000" points="273.8405,-114.5 273.8405,-134.5 338.7325,-134.5 338.7325,-114.5 273.8405,-114.5"/>
<text text-anchor="middle" x="306.2865" y="-121.5" font-family="Helvetica,sans-Serif" font-size="10.00" fill="#000000">UserLED.h</text>
</a>
</g>
</g>
<!-- Node1&#45;&gt;Node7 -->
<g id="edge7" class="edge">
<title>Node1&#45;&gt;Node7</title>
<path fill="none" stroke="#191970" d="M383.4812,-171.3095C369.0448,-162.5556 348.0174,-149.8049 331.553,-139.8211"/>
<polygon fill="#191970" stroke="#191970" points="333.3119,-136.7945 322.9463,-134.6022 329.6823,-142.7801 333.3119,-136.7945"/>
</g>
<!-- Node3&#45;&gt;Node4 -->
<g id="edge4" class="edge">
<title>Node3&#45;&gt;Node4</title>
<path fill="none" stroke="#191970" d="M414.4711,-114.3095C418.3888,-106.6093 423.8798,-95.8166 428.6021,-86.5349"/>
<polygon fill="#191970" stroke="#191970" points="431.7316,-88.1021 433.1468,-77.6022 425.4927,-84.9279 431.7316,-88.1021"/>
</g>
<!-- Node5 -->
<g id="node6" class="node">
<title>Node5</title>
<polygon fill="#ffffff" stroke="#bfbfbf" points="195.064,-.5 195.064,-20.5 235.509,-20.5 235.509,-.5 195.064,-.5"/>
<text text-anchor="middle" x="215.2865" y="-7.5" font-family="Helvetica,sans-Serif" font-size="10.00" fill="#000000">string</text>
</g>
<!-- Node4&#45;&gt;Node5 -->
<g id="edge5" class="edge">
<title>Node4&#45;&gt;Node5</title>
<path fill="none" stroke="#191970" d="M398.9319,-57.4408C355.086,-46.2335 285.1559,-28.359 245.4382,-18.2069"/>
<polygon fill="#191970" stroke="#191970" points="246.1098,-14.7661 235.5545,-15.6806 244.3762,-21.5481 246.1098,-14.7661"/>
</g>
<!-- Node4&#45;&gt;Node6 -->
<g id="edge6" class="edge">
<title>Node4&#45;&gt;Node6</title>
<path fill="none" stroke="#191970" d="M472.1703,-57.4408C508.032,-46.7943 564.1606,-30.1311 599.0035,-19.7871"/>
<polygon fill="#191970" stroke="#191970" points="600.0692,-23.1218 608.6596,-16.9205 598.077,-16.4113 600.0692,-23.1218"/>
</g>
<!-- Node7&#45;&gt;Node5 -->
<g id="edge8" class="edge">
<title>Node7&#45;&gt;Node5</title>
<path fill="none" stroke="#191970" d="M298.2109,-114.3833C282.8696,-95.1645 249.3158,-53.1301 229.9201,-28.8322"/>
<polygon fill="#191970" stroke="#191970" points="232.4489,-26.3898 223.4749,-20.7579 226.9781,-30.7569 232.4489,-26.3898"/>
</g>
<!-- Node7&#45;&gt;Node8 -->
<g id="edge9" class="edge">
<title>Node7&#45;&gt;Node8</title>
<path fill="none" stroke="#191970" d="M275.4028,-114.4408C244.7677,-104.4625 197.9062,-89.199 165.9989,-78.8063"/>
<polygon fill="#191970" stroke="#191970" points="166.7967,-75.3852 156.2043,-75.6161 164.6287,-82.0411 166.7967,-75.3852"/>
</g>
<!-- Node16 -->
<g id="node17" class="node">
<title>Node16</title>
<g id="a_node17"><a xlink:href="IOBase_8h.html" target="_top" xlink:title="IOBase.h">
<polygon fill="#ffffff" stroke="#000000" points="50.445,-171.5 50.445,-191.5 108.128,-191.5 108.128,-171.5 50.445,-171.5"/>
<text text-anchor="middle" x="79.2865" y="-178.5" font-family="Helvetica,sans-Serif" font-size="10.00" fill="#000000">IOBase.h</text>
</a>
</g>
</g>
<!-- Node15&#45;&gt;Node16 -->
<g id="edge17" class="edge">
<title>Node15&#45;&gt;Node16</title>
<path fill="none" stroke="#191970" d="M33.2982,-228.3095C41.3412,-220.1229 52.8182,-208.441 62.2945,-198.7955"/>
<polygon fill="#191970" stroke="#191970" points="64.8499,-201.1885 69.3615,-191.6022 59.8566,-196.2827 64.8499,-201.1885"/>
</g>
<!-- Node16&#45;&gt;Node5 -->
<g id="edge18" class="edge">
<title>Node16&#45;&gt;Node5</title>
<path fill="none" stroke="#191970" d="M77.6497,-171.4957C74.4844,-148.5409 70.0443,-91.4211 97.2865,-57 118.5186,-30.1728 157.4452,-18.7811 184.7663,-13.9706"/>
<polygon fill="#191970" stroke="#191970" points="185.6223,-17.3796 194.9644,-12.3821 184.5448,-10.463 185.6223,-17.3796"/>
</g>
<!-- Node16&#45;&gt;Node8 -->
<g id="edge19" class="edge">
<title>Node16&#45;&gt;Node8</title>
<path fill="none" stroke="#191970" d="M83.9012,-171.3833C92.5138,-152.5017 111.1716,-111.598 122.3337,-87.1272"/>
<polygon fill="#191970" stroke="#191970" points="125.6417,-88.3087 126.6074,-77.7579 119.273,-85.4036 125.6417,-88.3087"/>
</g>
<!-- Node18 -->
<g id="node19" class="node">
<title>Node18</title>
<polygon fill="#ffffff" stroke="#bfbfbf" points="670.17,-114.5 670.17,-134.5 718.403,-134.5 718.403,-114.5 670.17,-114.5"/>
<text text-anchor="middle" x="694.2865" y="-121.5" font-family="Helvetica,sans-Serif" font-size="10.00" fill="#000000">stdint.h</text>
</g>
<!-- Node17&#45;&gt;Node18 -->
<g id="edge21" class="edge">
<title>Node17&#45;&gt;Node18</title>
<path fill="none" stroke="#191970" d="M694.2865,-171.3095C694.2865,-163.9335 694.2865,-153.72 694.2865,-144.715"/>
<polygon fill="#191970" stroke="#191970" points="697.7866,-144.6022 694.2865,-134.6022 690.7866,-144.6023 697.7866,-144.6022"/>
</g>
<!-- Node19 -->
<g id="node20" class="node">
<title>Node19</title>
<polygon fill="#ffffff" stroke="#bfbfbf" points="736.166,-114.5 736.166,-134.5 794.407,-134.5 794.407,-114.5 736.166,-114.5"/>
<text text-anchor="middle" x="765.2865" y="-121.5" font-family="Helvetica,sans-Serif" font-size="10.00" fill="#000000">pthread.h</text>
</g>
<!-- Node17&#45;&gt;Node19 -->
<g id="edge22" class="edge">
<title>Node17&#45;&gt;Node19</title>
<path fill="none" stroke="#191970" d="M706.9799,-171.3095C717.4801,-162.8798 732.5967,-150.7439 744.8067,-140.9415"/>
<polygon fill="#191970" stroke="#191970" points="747.0962,-143.5919 752.703,-134.6022 742.7139,-138.1333 747.0962,-143.5919"/>
</g>
<!-- Node20 -->
<g id="node21" class="node">
<title>Node20</title>
<g id="a_node21"><a xlink:href="LinearConverter_8h.html" target="_top" xlink:title="LinearConverter.h">
<polygon fill="#ffffff" stroke="#000000" points="518.2795,-114.5 518.2795,-134.5 614.2935,-134.5 614.2935,-114.5 518.2795,-114.5"/>
<text text-anchor="middle" x="566.2865" y="-121.5" font-family="Helvetica,sans-Serif" font-size="10.00" fill="#000000">LinearConverter.h</text>
</a>
</g>
</g>
<!-- Node17&#45;&gt;Node20 -->
<g id="edge23" class="edge">
<title>Node17&#45;&gt;Node20</title>
<path fill="none" stroke="#191970" d="M671.6973,-171.4408C651.3505,-162.3801 621.2177,-148.9615 598.3743,-138.7891"/>
<polygon fill="#191970" stroke="#191970" points="599.6394,-135.5212 589.0804,-134.6504 596.7918,-141.9158 599.6394,-135.5212"/>
</g>
<!-- Node20&#45;&gt;Node12 -->
<g id="edge25" class="edge">
<title>Node20&#45;&gt;Node12</title>
<path fill="none" stroke="#191970" d="M579.1587,-114.3095C589.8068,-105.8798 605.1363,-93.7439 617.5183,-83.9415"/>
<polygon fill="#191970" stroke="#191970" points="619.8578,-86.5535 625.5258,-77.6022 615.5128,-81.0651 619.8578,-86.5535"/>
</g>
<!-- Node21 -->
<g id="node22" class="node">
<title>Node21</title>
<g id="a_node22"><a xlink:href="Range_8h.html" target="_top" xlink:title="Range.h">
<polygon fill="#ffffff" stroke="#000000" points="539.39,-57.5 539.39,-77.5 593.183,-77.5 593.183,-57.5 539.39,-57.5"/>
<text text-anchor="middle" x="566.2865" y="-64.5" font-family="Helvetica,sans-Serif" font-size="10.00" fill="#000000">Range.h</text>
</a>
</g>
</g>
<!-- Node20&#45;&gt;Node21 -->
<g id="edge24" class="edge">
<title>Node20&#45;&gt;Node21</title>
<path fill="none" stroke="#191970" d="M566.2865,-114.3095C566.2865,-106.9335 566.2865,-96.72 566.2865,-87.715"/>
<polygon fill="#191970" stroke="#191970" points="569.7866,-87.6022 566.2865,-77.6022 562.7866,-87.6023 569.7866,-87.6022"/>
</g>
<!-- Node22&#45;&gt;Node17 -->
<g id="edge27" class="edge">
<title>Node22&#45;&gt;Node17</title>
<path fill="none" stroke="#191970" d="M718.9231,-228.3095C714.8703,-220.6093 709.19,-209.8166 704.3048,-200.5349"/>
<polygon fill="#191970" stroke="#191970" points="707.3582,-198.8213 699.6035,-191.6022 701.1638,-202.0816 707.3582,-198.8213"/>
</g>
<!-- Node23&#45;&gt;Node16 -->
<g id="edge29" class="edge">
<title>Node23&#45;&gt;Node16</title>
<path fill="none" stroke="#191970" d="M89.1411,-228.3095C87.5712,-220.8524 85.3907,-210.4951 83.4799,-201.4186"/>
<polygon fill="#191970" stroke="#191970" points="86.8984,-200.6667 81.4133,-191.6022 80.0485,-202.1088 86.8984,-200.6667"/>
</g>
<!-- Node27&#45;&gt;Node1 -->
<g id="edge34" class="edge">
<title>Node27&#45;&gt;Node1</title>
<path fill="none" stroke="#191970" d="M496.6386,-228.4408C478.2064,-219.461 450.9882,-206.2008 430.1777,-196.0624"/>
<polygon fill="#191970" stroke="#191970" points="431.6444,-192.8837 421.1216,-191.6504 428.5786,-199.1766 431.6444,-192.8837"/>
</g>
<!-- Node28&#45;&gt;Node5 -->
<g id="edge36" class="edge">
<title>Node28&#45;&gt;Node5</title>
<path fill="none" stroke="#191970" d="M228.0807,-171.2889C219.4428,-162.6053 208.1743,-149.2977 203.2865,-135 191.1713,-99.5608 200.8281,-55.3618 208.419,-30.2932"/>
<polygon fill="#191970" stroke="#191970" points="211.8354,-31.1029 211.576,-20.5113 205.1737,-28.9529 211.8354,-31.1029"/>
</g>
<!-- Node29&#45;&gt;Node1 -->
<g id="edge39" class="edge">
<title>Node29&#45;&gt;Node1</title>
<path fill="none" stroke="#191970" d="M356.7618,-228.3095C364.2986,-220.204 375.0214,-208.672 383.9378,-199.0826"/>
<polygon fill="#191970" stroke="#191970" points="386.6469,-201.3089 390.8932,-191.6022 381.5205,-196.5423 386.6469,-201.3089"/>
</g>
<!-- Node29&#45;&gt;Node20 -->
<g id="edge40" class="edge">
<title>Node29&#45;&gt;Node20</title>
<path fill="none" stroke="#191970" d="M391.018,-228.4319C419.3195,-220.8365 456.3363,-208.8254 486.2865,-192 510.5714,-178.3572 534.4555,-156.8526 549.7124,-141.7917"/>
<polygon fill="#191970" stroke="#191970" points="552.3074,-144.1455 556.8609,-134.579 547.3355,-139.2179 552.3074,-144.1455"/>
</g>
<!-- Node29&#45;&gt;Node28 -->
<g id="edge41" class="edge">
<title>Node29&#45;&gt;Node28</title>
<path fill="none" stroke="#191970" d="M328.2269,-228.4408C311.3658,-219.5419 286.5401,-206.4394 267.399,-196.3371"/>
<polygon fill="#191970" stroke="#191970" points="268.9964,-193.2227 258.5189,-191.6504 265.7291,-199.4134 268.9964,-193.2227"/>
</g>
</g>
</svg>
