<?xml version="1.0" encoding="UTF-8" standalone="no"?>
<!DOCTYPE svg PUBLIC "-//W3C//DTD SVG 1.1//EN"
 "http://www.w3.org/Graphics/SVG/1.1/DTD/svg11.dtd">
<!-- Generated by graphviz version 2.40.1 (20161225.0304)
 -->
<!-- Title: BoeingSurfaceVehicleControl.cpp Pages: 1 -->
<svg width="944pt" height="314pt"
 viewBox="0.00 0.00 943.63 314.00" xmlns="http://www.w3.org/2000/svg" xmlns:xlink="http://www.w3.org/1999/xlink">
<g id="graph0" class="graph" transform="scale(1 1) rotate(0) translate(4 310)">
<title>BoeingSurfaceVehicleControl.cpp</title>
<polygon fill="#ffffff" stroke="transparent" points="-4,4 -4,-310 939.63,-310 939.63,4 -4,4"/>
<!-- Node0 -->
<g id="node1" class="node">
<title>Node0</title>
<polygon fill="#bfbfbf" stroke="#000000" points="369.8835,-285.5 369.8835,-305.5 535.3655,-305.5 535.3655,-285.5 369.8835,-285.5"/>
<text text-anchor="middle" x="452.6245" y="-292.5" font-family="Helvetica,sans-Serif" font-size="10.00" fill="#000000">BoeingSurfaceVehicleControl.cpp</text>
</g>
<!-- Node1 -->
<g id="node2" class="node">
<title>Node1</title>
<g id="a_node2"><a xlink:href="BoeingSurfaceVehicleControl_8h.html" target="_top" xlink:title="BoeingSurfaceVehicleControl.h">
<polygon fill="#ffffff" stroke="#000000" points="231.163,-171.5 231.163,-191.5 386.086,-191.5 386.086,-171.5 231.163,-171.5"/>
<text text-anchor="middle" x="308.6245" y="-178.5" font-family="Helvetica,sans-Serif" font-size="10.00" fill="#000000">BoeingSurfaceVehicleControl.h</text>
</a>
</g>
</g>
<!-- Node0&#45;&gt;Node1 -->
<g id="edge1" class="edge">
<title>Node0&#45;&gt;Node1</title>
<path fill="none" stroke="#191970" d="M418.9514,-285.4719C397.8728,-277.9514 371.1137,-266.0083 351.6245,-249 336.4842,-235.787 324.7268,-215.96 317.3623,-201.209"/>
<polygon fill="#191970" stroke="#191970" points="320.4214,-199.491 312.9779,-191.9514 314.095,-202.4872 320.4214,-199.491"/>
</g>
<!-- Node9 -->
<g id="node10" class="node">
<title>Node9</title>
<polygon fill="#ffffff" stroke="#bfbfbf" points="360.398,-228.5 360.398,-248.5 410.851,-248.5 410.851,-228.5 360.398,-228.5"/>
<text text-anchor="middle" x="385.6245" y="-235.5" font-family="Helvetica,sans-Serif" font-size="10.00" fill="#000000">signal.h</text>
</g>
<!-- Node0&#45;&gt;Node9 -->
<g id="edge11" class="edge">
<title>Node0&#45;&gt;Node9</title>
<path fill="none" stroke="#191970" d="M440.6462,-285.3095C430.8328,-276.9608 416.7465,-264.9769 405.2836,-255.2249"/>
<polygon fill="#191970" stroke="#191970" points="407.3836,-252.4162 397.4991,-248.6022 402.8477,-257.7479 407.3836,-252.4162"/>
</g>
<!-- Node10 -->
<g id="node11" class="node">
<title>Node10</title>
<polygon fill="#ffffff" stroke="#bfbfbf" points="428.788,-228.5 428.788,-248.5 476.461,-248.5 476.461,-228.5 428.788,-228.5"/>
<text text-anchor="middle" x="452.6245" y="-235.5" font-family="Helvetica,sans-Serif" font-size="10.00" fill="#000000">stdlib.h</text>
</g>
<!-- Node0&#45;&gt;Node10 -->
<g id="edge12" class="edge">
<title>Node0&#45;&gt;Node10</title>
<path fill="none" stroke="#191970" d="M452.6245,-285.3095C452.6245,-277.9335 452.6245,-267.72 452.6245,-258.715"/>
<polygon fill="#191970" stroke="#191970" points="456.1246,-258.6022 452.6245,-248.6022 449.1246,-258.6023 456.1246,-258.6022"/>
</g>
<!-- Node11 -->
<g id="node12" class="node">
<title>Node11</title>
<polygon fill="#ffffff" stroke="#bfbfbf" points="494.118,-228.5 494.118,-248.5 545.131,-248.5 545.131,-228.5 494.118,-228.5"/>
<text text-anchor="middle" x="519.6245" y="-235.5" font-family="Helvetica,sans-Serif" font-size="10.00" fill="#000000">unistd.h</text>
</g>
<!-- Node0&#45;&gt;Node11 -->
<g id="edge13" class="edge">
<title>Node0&#45;&gt;Node11</title>
<path fill="none" stroke="#191970" d="M464.6028,-285.3095C474.4162,-276.9608 488.5025,-264.9769 499.9654,-255.2249"/>
<polygon fill="#191970" stroke="#191970" points="502.4013,-257.7479 507.7499,-248.6022 497.8654,-252.4162 502.4013,-257.7479"/>
</g>
<!-- Node12 -->
<g id="node13" class="node">
<title>Node12</title>
<g id="a_node13"><a xlink:href="Input_8h.html" target="_top" xlink:title="Input.h">
<polygon fill="#ffffff" stroke="#000000" points="172.338,-228.5 172.338,-248.5 218.911,-248.5 218.911,-228.5 172.338,-228.5"/>
<text text-anchor="middle" x="195.6245" y="-235.5" font-family="Helvetica,sans-Serif" font-size="10.00" fill="#000000">Input.h</text>
</a>
</g>
</g>
<!-- Node0&#45;&gt;Node12 -->
<g id="edge14" class="edge">
<title>Node0&#45;&gt;Node12</title>
<path fill="none" stroke="#191970" d="M394.8677,-285.4279C351.4873,-277.4386 290.4757,-265.3055 228.8456,-249.1242"/>
<polygon fill="#191970" stroke="#191970" points="229.5153,-245.6808 218.9516,-246.4925 227.7159,-252.4455 229.5153,-245.6808"/>
</g>
<!-- Node14 -->
<g id="node15" class="node">
<title>Node14</title>
<g id="a_node15"><a xlink:href="MotorControl_8h.html" target="_top" xlink:title="MotorControl.h">
<polygon fill="#ffffff" stroke="#000000" points="632.5665,-171.5 632.5665,-191.5 714.6825,-191.5 714.6825,-171.5 632.5665,-171.5"/>
<text text-anchor="middle" x="673.6245" y="-178.5" font-family="Helvetica,sans-Serif" font-size="10.00" fill="#000000">MotorControl.h</text>
</a>
</g>
</g>
<!-- Node0&#45;&gt;Node14 -->
<g id="edge18" class="edge">
<title>Node0&#45;&gt;Node14</title>
<path fill="none" stroke="#191970" d="M533.0262,-285.4712C581.4176,-277.8618 636.9748,-265.8201 654.6245,-249 667.2657,-236.953 671.706,-217.215 673.1667,-202.1867"/>
<polygon fill="#191970" stroke="#191970" points="676.6836,-202.0097 673.7895,-191.8178 669.6962,-201.5899 676.6836,-202.0097"/>
</g>
<!-- Node19 -->
<g id="node20" class="node">
<title>Node19</title>
<g id="a_node20"><a xlink:href="ServoControl_8h.html" target="_top" xlink:title="ServoControl.h">
<polygon fill="#ffffff" stroke="#000000" points="563.286,-228.5 563.286,-248.5 645.963,-248.5 645.963,-228.5 563.286,-228.5"/>
<text text-anchor="middle" x="604.6245" y="-235.5" font-family="Helvetica,sans-Serif" font-size="10.00" fill="#000000">ServoControl.h</text>
</a>
</g>
</g>
<!-- Node0&#45;&gt;Node19 -->
<g id="edge23" class="edge">
<title>Node0&#45;&gt;Node19</title>
<path fill="none" stroke="#191970" d="M479.4492,-285.4408C504.1184,-276.1898 540.9016,-262.3961 568.2174,-252.1527"/>
<polygon fill="#191970" stroke="#191970" points="569.6785,-255.3428 577.8128,-248.5544 567.2205,-248.7885 569.6785,-255.3428"/>
</g>
<!-- Node20 -->
<g id="node21" class="node">
<title>Node20</title>
<g id="a_node21"><a xlink:href="Output_8h.html" target="_top" xlink:title="Output.h">
<polygon fill="#ffffff" stroke="#000000" points="100.4485,-228.5 100.4485,-248.5 154.8005,-248.5 154.8005,-228.5 100.4485,-228.5"/>
<text text-anchor="middle" x="127.6245" y="-235.5" font-family="Helvetica,sans-Serif" font-size="10.00" fill="#000000">Output.h</text>
</a>
</g>
</g>
<!-- Node0&#45;&gt;Node20 -->
<g id="edge25" class="edge">
<title>Node0&#45;&gt;Node20</title>
<path fill="none" stroke="#191970" d="M373.617,-285.4876C317.7494,-277.7829 240.9594,-265.9372 165.2407,-249.1688"/>
<polygon fill="#191970" stroke="#191970" points="165.5742,-245.6566 155.0503,-246.8804 164.0404,-252.4865 165.5742,-245.6566"/>
</g>
<!-- Node21 -->
<g id="node22" class="node">
<title>Node21</title>
<g id="a_node22"><a xlink:href="InputList_8h.html" target="_top" xlink:title="InputList.h">
<polygon fill="#ffffff" stroke="#000000" points="701.5595,-228.5 701.5595,-248.5 763.6895,-248.5 763.6895,-228.5 701.5595,-228.5"/>
<text text-anchor="middle" x="732.6245" y="-235.5" font-family="Helvetica,sans-Serif" font-size="10.00" fill="#000000">InputList.h</text>
</a>
</g>
</g>
<!-- Node0&#45;&gt;Node21 -->
<g id="edge27" class="edge">
<title>Node0&#45;&gt;Node21</title>
<path fill="none" stroke="#191970" d="M505.9297,-285.486C553.6296,-276.3981 625.4208,-262.4073 687.6245,-249 688.8597,-248.7338 690.1132,-248.4606 691.3781,-248.1822"/>
<polygon fill="#191970" stroke="#191970" points="692.1942,-251.5862 701.1838,-245.9793 690.6597,-244.7565 692.1942,-251.5862"/>
</g>
<!-- Node22 -->
<g id="node23" class="node">
<title>Node22</title>
<g id="a_node23"><a xlink:href="OutputList_8h.html" target="_top" xlink:title="OutputList.h">
<polygon fill="#ffffff" stroke="#000000" points="781.67,-228.5 781.67,-248.5 851.579,-248.5 851.579,-228.5 781.67,-228.5"/>
<text text-anchor="middle" x="816.6245" y="-235.5" font-family="Helvetica,sans-Serif" font-size="10.00" fill="#000000">OutputList.h</text>
</a>
</g>
</g>
<!-- Node0&#45;&gt;Node22 -->
<g id="edge28" class="edge">
<title>Node0&#45;&gt;Node22</title>
<path fill="none" stroke="#191970" d="M535.5106,-285.5357C597.9113,-277.5517 685.732,-265.2934 771.6926,-249.049"/>
<polygon fill="#191970" stroke="#191970" points="772.4554,-252.4667 781.6214,-247.1531 771.1424,-245.5909 772.4554,-252.4667"/>
</g>
<!-- Node23 -->
<g id="node24" class="node">
<title>Node23</title>
<g id="a_node24"><a xlink:href="ServoList_8h.html" target="_top" xlink:title="ServoList.h">
<polygon fill="#ffffff" stroke="#000000" points="869.619,-228.5 869.619,-248.5 935.63,-248.5 935.63,-228.5 869.619,-228.5"/>
<text text-anchor="middle" x="902.6245" y="-235.5" font-family="Helvetica,sans-Serif" font-size="10.00" fill="#000000">ServoList.h</text>
</a>
</g>
</g>
<!-- Node0&#45;&gt;Node23 -->
<g id="edge29" class="edge">
<title>Node0&#45;&gt;Node23</title>
<path fill="none" stroke="#191970" d="M535.5333,-289.2678C616.0371,-282.4832 741.8038,-269.9489 859.3473,-249.0494"/>
<polygon fill="#191970" stroke="#191970" points="860.019,-252.4848 869.2399,-247.2669 858.7777,-245.5958 860.019,-252.4848"/>
</g>
<!-- Node24 -->
<g id="node25" class="node">
<title>Node24</title>
<g id="a_node25"><a xlink:href="IOFactory_8h.html" target="_top" xlink:title="IOFactory.h">
<polygon fill="#ffffff" stroke="#000000" points="236.509,-228.5 236.509,-248.5 304.74,-248.5 304.74,-228.5 236.509,-228.5"/>
<text text-anchor="middle" x="270.6245" y="-235.5" font-family="Helvetica,sans-Serif" font-size="10.00" fill="#000000">IOFactory.h</text>
</a>
</g>
</g>
<!-- Node0&#45;&gt;Node24 -->
<g id="edge30" class="edge">
<title>Node0&#45;&gt;Node24</title>
<path fill="none" stroke="#191970" d="M420.5055,-285.4408C390.4492,-276.0275 345.3744,-261.9107 312.5064,-251.6169"/>
<polygon fill="#191970" stroke="#191970" points="313.317,-248.2032 302.728,-248.5544 311.2248,-254.8832 313.317,-248.2032"/>
</g>
<!-- Node25 -->
<g id="node26" class="node">
<title>Node25</title>
<g id="a_node26"><a xlink:href="BluetoothDefinitions_8h.html" target="_top" xlink:title="BluetoothDefinitions.h">
<polygon fill="#ffffff" stroke="#000000" points="0,-171.5 0,-191.5 113.249,-191.5 113.249,-171.5 0,-171.5"/>
<text text-anchor="middle" x="56.6245" y="-178.5" font-family="Helvetica,sans-Serif" font-size="10.00" fill="#000000">BluetoothDefinitions.h</text>
</a>
</g>
</g>
<!-- Node0&#45;&gt;Node25 -->
<g id="edge32" class="edge">
<title>Node0&#45;&gt;Node25</title>
<path fill="none" stroke="#191970" d="M369.812,-293.5936C277.4224,-289.971 135.1885,-279.4654 91.6245,-249 75.6279,-237.8132 66.4335,-217.0278 61.5204,-201.4656"/>
<polygon fill="#191970" stroke="#191970" points="64.8522,-200.3848 58.772,-191.7083 58.1144,-202.2827 64.8522,-200.3848"/>
</g>
<!-- Node2 -->
<g id="node3" class="node">
<title>Node2</title>
<polygon fill="#ffffff" stroke="#bfbfbf" points="185.0115,-114.5 185.0115,-134.5 228.2375,-134.5 228.2375,-114.5 185.0115,-114.5"/>
<text text-anchor="middle" x="206.6245" y="-121.5" font-family="Helvetica,sans-Serif" font-size="10.00" fill="#000000">vector</text>
</g>
<!-- Node1&#45;&gt;Node2 -->
<g id="edge2" class="edge">
<title>Node1&#45;&gt;Node2</title>
<path fill="none" stroke="#191970" d="M290.3889,-171.3095C274.5789,-162.4745 251.4838,-149.5684 233.5463,-139.5445"/>
<polygon fill="#191970" stroke="#191970" points="235.139,-136.4252 224.7022,-134.6022 231.7242,-142.5358 235.139,-136.4252"/>
</g>
<!-- Node3 -->
<g id="node4" class="node">
<title>Node3</title>
<g id="a_node4"><a xlink:href="BluetoothClient_8h.html" target="_top" xlink:title="BluetoothClient.h">
<polygon fill="#ffffff" stroke="#000000" points="442.558,-114.5 442.558,-134.5 534.691,-134.5 534.691,-114.5 442.558,-114.5"/>
<text text-anchor="middle" x="488.6245" y="-121.5" font-family="Helvetica,sans-Serif" font-size="10.00" fill="#000000">BluetoothClient.h</text>
</a>
</g>
</g>
<!-- Node1&#45;&gt;Node3 -->
<g id="edge3" class="edge">
<title>Node1&#45;&gt;Node3</title>
<path fill="none" stroke="#191970" d="M340.3905,-171.4408C370.1166,-162.0275 414.696,-147.9107 447.2029,-137.6169"/>
<polygon fill="#191970" stroke="#191970" points="448.397,-140.9101 456.8738,-134.5544 446.2837,-134.2367 448.397,-140.9101"/>
</g>
<!-- Node6 -->
<g id="node7" class="node">
<title>Node6</title>
<g id="a_node7"><a xlink:href="BluetoothServer_8h.html" target="_top" xlink:title="BluetoothServer.h">
<polygon fill="#ffffff" stroke="#000000" points="328.6125,-114.5 328.6125,-134.5 424.6365,-134.5 424.6365,-114.5 328.6125,-114.5"/>
<text text-anchor="middle" x="376.6245" y="-121.5" font-family="Helvetica,sans-Serif" font-size="10.00" fill="#000000">BluetoothServer.h</text>
</a>
</g>
</g>
<!-- Node1&#45;&gt;Node6 -->
<g id="edge6" class="edge">
<title>Node1&#45;&gt;Node6</title>
<path fill="none" stroke="#191970" d="M320.7815,-171.3095C330.7414,-162.9608 345.038,-150.9769 356.672,-141.2249"/>
<polygon fill="#191970" stroke="#191970" points="359.1574,-143.7086 364.5727,-134.6022 354.6606,-138.344 359.1574,-143.7086"/>
</g>
<!-- Node7 -->
<g id="node8" class="node">
<title>Node7</title>
<g id="a_node8"><a xlink:href="UserLED_8h.html" target="_top" xlink:title="UserLED.h">
<polygon fill="#ffffff" stroke="#000000" points="246.1785,-114.5 246.1785,-134.5 311.0705,-134.5 311.0705,-114.5 246.1785,-114.5"/>
<text text-anchor="middle" x="278.6245" y="-121.5" font-family="Helvetica,sans-Serif" font-size="10.00" fill="#000000">UserLED.h</text>
</a>
</g>
</g>
<!-- Node1&#45;&gt;Node7 -->
<g id="edge8" class="edge">
<title>Node1&#45;&gt;Node7</title>
<path fill="none" stroke="#191970" d="M303.2611,-171.3095C299.2083,-163.6093 293.528,-152.8166 288.6428,-143.5349"/>
<polygon fill="#191970" stroke="#191970" points="291.6962,-141.8213 283.9415,-134.6022 285.5018,-145.0816 291.6962,-141.8213"/>
</g>
<!-- Node4 -->
<g id="node5" class="node">
<title>Node4</title>
<g id="a_node5"><a xlink:href="BluetoothBase_8h.html" target="_top" xlink:title="BluetoothBase.h">
<polygon fill="#ffffff" stroke="#000000" points="331.9415,-57.5 331.9415,-77.5 421.3075,-77.5 421.3075,-57.5 331.9415,-57.5"/>
<text text-anchor="middle" x="376.6245" y="-64.5" font-family="Helvetica,sans-Serif" font-size="10.00" fill="#000000">BluetoothBase.h</text>
</a>
</g>
</g>
<!-- Node3&#45;&gt;Node4 -->
<g id="edge4" class="edge">
<title>Node3&#45;&gt;Node4</title>
<path fill="none" stroke="#191970" d="M468.859,-114.4408C451.2939,-105.5014 425.394,-92.3202 405.5078,-82.1996"/>
<polygon fill="#191970" stroke="#191970" points="407.0689,-79.0669 396.5692,-77.6504 403.8939,-85.3054 407.0689,-79.0669"/>
</g>
<!-- Node5 -->
<g id="node6" class="node">
<title>Node5</title>
<polygon fill="#ffffff" stroke="#bfbfbf" points="178.402,-.5 178.402,-20.5 218.847,-20.5 218.847,-.5 178.402,-.5"/>
<text text-anchor="middle" x="198.6245" y="-7.5" font-family="Helvetica,sans-Serif" font-size="10.00" fill="#000000">string</text>
</g>
<!-- Node4&#45;&gt;Node5 -->
<g id="edge5" class="edge">
<title>Node4&#45;&gt;Node5</title>
<path fill="none" stroke="#191970" d="M345.2114,-57.4408C312.34,-46.9145 261.1016,-30.5067 228.7283,-20.14"/>
<polygon fill="#191970" stroke="#191970" points="229.5186,-16.718 218.9275,-17.0015 227.3837,-23.3846 229.5186,-16.718"/>
</g>
<!-- Node6&#45;&gt;Node4 -->
<g id="edge7" class="edge">
<title>Node6&#45;&gt;Node4</title>
<path fill="none" stroke="#191970" d="M376.6245,-114.3095C376.6245,-106.9335 376.6245,-96.72 376.6245,-87.715"/>
<polygon fill="#191970" stroke="#191970" points="380.1246,-87.6022 376.6245,-77.6022 373.1246,-87.6023 380.1246,-87.6022"/>
</g>
<!-- Node7&#45;&gt;Node5 -->
<g id="edge9" class="edge">
<title>Node7&#45;&gt;Node5</title>
<path fill="none" stroke="#191970" d="M271.525,-114.3833C258.0973,-95.2488 228.7988,-53.4984 211.7143,-29.1529"/>
<polygon fill="#191970" stroke="#191970" points="214.4323,-26.933 205.8231,-20.7579 208.7024,-30.954 214.4323,-26.933"/>
</g>
<!-- Node8 -->
<g id="node9" class="node">
<title>Node8</title>
<polygon fill="#ffffff" stroke="#bfbfbf" points="160.9575,-57.5 160.9575,-77.5 210.2915,-77.5 210.2915,-57.5 160.9575,-57.5"/>
<text text-anchor="middle" x="185.6245" y="-64.5" font-family="Helvetica,sans-Serif" font-size="10.00" fill="#000000">fstream</text>
</g>
<!-- Node7&#45;&gt;Node8 -->
<g id="edge10" class="edge">
<title>Node7&#45;&gt;Node8</title>
<path fill="none" stroke="#191970" d="M261.998,-114.3095C247.8474,-105.6366 227.2961,-93.0407 211.0758,-83.0992"/>
<polygon fill="#191970" stroke="#191970" points="212.4621,-79.8438 202.1071,-77.6022 208.8041,-85.812 212.4621,-79.8438"/>
</g>
<!-- Node13 -->
<g id="node14" class="node">
<title>Node13</title>
<g id="a_node14"><a xlink:href="IOBase_8h.html" target="_top" xlink:title="IOBase.h">
<polygon fill="#ffffff" stroke="#000000" points="130.783,-171.5 130.783,-191.5 188.466,-191.5 188.466,-171.5 130.783,-171.5"/>
<text text-anchor="middle" x="159.6245" y="-178.5" font-family="Helvetica,sans-Serif" font-size="10.00" fill="#000000">IOBase.h</text>
</a>
</g>
</g>
<!-- Node12&#45;&gt;Node13 -->
<g id="edge15" class="edge">
<title>Node12&#45;&gt;Node13</title>
<path fill="none" stroke="#191970" d="M189.1884,-228.3095C184.2739,-220.5282 177.3649,-209.589 171.4617,-200.2423"/>
<polygon fill="#191970" stroke="#191970" points="174.3041,-198.1881 166.0049,-191.6022 168.3856,-201.9261 174.3041,-198.1881"/>
</g>
<!-- Node13&#45;&gt;Node5 -->
<g id="edge16" class="edge">
<title>Node13&#45;&gt;Node5</title>
<path fill="none" stroke="#191970" d="M156.0351,-171.3183C148.9257,-149.4098 135.1072,-96.5767 151.6245,-57 156.5483,-45.2022 166.0838,-34.8685 175.2863,-26.9581"/>
<polygon fill="#191970" stroke="#191970" points="177.5425,-29.6353 183.1634,-20.6544 173.1688,-24.1699 177.5425,-29.6353"/>
</g>
<!-- Node13&#45;&gt;Node8 -->
<g id="edge17" class="edge">
<title>Node13&#45;&gt;Node8</title>
<path fill="none" stroke="#191970" d="M161.9318,-171.3833C166.1997,-152.6703 175.4009,-112.3266 180.9977,-87.7866"/>
<polygon fill="#191970" stroke="#191970" points="184.4737,-88.2859 183.285,-77.7579 177.6489,-86.7293 184.4737,-88.2859"/>
</g>
<!-- Node15 -->
<g id="node16" class="node">
<title>Node15</title>
<polygon fill="#ffffff" stroke="#bfbfbf" points="742.508,-114.5 742.508,-134.5 790.741,-134.5 790.741,-114.5 742.508,-114.5"/>
<text text-anchor="middle" x="766.6245" y="-121.5" font-family="Helvetica,sans-Serif" font-size="10.00" fill="#000000">stdint.h</text>
</g>
<!-- Node14&#45;&gt;Node15 -->
<g id="edge19" class="edge">
<title>Node14&#45;&gt;Node15</title>
<path fill="none" stroke="#191970" d="M690.251,-171.3095C704.4016,-162.6366 724.9529,-150.0407 741.1732,-140.0992"/>
<polygon fill="#191970" stroke="#191970" points="743.4449,-142.812 750.1419,-134.6022 739.7869,-136.8438 743.4449,-142.812"/>
</g>
<!-- Node16 -->
<g id="node17" class="node">
<title>Node16</title>
<polygon fill="#ffffff" stroke="#bfbfbf" points="552.504,-114.5 552.504,-134.5 610.745,-134.5 610.745,-114.5 552.504,-114.5"/>
<text text-anchor="middle" x="581.6245" y="-121.5" font-family="Helvetica,sans-Serif" font-size="10.00" fill="#000000">pthread.h</text>
</g>
<!-- Node14&#45;&gt;Node16 -->
<g id="edge20" class="edge">
<title>Node14&#45;&gt;Node16</title>
<path fill="none" stroke="#191970" d="M657.1767,-171.3095C643.1783,-162.6366 622.848,-150.0407 606.8021,-140.0992"/>
<polygon fill="#191970" stroke="#191970" points="608.2739,-136.8938 597.9299,-134.6022 604.5872,-142.8442 608.2739,-136.8938"/>
</g>
<!-- Node17 -->
<g id="node18" class="node">
<title>Node17</title>
<g id="a_node18"><a xlink:href="LinearConverter_8h.html" target="_top" xlink:title="LinearConverter.h">
<polygon fill="#ffffff" stroke="#000000" points="628.6175,-114.5 628.6175,-134.5 724.6315,-134.5 724.6315,-114.5 628.6175,-114.5"/>
<text text-anchor="middle" x="676.6245" y="-121.5" font-family="Helvetica,sans-Serif" font-size="10.00" fill="#000000">LinearConverter.h</text>
</a>
</g>
</g>
<!-- Node14&#45;&gt;Node17 -->
<g id="edge21" class="edge">
<title>Node14&#45;&gt;Node17</title>
<path fill="none" stroke="#191970" d="M674.1608,-171.3095C674.5491,-163.9335 675.0866,-153.72 675.5606,-144.715"/>
<polygon fill="#191970" stroke="#191970" points="679.0623,-144.7724 676.0928,-134.6022 672.072,-144.4044 679.0623,-144.7724"/>
</g>
<!-- Node18 -->
<g id="node19" class="node">
<title>Node18</title>
<g id="a_node19"><a xlink:href="Range_8h.html" target="_top" xlink:title="Range.h">
<polygon fill="#ffffff" stroke="#000000" points="649.728,-57.5 649.728,-77.5 703.521,-77.5 703.521,-57.5 649.728,-57.5"/>
<text text-anchor="middle" x="676.6245" y="-64.5" font-family="Helvetica,sans-Serif" font-size="10.00" fill="#000000">Range.h</text>
</a>
</g>
</g>
<!-- Node17&#45;&gt;Node18 -->
<g id="edge22" class="edge">
<title>Node17&#45;&gt;Node18</title>
<path fill="none" stroke="#191970" d="M676.6245,-114.3095C676.6245,-106.9335 676.6245,-96.72 676.6245,-87.715"/>
<polygon fill="#191970" stroke="#191970" points="680.1246,-87.6022 676.6245,-77.6022 673.1246,-87.6023 680.1246,-87.6022"/>
</g>
<!-- Node19&#45;&gt;Node14 -->
<g id="edge24" class="edge">
<title>Node19&#45;&gt;Node14</title>
<path fill="none" stroke="#191970" d="M616.9603,-228.3095C627.0667,-219.9608 641.5735,-207.9769 653.3786,-198.2249"/>
<polygon fill="#191970" stroke="#191970" points="655.9149,-200.6695 661.3955,-191.6022 651.4567,-195.2727 655.9149,-200.6695"/>
</g>
<!-- Node20&#45;&gt;Node13 -->
<g id="edge26" class="edge">
<title>Node20&#45;&gt;Node13</title>
<path fill="none" stroke="#191970" d="M133.3455,-228.3095C137.6684,-220.6093 143.7275,-209.8166 148.9383,-200.5349"/>
<polygon fill="#191970" stroke="#191970" points="152.1096,-202.0355 153.9531,-191.6022 146.0057,-198.6087 152.1096,-202.0355"/>
</g>
<!-- Node24&#45;&gt;Node1 -->
<g id="edge31" class="edge">
<title>Node24&#45;&gt;Node1</title>
<path fill="none" stroke="#191970" d="M277.4181,-228.3095C282.6597,-220.4472 290.0506,-209.3608 296.324,-199.9507"/>
<polygon fill="#191970" stroke="#191970" points="299.2548,-201.8642 301.8897,-191.6022 293.4304,-197.9813 299.2548,-201.8642"/>
</g>
<!-- Node25&#45;&gt;Node5 -->
<g id="edge33" class="edge">
<title>Node25&#45;&gt;Node5</title>
<path fill="none" stroke="#191970" d="M62.2672,-171.4676C74.9407,-149.4039 107.3299,-95.5642 142.6245,-57 152.7227,-45.9664 165.4538,-35.1955 176.2246,-26.803"/>
<polygon fill="#191970" stroke="#191970" points="178.5118,-29.4609 184.3546,-20.6227 174.2755,-23.8882 178.5118,-29.4609"/>
</g>
</g>
</svg>
