<?xml version="1.0" encoding="UTF-8" standalone="no"?>
<!DOCTYPE svg PUBLIC "-//W3C//DTD SVG 1.1//EN"
 "http://www.w3.org/Graphics/SVG/1.1/DTD/svg11.dtd">
<!-- Generated by graphviz version 2.40.1 (20161225.0304)
 -->
<!-- Title: /home/jc/Documents/School/SeniorDesign/ControlCode/MainApplication/Headers/ControlSoftware/BoeingSurfaceVehicleControl.h Pages: 1 -->
<svg width="449pt" height="275pt"
 viewBox="0.00 0.00 449.25 275.00" xmlns="http://www.w3.org/2000/svg" xmlns:xlink="http://www.w3.org/1999/xlink">
<g id="graph0" class="graph" transform="scale(1 1) rotate(0) translate(4 271)">
<title>/home/jc/Documents/School/SeniorDesign/ControlCode/MainApplication/Headers/ControlSoftware/BoeingSurfaceVehicleControl.h</title>
<polygon fill="#ffffff" stroke="transparent" points="-4,4 -4,-271 445.254,-271 445.254,4 -4,4"/>
<!-- Node8 -->
<g id="node1" class="node">
<title>Node8</title>
<polygon fill="#bfbfbf" stroke="#000000" points="101.4455,-198.5 101.4455,-266.5 300.8195,-266.5 300.8195,-198.5 101.4455,-198.5"/>
<text text-anchor="start" x="109.4455" y="-253.5" font-family="Helvetica,sans-Serif" font-size="10.00" fill="#000000">/home/jc/Documents</text>
<text text-anchor="start" x="109.4455" y="-241.5" font-family="Helvetica,sans-Serif" font-size="10.00" fill="#000000">/School/SeniorDesign</text>
<text text-anchor="start" x="109.4455" y="-229.5" font-family="Helvetica,sans-Serif" font-size="10.00" fill="#000000">/ControlCode/MainApplication</text>
<text text-anchor="start" x="109.4455" y="-217.5" font-family="Helvetica,sans-Serif" font-size="10.00" fill="#000000">/Headers/ControlSoftware/BoeingSurface</text>
<text text-anchor="middle" x="201.1325" y="-205.5" font-family="Helvetica,sans-Serif" font-size="10.00" fill="#000000">VehicleControl.h</text>
</g>
<!-- Node9 -->
<g id="node2" class="node">
<title>Node9</title>
<g id="a_node2"><a xlink:href="IOFactory_8h.html" target="_top" xlink:title="/home/jc/Documents\l/School/SeniorDesign\l/ControlCode/MainApplication\l/Headers/IO/IOFactory.h">
<polygon fill="#ffffff" stroke="#000000" points="127.011,-105.5 127.011,-161.5 275.254,-161.5 275.254,-105.5 127.011,-105.5"/>
<text text-anchor="start" x="135.011" y="-148.5" font-family="Helvetica,sans-Serif" font-size="10.00" fill="#000000">/home/jc/Documents</text>
<text text-anchor="start" x="135.011" y="-136.5" font-family="Helvetica,sans-Serif" font-size="10.00" fill="#000000">/School/SeniorDesign</text>
<text text-anchor="start" x="135.011" y="-124.5" font-family="Helvetica,sans-Serif" font-size="10.00" fill="#000000">/ControlCode/MainApplication</text>
<text text-anchor="middle" x="201.1325" y="-112.5" font-family="Helvetica,sans-Serif" font-size="10.00" fill="#000000">/Headers/IO/IOFactory.h</text>
</a>
</g>
</g>
<!-- Node8&#45;&gt;Node9 -->
<g id="edge1" class="edge">
<title>Node8&#45;&gt;Node9</title>
<path fill="none" stroke="#191970" d="M201.1325,-188.3768C201.1325,-179.3231 201.1325,-170.0267 201.1325,-161.7183"/>
<polygon fill="#191970" stroke="#191970" points="197.6326,-188.4298 201.1325,-198.4298 204.6326,-188.4299 197.6326,-188.4298"/>
</g>
<!-- Node10 -->
<g id="node3" class="node">
<title>Node10</title>
<g id="a_node3"><a xlink:href="BoeingSurfaceVehicleControl_8cpp.html" target="_top" xlink:title="/home/jc/Documents\l/School/SeniorDesign\l/ControlCode/MainApplication\l/Sources/ControlSoftware/BoeingSurface\lVehicleControl.cpp">
<polygon fill="#ffffff" stroke="#000000" points="0,-.5 0,-68.5 198.265,-68.5 198.265,-.5 0,-.5"/>
<text text-anchor="start" x="8" y="-55.5" font-family="Helvetica,sans-Serif" font-size="10.00" fill="#000000">/home/jc/Documents</text>
<text text-anchor="start" x="8" y="-43.5" font-family="Helvetica,sans-Serif" font-size="10.00" fill="#000000">/School/SeniorDesign</text>
<text text-anchor="start" x="8" y="-31.5" font-family="Helvetica,sans-Serif" font-size="10.00" fill="#000000">/ControlCode/MainApplication</text>
<text text-anchor="start" x="8" y="-19.5" font-family="Helvetica,sans-Serif" font-size="10.00" fill="#000000">/Sources/ControlSoftware/BoeingSurface</text>
<text text-anchor="middle" x="99.1325" y="-7.5" font-family="Helvetica,sans-Serif" font-size="10.00" fill="#000000">VehicleControl.cpp</text>
</a>
</g>
</g>
<!-- Node8&#45;&gt;Node10 -->
<g id="edge5" class="edge">
<title>Node8&#45;&gt;Node10</title>
<path fill="none" stroke="#191970" d="M141.6435,-191.4621C132.5177,-182.7221 124.1479,-172.8228 118.1325,-162 102.1501,-133.2447 98.2577,-95.4729 97.8405,-68.5208"/>
<polygon fill="#191970" stroke="#191970" points="139.3349,-194.0935 149.0938,-198.2184 144.0373,-188.9081 139.3349,-194.0935"/>
</g>
<!-- Node12 -->
<g id="node5" class="node">
<title>Node12</title>
<g id="a_node5"><a xlink:href="main_8cpp.html" target="_top" xlink:title="/home/jc/Documents\l/School/SeniorDesign\l/ControlCode/MainApplication\l/main.cpp">
<polygon fill="#ffffff" stroke="#000000" points="293.011,-105.5 293.011,-161.5 441.254,-161.5 441.254,-105.5 293.011,-105.5"/>
<text text-anchor="start" x="301.011" y="-148.5" font-family="Helvetica,sans-Serif" font-size="10.00" fill="#000000">/home/jc/Documents</text>
<text text-anchor="start" x="301.011" y="-136.5" font-family="Helvetica,sans-Serif" font-size="10.00" fill="#000000">/School/SeniorDesign</text>
<text text-anchor="start" x="301.011" y="-124.5" font-family="Helvetica,sans-Serif" font-size="10.00" fill="#000000">/ControlCode/MainApplication</text>
<text text-anchor="middle" x="367.1325" y="-112.5" font-family="Helvetica,sans-Serif" font-size="10.00" fill="#000000">/main.cpp</text>
</a>
</g>
</g>
<!-- Node8&#45;&gt;Node12 -->
<g id="edge4" class="edge">
<title>Node8&#45;&gt;Node12</title>
<path fill="none" stroke="#191970" d="M266.886,-193.2856C284.6686,-182.6803 303.5561,-171.416 320.0855,-161.5581"/>
<polygon fill="#191970" stroke="#191970" points="265.0561,-190.3016 258.2603,-198.4298 268.6416,-196.3137 265.0561,-190.3016"/>
</g>
<!-- Node9&#45;&gt;Node10 -->
<g id="edge2" class="edge">
<title>Node9&#45;&gt;Node10</title>
<path fill="none" stroke="#191970" d="M164.7854,-98.2219C154.8786,-88.6065 144.1657,-78.2087 134.3244,-68.6568"/>
<polygon fill="#191970" stroke="#191970" points="162.5627,-100.9421 172.1762,-105.3954 167.4381,-95.9191 162.5627,-100.9421"/>
</g>
<!-- Node11 -->
<g id="node4" class="node">
<title>Node11</title>
<g id="a_node4"><a xlink:href="IOFactory_8cpp.html" target="_top" xlink:title="/home/jc/Documents\l/School/SeniorDesign\l/ControlCode/MainApplication\l/Sources/IO/IOFactory.cpp">
<polygon fill="#ffffff" stroke="#000000" points="216.011,-6.5 216.011,-62.5 364.254,-62.5 364.254,-6.5 216.011,-6.5"/>
<text text-anchor="start" x="224.011" y="-49.5" font-family="Helvetica,sans-Serif" font-size="10.00" fill="#000000">/home/jc/Documents</text>
<text text-anchor="start" x="224.011" y="-37.5" font-family="Helvetica,sans-Serif" font-size="10.00" fill="#000000">/School/SeniorDesign</text>
<text text-anchor="start" x="224.011" y="-25.5" font-family="Helvetica,sans-Serif" font-size="10.00" fill="#000000">/ControlCode/MainApplication</text>
<text text-anchor="middle" x="290.1325" y="-13.5" font-family="Helvetica,sans-Serif" font-size="10.00" fill="#000000">/Sources/IO/IOFactory.cpp</text>
</a>
</g>
</g>
<!-- Node9&#45;&gt;Node11 -->
<g id="edge3" class="edge">
<title>Node9&#45;&gt;Node11</title>
<path fill="none" stroke="#191970" d="M233.3768,-97.6327C243.7223,-86.1248 255.0262,-73.5508 264.8036,-62.6749"/>
<polygon fill="#191970" stroke="#191970" points="230.4809,-95.6188 226.3983,-105.3954 235.6866,-100.2986 230.4809,-95.6188"/>
</g>
</g>
</svg>
