<?xml version="1.0" encoding="UTF-8" standalone="no"?>
<!DOCTYPE svg PUBLIC "-//W3C//DTD SVG 1.1//EN"
 "http://www.w3.org/Graphics/SVG/1.1/DTD/svg11.dtd">
<!-- Generated by graphviz version 2.40.1 (20161225.0304)
 -->
<!-- Title: BoeingSurfaceVehicleControl.cpp Pages: 1 -->
<svg width="1173pt" height="314pt"
 viewBox="0.00 0.00 1172.79 314.00" xmlns="http://www.w3.org/2000/svg" xmlns:xlink="http://www.w3.org/1999/xlink">
<g id="graph0" class="graph" transform="scale(1 1) rotate(0) translate(4 310)">
<title>BoeingSurfaceVehicleControl.cpp</title>
<polygon fill="#ffffff" stroke="transparent" points="-4,4 -4,-310 1168.788,-310 1168.788,4 -4,4"/>
<!-- Node0 -->
<g id="node1" class="node">
<title>Node0</title>
<polygon fill="#bfbfbf" stroke="#000000" points="481.435,-285.5 481.435,-305.5 646.917,-305.5 646.917,-285.5 481.435,-285.5"/>
<text text-anchor="middle" x="564.176" y="-292.5" font-family="Helvetica,sans-Serif" font-size="10.00" fill="#000000">BoeingSurfaceVehicleControl.cpp</text>
</g>
<!-- Node1 -->
<g id="node2" class="node">
<title>Node1</title>
<g id="a_node2"><a xlink:href="BoeingSurfaceVehicleControl_8h.html" target="_top" xlink:title="BoeingSurfaceVehicleControl.h">
<polygon fill="#ffffff" stroke="#000000" points="463.7145,-171.5 463.7145,-191.5 618.6375,-191.5 618.6375,-171.5 463.7145,-171.5"/>
<text text-anchor="middle" x="541.176" y="-178.5" font-family="Helvetica,sans-Serif" font-size="10.00" fill="#000000">BoeingSurfaceVehicleControl.h</text>
</a>
</g>
</g>
<!-- Node0&#45;&gt;Node1 -->
<g id="edge1" class="edge">
<title>Node0&#45;&gt;Node1</title>
<path fill="none" stroke="#191970" d="M481.372,-291.6358C370.651,-285.6061 185.8113,-272.1798 165.176,-249 125.2322,-204.1307 330.107,-188.9631 453.3132,-183.9295"/>
<polygon fill="#191970" stroke="#191970" points="453.6486,-187.4191 463.5033,-183.5285 453.3733,-180.4245 453.6486,-187.4191"/>
</g>
<!-- Node4 -->
<g id="node5" class="node">
<title>Node4</title>
<g id="a_node5"><a xlink:href="BluetoothManager_8h.html" target="_top" xlink:title="BluetoothManager.h">
<polygon fill="#ffffff" stroke="#000000" points="470.16,-57.5 470.16,-77.5 576.192,-77.5 576.192,-57.5 470.16,-57.5"/>
<text text-anchor="middle" x="523.176" y="-64.5" font-family="Helvetica,sans-Serif" font-size="10.00" fill="#000000">BluetoothManager.h</text>
</a>
</g>
</g>
<!-- Node0&#45;&gt;Node4 -->
<g id="edge36" class="edge">
<title>Node0&#45;&gt;Node4</title>
<path fill="none" stroke="#191970" d="M598.1071,-285.4896C615.7699,-278.3611 635.7965,-266.8182 646.176,-249 676.3769,-197.155 680.2858,-163.3611 646.176,-114 637.4308,-101.3447 603.8065,-89.1272 573.9207,-80.3937"/>
<polygon fill="#191970" stroke="#191970" points="574.5458,-76.933 563.9702,-77.5699 572.6348,-83.6671 574.5458,-76.933"/>
</g>
<!-- Node6 -->
<g id="node7" class="node">
<title>Node6</title>
<g id="a_node7"><a xlink:href="BluetoothDefinitions_8h.html" target="_top" xlink:title="BluetoothDefinitions.h">
<polygon fill="#ffffff" stroke="#000000" points="693.5515,-114.5 693.5515,-134.5 806.8005,-134.5 806.8005,-114.5 693.5515,-114.5"/>
<text text-anchor="middle" x="750.176" y="-121.5" font-family="Helvetica,sans-Serif" font-size="10.00" fill="#000000">BluetoothDefinitions.h</text>
</a>
</g>
</g>
<!-- Node0&#45;&gt;Node6 -->
<g id="edge35" class="edge">
<title>Node0&#45;&gt;Node6</title>
<path fill="none" stroke="#191970" d="M607.4974,-285.4365C630.7926,-278.3112 658.828,-266.7885 679.176,-249 712.4172,-219.9402 733.6884,-171.3496 743.6128,-144.2654"/>
<polygon fill="#191970" stroke="#191970" points="746.9564,-145.3074 746.9666,-134.7125 740.3516,-142.9885 746.9564,-145.3074"/>
</g>
<!-- Node9 -->
<g id="node10" class="node">
<title>Node9</title>
<polygon fill="#ffffff" stroke="#bfbfbf" points="173.839,-228.5 173.839,-248.5 216.513,-248.5 216.513,-228.5 173.839,-228.5"/>
<text text-anchor="middle" x="195.176" y="-235.5" font-family="Helvetica,sans-Serif" font-size="10.00" fill="#000000">fcntl.h</text>
</g>
<!-- Node0&#45;&gt;Node9 -->
<g id="edge11" class="edge">
<title>Node0&#45;&gt;Node9</title>
<path fill="none" stroke="#191970" d="M481.4124,-288.5397C414.8401,-281.9245 318.9032,-270.1054 226.4994,-248.6852"/>
<polygon fill="#191970" stroke="#191970" points="227.2403,-245.264 216.7039,-246.3748 225.6333,-252.0771 227.2403,-245.264"/>
</g>
<!-- Node10 -->
<g id="node11" class="node">
<title>Node10</title>
<polygon fill="#ffffff" stroke="#bfbfbf" points="234.9495,-228.5 234.9495,-248.5 285.4025,-248.5 285.4025,-228.5 234.9495,-228.5"/>
<text text-anchor="middle" x="260.176" y="-235.5" font-family="Helvetica,sans-Serif" font-size="10.00" fill="#000000">signal.h</text>
</g>
<!-- Node0&#45;&gt;Node10 -->
<g id="edge12" class="edge">
<title>Node0&#45;&gt;Node10</title>
<path fill="none" stroke="#191970" d="M490.8885,-285.4921C438.7376,-277.768 366.8944,-265.9095 295.7326,-249.1641"/>
<polygon fill="#191970" stroke="#191970" points="296.2374,-245.6863 285.698,-246.7688 294.6121,-252.495 296.2374,-245.6863"/>
</g>
<!-- Node11 -->
<g id="node12" class="node">
<title>Node11</title>
<polygon fill="#ffffff" stroke="#bfbfbf" points="303.3395,-228.5 303.3395,-248.5 351.0125,-248.5 351.0125,-228.5 303.3395,-228.5"/>
<text text-anchor="middle" x="327.176" y="-235.5" font-family="Helvetica,sans-Serif" font-size="10.00" fill="#000000">stdlib.h</text>
</g>
<!-- Node0&#45;&gt;Node11 -->
<g id="edge13" class="edge">
<title>Node0&#45;&gt;Node11</title>
<path fill="none" stroke="#191970" d="M514.8373,-285.4671C475.5301,-277.1999 418.9267,-264.6864 360.9499,-249.0581"/>
<polygon fill="#191970" stroke="#191970" points="361.8254,-245.6692 351.2572,-246.4193 359.9865,-252.4233 361.8254,-245.6692"/>
</g>
<!-- Node12 -->
<g id="node13" class="node">
<title>Node12</title>
<polygon fill="#ffffff" stroke="#bfbfbf" points="369.449,-228.5 369.449,-248.5 414.903,-248.5 414.903,-228.5 369.449,-228.5"/>
<text text-anchor="middle" x="392.176" y="-235.5" font-family="Helvetica,sans-Serif" font-size="10.00" fill="#000000">stdio.h</text>
</g>
<!-- Node0&#45;&gt;Node12 -->
<g id="edge14" class="edge">
<title>Node0&#45;&gt;Node12</title>
<path fill="none" stroke="#191970" d="M533.8218,-285.4408C503.1897,-275.2894 456.0514,-259.668 424.6753,-249.2701"/>
<polygon fill="#191970" stroke="#191970" points="425.6763,-245.9147 415.0829,-246.0913 423.4743,-252.5594 425.6763,-245.9147"/>
</g>
<!-- Node13 -->
<g id="node14" class="node">
<title>Node13</title>
<polygon fill="#ffffff" stroke="#bfbfbf" points="432.7845,-228.5 432.7845,-248.5 481.5675,-248.5 481.5675,-228.5 432.7845,-228.5"/>
<text text-anchor="middle" x="457.176" y="-235.5" font-family="Helvetica,sans-Serif" font-size="10.00" fill="#000000">string.h</text>
</g>
<!-- Node0&#45;&gt;Node13 -->
<g id="edge15" class="edge">
<title>Node0&#45;&gt;Node13</title>
<path fill="none" stroke="#191970" d="M545.0465,-285.3095C528.3854,-276.434 504.0118,-263.4499 485.1589,-253.4068"/>
<polygon fill="#191970" stroke="#191970" points="486.6112,-250.2148 476.1398,-248.6022 483.3201,-256.3929 486.6112,-250.2148"/>
</g>
<!-- Node14 -->
<g id="node15" class="node">
<title>Node14</title>
<polygon fill="#ffffff" stroke="#bfbfbf" points="499.6695,-228.5 499.6695,-248.5 550.6825,-248.5 550.6825,-228.5 499.6695,-228.5"/>
<text text-anchor="middle" x="525.176" y="-235.5" font-family="Helvetica,sans-Serif" font-size="10.00" fill="#000000">unistd.h</text>
</g>
<!-- Node0&#45;&gt;Node14 -->
<g id="edge16" class="edge">
<title>Node0&#45;&gt;Node14</title>
<path fill="none" stroke="#191970" d="M557.2036,-285.3095C551.8241,-277.4472 544.2386,-266.3608 537.8002,-256.9507"/>
<polygon fill="#191970" stroke="#191970" points="540.6235,-254.8789 532.0881,-248.6022 534.8464,-258.8317 540.6235,-254.8789"/>
</g>
<!-- Node15 -->
<g id="node16" class="node">
<title>Node15</title>
<g id="a_node16"><a xlink:href="Input_8h.html" target="_top" xlink:title="Input.h">
<polygon fill="#ffffff" stroke="#000000" points="71.8895,-228.5 71.8895,-248.5 118.4625,-248.5 118.4625,-228.5 71.8895,-228.5"/>
<text text-anchor="middle" x="95.176" y="-235.5" font-family="Helvetica,sans-Serif" font-size="10.00" fill="#000000">Input.h</text>
</a>
</g>
</g>
<!-- Node0&#45;&gt;Node15 -->
<g id="edge17" class="edge">
<title>Node0&#45;&gt;Node15</title>
<path fill="none" stroke="#191970" d="M481.1401,-290.7492C393.7019,-284.7727 252.3205,-272.3392 132.176,-249 130.9224,-248.7565 129.6496,-248.4907 128.3675,-248.2075"/>
<polygon fill="#191970" stroke="#191970" points="129.0677,-244.7752 118.5197,-245.7702 127.3859,-251.5702 129.0677,-244.7752"/>
</g>
<!-- Node17 -->
<g id="node18" class="node">
<title>Node17</title>
<g id="a_node18"><a xlink:href="MotorControl_8h.html" target="_top" xlink:title="MotorControl.h">
<polygon fill="#ffffff" stroke="#000000" points="964.118,-171.5 964.118,-191.5 1046.234,-191.5 1046.234,-171.5 964.118,-171.5"/>
<text text-anchor="middle" x="1005.176" y="-178.5" font-family="Helvetica,sans-Serif" font-size="10.00" fill="#000000">MotorControl.h</text>
</a>
</g>
</g>
<!-- Node0&#45;&gt;Node17 -->
<g id="edge21" class="edge">
<title>Node0&#45;&gt;Node17</title>
<path fill="none" stroke="#191970" d="M603.4318,-285.4252C634.6908,-276.9615 679.326,-263.8846 717.176,-249 736.9689,-241.2164 739.9935,-234.7092 760.176,-228 825.3243,-206.343 903.7686,-193.6742 954.0396,-187.1681"/>
<polygon fill="#191970" stroke="#191970" points="954.5314,-190.6339 964.015,-185.9103 953.6556,-183.6889 954.5314,-190.6339"/>
</g>
<!-- Node22 -->
<g id="node23" class="node">
<title>Node22</title>
<g id="a_node23"><a xlink:href="ServoControl_8h.html" target="_top" xlink:title="ServoControl.h">
<polygon fill="#ffffff" stroke="#000000" points="1020.8375,-228.5 1020.8375,-248.5 1103.5145,-248.5 1103.5145,-228.5 1020.8375,-228.5"/>
<text text-anchor="middle" x="1062.176" y="-235.5" font-family="Helvetica,sans-Serif" font-size="10.00" fill="#000000">ServoControl.h</text>
</a>
</g>
</g>
<!-- Node0&#45;&gt;Node22 -->
<g id="edge26" class="edge">
<title>Node0&#45;&gt;Node22</title>
<path fill="none" stroke="#191970" d="M647.0779,-289.4809C735.05,-282.5068 878.2738,-269.48 1010.8345,-249.086"/>
<polygon fill="#191970" stroke="#191970" points="1011.4223,-252.5367 1020.7654,-247.541 1010.3462,-245.6199 1011.4223,-252.5367"/>
</g>
<!-- Node23 -->
<g id="node24" class="node">
<title>Node23</title>
<g id="a_node24"><a xlink:href="Output_8h.html" target="_top" xlink:title="Output.h">
<polygon fill="#ffffff" stroke="#000000" points="0,-228.5 0,-248.5 54.352,-248.5 54.352,-228.5 0,-228.5"/>
<text text-anchor="middle" x="27.176" y="-235.5" font-family="Helvetica,sans-Serif" font-size="10.00" fill="#000000">Output.h</text>
</a>
</g>
</g>
<!-- Node0&#45;&gt;Node23 -->
<g id="edge28" class="edge">
<title>Node0&#45;&gt;Node23</title>
<path fill="none" stroke="#191970" d="M481.0505,-292.6475C383.2483,-288.2 216.0033,-277.1841 64.5162,-248.9578"/>
<polygon fill="#191970" stroke="#191970" points="65.0382,-245.4946 54.5617,-247.0736 63.7362,-252.3724 65.0382,-245.4946"/>
</g>
<!-- Node24 -->
<g id="node25" class="node">
<title>Node24</title>
<g id="a_node25"><a xlink:href="InputList_8h.html" target="_top" xlink:title="InputList.h">
<polygon fill="#ffffff" stroke="#000000" points="769.111,-228.5 769.111,-248.5 831.241,-248.5 831.241,-228.5 769.111,-228.5"/>
<text text-anchor="middle" x="800.176" y="-235.5" font-family="Helvetica,sans-Serif" font-size="10.00" fill="#000000">InputList.h</text>
</a>
</g>
</g>
<!-- Node0&#45;&gt;Node24 -->
<g id="edge30" class="edge">
<title>Node0&#45;&gt;Node24</title>
<path fill="none" stroke="#191970" d="M605.8248,-285.4408C649.0691,-274.9962 716.2888,-258.7609 759.2599,-248.3823"/>
<polygon fill="#191970" stroke="#191970" points="760.2035,-251.7551 769.1023,-246.0051 758.56,-244.9507 760.2035,-251.7551"/>
</g>
<!-- Node25 -->
<g id="node26" class="node">
<title>Node25</title>
<g id="a_node26"><a xlink:href="OutputList_8h.html" target="_top" xlink:title="OutputList.h">
<polygon fill="#ffffff" stroke="#000000" points="849.2215,-228.5 849.2215,-248.5 919.1305,-248.5 919.1305,-228.5 849.2215,-228.5"/>
<text text-anchor="middle" x="884.176" y="-235.5" font-family="Helvetica,sans-Serif" font-size="10.00" fill="#000000">OutputList.h</text>
</a>
</g>
</g>
<!-- Node0&#45;&gt;Node25 -->
<g id="edge31" class="edge">
<title>Node0&#45;&gt;Node25</title>
<path fill="none" stroke="#191970" d="M631.3351,-285.4806C685.0698,-277.1667 762.5542,-264.5155 839.3154,-249.0772"/>
<polygon fill="#191970" stroke="#191970" points="840.0538,-252.4988 849.1587,-247.0811 838.6626,-245.6384 840.0538,-252.4988"/>
</g>
<!-- Node26 -->
<g id="node27" class="node">
<title>Node26</title>
<g id="a_node27"><a xlink:href="ServoList_8h.html" target="_top" xlink:title="ServoList.h">
<polygon fill="#ffffff" stroke="#000000" points="937.1705,-228.5 937.1705,-248.5 1003.1815,-248.5 1003.1815,-228.5 937.1705,-228.5"/>
<text text-anchor="middle" x="970.176" y="-235.5" font-family="Helvetica,sans-Serif" font-size="10.00" fill="#000000">ServoList.h</text>
</a>
</g>
</g>
<!-- Node0&#45;&gt;Node26 -->
<g id="edge32" class="edge">
<title>Node0&#45;&gt;Node26</title>
<path fill="none" stroke="#191970" d="M647.0133,-287.7298C718.6886,-280.3613 825.2488,-267.8654 926.6704,-249.119"/>
<polygon fill="#191970" stroke="#191970" points="927.5987,-252.5061 936.7837,-247.2255 926.3104,-245.6257 927.5987,-252.5061"/>
</g>
<!-- Node27 -->
<g id="node28" class="node">
<title>Node27</title>
<g id="a_node28"><a xlink:href="IOFactory_8h.html" target="_top" xlink:title="IOFactory.h">
<polygon fill="#ffffff" stroke="#000000" points="569.0605,-228.5 569.0605,-248.5 637.2915,-248.5 637.2915,-228.5 569.0605,-228.5"/>
<text text-anchor="middle" x="603.176" y="-235.5" font-family="Helvetica,sans-Serif" font-size="10.00" fill="#000000">IOFactory.h</text>
</a>
</g>
</g>
<!-- Node0&#45;&gt;Node27 -->
<g id="edge33" class="edge">
<title>Node0&#45;&gt;Node27</title>
<path fill="none" stroke="#191970" d="M571.1484,-285.3095C576.5279,-277.4472 584.1134,-266.3608 590.5518,-256.9507"/>
<polygon fill="#191970" stroke="#191970" points="593.5056,-258.8317 596.2639,-248.6022 587.7285,-254.8789 593.5056,-258.8317"/>
</g>
<!-- Node28 -->
<g id="node29" class="node">
<title>Node28</title>
<polygon fill="#ffffff" stroke="#bfbfbf" points="1121.564,-228.5 1121.564,-248.5 1164.788,-248.5 1164.788,-228.5 1121.564,-228.5"/>
<text text-anchor="middle" x="1143.176" y="-235.5" font-family="Helvetica,sans-Serif" font-size="10.00" fill="#000000">time.h</text>
</g>
<!-- Node0&#45;&gt;Node28 -->
<g id="edge37" class="edge">
<title>Node0&#45;&gt;Node28</title>
<path fill="none" stroke="#191970" d="M647.0345,-290.9303C773.3617,-283.5611 1009.3216,-268.1149 1111.3179,-248.6454"/>
<polygon fill="#191970" stroke="#191970" points="1112.2312,-252.0318 1121.3428,-246.6253 1110.8484,-245.1697 1112.2312,-252.0318"/>
</g>
<!-- Node2 -->
<g id="node3" class="node">
<title>Node2</title>
<polygon fill="#ffffff" stroke="#bfbfbf" points="593.563,-114.5 593.563,-134.5 636.789,-134.5 636.789,-114.5 593.563,-114.5"/>
<text text-anchor="middle" x="615.176" y="-121.5" font-family="Helvetica,sans-Serif" font-size="10.00" fill="#000000">vector</text>
</g>
<!-- Node1&#45;&gt;Node2 -->
<g id="edge2" class="edge">
<title>Node1&#45;&gt;Node2</title>
<path fill="none" stroke="#191970" d="M554.4057,-171.3095C565.3496,-162.8798 581.105,-150.7439 593.8309,-140.9415"/>
<polygon fill="#191970" stroke="#191970" points="596.2744,-143.4773 602.0608,-134.6022 592.0027,-137.9318 596.2744,-143.4773"/>
</g>
<!-- Node3 -->
<g id="node4" class="node">
<title>Node3</title>
<g id="a_node4"><a xlink:href="BluetoothInterface_8h.html" target="_top" xlink:title="BluetoothInterface.h">
<polygon fill="#ffffff" stroke="#000000" points="470.4355,-114.5 470.4355,-134.5 575.9165,-134.5 575.9165,-114.5 470.4355,-114.5"/>
<text text-anchor="middle" x="523.176" y="-121.5" font-family="Helvetica,sans-Serif" font-size="10.00" fill="#000000">BluetoothInterface.h</text>
</a>
</g>
</g>
<!-- Node1&#45;&gt;Node3 -->
<g id="edge3" class="edge">
<title>Node1&#45;&gt;Node3</title>
<path fill="none" stroke="#191970" d="M537.958,-171.3095C535.6031,-163.8524 532.3324,-153.4951 529.4661,-144.4186"/>
<polygon fill="#191970" stroke="#191970" points="532.7151,-143.0841 526.3662,-134.6022 526.04,-145.192 532.7151,-143.0841"/>
</g>
<!-- Node1&#45;&gt;Node6 -->
<g id="edge6" class="edge">
<title>Node1&#45;&gt;Node6</title>
<path fill="none" stroke="#191970" d="M578.0599,-171.4408C613.0215,-161.9058 665.6783,-147.5448 703.538,-137.2195"/>
<polygon fill="#191970" stroke="#191970" points="704.5832,-140.5623 713.3099,-134.5544 702.7413,-133.809 704.5832,-140.5623"/>
</g>
<!-- Node7 -->
<g id="node8" class="node">
<title>Node7</title>
<g id="a_node8"><a xlink:href="UserLED_8h.html" target="_top" xlink:title="UserLED.h">
<polygon fill="#ffffff" stroke="#000000" points="387.73,-114.5 387.73,-134.5 452.622,-134.5 452.622,-114.5 387.73,-114.5"/>
<text text-anchor="middle" x="420.176" y="-121.5" font-family="Helvetica,sans-Serif" font-size="10.00" fill="#000000">UserLED.h</text>
</a>
</g>
</g>
<!-- Node1&#45;&gt;Node7 -->
<g id="edge8" class="edge">
<title>Node1&#45;&gt;Node7</title>
<path fill="none" stroke="#191970" d="M519.8222,-171.4408C500.6739,-162.4205 472.3573,-149.0813 450.7987,-138.9255"/>
<polygon fill="#191970" stroke="#191970" points="452.2614,-135.7458 441.7234,-134.6504 449.2783,-142.0783 452.2614,-135.7458"/>
</g>
<!-- Node3&#45;&gt;Node4 -->
<g id="edge4" class="edge">
<title>Node3&#45;&gt;Node4</title>
<path fill="none" stroke="#191970" d="M523.176,-114.3095C523.176,-106.9335 523.176,-96.72 523.176,-87.715"/>
<polygon fill="#191970" stroke="#191970" points="526.6761,-87.6022 523.176,-77.6022 519.6761,-87.6023 526.6761,-87.6022"/>
</g>
<!-- Node5 -->
<g id="node6" class="node">
<title>Node5</title>
<polygon fill="#ffffff" stroke="#bfbfbf" points="458.9535,-.5 458.9535,-20.5 499.3985,-20.5 499.3985,-.5 458.9535,-.5"/>
<text text-anchor="middle" x="479.176" y="-7.5" font-family="Helvetica,sans-Serif" font-size="10.00" fill="#000000">string</text>
</g>
<!-- Node4&#45;&gt;Node5 -->
<g id="edge5" class="edge">
<title>Node4&#45;&gt;Node5</title>
<path fill="none" stroke="#191970" d="M515.3097,-57.3095C509.1779,-49.3661 500.5059,-38.1319 493.1944,-28.6602"/>
<polygon fill="#191970" stroke="#191970" points="495.8553,-26.3795 486.9742,-20.6022 490.3142,-30.6569 495.8553,-26.3795"/>
</g>
<!-- Node6&#45;&gt;Node5 -->
<g id="edge7" class="edge">
<title>Node6&#45;&gt;Node5</title>
<path fill="none" stroke="#191970" d="M726.1266,-114.3833C676.4935,-93.5044 562.8486,-45.6981 508.7931,-22.9589"/>
<polygon fill="#191970" stroke="#191970" points="509.9969,-19.6682 499.4221,-19.0168 507.2826,-26.1206 509.9969,-19.6682"/>
</g>
<!-- Node7&#45;&gt;Node5 -->
<g id="edge9" class="edge">
<title>Node7&#45;&gt;Node5</title>
<path fill="none" stroke="#191970" d="M425.4119,-114.3833C435.2275,-95.4174 456.5426,-54.2323 469.1872,-29.8004"/>
<polygon fill="#191970" stroke="#191970" points="472.379,-31.2478 473.8671,-20.7579 466.1623,-28.0303 472.379,-31.2478"/>
</g>
<!-- Node8 -->
<g id="node9" class="node">
<title>Node8</title>
<polygon fill="#ffffff" stroke="#bfbfbf" points="354.509,-57.5 354.509,-77.5 403.843,-77.5 403.843,-57.5 354.509,-57.5"/>
<text text-anchor="middle" x="379.176" y="-64.5" font-family="Helvetica,sans-Serif" font-size="10.00" fill="#000000">fstream</text>
</g>
<!-- Node7&#45;&gt;Node8 -->
<g id="edge10" class="edge">
<title>Node7&#45;&gt;Node8</title>
<path fill="none" stroke="#191970" d="M412.846,-114.3095C407.1906,-106.4472 399.2162,-95.3608 392.4476,-85.9507"/>
<polygon fill="#191970" stroke="#191970" points="395.1232,-83.6765 386.4425,-77.6022 389.4405,-87.7641 395.1232,-83.6765"/>
</g>
<!-- Node16 -->
<g id="node17" class="node">
<title>Node16</title>
<g id="a_node17"><a xlink:href="IOBase_8h.html" target="_top" xlink:title="IOBase.h">
<polygon fill="#ffffff" stroke="#000000" points="94.3345,-171.5 94.3345,-191.5 152.0175,-191.5 152.0175,-171.5 94.3345,-171.5"/>
<text text-anchor="middle" x="123.176" y="-178.5" font-family="Helvetica,sans-Serif" font-size="10.00" fill="#000000">IOBase.h</text>
</a>
</g>
</g>
<!-- Node15&#45;&gt;Node16 -->
<g id="edge18" class="edge">
<title>Node15&#45;&gt;Node16</title>
<path fill="none" stroke="#191970" d="M100.1818,-228.3095C103.9246,-220.6903 109.1547,-210.0435 113.6813,-200.8285"/>
<polygon fill="#191970" stroke="#191970" points="116.9458,-202.121 118.2135,-191.6022 110.663,-199.0346 116.9458,-202.121"/>
</g>
<!-- Node16&#45;&gt;Node5 -->
<g id="edge19" class="edge">
<title>Node16&#45;&gt;Node5</title>
<path fill="none" stroke="#191970" d="M136.9712,-171.4628C156.2161,-157.6737 192.4476,-132.4803 225.176,-114 276.5901,-84.9688 290.537,-79.3786 345.176,-57 380.3347,-42.6 421.7875,-28.667 449.1766,-19.8687"/>
<polygon fill="#191970" stroke="#191970" points="450.4768,-23.1279 458.9427,-16.7578 448.3521,-16.4581 450.4768,-23.1279"/>
</g>
<!-- Node16&#45;&gt;Node8 -->
<g id="edge20" class="edge">
<title>Node16&#45;&gt;Node8</title>
<path fill="none" stroke="#191970" d="M145.8943,-171.3833C191.6282,-151.0174 294.8958,-105.031 347.3341,-81.6796"/>
<polygon fill="#191970" stroke="#191970" points="348.7973,-84.8594 356.5086,-77.5941 345.9496,-78.4648 348.7973,-84.8594"/>
</g>
<!-- Node18 -->
<g id="node19" class="node">
<title>Node18</title>
<polygon fill="#ffffff" stroke="#bfbfbf" points="1071.0595,-114.5 1071.0595,-134.5 1119.2925,-134.5 1119.2925,-114.5 1071.0595,-114.5"/>
<text text-anchor="middle" x="1095.176" y="-121.5" font-family="Helvetica,sans-Serif" font-size="10.00" fill="#000000">stdint.h</text>
</g>
<!-- Node17&#45;&gt;Node18 -->
<g id="edge22" class="edge">
<title>Node17&#45;&gt;Node18</title>
<path fill="none" stroke="#191970" d="M1021.2662,-171.3095C1034.9603,-162.6366 1054.8486,-150.0407 1070.5457,-140.0992"/>
<polygon fill="#191970" stroke="#191970" points="1072.6496,-142.9097 1079.2251,-134.6022 1068.9042,-136.9959 1072.6496,-142.9097"/>
</g>
<!-- Node19 -->
<g id="node20" class="node">
<title>Node19</title>
<polygon fill="#ffffff" stroke="#bfbfbf" points="881.0555,-114.5 881.0555,-134.5 939.2965,-134.5 939.2965,-114.5 881.0555,-114.5"/>
<text text-anchor="middle" x="910.176" y="-121.5" font-family="Helvetica,sans-Serif" font-size="10.00" fill="#000000">pthread.h</text>
</g>
<!-- Node17&#45;&gt;Node19 -->
<g id="edge23" class="edge">
<title>Node17&#45;&gt;Node19</title>
<path fill="none" stroke="#191970" d="M988.1919,-171.3095C973.6019,-162.5556 952.3508,-149.8049 935.7112,-139.8211"/>
<polygon fill="#191970" stroke="#191970" points="937.3888,-136.746 927.0131,-134.6022 933.7872,-142.7485 937.3888,-136.746"/>
</g>
<!-- Node20 -->
<g id="node21" class="node">
<title>Node20</title>
<g id="a_node21"><a xlink:href="LinearConverter_8h.html" target="_top" xlink:title="LinearConverter.h">
<polygon fill="#ffffff" stroke="#000000" points="957.169,-114.5 957.169,-134.5 1053.183,-134.5 1053.183,-114.5 957.169,-114.5"/>
<text text-anchor="middle" x="1005.176" y="-121.5" font-family="Helvetica,sans-Serif" font-size="10.00" fill="#000000">LinearConverter.h</text>
</a>
</g>
</g>
<!-- Node17&#45;&gt;Node20 -->
<g id="edge24" class="edge">
<title>Node17&#45;&gt;Node20</title>
<path fill="none" stroke="#191970" d="M1005.176,-171.3095C1005.176,-163.9335 1005.176,-153.72 1005.176,-144.715"/>
<polygon fill="#191970" stroke="#191970" points="1008.6761,-144.6022 1005.176,-134.6022 1001.6761,-144.6023 1008.6761,-144.6022"/>
</g>
<!-- Node21 -->
<g id="node22" class="node">
<title>Node21</title>
<g id="a_node22"><a xlink:href="Range_8h.html" target="_top" xlink:title="Range.h">
<polygon fill="#ffffff" stroke="#000000" points="978.2795,-57.5 978.2795,-77.5 1032.0725,-77.5 1032.0725,-57.5 978.2795,-57.5"/>
<text text-anchor="middle" x="1005.176" y="-64.5" font-family="Helvetica,sans-Serif" font-size="10.00" fill="#000000">Range.h</text>
</a>
</g>
</g>
<!-- Node20&#45;&gt;Node21 -->
<g id="edge25" class="edge">
<title>Node20&#45;&gt;Node21</title>
<path fill="none" stroke="#191970" d="M1005.176,-114.3095C1005.176,-106.9335 1005.176,-96.72 1005.176,-87.715"/>
<polygon fill="#191970" stroke="#191970" points="1008.6761,-87.6022 1005.176,-77.6022 1001.6761,-87.6023 1008.6761,-87.6022"/>
</g>
<!-- Node22&#45;&gt;Node17 -->
<g id="edge27" class="edge">
<title>Node22&#45;&gt;Node17</title>
<path fill="none" stroke="#191970" d="M1051.9855,-228.3095C1043.7989,-220.1229 1032.117,-208.441 1022.4715,-198.7955"/>
<polygon fill="#191970" stroke="#191970" points="1024.8242,-196.1984 1015.2782,-191.6022 1019.8744,-201.1482 1024.8242,-196.1984"/>
</g>
<!-- Node23&#45;&gt;Node16 -->
<g id="edge29" class="edge">
<title>Node23&#45;&gt;Node16</title>
<path fill="none" stroke="#191970" d="M44.3389,-228.3095C59.0824,-219.5556 80.5572,-206.8049 97.372,-196.8211"/>
<polygon fill="#191970" stroke="#191970" points="99.3501,-199.7172 106.1617,-191.6022 95.7762,-193.6982 99.3501,-199.7172"/>
</g>
<!-- Node27&#45;&gt;Node1 -->
<g id="edge34" class="edge">
<title>Node27&#45;&gt;Node1</title>
<path fill="none" stroke="#191970" d="M592.0916,-228.3095C583.0988,-220.0419 570.2282,-208.2093 559.6776,-198.5096"/>
<polygon fill="#191970" stroke="#191970" points="561.8949,-195.7937 552.1644,-191.6022 557.1573,-200.9469 561.8949,-195.7937"/>
</g>
</g>
</svg>
