<?xml version="1.0" encoding="UTF-8" standalone="no"?>
<!DOCTYPE svg PUBLIC "-//W3C//DTD SVG 1.1//EN"
 "http://www.w3.org/Graphics/SVG/1.1/DTD/svg11.dtd">
<!-- Generated by graphviz version 2.40.1 (20161225.0304)
 -->
<!-- Title: BoeingSurfaceVehicleControl.cpp Pages: 1 -->
<svg width="1496pt" height="314pt"
 viewBox="0.00 0.00 1495.79 314.00" xmlns="http://www.w3.org/2000/svg" xmlns:xlink="http://www.w3.org/1999/xlink">
<g id="graph0" class="graph" transform="scale(1 1) rotate(0) translate(4 310)">
<title>BoeingSurfaceVehicleControl.cpp</title>
<polygon fill="#ffffff" stroke="transparent" points="-4,4 -4,-310 1491.792,-310 1491.792,4 -4,4"/>
<!-- Node0 -->
<g id="node1" class="node">
<title>Node0</title>
<polygon fill="#bfbfbf" stroke="#000000" points="624.8835,-285.5 624.8835,-305.5 790.3655,-305.5 790.3655,-285.5 624.8835,-285.5"/>
<text text-anchor="middle" x="707.6245" y="-292.5" font-family="Helvetica,sans-Serif" font-size="10.00" fill="#000000">BoeingSurfaceVehicleControl.cpp</text>
</g>
<!-- Node1 -->
<g id="node2" class="node">
<title>Node1</title>
<g id="a_node2"><a xlink:href="BoeingSurfaceVehicleControl_8h.html" target="_top" xlink:title="BoeingSurfaceVehicleControl.h">
<polygon fill="#ffffff" stroke="#000000" points="75.163,-171.5 75.163,-191.5 230.086,-191.5 230.086,-171.5 75.163,-171.5"/>
<text text-anchor="middle" x="152.6245" y="-178.5" font-family="Helvetica,sans-Serif" font-size="10.00" fill="#000000">BoeingSurfaceVehicleControl.h</text>
</a>
</g>
</g>
<!-- Node0&#45;&gt;Node1 -->
<g id="edge1" class="edge">
<title>Node0&#45;&gt;Node1</title>
<path fill="none" stroke="#191970" d="M624.6728,-292.4647C455.382,-285.8661 84.3908,-269.1747 65.6245,-249 45.7419,-227.6252 80.5344,-207.7333 111.8494,-195.1606"/>
<polygon fill="#191970" stroke="#191970" points="113.3087,-198.3496 121.3918,-191.5002 110.8016,-191.8139 113.3087,-198.3496"/>
</g>
<!-- Node4 -->
<g id="node5" class="node">
<title>Node4</title>
<g id="a_node5"><a xlink:href="BluetoothManager_8h.html" target="_top" xlink:title="BluetoothManager.h">
<polygon fill="#ffffff" stroke="#000000" points="403.6085,-57.5 403.6085,-77.5 509.6405,-77.5 509.6405,-57.5 403.6085,-57.5"/>
<text text-anchor="middle" x="456.6245" y="-64.5" font-family="Helvetica,sans-Serif" font-size="10.00" fill="#000000">BluetoothManager.h</text>
</a>
</g>
</g>
<!-- Node0&#45;&gt;Node4 -->
<g id="edge37" class="edge">
<title>Node0&#45;&gt;Node4</title>
<path fill="none" stroke="#191970" d="M656.693,-285.4674C616.1185,-276.638 563.4282,-263.0337 546.6245,-249 494.7596,-205.6846 470.0518,-125.1579 460.9509,-87.6698"/>
<polygon fill="#191970" stroke="#191970" points="464.266,-86.4679 458.6147,-77.5061 457.4439,-88.0361 464.266,-86.4679"/>
</g>
<!-- Node6 -->
<g id="node7" class="node">
<title>Node6</title>
<polygon fill="#ffffff" stroke="#bfbfbf" points="487.0125,-.5 487.0125,-20.5 530.2365,-20.5 530.2365,-.5 487.0125,-.5"/>
<text text-anchor="middle" x="508.6245" y="-7.5" font-family="Helvetica,sans-Serif" font-size="10.00" fill="#000000">time.h</text>
</g>
<!-- Node0&#45;&gt;Node6 -->
<g id="edge40" class="edge">
<title>Node0&#45;&gt;Node6</title>
<path fill="none" stroke="#191970" d="M645.5099,-285.4201C622.0238,-278.7036 596.8384,-267.5386 579.6245,-249 558.4181,-226.1615 560.6245,-212.6658 560.6245,-181.5 560.6245,-181.5 560.6245,-181.5 560.6245,-124.5 560.6245,-88.1446 538.4626,-50.6715 523.0749,-29.0344"/>
<polygon fill="#191970" stroke="#191970" points="525.7353,-26.7452 516.9792,-20.7803 520.1044,-30.9037 525.7353,-26.7452"/>
</g>
<!-- Node7 -->
<g id="node8" class="node">
<title>Node7</title>
<g id="a_node8"><a xlink:href="BluetoothDefinitions_8h.html" target="_top" xlink:title="BluetoothDefinitions.h">
<polygon fill="#ffffff" stroke="#000000" points="0,-114.5 0,-134.5 113.249,-134.5 113.249,-114.5 0,-114.5"/>
<text text-anchor="middle" x="56.6245" y="-121.5" font-family="Helvetica,sans-Serif" font-size="10.00" fill="#000000">BluetoothDefinitions.h</text>
</a>
</g>
</g>
<!-- Node0&#45;&gt;Node7 -->
<g id="edge36" class="edge">
<title>Node0&#45;&gt;Node7</title>
<path fill="none" stroke="#191970" d="M624.8127,-292.557C453.7594,-286.0747 75.711,-269.4984 56.6245,-249 30.358,-220.7904 40.6857,-171.4693 49.3706,-144.1375"/>
<polygon fill="#191970" stroke="#191970" points="52.7366,-145.1109 52.6529,-134.5164 46.1115,-142.8506 52.7366,-145.1109"/>
</g>
<!-- Node9 -->
<g id="node10" class="node">
<title>Node9</title>
<polygon fill="#ffffff" stroke="#bfbfbf" points="312.9575,-57.5 312.9575,-77.5 362.2915,-77.5 362.2915,-57.5 312.9575,-57.5"/>
<text text-anchor="middle" x="337.6245" y="-64.5" font-family="Helvetica,sans-Serif" font-size="10.00" fill="#000000">fstream</text>
</g>
<!-- Node0&#45;&gt;Node9 -->
<g id="edge42" class="edge">
<title>Node0&#45;&gt;Node9</title>
<path fill="none" stroke="#191970" d="M630.932,-285.4934C602.2719,-278.7974 570.8366,-267.6276 546.6245,-249 491.1668,-206.3334 519.6156,-158.5079 465.6245,-114 438.6901,-91.7964 400.2499,-79.7372 372.5334,-73.5065"/>
<polygon fill="#191970" stroke="#191970" points="372.9882,-70.0257 362.4822,-71.3949 371.549,-76.8762 372.9882,-70.0257"/>
</g>
<!-- Node10 -->
<g id="node11" class="node">
<title>Node10</title>
<polygon fill="#ffffff" stroke="#bfbfbf" points="588.2875,-228.5 588.2875,-248.5 630.9615,-248.5 630.9615,-228.5 588.2875,-228.5"/>
<text text-anchor="middle" x="609.6245" y="-235.5" font-family="Helvetica,sans-Serif" font-size="10.00" fill="#000000">fcntl.h</text>
</g>
<!-- Node0&#45;&gt;Node10 -->
<g id="edge12" class="edge">
<title>Node0&#45;&gt;Node10</title>
<path fill="none" stroke="#191970" d="M690.1041,-285.3095C675.0533,-276.5556 653.1312,-263.8049 635.9661,-253.8211"/>
<polygon fill="#191970" stroke="#191970" points="637.3972,-250.6046 626.9933,-248.6022 633.8777,-256.6555 637.3972,-250.6046"/>
</g>
<!-- Node11 -->
<g id="node12" class="node">
<title>Node11</title>
<polygon fill="#ffffff" stroke="#bfbfbf" points="649.398,-228.5 649.398,-248.5 699.851,-248.5 699.851,-228.5 649.398,-228.5"/>
<text text-anchor="middle" x="674.6245" y="-235.5" font-family="Helvetica,sans-Serif" font-size="10.00" fill="#000000">signal.h</text>
</g>
<!-- Node0&#45;&gt;Node11 -->
<g id="edge13" class="edge">
<title>Node0&#45;&gt;Node11</title>
<path fill="none" stroke="#191970" d="M701.7248,-285.3095C697.2667,-277.6093 691.0183,-266.8166 685.6447,-257.5349"/>
<polygon fill="#191970" stroke="#191970" points="688.5126,-255.5029 680.4732,-248.6022 682.4546,-259.0102 688.5126,-255.5029"/>
</g>
<!-- Node12 -->
<g id="node13" class="node">
<title>Node12</title>
<polygon fill="#ffffff" stroke="#bfbfbf" points="717.788,-228.5 717.788,-248.5 765.461,-248.5 765.461,-228.5 717.788,-228.5"/>
<text text-anchor="middle" x="741.6245" y="-235.5" font-family="Helvetica,sans-Serif" font-size="10.00" fill="#000000">stdlib.h</text>
</g>
<!-- Node0&#45;&gt;Node12 -->
<g id="edge14" class="edge">
<title>Node0&#45;&gt;Node12</title>
<path fill="none" stroke="#191970" d="M713.703,-285.3095C718.3445,-277.5282 724.8696,-266.589 730.4449,-257.2423"/>
<polygon fill="#191970" stroke="#191970" points="733.4816,-258.9834 735.5986,-248.6022 727.4699,-255.3975 733.4816,-258.9834"/>
</g>
<!-- Node13 -->
<g id="node14" class="node">
<title>Node13</title>
<polygon fill="#ffffff" stroke="#bfbfbf" points="783.8975,-228.5 783.8975,-248.5 829.3515,-248.5 829.3515,-228.5 783.8975,-228.5"/>
<text text-anchor="middle" x="806.6245" y="-235.5" font-family="Helvetica,sans-Serif" font-size="10.00" fill="#000000">stdio.h</text>
</g>
<!-- Node0&#45;&gt;Node13 -->
<g id="edge15" class="edge">
<title>Node0&#45;&gt;Node13</title>
<path fill="none" stroke="#191970" d="M725.3237,-285.3095C740.528,-276.5556 762.6739,-263.8049 780.0141,-253.8211"/>
<polygon fill="#191970" stroke="#191970" points="782.1587,-256.6251 789.0785,-248.6022 778.6659,-250.5587 782.1587,-256.6251"/>
</g>
<!-- Node14 -->
<g id="node15" class="node">
<title>Node14</title>
<polygon fill="#ffffff" stroke="#bfbfbf" points="847.233,-228.5 847.233,-248.5 896.016,-248.5 896.016,-228.5 847.233,-228.5"/>
<text text-anchor="middle" x="871.6245" y="-235.5" font-family="Helvetica,sans-Serif" font-size="10.00" fill="#000000">string.h</text>
</g>
<!-- Node0&#45;&gt;Node14 -->
<g id="edge16" class="edge">
<title>Node0&#45;&gt;Node14</title>
<path fill="none" stroke="#191970" d="M736.5669,-285.4408C764.739,-275.6492 807.5537,-260.7685 837.4005,-250.3949"/>
<polygon fill="#191970" stroke="#191970" points="838.6887,-253.6526 846.9854,-247.0636 836.3906,-247.0406 838.6887,-253.6526"/>
</g>
<!-- Node15 -->
<g id="node16" class="node">
<title>Node15</title>
<polygon fill="#ffffff" stroke="#bfbfbf" points="914.118,-228.5 914.118,-248.5 965.131,-248.5 965.131,-228.5 914.118,-228.5"/>
<text text-anchor="middle" x="939.6245" y="-235.5" font-family="Helvetica,sans-Serif" font-size="10.00" fill="#000000">unistd.h</text>
</g>
<!-- Node0&#45;&gt;Node15 -->
<g id="edge17" class="edge">
<title>Node0&#45;&gt;Node15</title>
<path fill="none" stroke="#191970" d="M753.5953,-285.4646C791.4547,-277.0164 846.742,-264.2607 904.0898,-249.0291"/>
<polygon fill="#191970" stroke="#191970" points="905.3051,-252.3271 914.0605,-246.3611 903.4956,-245.565 905.3051,-252.3271"/>
</g>
<!-- Node16 -->
<g id="node17" class="node">
<title>Node16</title>
<g id="a_node17"><a xlink:href="Input_8h.html" target="_top" xlink:title="Input.h">
<polygon fill="#ffffff" stroke="#000000" points="410.338,-228.5 410.338,-248.5 456.911,-248.5 456.911,-228.5 410.338,-228.5"/>
<text text-anchor="middle" x="433.6245" y="-235.5" font-family="Helvetica,sans-Serif" font-size="10.00" fill="#000000">Input.h</text>
</a>
</g>
</g>
<!-- Node0&#45;&gt;Node16 -->
<g id="edge18" class="edge">
<title>Node0&#45;&gt;Node16</title>
<path fill="none" stroke="#191970" d="M649.3817,-285.4614C601.228,-276.8296 531.1777,-263.5061 470.6245,-249 469.3826,-248.7025 468.1198,-248.3908 466.8461,-248.0688"/>
<polygon fill="#191970" stroke="#191970" points="467.5992,-244.6475 457.0355,-245.4596 465.7999,-251.4123 467.5992,-244.6475"/>
</g>
<!-- Node18 -->
<g id="node19" class="node">
<title>Node18</title>
<g id="a_node19"><a xlink:href="MotorControl_8h.html" target="_top" xlink:title="MotorControl.h">
<polygon fill="#ffffff" stroke="#000000" points="986.5665,-171.5 986.5665,-191.5 1068.6825,-191.5 1068.6825,-171.5 986.5665,-171.5"/>
<text text-anchor="middle" x="1027.6245" y="-178.5" font-family="Helvetica,sans-Serif" font-size="10.00" fill="#000000">MotorControl.h</text>
</a>
</g>
</g>
<!-- Node0&#45;&gt;Node18 -->
<g id="edge22" class="edge">
<title>Node0&#45;&gt;Node18</title>
<path fill="none" stroke="#191970" d="M790.4716,-287.6109C857.0078,-280.0875 944.1835,-267.1972 974.6245,-249 993.8994,-237.4777 1008.8492,-216.1259 1017.8856,-200.5126"/>
<polygon fill="#191970" stroke="#191970" points="1020.9942,-202.1229 1022.7336,-191.6719 1014.8565,-198.7571 1020.9942,-202.1229"/>
</g>
<!-- Node23 -->
<g id="node24" class="node">
<title>Node23</title>
<g id="a_node24"><a xlink:href="ServoControl_8h.html" target="_top" xlink:title="ServoControl.h">
<polygon fill="#ffffff" stroke="#000000" points="1021.286,-228.5 1021.286,-248.5 1103.963,-248.5 1103.963,-228.5 1021.286,-228.5"/>
<text text-anchor="middle" x="1062.6245" y="-235.5" font-family="Helvetica,sans-Serif" font-size="10.00" fill="#000000">ServoControl.h</text>
</a>
</g>
</g>
<!-- Node0&#45;&gt;Node23 -->
<g id="edge27" class="edge">
<title>Node0&#45;&gt;Node23</title>
<path fill="none" stroke="#191970" d="M776.8465,-285.4702C837.7234,-276.4828 928.6837,-262.6489 1007.6245,-249 1008.7261,-248.8095 1009.8397,-248.615 1010.962,-248.4171"/>
<polygon fill="#191970" stroke="#191970" points="1011.9901,-251.7882 1021.209,-246.5668 1010.7461,-244.8996 1011.9901,-251.7882"/>
</g>
<!-- Node24 -->
<g id="node25" class="node">
<title>Node24</title>
<g id="a_node25"><a xlink:href="Output_8h.html" target="_top" xlink:title="Output.h">
<polygon fill="#ffffff" stroke="#000000" points="338.4485,-228.5 338.4485,-248.5 392.8005,-248.5 392.8005,-228.5 338.4485,-228.5"/>
<text text-anchor="middle" x="365.6245" y="-235.5" font-family="Helvetica,sans-Serif" font-size="10.00" fill="#000000">Output.h</text>
</a>
</g>
</g>
<!-- Node0&#45;&gt;Node24 -->
<g id="edge29" class="edge">
<title>Node0&#45;&gt;Node24</title>
<path fill="none" stroke="#191970" d="M624.6043,-285.9189C565.1561,-278.3539 483.1042,-266.4809 402.8245,-249.0578"/>
<polygon fill="#191970" stroke="#191970" points="403.5633,-245.6367 393.0447,-246.9055 402.0587,-252.4731 403.5633,-245.6367"/>
</g>
<!-- Node25 -->
<g id="node26" class="node">
<title>Node25</title>
<g id="a_node26"><a xlink:href="InputList_8h.html" target="_top" xlink:title="InputList.h">
<polygon fill="#ffffff" stroke="#000000" points="1121.5595,-228.5 1121.5595,-248.5 1183.6895,-248.5 1183.6895,-228.5 1121.5595,-228.5"/>
<text text-anchor="middle" x="1152.6245" y="-235.5" font-family="Helvetica,sans-Serif" font-size="10.00" fill="#000000">InputList.h</text>
</a>
</g>
</g>
<!-- Node0&#45;&gt;Node25 -->
<g id="edge31" class="edge">
<title>Node0&#45;&gt;Node25</title>
<path fill="none" stroke="#191970" d="M790.7498,-289.439C870.6563,-282.8194 994.9169,-270.4496 1111.1372,-249.072"/>
<polygon fill="#191970" stroke="#191970" points="1112.0891,-252.4548 1121.2774,-247.1797 1110.805,-245.5736 1112.0891,-252.4548"/>
</g>
<!-- Node26 -->
<g id="node27" class="node">
<title>Node26</title>
<g id="a_node27"><a xlink:href="OutputList_8h.html" target="_top" xlink:title="OutputList.h">
<polygon fill="#ffffff" stroke="#000000" points="1201.67,-228.5 1201.67,-248.5 1271.579,-248.5 1271.579,-228.5 1201.67,-228.5"/>
<text text-anchor="middle" x="1236.6245" y="-235.5" font-family="Helvetica,sans-Serif" font-size="10.00" fill="#000000">OutputList.h</text>
</a>
</g>
</g>
<!-- Node0&#45;&gt;Node26 -->
<g id="edge32" class="edge">
<title>Node0&#45;&gt;Node26</title>
<path fill="none" stroke="#191970" d="M790.4606,-291.064C885.2026,-285.2001 1045.065,-272.8988 1191.5725,-248.9762"/>
<polygon fill="#191970" stroke="#191970" points="1192.3549,-252.3945 1201.6493,-247.3088 1191.212,-245.4884 1192.3549,-252.3945"/>
</g>
<!-- Node27 -->
<g id="node28" class="node">
<title>Node27</title>
<g id="a_node28"><a xlink:href="ServoList_8h.html" target="_top" xlink:title="ServoList.h">
<polygon fill="#ffffff" stroke="#000000" points="1289.619,-228.5 1289.619,-248.5 1355.63,-248.5 1355.63,-228.5 1289.619,-228.5"/>
<text text-anchor="middle" x="1322.6245" y="-235.5" font-family="Helvetica,sans-Serif" font-size="10.00" fill="#000000">ServoList.h</text>
</a>
</g>
</g>
<!-- Node0&#45;&gt;Node27 -->
<g id="edge33" class="edge">
<title>Node0&#45;&gt;Node27</title>
<path fill="none" stroke="#191970" d="M790.6962,-293.0286C900.5528,-288.8076 1100.2046,-277.8379 1279.1319,-249.0201"/>
<polygon fill="#191970" stroke="#191970" points="1279.952,-252.4326 1289.2571,-247.3665 1278.8237,-245.5242 1279.952,-252.4326"/>
</g>
<!-- Node28 -->
<g id="node29" class="node">
<title>Node28</title>
<g id="a_node29"><a xlink:href="IOFactory_8h.html" target="_top" xlink:title="IOFactory.h">
<polygon fill="#ffffff" stroke="#000000" points="74.509,-228.5 74.509,-248.5 142.74,-248.5 142.74,-228.5 74.509,-228.5"/>
<text text-anchor="middle" x="108.6245" y="-235.5" font-family="Helvetica,sans-Serif" font-size="10.00" fill="#000000">IOFactory.h</text>
</a>
</g>
</g>
<!-- Node0&#45;&gt;Node28 -->
<g id="edge34" class="edge">
<title>Node0&#45;&gt;Node28</title>
<path fill="none" stroke="#191970" d="M624.7058,-292.6044C517.6958,-287.9644 325.7021,-276.5801 152.8382,-248.9791"/>
<polygon fill="#191970" stroke="#191970" points="153.2241,-245.4961 142.7933,-247.3533 152.1056,-252.4062 153.2241,-245.4961"/>
</g>
<!-- Node29 -->
<g id="node30" class="node">
<title>Node29</title>
<g id="a_node30"><a xlink:href="CommunicationProtocolParser_8h.html" target="_top" xlink:title="CommunicationProtocolParser.h">
<polygon fill="#ffffff" stroke="#000000" points="160.6725,-228.5 160.6725,-248.5 320.5765,-248.5 320.5765,-228.5 160.6725,-228.5"/>
<text text-anchor="middle" x="240.6245" y="-235.5" font-family="Helvetica,sans-Serif" font-size="10.00" fill="#000000">CommunicationProtocolParser.h</text>
</a>
</g>
</g>
<!-- Node0&#45;&gt;Node29 -->
<g id="edge38" class="edge">
<title>Node0&#45;&gt;Node29</title>
<path fill="none" stroke="#191970" d="M625.4772,-285.4735C542.9028,-275.3948 415.9554,-259.9001 330.6791,-249.4917"/>
<polygon fill="#191970" stroke="#191970" points="331.1016,-246.0173 320.7511,-248.2799 330.2534,-252.9658 331.1016,-246.0173"/>
</g>
<!-- Node30 -->
<g id="node31" class="node">
<title>Node30</title>
<polygon fill="#ffffff" stroke="#bfbfbf" points="1373.847,-228.5 1373.847,-248.5 1425.402,-248.5 1425.402,-228.5 1373.847,-228.5"/>
<text text-anchor="middle" x="1399.6245" y="-235.5" font-family="Helvetica,sans-Serif" font-size="10.00" fill="#000000">sstream</text>
</g>
<!-- Node0&#45;&gt;Node30 -->
<g id="edge41" class="edge">
<title>Node0&#45;&gt;Node30</title>
<path fill="none" stroke="#191970" d="M790.6254,-291.9137C937.7574,-285.1865 1239.6873,-269.6233 1363.7524,-248.7205"/>
<polygon fill="#191970" stroke="#191970" points="1364.5494,-252.1339 1373.7866,-246.9451 1363.3297,-245.241 1364.5494,-252.1339"/>
</g>
<!-- Node31 -->
<g id="node32" class="node">
<title>Node31</title>
<polygon fill="#ffffff" stroke="#bfbfbf" points="1443.457,-228.5 1443.457,-248.5 1487.792,-248.5 1487.792,-228.5 1443.457,-228.5"/>
<text text-anchor="middle" x="1465.6245" y="-235.5" font-family="Helvetica,sans-Serif" font-size="10.00" fill="#000000">iosfwd</text>
</g>
<!-- Node0&#45;&gt;Node31 -->
<g id="edge43" class="edge">
<title>Node0&#45;&gt;Node31</title>
<path fill="none" stroke="#191970" d="M790.5511,-292.9335C950.2427,-287.5517 1296.075,-273.6528 1433.2261,-248.7727"/>
<polygon fill="#191970" stroke="#191970" points="1433.9577,-252.1964 1443.1245,-246.8842 1432.6457,-245.3204 1433.9577,-252.1964"/>
</g>
<!-- Node2 -->
<g id="node3" class="node">
<title>Node2</title>
<polygon fill="#ffffff" stroke="#bfbfbf" points="131.0115,-114.5 131.0115,-134.5 174.2375,-134.5 174.2375,-114.5 131.0115,-114.5"/>
<text text-anchor="middle" x="152.6245" y="-121.5" font-family="Helvetica,sans-Serif" font-size="10.00" fill="#000000">vector</text>
</g>
<!-- Node1&#45;&gt;Node2 -->
<g id="edge2" class="edge">
<title>Node1&#45;&gt;Node2</title>
<path fill="none" stroke="#191970" d="M152.6245,-171.3095C152.6245,-163.9335 152.6245,-153.72 152.6245,-144.715"/>
<polygon fill="#191970" stroke="#191970" points="156.1246,-144.6022 152.6245,-134.6022 149.1246,-144.6023 156.1246,-144.6022"/>
</g>
<!-- Node3 -->
<g id="node4" class="node">
<title>Node3</title>
<g id="a_node4"><a xlink:href="BluetoothInterface_8h.html" target="_top" xlink:title="BluetoothInterface.h">
<polygon fill="#ffffff" stroke="#000000" points="350.884,-114.5 350.884,-134.5 456.365,-134.5 456.365,-114.5 350.884,-114.5"/>
<text text-anchor="middle" x="403.6245" y="-121.5" font-family="Helvetica,sans-Serif" font-size="10.00" fill="#000000">BluetoothInterface.h</text>
</a>
</g>
</g>
<!-- Node1&#45;&gt;Node3 -->
<g id="edge3" class="edge">
<title>Node1&#45;&gt;Node3</title>
<path fill="none" stroke="#191970" d="M196.9205,-171.4408C239.4438,-161.7841 303.7645,-147.1774 349.3468,-136.826"/>
<polygon fill="#191970" stroke="#191970" points="350.3733,-140.1821 359.3499,-134.5544 348.8231,-133.3559 350.3733,-140.1821"/>
</g>
<!-- Node1&#45;&gt;Node7 -->
<g id="edge7" class="edge">
<title>Node1&#45;&gt;Node7</title>
<path fill="none" stroke="#191970" d="M135.4616,-171.3095C120.7181,-162.5556 99.2433,-149.8049 82.4285,-139.8211"/>
<polygon fill="#191970" stroke="#191970" points="84.0243,-136.6982 73.6388,-134.6022 80.4504,-142.7172 84.0243,-136.6982"/>
</g>
<!-- Node8 -->
<g id="node9" class="node">
<title>Node8</title>
<g id="a_node9"><a xlink:href="UserLED_8h.html" target="_top" xlink:title="UserLED.h">
<polygon fill="#ffffff" stroke="#000000" points="192.1785,-114.5 192.1785,-134.5 257.0705,-134.5 257.0705,-114.5 192.1785,-114.5"/>
<text text-anchor="middle" x="224.6245" y="-121.5" font-family="Helvetica,sans-Serif" font-size="10.00" fill="#000000">UserLED.h</text>
</a>
</g>
</g>
<!-- Node1&#45;&gt;Node8 -->
<g id="edge9" class="edge">
<title>Node1&#45;&gt;Node8</title>
<path fill="none" stroke="#191970" d="M165.4967,-171.3095C176.1448,-162.8798 191.4743,-150.7439 203.8563,-140.9415"/>
<polygon fill="#191970" stroke="#191970" points="206.1958,-143.5535 211.8638,-134.6022 201.8508,-138.0651 206.1958,-143.5535"/>
</g>
<!-- Node3&#45;&gt;Node4 -->
<g id="edge4" class="edge">
<title>Node3&#45;&gt;Node4</title>
<path fill="none" stroke="#191970" d="M413.0998,-114.3095C420.6366,-106.204 431.3594,-94.672 440.2758,-85.0826"/>
<polygon fill="#191970" stroke="#191970" points="442.9849,-87.3089 447.2312,-77.6022 437.8585,-82.5423 442.9849,-87.3089"/>
</g>
<!-- Node5 -->
<g id="node6" class="node">
<title>Node5</title>
<polygon fill="#ffffff" stroke="#bfbfbf" points="240.402,-.5 240.402,-20.5 280.847,-20.5 280.847,-.5 240.402,-.5"/>
<text text-anchor="middle" x="260.6245" y="-7.5" font-family="Helvetica,sans-Serif" font-size="10.00" fill="#000000">string</text>
</g>
<!-- Node4&#45;&gt;Node5 -->
<g id="edge5" class="edge">
<title>Node4&#45;&gt;Node5</title>
<path fill="none" stroke="#191970" d="M422.0348,-57.4408C384.8258,-46.6198 326.2439,-29.5832 290.8277,-19.2836"/>
<polygon fill="#191970" stroke="#191970" points="291.6392,-15.8746 281.0596,-16.4429 289.6844,-22.5962 291.6392,-15.8746"/>
</g>
<!-- Node4&#45;&gt;Node6 -->
<g id="edge6" class="edge">
<title>Node4&#45;&gt;Node6</title>
<path fill="none" stroke="#191970" d="M465.9211,-57.3095C473.3156,-49.204 483.8361,-37.672 492.5843,-28.0826"/>
<polygon fill="#191970" stroke="#191970" points="495.2545,-30.3488 499.4084,-20.6022 490.0831,-25.631 495.2545,-30.3488"/>
</g>
<!-- Node7&#45;&gt;Node5 -->
<g id="edge8" class="edge">
<title>Node7&#45;&gt;Node5</title>
<path fill="none" stroke="#191970" d="M74.7281,-114.3833C110.7187,-94.2709 191.4221,-49.1719 233.6713,-25.5621"/>
<polygon fill="#191970" stroke="#191970" points="235.5394,-28.5276 242.5614,-20.5941 232.1246,-22.417 235.5394,-28.5276"/>
</g>
<!-- Node8&#45;&gt;Node5 -->
<g id="edge10" class="edge">
<title>Node8&#45;&gt;Node5</title>
<path fill="none" stroke="#191970" d="M227.8193,-114.3833C233.7552,-95.586 246.5836,-54.9627 254.3226,-30.4559"/>
<polygon fill="#191970" stroke="#191970" points="257.7113,-31.3478 257.3852,-20.7579 251.0362,-29.2398 257.7113,-31.3478"/>
</g>
<!-- Node8&#45;&gt;Node9 -->
<g id="edge11" class="edge">
<title>Node8&#45;&gt;Node9</title>
<path fill="none" stroke="#191970" d="M244.5665,-114.4408C262.2884,-105.5014 288.4196,-92.3202 308.4833,-82.1996"/>
<polygon fill="#191970" stroke="#191970" points="310.1496,-85.2791 317.5017,-77.6504 306.997,-79.0292 310.1496,-85.2791"/>
</g>
<!-- Node17 -->
<g id="node18" class="node">
<title>Node17</title>
<g id="a_node18"><a xlink:href="IOBase_8h.html" target="_top" xlink:title="IOBase.h">
<polygon fill="#ffffff" stroke="#000000" points="314.783,-171.5 314.783,-191.5 372.466,-191.5 372.466,-171.5 314.783,-171.5"/>
<text text-anchor="middle" x="343.6245" y="-178.5" font-family="Helvetica,sans-Serif" font-size="10.00" fill="#000000">IOBase.h</text>
</a>
</g>
</g>
<!-- Node16&#45;&gt;Node17 -->
<g id="edge19" class="edge">
<title>Node16&#45;&gt;Node17</title>
<path fill="none" stroke="#191970" d="M417.5343,-228.3095C403.8402,-219.6366 383.9519,-207.0407 368.2548,-197.0992"/>
<polygon fill="#191970" stroke="#191970" points="369.8963,-193.9959 359.5754,-191.6022 366.1509,-199.9097 369.8963,-193.9959"/>
</g>
<!-- Node17&#45;&gt;Node5 -->
<g id="edge20" class="edge">
<title>Node17&#45;&gt;Node5</title>
<path fill="none" stroke="#191970" d="M338.681,-171.3153C325.2192,-143.5807 287.737,-66.3583 270.0686,-29.9571"/>
<polygon fill="#191970" stroke="#191970" points="273.1624,-28.3155 265.647,-20.8476 266.865,-31.3722 273.1624,-28.3155"/>
</g>
<!-- Node17&#45;&gt;Node9 -->
<g id="edge21" class="edge">
<title>Node17&#45;&gt;Node9</title>
<path fill="none" stroke="#191970" d="M343.092,-171.3833C342.1071,-152.6703 339.9838,-112.3266 338.6922,-87.7866"/>
<polygon fill="#191970" stroke="#191970" points="342.1852,-87.5601 338.1644,-77.7579 335.1949,-87.9281 342.1852,-87.5601"/>
</g>
<!-- Node19 -->
<g id="node20" class="node">
<title>Node19</title>
<polygon fill="#ffffff" stroke="#bfbfbf" points="932.508,-114.5 932.508,-134.5 980.741,-134.5 980.741,-114.5 932.508,-114.5"/>
<text text-anchor="middle" x="956.6245" y="-121.5" font-family="Helvetica,sans-Serif" font-size="10.00" fill="#000000">stdint.h</text>
</g>
<!-- Node18&#45;&gt;Node19 -->
<g id="edge23" class="edge">
<title>Node18&#45;&gt;Node19</title>
<path fill="none" stroke="#191970" d="M1014.9311,-171.3095C1004.4309,-162.8798 989.3143,-150.7439 977.1043,-140.9415"/>
<polygon fill="#191970" stroke="#191970" points="979.1971,-138.1333 969.208,-134.6022 974.8148,-143.5919 979.1971,-138.1333"/>
</g>
<!-- Node20 -->
<g id="node21" class="node">
<title>Node20</title>
<polygon fill="#ffffff" stroke="#bfbfbf" points="998.504,-114.5 998.504,-134.5 1056.745,-134.5 1056.745,-114.5 998.504,-114.5"/>
<text text-anchor="middle" x="1027.6245" y="-121.5" font-family="Helvetica,sans-Serif" font-size="10.00" fill="#000000">pthread.h</text>
</g>
<!-- Node18&#45;&gt;Node20 -->
<g id="edge24" class="edge">
<title>Node18&#45;&gt;Node20</title>
<path fill="none" stroke="#191970" d="M1027.6245,-171.3095C1027.6245,-163.9335 1027.6245,-153.72 1027.6245,-144.715"/>
<polygon fill="#191970" stroke="#191970" points="1031.1246,-144.6022 1027.6245,-134.6022 1024.1246,-144.6023 1031.1246,-144.6022"/>
</g>
<!-- Node21 -->
<g id="node22" class="node">
<title>Node21</title>
<g id="a_node22"><a xlink:href="LinearConverter_8h.html" target="_top" xlink:title="LinearConverter.h">
<polygon fill="#ffffff" stroke="#000000" points="1074.6175,-114.5 1074.6175,-134.5 1170.6315,-134.5 1170.6315,-114.5 1074.6175,-114.5"/>
<text text-anchor="middle" x="1122.6245" y="-121.5" font-family="Helvetica,sans-Serif" font-size="10.00" fill="#000000">LinearConverter.h</text>
</a>
</g>
</g>
<!-- Node18&#45;&gt;Node21 -->
<g id="edge25" class="edge">
<title>Node18&#45;&gt;Node21</title>
<path fill="none" stroke="#191970" d="M1044.6086,-171.3095C1059.1986,-162.5556 1080.4497,-149.8049 1097.0893,-139.8211"/>
<polygon fill="#191970" stroke="#191970" points="1099.0133,-142.7485 1105.7874,-134.6022 1095.4117,-136.746 1099.0133,-142.7485"/>
</g>
<!-- Node22 -->
<g id="node23" class="node">
<title>Node22</title>
<g id="a_node23"><a xlink:href="Range_8h.html" target="_top" xlink:title="Range.h">
<polygon fill="#ffffff" stroke="#000000" points="1095.728,-57.5 1095.728,-77.5 1149.521,-77.5 1149.521,-57.5 1095.728,-57.5"/>
<text text-anchor="middle" x="1122.6245" y="-64.5" font-family="Helvetica,sans-Serif" font-size="10.00" fill="#000000">Range.h</text>
</a>
</g>
</g>
<!-- Node21&#45;&gt;Node22 -->
<g id="edge26" class="edge">
<title>Node21&#45;&gt;Node22</title>
<path fill="none" stroke="#191970" d="M1122.6245,-114.3095C1122.6245,-106.9335 1122.6245,-96.72 1122.6245,-87.715"/>
<polygon fill="#191970" stroke="#191970" points="1126.1246,-87.6022 1122.6245,-77.6022 1119.1246,-87.6023 1126.1246,-87.6022"/>
</g>
<!-- Node23&#45;&gt;Node18 -->
<g id="edge28" class="edge">
<title>Node23&#45;&gt;Node18</title>
<path fill="none" stroke="#191970" d="M1056.3672,-228.3095C1051.5892,-220.5282 1044.8722,-209.589 1039.1329,-200.2423"/>
<polygon fill="#191970" stroke="#191970" points="1042.0429,-198.2925 1033.8276,-191.6022 1036.0777,-201.9554 1042.0429,-198.2925"/>
</g>
<!-- Node24&#45;&gt;Node17 -->
<g id="edge30" class="edge">
<title>Node24&#45;&gt;Node17</title>
<path fill="none" stroke="#191970" d="M361.6913,-228.3095C358.7819,-220.7714 354.7286,-210.2696 351.1983,-201.123"/>
<polygon fill="#191970" stroke="#191970" points="354.3897,-199.6712 347.5236,-191.6022 347.8592,-202.1918 354.3897,-199.6712"/>
</g>
<!-- Node28&#45;&gt;Node1 -->
<g id="edge35" class="edge">
<title>Node28&#45;&gt;Node1</title>
<path fill="none" stroke="#191970" d="M116.4908,-228.3095C122.6226,-220.3661 131.2946,-209.1319 138.6061,-199.6602"/>
<polygon fill="#191970" stroke="#191970" points="141.4863,-201.6569 144.8263,-191.6022 135.9452,-197.3795 141.4863,-201.6569"/>
</g>
<!-- Node29&#45;&gt;Node1 -->
<g id="edge39" class="edge">
<title>Node29&#45;&gt;Node1</title>
<path fill="none" stroke="#191970" d="M224.8919,-228.3095C211.5021,-219.6366 192.0557,-207.0407 176.7074,-197.0992"/>
<polygon fill="#191970" stroke="#191970" points="178.5169,-194.1011 168.2209,-191.6022 174.7113,-199.9764 178.5169,-194.1011"/>
</g>
</g>
</svg>
