<?xml version="1.0" encoding="UTF-8" standalone="no"?>
<!DOCTYPE svg PUBLIC "-//W3C//DTD SVG 1.1//EN"
 "http://www.w3.org/Graphics/SVG/1.1/DTD/svg11.dtd">
<!-- Generated by graphviz version 2.40.1 (20161225.0304)
 -->
<!-- Title: BoeingSurfaceVehicleControl.cpp Pages: 1 -->
<svg width="1349pt" height="314pt"
 viewBox="0.00 0.00 1349.24 314.00" xmlns="http://www.w3.org/2000/svg" xmlns:xlink="http://www.w3.org/1999/xlink">
<g id="graph0" class="graph" transform="scale(1 1) rotate(0) translate(4 310)">
<title>BoeingSurfaceVehicleControl.cpp</title>
<polygon fill="#ffffff" stroke="transparent" points="-4,4 -4,-310 1345.2365,-310 1345.2365,4 -4,4"/>
<!-- Node0 -->
<g id="node1" class="node">
<title>Node0</title>
<polygon fill="#bfbfbf" stroke="#000000" points="582.8835,-285.5 582.8835,-305.5 748.3655,-305.5 748.3655,-285.5 582.8835,-285.5"/>
<text text-anchor="middle" x="665.6245" y="-292.5" font-family="Helvetica,sans-Serif" font-size="10.00" fill="#000000">BoeingSurfaceVehicleControl.cpp</text>
</g>
<!-- Node1 -->
<g id="node2" class="node">
<title>Node1</title>
<g id="a_node2"><a xlink:href="BoeingSurfaceVehicleControl_8h.html" target="_top" xlink:title="BoeingSurfaceVehicleControl.h">
<polygon fill="#ffffff" stroke="#000000" points="147.163,-171.5 147.163,-191.5 302.086,-191.5 302.086,-171.5 147.163,-171.5"/>
<text text-anchor="middle" x="224.6245" y="-178.5" font-family="Helvetica,sans-Serif" font-size="10.00" fill="#000000">BoeingSurfaceVehicleControl.h</text>
</a>
</g>
</g>
<!-- Node0&#45;&gt;Node1 -->
<g id="edge1" class="edge">
<title>Node0&#45;&gt;Node1</title>
<path fill="none" stroke="#191970" d="M582.8193,-291.3089C467.2783,-284.7222 268.9271,-270.4457 243.6245,-249 230.0233,-237.472 225.7658,-217.0427 224.6127,-201.6694"/>
<polygon fill="#191970" stroke="#191970" points="228.1062,-201.4297 224.2325,-191.5685 221.1112,-201.6931 228.1062,-201.4297"/>
</g>
<!-- Node4 -->
<g id="node5" class="node">
<title>Node4</title>
<g id="a_node5"><a xlink:href="BluetoothManager_8h.html" target="_top" xlink:title="BluetoothManager.h">
<polygon fill="#ffffff" stroke="#000000" points="312.6085,-57.5 312.6085,-77.5 418.6405,-77.5 418.6405,-57.5 312.6085,-57.5"/>
<text text-anchor="middle" x="365.6245" y="-64.5" font-family="Helvetica,sans-Serif" font-size="10.00" fill="#000000">BluetoothManager.h</text>
</a>
</g>
</g>
<!-- Node0&#45;&gt;Node4 -->
<g id="edge36" class="edge">
<title>Node0&#45;&gt;Node4</title>
<path fill="none" stroke="#191970" d="M588.569,-285.4408C559.7457,-278.7379 528.0956,-267.5772 503.6245,-249 471.2035,-224.3876 478.9421,-204.3643 455.6245,-171 437.135,-144.544 431.8744,-138.2945 410.6245,-114 401.9039,-104.0299 391.6705,-93.3798 383.1678,-84.7911"/>
<polygon fill="#191970" stroke="#191970" points="385.4845,-82.158 375.9387,-77.5615 380.5346,-87.1077 385.4845,-82.158"/>
</g>
<!-- Node6 -->
<g id="node7" class="node">
<title>Node6</title>
<g id="a_node7"><a xlink:href="BluetoothDefinitions_8h.html" target="_top" xlink:title="BluetoothDefinitions.h">
<polygon fill="#ffffff" stroke="#000000" points="0,-114.5 0,-134.5 113.249,-134.5 113.249,-114.5 0,-114.5"/>
<text text-anchor="middle" x="56.6245" y="-121.5" font-family="Helvetica,sans-Serif" font-size="10.00" fill="#000000">BluetoothDefinitions.h</text>
</a>
</g>
</g>
<!-- Node0&#45;&gt;Node6 -->
<g id="edge35" class="edge">
<title>Node0&#45;&gt;Node6</title>
<path fill="none" stroke="#191970" d="M582.8689,-292.4329C414.4846,-285.7894 46.2581,-269.0412 27.6245,-249 .4533,-219.7764 25.7547,-170.1883 43.2242,-143.2573"/>
<polygon fill="#191970" stroke="#191970" points="46.2765,-144.9916 48.9778,-134.7469 40.4774,-141.0709 46.2765,-144.9916"/>
</g>
<!-- Node9 -->
<g id="node10" class="node">
<title>Node9</title>
<polygon fill="#ffffff" stroke="#bfbfbf" points="512.2875,-228.5 512.2875,-248.5 554.9615,-248.5 554.9615,-228.5 512.2875,-228.5"/>
<text text-anchor="middle" x="533.6245" y="-235.5" font-family="Helvetica,sans-Serif" font-size="10.00" fill="#000000">fcntl.h</text>
</g>
<!-- Node0&#45;&gt;Node9 -->
<g id="edge11" class="edge">
<title>Node0&#45;&gt;Node9</title>
<path fill="none" stroke="#191970" d="M642.3294,-285.4408C620.7327,-276.1149 588.4448,-262.1724 564.6666,-251.9045"/>
<polygon fill="#191970" stroke="#191970" points="565.9413,-248.6426 555.3731,-247.8914 563.1662,-255.0691 565.9413,-248.6426"/>
</g>
<!-- Node10 -->
<g id="node11" class="node">
<title>Node10</title>
<polygon fill="#ffffff" stroke="#bfbfbf" points="573.398,-228.5 573.398,-248.5 623.851,-248.5 623.851,-228.5 573.398,-228.5"/>
<text text-anchor="middle" x="598.6245" y="-235.5" font-family="Helvetica,sans-Serif" font-size="10.00" fill="#000000">signal.h</text>
</g>
<!-- Node0&#45;&gt;Node10 -->
<g id="edge12" class="edge">
<title>Node0&#45;&gt;Node10</title>
<path fill="none" stroke="#191970" d="M653.6462,-285.3095C643.8328,-276.9608 629.7465,-264.9769 618.2836,-255.2249"/>
<polygon fill="#191970" stroke="#191970" points="620.3836,-252.4162 610.4991,-248.6022 615.8477,-257.7479 620.3836,-252.4162"/>
</g>
<!-- Node11 -->
<g id="node12" class="node">
<title>Node11</title>
<polygon fill="#ffffff" stroke="#bfbfbf" points="641.788,-228.5 641.788,-248.5 689.461,-248.5 689.461,-228.5 641.788,-228.5"/>
<text text-anchor="middle" x="665.6245" y="-235.5" font-family="Helvetica,sans-Serif" font-size="10.00" fill="#000000">stdlib.h</text>
</g>
<!-- Node0&#45;&gt;Node11 -->
<g id="edge13" class="edge">
<title>Node0&#45;&gt;Node11</title>
<path fill="none" stroke="#191970" d="M665.6245,-285.3095C665.6245,-277.9335 665.6245,-267.72 665.6245,-258.715"/>
<polygon fill="#191970" stroke="#191970" points="669.1246,-258.6022 665.6245,-248.6022 662.1246,-258.6023 669.1246,-258.6022"/>
</g>
<!-- Node12 -->
<g id="node13" class="node">
<title>Node12</title>
<polygon fill="#ffffff" stroke="#bfbfbf" points="707.8975,-228.5 707.8975,-248.5 753.3515,-248.5 753.3515,-228.5 707.8975,-228.5"/>
<text text-anchor="middle" x="730.6245" y="-235.5" font-family="Helvetica,sans-Serif" font-size="10.00" fill="#000000">stdio.h</text>
</g>
<!-- Node0&#45;&gt;Node12 -->
<g id="edge14" class="edge">
<title>Node0&#45;&gt;Node12</title>
<path fill="none" stroke="#191970" d="M677.2452,-285.3095C686.7657,-276.9608 700.4315,-264.9769 711.5522,-255.2249"/>
<polygon fill="#191970" stroke="#191970" points="713.8934,-257.827 719.1044,-248.6022 709.2781,-252.564 713.8934,-257.827"/>
</g>
<!-- Node13 -->
<g id="node14" class="node">
<title>Node13</title>
<polygon fill="#ffffff" stroke="#bfbfbf" points="771.233,-228.5 771.233,-248.5 820.016,-248.5 820.016,-228.5 771.233,-228.5"/>
<text text-anchor="middle" x="795.6245" y="-235.5" font-family="Helvetica,sans-Serif" font-size="10.00" fill="#000000">string.h</text>
</g>
<!-- Node0&#45;&gt;Node13 -->
<g id="edge15" class="edge">
<title>Node0&#45;&gt;Node13</title>
<path fill="none" stroke="#191970" d="M688.5666,-285.4408C709.2314,-276.3801 739.835,-262.9615 763.0353,-252.7891"/>
<polygon fill="#191970" stroke="#191970" points="764.7216,-255.8715 772.4744,-248.6504 761.9106,-249.4606 764.7216,-255.8715"/>
</g>
<!-- Node14 -->
<g id="node15" class="node">
<title>Node14</title>
<polygon fill="#ffffff" stroke="#bfbfbf" points="838.118,-228.5 838.118,-248.5 889.131,-248.5 889.131,-228.5 838.118,-228.5"/>
<text text-anchor="middle" x="863.6245" y="-235.5" font-family="Helvetica,sans-Serif" font-size="10.00" fill="#000000">unistd.h</text>
</g>
<!-- Node0&#45;&gt;Node14 -->
<g id="edge16" class="edge">
<title>Node0&#45;&gt;Node14</title>
<path fill="none" stroke="#191970" d="M701.2775,-285.4792C732.3261,-276.7192 778.7939,-263.5288 828.396,-249.0409"/>
<polygon fill="#191970" stroke="#191970" points="829.4074,-252.3917 838.0222,-246.2243 827.4417,-245.6734 829.4074,-252.3917"/>
</g>
<!-- Node15 -->
<g id="node16" class="node">
<title>Node15</title>
<g id="a_node16"><a xlink:href="Input_8h.html" target="_top" xlink:title="Input.h">
<polygon fill="#ffffff" stroke="#000000" points="410.338,-228.5 410.338,-248.5 456.911,-248.5 456.911,-228.5 410.338,-228.5"/>
<text text-anchor="middle" x="433.6245" y="-235.5" font-family="Helvetica,sans-Serif" font-size="10.00" fill="#000000">Input.h</text>
</a>
</g>
</g>
<!-- Node0&#45;&gt;Node15 -->
<g id="edge17" class="edge">
<title>Node0&#45;&gt;Node15</title>
<path fill="none" stroke="#191970" d="M620.9586,-285.4164C581.3479,-276.3391 521.9794,-262.4035 470.6245,-249 469.3889,-248.6775 468.1314,-248.3446 466.8621,-248.0046"/>
<polygon fill="#191970" stroke="#191970" points="467.6414,-244.5891 457.0715,-245.3158 465.7876,-251.3392 467.6414,-244.5891"/>
</g>
<!-- Node17 -->
<g id="node18" class="node">
<title>Node17</title>
<g id="a_node18"><a xlink:href="MotorControl_8h.html" target="_top" xlink:title="MotorControl.h">
<polygon fill="#ffffff" stroke="#000000" points="941.5665,-171.5 941.5665,-191.5 1023.6825,-191.5 1023.6825,-171.5 941.5665,-171.5"/>
<text text-anchor="middle" x="982.6245" y="-178.5" font-family="Helvetica,sans-Serif" font-size="10.00" fill="#000000">MotorControl.h</text>
</a>
</g>
</g>
<!-- Node0&#45;&gt;Node17 -->
<g id="edge21" class="edge">
<title>Node0&#45;&gt;Node17</title>
<path fill="none" stroke="#191970" d="M748.427,-289.5526C841.6688,-281.9959 982.3881,-267.6611 998.6245,-249 1010.1674,-235.7333 1003.3375,-215.641 995.3384,-200.8255"/>
<polygon fill="#191970" stroke="#191970" points="998.2035,-198.7948 990.0943,-191.9763 992.1815,-202.3635 998.2035,-198.7948"/>
</g>
<!-- Node22 -->
<g id="node23" class="node">
<title>Node22</title>
<g id="a_node23"><a xlink:href="ServoControl_8h.html" target="_top" xlink:title="ServoControl.h">
<polygon fill="#ffffff" stroke="#000000" points="907.286,-228.5 907.286,-248.5 989.963,-248.5 989.963,-228.5 907.286,-228.5"/>
<text text-anchor="middle" x="948.6245" y="-235.5" font-family="Helvetica,sans-Serif" font-size="10.00" fill="#000000">ServoControl.h</text>
</a>
</g>
</g>
<!-- Node0&#45;&gt;Node22 -->
<g id="edge26" class="edge">
<title>Node0&#45;&gt;Node22</title>
<path fill="none" stroke="#191970" d="M716.561,-285.4869C761.571,-276.6044 829.274,-263.1601 897.1472,-249.2899"/>
<polygon fill="#191970" stroke="#191970" points="898.0645,-252.6748 907.1598,-247.2409 896.6611,-245.817 898.0645,-252.6748"/>
</g>
<!-- Node23 -->
<g id="node24" class="node">
<title>Node23</title>
<g id="a_node24"><a xlink:href="Output_8h.html" target="_top" xlink:title="Output.h">
<polygon fill="#ffffff" stroke="#000000" points="338.4485,-228.5 338.4485,-248.5 392.8005,-248.5 392.8005,-228.5 338.4485,-228.5"/>
<text text-anchor="middle" x="365.6245" y="-235.5" font-family="Helvetica,sans-Serif" font-size="10.00" fill="#000000">Output.h</text>
</a>
</g>
</g>
<!-- Node0&#45;&gt;Node23 -->
<g id="edge28" class="edge">
<title>Node0&#45;&gt;Node23</title>
<path fill="none" stroke="#191970" d="M596.8327,-285.497C545.7146,-277.5785 474.123,-265.4714 403.0789,-249.1664"/>
<polygon fill="#191970" stroke="#191970" points="403.5928,-245.6926 393.0601,-246.8378 402.0081,-252.5109 403.5928,-245.6926"/>
</g>
<!-- Node24 -->
<g id="node25" class="node">
<title>Node24</title>
<g id="a_node25"><a xlink:href="InputList_8h.html" target="_top" xlink:title="InputList.h">
<polygon fill="#ffffff" stroke="#000000" points="1045.5595,-228.5 1045.5595,-248.5 1107.6895,-248.5 1107.6895,-228.5 1045.5595,-228.5"/>
<text text-anchor="middle" x="1076.6245" y="-235.5" font-family="Helvetica,sans-Serif" font-size="10.00" fill="#000000">InputList.h</text>
</a>
</g>
</g>
<!-- Node0&#45;&gt;Node24 -->
<g id="edge30" class="edge">
<title>Node0&#45;&gt;Node24</title>
<path fill="none" stroke="#191970" d="M748.4857,-287.4309C822.9098,-279.6003 935.0116,-266.3613 1031.6245,-249 1032.8681,-248.7765 1034.129,-248.5408 1035.4004,-248.2952"/>
<polygon fill="#191970" stroke="#191970" points="1036.1564,-251.713 1045.2387,-246.2576 1034.7367,-244.8584 1036.1564,-251.713"/>
</g>
<!-- Node25 -->
<g id="node26" class="node">
<title>Node25</title>
<g id="a_node26"><a xlink:href="OutputList_8h.html" target="_top" xlink:title="OutputList.h">
<polygon fill="#ffffff" stroke="#000000" points="1125.67,-228.5 1125.67,-248.5 1195.579,-248.5 1195.579,-228.5 1125.67,-228.5"/>
<text text-anchor="middle" x="1160.6245" y="-235.5" font-family="Helvetica,sans-Serif" font-size="10.00" fill="#000000">OutputList.h</text>
</a>
</g>
</g>
<!-- Node0&#45;&gt;Node25 -->
<g id="edge31" class="edge">
<title>Node0&#45;&gt;Node25</title>
<path fill="none" stroke="#191970" d="M748.777,-290.2177C837.3914,-283.8428 981.9006,-271.3127 1115.6272,-248.9809"/>
<polygon fill="#191970" stroke="#191970" points="1116.3695,-252.4051 1125.6454,-247.2859 1115.2016,-245.5032 1116.3695,-252.4051"/>
</g>
<!-- Node26 -->
<g id="node27" class="node">
<title>Node26</title>
<g id="a_node27"><a xlink:href="ServoList_8h.html" target="_top" xlink:title="ServoList.h">
<polygon fill="#ffffff" stroke="#000000" points="1213.619,-228.5 1213.619,-248.5 1279.63,-248.5 1279.63,-228.5 1213.619,-228.5"/>
<text text-anchor="middle" x="1246.6245" y="-235.5" font-family="Helvetica,sans-Serif" font-size="10.00" fill="#000000">ServoList.h</text>
</a>
</g>
</g>
<!-- Node0&#45;&gt;Node26 -->
<g id="edge32" class="edge">
<title>Node0&#45;&gt;Node26</title>
<path fill="none" stroke="#191970" d="M748.7806,-292.4272C853.0222,-287.6565 1037.2181,-276.1929 1203.3487,-248.995"/>
<polygon fill="#191970" stroke="#191970" points="1203.9626,-252.4411 1213.2545,-247.3509 1202.8163,-245.5356 1203.9626,-252.4411"/>
</g>
<!-- Node27 -->
<g id="node28" class="node">
<title>Node27</title>
<g id="a_node28"><a xlink:href="IOFactory_8h.html" target="_top" xlink:title="IOFactory.h">
<polygon fill="#ffffff" stroke="#000000" points="252.509,-228.5 252.509,-248.5 320.74,-248.5 320.74,-228.5 252.509,-228.5"/>
<text text-anchor="middle" x="286.6245" y="-235.5" font-family="Helvetica,sans-Serif" font-size="10.00" fill="#000000">IOFactory.h</text>
</a>
</g>
</g>
<!-- Node0&#45;&gt;Node27 -->
<g id="edge33" class="edge">
<title>Node0&#45;&gt;Node27</title>
<path fill="none" stroke="#191970" d="M582.7359,-286.4162C516.8939,-278.6492 422.312,-266.2686 330.8115,-249.082"/>
<polygon fill="#191970" stroke="#191970" points="331.3008,-245.6124 320.8232,-247.1842 329.9941,-252.4894 331.3008,-245.6124"/>
</g>
<!-- Node28 -->
<g id="node29" class="node">
<title>Node28</title>
<g id="a_node29"><a xlink:href="CommunicationProtocolParser_8h.html" target="_top" xlink:title="CommunicationProtocolParser.h">
<polygon fill="#ffffff" stroke="#000000" points="36.6725,-228.5 36.6725,-248.5 196.5765,-248.5 196.5765,-228.5 36.6725,-228.5"/>
<text text-anchor="middle" x="116.6245" y="-235.5" font-family="Helvetica,sans-Serif" font-size="10.00" fill="#000000">CommunicationProtocolParser.h</text>
</a>
</g>
</g>
<!-- Node0&#45;&gt;Node28 -->
<g id="edge37" class="edge">
<title>Node0&#45;&gt;Node28</title>
<path fill="none" stroke="#191970" d="M582.5731,-287.2488C491.3408,-278.1296 340.5042,-262.8903 210.6245,-249 209.3387,-248.8625 208.043,-248.7235 206.7393,-248.5832"/>
<polygon fill="#191970" stroke="#191970" points="206.9365,-245.0842 196.6177,-247.4871 206.1828,-252.0435 206.9365,-245.0842"/>
</g>
<!-- Node29 -->
<g id="node30" class="node">
<title>Node29</title>
<polygon fill="#ffffff" stroke="#bfbfbf" points="1298.0125,-228.5 1298.0125,-248.5 1341.2365,-248.5 1341.2365,-228.5 1298.0125,-228.5"/>
<text text-anchor="middle" x="1319.6245" y="-235.5" font-family="Helvetica,sans-Serif" font-size="10.00" fill="#000000">time.h</text>
</g>
<!-- Node0&#45;&gt;Node29 -->
<g id="edge39" class="edge">
<title>Node0&#45;&gt;Node29</title>
<path fill="none" stroke="#191970" d="M748.3662,-291.9142C889.1372,-285.3942 1170.5379,-270.4357 1287.6507,-248.6454"/>
<polygon fill="#191970" stroke="#191970" points="1288.6585,-252.0145 1297.7971,-246.6538 1287.3102,-245.1455 1288.6585,-252.0145"/>
</g>
<!-- Node2 -->
<g id="node3" class="node">
<title>Node2</title>
<polygon fill="#ffffff" stroke="#bfbfbf" points="131.0115,-114.5 131.0115,-134.5 174.2375,-134.5 174.2375,-114.5 131.0115,-114.5"/>
<text text-anchor="middle" x="152.6245" y="-121.5" font-family="Helvetica,sans-Serif" font-size="10.00" fill="#000000">vector</text>
</g>
<!-- Node1&#45;&gt;Node2 -->
<g id="edge2" class="edge">
<title>Node1&#45;&gt;Node2</title>
<path fill="none" stroke="#191970" d="M211.7523,-171.3095C201.1042,-162.8798 185.7747,-150.7439 173.3927,-140.9415"/>
<polygon fill="#191970" stroke="#191970" points="175.3982,-138.0651 165.3852,-134.6022 171.0532,-143.5535 175.3982,-138.0651"/>
</g>
<!-- Node3 -->
<g id="node4" class="node">
<title>Node3</title>
<g id="a_node4"><a xlink:href="BluetoothInterface_8h.html" target="_top" xlink:title="BluetoothInterface.h">
<polygon fill="#ffffff" stroke="#000000" points="274.884,-114.5 274.884,-134.5 380.365,-134.5 380.365,-114.5 274.884,-114.5"/>
<text text-anchor="middle" x="327.6245" y="-121.5" font-family="Helvetica,sans-Serif" font-size="10.00" fill="#000000">BluetoothInterface.h</text>
</a>
</g>
</g>
<!-- Node1&#45;&gt;Node3 -->
<g id="edge3" class="edge">
<title>Node1&#45;&gt;Node3</title>
<path fill="none" stroke="#191970" d="M243.0388,-171.3095C259.0039,-162.4745 282.3254,-149.5684 300.4388,-139.5445"/>
<polygon fill="#191970" stroke="#191970" points="302.3147,-142.5066 309.3696,-134.6022 298.9253,-136.3819 302.3147,-142.5066"/>
</g>
<!-- Node1&#45;&gt;Node6 -->
<g id="edge6" class="edge">
<title>Node1&#45;&gt;Node6</title>
<path fill="none" stroke="#191970" d="M194.9762,-171.4408C167.4711,-162.1087 126.3408,-148.1537 96.0718,-137.8839"/>
<polygon fill="#191970" stroke="#191970" points="96.8528,-134.453 86.2585,-134.5544 94.6037,-141.0818 96.8528,-134.453"/>
</g>
<!-- Node7 -->
<g id="node8" class="node">
<title>Node7</title>
<g id="a_node8"><a xlink:href="UserLED_8h.html" target="_top" xlink:title="UserLED.h">
<polygon fill="#ffffff" stroke="#000000" points="192.1785,-114.5 192.1785,-134.5 257.0705,-134.5 257.0705,-114.5 192.1785,-114.5"/>
<text text-anchor="middle" x="224.6245" y="-121.5" font-family="Helvetica,sans-Serif" font-size="10.00" fill="#000000">UserLED.h</text>
</a>
</g>
</g>
<!-- Node1&#45;&gt;Node7 -->
<g id="edge8" class="edge">
<title>Node1&#45;&gt;Node7</title>
<path fill="none" stroke="#191970" d="M224.6245,-171.3095C224.6245,-163.9335 224.6245,-153.72 224.6245,-144.715"/>
<polygon fill="#191970" stroke="#191970" points="228.1246,-144.6022 224.6245,-134.6022 221.1246,-144.6023 228.1246,-144.6022"/>
</g>
<!-- Node3&#45;&gt;Node4 -->
<g id="edge4" class="edge">
<title>Node3&#45;&gt;Node4</title>
<path fill="none" stroke="#191970" d="M334.4181,-114.3095C339.6597,-106.4472 347.0506,-95.3608 353.324,-85.9507"/>
<polygon fill="#191970" stroke="#191970" points="356.2548,-87.8642 358.8897,-77.6022 350.4304,-83.9813 356.2548,-87.8642"/>
</g>
<!-- Node5 -->
<g id="node6" class="node">
<title>Node5</title>
<polygon fill="#ffffff" stroke="#bfbfbf" points="270.402,-.5 270.402,-20.5 310.847,-20.5 310.847,-.5 270.402,-.5"/>
<text text-anchor="middle" x="290.6245" y="-7.5" font-family="Helvetica,sans-Serif" font-size="10.00" fill="#000000">string</text>
</g>
<!-- Node4&#45;&gt;Node5 -->
<g id="edge5" class="edge">
<title>Node4&#45;&gt;Node5</title>
<path fill="none" stroke="#191970" d="M352.216,-57.3095C341.0175,-48.7987 324.8484,-36.5102 311.8868,-26.6594"/>
<polygon fill="#191970" stroke="#191970" points="313.9964,-23.8665 303.9169,-20.6022 309.7607,-29.4397 313.9964,-23.8665"/>
</g>
<!-- Node6&#45;&gt;Node5 -->
<g id="edge7" class="edge">
<title>Node6&#45;&gt;Node5</title>
<path fill="none" stroke="#191970" d="M77.3904,-114.3833C119.0385,-94.0932 212.8855,-48.3729 260.982,-24.9412"/>
<polygon fill="#191970" stroke="#191970" points="262.7822,-27.9575 270.2392,-20.4313 259.7164,-21.6646 262.7822,-27.9575"/>
</g>
<!-- Node7&#45;&gt;Node5 -->
<g id="edge9" class="edge">
<title>Node7&#45;&gt;Node5</title>
<path fill="none" stroke="#191970" d="M224.1591,-114.1718C223.9897,-100.2693 225.3275,-75.184 235.6245,-57 242.5766,-44.7228 254.0853,-34.2346 264.7832,-26.3435"/>
<polygon fill="#191970" stroke="#191970" points="266.8622,-29.161 273.0863,-20.5872 262.874,-23.4083 266.8622,-29.161"/>
</g>
<!-- Node8 -->
<g id="node9" class="node">
<title>Node8</title>
<polygon fill="#ffffff" stroke="#bfbfbf" points="244.9575,-57.5 244.9575,-77.5 294.2915,-77.5 294.2915,-57.5 244.9575,-57.5"/>
<text text-anchor="middle" x="269.6245" y="-64.5" font-family="Helvetica,sans-Serif" font-size="10.00" fill="#000000">fstream</text>
</g>
<!-- Node7&#45;&gt;Node8 -->
<g id="edge10" class="edge">
<title>Node7&#45;&gt;Node8</title>
<path fill="none" stroke="#191970" d="M232.6696,-114.3095C238.9407,-106.3661 247.8099,-95.1319 255.2875,-85.6602"/>
<polygon fill="#191970" stroke="#191970" points="258.1997,-87.6199 261.6491,-77.6022 252.7055,-83.2823 258.1997,-87.6199"/>
</g>
<!-- Node16 -->
<g id="node17" class="node">
<title>Node16</title>
<g id="a_node17"><a xlink:href="IOBase_8h.html" target="_top" xlink:title="IOBase.h">
<polygon fill="#ffffff" stroke="#000000" points="388.783,-171.5 388.783,-191.5 446.466,-191.5 446.466,-171.5 388.783,-171.5"/>
<text text-anchor="middle" x="417.6245" y="-178.5" font-family="Helvetica,sans-Serif" font-size="10.00" fill="#000000">IOBase.h</text>
</a>
</g>
</g>
<!-- Node15&#45;&gt;Node16 -->
<g id="edge18" class="edge">
<title>Node15&#45;&gt;Node16</title>
<path fill="none" stroke="#191970" d="M430.764,-228.3095C428.6708,-220.8524 425.7635,-210.4951 423.2157,-201.4186"/>
<polygon fill="#191970" stroke="#191970" points="426.5326,-200.2842 420.4602,-191.6022 419.7931,-202.176 426.5326,-200.2842"/>
</g>
<!-- Node16&#45;&gt;Node5 -->
<g id="edge19" class="edge">
<title>Node16&#45;&gt;Node5</title>
<path fill="none" stroke="#191970" d="M422.4771,-171.2944C432.573,-148.4113 452.8862,-92.2514 427.6245,-57 415.0407,-39.4399 357.5102,-24.4833 321.1189,-16.56"/>
<polygon fill="#191970" stroke="#191970" points="321.5316,-13.0699 311.0236,-14.4235 320.0822,-19.9182 321.5316,-13.0699"/>
</g>
<!-- Node16&#45;&gt;Node8 -->
<g id="edge20" class="edge">
<title>Node16&#45;&gt;Node8</title>
<path fill="none" stroke="#191970" d="M416.0059,-171.404C413.1672,-156.8453 405.9612,-129.9568 389.6245,-114 383.1968,-107.7217 337.467,-90.9738 304.3644,-79.3923"/>
<polygon fill="#191970" stroke="#191970" points="305.1489,-75.9596 294.5541,-75.9813 302.85,-82.5714 305.1489,-75.9596"/>
</g>
<!-- Node18 -->
<g id="node19" class="node">
<title>Node18</title>
<polygon fill="#ffffff" stroke="#bfbfbf" points="1048.508,-114.5 1048.508,-134.5 1096.741,-134.5 1096.741,-114.5 1048.508,-114.5"/>
<text text-anchor="middle" x="1072.6245" y="-121.5" font-family="Helvetica,sans-Serif" font-size="10.00" fill="#000000">stdint.h</text>
</g>
<!-- Node17&#45;&gt;Node18 -->
<g id="edge22" class="edge">
<title>Node17&#45;&gt;Node18</title>
<path fill="none" stroke="#191970" d="M998.7147,-171.3095C1012.4088,-162.6366 1032.2971,-150.0407 1047.9942,-140.0992"/>
<polygon fill="#191970" stroke="#191970" points="1050.0981,-142.9097 1056.6736,-134.6022 1046.3527,-136.9959 1050.0981,-142.9097"/>
</g>
<!-- Node19 -->
<g id="node20" class="node">
<title>Node19</title>
<polygon fill="#ffffff" stroke="#bfbfbf" points="858.504,-114.5 858.504,-134.5 916.745,-134.5 916.745,-114.5 858.504,-114.5"/>
<text text-anchor="middle" x="887.6245" y="-121.5" font-family="Helvetica,sans-Serif" font-size="10.00" fill="#000000">pthread.h</text>
</g>
<!-- Node17&#45;&gt;Node19 -->
<g id="edge23" class="edge">
<title>Node17&#45;&gt;Node19</title>
<path fill="none" stroke="#191970" d="M965.6404,-171.3095C951.0504,-162.5556 929.7993,-149.8049 913.1597,-139.8211"/>
<polygon fill="#191970" stroke="#191970" points="914.8373,-136.746 904.4616,-134.6022 911.2357,-142.7485 914.8373,-136.746"/>
</g>
<!-- Node20 -->
<g id="node21" class="node">
<title>Node20</title>
<g id="a_node21"><a xlink:href="LinearConverter_8h.html" target="_top" xlink:title="LinearConverter.h">
<polygon fill="#ffffff" stroke="#000000" points="934.6175,-114.5 934.6175,-134.5 1030.6315,-134.5 1030.6315,-114.5 934.6175,-114.5"/>
<text text-anchor="middle" x="982.6245" y="-121.5" font-family="Helvetica,sans-Serif" font-size="10.00" fill="#000000">LinearConverter.h</text>
</a>
</g>
</g>
<!-- Node17&#45;&gt;Node20 -->
<g id="edge24" class="edge">
<title>Node17&#45;&gt;Node20</title>
<path fill="none" stroke="#191970" d="M982.6245,-171.3095C982.6245,-163.9335 982.6245,-153.72 982.6245,-144.715"/>
<polygon fill="#191970" stroke="#191970" points="986.1246,-144.6022 982.6245,-134.6022 979.1246,-144.6023 986.1246,-144.6022"/>
</g>
<!-- Node21 -->
<g id="node22" class="node">
<title>Node21</title>
<g id="a_node22"><a xlink:href="Range_8h.html" target="_top" xlink:title="Range.h">
<polygon fill="#ffffff" stroke="#000000" points="955.728,-57.5 955.728,-77.5 1009.521,-77.5 1009.521,-57.5 955.728,-57.5"/>
<text text-anchor="middle" x="982.6245" y="-64.5" font-family="Helvetica,sans-Serif" font-size="10.00" fill="#000000">Range.h</text>
</a>
</g>
</g>
<!-- Node20&#45;&gt;Node21 -->
<g id="edge25" class="edge">
<title>Node20&#45;&gt;Node21</title>
<path fill="none" stroke="#191970" d="M982.6245,-114.3095C982.6245,-106.9335 982.6245,-96.72 982.6245,-87.715"/>
<polygon fill="#191970" stroke="#191970" points="986.1246,-87.6022 982.6245,-77.6022 979.1246,-87.6023 986.1246,-87.6022"/>
</g>
<!-- Node22&#45;&gt;Node17 -->
<g id="edge27" class="edge">
<title>Node22&#45;&gt;Node17</title>
<path fill="none" stroke="#191970" d="M954.703,-228.3095C959.3445,-220.5282 965.8696,-209.589 971.4449,-200.2423"/>
<polygon fill="#191970" stroke="#191970" points="974.4816,-201.9834 976.5986,-191.6022 968.4699,-198.3975 974.4816,-201.9834"/>
</g>
<!-- Node23&#45;&gt;Node16 -->
<g id="edge29" class="edge">
<title>Node23&#45;&gt;Node16</title>
<path fill="none" stroke="#191970" d="M374.9211,-228.3095C382.3156,-220.204 392.8361,-208.672 401.5843,-199.0826"/>
<polygon fill="#191970" stroke="#191970" points="404.2545,-201.3488 408.4084,-191.6022 399.0831,-196.631 404.2545,-201.3488"/>
</g>
<!-- Node27&#45;&gt;Node1 -->
<g id="edge34" class="edge">
<title>Node27&#45;&gt;Node1</title>
<path fill="none" stroke="#191970" d="M275.5401,-228.3095C266.5473,-220.0419 253.6767,-208.2093 243.1261,-198.5096"/>
<polygon fill="#191970" stroke="#191970" points="245.3434,-195.7937 235.6129,-191.6022 240.6058,-200.9469 245.3434,-195.7937"/>
</g>
<!-- Node28&#45;&gt;Node1 -->
<g id="edge38" class="edge">
<title>Node28&#45;&gt;Node1</title>
<path fill="none" stroke="#191970" d="M135.6841,-228.4408C152.5452,-219.5419 177.3709,-206.4394 196.512,-196.3371"/>
<polygon fill="#191970" stroke="#191970" points="198.1819,-199.4134 205.3921,-191.6504 194.9146,-193.2227 198.1819,-199.4134"/>
</g>
</g>
</svg>
