<?xml version="1.0" encoding="UTF-8" standalone="no"?>
<!DOCTYPE svg PUBLIC "-//W3C//DTD SVG 1.1//EN"
 "http://www.w3.org/Graphics/SVG/1.1/DTD/svg11.dtd">
<!-- Generated by graphviz version 2.40.1 (20161225.0304)
 -->
<!-- Title: BoeingSurfaceVehicleControl.h Pages: 1 -->
<svg width="280pt" height="200pt"
 viewBox="0.00 0.00 280.28 200.00" xmlns="http://www.w3.org/2000/svg" xmlns:xlink="http://www.w3.org/1999/xlink">
<g id="graph0" class="graph" transform="scale(1 1) rotate(0) translate(4 196)">
<title>BoeingSurfaceVehicleControl.h</title>
<polygon fill="#ffffff" stroke="transparent" points="-4,4 -4,-196 276.28,-196 276.28,4 -4,4"/>
<!-- Node0 -->
<g id="node1" class="node">
<title>Node0</title>
<polygon fill="#bfbfbf" stroke="#000000" points="36.1515,-171.5 36.1515,-191.5 191.0745,-191.5 191.0745,-171.5 36.1515,-171.5"/>
<text text-anchor="middle" x="113.613" y="-178.5" font-family="Helvetica,sans-Serif" font-size="10.00" fill="#000000">BoeingSurfaceVehicleControl.h</text>
</g>
<!-- Node1 -->
<g id="node2" class="node">
<title>Node1</title>
<polygon fill="#ffffff" stroke="#bfbfbf" points="0,-114.5 0,-134.5 43.226,-134.5 43.226,-114.5 0,-114.5"/>
<text text-anchor="middle" x="21.613" y="-121.5" font-family="Helvetica,sans-Serif" font-size="10.00" fill="#000000">vector</text>
</g>
<!-- Node0&#45;&gt;Node1 -->
<g id="edge1" class="edge">
<title>Node0&#45;&gt;Node1</title>
<path fill="none" stroke="#191970" d="M97.1652,-171.3095C83.1668,-162.6366 62.8365,-150.0407 46.7906,-140.0992"/>
<polygon fill="#191970" stroke="#191970" points="48.2624,-136.8938 37.9184,-134.6022 44.5757,-142.8442 48.2624,-136.8938"/>
</g>
<!-- Node2 -->
<g id="node3" class="node">
<title>Node2</title>
<g id="a_node3"><a xlink:href="BluetoothInterface_8h.html" target="_top" xlink:title="BluetoothInterface.h">
<polygon fill="#ffffff" stroke="#000000" points="60.8725,-114.5 60.8725,-134.5 166.3535,-134.5 166.3535,-114.5 60.8725,-114.5"/>
<text text-anchor="middle" x="113.613" y="-121.5" font-family="Helvetica,sans-Serif" font-size="10.00" fill="#000000">BluetoothInterface.h</text>
</a>
</g>
</g>
<!-- Node0&#45;&gt;Node2 -->
<g id="edge2" class="edge">
<title>Node0&#45;&gt;Node2</title>
<path fill="none" stroke="#191970" d="M113.613,-171.3095C113.613,-163.9335 113.613,-153.72 113.613,-144.715"/>
<polygon fill="#191970" stroke="#191970" points="117.1131,-144.6022 113.613,-134.6022 110.1131,-144.6023 117.1131,-144.6022"/>
</g>
<!-- Node6 -->
<g id="node7" class="node">
<title>Node6</title>
<g id="a_node7"><a xlink:href="UserLED_8h.html" target="_top" xlink:title="UserLED.h">
<polygon fill="#ffffff" stroke="#000000" points="184.167,-114.5 184.167,-134.5 249.059,-134.5 249.059,-114.5 184.167,-114.5"/>
<text text-anchor="middle" x="216.613" y="-121.5" font-family="Helvetica,sans-Serif" font-size="10.00" fill="#000000">UserLED.h</text>
</a>
</g>
</g>
<!-- Node0&#45;&gt;Node6 -->
<g id="edge6" class="edge">
<title>Node0&#45;&gt;Node6</title>
<path fill="none" stroke="#191970" d="M132.0273,-171.3095C147.9924,-162.4745 171.3139,-149.5684 189.4273,-139.5445"/>
<polygon fill="#191970" stroke="#191970" points="191.3032,-142.5066 198.3581,-134.6022 187.9138,-136.3819 191.3032,-142.5066"/>
</g>
<!-- Node3 -->
<g id="node4" class="node">
<title>Node3</title>
<g id="a_node4"><a xlink:href="BluetoothManager_8h.html" target="_top" xlink:title="BluetoothManager.h">
<polygon fill="#ffffff" stroke="#000000" points="60.597,-57.5 60.597,-77.5 166.629,-77.5 166.629,-57.5 60.597,-57.5"/>
<text text-anchor="middle" x="113.613" y="-64.5" font-family="Helvetica,sans-Serif" font-size="10.00" fill="#000000">BluetoothManager.h</text>
</a>
</g>
</g>
<!-- Node2&#45;&gt;Node3 -->
<g id="edge3" class="edge">
<title>Node2&#45;&gt;Node3</title>
<path fill="none" stroke="#191970" d="M113.613,-114.3095C113.613,-106.9335 113.613,-96.72 113.613,-87.715"/>
<polygon fill="#191970" stroke="#191970" points="117.1131,-87.6022 113.613,-77.6022 110.1131,-87.6023 117.1131,-87.6022"/>
</g>
<!-- Node4 -->
<g id="node5" class="node">
<title>Node4</title>
<polygon fill="#ffffff" stroke="#bfbfbf" points="163.3905,-.5 163.3905,-20.5 203.8355,-20.5 203.8355,-.5 163.3905,-.5"/>
<text text-anchor="middle" x="183.613" y="-7.5" font-family="Helvetica,sans-Serif" font-size="10.00" fill="#000000">string</text>
</g>
<!-- Node3&#45;&gt;Node4 -->
<g id="edge4" class="edge">
<title>Node3&#45;&gt;Node4</title>
<path fill="none" stroke="#191970" d="M126.1276,-57.3095C136.4799,-48.8798 151.3836,-36.7439 163.4217,-26.9415"/>
<polygon fill="#191970" stroke="#191970" points="165.6624,-29.6306 171.2067,-20.6022 161.2424,-24.2025 165.6624,-29.6306"/>
</g>
<!-- Node5 -->
<g id="node6" class="node">
<title>Node5</title>
<polygon fill="#ffffff" stroke="#bfbfbf" points="92.001,-.5 92.001,-20.5 135.225,-20.5 135.225,-.5 92.001,-.5"/>
<text text-anchor="middle" x="113.613" y="-7.5" font-family="Helvetica,sans-Serif" font-size="10.00" fill="#000000">time.h</text>
</g>
<!-- Node3&#45;&gt;Node5 -->
<g id="edge5" class="edge">
<title>Node3&#45;&gt;Node5</title>
<path fill="none" stroke="#191970" d="M113.613,-57.3095C113.613,-49.9335 113.613,-39.72 113.613,-30.715"/>
<polygon fill="#191970" stroke="#191970" points="117.1131,-30.6022 113.613,-20.6022 110.1131,-30.6023 117.1131,-30.6022"/>
</g>
<!-- Node6&#45;&gt;Node4 -->
<g id="edge7" class="edge">
<title>Node6&#45;&gt;Node4</title>
<path fill="none" stroke="#191970" d="M213.6845,-114.3833C208.2431,-95.586 196.4838,-54.9627 189.3897,-30.4559"/>
<polygon fill="#191970" stroke="#191970" points="192.725,-29.3904 186.5824,-20.7579 186.0011,-31.3368 192.725,-29.3904"/>
</g>
<!-- Node7 -->
<g id="node8" class="node">
<title>Node7</title>
<polygon fill="#ffffff" stroke="#bfbfbf" points="222.946,-57.5 222.946,-77.5 272.28,-77.5 272.28,-57.5 222.946,-57.5"/>
<text text-anchor="middle" x="247.613" y="-64.5" font-family="Helvetica,sans-Serif" font-size="10.00" fill="#000000">fstream</text>
</g>
<!-- Node6&#45;&gt;Node7 -->
<g id="edge8" class="edge">
<title>Node6&#45;&gt;Node7</title>
<path fill="none" stroke="#191970" d="M222.1552,-114.3095C226.343,-106.6093 232.2127,-95.8166 237.2607,-86.5349"/>
<polygon fill="#191970" stroke="#191970" points="240.4157,-88.0593 242.1188,-77.6022 234.2663,-84.7149 240.4157,-88.0593"/>
</g>
</g>
</svg>
