<?xml version="1.0" encoding="UTF-8" standalone="no"?>
<!DOCTYPE svg PUBLIC "-//W3C//DTD SVG 1.1//EN"
 "http://www.w3.org/Graphics/SVG/1.1/DTD/svg11.dtd">
<!-- Generated by graphviz version 2.40.1 (20161225.0304)
 -->
<!-- Title: BoeingSurfaceVehicleControl.cpp Pages: 1 -->
<svg width="1639pt" height="314pt"
 viewBox="0.00 0.00 1639.28 314.00" xmlns="http://www.w3.org/2000/svg" xmlns:xlink="http://www.w3.org/1999/xlink">
<g id="graph0" class="graph" transform="scale(1 1) rotate(0) translate(4 310)">
<title>BoeingSurfaceVehicleControl.cpp</title>
<polygon fill="#ffffff" stroke="transparent" points="-4,4 -4,-310 1635.284,-310 1635.284,4 -4,4"/>
<!-- Node0 -->
<g id="node1" class="node">
<title>Node0</title>
<polygon fill="#bfbfbf" stroke="#000000" points="725.3755,-285.5 725.3755,-305.5 890.8575,-305.5 890.8575,-285.5 725.3755,-285.5"/>
<text text-anchor="middle" x="808.1165" y="-292.5" font-family="Helvetica,sans-Serif" font-size="10.00" fill="#000000">BoeingSurfaceVehicleControl.cpp</text>
</g>
<!-- Node1 -->
<g id="node2" class="node">
<title>Node1</title>
<g id="a_node2"><a xlink:href="BoeingSurfaceVehicleControl_8h.html" target="_top" xlink:title="BoeingSurfaceVehicleControl.h">
<polygon fill="#ffffff" stroke="#000000" points="864.655,-171.5 864.655,-191.5 1019.578,-191.5 1019.578,-171.5 864.655,-171.5"/>
<text text-anchor="middle" x="942.1165" y="-178.5" font-family="Helvetica,sans-Serif" font-size="10.00" fill="#000000">BoeingSurfaceVehicleControl.h</text>
</a>
</g>
</g>
<!-- Node0&#45;&gt;Node1 -->
<g id="edge1" class="edge">
<title>Node0&#45;&gt;Node1</title>
<path fill="none" stroke="#191970" d="M820.0081,-285.3833C843.094,-265.743 894.1874,-222.2755 922.4165,-198.2597"/>
<polygon fill="#191970" stroke="#191970" points="924.7102,-200.9036 930.0589,-191.7579 920.1744,-195.5719 924.7102,-200.9036"/>
</g>
<!-- Node4 -->
<g id="node5" class="node">
<title>Node4</title>
<g id="a_node5"><a xlink:href="BluetoothManager_8h.html" target="_top" xlink:title="BluetoothManager.h">
<polygon fill="#ffffff" stroke="#000000" points="992.1005,-57.5 992.1005,-77.5 1098.1325,-77.5 1098.1325,-57.5 992.1005,-57.5"/>
<text text-anchor="middle" x="1045.1165" y="-64.5" font-family="Helvetica,sans-Serif" font-size="10.00" fill="#000000">BluetoothManager.h</text>
</a>
</g>
</g>
<!-- Node0&#45;&gt;Node4 -->
<g id="edge36" class="edge">
<title>Node0&#45;&gt;Node4</title>
<path fill="none" stroke="#191970" d="M890.9645,-292.0401C1051.7136,-284.9235 1391.7775,-267.7323 1409.1165,-249 1503.8065,-146.7007 1236.0258,-94.2476 1108.4799,-75.5952"/>
<polygon fill="#191970" stroke="#191970" points="1108.832,-72.1099 1098.4362,-74.1538 1107.8376,-79.0389 1108.832,-72.1099"/>
</g>
<!-- Node6 -->
<g id="node7" class="node">
<title>Node6</title>
<g id="a_node7"><a xlink:href="BluetoothDefinitions_8h.html" target="_top" xlink:title="BluetoothDefinitions.h">
<polygon fill="#ffffff" stroke="#000000" points="778.492,-114.5 778.492,-134.5 891.741,-134.5 891.741,-114.5 778.492,-114.5"/>
<text text-anchor="middle" x="835.1165" y="-121.5" font-family="Helvetica,sans-Serif" font-size="10.00" fill="#000000">BluetoothDefinitions.h</text>
</a>
</g>
</g>
<!-- Node0&#45;&gt;Node6 -->
<g id="edge35" class="edge">
<title>Node0&#45;&gt;Node6</title>
<path fill="none" stroke="#191970" d="M810.2595,-285.1831C812.1784,-275.7771 815.0068,-261.486 817.1165,-249 823.3324,-212.212 829.2681,-169.0802 832.5294,-144.454"/>
<polygon fill="#191970" stroke="#191970" points="836.0007,-144.9011 833.8311,-134.5308 829.0602,-143.9906 836.0007,-144.9011"/>
</g>
<!-- Node8 -->
<g id="node9" class="node">
<title>Node8</title>
<polygon fill="#ffffff" stroke="#bfbfbf" points="740.4495,-57.5 740.4495,-77.5 789.7835,-77.5 789.7835,-57.5 740.4495,-57.5"/>
<text text-anchor="middle" x="765.1165" y="-64.5" font-family="Helvetica,sans-Serif" font-size="10.00" fill="#000000">fstream</text>
</g>
<!-- Node0&#45;&gt;Node8 -->
<g id="edge41" class="edge">
<title>Node0&#45;&gt;Node8</title>
<path fill="none" stroke="#191970" d="M725.3716,-294.1416C585.4021,-290.9781 314.1928,-280.7762 285.1165,-249 153.3482,-104.9964 598.689,-74.5394 729.8434,-68.7504"/>
<polygon fill="#191970" stroke="#191970" points="730.2953,-72.2346 740.1399,-68.3187 730.002,-65.2408 730.2953,-72.2346"/>
</g>
<!-- Node9 -->
<g id="node10" class="node">
<title>Node9</title>
<polygon fill="#ffffff" stroke="#bfbfbf" points="358.7795,-228.5 358.7795,-248.5 401.4535,-248.5 401.4535,-228.5 358.7795,-228.5"/>
<text text-anchor="middle" x="380.1165" y="-235.5" font-family="Helvetica,sans-Serif" font-size="10.00" fill="#000000">fcntl.h</text>
</g>
<!-- Node0&#45;&gt;Node9 -->
<g id="edge11" class="edge">
<title>Node0&#45;&gt;Node9</title>
<path fill="none" stroke="#191970" d="M725.1486,-290.8683C646.5269,-285.3241 525.1887,-273.7758 411.5469,-248.6625"/>
<polygon fill="#191970" stroke="#191970" points="412.1556,-245.2121 401.6312,-246.4319 410.6192,-252.0414 412.1556,-245.2121"/>
</g>
<!-- Node10 -->
<g id="node11" class="node">
<title>Node10</title>
<polygon fill="#ffffff" stroke="#bfbfbf" points="419.89,-228.5 419.89,-248.5 470.343,-248.5 470.343,-228.5 419.89,-228.5"/>
<text text-anchor="middle" x="445.1165" y="-235.5" font-family="Helvetica,sans-Serif" font-size="10.00" fill="#000000">signal.h</text>
</g>
<!-- Node0&#45;&gt;Node10 -->
<g id="edge12" class="edge">
<title>Node0&#45;&gt;Node10</title>
<path fill="none" stroke="#191970" d="M725.3233,-287.4894C660.8131,-280.3974 568.9387,-268.4379 480.5438,-249.0633"/>
<polygon fill="#191970" stroke="#191970" points="481.1408,-245.6106 470.619,-246.853 479.6191,-252.4432 481.1408,-245.6106"/>
</g>
<!-- Node11 -->
<g id="node12" class="node">
<title>Node11</title>
<polygon fill="#ffffff" stroke="#bfbfbf" points="488.28,-228.5 488.28,-248.5 535.953,-248.5 535.953,-228.5 488.28,-228.5"/>
<text text-anchor="middle" x="512.1165" y="-235.5" font-family="Helvetica,sans-Serif" font-size="10.00" fill="#000000">stdlib.h</text>
</g>
<!-- Node0&#45;&gt;Node11 -->
<g id="edge13" class="edge">
<title>Node0&#45;&gt;Node11</title>
<path fill="none" stroke="#191970" d="M736.4186,-285.4608C685.6241,-277.7404 615.7733,-265.8992 546.0039,-248.9794"/>
<polygon fill="#191970" stroke="#191970" points="546.7083,-245.5484 536.1617,-246.5581 545.036,-252.3457 546.7083,-245.5484"/>
</g>
<!-- Node12 -->
<g id="node13" class="node">
<title>Node12</title>
<polygon fill="#ffffff" stroke="#bfbfbf" points="554.3895,-228.5 554.3895,-248.5 599.8435,-248.5 599.8435,-228.5 554.3895,-228.5"/>
<text text-anchor="middle" x="577.1165" y="-235.5" font-family="Helvetica,sans-Serif" font-size="10.00" fill="#000000">stdio.h</text>
</g>
<!-- Node0&#45;&gt;Node12 -->
<g id="edge14" class="edge">
<title>Node0&#45;&gt;Node12</title>
<path fill="none" stroke="#191970" d="M759.9675,-285.4861C721.6915,-277.2468 666.6177,-264.7739 609.9608,-249.0706"/>
<polygon fill="#191970" stroke="#191970" points="610.6882,-245.6397 600.1148,-246.3129 608.8003,-252.3803 610.6882,-245.6397"/>
</g>
<!-- Node13 -->
<g id="node14" class="node">
<title>Node13</title>
<polygon fill="#ffffff" stroke="#bfbfbf" points="617.725,-228.5 617.725,-248.5 666.508,-248.5 666.508,-228.5 617.725,-228.5"/>
<text text-anchor="middle" x="642.1165" y="-235.5" font-family="Helvetica,sans-Serif" font-size="10.00" fill="#000000">string.h</text>
</g>
<!-- Node0&#45;&gt;Node13 -->
<g id="edge15" class="edge">
<title>Node0&#45;&gt;Node13</title>
<path fill="none" stroke="#191970" d="M778.8211,-285.4408C750.1382,-275.5918 706.4598,-260.5938 676.2277,-250.2129"/>
<polygon fill="#191970" stroke="#191970" points="677.1263,-246.8209 666.5316,-246.8835 674.8529,-253.4415 677.1263,-246.8209"/>
</g>
<!-- Node14 -->
<g id="node15" class="node">
<title>Node14</title>
<polygon fill="#ffffff" stroke="#bfbfbf" points="684.61,-228.5 684.61,-248.5 735.623,-248.5 735.623,-228.5 684.61,-228.5"/>
<text text-anchor="middle" x="710.1165" y="-235.5" font-family="Helvetica,sans-Serif" font-size="10.00" fill="#000000">unistd.h</text>
</g>
<!-- Node0&#45;&gt;Node14 -->
<g id="edge16" class="edge">
<title>Node0&#45;&gt;Node14</title>
<path fill="none" stroke="#191970" d="M790.5961,-285.3095C775.5453,-276.5556 753.6232,-263.8049 736.4581,-253.8211"/>
<polygon fill="#191970" stroke="#191970" points="737.8892,-250.6046 727.4853,-248.6022 734.3697,-256.6555 737.8892,-250.6046"/>
</g>
<!-- Node15 -->
<g id="node16" class="node">
<title>Node15</title>
<g id="a_node16"><a xlink:href="Input_8h.html" target="_top" xlink:title="Input.h">
<polygon fill="#ffffff" stroke="#000000" points="293.83,-228.5 293.83,-248.5 340.403,-248.5 340.403,-228.5 293.83,-228.5"/>
<text text-anchor="middle" x="317.1165" y="-235.5" font-family="Helvetica,sans-Serif" font-size="10.00" fill="#000000">Input.h</text>
</a>
</g>
</g>
<!-- Node0&#45;&gt;Node15 -->
<g id="edge17" class="edge">
<title>Node0&#45;&gt;Node15</title>
<path fill="none" stroke="#191970" d="M725.0101,-292.2297C634.895,-287.5198 486.878,-276.3968 350.9355,-248.7713"/>
<polygon fill="#191970" stroke="#191970" points="351.255,-245.2634 340.7534,-246.6662 349.8376,-252.1184 351.255,-245.2634"/>
</g>
<!-- Node17 -->
<g id="node18" class="node">
<title>Node17</title>
<g id="a_node18"><a xlink:href="MotorControl_8h.html" target="_top" xlink:title="MotorControl.h">
<polygon fill="#ffffff" stroke="#000000" points="87.0585,-171.5 87.0585,-191.5 169.1745,-191.5 169.1745,-171.5 87.0585,-171.5"/>
<text text-anchor="middle" x="128.1165" y="-178.5" font-family="Helvetica,sans-Serif" font-size="10.00" fill="#000000">MotorControl.h</text>
</a>
</g>
</g>
<!-- Node0&#45;&gt;Node17 -->
<g id="edge21" class="edge">
<title>Node0&#45;&gt;Node17</title>
<path fill="none" stroke="#191970" d="M725.3349,-294.9217C557.8656,-293.004 190.9974,-284.7266 147.1165,-249 133.2902,-237.743 129.0651,-217.2745 127.981,-201.8183"/>
<polygon fill="#191970" stroke="#191970" points="131.4738,-201.5353 127.6543,-191.6529 124.4774,-201.7602 131.4738,-201.5353"/>
</g>
<!-- Node22 -->
<g id="node23" class="node">
<title>Node22</title>
<g id="a_node23"><a xlink:href="ServoControl_8h.html" target="_top" xlink:title="ServoControl.h">
<polygon fill="#ffffff" stroke="#000000" points="155.778,-228.5 155.778,-248.5 238.455,-248.5 238.455,-228.5 155.778,-228.5"/>
<text text-anchor="middle" x="197.1165" y="-235.5" font-family="Helvetica,sans-Serif" font-size="10.00" fill="#000000">ServoControl.h</text>
</a>
</g>
</g>
<!-- Node0&#45;&gt;Node22 -->
<g id="edge26" class="edge">
<title>Node0&#45;&gt;Node22</title>
<path fill="none" stroke="#191970" d="M724.9232,-291.2793C615.951,-285.1253 419.104,-271.858 252.1165,-249 251.0089,-248.8484 249.8898,-248.6892 248.7626,-248.5234"/>
<polygon fill="#191970" stroke="#191970" points="248.9106,-245.0028 238.4835,-246.8805 247.8057,-251.915 248.9106,-245.0028"/>
</g>
<!-- Node23 -->
<g id="node24" class="node">
<title>Node23</title>
<g id="a_node24"><a xlink:href="Output_8h.html" target="_top" xlink:title="Output.h">
<polygon fill="#ffffff" stroke="#000000" points="753.9405,-228.5 753.9405,-248.5 808.2925,-248.5 808.2925,-228.5 753.9405,-228.5"/>
<text text-anchor="middle" x="781.1165" y="-235.5" font-family="Helvetica,sans-Serif" font-size="10.00" fill="#000000">Output.h</text>
</a>
</g>
</g>
<!-- Node0&#45;&gt;Node23 -->
<g id="edge28" class="edge">
<title>Node0&#45;&gt;Node23</title>
<path fill="none" stroke="#191970" d="M803.2894,-285.3095C799.6803,-277.6903 794.6371,-267.0435 790.2721,-257.8285"/>
<polygon fill="#191970" stroke="#191970" points="793.3458,-256.1413 785.9018,-248.6022 787.0196,-259.1379 793.3458,-256.1413"/>
</g>
<!-- Node24 -->
<g id="node25" class="node">
<title>Node24</title>
<g id="a_node25"><a xlink:href="InputList_8h.html" target="_top" xlink:title="InputList.h">
<polygon fill="#ffffff" stroke="#000000" points="988.0515,-228.5 988.0515,-248.5 1050.1815,-248.5 1050.1815,-228.5 988.0515,-228.5"/>
<text text-anchor="middle" x="1019.1165" y="-235.5" font-family="Helvetica,sans-Serif" font-size="10.00" fill="#000000">InputList.h</text>
</a>
</g>
</g>
<!-- Node0&#45;&gt;Node24 -->
<g id="edge30" class="edge">
<title>Node0&#45;&gt;Node24</title>
<path fill="none" stroke="#191970" d="M845.3534,-285.4408C882.4957,-275.407 939.4206,-260.0292 977.9028,-249.6336"/>
<polygon fill="#191970" stroke="#191970" points="979.009,-252.9603 987.7502,-246.9734 977.1834,-246.2025 979.009,-252.9603"/>
</g>
<!-- Node25 -->
<g id="node26" class="node">
<title>Node25</title>
<g id="a_node26"><a xlink:href="OutputList_8h.html" target="_top" xlink:title="OutputList.h">
<polygon fill="#ffffff" stroke="#000000" points="1068.162,-228.5 1068.162,-248.5 1138.071,-248.5 1138.071,-228.5 1068.162,-228.5"/>
<text text-anchor="middle" x="1103.1165" y="-235.5" font-family="Helvetica,sans-Serif" font-size="10.00" fill="#000000">OutputList.h</text>
</a>
</g>
</g>
<!-- Node0&#45;&gt;Node25 -->
<g id="edge31" class="edge">
<title>Node0&#45;&gt;Node25</title>
<path fill="none" stroke="#191970" d="M866.8609,-285.4914C915.5456,-276.9976 986.7888,-264.1112 1058.0373,-249.1535"/>
<polygon fill="#191970" stroke="#191970" points="1059.0283,-252.5215 1068.0885,-247.0294 1057.5809,-245.6727 1059.0283,-252.5215"/>
</g>
<!-- Node26 -->
<g id="node27" class="node">
<title>Node26</title>
<g id="a_node27"><a xlink:href="ServoList_8h.html" target="_top" xlink:title="ServoList.h">
<polygon fill="#ffffff" stroke="#000000" points="1156.111,-228.5 1156.111,-248.5 1222.122,-248.5 1222.122,-228.5 1156.111,-228.5"/>
<text text-anchor="middle" x="1189.1165" y="-235.5" font-family="Helvetica,sans-Serif" font-size="10.00" fill="#000000">ServoList.h</text>
</a>
</g>
</g>
<!-- Node0&#45;&gt;Node26 -->
<g id="edge32" class="edge">
<title>Node0&#45;&gt;Node26</title>
<path fill="none" stroke="#191970" d="M891.0759,-286.6709C957.541,-279.009 1053.3325,-266.6516 1145.6436,-249.1328"/>
<polygon fill="#191970" stroke="#191970" points="1146.5588,-252.5211 1155.7188,-247.1972 1145.2381,-245.6468 1146.5588,-252.5211"/>
</g>
<!-- Node27 -->
<g id="node28" class="node">
<title>Node27</title>
<g id="a_node28"><a xlink:href="IOFactory_8h.html" target="_top" xlink:title="IOFactory.h">
<polygon fill="#ffffff" stroke="#000000" points="902.001,-228.5 902.001,-248.5 970.232,-248.5 970.232,-228.5 902.001,-228.5"/>
<text text-anchor="middle" x="936.1165" y="-235.5" font-family="Helvetica,sans-Serif" font-size="10.00" fill="#000000">IOFactory.h</text>
</a>
</g>
</g>
<!-- Node0&#45;&gt;Node27 -->
<g id="edge33" class="edge">
<title>Node0&#45;&gt;Node27</title>
<path fill="none" stroke="#191970" d="M830.7057,-285.4408C851.0525,-276.3801 881.1853,-262.9615 904.0287,-252.7891"/>
<polygon fill="#191970" stroke="#191970" points="905.6112,-255.9158 913.3226,-248.6504 902.7636,-249.5212 905.6112,-255.9158"/>
</g>
<!-- Node28 -->
<g id="node29" class="node">
<title>Node28</title>
<g id="a_node29"><a xlink:href="CommunicationProtocolParser_8h.html" target="_top" xlink:title="CommunicationProtocolParser.h">
<polygon fill="#ffffff" stroke="#000000" points="1240.1645,-228.5 1240.1645,-248.5 1400.0685,-248.5 1400.0685,-228.5 1240.1645,-228.5"/>
<text text-anchor="middle" x="1320.1165" y="-235.5" font-family="Helvetica,sans-Serif" font-size="10.00" fill="#000000">CommunicationProtocolParser.h</text>
</a>
</g>
</g>
<!-- Node0&#45;&gt;Node28 -->
<g id="edge37" class="edge">
<title>Node0&#45;&gt;Node28</title>
<path fill="none" stroke="#191970" d="M891.2106,-286.5627C974.2727,-277.5837 1105.9505,-263.2276 1230.0056,-249.12"/>
<polygon fill="#191970" stroke="#191970" points="1230.5266,-252.5834 1240.0664,-247.9745 1229.7347,-245.6283 1230.5266,-252.5834"/>
</g>
<!-- Node29 -->
<g id="node30" class="node">
<title>Node29</title>
<polygon fill="#ffffff" stroke="#bfbfbf" points="1456.5045,-228.5 1456.5045,-248.5 1499.7285,-248.5 1499.7285,-228.5 1456.5045,-228.5"/>
<text text-anchor="middle" x="1478.1165" y="-235.5" font-family="Helvetica,sans-Serif" font-size="10.00" fill="#000000">time.h</text>
</g>
<!-- Node0&#45;&gt;Node29 -->
<g id="edge39" class="edge">
<title>Node0&#45;&gt;Node29</title>
<path fill="none" stroke="#191970" d="M891.0734,-291.5912C1038.1035,-284.3005 1338.6641,-267.6653 1442.1165,-249 1443.5581,-248.7399 1445.0243,-248.4444 1446.4998,-248.1218"/>
<polygon fill="#191970" stroke="#191970" points="1447.3597,-251.5146 1456.2069,-245.6856 1445.6557,-244.7251 1447.3597,-251.5146"/>
</g>
<!-- Node30 -->
<g id="node31" class="node">
<title>Node30</title>
<polygon fill="#ffffff" stroke="#bfbfbf" points="1517.339,-228.5 1517.339,-248.5 1568.894,-248.5 1568.894,-228.5 1517.339,-228.5"/>
<text text-anchor="middle" x="1543.1165" y="-235.5" font-family="Helvetica,sans-Serif" font-size="10.00" fill="#000000">sstream</text>
</g>
<!-- Node0&#45;&gt;Node30 -->
<g id="edge40" class="edge">
<title>Node0&#45;&gt;Node30</title>
<path fill="none" stroke="#191970" d="M891.0803,-292.4249C1046.1557,-286.286 1375.5012,-271.3033 1507.3847,-248.9232"/>
<polygon fill="#191970" stroke="#191970" points="1508.0529,-252.3593 1517.2836,-247.159 1506.8246,-245.4679 1508.0529,-252.3593"/>
</g>
<!-- Node31 -->
<g id="node32" class="node">
<title>Node31</title>
<polygon fill="#ffffff" stroke="#bfbfbf" points="1586.949,-228.5 1586.949,-248.5 1631.284,-248.5 1631.284,-228.5 1586.949,-228.5"/>
<text text-anchor="middle" x="1609.1165" y="-235.5" font-family="Helvetica,sans-Serif" font-size="10.00" fill="#000000">iosfwd</text>
</g>
<!-- Node0&#45;&gt;Node31 -->
<g id="edge42" class="edge">
<title>Node0&#45;&gt;Node31</title>
<path fill="none" stroke="#191970" d="M891.0083,-293.2794C1057.9714,-288.3613 1430.5763,-275.0213 1576.5089,-248.8038"/>
<polygon fill="#191970" stroke="#191970" points="1577.442,-252.1895 1586.6184,-246.8938 1576.1424,-245.3112 1577.442,-252.1895"/>
</g>
<!-- Node2 -->
<g id="node3" class="node">
<title>Node2</title>
<polygon fill="#ffffff" stroke="#bfbfbf" points="1115.5035,-114.5 1115.5035,-134.5 1158.7295,-134.5 1158.7295,-114.5 1115.5035,-114.5"/>
<text text-anchor="middle" x="1137.1165" y="-121.5" font-family="Helvetica,sans-Serif" font-size="10.00" fill="#000000">vector</text>
</g>
<!-- Node1&#45;&gt;Node2 -->
<g id="edge2" class="edge">
<title>Node1&#45;&gt;Node2</title>
<path fill="none" stroke="#191970" d="M980.3257,-171.453C1011.7977,-163.0169 1057.7804,-150.3252 1105.6241,-135.3638"/>
<polygon fill="#191970" stroke="#191970" points="1106.7282,-138.6856 1115.2139,-132.3419 1104.6243,-132.0093 1106.7282,-138.6856"/>
</g>
<!-- Node3 -->
<g id="node4" class="node">
<title>Node3</title>
<g id="a_node4"><a xlink:href="BluetoothInterface_8h.html" target="_top" xlink:title="BluetoothInterface.h">
<polygon fill="#ffffff" stroke="#000000" points="992.376,-114.5 992.376,-134.5 1097.857,-134.5 1097.857,-114.5 992.376,-114.5"/>
<text text-anchor="middle" x="1045.1165" y="-121.5" font-family="Helvetica,sans-Serif" font-size="10.00" fill="#000000">BluetoothInterface.h</text>
</a>
</g>
</g>
<!-- Node1&#45;&gt;Node3 -->
<g id="edge3" class="edge">
<title>Node1&#45;&gt;Node3</title>
<path fill="none" stroke="#191970" d="M960.5308,-171.3095C976.4959,-162.4745 999.8174,-149.5684 1017.9308,-139.5445"/>
<polygon fill="#191970" stroke="#191970" points="1019.8067,-142.5066 1026.8616,-134.6022 1016.4173,-136.3819 1019.8067,-142.5066"/>
</g>
<!-- Node1&#45;&gt;Node6 -->
<g id="edge6" class="edge">
<title>Node1&#45;&gt;Node6</title>
<path fill="none" stroke="#191970" d="M922.987,-171.3095C906.3259,-162.434 881.9523,-149.4499 863.0994,-139.4068"/>
<polygon fill="#191970" stroke="#191970" points="864.5517,-136.2148 854.0803,-134.6022 861.2606,-142.3929 864.5517,-136.2148"/>
</g>
<!-- Node7 -->
<g id="node8" class="node">
<title>Node7</title>
<g id="a_node8"><a xlink:href="UserLED_8h.html" target="_top" xlink:title="UserLED.h">
<polygon fill="#ffffff" stroke="#000000" points="909.6705,-114.5 909.6705,-134.5 974.5625,-134.5 974.5625,-114.5 909.6705,-114.5"/>
<text text-anchor="middle" x="942.1165" y="-121.5" font-family="Helvetica,sans-Serif" font-size="10.00" fill="#000000">UserLED.h</text>
</a>
</g>
</g>
<!-- Node1&#45;&gt;Node7 -->
<g id="edge8" class="edge">
<title>Node1&#45;&gt;Node7</title>
<path fill="none" stroke="#191970" d="M942.1165,-171.3095C942.1165,-163.9335 942.1165,-153.72 942.1165,-144.715"/>
<polygon fill="#191970" stroke="#191970" points="945.6166,-144.6022 942.1165,-134.6022 938.6166,-144.6023 945.6166,-144.6022"/>
</g>
<!-- Node3&#45;&gt;Node4 -->
<g id="edge4" class="edge">
<title>Node3&#45;&gt;Node4</title>
<path fill="none" stroke="#191970" d="M1045.1165,-114.3095C1045.1165,-106.9335 1045.1165,-96.72 1045.1165,-87.715"/>
<polygon fill="#191970" stroke="#191970" points="1048.6166,-87.6022 1045.1165,-77.6022 1041.6166,-87.6023 1048.6166,-87.6022"/>
</g>
<!-- Node5 -->
<g id="node6" class="node">
<title>Node5</title>
<polygon fill="#ffffff" stroke="#bfbfbf" points="867.894,-.5 867.894,-20.5 908.339,-20.5 908.339,-.5 867.894,-.5"/>
<text text-anchor="middle" x="888.1165" y="-7.5" font-family="Helvetica,sans-Serif" font-size="10.00" fill="#000000">string</text>
</g>
<!-- Node4&#45;&gt;Node5 -->
<g id="edge5" class="edge">
<title>Node4&#45;&gt;Node5</title>
<path fill="none" stroke="#191970" d="M1017.4095,-57.4408C989.5334,-47.3201 946.6816,-31.7625 918.0418,-21.3646"/>
<polygon fill="#191970" stroke="#191970" points="919.1463,-18.0421 908.5522,-17.9193 916.7574,-24.6219 919.1463,-18.0421"/>
</g>
<!-- Node6&#45;&gt;Node5 -->
<g id="edge7" class="edge">
<title>Node6&#45;&gt;Node5</title>
<path fill="none" stroke="#191970" d="M839.8199,-114.3833C848.5982,-95.5017 867.6148,-54.598 878.9916,-30.1272"/>
<polygon fill="#191970" stroke="#191970" points="882.3054,-31.3014 883.3475,-20.7579 875.9578,-28.3503 882.3054,-31.3014"/>
</g>
<!-- Node7&#45;&gt;Node5 -->
<g id="edge9" class="edge">
<title>Node7&#45;&gt;Node5</title>
<path fill="none" stroke="#191970" d="M937.3244,-114.3833C928.3405,-95.4174 908.8318,-54.2323 897.2588,-29.8004"/>
<polygon fill="#191970" stroke="#191970" points="900.4195,-28.297 892.9755,-20.7579 894.0934,-31.2937 900.4195,-28.297"/>
</g>
<!-- Node7&#45;&gt;Node8 -->
<g id="edge10" class="edge">
<title>Node7&#45;&gt;Node8</title>
<path fill="none" stroke="#191970" d="M910.8799,-114.4408C879.8051,-104.4336 832.2234,-89.1107 799.9461,-78.7163"/>
<polygon fill="#191970" stroke="#191970" points="800.6361,-75.2616 790.0446,-75.5277 798.4903,-81.9246 800.6361,-75.2616"/>
</g>
<!-- Node16 -->
<g id="node17" class="node">
<title>Node16</title>
<g id="a_node17"><a xlink:href="IOBase_8h.html" target="_top" xlink:title="IOBase.h">
<polygon fill="#ffffff" stroke="#000000" points="702.275,-171.5 702.275,-191.5 759.958,-191.5 759.958,-171.5 702.275,-171.5"/>
<text text-anchor="middle" x="731.1165" y="-178.5" font-family="Helvetica,sans-Serif" font-size="10.00" fill="#000000">IOBase.h</text>
</a>
</g>
</g>
<!-- Node15&#45;&gt;Node16 -->
<g id="edge18" class="edge">
<title>Node15&#45;&gt;Node16</title>
<path fill="none" stroke="#191970" d="M340.4061,-230.4968C343.6424,-229.559 346.9445,-228.6919 350.1165,-228 473.3512,-201.1209 622.6399,-188.5687 692.0829,-183.8517"/>
<polygon fill="#191970" stroke="#191970" points="692.385,-187.3395 702.1318,-183.1864 691.9224,-180.3548 692.385,-187.3395"/>
</g>
<!-- Node16&#45;&gt;Node5 -->
<g id="edge19" class="edge">
<title>Node16&#45;&gt;Node5</title>
<path fill="none" stroke="#191970" d="M727.4034,-171.2062C719.8003,-148.1425 705.2509,-91.6371 731.1165,-57 746.2942,-36.6753 816.6104,-22.09 857.8117,-15.1195"/>
<polygon fill="#191970" stroke="#191970" points="858.5517,-18.545 867.8538,-13.4735 857.4193,-11.6372 858.5517,-18.545"/>
</g>
<!-- Node16&#45;&gt;Node8 -->
<g id="edge20" class="edge">
<title>Node16&#45;&gt;Node8</title>
<path fill="none" stroke="#191970" d="M734.1338,-171.3833C739.74,-152.586 751.8557,-111.9627 759.1647,-87.4559"/>
<polygon fill="#191970" stroke="#191970" points="762.553,-88.3412 762.0571,-77.7579 755.845,-86.3405 762.553,-88.3412"/>
</g>
<!-- Node18 -->
<g id="node19" class="node">
<title>Node18</title>
<polygon fill="#ffffff" stroke="#bfbfbf" points="0,-114.5 0,-134.5 48.233,-134.5 48.233,-114.5 0,-114.5"/>
<text text-anchor="middle" x="24.1165" y="-121.5" font-family="Helvetica,sans-Serif" font-size="10.00" fill="#000000">stdint.h</text>
</g>
<!-- Node17&#45;&gt;Node18 -->
<g id="edge22" class="edge">
<title>Node17&#45;&gt;Node18</title>
<path fill="none" stroke="#191970" d="M109.5234,-171.3095C93.4033,-162.4745 69.8554,-149.5684 51.5662,-139.5445"/>
<polygon fill="#191970" stroke="#191970" points="53.0001,-136.3393 42.5486,-134.6022 49.6357,-142.4778 53.0001,-136.3393"/>
</g>
<!-- Node19 -->
<g id="node20" class="node">
<title>Node19</title>
<polygon fill="#ffffff" stroke="#bfbfbf" points="179.996,-114.5 179.996,-134.5 238.237,-134.5 238.237,-114.5 179.996,-114.5"/>
<text text-anchor="middle" x="209.1165" y="-121.5" font-family="Helvetica,sans-Serif" font-size="10.00" fill="#000000">pthread.h</text>
</g>
<!-- Node17&#45;&gt;Node19 -->
<g id="edge23" class="edge">
<title>Node17&#45;&gt;Node19</title>
<path fill="none" stroke="#191970" d="M142.5977,-171.3095C154.8072,-162.7177 172.4878,-150.2758 186.5522,-140.3786"/>
<polygon fill="#191970" stroke="#191970" points="188.5969,-143.2195 194.7607,-134.6022 184.5684,-137.4949 188.5969,-143.2195"/>
</g>
<!-- Node20 -->
<g id="node21" class="node">
<title>Node20</title>
<g id="a_node21"><a xlink:href="LinearConverter_8h.html" target="_top" xlink:title="LinearConverter.h">
<polygon fill="#ffffff" stroke="#000000" points="66.1095,-114.5 66.1095,-134.5 162.1235,-134.5 162.1235,-114.5 66.1095,-114.5"/>
<text text-anchor="middle" x="114.1165" y="-121.5" font-family="Helvetica,sans-Serif" font-size="10.00" fill="#000000">LinearConverter.h</text>
</a>
</g>
</g>
<!-- Node17&#45;&gt;Node20 -->
<g id="edge24" class="edge">
<title>Node17&#45;&gt;Node20</title>
<path fill="none" stroke="#191970" d="M125.6136,-171.3095C123.782,-163.8524 121.2381,-153.4951 119.0088,-144.4186"/>
<polygon fill="#191970" stroke="#191970" points="122.3821,-143.4787 116.5978,-134.6022 115.5841,-145.1485 122.3821,-143.4787"/>
</g>
<!-- Node21 -->
<g id="node22" class="node">
<title>Node21</title>
<g id="a_node22"><a xlink:href="Range_8h.html" target="_top" xlink:title="Range.h">
<polygon fill="#ffffff" stroke="#000000" points="87.22,-57.5 87.22,-77.5 141.013,-77.5 141.013,-57.5 87.22,-57.5"/>
<text text-anchor="middle" x="114.1165" y="-64.5" font-family="Helvetica,sans-Serif" font-size="10.00" fill="#000000">Range.h</text>
</a>
</g>
</g>
<!-- Node20&#45;&gt;Node21 -->
<g id="edge25" class="edge">
<title>Node20&#45;&gt;Node21</title>
<path fill="none" stroke="#191970" d="M114.1165,-114.3095C114.1165,-106.9335 114.1165,-96.72 114.1165,-87.715"/>
<polygon fill="#191970" stroke="#191970" points="117.6166,-87.6022 114.1165,-77.6022 110.6166,-87.6023 117.6166,-87.6022"/>
</g>
<!-- Node22&#45;&gt;Node17 -->
<g id="edge27" class="edge">
<title>Node22&#45;&gt;Node17</title>
<path fill="none" stroke="#191970" d="M184.7807,-228.3095C174.6743,-219.9608 160.1675,-207.9769 148.3624,-198.2249"/>
<polygon fill="#191970" stroke="#191970" points="150.2843,-195.2727 140.3455,-191.6022 145.8261,-200.6695 150.2843,-195.2727"/>
</g>
<!-- Node23&#45;&gt;Node16 -->
<g id="edge29" class="edge">
<title>Node23&#45;&gt;Node16</title>
<path fill="none" stroke="#191970" d="M772.1775,-228.3095C765.1385,-220.2851 755.1536,-208.9022 746.7927,-199.3708"/>
<polygon fill="#191970" stroke="#191970" points="749.2037,-196.8118 739.9781,-191.6022 743.9414,-201.4279 749.2037,-196.8118"/>
</g>
<!-- Node27&#45;&gt;Node1 -->
<g id="edge34" class="edge">
<title>Node27&#45;&gt;Node1</title>
<path fill="none" stroke="#191970" d="M937.1892,-228.3095C937.9656,-220.9335 939.0407,-210.72 939.9886,-201.715"/>
<polygon fill="#191970" stroke="#191970" points="943.4869,-201.9137 941.0531,-191.6022 936.5254,-201.1809 943.4869,-201.9137"/>
</g>
<!-- Node28&#45;&gt;Node1 -->
<g id="edge38" class="edge">
<title>Node28&#45;&gt;Node1</title>
<path fill="none" stroke="#191970" d="M1253.4078,-228.4408C1187.6532,-218.5254 1087.2901,-203.3913 1018.4028,-193.0035"/>
<polygon fill="#191970" stroke="#191970" points="1018.8855,-189.5368 1008.4754,-191.5065 1017.8417,-196.4585 1018.8855,-189.5368"/>
</g>
</g>
</svg>
