<?xml version="1.0" encoding="UTF-8" standalone="no"?>
<!DOCTYPE svg PUBLIC "-//W3C//DTD SVG 1.1//EN"
 "http://www.w3.org/Graphics/SVG/1.1/DTD/svg11.dtd">
<!-- Generated by graphviz version 2.40.1 (20161225.0304)
 -->
<!-- Title: BoeingSurfaceVehicleControl.cpp Pages: 1 -->
<svg width="1143pt" height="314pt"
 viewBox="0.00 0.00 1143.40 314.00" xmlns="http://www.w3.org/2000/svg" xmlns:xlink="http://www.w3.org/1999/xlink">
<g id="graph0" class="graph" transform="scale(1 1) rotate(0) translate(4 310)">
<title>BoeingSurfaceVehicleControl.cpp</title>
<polygon fill="#ffffff" stroke="transparent" points="-4,4 -4,-310 1139.403,-310 1139.403,4 -4,4"/>
<!-- Node0 -->
<g id="node1" class="node">
<title>Node0</title>
<polygon fill="#bfbfbf" stroke="#000000" points="490.5455,-285.5 490.5455,-305.5 656.0275,-305.5 656.0275,-285.5 490.5455,-285.5"/>
<text text-anchor="middle" x="573.2865" y="-292.5" font-family="Helvetica,sans-Serif" font-size="10.00" fill="#000000">BoeingSurfaceVehicleControl.cpp</text>
</g>
<!-- Node1 -->
<g id="node2" class="node">
<title>Node1</title>
<g id="a_node2"><a xlink:href="BoeingSurfaceVehicleControl_8h.html" target="_top" xlink:title="BoeingSurfaceVehicleControl.h">
<polygon fill="#ffffff" stroke="#000000" points="463.825,-171.5 463.825,-191.5 618.748,-191.5 618.748,-171.5 463.825,-171.5"/>
<text text-anchor="middle" x="541.2865" y="-178.5" font-family="Helvetica,sans-Serif" font-size="10.00" fill="#000000">BoeingSurfaceVehicleControl.h</text>
</a>
</g>
</g>
<!-- Node0&#45;&gt;Node1 -->
<g id="edge1" class="edge">
<title>Node0&#45;&gt;Node1</title>
<path fill="none" stroke="#191970" d="M585.0365,-285.4243C598.9388,-272.221 618.9346,-248.3515 608.2865,-228 601.2087,-214.4725 588.2067,-204.0909 575.5267,-196.6052"/>
<polygon fill="#191970" stroke="#191970" points="576.8969,-193.3662 566.4399,-191.6625 573.5521,-199.5154 576.8969,-193.3662"/>
</g>
<!-- Node4 -->
<g id="node5" class="node">
<title>Node4</title>
<g id="a_node5"><a xlink:href="BluetoothManager_8h.html" target="_top" xlink:title="BluetoothManager.h">
<polygon fill="#ffffff" stroke="#000000" points="470.2705,-57.5 470.2705,-77.5 576.3025,-77.5 576.3025,-57.5 470.2705,-57.5"/>
<text text-anchor="middle" x="523.2865" y="-64.5" font-family="Helvetica,sans-Serif" font-size="10.00" fill="#000000">BluetoothManager.h</text>
</a>
</g>
</g>
<!-- Node0&#45;&gt;Node4 -->
<g id="edge36" class="edge">
<title>Node0&#45;&gt;Node4</title>
<path fill="none" stroke="#191970" d="M589.1842,-285.2283C600.7654,-276.881 615.8472,-264.0493 624.2865,-249 654.0208,-195.9766 680.8463,-164.0123 646.2865,-114 637.5413,-101.3447 603.917,-89.1272 574.0312,-80.3937"/>
<polygon fill="#191970" stroke="#191970" points="574.6563,-76.933 564.0807,-77.5699 572.7453,-83.6671 574.6563,-76.933"/>
</g>
<!-- Node6 -->
<g id="node7" class="node">
<title>Node6</title>
<g id="a_node7"><a xlink:href="BluetoothDefinitions_8h.html" target="_top" xlink:title="BluetoothDefinitions.h">
<polygon fill="#ffffff" stroke="#000000" points="693.662,-114.5 693.662,-134.5 806.911,-134.5 806.911,-114.5 693.662,-114.5"/>
<text text-anchor="middle" x="750.2865" y="-121.5" font-family="Helvetica,sans-Serif" font-size="10.00" fill="#000000">BluetoothDefinitions.h</text>
</a>
</g>
</g>
<!-- Node0&#45;&gt;Node6 -->
<g id="edge35" class="edge">
<title>Node0&#45;&gt;Node6</title>
<path fill="none" stroke="#191970" d="M610.9342,-285.4977C632.8397,-278.197 659.8709,-266.479 679.2865,-249 712.1006,-219.4588 733.5368,-171.0542 743.6026,-144.1294"/>
<polygon fill="#191970" stroke="#191970" points="746.9256,-145.2315 747.0101,-134.637 740.3373,-142.8665 746.9256,-145.2315"/>
</g>
<!-- Node9 -->
<g id="node10" class="node">
<title>Node9</title>
<polygon fill="#ffffff" stroke="#bfbfbf" points="221.9495,-228.5 221.9495,-248.5 264.6235,-248.5 264.6235,-228.5 221.9495,-228.5"/>
<text text-anchor="middle" x="243.2865" y="-235.5" font-family="Helvetica,sans-Serif" font-size="10.00" fill="#000000">fcntl.h</text>
</g>
<!-- Node0&#45;&gt;Node9 -->
<g id="edge11" class="edge">
<title>Node0&#45;&gt;Node9</title>
<path fill="none" stroke="#191970" d="M490.3578,-286.4978C432.401,-279.3045 353.172,-267.6727 274.8668,-248.7881"/>
<polygon fill="#191970" stroke="#191970" points="275.3723,-245.3084 264.8263,-246.3251 273.7045,-252.1069 275.3723,-245.3084"/>
</g>
<!-- Node10 -->
<g id="node11" class="node">
<title>Node10</title>
<polygon fill="#ffffff" stroke="#bfbfbf" points="283.06,-228.5 283.06,-248.5 333.513,-248.5 333.513,-228.5 283.06,-228.5"/>
<text text-anchor="middle" x="308.2865" y="-235.5" font-family="Helvetica,sans-Serif" font-size="10.00" fill="#000000">signal.h</text>
</g>
<!-- Node0&#45;&gt;Node10 -->
<g id="edge12" class="edge">
<title>Node0&#45;&gt;Node10</title>
<path fill="none" stroke="#191970" d="M515.011,-285.4514C470.3738,-277.3712 407.1105,-265.096 343.6071,-249.1717"/>
<polygon fill="#191970" stroke="#191970" points="344.3815,-245.7574 333.8279,-246.6905 342.66,-252.5424 344.3815,-245.7574"/>
</g>
<!-- Node11 -->
<g id="node12" class="node">
<title>Node11</title>
<polygon fill="#ffffff" stroke="#bfbfbf" points="351.45,-228.5 351.45,-248.5 399.123,-248.5 399.123,-228.5 351.45,-228.5"/>
<text text-anchor="middle" x="375.2865" y="-235.5" font-family="Helvetica,sans-Serif" font-size="10.00" fill="#000000">stdlib.h</text>
</g>
<!-- Node0&#45;&gt;Node11 -->
<g id="edge13" class="edge">
<title>Node0&#45;&gt;Node11</title>
<path fill="none" stroke="#191970" d="M536.1588,-285.4175C504.7445,-276.8017 458.3039,-263.8674 409.2502,-249.2273"/>
<polygon fill="#191970" stroke="#191970" points="409.9922,-245.7959 399.4083,-246.2773 407.9823,-252.5012 409.9922,-245.7959"/>
</g>
<!-- Node12 -->
<g id="node13" class="node">
<title>Node12</title>
<polygon fill="#ffffff" stroke="#bfbfbf" points="417.5595,-228.5 417.5595,-248.5 463.0135,-248.5 463.0135,-228.5 417.5595,-228.5"/>
<text text-anchor="middle" x="440.2865" y="-235.5" font-family="Helvetica,sans-Serif" font-size="10.00" fill="#000000">stdio.h</text>
</g>
<!-- Node0&#45;&gt;Node12 -->
<g id="edge14" class="edge">
<title>Node0&#45;&gt;Node12</title>
<path fill="none" stroke="#191970" d="M549.8149,-285.4408C528.3168,-276.2273 496.3045,-262.5077 472.4334,-252.2772"/>
<polygon fill="#191970" stroke="#191970" points="473.6493,-248.9905 463.0791,-248.2683 470.8919,-255.4245 473.6493,-248.9905"/>
</g>
<!-- Node13 -->
<g id="node14" class="node">
<title>Node13</title>
<polygon fill="#ffffff" stroke="#bfbfbf" points="480.895,-228.5 480.895,-248.5 529.678,-248.5 529.678,-228.5 480.895,-228.5"/>
<text text-anchor="middle" x="505.2865" y="-235.5" font-family="Helvetica,sans-Serif" font-size="10.00" fill="#000000">string.h</text>
</g>
<!-- Node0&#45;&gt;Node13 -->
<g id="edge15" class="edge">
<title>Node0&#45;&gt;Node13</title>
<path fill="none" stroke="#191970" d="M561.1295,-285.3095C551.1696,-276.9608 536.873,-264.9769 525.239,-255.2249"/>
<polygon fill="#191970" stroke="#191970" points="527.2504,-252.344 517.3383,-248.6022 522.7536,-257.7086 527.2504,-252.344"/>
</g>
<!-- Node14 -->
<g id="node15" class="node">
<title>Node14</title>
<polygon fill="#ffffff" stroke="#bfbfbf" points="547.78,-228.5 547.78,-248.5 598.793,-248.5 598.793,-228.5 547.78,-228.5"/>
<text text-anchor="middle" x="573.2865" y="-235.5" font-family="Helvetica,sans-Serif" font-size="10.00" fill="#000000">unistd.h</text>
</g>
<!-- Node0&#45;&gt;Node14 -->
<g id="edge16" class="edge">
<title>Node0&#45;&gt;Node14</title>
<path fill="none" stroke="#191970" d="M573.2865,-285.3095C573.2865,-277.9335 573.2865,-267.72 573.2865,-258.715"/>
<polygon fill="#191970" stroke="#191970" points="576.7866,-258.6022 573.2865,-248.6022 569.7866,-258.6023 576.7866,-258.6022"/>
</g>
<!-- Node15 -->
<g id="node16" class="node">
<title>Node15</title>
<g id="a_node16"><a xlink:href="Input_8h.html" target="_top" xlink:title="Input.h">
<polygon fill="#ffffff" stroke="#000000" points="0,-228.5 0,-248.5 46.573,-248.5 46.573,-228.5 0,-228.5"/>
<text text-anchor="middle" x="23.2865" y="-235.5" font-family="Helvetica,sans-Serif" font-size="10.00" fill="#000000">Input.h</text>
</a>
</g>
</g>
<!-- Node0&#45;&gt;Node15 -->
<g id="edge17" class="edge">
<title>Node0&#45;&gt;Node15</title>
<path fill="none" stroke="#191970" d="M490.4298,-290.3654C370.1996,-282.537 152.1662,-266.8241 56.8134,-248.879"/>
<polygon fill="#191970" stroke="#191970" points="57.3797,-245.4232 46.8895,-246.9088 56.0165,-252.2892 57.3797,-245.4232"/>
</g>
<!-- Node17 -->
<g id="node18" class="node">
<title>Node17</title>
<g id="a_node18"><a xlink:href="MotorControl_8h.html" target="_top" xlink:title="MotorControl.h">
<polygon fill="#ffffff" stroke="#000000" points="980.2285,-171.5 980.2285,-191.5 1062.3445,-191.5 1062.3445,-171.5 980.2285,-171.5"/>
<text text-anchor="middle" x="1021.2865" y="-178.5" font-family="Helvetica,sans-Serif" font-size="10.00" fill="#000000">MotorControl.h</text>
</a>
</g>
</g>
<!-- Node0&#45;&gt;Node17 -->
<g id="edge21" class="edge">
<title>Node0&#45;&gt;Node17</title>
<path fill="none" stroke="#191970" d="M656.0474,-293.7866C791.1089,-290.125 1046.7215,-279.2419 1074.2865,-249 1089.6555,-232.1385 1067.6766,-211.2983 1047.5299,-197.2717"/>
<polygon fill="#191970" stroke="#191970" points="1049.3932,-194.3078 1039.1221,-191.7089 1045.5307,-200.1458 1049.3932,-194.3078"/>
</g>
<!-- Node22 -->
<g id="node23" class="node">
<title>Node22</title>
<g id="a_node23"><a xlink:href="ServoControl_8h.html" target="_top" xlink:title="ServoControl.h">
<polygon fill="#ffffff" stroke="#000000" points="730.948,-228.5 730.948,-248.5 813.625,-248.5 813.625,-228.5 730.948,-228.5"/>
<text text-anchor="middle" x="772.2865" y="-235.5" font-family="Helvetica,sans-Serif" font-size="10.00" fill="#000000">ServoControl.h</text>
</a>
</g>
</g>
<!-- Node0&#45;&gt;Node22 -->
<g id="edge26" class="edge">
<title>Node0&#45;&gt;Node22</title>
<path fill="none" stroke="#191970" d="M608.4056,-285.4408C641.5527,-275.9464 691.4054,-261.6669 727.419,-251.3515"/>
<polygon fill="#191970" stroke="#191970" points="728.5347,-254.6727 737.1843,-248.5544 726.6071,-247.9434 728.5347,-254.6727"/>
</g>
<!-- Node23 -->
<g id="node24" class="node">
<title>Node23</title>
<g id="a_node24"><a xlink:href="Output_8h.html" target="_top" xlink:title="Output.h">
<polygon fill="#ffffff" stroke="#000000" points="64.1105,-228.5 64.1105,-248.5 118.4625,-248.5 118.4625,-228.5 64.1105,-228.5"/>
<text text-anchor="middle" x="91.2865" y="-235.5" font-family="Helvetica,sans-Serif" font-size="10.00" fill="#000000">Output.h</text>
</a>
</g>
</g>
<!-- Node0&#45;&gt;Node23 -->
<g id="edge28" class="edge">
<title>Node0&#45;&gt;Node23</title>
<path fill="none" stroke="#191970" d="M490.4252,-291.3288C402.571,-285.8963 259.7523,-274.1838 128.5088,-248.96"/>
<polygon fill="#191970" stroke="#191970" points="129.1639,-245.5219 118.6785,-247.0408 127.8225,-252.3922 129.1639,-245.5219"/>
</g>
<!-- Node24 -->
<g id="node25" class="node">
<title>Node24</title>
<g id="a_node25"><a xlink:href="InputList_8h.html" target="_top" xlink:title="InputList.h">
<polygon fill="#ffffff" stroke="#000000" points="831.2215,-228.5 831.2215,-248.5 893.3515,-248.5 893.3515,-228.5 831.2215,-228.5"/>
<text text-anchor="middle" x="862.2865" y="-235.5" font-family="Helvetica,sans-Serif" font-size="10.00" fill="#000000">InputList.h</text>
</a>
</g>
</g>
<!-- Node0&#45;&gt;Node24 -->
<g id="edge30" class="edge">
<title>Node0&#45;&gt;Node24</title>
<path fill="none" stroke="#191970" d="M633.6598,-285.4806C681.9685,-277.1769 751.6417,-264.5622 821.0989,-249.1602"/>
<polygon fill="#191970" stroke="#191970" points="821.9012,-252.5673 830.8959,-246.9686 820.373,-245.7361 821.9012,-252.5673"/>
</g>
<!-- Node25 -->
<g id="node26" class="node">
<title>Node25</title>
<g id="a_node26"><a xlink:href="OutputList_8h.html" target="_top" xlink:title="OutputList.h">
<polygon fill="#ffffff" stroke="#000000" points="911.332,-228.5 911.332,-248.5 981.241,-248.5 981.241,-228.5 911.332,-228.5"/>
<text text-anchor="middle" x="946.2865" y="-235.5" font-family="Helvetica,sans-Serif" font-size="10.00" fill="#000000">OutputList.h</text>
</a>
</g>
</g>
<!-- Node0&#45;&gt;Node25 -->
<g id="edge31" class="edge">
<title>Node0&#45;&gt;Node25</title>
<path fill="none" stroke="#191970" d="M656.1164,-285.9778C720.4472,-278.0769 812.0647,-265.7249 901.2658,-249.0581"/>
<polygon fill="#191970" stroke="#191970" points="902.1092,-252.4608 911.2858,-247.1655 900.8099,-245.5824 902.1092,-252.4608"/>
</g>
<!-- Node26 -->
<g id="node27" class="node">
<title>Node26</title>
<g id="a_node27"><a xlink:href="ServoList_8h.html" target="_top" xlink:title="ServoList.h">
<polygon fill="#ffffff" stroke="#000000" points="999.281,-228.5 999.281,-248.5 1065.292,-248.5 1065.292,-228.5 999.281,-228.5"/>
<text text-anchor="middle" x="1032.2865" y="-235.5" font-family="Helvetica,sans-Serif" font-size="10.00" fill="#000000">ServoList.h</text>
</a>
</g>
</g>
<!-- Node0&#45;&gt;Node26 -->
<g id="edge32" class="edge">
<title>Node0&#45;&gt;Node26</title>
<path fill="none" stroke="#191970" d="M656.0439,-289.558C738.2148,-282.911 867.8901,-270.4105 988.7338,-249.0932"/>
<polygon fill="#191970" stroke="#191970" points="989.6756,-252.4804 998.9032,-247.2744 988.4432,-245.5897 989.6756,-252.4804"/>
</g>
<!-- Node27 -->
<g id="node28" class="node">
<title>Node27</title>
<g id="a_node28"><a xlink:href="IOFactory_8h.html" target="_top" xlink:title="IOFactory.h">
<polygon fill="#ffffff" stroke="#000000" points="136.171,-228.5 136.171,-248.5 204.402,-248.5 204.402,-228.5 136.171,-228.5"/>
<text text-anchor="middle" x="170.2865" y="-235.5" font-family="Helvetica,sans-Serif" font-size="10.00" fill="#000000">IOFactory.h</text>
</a>
</g>
</g>
<!-- Node0&#45;&gt;Node27 -->
<g id="edge33" class="edge">
<title>Node0&#45;&gt;Node27</title>
<path fill="none" stroke="#191970" d="M490.3058,-287.427C419.4353,-279.9241 314.6315,-267.3928 214.4692,-249.0629"/>
<polygon fill="#191970" stroke="#191970" points="214.9502,-245.5925 204.4799,-247.2124 213.6751,-252.4754 214.9502,-245.5925"/>
</g>
<!-- Node2 -->
<g id="node3" class="node">
<title>Node2</title>
<polygon fill="#ffffff" stroke="#bfbfbf" points="593.6735,-114.5 593.6735,-134.5 636.8995,-134.5 636.8995,-114.5 593.6735,-114.5"/>
<text text-anchor="middle" x="615.2865" y="-121.5" font-family="Helvetica,sans-Serif" font-size="10.00" fill="#000000">vector</text>
</g>
<!-- Node1&#45;&gt;Node2 -->
<g id="edge2" class="edge">
<title>Node1&#45;&gt;Node2</title>
<path fill="none" stroke="#191970" d="M554.5162,-171.3095C565.4601,-162.8798 581.2155,-150.7439 593.9414,-140.9415"/>
<polygon fill="#191970" stroke="#191970" points="596.3849,-143.4773 602.1713,-134.6022 592.1132,-137.9318 596.3849,-143.4773"/>
</g>
<!-- Node3 -->
<g id="node4" class="node">
<title>Node3</title>
<g id="a_node4"><a xlink:href="BluetoothInterface_8h.html" target="_top" xlink:title="BluetoothInterface.h">
<polygon fill="#ffffff" stroke="#000000" points="470.546,-114.5 470.546,-134.5 576.027,-134.5 576.027,-114.5 470.546,-114.5"/>
<text text-anchor="middle" x="523.2865" y="-121.5" font-family="Helvetica,sans-Serif" font-size="10.00" fill="#000000">BluetoothInterface.h</text>
</a>
</g>
</g>
<!-- Node1&#45;&gt;Node3 -->
<g id="edge3" class="edge">
<title>Node1&#45;&gt;Node3</title>
<path fill="none" stroke="#191970" d="M538.0685,-171.3095C535.7136,-163.8524 532.4429,-153.4951 529.5766,-144.4186"/>
<polygon fill="#191970" stroke="#191970" points="532.8256,-143.0841 526.4767,-134.6022 526.1505,-145.192 532.8256,-143.0841"/>
</g>
<!-- Node1&#45;&gt;Node6 -->
<g id="edge6" class="edge">
<title>Node1&#45;&gt;Node6</title>
<path fill="none" stroke="#191970" d="M578.1704,-171.4408C613.132,-161.9058 665.7888,-147.5448 703.6485,-137.2195"/>
<polygon fill="#191970" stroke="#191970" points="704.6937,-140.5623 713.4204,-134.5544 702.8518,-133.809 704.6937,-140.5623"/>
</g>
<!-- Node7 -->
<g id="node8" class="node">
<title>Node7</title>
<g id="a_node8"><a xlink:href="UserLED_8h.html" target="_top" xlink:title="UserLED.h">
<polygon fill="#ffffff" stroke="#000000" points="387.8405,-114.5 387.8405,-134.5 452.7325,-134.5 452.7325,-114.5 387.8405,-114.5"/>
<text text-anchor="middle" x="420.2865" y="-121.5" font-family="Helvetica,sans-Serif" font-size="10.00" fill="#000000">UserLED.h</text>
</a>
</g>
</g>
<!-- Node1&#45;&gt;Node7 -->
<g id="edge8" class="edge">
<title>Node1&#45;&gt;Node7</title>
<path fill="none" stroke="#191970" d="M519.9327,-171.4408C500.7844,-162.4205 472.4678,-149.0813 450.9092,-138.9255"/>
<polygon fill="#191970" stroke="#191970" points="452.3719,-135.7458 441.8339,-134.6504 449.3888,-142.0783 452.3719,-135.7458"/>
</g>
<!-- Node3&#45;&gt;Node4 -->
<g id="edge4" class="edge">
<title>Node3&#45;&gt;Node4</title>
<path fill="none" stroke="#191970" d="M523.2865,-114.3095C523.2865,-106.9335 523.2865,-96.72 523.2865,-87.715"/>
<polygon fill="#191970" stroke="#191970" points="526.7866,-87.6022 523.2865,-77.6022 519.7866,-87.6023 526.7866,-87.6022"/>
</g>
<!-- Node5 -->
<g id="node6" class="node">
<title>Node5</title>
<polygon fill="#ffffff" stroke="#bfbfbf" points="459.064,-.5 459.064,-20.5 499.509,-20.5 499.509,-.5 459.064,-.5"/>
<text text-anchor="middle" x="479.2865" y="-7.5" font-family="Helvetica,sans-Serif" font-size="10.00" fill="#000000">string</text>
</g>
<!-- Node4&#45;&gt;Node5 -->
<g id="edge5" class="edge">
<title>Node4&#45;&gt;Node5</title>
<path fill="none" stroke="#191970" d="M515.4202,-57.3095C509.2884,-49.3661 500.6164,-38.1319 493.3049,-28.6602"/>
<polygon fill="#191970" stroke="#191970" points="495.9658,-26.3795 487.0847,-20.6022 490.4247,-30.6569 495.9658,-26.3795"/>
</g>
<!-- Node6&#45;&gt;Node5 -->
<g id="edge7" class="edge">
<title>Node6&#45;&gt;Node5</title>
<path fill="none" stroke="#191970" d="M726.2371,-114.3833C676.604,-93.5044 562.9591,-45.6981 508.9036,-22.9589"/>
<polygon fill="#191970" stroke="#191970" points="510.1074,-19.6682 499.5326,-19.0168 507.3931,-26.1206 510.1074,-19.6682"/>
</g>
<!-- Node7&#45;&gt;Node5 -->
<g id="edge9" class="edge">
<title>Node7&#45;&gt;Node5</title>
<path fill="none" stroke="#191970" d="M425.5224,-114.3833C435.338,-95.4174 456.6531,-54.2323 469.2977,-29.8004"/>
<polygon fill="#191970" stroke="#191970" points="472.4895,-31.2478 473.9776,-20.7579 466.2728,-28.0303 472.4895,-31.2478"/>
</g>
<!-- Node8 -->
<g id="node9" class="node">
<title>Node8</title>
<polygon fill="#ffffff" stroke="#bfbfbf" points="354.6195,-57.5 354.6195,-77.5 403.9535,-77.5 403.9535,-57.5 354.6195,-57.5"/>
<text text-anchor="middle" x="379.2865" y="-64.5" font-family="Helvetica,sans-Serif" font-size="10.00" fill="#000000">fstream</text>
</g>
<!-- Node7&#45;&gt;Node8 -->
<g id="edge10" class="edge">
<title>Node7&#45;&gt;Node8</title>
<path fill="none" stroke="#191970" d="M412.9565,-114.3095C407.3011,-106.4472 399.3267,-95.3608 392.5581,-85.9507"/>
<polygon fill="#191970" stroke="#191970" points="395.2337,-83.6765 386.553,-77.6022 389.551,-87.7641 395.2337,-83.6765"/>
</g>
<!-- Node16 -->
<g id="node17" class="node">
<title>Node16</title>
<g id="a_node17"><a xlink:href="IOBase_8h.html" target="_top" xlink:title="IOBase.h">
<polygon fill="#ffffff" stroke="#000000" points="91.445,-171.5 91.445,-191.5 149.128,-191.5 149.128,-171.5 91.445,-171.5"/>
<text text-anchor="middle" x="120.2865" y="-178.5" font-family="Helvetica,sans-Serif" font-size="10.00" fill="#000000">IOBase.h</text>
</a>
</g>
</g>
<!-- Node15&#45;&gt;Node16 -->
<g id="edge18" class="edge">
<title>Node15&#45;&gt;Node16</title>
<path fill="none" stroke="#191970" d="M40.6282,-228.3095C55.5253,-219.5556 77.2238,-206.8049 94.2137,-196.8211"/>
<polygon fill="#191970" stroke="#191970" points="96.2466,-199.6862 103.095,-191.6022 92.7001,-193.651 96.2466,-199.6862"/>
</g>
<!-- Node16&#45;&gt;Node5 -->
<g id="edge19" class="edge">
<title>Node16&#45;&gt;Node5</title>
<path fill="none" stroke="#191970" d="M136.1707,-171.4569C172.2844,-148.9068 263.7483,-93.384 345.2865,-57 379.9824,-41.518 421.5302,-27.8072 449.0679,-19.3563"/>
<polygon fill="#191970" stroke="#191970" points="450.3356,-22.6295 458.8926,-16.3822 448.3074,-15.9297 450.3356,-22.6295"/>
</g>
<!-- Node16&#45;&gt;Node8 -->
<g id="edge20" class="edge">
<title>Node16&#45;&gt;Node8</title>
<path fill="none" stroke="#191970" d="M149.1511,-172.3201C175.5803,-163.6279 215.5898,-149.7435 249.2865,-135 286.0136,-118.9306 326.8035,-97.0564 352.726,-82.6198"/>
<polygon fill="#191970" stroke="#191970" points="354.5577,-85.6055 361.5686,-77.6621 351.1344,-79.4997 354.5577,-85.6055"/>
</g>
<!-- Node18 -->
<g id="node19" class="node">
<title>Node18</title>
<polygon fill="#ffffff" stroke="#bfbfbf" points="1087.17,-114.5 1087.17,-134.5 1135.403,-134.5 1135.403,-114.5 1087.17,-114.5"/>
<text text-anchor="middle" x="1111.2865" y="-121.5" font-family="Helvetica,sans-Serif" font-size="10.00" fill="#000000">stdint.h</text>
</g>
<!-- Node17&#45;&gt;Node18 -->
<g id="edge22" class="edge">
<title>Node17&#45;&gt;Node18</title>
<path fill="none" stroke="#191970" d="M1037.3767,-171.3095C1051.0708,-162.6366 1070.9591,-150.0407 1086.6562,-140.0992"/>
<polygon fill="#191970" stroke="#191970" points="1088.7601,-142.9097 1095.3356,-134.6022 1085.0147,-136.9959 1088.7601,-142.9097"/>
</g>
<!-- Node19 -->
<g id="node20" class="node">
<title>Node19</title>
<polygon fill="#ffffff" stroke="#bfbfbf" points="897.166,-114.5 897.166,-134.5 955.407,-134.5 955.407,-114.5 897.166,-114.5"/>
<text text-anchor="middle" x="926.2865" y="-121.5" font-family="Helvetica,sans-Serif" font-size="10.00" fill="#000000">pthread.h</text>
</g>
<!-- Node17&#45;&gt;Node19 -->
<g id="edge23" class="edge">
<title>Node17&#45;&gt;Node19</title>
<path fill="none" stroke="#191970" d="M1004.3024,-171.3095C989.7124,-162.5556 968.4613,-149.8049 951.8217,-139.8211"/>
<polygon fill="#191970" stroke="#191970" points="953.4993,-136.746 943.1236,-134.6022 949.8977,-142.7485 953.4993,-136.746"/>
</g>
<!-- Node20 -->
<g id="node21" class="node">
<title>Node20</title>
<g id="a_node21"><a xlink:href="LinearConverter_8h.html" target="_top" xlink:title="LinearConverter.h">
<polygon fill="#ffffff" stroke="#000000" points="973.2795,-114.5 973.2795,-134.5 1069.2935,-134.5 1069.2935,-114.5 973.2795,-114.5"/>
<text text-anchor="middle" x="1021.2865" y="-121.5" font-family="Helvetica,sans-Serif" font-size="10.00" fill="#000000">LinearConverter.h</text>
</a>
</g>
</g>
<!-- Node17&#45;&gt;Node20 -->
<g id="edge24" class="edge">
<title>Node17&#45;&gt;Node20</title>
<path fill="none" stroke="#191970" d="M1021.2865,-171.3095C1021.2865,-163.9335 1021.2865,-153.72 1021.2865,-144.715"/>
<polygon fill="#191970" stroke="#191970" points="1024.7866,-144.6022 1021.2865,-134.6022 1017.7866,-144.6023 1024.7866,-144.6022"/>
</g>
<!-- Node21 -->
<g id="node22" class="node">
<title>Node21</title>
<g id="a_node22"><a xlink:href="Range_8h.html" target="_top" xlink:title="Range.h">
<polygon fill="#ffffff" stroke="#000000" points="994.39,-57.5 994.39,-77.5 1048.183,-77.5 1048.183,-57.5 994.39,-57.5"/>
<text text-anchor="middle" x="1021.2865" y="-64.5" font-family="Helvetica,sans-Serif" font-size="10.00" fill="#000000">Range.h</text>
</a>
</g>
</g>
<!-- Node20&#45;&gt;Node21 -->
<g id="edge25" class="edge">
<title>Node20&#45;&gt;Node21</title>
<path fill="none" stroke="#191970" d="M1021.2865,-114.3095C1021.2865,-106.9335 1021.2865,-96.72 1021.2865,-87.715"/>
<polygon fill="#191970" stroke="#191970" points="1024.7866,-87.6022 1021.2865,-77.6022 1017.7866,-87.6023 1024.7866,-87.6022"/>
</g>
<!-- Node22&#45;&gt;Node17 -->
<g id="edge27" class="edge">
<title>Node22&#45;&gt;Node17</title>
<path fill="none" stroke="#191970" d="M813.6833,-229.0236C856.7145,-219.1731 924.1216,-203.7426 970.3817,-193.1529"/>
<polygon fill="#191970" stroke="#191970" points="971.2384,-196.5474 980.2052,-190.9042 969.6763,-189.7239 971.2384,-196.5474"/>
</g>
<!-- Node23&#45;&gt;Node16 -->
<g id="edge29" class="edge">
<title>Node23&#45;&gt;Node16</title>
<path fill="none" stroke="#191970" d="M96.4711,-228.3095C100.3888,-220.6093 105.8798,-209.8166 110.6021,-200.5349"/>
<polygon fill="#191970" stroke="#191970" points="113.7316,-202.1021 115.1468,-191.6022 107.4927,-198.9279 113.7316,-202.1021"/>
</g>
<!-- Node27&#45;&gt;Node1 -->
<g id="edge34" class="edge">
<title>Node27&#45;&gt;Node1</title>
<path fill="none" stroke="#191970" d="M204.4872,-229.8262C207.4553,-229.1714 210.419,-228.552 213.2865,-228 294.2685,-212.4117 387.4348,-199.6976 453.73,-191.5283"/>
<polygon fill="#191970" stroke="#191970" points="454.2209,-194.9944 463.722,-190.3063 453.3711,-188.0462 454.2209,-194.9944"/>
</g>
</g>
</svg>
