<?xml version="1.0" encoding="UTF-8" standalone="no"?>
<!DOCTYPE svg PUBLIC "-//W3C//DTD SVG 1.1//EN"
 "http://www.w3.org/Graphics/SVG/1.1/DTD/svg11.dtd">
<!-- Generated by graphviz version 2.40.1 (20161225.0304)
 -->
<!-- Title: /home/jc/Documents/School/SeniorDesign/ControlCode/MainApplication/Headers/ControlSoftware/BoeingSurfaceVehicleControl.h Pages: 1 -->
<svg width="364pt" height="248pt"
 viewBox="0.00 0.00 364.28 248.00" xmlns="http://www.w3.org/2000/svg" xmlns:xlink="http://www.w3.org/1999/xlink">
<g id="graph0" class="graph" transform="scale(1 1) rotate(0) translate(4 244)">
<title>/home/jc/Documents/School/SeniorDesign/ControlCode/MainApplication/Headers/ControlSoftware/BoeingSurfaceVehicleControl.h</title>
<polygon fill="#ffffff" stroke="transparent" points="-4,4 -4,-244 360.28,-244 360.28,4 -4,4"/>
<!-- Node0 -->
<g id="node1" class="node">
<title>Node0</title>
<polygon fill="#bfbfbf" stroke="#000000" points="63.926,-171.5 63.926,-239.5 263.3,-239.5 263.3,-171.5 63.926,-171.5"/>
<text text-anchor="start" x="71.926" y="-226.5" font-family="Helvetica,sans-Serif" font-size="10.00" fill="#000000">/home/jc/Documents</text>
<text text-anchor="start" x="71.926" y="-214.5" font-family="Helvetica,sans-Serif" font-size="10.00" fill="#000000">/School/SeniorDesign</text>
<text text-anchor="start" x="71.926" y="-202.5" font-family="Helvetica,sans-Serif" font-size="10.00" fill="#000000">/ControlCode/MainApplication</text>
<text text-anchor="start" x="71.926" y="-190.5" font-family="Helvetica,sans-Serif" font-size="10.00" fill="#000000">/Headers/ControlSoftware/BoeingSurface</text>
<text text-anchor="middle" x="163.613" y="-178.5" font-family="Helvetica,sans-Serif" font-size="10.00" fill="#000000">VehicleControl.h</text>
</g>
<!-- Node1 -->
<g id="node2" class="node">
<title>Node1</title>
<polygon fill="#ffffff" stroke="#bfbfbf" points="0,-114.5 0,-134.5 43.226,-134.5 43.226,-114.5 0,-114.5"/>
<text text-anchor="middle" x="21.613" y="-121.5" font-family="Helvetica,sans-Serif" font-size="10.00" fill="#000000">vector</text>
</g>
<!-- Node0&#45;&gt;Node1 -->
<g id="edge1" class="edge">
<title>Node0&#45;&gt;Node1</title>
<path fill="none" stroke="#191970" d="M103.8038,-171.3835C84.471,-160.3556 64.0028,-148.6801 48.3282,-139.7389"/>
<polygon fill="#191970" stroke="#191970" points="49.6614,-136.4701 39.241,-134.5554 46.193,-142.5504 49.6614,-136.4701"/>
</g>
<!-- Node2 -->
<g id="node3" class="node">
<title>Node2</title>
<g id="a_node3"><a xlink:href="BluetoothClient_8h.html" target="_top" xlink:title="BluetoothClient.h">
<polygon fill="#ffffff" stroke="#000000" points="61.5465,-114.5 61.5465,-134.5 153.6795,-134.5 153.6795,-114.5 61.5465,-114.5"/>
<text text-anchor="middle" x="107.613" y="-121.5" font-family="Helvetica,sans-Serif" font-size="10.00" fill="#000000">BluetoothClient.h</text>
</a>
</g>
</g>
<!-- Node0&#45;&gt;Node2 -->
<g id="edge2" class="edge">
<title>Node0&#45;&gt;Node2</title>
<path fill="none" stroke="#191970" d="M139.864,-171.1487C133.2088,-161.5226 126.2257,-151.4219 120.4659,-143.0908"/>
<polygon fill="#191970" stroke="#191970" points="123.3353,-141.0865 114.7694,-134.8513 117.5773,-145.0673 123.3353,-141.0865"/>
</g>
<!-- Node5 -->
<g id="node6" class="node">
<title>Node5</title>
<g id="a_node6"><a xlink:href="BluetoothServer_8h.html" target="_top" xlink:title="BluetoothServer.h">
<polygon fill="#ffffff" stroke="#000000" points="171.601,-114.5 171.601,-134.5 267.625,-134.5 267.625,-114.5 171.601,-114.5"/>
<text text-anchor="middle" x="219.613" y="-121.5" font-family="Helvetica,sans-Serif" font-size="10.00" fill="#000000">BluetoothServer.h</text>
</a>
</g>
</g>
<!-- Node0&#45;&gt;Node5 -->
<g id="edge5" class="edge">
<title>Node0&#45;&gt;Node5</title>
<path fill="none" stroke="#191970" d="M187.362,-171.1487C194.0172,-161.5226 201.0003,-151.4219 206.7601,-143.0908"/>
<polygon fill="#191970" stroke="#191970" points="209.6487,-145.0673 212.4566,-134.8513 203.8907,-141.0865 209.6487,-145.0673"/>
</g>
<!-- Node6 -->
<g id="node7" class="node">
<title>Node6</title>
<g id="a_node7"><a xlink:href="UserLED_8h.html" target="_top" xlink:title="UserLED.h">
<polygon fill="#ffffff" stroke="#000000" points="285.167,-114.5 285.167,-134.5 350.059,-134.5 350.059,-114.5 285.167,-114.5"/>
<text text-anchor="middle" x="317.613" y="-121.5" font-family="Helvetica,sans-Serif" font-size="10.00" fill="#000000">UserLED.h</text>
</a>
</g>
</g>
<!-- Node0&#45;&gt;Node6 -->
<g id="edge7" class="edge">
<title>Node0&#45;&gt;Node6</title>
<path fill="none" stroke="#191970" d="M228.4765,-171.3835C249.8386,-160.1476 272.4791,-148.2393 289.5968,-139.2358"/>
<polygon fill="#191970" stroke="#191970" points="291.2741,-142.3082 298.4953,-134.5554 288.0155,-136.1129 291.2741,-142.3082"/>
</g>
<!-- Node3 -->
<g id="node4" class="node">
<title>Node3</title>
<g id="a_node4"><a xlink:href="BluetoothBase_8h.html" target="_top" xlink:title="BluetoothBase.h">
<polygon fill="#ffffff" stroke="#000000" points="160.93,-57.5 160.93,-77.5 250.296,-77.5 250.296,-57.5 160.93,-57.5"/>
<text text-anchor="middle" x="205.613" y="-64.5" font-family="Helvetica,sans-Serif" font-size="10.00" fill="#000000">BluetoothBase.h</text>
</a>
</g>
</g>
<!-- Node2&#45;&gt;Node3 -->
<g id="edge3" class="edge">
<title>Node2&#45;&gt;Node3</title>
<path fill="none" stroke="#191970" d="M125.1334,-114.3095C140.1842,-105.5556 162.1063,-92.8049 179.2714,-82.8211"/>
<polygon fill="#191970" stroke="#191970" points="181.3598,-85.6555 188.2442,-77.6022 177.8403,-79.6046 181.3598,-85.6555"/>
</g>
<!-- Node4 -->
<g id="node5" class="node">
<title>Node4</title>
<polygon fill="#ffffff" stroke="#bfbfbf" points="221.3905,-.5 221.3905,-20.5 261.8355,-20.5 261.8355,-.5 221.3905,-.5"/>
<text text-anchor="middle" x="241.613" y="-7.5" font-family="Helvetica,sans-Serif" font-size="10.00" fill="#000000">string</text>
</g>
<!-- Node3&#45;&gt;Node4 -->
<g id="edge4" class="edge">
<title>Node3&#45;&gt;Node4</title>
<path fill="none" stroke="#191970" d="M212.0491,-57.3095C216.9636,-49.5282 223.8726,-38.589 229.7758,-29.2423"/>
<polygon fill="#191970" stroke="#191970" points="232.8519,-30.9261 235.2326,-20.6022 226.9334,-27.1881 232.8519,-30.9261"/>
</g>
<!-- Node5&#45;&gt;Node3 -->
<g id="edge6" class="edge">
<title>Node5&#45;&gt;Node3</title>
<path fill="none" stroke="#191970" d="M217.1101,-114.3095C215.2785,-106.8524 212.7346,-96.4951 210.5053,-87.4186"/>
<polygon fill="#191970" stroke="#191970" points="213.8786,-86.4787 208.0943,-77.6022 207.0806,-88.1485 213.8786,-86.4787"/>
</g>
<!-- Node6&#45;&gt;Node4 -->
<g id="edge8" class="edge">
<title>Node6&#45;&gt;Node4</title>
<path fill="none" stroke="#191970" d="M310.8685,-114.3833C298.1122,-95.2488 270.2786,-53.4984 254.0483,-29.1529"/>
<polygon fill="#191970" stroke="#191970" points="256.9109,-27.137 248.4516,-20.7579 251.0865,-31.0199 256.9109,-27.137"/>
</g>
<!-- Node7 -->
<g id="node8" class="node">
<title>Node7</title>
<polygon fill="#ffffff" stroke="#bfbfbf" points="306.946,-57.5 306.946,-77.5 356.28,-77.5 356.28,-57.5 306.946,-57.5"/>
<text text-anchor="middle" x="331.613" y="-64.5" font-family="Helvetica,sans-Serif" font-size="10.00" fill="#000000">fstream</text>
</g>
<!-- Node6&#45;&gt;Node7 -->
<g id="edge9" class="edge">
<title>Node6&#45;&gt;Node7</title>
<path fill="none" stroke="#191970" d="M320.1159,-114.3095C321.9475,-106.8524 324.4914,-96.4951 326.7207,-87.4186"/>
<polygon fill="#191970" stroke="#191970" points="330.1454,-88.1485 329.1317,-77.6022 323.3474,-86.4787 330.1454,-88.1485"/>
</g>
</g>
</svg>
