<?xml version="1.0" encoding="UTF-8" standalone="no"?>
<!DOCTYPE svg PUBLIC "-//W3C//DTD SVG 1.1//EN"
 "http://www.w3.org/Graphics/SVG/1.1/DTD/svg11.dtd">
<!-- Generated by graphviz version 2.40.1 (20161225.0304)
 -->
<!-- Title: /home/jc/Documents/School/SeniorDesign/ControlCode/MainApplication/Sources/ControlSoftware/BoeingSurfaceVehicleControl.cpp Pages: 1 -->
<svg width="1093pt" height="362pt"
 viewBox="0.00 0.00 1093.07 362.00" xmlns="http://www.w3.org/2000/svg" xmlns:xlink="http://www.w3.org/1999/xlink">
<g id="graph0" class="graph" transform="scale(1 1) rotate(0) translate(4 358)">
<title>/home/jc/Documents/School/SeniorDesign/ControlCode/MainApplication/Sources/ControlSoftware/BoeingSurfaceVehicleControl.cpp</title>
<polygon fill="#ffffff" stroke="transparent" points="-4,4 -4,-358 1089.072,-358 1089.072,4 -4,4"/>
<!-- Node0 -->
<g id="node1" class="node">
<title>Node0</title>
<polygon fill="#bfbfbf" stroke="#000000" points="502.934,-285.5 502.934,-353.5 701.199,-353.5 701.199,-285.5 502.934,-285.5"/>
<text text-anchor="start" x="510.934" y="-340.5" font-family="Helvetica,sans-Serif" font-size="10.00" fill="#000000">/home/jc/Documents</text>
<text text-anchor="start" x="510.934" y="-328.5" font-family="Helvetica,sans-Serif" font-size="10.00" fill="#000000">/School/SeniorDesign</text>
<text text-anchor="start" x="510.934" y="-316.5" font-family="Helvetica,sans-Serif" font-size="10.00" fill="#000000">/ControlCode/MainApplication</text>
<text text-anchor="start" x="510.934" y="-304.5" font-family="Helvetica,sans-Serif" font-size="10.00" fill="#000000">/Sources/ControlSoftware/BoeingSurface</text>
<text text-anchor="middle" x="602.0665" y="-292.5" font-family="Helvetica,sans-Serif" font-size="10.00" fill="#000000">VehicleControl.cpp</text>
</g>
<!-- Node1 -->
<g id="node2" class="node">
<title>Node1</title>
<g id="a_node2"><a xlink:href="BoeingSurfaceVehicleControl_8h.html" target="_top" xlink:title="BoeingSurfaceVehicleControl.h">
<polygon fill="#ffffff" stroke="#000000" points="168.605,-171.5 168.605,-191.5 323.528,-191.5 323.528,-171.5 168.605,-171.5"/>
<text text-anchor="middle" x="246.0665" y="-178.5" font-family="Helvetica,sans-Serif" font-size="10.00" fill="#000000">BoeingSurfaceVehicleControl.h</text>
</a>
</g>
</g>
<!-- Node0&#45;&gt;Node1 -->
<g id="edge1" class="edge">
<title>Node0&#45;&gt;Node1</title>
<path fill="none" stroke="#191970" d="M502.8208,-305.0525C448.7658,-294.5242 381.9152,-277.0581 327.0665,-249 302.0867,-236.2215 277.9813,-214.5461 262.6587,-199.2091"/>
<polygon fill="#191970" stroke="#191970" points="264.973,-196.569 255.4885,-191.8474 259.9585,-201.4531 264.973,-196.569"/>
</g>
<!-- Node9 -->
<g id="node10" class="node">
<title>Node9</title>
<polygon fill="#ffffff" stroke="#bfbfbf" points="509.84,-228.5 509.84,-248.5 560.293,-248.5 560.293,-228.5 509.84,-228.5"/>
<text text-anchor="middle" x="535.0665" y="-235.5" font-family="Helvetica,sans-Serif" font-size="10.00" fill="#000000">signal.h</text>
</g>
<!-- Node0&#45;&gt;Node9 -->
<g id="edge11" class="edge">
<title>Node0&#45;&gt;Node9</title>
<path fill="none" stroke="#191970" d="M573.6525,-285.1487C565.5207,-275.3177 556.9795,-264.9919 550.0062,-256.5614"/>
<polygon fill="#191970" stroke="#191970" points="552.6994,-254.326 543.6287,-248.8513 547.3055,-258.7877 552.6994,-254.326"/>
</g>
<!-- Node10 -->
<g id="node11" class="node">
<title>Node10</title>
<polygon fill="#ffffff" stroke="#bfbfbf" points="578.23,-228.5 578.23,-248.5 625.903,-248.5 625.903,-228.5 578.23,-228.5"/>
<text text-anchor="middle" x="602.0665" y="-235.5" font-family="Helvetica,sans-Serif" font-size="10.00" fill="#000000">stdlib.h</text>
</g>
<!-- Node0&#45;&gt;Node10 -->
<g id="edge12" class="edge">
<title>Node0&#45;&gt;Node10</title>
<path fill="none" stroke="#191970" d="M602.0665,-285.1487C602.0665,-276.2394 602.0665,-266.9236 602.0665,-258.9805"/>
<polygon fill="#191970" stroke="#191970" points="605.5666,-258.8512 602.0665,-248.8513 598.5666,-258.8513 605.5666,-258.8512"/>
</g>
<!-- Node11 -->
<g id="node12" class="node">
<title>Node11</title>
<polygon fill="#ffffff" stroke="#bfbfbf" points="643.56,-228.5 643.56,-248.5 694.573,-248.5 694.573,-228.5 643.56,-228.5"/>
<text text-anchor="middle" x="669.0665" y="-235.5" font-family="Helvetica,sans-Serif" font-size="10.00" fill="#000000">unistd.h</text>
</g>
<!-- Node0&#45;&gt;Node11 -->
<g id="edge13" class="edge">
<title>Node0&#45;&gt;Node11</title>
<path fill="none" stroke="#191970" d="M630.4805,-285.1487C638.6123,-275.3177 647.1535,-264.9919 654.1268,-256.5614"/>
<polygon fill="#191970" stroke="#191970" points="656.8275,-258.7877 660.5043,-248.8513 651.4336,-254.326 656.8275,-258.7877"/>
</g>
<!-- Node12 -->
<g id="node13" class="node">
<title>Node12</title>
<g id="a_node13"><a xlink:href="Input_8h.html" target="_top" xlink:title="Input.h">
<polygon fill="#ffffff" stroke="#000000" points="407.78,-228.5 407.78,-248.5 454.353,-248.5 454.353,-228.5 407.78,-228.5"/>
<text text-anchor="middle" x="431.0665" y="-235.5" font-family="Helvetica,sans-Serif" font-size="10.00" fill="#000000">Input.h</text>
</a>
</g>
</g>
<!-- Node0&#45;&gt;Node12 -->
<g id="edge14" class="edge">
<title>Node0&#45;&gt;Node12</title>
<path fill="none" stroke="#191970" d="M530.0427,-285.3835C505.993,-273.9915 480.4841,-261.9083 461.387,-252.8623"/>
<polygon fill="#191970" stroke="#191970" points="462.8303,-249.6733 452.2946,-248.5554 459.8337,-255.9994 462.8303,-249.6733"/>
</g>
<!-- Node14 -->
<g id="node15" class="node">
<title>Node14</title>
<g id="a_node15"><a xlink:href="MotorControl_8h.html" target="_top" xlink:title="MotorControl.h">
<polygon fill="#ffffff" stroke="#000000" points="682.0085,-171.5 682.0085,-191.5 764.1245,-191.5 764.1245,-171.5 682.0085,-171.5"/>
<text text-anchor="middle" x="723.0665" y="-178.5" font-family="Helvetica,sans-Serif" font-size="10.00" fill="#000000">MotorControl.h</text>
</a>
</g>
</g>
<!-- Node0&#45;&gt;Node14 -->
<g id="edge18" class="edge">
<title>Node0&#45;&gt;Node14</title>
<path fill="none" stroke="#191970" d="M665.952,-285.4113C680.1717,-275.3057 693.995,-263.1016 704.0665,-249 714.0044,-235.0855 718.7567,-216.121 721.0222,-201.8362"/>
<polygon fill="#191970" stroke="#191970" points="724.5384,-201.9371 722.3574,-191.5692 717.5969,-201.0343 724.5384,-201.9371"/>
</g>
<!-- Node17 -->
<g id="node18" class="node">
<title>Node17</title>
<g id="a_node18"><a xlink:href="ServoControl_8h.html" target="_top" xlink:title="ServoControl.h">
<polygon fill="#ffffff" stroke="#000000" points="750.728,-228.5 750.728,-248.5 833.405,-248.5 833.405,-228.5 750.728,-228.5"/>
<text text-anchor="middle" x="792.0665" y="-235.5" font-family="Helvetica,sans-Serif" font-size="10.00" fill="#000000">ServoControl.h</text>
</a>
</g>
</g>
<!-- Node0&#45;&gt;Node17 -->
<g id="edge21" class="edge">
<title>Node0&#45;&gt;Node17</title>
<path fill="none" stroke="#191970" d="M682.0929,-285.3835C709.1809,-273.8355 737.9349,-261.5772 759.2451,-252.4923"/>
<polygon fill="#191970" stroke="#191970" points="760.6534,-255.6968 768.4797,-248.5554 757.9082,-249.2575 760.6534,-255.6968"/>
</g>
<!-- Node20 -->
<g id="node21" class="node">
<title>Node20</title>
<g id="a_node21"><a xlink:href="Output_8h.html" target="_top" xlink:title="Output.h">
<polygon fill="#ffffff" stroke="#000000" points="335.8905,-228.5 335.8905,-248.5 390.2425,-248.5 390.2425,-228.5 335.8905,-228.5"/>
<text text-anchor="middle" x="363.0665" y="-235.5" font-family="Helvetica,sans-Serif" font-size="10.00" fill="#000000">Output.h</text>
</a>
</g>
</g>
<!-- Node0&#45;&gt;Node20 -->
<g id="edge25" class="edge">
<title>Node0&#45;&gt;Node20</title>
<path fill="none" stroke="#191970" d="M502.7853,-285.8524C466.462,-273.542 427.5717,-260.3616 400.0689,-251.0406"/>
<polygon fill="#191970" stroke="#191970" points="401.0717,-247.6849 390.4774,-247.7899 398.8248,-254.3145 401.0717,-247.6849"/>
</g>
<!-- Node21 -->
<g id="node22" class="node">
<title>Node21</title>
<g id="a_node22"><a xlink:href="InputList_8h.html" target="_top" xlink:title="InputList.h">
<polygon fill="#ffffff" stroke="#000000" points="851.0015,-228.5 851.0015,-248.5 913.1315,-248.5 913.1315,-228.5 851.0015,-228.5"/>
<text text-anchor="middle" x="882.0665" y="-235.5" font-family="Helvetica,sans-Serif" font-size="10.00" fill="#000000">InputList.h</text>
</a>
</g>
</g>
<!-- Node0&#45;&gt;Node21 -->
<g id="edge27" class="edge">
<title>Node0&#45;&gt;Node21</title>
<path fill="none" stroke="#191970" d="M701.5724,-290.7144C749.5613,-276.8319 804.4956,-260.9402 841.0298,-250.3713"/>
<polygon fill="#191970" stroke="#191970" points="842.1918,-253.6788 850.8253,-247.5376 840.2465,-246.9545 842.1918,-253.6788"/>
</g>
<!-- Node22 -->
<g id="node23" class="node">
<title>Node22</title>
<g id="a_node23"><a xlink:href="OutputList_8h.html" target="_top" xlink:title="OutputList.h">
<polygon fill="#ffffff" stroke="#000000" points="931.112,-228.5 931.112,-248.5 1001.021,-248.5 1001.021,-228.5 931.112,-228.5"/>
<text text-anchor="middle" x="966.0665" y="-235.5" font-family="Helvetica,sans-Serif" font-size="10.00" fill="#000000">OutputList.h</text>
</a>
</g>
</g>
<!-- Node0&#45;&gt;Node22 -->
<g id="edge28" class="edge">
<title>Node0&#45;&gt;Node22</title>
<path fill="none" stroke="#191970" d="M701.2683,-298.1106C761.9226,-284.9221 841.3545,-267.4549 920.82,-249.2608"/>
<polygon fill="#191970" stroke="#191970" points="922.0504,-252.5696 931.0149,-246.9227 920.4856,-245.7468 922.0504,-252.5696"/>
</g>
<!-- Node23 -->
<g id="node24" class="node">
<title>Node23</title>
<g id="a_node24"><a xlink:href="ServoList_8h.html" target="_top" xlink:title="ServoList.h">
<polygon fill="#ffffff" stroke="#000000" points="1019.061,-228.5 1019.061,-248.5 1085.072,-248.5 1085.072,-228.5 1019.061,-228.5"/>
<text text-anchor="middle" x="1052.0665" y="-235.5" font-family="Helvetica,sans-Serif" font-size="10.00" fill="#000000">ServoList.h</text>
</a>
</g>
</g>
<!-- Node0&#45;&gt;Node23 -->
<g id="edge29" class="edge">
<title>Node0&#45;&gt;Node23</title>
<path fill="none" stroke="#191970" d="M701.3908,-304.441C781.8217,-291.758 898.212,-272.3026 1008.6641,-249.1935"/>
<polygon fill="#191970" stroke="#191970" points="1009.5833,-252.5768 1018.6474,-247.0913 1008.1408,-245.7271 1009.5833,-252.5768"/>
</g>
<!-- Node24 -->
<g id="node25" class="node">
<title>Node24</title>
<g id="a_node25"><a xlink:href="IOFactory_8h.html" target="_top" xlink:title="IOFactory.h">
<polygon fill="#ffffff" stroke="#000000" points="211.951,-228.5 211.951,-248.5 280.182,-248.5 280.182,-228.5 211.951,-228.5"/>
<text text-anchor="middle" x="246.0665" y="-235.5" font-family="Helvetica,sans-Serif" font-size="10.00" fill="#000000">IOFactory.h</text>
</a>
</g>
</g>
<!-- Node0&#45;&gt;Node24 -->
<g id="edge30" class="edge">
<title>Node0&#45;&gt;Node24</title>
<path fill="none" stroke="#191970" d="M502.9007,-296.937C433.2714,-281.0944 343.4737,-260.6629 290.594,-248.6313"/>
<polygon fill="#191970" stroke="#191970" points="291.0546,-245.1467 280.5273,-246.3408 289.5015,-251.9722 291.0546,-245.1467"/>
</g>
<!-- Node25 -->
<g id="node26" class="node">
<title>Node25</title>
<g id="a_node26"><a xlink:href="BluetoothDefinitions_8h.html" target="_top" xlink:title="BluetoothDefinitions.h">
<polygon fill="#ffffff" stroke="#000000" points="444.442,-57.5 444.442,-77.5 557.691,-77.5 557.691,-57.5 444.442,-57.5"/>
<text text-anchor="middle" x="501.0665" y="-64.5" font-family="Helvetica,sans-Serif" font-size="10.00" fill="#000000">BluetoothDefinitions.h</text>
</a>
</g>
</g>
<!-- Node0&#45;&gt;Node25 -->
<g id="edge32" class="edge">
<title>Node0&#45;&gt;Node25</title>
<path fill="none" stroke="#191970" d="M533.6317,-285.3235C520.5359,-275.4776 508.5813,-263.41 501.0665,-249 473.5882,-196.3092 486.5953,-122.7515 495.3506,-87.6664"/>
<polygon fill="#191970" stroke="#191970" points="498.8127,-88.2648 497.9872,-77.7022 492.0456,-86.4742 498.8127,-88.2648"/>
</g>
<!-- Node2 -->
<g id="node3" class="node">
<title>Node2</title>
<polygon fill="#ffffff" stroke="#bfbfbf" points="224.4535,-114.5 224.4535,-134.5 267.6795,-134.5 267.6795,-114.5 224.4535,-114.5"/>
<text text-anchor="middle" x="246.0665" y="-121.5" font-family="Helvetica,sans-Serif" font-size="10.00" fill="#000000">vector</text>
</g>
<!-- Node1&#45;&gt;Node2 -->
<g id="edge2" class="edge">
<title>Node1&#45;&gt;Node2</title>
<path fill="none" stroke="#191970" d="M246.0665,-171.3095C246.0665,-163.9335 246.0665,-153.72 246.0665,-144.715"/>
<polygon fill="#191970" stroke="#191970" points="249.5666,-144.6022 246.0665,-134.6022 242.5666,-144.6023 249.5666,-144.6022"/>
</g>
<!-- Node3 -->
<g id="node4" class="node">
<title>Node3</title>
<g id="a_node4"><a xlink:href="BluetoothClient_8h.html" target="_top" xlink:title="BluetoothClient.h">
<polygon fill="#ffffff" stroke="#000000" points="0,-114.5 0,-134.5 92.133,-134.5 92.133,-114.5 0,-114.5"/>
<text text-anchor="middle" x="46.0665" y="-121.5" font-family="Helvetica,sans-Serif" font-size="10.00" fill="#000000">BluetoothClient.h</text>
</a>
</g>
</g>
<!-- Node1&#45;&gt;Node3 -->
<g id="edge3" class="edge">
<title>Node1&#45;&gt;Node3</title>
<path fill="none" stroke="#191970" d="M210.7709,-171.4408C177.4572,-161.9464 127.354,-147.6669 91.1595,-137.3515"/>
<polygon fill="#191970" stroke="#191970" points="91.9214,-133.9294 81.3451,-134.5544 90.0028,-140.6613 91.9214,-133.9294"/>
</g>
<!-- Node6 -->
<g id="node7" class="node">
<title>Node6</title>
<g id="a_node7"><a xlink:href="BluetoothServer_8h.html" target="_top" xlink:title="BluetoothServer.h">
<polygon fill="#ffffff" stroke="#000000" points="110.0545,-114.5 110.0545,-134.5 206.0785,-134.5 206.0785,-114.5 110.0545,-114.5"/>
<text text-anchor="middle" x="158.0665" y="-121.5" font-family="Helvetica,sans-Serif" font-size="10.00" fill="#000000">BluetoothServer.h</text>
</a>
</g>
</g>
<!-- Node1&#45;&gt;Node6 -->
<g id="edge6" class="edge">
<title>Node1&#45;&gt;Node6</title>
<path fill="none" stroke="#191970" d="M230.3339,-171.3095C216.9441,-162.6366 197.4977,-150.0407 182.1494,-140.0992"/>
<polygon fill="#191970" stroke="#191970" points="183.9589,-137.1011 173.6629,-134.6022 180.1533,-142.9764 183.9589,-137.1011"/>
</g>
<!-- Node7 -->
<g id="node8" class="node">
<title>Node7</title>
<g id="a_node8"><a xlink:href="UserLED_8h.html" target="_top" xlink:title="UserLED.h">
<polygon fill="#ffffff" stroke="#000000" points="285.6205,-114.5 285.6205,-134.5 350.5125,-134.5 350.5125,-114.5 285.6205,-114.5"/>
<text text-anchor="middle" x="318.0665" y="-121.5" font-family="Helvetica,sans-Serif" font-size="10.00" fill="#000000">UserLED.h</text>
</a>
</g>
</g>
<!-- Node1&#45;&gt;Node7 -->
<g id="edge8" class="edge">
<title>Node1&#45;&gt;Node7</title>
<path fill="none" stroke="#191970" d="M258.9387,-171.3095C269.5868,-162.8798 284.9163,-150.7439 297.2983,-140.9415"/>
<polygon fill="#191970" stroke="#191970" points="299.6378,-143.5535 305.3058,-134.6022 295.2928,-138.0651 299.6378,-143.5535"/>
</g>
<!-- Node4 -->
<g id="node5" class="node">
<title>Node4</title>
<g id="a_node5"><a xlink:href="BluetoothBase_8h.html" target="_top" xlink:title="BluetoothBase.h">
<polygon fill="#ffffff" stroke="#000000" points="113.3835,-57.5 113.3835,-77.5 202.7495,-77.5 202.7495,-57.5 113.3835,-57.5"/>
<text text-anchor="middle" x="158.0665" y="-64.5" font-family="Helvetica,sans-Serif" font-size="10.00" fill="#000000">BluetoothBase.h</text>
</a>
</g>
</g>
<!-- Node3&#45;&gt;Node4 -->
<g id="edge4" class="edge">
<title>Node3&#45;&gt;Node4</title>
<path fill="none" stroke="#191970" d="M65.832,-114.4408C83.3971,-105.5014 109.297,-92.3202 129.1832,-82.1996"/>
<polygon fill="#191970" stroke="#191970" points="130.7971,-85.3054 138.1218,-77.6504 127.6221,-79.0669 130.7971,-85.3054"/>
</g>
<!-- Node5 -->
<g id="node6" class="node">
<title>Node5</title>
<polygon fill="#ffffff" stroke="#bfbfbf" points="342.844,-.5 342.844,-20.5 383.289,-20.5 383.289,-.5 342.844,-.5"/>
<text text-anchor="middle" x="363.0665" y="-7.5" font-family="Helvetica,sans-Serif" font-size="10.00" fill="#000000">string</text>
</g>
<!-- Node4&#45;&gt;Node5 -->
<g id="edge5" class="edge">
<title>Node4&#45;&gt;Node5</title>
<path fill="none" stroke="#191970" d="M194.2445,-57.4408C233.7494,-46.4565 296.2884,-29.0676 333.1367,-18.8219"/>
<polygon fill="#191970" stroke="#191970" points="334.1112,-22.1838 342.8081,-16.1328 332.236,-15.4397 334.1112,-22.1838"/>
</g>
<!-- Node6&#45;&gt;Node4 -->
<g id="edge7" class="edge">
<title>Node6&#45;&gt;Node4</title>
<path fill="none" stroke="#191970" d="M158.0665,-114.3095C158.0665,-106.9335 158.0665,-96.72 158.0665,-87.715"/>
<polygon fill="#191970" stroke="#191970" points="161.5666,-87.6022 158.0665,-77.6022 154.5666,-87.6023 161.5666,-87.6022"/>
</g>
<!-- Node7&#45;&gt;Node5 -->
<g id="edge9" class="edge">
<title>Node7&#45;&gt;Node5</title>
<path fill="none" stroke="#191970" d="M318.2537,-114.4918C318.824,-100.952 320.9973,-76.2763 329.0665,-57 333.3657,-46.7299 340.3556,-36.5983 346.883,-28.427"/>
<polygon fill="#191970" stroke="#191970" points="349.6261,-30.603 353.3855,-20.6976 344.2695,-26.0967 349.6261,-30.603"/>
</g>
<!-- Node8 -->
<g id="node9" class="node">
<title>Node8</title>
<polygon fill="#ffffff" stroke="#bfbfbf" points="338.3995,-57.5 338.3995,-77.5 387.7335,-77.5 387.7335,-57.5 338.3995,-57.5"/>
<text text-anchor="middle" x="363.0665" y="-64.5" font-family="Helvetica,sans-Serif" font-size="10.00" fill="#000000">fstream</text>
</g>
<!-- Node7&#45;&gt;Node8 -->
<g id="edge10" class="edge">
<title>Node7&#45;&gt;Node8</title>
<path fill="none" stroke="#191970" d="M326.1116,-114.3095C332.3827,-106.3661 341.2519,-95.1319 348.7295,-85.6602"/>
<polygon fill="#191970" stroke="#191970" points="351.6417,-87.6199 355.0911,-77.6022 346.1475,-83.2823 351.6417,-87.6199"/>
</g>
<!-- Node13 -->
<g id="node14" class="node">
<title>Node13</title>
<g id="a_node14"><a xlink:href="IOBase_8h.html" target="_top" xlink:title="IOBase.h">
<polygon fill="#ffffff" stroke="#000000" points="368.225,-171.5 368.225,-191.5 425.908,-191.5 425.908,-171.5 368.225,-171.5"/>
<text text-anchor="middle" x="397.0665" y="-178.5" font-family="Helvetica,sans-Serif" font-size="10.00" fill="#000000">IOBase.h</text>
</a>
</g>
</g>
<!-- Node12&#45;&gt;Node13 -->
<g id="edge15" class="edge">
<title>Node12&#45;&gt;Node13</title>
<path fill="none" stroke="#191970" d="M424.988,-228.3095C420.3465,-220.5282 413.8214,-209.589 408.2461,-200.2423"/>
<polygon fill="#191970" stroke="#191970" points="411.2211,-198.3975 403.0924,-191.6022 405.2094,-201.9834 411.2211,-198.3975"/>
</g>
<!-- Node13&#45;&gt;Node5 -->
<g id="edge16" class="edge">
<title>Node13&#45;&gt;Node5</title>
<path fill="none" stroke="#191970" d="M399.1125,-171.4885C403.087,-149.9107 410.3531,-97.6822 397.0665,-57 393.6561,-46.5576 386.9127,-36.5154 380.3244,-28.4525"/>
<polygon fill="#191970" stroke="#191970" points="382.8786,-26.0565 373.6611,-20.8328 377.6092,-30.6645 382.8786,-26.0565"/>
</g>
<!-- Node13&#45;&gt;Node8 -->
<g id="edge17" class="edge">
<title>Node13&#45;&gt;Node8</title>
<path fill="none" stroke="#191970" d="M394.0492,-171.3833C388.443,-152.586 376.3273,-111.9627 369.0183,-87.4559"/>
<polygon fill="#191970" stroke="#191970" points="372.338,-86.3405 366.1259,-77.7579 365.63,-88.3412 372.338,-86.3405"/>
</g>
<!-- Node15 -->
<g id="node16" class="node">
<title>Node15</title>
<polygon fill="#ffffff" stroke="#bfbfbf" points="644.95,-114.5 644.95,-134.5 693.183,-134.5 693.183,-114.5 644.95,-114.5"/>
<text text-anchor="middle" x="669.0665" y="-121.5" font-family="Helvetica,sans-Serif" font-size="10.00" fill="#000000">stdint.h</text>
</g>
<!-- Node14&#45;&gt;Node15 -->
<g id="edge19" class="edge">
<title>Node14&#45;&gt;Node15</title>
<path fill="none" stroke="#191970" d="M713.4124,-171.3095C705.7334,-163.204 694.8083,-151.672 685.7237,-142.0826"/>
<polygon fill="#191970" stroke="#191970" points="688.0554,-139.4547 678.637,-134.6022 682.9737,-144.2689 688.0554,-139.4547"/>
</g>
<!-- Node16 -->
<g id="node17" class="node">
<title>Node16</title>
<polygon fill="#ffffff" stroke="#bfbfbf" points="710.946,-114.5 710.946,-134.5 769.187,-134.5 769.187,-114.5 710.946,-114.5"/>
<text text-anchor="middle" x="740.0665" y="-121.5" font-family="Helvetica,sans-Serif" font-size="10.00" fill="#000000">pthread.h</text>
</g>
<!-- Node14&#45;&gt;Node16 -->
<g id="edge20" class="edge">
<title>Node14&#45;&gt;Node16</title>
<path fill="none" stroke="#191970" d="M726.1058,-171.3095C728.3298,-163.8524 731.4188,-153.4951 734.1259,-144.4186"/>
<polygon fill="#191970" stroke="#191970" points="737.5494,-145.1855 737.0536,-134.6022 730.8414,-143.1848 737.5494,-145.1855"/>
</g>
<!-- Node17&#45;&gt;Node14 -->
<g id="edge22" class="edge">
<title>Node17&#45;&gt;Node14</title>
<path fill="none" stroke="#191970" d="M779.7307,-228.3095C769.6243,-219.9608 755.1175,-207.9769 743.3124,-198.2249"/>
<polygon fill="#191970" stroke="#191970" points="745.2343,-195.2727 735.2955,-191.6022 740.7761,-200.6695 745.2343,-195.2727"/>
</g>
<!-- Node18 -->
<g id="node19" class="node">
<title>Node18</title>
<g id="a_node19"><a xlink:href="LinearConverter_8h.html" target="_top" xlink:title="LinearConverter.h">
<polygon fill="#ffffff" stroke="#000000" points="782.0595,-171.5 782.0595,-191.5 878.0735,-191.5 878.0735,-171.5 782.0595,-171.5"/>
<text text-anchor="middle" x="830.0665" y="-178.5" font-family="Helvetica,sans-Serif" font-size="10.00" fill="#000000">LinearConverter.h</text>
</a>
</g>
</g>
<!-- Node17&#45;&gt;Node18 -->
<g id="edge23" class="edge">
<title>Node17&#45;&gt;Node18</title>
<path fill="none" stroke="#191970" d="M798.8601,-228.3095C804.1017,-220.4472 811.4926,-209.3608 817.766,-199.9507"/>
<polygon fill="#191970" stroke="#191970" points="820.6968,-201.8642 823.3317,-191.6022 814.8724,-197.9813 820.6968,-201.8642"/>
</g>
<!-- Node19 -->
<g id="node20" class="node">
<title>Node19</title>
<g id="a_node20"><a xlink:href="Range_8h.html" target="_top" xlink:title="Range.h">
<polygon fill="#ffffff" stroke="#000000" points="803.17,-114.5 803.17,-134.5 856.963,-134.5 856.963,-114.5 803.17,-114.5"/>
<text text-anchor="middle" x="830.0665" y="-121.5" font-family="Helvetica,sans-Serif" font-size="10.00" fill="#000000">Range.h</text>
</a>
</g>
</g>
<!-- Node18&#45;&gt;Node19 -->
<g id="edge24" class="edge">
<title>Node18&#45;&gt;Node19</title>
<path fill="none" stroke="#191970" d="M830.0665,-171.3095C830.0665,-163.9335 830.0665,-153.72 830.0665,-144.715"/>
<polygon fill="#191970" stroke="#191970" points="833.5666,-144.6022 830.0665,-134.6022 826.5666,-144.6023 833.5666,-144.6022"/>
</g>
<!-- Node20&#45;&gt;Node13 -->
<g id="edge26" class="edge">
<title>Node20&#45;&gt;Node13</title>
<path fill="none" stroke="#191970" d="M369.145,-228.3095C373.7865,-220.5282 380.3116,-209.589 385.8869,-200.2423"/>
<polygon fill="#191970" stroke="#191970" points="388.9236,-201.9834 391.0406,-191.6022 382.9119,-198.3975 388.9236,-201.9834"/>
</g>
<!-- Node24&#45;&gt;Node1 -->
<g id="edge31" class="edge">
<title>Node24&#45;&gt;Node1</title>
<path fill="none" stroke="#191970" d="M246.0665,-228.3095C246.0665,-220.9335 246.0665,-210.72 246.0665,-201.715"/>
<polygon fill="#191970" stroke="#191970" points="249.5666,-201.6022 246.0665,-191.6022 242.5666,-201.6023 249.5666,-201.6022"/>
</g>
<!-- Node25&#45;&gt;Node5 -->
<g id="edge33" class="edge">
<title>Node25&#45;&gt;Node5</title>
<path fill="none" stroke="#191970" d="M476.7125,-57.4408C453.3507,-47.7913 418.0226,-33.1993 392.9648,-22.8493"/>
<polygon fill="#191970" stroke="#191970" points="394.1598,-19.5561 383.581,-18.9734 391.4874,-26.0259 394.1598,-19.5561"/>
</g>
</g>
</svg>
