<?xml version="1.0" encoding="UTF-8" standalone="no"?>
<!DOCTYPE svg PUBLIC "-//W3C//DTD SVG 1.1//EN"
 "http://www.w3.org/Graphics/SVG/1.1/DTD/svg11.dtd">
<!-- Generated by graphviz version 2.40.1 (20161225.0304)
 -->
<!-- Title: ThreadHelper::startDetachedThread Pages: 1 -->
<svg width="815pt" height="504pt"
 viewBox="0.00 0.00 815.44 503.76" xmlns="http://www.w3.org/2000/svg" xmlns:xlink="http://www.w3.org/1999/xlink">
<g id="graph0" class="graph" transform="scale(1 1) rotate(0) translate(4 499.7583)">
<title>ThreadHelper::startDetachedThread</title>
<polygon fill="#ffffff" stroke="transparent" points="-4,4 -4,-499.7583 811.44,-499.7583 811.44,4 -4,4"/>
<!-- Node1 -->
<g id="node1" class="node">
<title>Node1</title>
<polygon fill="#bfbfbf" stroke="#000000" points="0,-274.5 0,-306.5 144.915,-306.5 144.915,-274.5 0,-274.5"/>
<text text-anchor="start" x="8" y="-293.5" font-family="Helvetica,sans-Serif" font-size="10.00" fill="#000000">ThreadHelper::startDetached</text>
<text text-anchor="middle" x="72.4575" y="-281.5" font-family="Helvetica,sans-Serif" font-size="10.00" fill="#000000">Thread</text>
</g>
<!-- Node2 -->
<g id="node2" class="node">
<title>Node2</title>
<g id="a_node2"><a xlink:href="classVehicleControl_1_1Bluetooth_1_1Base.html#a0d454a071fb0e38cf668cb82d5f93a3c" target="_top" xlink:title="startReadThread ">
<polygon fill="#ffffff" stroke="#000000" points="180.915,-415.5 180.915,-447.5 309.721,-447.5 309.721,-415.5 180.915,-415.5"/>
<text text-anchor="start" x="188.915" y="-434.5" font-family="Helvetica,sans-Serif" font-size="10.00" fill="#000000">VehicleControl::Bluetooth</text>
<text text-anchor="middle" x="245.318" y="-422.5" font-family="Helvetica,sans-Serif" font-size="10.00" fill="#000000">::Base::startReadThread</text>
</a>
</g>
</g>
<!-- Node1&#45;&gt;Node2 -->
<g id="edge1" class="edge">
<title>Node1&#45;&gt;Node2</title>
<path fill="none" stroke="#191970" d="M89.7519,-314.667C109.3122,-340.4832 143.3661,-381.1062 180.915,-406.5 185.7833,-409.7923 191.1474,-412.7402 196.6392,-415.3549"/>
<polygon fill="#191970" stroke="#191970" points="92.4686,-312.4549 83.69,-306.523 86.8533,-316.6346 92.4686,-312.4549"/>
</g>
<!-- Node4 -->
<g id="node4" class="node">
<title>Node4</title>
<g id="a_node4"><a xlink:href="classVehicleControl_1_1Bluetooth_1_1Client.html#a83777b221312c408d42d8dfcb0b807b8" target="_top" xlink:title="VehicleControl::Bluetooth\l::Client::isConnected">
<polygon fill="#ffffff" stroke="#000000" points="517.1865,-442.5 517.1865,-474.5 645.9925,-474.5 645.9925,-442.5 517.1865,-442.5"/>
<text text-anchor="start" x="525.1865" y="-461.5" font-family="Helvetica,sans-Serif" font-size="10.00" fill="#000000">VehicleControl::Bluetooth</text>
<text text-anchor="middle" x="581.5895" y="-449.5" font-family="Helvetica,sans-Serif" font-size="10.00" fill="#000000">::Client::isConnected</text>
</a>
</g>
</g>
<!-- Node1&#45;&gt;Node4 -->
<g id="edge9" class="edge">
<title>Node1&#45;&gt;Node4</title>
<path fill="none" stroke="#191970" d="M80.4034,-316.3196C93.9179,-355.1636 125.4527,-427.2977 180.915,-457.5 290.1153,-516.9655 442.1648,-493.8759 523.9855,-474.5262"/>
<polygon fill="#191970" stroke="#191970" points="83.697,-315.1324 77.2078,-306.7574 77.0579,-317.3511 83.697,-315.1324"/>
</g>
<!-- Node5 -->
<g id="node5" class="node">
<title>Node5</title>
<g id="a_node5"><a xlink:href="classVehicleControl_1_1Bluetooth_1_1Server.html#af5d9733f754be78891f8189f6f63ac90" target="_top" xlink:title="VehicleControl::Bluetooth\l::Server::isConnected">
<polygon fill="#ffffff" stroke="#000000" points="517.1865,-337.5 517.1865,-369.5 645.9925,-369.5 645.9925,-337.5 517.1865,-337.5"/>
<text text-anchor="start" x="525.1865" y="-356.5" font-family="Helvetica,sans-Serif" font-size="10.00" fill="#000000">VehicleControl::Bluetooth</text>
<text text-anchor="middle" x="581.5895" y="-344.5" font-family="Helvetica,sans-Serif" font-size="10.00" fill="#000000">::Server::isConnected</text>
</a>
</g>
</g>
<!-- Node1&#45;&gt;Node5 -->
<g id="edge11" class="edge">
<title>Node1&#45;&gt;Node5</title>
<path fill="none" stroke="#191970" d="M142.6953,-308.8848C155.3541,-311.7554 168.4787,-314.446 180.915,-316.5 298.6023,-335.9375 437.5481,-345.9062 517.0373,-350.39"/>
<polygon fill="#191970" stroke="#191970" points="143.1981,-305.4084 132.6653,-306.5527 141.6128,-312.2265 143.1981,-305.4084"/>
</g>
<!-- Node6 -->
<g id="node6" class="node">
<title>Node6</title>
<g id="a_node6"><a xlink:href="classVehicleControl_1_1Bluetooth_1_1Base.html#a73cb44dceb3bf46a3fb2acce2091be2a" target="_top" xlink:title="startWriteThread ">
<polygon fill="#ffffff" stroke="#000000" points="180.915,-364.5 180.915,-396.5 309.721,-396.5 309.721,-364.5 180.915,-364.5"/>
<text text-anchor="start" x="188.915" y="-383.5" font-family="Helvetica,sans-Serif" font-size="10.00" fill="#000000">VehicleControl::Bluetooth</text>
<text text-anchor="middle" x="245.318" y="-371.5" font-family="Helvetica,sans-Serif" font-size="10.00" fill="#000000">::Base::startWriteThread</text>
</a>
</g>
</g>
<!-- Node1&#45;&gt;Node6 -->
<g id="edge6" class="edge">
<title>Node1&#45;&gt;Node6</title>
<path fill="none" stroke="#191970" d="M110.0754,-311.56C130.8339,-323.0304 157.1506,-337.3262 180.915,-349.5 190.6339,-354.4787 201.2811,-359.6976 211.0701,-364.4033"/>
<polygon fill="#191970" stroke="#191970" points="111.6944,-308.4557 101.2512,-306.6694 108.3011,-314.5782 111.6944,-308.4557"/>
</g>
<!-- Node7 -->
<g id="node7" class="node">
<title>Node7</title>
<g id="a_node7"><a xlink:href="classVehicleControl_1_1Bluetooth_1_1Client.html#a0391040c6047198f5115f47bce8f1e49" target="_top" xlink:title="VehicleControl::Bluetooth\l::Client::Client">
<polygon fill="#ffffff" stroke="#000000" points="180.915,-274.5 180.915,-306.5 309.721,-306.5 309.721,-274.5 180.915,-274.5"/>
<text text-anchor="start" x="188.915" y="-293.5" font-family="Helvetica,sans-Serif" font-size="10.00" fill="#000000">VehicleControl::Bluetooth</text>
<text text-anchor="middle" x="245.318" y="-281.5" font-family="Helvetica,sans-Serif" font-size="10.00" fill="#000000">::Client::Client</text>
</a>
</g>
</g>
<!-- Node1&#45;&gt;Node7 -->
<g id="edge8" class="edge">
<title>Node1&#45;&gt;Node7</title>
<path fill="none" stroke="#191970" d="M155.057,-290.5C163.6489,-290.5 172.2913,-290.5 180.6438,-290.5"/>
<polygon fill="#191970" stroke="#191970" points="155.0146,-287.0001 145.0146,-290.5 155.0145,-294.0001 155.0146,-287.0001"/>
</g>
<!-- Node8 -->
<g id="node8" class="node">
<title>Node8</title>
<g id="a_node8"><a xlink:href="classVehicleControl_1_1Bluetooth_1_1Server.html#a71e526977ad6225f87b2b962820931a9" target="_top" xlink:title="VehicleControl::Bluetooth\l::Server::Server">
<polygon fill="#ffffff" stroke="#000000" points="180.915,-223.5 180.915,-255.5 309.721,-255.5 309.721,-223.5 180.915,-223.5"/>
<text text-anchor="start" x="188.915" y="-242.5" font-family="Helvetica,sans-Serif" font-size="10.00" fill="#000000">VehicleControl::Bluetooth</text>
<text text-anchor="middle" x="245.318" y="-230.5" font-family="Helvetica,sans-Serif" font-size="10.00" fill="#000000">::Server::Server</text>
</a>
</g>
</g>
<!-- Node1&#45;&gt;Node8 -->
<g id="edge10" class="edge">
<title>Node1&#45;&gt;Node8</title>
<path fill="none" stroke="#191970" d="M136.882,-271.4925C154.6813,-266.241 173.8146,-260.596 190.9797,-255.5317"/>
<polygon fill="#191970" stroke="#191970" points="135.7525,-268.1765 127.1516,-274.3633 137.7334,-274.8904 135.7525,-268.1765"/>
</g>
<!-- Node9 -->
<g id="node9" class="node">
<title>Node9</title>
<g id="a_node9"><a xlink:href="classCore_1_1IO_1_1Input.html#a35ee0fc0d31172da73135b8ddc543fff" target="_top" xlink:title="waitForEdgeThreaded does the same thing as waitForEdge(), but does so in a threaded manner...">
<polygon fill="#ffffff" stroke="#000000" points="350.171,-185.5 350.171,-217.5 470.077,-217.5 470.077,-185.5 350.171,-185.5"/>
<text text-anchor="start" x="358.171" y="-204.5" font-family="Helvetica,sans-Serif" font-size="10.00" fill="#000000">Core::IO::Input::waitFor</text>
<text text-anchor="middle" x="410.124" y="-192.5" font-family="Helvetica,sans-Serif" font-size="10.00" fill="#000000">EdgeThreaded</text>
</a>
</g>
</g>
<!-- Node1&#45;&gt;Node9 -->
<g id="edge12" class="edge">
<title>Node1&#45;&gt;Node9</title>
<path fill="none" stroke="#191970" d="M96.784,-267.4027C117.4081,-249.412 148.6984,-225.6769 180.915,-214.5 235.8919,-195.4268 302.7125,-193.8807 349.9859,-196.0734"/>
<polygon fill="#191970" stroke="#191970" points="94.28,-264.9465 89.1575,-274.2207 98.9454,-270.1652 94.28,-264.9465"/>
</g>
<!-- Node12 -->
<g id="node12" class="node">
<title>Node12</title>
<g id="a_node12"><a xlink:href="classCore_1_1IO_1_1MotorControl.html#a6c2c814eeba186101329b864df3bfcc3" target="_top" xlink:title="MotorControl ServoControl constructor creates the class, and spawns the frequency control thread...">
<polygon fill="#ffffff" stroke="#000000" points="186.759,-133.5 186.759,-165.5 303.877,-165.5 303.877,-133.5 186.759,-133.5"/>
<text text-anchor="start" x="194.759" y="-152.5" font-family="Helvetica,sans-Serif" font-size="10.00" fill="#000000">Core::IO::MotorControl</text>
<text text-anchor="middle" x="245.318" y="-140.5" font-family="Helvetica,sans-Serif" font-size="10.00" fill="#000000">::MotorControl</text>
</a>
</g>
</g>
<!-- Node1&#45;&gt;Node12 -->
<g id="edge16" class="edge">
<title>Node1&#45;&gt;Node12</title>
<path fill="none" stroke="#191970" d="M92.0002,-266.2761C112.3151,-242.2376 145.9783,-205.4699 180.915,-180.5 188.6885,-174.9441 197.6123,-169.9259 206.2911,-165.6245"/>
<polygon fill="#191970" stroke="#191970" points="89.1038,-264.2847 85.3911,-274.2077 94.4815,-268.7658 89.1038,-264.2847"/>
</g>
<!-- Node13 -->
<g id="node13" class="node">
<title>Node13</title>
<g id="a_node13"><a xlink:href="classCore_1_1IO_1_1UserLED.html#ac39c3ed451b83046ff37ecb4ccff142c" target="_top" xlink:title="setState method sets the state of the LED ">
<polygon fill="#ffffff" stroke="#000000" points="192.592,-73.5 192.592,-105.5 298.044,-105.5 298.044,-73.5 192.592,-73.5"/>
<text text-anchor="start" x="200.592" y="-92.5" font-family="Helvetica,sans-Serif" font-size="10.00" fill="#000000">Core::IO::UserLED::</text>
<text text-anchor="middle" x="245.318" y="-80.5" font-family="Helvetica,sans-Serif" font-size="10.00" fill="#000000">setState</text>
</a>
</g>
</g>
<!-- Node1&#45;&gt;Node13 -->
<g id="edge17" class="edge">
<title>Node1&#45;&gt;Node13</title>
<path fill="none" stroke="#191970" d="M83.9125,-265.3719C100.935,-230.2427 135.8068,-166.0977 180.915,-124.5 188.8667,-117.1671 198.6381,-110.8452 208.1441,-105.6712"/>
<polygon fill="#191970" stroke="#191970" points="80.721,-263.9335 79.591,-274.4679 87.0437,-266.9375 80.721,-263.9335"/>
</g>
<!-- Node3 -->
<g id="node3" class="node">
<title>Node3</title>
<g id="a_node3"><a xlink:href="classVehicleControl_1_1Bluetooth_1_1Base.html#a6c41447b1283d1b90459cbdae3a54480" target="_top" xlink:title="startBothThreads ">
<polygon fill="#ffffff" stroke="#000000" points="345.721,-403.5 345.721,-435.5 474.527,-435.5 474.527,-403.5 345.721,-403.5"/>
<text text-anchor="start" x="353.721" y="-422.5" font-family="Helvetica,sans-Serif" font-size="10.00" fill="#000000">VehicleControl::Bluetooth</text>
<text text-anchor="middle" x="410.124" y="-410.5" font-family="Helvetica,sans-Serif" font-size="10.00" fill="#000000">::Base::startBothThreads</text>
</a>
</g>
</g>
<!-- Node2&#45;&gt;Node3 -->
<g id="edge2" class="edge">
<title>Node2&#45;&gt;Node3</title>
<path fill="none" stroke="#191970" d="M319.969,-426.0644C328.5408,-425.4403 337.2256,-424.8079 345.6478,-424.1947"/>
<polygon fill="#191970" stroke="#191970" points="319.7001,-422.5747 309.9807,-426.7917 320.2085,-429.5562 319.7001,-422.5747"/>
</g>
<!-- Node3&#45;&gt;Node4 -->
<g id="edge3" class="edge">
<title>Node3&#45;&gt;Node4</title>
<path fill="none" stroke="#191970" d="M484.7228,-436.4676C495.4608,-438.9099 506.4358,-441.4062 516.9586,-443.7996"/>
<polygon fill="#191970" stroke="#191970" points="485.475,-433.0493 474.9478,-434.2442 483.9224,-439.875 485.475,-433.0493"/>
</g>
<!-- Node3&#45;&gt;Node5 -->
<g id="edge4" class="edge">
<title>Node3&#45;&gt;Node5</title>
<path fill="none" stroke="#191970" d="M461.4078,-399.76C486.4329,-390.1274 516.1552,-378.6868 539.7805,-369.593"/>
<polygon fill="#191970" stroke="#191970" points="460.1444,-396.4959 452.0692,-403.3546 462.659,-403.0287 460.1444,-396.4959"/>
</g>
<!-- Node5&#45;&gt;Node5 -->
<g id="edge5" class="edge">
<title>Node5&#45;&gt;Node5</title>
<path fill="none" stroke="#191970" d="M552.3758,-380.0753C556.2435,-384.7466 565.9814,-388 581.5895,-388 607.2028,-388 617.0079,-379.2388 611.0048,-369.8274"/>
<polygon fill="#191970" stroke="#191970" points="555.8703,-379.7566 552.1742,-369.8274 548.8716,-379.8943 555.8703,-379.7566"/>
</g>
<!-- Node6&#45;&gt;Node3 -->
<g id="edge7" class="edge">
<title>Node6&#45;&gt;Node3</title>
<path fill="none" stroke="#191970" d="M319.969,-398.1655C328.5408,-400.194 337.2256,-402.2492 345.6478,-404.2422"/>
<polygon fill="#191970" stroke="#191970" points="320.5179,-394.6989 309.9807,-395.8019 318.9059,-401.5107 320.5179,-394.6989"/>
</g>
<!-- Node10 -->
<g id="node10" class="node">
<title>Node10</title>
<g id="a_node10"><a xlink:href="classCore_1_1IO_1_1Input.html#ae490cffe2162d4538dd108b0bd1f3695" target="_top" xlink:title="Input constructs an input based on the given setup. The constructor will automatically export the pin...">
<polygon fill="#ffffff" stroke="#000000" points="526.9055,-230.5 526.9055,-250.5 636.2735,-250.5 636.2735,-230.5 526.9055,-230.5"/>
<text text-anchor="middle" x="581.5895" y="-237.5" font-family="Helvetica,sans-Serif" font-size="10.00" fill="#000000">Core::IO::Input::Input</text>
</a>
</g>
</g>
<!-- Node9&#45;&gt;Node10 -->
<g id="edge13" class="edge">
<title>Node9&#45;&gt;Node10</title>
<path fill="none" stroke="#191970" d="M479.8642,-217.3625C499.3738,-221.8 520.029,-226.498 537.5929,-230.4929"/>
<polygon fill="#191970" stroke="#191970" points="480.6215,-213.9454 470.0943,-215.1403 479.069,-220.7711 480.6215,-213.9454"/>
</g>
<!-- Node11 -->
<g id="node11" class="node">
<title>Node11</title>
<g id="a_node11"><a xlink:href="structCore_1_1IO_1_1Input_1_1Setup.html#a493b98ee230283215bd55b7ba739f60a" target="_top" xlink:title="Core::IO::Input::Setup\l::Setup">
<polygon fill="#ffffff" stroke="#000000" points="691.417,-166.5 691.417,-198.5 804.675,-198.5 804.675,-166.5 691.417,-166.5"/>
<text text-anchor="start" x="699.417" y="-185.5" font-family="Helvetica,sans-Serif" font-size="10.00" fill="#000000">Core::IO::Input::Setup</text>
<text text-anchor="middle" x="748.046" y="-173.5" font-family="Helvetica,sans-Serif" font-size="10.00" fill="#000000">::Setup</text>
</a>
</g>
</g>
<!-- Node9&#45;&gt;Node11 -->
<g id="edge15" class="edge">
<title>Node9&#45;&gt;Node11</title>
<path fill="none" stroke="#191970" d="M480.3295,-197.5526C542.9031,-194.0344 633.3212,-188.9505 691.3917,-185.6854"/>
<polygon fill="#191970" stroke="#191970" points="479.936,-194.0691 470.1483,-198.1251 480.329,-201.0581 479.936,-194.0691"/>
</g>
<!-- Node10&#45;&gt;Node11 -->
<g id="edge14" class="edge">
<title>Node10&#45;&gt;Node11</title>
<path fill="none" stroke="#191970" d="M620.2008,-227.0463C644.5466,-218.5633 676.1232,-207.5607 701.803,-198.6129"/>
<polygon fill="#191970" stroke="#191970" points="618.8755,-223.8016 610.584,-230.3972 621.1788,-230.4118 618.8755,-223.8016"/>
</g>
<!-- Node14 -->
<g id="node14" class="node">
<title>Node14</title>
<g id="a_node14"><a xlink:href="namespaceVehicleControl.html#af89cecf99aa4e7787af7433d8f3b6970" target="_top" xlink:title="VehicleControl::callback">
<polygon fill="#ffffff" stroke="#000000" points="348.784,-107.5 348.784,-127.5 471.464,-127.5 471.464,-107.5 348.784,-107.5"/>
<text text-anchor="middle" x="410.124" y="-114.5" font-family="Helvetica,sans-Serif" font-size="10.00" fill="#000000">VehicleControl::callback</text>
</a>
</g>
</g>
<!-- Node13&#45;&gt;Node14 -->
<g id="edge18" class="edge">
<title>Node13&#45;&gt;Node14</title>
<path fill="none" stroke="#191970" d="M308.4303,-100.2226C322.472,-102.6082 337.3055,-105.1284 351.1725,-107.4843"/>
<polygon fill="#191970" stroke="#191970" points="308.8158,-96.738 298.3708,-98.5135 307.6433,-103.6391 308.8158,-96.738"/>
</g>
<!-- Node18 -->
<g id="node18" class="node">
<title>Node18</title>
<g id="a_node18"><a xlink:href="classCore_1_1IO_1_1UserLED.html#a4e161b02396d015ce4fd5434853e44bc" target="_top" xlink:title="changeBlinkTime method changes the time of the blink ">
<polygon fill="#ffffff" stroke="#000000" points="357.398,-54.5 357.398,-86.5 462.85,-86.5 462.85,-54.5 357.398,-54.5"/>
<text text-anchor="start" x="365.398" y="-73.5" font-family="Helvetica,sans-Serif" font-size="10.00" fill="#000000">Core::IO::UserLED::</text>
<text text-anchor="middle" x="410.124" y="-61.5" font-family="Helvetica,sans-Serif" font-size="10.00" fill="#000000">changeBlinkTime</text>
</a>
</g>
</g>
<!-- Node13&#45;&gt;Node18 -->
<g id="edge24" class="edge">
<title>Node13&#45;&gt;Node18</title>
<path fill="none" stroke="#191970" d="M308.716,-82.191C324.7218,-80.3458 341.7395,-78.3839 357.1706,-76.6048"/>
<polygon fill="#191970" stroke="#191970" points="307.9041,-78.7614 298.3708,-83.3837 308.7059,-85.7153 307.9041,-78.7614"/>
</g>
<!-- Node19 -->
<g id="node19" class="node">
<title>Node19</title>
<g id="a_node19"><a xlink:href="structCore_1_1IO_1_1UserLED_1_1Setup.html#a72bdd70912a6322aba2da15c28a84fbe" target="_top" xlink:title="Core::IO::UserLED::\lSetup::Setup">
<polygon fill="#ffffff" stroke="#000000" points="528.8635,-.5 528.8635,-32.5 634.3155,-32.5 634.3155,-.5 528.8635,-.5"/>
<text text-anchor="start" x="536.8635" y="-19.5" font-family="Helvetica,sans-Serif" font-size="10.00" fill="#000000">Core::IO::UserLED::</text>
<text text-anchor="middle" x="581.5895" y="-7.5" font-family="Helvetica,sans-Serif" font-size="10.00" fill="#000000">Setup::Setup</text>
</a>
</g>
</g>
<!-- Node13&#45;&gt;Node19 -->
<g id="edge26" class="edge">
<title>Node13&#45;&gt;Node19</title>
<path fill="none" stroke="#191970" d="M283.8909,-68.9027C302.1522,-60.023 324.5556,-50.3521 345.721,-44.5 407.128,-27.5214 480.3255,-20.838 528.7156,-18.2073"/>
<polygon fill="#191970" stroke="#191970" points="282.143,-65.863 274.7475,-73.4497 285.2599,-72.1307 282.143,-65.863"/>
</g>
<!-- Node14&#45;&gt;Node11 -->
<g id="edge21" class="edge">
<title>Node14&#45;&gt;Node11</title>
<path fill="none" stroke="#191970" d="M453.7883,-130.3026C471.3237,-135.1656 491.7877,-140.4927 510.527,-144.5 571.7826,-157.5992 642.7999,-168.394 691.1091,-175.0877"/>
<polygon fill="#191970" stroke="#191970" points="454.4112,-126.8422 443.8372,-127.5065 452.5176,-133.5812 454.4112,-126.8422"/>
</g>
<!-- Node15 -->
<g id="node15" class="node">
<title>Node15</title>
<g id="a_node15"><a xlink:href="classCore_1_1IO_1_1Input.html#af505f10ed01aa26257a8709ba7211ba6" target="_top" xlink:title="setEdgeCallback setter ">
<polygon fill="#ffffff" stroke="#000000" points="519.681,-102.5 519.681,-134.5 643.498,-134.5 643.498,-102.5 519.681,-102.5"/>
<text text-anchor="start" x="527.681" y="-121.5" font-family="Helvetica,sans-Serif" font-size="10.00" fill="#000000">Core::IO::Input::setEdge</text>
<text text-anchor="middle" x="581.5895" y="-109.5" font-family="Helvetica,sans-Serif" font-size="10.00" fill="#000000">Callback</text>
</a>
</g>
</g>
<!-- Node14&#45;&gt;Node15 -->
<g id="edge19" class="edge">
<title>Node14&#45;&gt;Node15</title>
<path fill="none" stroke="#191970" d="M481.902,-117.9186C494.3766,-117.9914 507.2563,-118.0665 519.446,-118.1376"/>
<polygon fill="#191970" stroke="#191970" points="481.5629,-114.4167 471.5427,-117.8582 481.5221,-121.4166 481.5629,-114.4167"/>
</g>
<!-- Node16 -->
<g id="node16" class="node">
<title>Node16</title>
<g id="a_node16"><a xlink:href="namespaceVehicleControl.html#ab876bdb990021d96b1452a85b59f99d8" target="_top" xlink:title="VehicleControl::createRising\lEdgeThreadedInput">
<polygon fill="#ffffff" stroke="#000000" points="510.527,-51.5 510.527,-83.5 652.652,-83.5 652.652,-51.5 510.527,-51.5"/>
<text text-anchor="start" x="518.527" y="-70.5" font-family="Helvetica,sans-Serif" font-size="10.00" fill="#000000">VehicleControl::createRising</text>
<text text-anchor="middle" x="581.5895" y="-58.5" font-family="Helvetica,sans-Serif" font-size="10.00" fill="#000000">EdgeThreadedInput</text>
</a>
</g>
</g>
<!-- Node14&#45;&gt;Node16 -->
<g id="edge22" class="edge">
<title>Node14&#45;&gt;Node16</title>
<path fill="none" stroke="#191970" d="M454.5755,-104.5378C476.5984,-98.1158 503.3949,-90.3019 526.6883,-83.5094"/>
<polygon fill="#191970" stroke="#191970" points="453.4429,-101.2222 444.8226,-107.3818 455.4026,-107.9423 453.4429,-101.2222"/>
</g>
<!-- Node15&#45;&gt;Node11 -->
<g id="edge20" class="edge">
<title>Node15&#45;&gt;Node11</title>
<path fill="none" stroke="#191970" d="M633.0709,-138.2938C656.6078,-147.3434 684.1293,-157.925 706.344,-166.4662"/>
<polygon fill="#191970" stroke="#191970" points="634.1835,-134.9718 623.5935,-134.6499 631.6713,-141.5055 634.1835,-134.9718"/>
</g>
<!-- Node17 -->
<g id="node17" class="node">
<title>Node17</title>
<g id="a_node17"><a xlink:href="classVehicleControl_1_1Control_1_1IOFactory.html#a4d4de0203bf577352199f49c67f49d98" target="_top" xlink:title="fillInputList method fills in all of the app&#39;s inputs ">
<polygon fill="#ffffff" stroke="#000000" points="688.652,-51.5 688.652,-83.5 807.44,-83.5 807.44,-51.5 688.652,-51.5"/>
<text text-anchor="start" x="696.652" y="-70.5" font-family="Helvetica,sans-Serif" font-size="10.00" fill="#000000">VehicleControl::Control</text>
<text text-anchor="middle" x="748.046" y="-58.5" font-family="Helvetica,sans-Serif" font-size="10.00" fill="#000000">::IOFactory::fillInputList</text>
</a>
</g>
</g>
<!-- Node16&#45;&gt;Node17 -->
<g id="edge23" class="edge">
<title>Node16&#45;&gt;Node17</title>
<path fill="none" stroke="#191970" d="M662.7884,-67.5C671.4428,-67.5 680.1264,-67.5 688.4647,-67.5"/>
<polygon fill="#191970" stroke="#191970" points="662.6649,-64.0001 652.6649,-67.5 662.6648,-71.0001 662.6649,-64.0001"/>
</g>
<!-- Node18&#45;&gt;Node19 -->
<g id="edge25" class="edge">
<title>Node18&#45;&gt;Node19</title>
<path fill="none" stroke="#191970" d="M470.8139,-51.3868C490.3334,-45.2395 511.7515,-38.4942 530.5088,-32.587"/>
<polygon fill="#191970" stroke="#191970" points="469.5919,-48.1021 461.1051,-54.4444 471.6946,-54.7788 469.5919,-48.1021"/>
</g>
</g>
</svg>
