<?xml version="1.0" encoding="UTF-8" standalone="no"?>
<!DOCTYPE svg PUBLIC "-//W3C//DTD SVG 1.1//EN"
 "http://www.w3.org/Graphics/SVG/1.1/DTD/svg11.dtd">
<!-- Generated by graphviz version 2.40.1 (20161225.0304)
 -->
<!-- Title: VehicleControl::IO::IOBase::path Pages: 1 -->
<svg width="573pt" height="114pt"
 viewBox="0.00 0.00 573.46 114.00" xmlns="http://www.w3.org/2000/svg" xmlns:xlink="http://www.w3.org/1999/xlink">
<g id="graph0" class="graph" transform="scale(1 1) rotate(0) translate(4 110)">
<title>VehicleControl::IO::IOBase::path</title>
<polygon fill="#ffffff" stroke="transparent" points="-4,4 -4,-110 569.458,-110 569.458,4 -4,4"/>
<!-- Node24 -->
<g id="node1" class="node">
<title>Node24</title>
<polygon fill="#bfbfbf" stroke="#000000" points="0,-25.5 0,-57.5 97.123,-57.5 97.123,-25.5 0,-25.5"/>
<text text-anchor="start" x="8" y="-44.5" font-family="Helvetica,sans-Serif" font-size="10.00" fill="#000000">VehicleControl::IO</text>
<text text-anchor="middle" x="48.5615" y="-32.5" font-family="Helvetica,sans-Serif" font-size="10.00" fill="#000000">::IOBase::path</text>
</g>
<!-- Node25 -->
<g id="node2" class="node">
<title>Node25</title>
<g id="a_node2"><a xlink:href="classVehicleControl_1_1IO_1_1Input.html#a23f6d0d5f5cc67622adccf30c7bdb655" target="_top" xlink:title="waitForEdge method is a blocking wait for edge. Therefore, the callee will halt its thread until this...">
<polygon fill="#ffffff" stroke="#000000" points="138.683,-51.5 138.683,-83.5 244.153,-83.5 244.153,-51.5 138.683,-51.5"/>
<text text-anchor="start" x="146.683" y="-70.5" font-family="Helvetica,sans-Serif" font-size="10.00" fill="#000000">VehicleControl::IO</text>
<text text-anchor="middle" x="191.418" y="-58.5" font-family="Helvetica,sans-Serif" font-size="10.00" fill="#000000">::Input::waitForEdge</text>
</a>
</g>
</g>
<!-- Node24&#45;&gt;Node25 -->
<g id="edge1" class="edge">
<title>Node24&#45;&gt;Node25</title>
<path fill="none" stroke="#191970" d="M107.452,-52.2181C117.731,-54.0889 128.3676,-56.0248 138.4741,-57.8642"/>
<polygon fill="#191970" stroke="#191970" points="107.7902,-48.7222 97.325,-50.375 106.5367,-55.6091 107.7902,-48.7222"/>
</g>
<!-- Node28 -->
<g id="node5" class="node">
<title>Node28</title>
<g id="a_node5"><a xlink:href="classVehicleControl_1_1IO_1_1Output.html#a522b8b858e6e80e33b5c82cbe6a40dac" target="_top" xlink:title="cancelToggle cancels toggling ">
<polygon fill="#ffffff" stroke="#000000" points="133.123,-.5 133.123,-32.5 249.713,-32.5 249.713,-.5 133.123,-.5"/>
<text text-anchor="start" x="141.123" y="-19.5" font-family="Helvetica,sans-Serif" font-size="10.00" fill="#000000">VehicleControl::IO</text>
<text text-anchor="middle" x="191.418" y="-7.5" font-family="Helvetica,sans-Serif" font-size="10.00" fill="#000000">::Output::cancelToggle</text>
</a>
</g>
</g>
<!-- Node24&#45;&gt;Node28 -->
<g id="edge5" class="edge">
<title>Node24&#45;&gt;Node28</title>
<path fill="none" stroke="#191970" d="M107.1857,-31.2407C115.7098,-29.749 124.4854,-28.2133 133.0053,-26.7223"/>
<polygon fill="#191970" stroke="#191970" points="106.572,-27.7948 97.325,-32.9663 107.7787,-34.6901 106.572,-27.7948"/>
</g>
<!-- Node26 -->
<g id="node3" class="node">
<title>Node26</title>
<g id="a_node3"><a xlink:href="structVehicleControl_1_1IO_1_1Input_1_1Setup.html#a09ce07a96559b6f63eaa51d8eccbc877" target="_top" xlink:title="VehicleControl::IO\l::Input::Setup::Setup">
<polygon fill="#ffffff" stroke="#000000" points="458.299,-73.5 458.299,-105.5 565.458,-105.5 565.458,-73.5 458.299,-73.5"/>
<text text-anchor="start" x="466.299" y="-92.5" font-family="Helvetica,sans-Serif" font-size="10.00" fill="#000000">VehicleControl::IO</text>
<text text-anchor="middle" x="511.8785" y="-80.5" font-family="Helvetica,sans-Serif" font-size="10.00" fill="#000000">::Input::Setup::Setup</text>
</a>
</g>
</g>
<!-- Node25&#45;&gt;Node26 -->
<g id="edge2" class="edge">
<title>Node25&#45;&gt;Node26</title>
<path fill="none" stroke="#191970" d="M249.6048,-86.1658C261.4347,-89.2155 273.8807,-91.8986 285.713,-93.5 344.2819,-101.4267 412.1528,-98.6509 458.1464,-95.0168"/>
<polygon fill="#191970" stroke="#191970" points="250.4059,-82.7568 239.8395,-83.5334 248.5839,-89.5156 250.4059,-82.7568"/>
</g>
<!-- Node27 -->
<g id="node4" class="node">
<title>Node27</title>
<g id="a_node4"><a xlink:href="classVehicleControl_1_1IO_1_1Input.html#af43084e3aa7a11f0dae0ae67a22112f1" target="_top" xlink:title="cancelWaitForEdge method cancels waiting for the edge. ">
<polygon fill="#ffffff" stroke="#000000" points="285.713,-51.5 285.713,-83.5 422.299,-83.5 422.299,-51.5 285.713,-51.5"/>
<text text-anchor="start" x="293.713" y="-70.5" font-family="Helvetica,sans-Serif" font-size="10.00" fill="#000000">VehicleControl::IO</text>
<text text-anchor="middle" x="354.006" y="-58.5" font-family="Helvetica,sans-Serif" font-size="10.00" fill="#000000">::Input::cancelWaitForEdge</text>
</a>
</g>
</g>
<!-- Node25&#45;&gt;Node27 -->
<g id="edge3" class="edge">
<title>Node25&#45;&gt;Node27</title>
<path fill="none" stroke="#191970" d="M254.2692,-67.5C264.4955,-67.5 275.1329,-67.5 285.4866,-67.5"/>
<polygon fill="#191970" stroke="#191970" points="254.2057,-64.0001 244.2057,-67.5 254.2056,-71.0001 254.2057,-64.0001"/>
</g>
<!-- Node27&#45;&gt;Node26 -->
<g id="edge4" class="edge">
<title>Node27&#45;&gt;Node26</title>
<path fill="none" stroke="#191970" d="M432.5118,-78.44C441.2069,-79.6517 449.909,-80.8644 458.196,-82.0192"/>
<polygon fill="#191970" stroke="#191970" points="432.7204,-74.9353 422.333,-77.0216 431.7542,-81.8683 432.7204,-74.9353"/>
</g>
<!-- Node29 -->
<g id="node6" class="node">
<title>Node29</title>
<g id="a_node6"><a xlink:href="structVehicleControl_1_1IO_1_1Output_1_1Setup.html#a6346d200fcd68fb1693f1e3ae9c9d3af" target="_top" xlink:title="VehicleControl::IO\l::Output::Setup::Setup">
<polygon fill="#ffffff" stroke="#000000" points="296.537,-.5 296.537,-32.5 411.475,-32.5 411.475,-.5 296.537,-.5"/>
<text text-anchor="start" x="304.537" y="-19.5" font-family="Helvetica,sans-Serif" font-size="10.00" fill="#000000">VehicleControl::IO</text>
<text text-anchor="middle" x="354.006" y="-7.5" font-family="Helvetica,sans-Serif" font-size="10.00" fill="#000000">::Output::Setup::Setup</text>
</a>
</g>
</g>
<!-- Node28&#45;&gt;Node29 -->
<g id="edge6" class="edge">
<title>Node28&#45;&gt;Node29</title>
<path fill="none" stroke="#191970" d="M260.1628,-16.5C272.2586,-16.5 284.7341,-16.5 296.4834,-16.5"/>
<polygon fill="#191970" stroke="#191970" points="260.116,-13.0001 250.116,-16.5 260.116,-20.0001 260.116,-13.0001"/>
</g>
</g>
</svg>
