<?xml version="1.0" encoding="UTF-8" standalone="no"?>
<!DOCTYPE svg PUBLIC "-//W3C//DTD SVG 1.1//EN"
 "http://www.w3.org/Graphics/SVG/1.1/DTD/svg11.dtd">
<!-- Generated by graphviz version 2.40.1 (20161225.0304)
 -->
<!-- Title: Math::Range::lowValue Pages: 1 -->
<svg width="287pt" height="92pt"
 viewBox="0.00 0.00 286.63 92.00" xmlns="http://www.w3.org/2000/svg" xmlns:xlink="http://www.w3.org/1999/xlink">
<g id="graph0" class="graph" transform="scale(1 1) rotate(0) translate(4 88)">
<title>Math::Range::lowValue</title>
<polygon fill="#ffffff" stroke="transparent" points="-4,4 -4,-88 282.627,-88 282.627,4 -4,4"/>
<!-- Node9 -->
<g id="node1" class="node">
<title>Node9</title>
<polygon fill="#bfbfbf" stroke="#000000" points="0,-31.5 0,-51.5 119.359,-51.5 119.359,-31.5 0,-31.5"/>
<text text-anchor="middle" x="59.6795" y="-38.5" font-family="Helvetica,sans-Serif" font-size="10.00" fill="#000000">Math::Range::lowValue</text>
</g>
<!-- Node10 -->
<g id="node2" class="node">
<title>Node10</title>
<g id="a_node2"><a xlink:href="classMath_1_1LinearConverter.html#a0b41880c7734a6edf56ccf798dfc693b" target="_top" xlink:title="convertXtoY getter. Uses y = mx + b. ">
<polygon fill="#ffffff" stroke="#000000" points="155.359,-51.5 155.359,-83.5 278.627,-83.5 278.627,-51.5 155.359,-51.5"/>
<text text-anchor="start" x="163.359" y="-70.5" font-family="Helvetica,sans-Serif" font-size="10.00" fill="#000000">Math::LinearConverter</text>
<text text-anchor="middle" x="216.993" y="-58.5" font-family="Helvetica,sans-Serif" font-size="10.00" fill="#000000">&lt; int32_t &gt;::convertXtoY</text>
</a>
</g>
</g>
<!-- Node9&#45;&gt;Node10 -->
<g id="edge1" class="edge">
<title>Node9&#45;&gt;Node10</title>
<path fill="none" stroke="#191970" d="M129.5322,-53.0449C138.0672,-54.4555 146.7422,-55.8893 155.1484,-57.2786"/>
<polygon fill="#191970" stroke="#191970" points="130.0387,-49.5812 119.6018,-51.4037 128.8972,-56.4875 130.0387,-49.5812"/>
</g>
<!-- Node11 -->
<g id="node3" class="node">
<title>Node11</title>
<g id="a_node3"><a xlink:href="classMath_1_1LinearConverter.html#a273d07db25141b970ca038d0826e83be" target="_top" xlink:title="convertYtoX getter. Uses x = ( y &#45; b ) / m. ">
<polygon fill="#ffffff" stroke="#000000" points="155.359,-.5 155.359,-32.5 278.627,-32.5 278.627,-.5 155.359,-.5"/>
<text text-anchor="start" x="163.359" y="-19.5" font-family="Helvetica,sans-Serif" font-size="10.00" fill="#000000">Math::LinearConverter</text>
<text text-anchor="middle" x="216.993" y="-7.5" font-family="Helvetica,sans-Serif" font-size="10.00" fill="#000000">&lt; int32_t &gt;::convertYtoX</text>
</a>
</g>
</g>
<!-- Node9&#45;&gt;Node11 -->
<g id="edge2" class="edge">
<title>Node9&#45;&gt;Node11</title>
<path fill="none" stroke="#191970" d="M129.5322,-30.3991C138.0672,-29.0428 146.7422,-27.6641 155.1484,-26.3282"/>
<polygon fill="#191970" stroke="#191970" points="128.9285,-26.9511 119.6018,-31.9773 130.0272,-33.8643 128.9285,-26.9511"/>
</g>
</g>
</svg>
