<?xml version="1.0" encoding="UTF-8" standalone="no"?>
<!DOCTYPE svg PUBLIC "-//W3C//DTD SVG 1.1//EN"
 "http://www.w3.org/Graphics/SVG/1.1/DTD/svg11.dtd">
<!-- Generated by graphviz version 2.40.1 (20161225.0304)
 -->
<!-- Title: VehicleControl::IO::MotorControl::dutyCycle Pages: 1 -->
<svg width="307pt" height="92pt"
 viewBox="0.00 0.00 307.13 92.00" xmlns="http://www.w3.org/2000/svg" xmlns:xlink="http://www.w3.org/1999/xlink">
<g id="graph0" class="graph" transform="scale(1 1) rotate(0) translate(4 88)">
<title>VehicleControl::IO::MotorControl::dutyCycle</title>
<polygon fill="#ffffff" stroke="transparent" points="-4,4 -4,-88 303.133,-88 303.133,4 -4,4"/>
<!-- Node7 -->
<g id="node1" class="node">
<title>Node7</title>
<polygon fill="#bfbfbf" stroke="#000000" points="0,-25.5 0,-57.5 128.788,-57.5 128.788,-25.5 0,-25.5"/>
<text text-anchor="start" x="8" y="-44.5" font-family="Helvetica,sans-Serif" font-size="10.00" fill="#000000">VehicleControl::IO</text>
<text text-anchor="middle" x="64.394" y="-32.5" font-family="Helvetica,sans-Serif" font-size="10.00" fill="#000000">::MotorControl::dutyCycle</text>
</g>
<!-- Node8 -->
<g id="node2" class="node">
<title>Node8</title>
<g id="a_node2"><a xlink:href="classVehicleControl_1_1IO_1_1MotorControl.html#aa3d0162e477010fd1d60e53d76b69a5c" target="_top" xlink:title="pulseWidth getter ">
<polygon fill="#ffffff" stroke="#000000" points="164.788,-51.5 164.788,-83.5 299.133,-83.5 299.133,-51.5 164.788,-51.5"/>
<text text-anchor="start" x="172.788" y="-70.5" font-family="Helvetica,sans-Serif" font-size="10.00" fill="#000000">VehicleControl::IO</text>
<text text-anchor="middle" x="231.9605" y="-58.5" font-family="Helvetica,sans-Serif" font-size="10.00" fill="#000000">::MotorControl::pulseWidth</text>
</a>
</g>
</g>
<!-- Node7&#45;&gt;Node8 -->
<g id="edge1" class="edge">
<title>Node7&#45;&gt;Node8</title>
<path fill="none" stroke="#191970" d="M129.1796,-51.5523C137.52,-52.8464 146.1256,-54.1817 154.6416,-55.503"/>
<polygon fill="#191970" stroke="#191970" points="154.1578,-58.9698 164.5762,-57.0445 155.2312,-52.0525 154.1578,-58.9698"/>
</g>
<!-- Node9 -->
<g id="node3" class="node">
<title>Node9</title>
<g id="a_node3"><a xlink:href="classVehicleControl_1_1IO_1_1MotorControl.html#ac9ec3e369840c53a3e3e6caebb0ed151" target="_top" xlink:title="frequency getter ">
<polygon fill="#ffffff" stroke="#000000" points="167.562,-.5 167.562,-32.5 296.359,-32.5 296.359,-.5 167.562,-.5"/>
<text text-anchor="start" x="175.562" y="-19.5" font-family="Helvetica,sans-Serif" font-size="10.00" fill="#000000">VehicleControl::IO</text>
<text text-anchor="middle" x="231.9605" y="-7.5" font-family="Helvetica,sans-Serif" font-size="10.00" fill="#000000">::MotorControl::frequency</text>
</a>
</g>
</g>
<!-- Node7&#45;&gt;Node9 -->
<g id="edge2" class="edge">
<title>Node7&#45;&gt;Node9</title>
<path fill="none" stroke="#191970" d="M129.1796,-31.8343C138.3777,-30.462 147.8982,-29.0416 157.2655,-27.6441"/>
<polygon fill="#191970" stroke="#191970" points="157.9732,-31.0773 167.3472,-26.1399 156.9402,-24.154 157.9732,-31.0773"/>
</g>
</g>
</svg>
