<?xml version="1.0" encoding="UTF-8" standalone="no"?>
<!DOCTYPE svg PUBLIC "-//W3C//DTD SVG 1.1//EN"
 "http://www.w3.org/Graphics/SVG/1.1/DTD/svg11.dtd">
<!-- Generated by graphviz version 2.40.1 (20161225.0304)
 -->
<!-- Title: VehicleControl::IO::Input::waitForEdgeThreaded Pages: 1 -->
<svg width="337pt" height="41pt"
 viewBox="0.00 0.00 337.18 41.00" xmlns="http://www.w3.org/2000/svg" xmlns:xlink="http://www.w3.org/1999/xlink">
<g id="graph0" class="graph" transform="scale(1 1) rotate(0) translate(4 37)">
<title>VehicleControl::IO::Input::waitForEdgeThreaded</title>
<polygon fill="#ffffff" stroke="transparent" points="-4,4 -4,-37 333.177,-37 333.177,4 -4,4"/>
<!-- Node48 -->
<g id="node1" class="node">
<title>Node48</title>
<polygon fill="#bfbfbf" stroke="#000000" points="0,-.5 0,-32.5 148.262,-32.5 148.262,-.5 0,-.5"/>
<text text-anchor="start" x="8" y="-19.5" font-family="Helvetica,sans-Serif" font-size="10.00" fill="#000000">VehicleControl::IO</text>
<text text-anchor="middle" x="74.131" y="-7.5" font-family="Helvetica,sans-Serif" font-size="10.00" fill="#000000">::Input::waitForEdgeThreaded</text>
</g>
<!-- Node49 -->
<g id="node2" class="node">
<title>Node49</title>
<g id="a_node2"><a xlink:href="classThreadHelper.html#a4426e115e7858a4b6f6eedbc77302756" target="_top" xlink:title="startDetachedThread ">
<polygon fill="#ffffff" stroke="#000000" points="184.262,-.5 184.262,-32.5 329.177,-32.5 329.177,-.5 184.262,-.5"/>
<text text-anchor="start" x="192.262" y="-19.5" font-family="Helvetica,sans-Serif" font-size="10.00" fill="#000000">ThreadHelper::startDetached</text>
<text text-anchor="middle" x="256.7195" y="-7.5" font-family="Helvetica,sans-Serif" font-size="10.00" fill="#000000">Thread</text>
</a>
</g>
</g>
<!-- Node48&#45;&gt;Node49 -->
<g id="edge1" class="edge">
<title>Node48&#45;&gt;Node49</title>
<path fill="none" stroke="#191970" d="M148.3967,-16.5C156.7496,-16.5 165.2996,-16.5 173.7536,-16.5"/>
<polygon fill="#191970" stroke="#191970" points="173.9983,-20.0001 183.9982,-16.5 173.9982,-13.0001 173.9983,-20.0001"/>
</g>
</g>
</svg>
