<?xml version="1.0" encoding="UTF-8" standalone="no"?>
<!DOCTYPE svg PUBLIC "-//W3C//DTD SVG 1.1//EN"
 "http://www.w3.org/Graphics/SVG/1.1/DTD/svg11.dtd">
<!-- Generated by graphviz version 2.40.1 (20161225.0304)
 -->
<!-- Title: LibBBB::AnalogToDigitalController::rawADCValue Pages: 1 -->
<svg width="1008pt" height="53pt"
 viewBox="0.00 0.00 1007.97 53.00" xmlns="http://www.w3.org/2000/svg" xmlns:xlink="http://www.w3.org/1999/xlink">
<g id="graph0" class="graph" transform="scale(1 1) rotate(0) translate(4 49)">
<title>LibBBB::AnalogToDigitalController::rawADCValue</title>
<polygon fill="#ffffff" stroke="transparent" points="-4,4 -4,-49 1003.969,-49 1003.969,4 -4,4"/>
<!-- Node22 -->
<g id="node1" class="node">
<title>Node22</title>
<polygon fill="#bfbfbf" stroke="#000000" points="0,-6.5 0,-38.5 168.797,-38.5 168.797,-6.5 0,-6.5"/>
<text text-anchor="start" x="8" y="-25.5" font-family="Helvetica,sans-Serif" font-size="10.00" fill="#000000">LibBBB::AnalogToDigitalController</text>
<text text-anchor="middle" x="84.3985" y="-13.5" font-family="Helvetica,sans-Serif" font-size="10.00" fill="#000000">::rawADCValue</text>
</g>
<!-- Node23 -->
<g id="node2" class="node">
<title>Node23</title>
<g id="a_node2"><a xlink:href="classLibBBB_1_1AnalogToDigitalController.html#ae9099e54e15ebdf0213db4b7b87e3db4" target="_top" xlink:title="adcVoltage gets the ADC channel&#39;s unscaled value ">
<polygon fill="#ffffff" stroke="#000000" points="204.797,-6.5 204.797,-38.5 373.594,-38.5 373.594,-6.5 204.797,-6.5"/>
<text text-anchor="start" x="212.797" y="-25.5" font-family="Helvetica,sans-Serif" font-size="10.00" fill="#000000">LibBBB::AnalogToDigitalController</text>
<text text-anchor="middle" x="289.1955" y="-13.5" font-family="Helvetica,sans-Serif" font-size="10.00" fill="#000000">::adcVoltage</text>
</a>
</g>
</g>
<!-- Node22&#45;&gt;Node23 -->
<g id="edge1" class="edge">
<title>Node22&#45;&gt;Node23</title>
<path fill="none" stroke="#191970" d="M178.8902,-22.5C187.4592,-22.5 196.1024,-22.5 204.5779,-22.5"/>
<polygon fill="#191970" stroke="#191970" points="178.8797,-19.0001 168.8797,-22.5 178.8796,-26.0001 178.8797,-19.0001"/>
</g>
<!-- Node24 -->
<g id="node3" class="node">
<title>Node24</title>
<g id="a_node3"><a xlink:href="classLibBBB_1_1AnalogToDigitalController.html#a44f86e094ef5abaa24e6342ba51ba0c2" target="_top" xlink:title="batteryVoltage gets the LiPo battery&#39;s voltage ">
<polygon fill="#ffffff" stroke="#000000" points="409.594,-6.5 409.594,-38.5 578.391,-38.5 578.391,-6.5 409.594,-6.5"/>
<text text-anchor="start" x="417.594" y="-25.5" font-family="Helvetica,sans-Serif" font-size="10.00" fill="#000000">LibBBB::AnalogToDigitalController</text>
<text text-anchor="middle" x="493.9925" y="-13.5" font-family="Helvetica,sans-Serif" font-size="10.00" fill="#000000">::batteryVoltage</text>
</a>
</g>
</g>
<!-- Node23&#45;&gt;Node24 -->
<g id="edge2" class="edge">
<title>Node23&#45;&gt;Node24</title>
<path fill="none" stroke="#191970" d="M383.6872,-22.5C392.2562,-22.5 400.8994,-22.5 409.3749,-22.5"/>
<polygon fill="#191970" stroke="#191970" points="383.6767,-19.0001 373.6767,-22.5 383.6766,-26.0001 383.6767,-19.0001"/>
</g>
<!-- Node25 -->
<g id="node4" class="node">
<title>Node25</title>
<g id="a_node4"><a xlink:href="classVehicleControl_1_1Control_1_1CommunicationProtocolParser.html#abdbab1c6376e364c7064e5c5b04f0168" target="_top" xlink:title="sendOutgoingPackets packs and send outgoing data. This method takes care of packing bools into a sing...">
<polygon fill="#ffffff" stroke="#000000" points="614.391,-.5 614.391,-44.5 771.515,-44.5 771.515,-.5 614.391,-.5"/>
<text text-anchor="start" x="622.391" y="-31.5" font-family="Helvetica,sans-Serif" font-size="10.00" fill="#000000">VehicleControl::Control</text>
<text text-anchor="start" x="622.391" y="-19.5" font-family="Helvetica,sans-Serif" font-size="10.00" fill="#000000">::CommunicationProtocolParser</text>
<text text-anchor="middle" x="692.953" y="-7.5" font-family="Helvetica,sans-Serif" font-size="10.00" fill="#000000">::sendOutgoingPackets</text>
</a>
</g>
</g>
<!-- Node24&#45;&gt;Node25 -->
<g id="edge3" class="edge">
<title>Node24&#45;&gt;Node25</title>
<path fill="none" stroke="#191970" d="M588.7056,-22.5C597.2963,-22.5 605.9345,-22.5 614.3632,-22.5"/>
<polygon fill="#191970" stroke="#191970" points="588.6582,-19.0001 578.6582,-22.5 588.6581,-26.0001 588.6582,-19.0001"/>
</g>
<!-- Node26 -->
<g id="node5" class="node">
<title>Node26</title>
<g id="a_node5"><a xlink:href="classVehicleControl_1_1Control.html#af677fb9565407041290bbf7b681802e5" target="_top" xlink:title="update method that controls the vehicle ">
<polygon fill="#ffffff" stroke="#000000" points="807.515,-6.5 807.515,-38.5 926.303,-38.5 926.303,-6.5 807.515,-6.5"/>
<text text-anchor="start" x="815.515" y="-25.5" font-family="Helvetica,sans-Serif" font-size="10.00" fill="#000000">VehicleControl::Control</text>
<text text-anchor="middle" x="866.909" y="-13.5" font-family="Helvetica,sans-Serif" font-size="10.00" fill="#000000">::update</text>
</a>
</g>
</g>
<!-- Node25&#45;&gt;Node26 -->
<g id="edge4" class="edge">
<title>Node25&#45;&gt;Node26</title>
<path fill="none" stroke="#191970" d="M781.7443,-22.5C790.4506,-22.5 799.1327,-22.5 807.4414,-22.5"/>
<polygon fill="#191970" stroke="#191970" points="781.5337,-19.0001 771.5336,-22.5 781.5336,-26.0001 781.5337,-19.0001"/>
</g>
<!-- Node27 -->
<g id="node6" class="node">
<title>Node27</title>
<g id="a_node6"><a xlink:href="main_8cpp.html#ae66f6b31b5ad750f1fe042a706a4e3d4" target="_top" xlink:title="main">
<polygon fill="#ffffff" stroke="#000000" points="962.303,-12.5 962.303,-32.5 999.969,-32.5 999.969,-12.5 962.303,-12.5"/>
<text text-anchor="middle" x="981.136" y="-19.5" font-family="Helvetica,sans-Serif" font-size="10.00" fill="#000000">main</text>
</a>
</g>
</g>
<!-- Node26&#45;&gt;Node27 -->
<g id="edge5" class="edge">
<title>Node26&#45;&gt;Node27</title>
<path fill="none" stroke="#191970" d="M936.6469,-22.5C945.9977,-22.5 954.8733,-22.5 962.2016,-22.5"/>
<polygon fill="#191970" stroke="#191970" points="936.3645,-19.0001 926.3645,-22.5 936.3644,-26.0001 936.3645,-19.0001"/>
</g>
</g>
</svg>
