<?xml version="1.0" encoding="UTF-8" standalone="no"?>
<!DOCTYPE svg PUBLIC "-//W3C//DTD SVG 1.1//EN"
 "http://www.w3.org/Graphics/SVG/1.1/DTD/svg11.dtd">
<!-- Generated by graphviz version 2.40.1 (20161225.0304)
 -->
<!-- Title: LibBBB::IO::UserLED::setState Pages: 1 -->
<svg width="422pt" height="115pt"
 viewBox="0.00 0.00 421.93 115.00" xmlns="http://www.w3.org/2000/svg" xmlns:xlink="http://www.w3.org/1999/xlink">
<g id="graph0" class="graph" transform="scale(1 1) rotate(0) translate(4 111)">
<title>LibBBB::IO::UserLED::setState</title>
<polygon fill="#ffffff" stroke="transparent" points="-4,4 -4,-111 417.932,-111 417.932,4 -4,4"/>
<!-- Node16 -->
<g id="node1" class="node">
<title>Node16</title>
<polygon fill="#bfbfbf" stroke="#000000" points="0,-23.5 0,-55.5 111.572,-55.5 111.572,-23.5 0,-23.5"/>
<text text-anchor="start" x="8" y="-42.5" font-family="Helvetica,sans-Serif" font-size="10.00" fill="#000000">LibBBB::IO::UserLED</text>
<text text-anchor="middle" x="55.786" y="-30.5" font-family="Helvetica,sans-Serif" font-size="10.00" fill="#000000">::setState</text>
</g>
<!-- Node17 -->
<g id="node2" class="node">
<title>Node17</title>
<g id="a_node2"><a xlink:href="classVehicleControl_1_1Control.html#aaaa31c5094e42f0f9795187d59ed10c4" target="_top" xlink:title="VehicleControl::Control\l::~Control">
<polygon fill="#ffffff" stroke="#000000" points="147.572,-74.5 147.572,-106.5 266.36,-106.5 266.36,-74.5 147.572,-74.5"/>
<text text-anchor="start" x="155.572" y="-93.5" font-family="Helvetica,sans-Serif" font-size="10.00" fill="#000000">VehicleControl::Control</text>
<text text-anchor="middle" x="206.966" y="-81.5" font-family="Helvetica,sans-Serif" font-size="10.00" fill="#000000">::~Control</text>
</a>
</g>
</g>
<!-- Node16&#45;&gt;Node17 -->
<g id="edge1" class="edge">
<title>Node16&#45;&gt;Node17</title>
<path fill="none" stroke="#191970" d="M113.4301,-58.946C128.6255,-64.0721 144.8477,-69.5446 159.4429,-74.4683"/>
<polygon fill="#191970" stroke="#191970" points="114.2145,-55.5169 103.6203,-55.6367 111.9769,-62.1496 114.2145,-55.5169"/>
</g>
<!-- Node18 -->
<g id="node3" class="node">
<title>Node18</title>
<g id="a_node3"><a xlink:href="classLibBBB_1_1IO_1_1UserLED.html#a3ae6a5944f06980dee85eb4504ec9eb0" target="_top" xlink:title="changeBlinkTime method changes the time of the blink ">
<polygon fill="#ffffff" stroke="#000000" points="151.18,-23.5 151.18,-55.5 262.752,-55.5 262.752,-23.5 151.18,-23.5"/>
<text text-anchor="start" x="159.18" y="-42.5" font-family="Helvetica,sans-Serif" font-size="10.00" fill="#000000">LibBBB::IO::UserLED</text>
<text text-anchor="middle" x="206.966" y="-30.5" font-family="Helvetica,sans-Serif" font-size="10.00" fill="#000000">::changeBlinkTime</text>
</a>
</g>
</g>
<!-- Node16&#45;&gt;Node18 -->
<g id="edge2" class="edge">
<title>Node16&#45;&gt;Node18</title>
<path fill="none" stroke="#191970" d="M121.7393,-39.5C131.5236,-39.5 141.527,-39.5 151.079,-39.5"/>
<polygon fill="#191970" stroke="#191970" points="121.6504,-36.0001 111.6503,-39.5 121.6503,-43.0001 121.6504,-36.0001"/>
</g>
<!-- Node19 -->
<g id="node4" class="node">
<title>Node19</title>
<g id="a_node4"><a xlink:href="structLibBBB_1_1IO_1_1UserLED_1_1Setup.html#a25c259e98aa65d6594d0031eb0463b01" target="_top" xlink:title="LibBBB::IO::UserLED\l::Setup::Setup">
<polygon fill="#ffffff" stroke="#000000" points="302.36,-.5 302.36,-32.5 413.932,-32.5 413.932,-.5 302.36,-.5"/>
<text text-anchor="start" x="310.36" y="-19.5" font-family="Helvetica,sans-Serif" font-size="10.00" fill="#000000">LibBBB::IO::UserLED</text>
<text text-anchor="middle" x="358.146" y="-7.5" font-family="Helvetica,sans-Serif" font-size="10.00" fill="#000000">::Setup::Setup</text>
</a>
</g>
</g>
<!-- Node16&#45;&gt;Node19 -->
<g id="edge4" class="edge">
<title>Node16&#45;&gt;Node19</title>
<path fill="none" stroke="#191970" d="M115.0172,-20.9029C125.7505,-18.2409 136.9188,-15.9249 147.572,-14.5 199.572,-7.545 259.4402,-9.0156 302.0165,-11.6513"/>
<polygon fill="#191970" stroke="#191970" points="114.1059,-17.5234 105.3098,-23.4292 115.869,-24.2977 114.1059,-17.5234"/>
</g>
<!-- Node18&#45;&gt;Node19 -->
<g id="edge3" class="edge">
<title>Node18&#45;&gt;Node19</title>
<path fill="none" stroke="#191970" d="M272.9193,-29.4661C282.7036,-27.9775 292.707,-26.4557 302.259,-25.0024"/>
<polygon fill="#191970" stroke="#191970" points="272.1901,-26.0367 262.8303,-31.001 273.243,-32.957 272.1901,-26.0367"/>
</g>
</g>
</svg>
