<?xml version="1.0" encoding="UTF-8" standalone="no"?>
<!DOCTYPE svg PUBLIC "-//W3C//DTD SVG 1.1//EN"
 "http://www.w3.org/Graphics/SVG/1.1/DTD/svg11.dtd">
<!-- Generated by graphviz version 2.40.1 (20161225.0304)
 -->
<!-- Title: LibBBB::Bluetooth::Manager::sendData Pages: 1 -->
<svg width="305pt" height="53pt"
 viewBox="0.00 0.00 304.93 53.00" xmlns="http://www.w3.org/2000/svg" xmlns:xlink="http://www.w3.org/1999/xlink">
<g id="graph0" class="graph" transform="scale(1 1) rotate(0) translate(4 49)">
<title>LibBBB::Bluetooth::Manager::sendData</title>
<polygon fill="#ffffff" stroke="transparent" points="-4,4 -4,-49 300.928,-49 300.928,4 -4,4"/>
<!-- Node15 -->
<g id="node1" class="node">
<title>Node15</title>
<polygon fill="#bfbfbf" stroke="#000000" points="0,-6.5 0,-38.5 103.804,-38.5 103.804,-6.5 0,-6.5"/>
<text text-anchor="start" x="8" y="-25.5" font-family="Helvetica,sans-Serif" font-size="10.00" fill="#000000">LibBBB::Bluetooth::</text>
<text text-anchor="middle" x="51.902" y="-13.5" font-family="Helvetica,sans-Serif" font-size="10.00" fill="#000000">Manager::sendData</text>
</g>
<!-- Node16 -->
<g id="node2" class="node">
<title>Node16</title>
<g id="a_node2"><a xlink:href="classVehicleControl_1_1Control_1_1CommunicationProtocolParser.html#abdbab1c6376e364c7064e5c5b04f0168" target="_top" xlink:title="sendOutgoingPackets packs and send outgoing data. This method takes care of packing bools into a sing...">
<polygon fill="#ffffff" stroke="#000000" points="139.804,-.5 139.804,-44.5 296.928,-44.5 296.928,-.5 139.804,-.5"/>
<text text-anchor="start" x="147.804" y="-31.5" font-family="Helvetica,sans-Serif" font-size="10.00" fill="#000000">VehicleControl::Control</text>
<text text-anchor="start" x="147.804" y="-19.5" font-family="Helvetica,sans-Serif" font-size="10.00" fill="#000000">::CommunicationProtocolParser</text>
<text text-anchor="middle" x="218.366" y="-7.5" font-family="Helvetica,sans-Serif" font-size="10.00" fill="#000000">::sendOutgoingPackets</text>
</a>
</g>
</g>
<!-- Node15&#45;&gt;Node16 -->
<g id="edge1" class="edge">
<title>Node15&#45;&gt;Node16</title>
<path fill="none" stroke="#191970" d="M114.3431,-22.5C122.5602,-22.5 131.0662,-22.5 139.5119,-22.5"/>
<polygon fill="#191970" stroke="#191970" points="114.1156,-19.0001 104.1155,-22.5 114.1155,-26.0001 114.1156,-19.0001"/>
</g>
</g>
</svg>
