<?xml version="1.0" encoding="UTF-8" standalone="no"?>
<!DOCTYPE svg PUBLIC "-//W3C//DTD SVG 1.1//EN"
 "http://www.w3.org/Graphics/SVG/1.1/DTD/svg11.dtd">
<!-- Generated by graphviz version 2.40.1 (20161225.0304)
 -->
<!-- Title: VehicleControl::Control::CommunicationProtocolParser::sendOutgoingPackets Pages: 1 -->
<svg width="780pt" height="194pt"
 viewBox="0.00 0.00 779.51 194.00" xmlns="http://www.w3.org/2000/svg" xmlns:xlink="http://www.w3.org/1999/xlink">
<g id="graph0" class="graph" transform="scale(1 1) rotate(0) translate(4 190)">
<title>VehicleControl::Control::CommunicationProtocolParser::sendOutgoingPackets</title>
<polygon fill="#ffffff" stroke="transparent" points="-4,4 -4,-190 775.515,-190 775.515,4 -4,4"/>
<!-- Node9 -->
<g id="node1" class="node">
<title>Node9</title>
<polygon fill="#bfbfbf" stroke="#000000" points="0,-70.5 0,-114.5 157.124,-114.5 157.124,-70.5 0,-70.5"/>
<text text-anchor="start" x="8" y="-101.5" font-family="Helvetica,sans-Serif" font-size="10.00" fill="#000000">VehicleControl::Control</text>
<text text-anchor="start" x="8" y="-89.5" font-family="Helvetica,sans-Serif" font-size="10.00" fill="#000000">::CommunicationProtocolParser</text>
<text text-anchor="middle" x="78.562" y="-77.5" font-family="Helvetica,sans-Serif" font-size="10.00" fill="#000000">::sendOutgoingPackets</text>
</g>
<!-- Node10 -->
<g id="node2" class="node">
<title>Node10</title>
<g id="a_node2"><a xlink:href="classLibBBB_1_1Math_1_1LinearConverter_3_01float_01_4.html#a3d04d3d46e57718648da2a1073be15e8" target="_top" xlink:title="LibBBB::Math::LinearConverter\l\&lt; float \&gt;::convertXtoY">
<polygon fill="#ffffff" stroke="#000000" points="200.3415,-153.5 200.3415,-185.5 354.7035,-185.5 354.7035,-153.5 200.3415,-153.5"/>
<text text-anchor="start" x="208.3415" y="-172.5" font-family="Helvetica,sans-Serif" font-size="10.00" fill="#000000">LibBBB::Math::LinearConverter</text>
<text text-anchor="middle" x="277.5225" y="-160.5" font-family="Helvetica,sans-Serif" font-size="10.00" fill="#000000">&lt; float &gt;::convertXtoY</text>
</a>
</g>
</g>
<!-- Node9&#45;&gt;Node10 -->
<g id="edge1" class="edge">
<title>Node9&#45;&gt;Node10</title>
<path fill="none" stroke="#191970" d="M123.3948,-114.5867C144.3027,-124.4349 169.6918,-135.7592 193.124,-144.5 198.5358,-146.5187 204.1893,-148.4863 209.8953,-150.3739"/>
<polygon fill="#191970" stroke="#191970" points="208.9225,-153.7375 219.514,-153.4698 211.0673,-147.0742 208.9225,-153.7375"/>
</g>
<!-- Node11 -->
<g id="node3" class="node">
<title>Node11</title>
<g id="a_node3"><a xlink:href="classLibBBB_1_1AnalogToDigitalController.html#ac91d1341aaf8567024edfebac7db546e" target="_top" xlink:title="instance method is the Singleton method of creating and accessing this class. This ensures there can ...">
<polygon fill="#ffffff" stroke="#000000" points="193.124,-102.5 193.124,-134.5 361.921,-134.5 361.921,-102.5 193.124,-102.5"/>
<text text-anchor="start" x="201.124" y="-121.5" font-family="Helvetica,sans-Serif" font-size="10.00" fill="#000000">LibBBB::AnalogToDigitalController</text>
<text text-anchor="middle" x="277.5225" y="-109.5" font-family="Helvetica,sans-Serif" font-size="10.00" fill="#000000">::instance</text>
</a>
</g>
</g>
<!-- Node9&#45;&gt;Node11 -->
<g id="edge2" class="edge">
<title>Node9&#45;&gt;Node11</title>
<path fill="none" stroke="#191970" d="M157.1965,-102.7759C165.628,-103.8777 174.2687,-105.0069 182.8614,-106.1298"/>
<polygon fill="#191970" stroke="#191970" points="182.5417,-109.6177 192.9109,-107.443 183.4488,-102.6767 182.5417,-109.6177"/>
</g>
<!-- Node12 -->
<g id="node4" class="node">
<title>Node12</title>
<g id="a_node4"><a xlink:href="classLibBBB_1_1AnalogToDigitalController.html#a44f86e094ef5abaa24e6342ba51ba0c2" target="_top" xlink:title="batteryVoltage gets the LiPo battery&#39;s voltage ">
<polygon fill="#ffffff" stroke="#000000" points="193.124,-51.5 193.124,-83.5 361.921,-83.5 361.921,-51.5 193.124,-51.5"/>
<text text-anchor="start" x="201.124" y="-70.5" font-family="Helvetica,sans-Serif" font-size="10.00" fill="#000000">LibBBB::AnalogToDigitalController</text>
<text text-anchor="middle" x="277.5225" y="-58.5" font-family="Helvetica,sans-Serif" font-size="10.00" fill="#000000">::batteryVoltage</text>
</a>
</g>
</g>
<!-- Node9&#45;&gt;Node12 -->
<g id="edge3" class="edge">
<title>Node9&#45;&gt;Node12</title>
<path fill="none" stroke="#191970" d="M157.1965,-82.6193C165.628,-81.5599 174.2687,-80.4742 182.8614,-79.3945"/>
<polygon fill="#191970" stroke="#191970" points="183.4253,-82.8512 192.9109,-78.1317 182.5526,-75.9058 183.4253,-82.8512"/>
</g>
<!-- Node15 -->
<g id="node7" class="node">
<title>Node15</title>
<g id="a_node7"><a xlink:href="classLibBBB_1_1Bluetooth_1_1Manager.html#a2f93bbcf746ab55eaf46ad12451e24fa" target="_top" xlink:title="sendData method that sends the data over the Bluetooth connection ">
<polygon fill="#ffffff" stroke="#000000" points="225.6205,-.5 225.6205,-32.5 329.4245,-32.5 329.4245,-.5 225.6205,-.5"/>
<text text-anchor="start" x="233.6205" y="-19.5" font-family="Helvetica,sans-Serif" font-size="10.00" fill="#000000">LibBBB::Bluetooth::</text>
<text text-anchor="middle" x="277.5225" y="-7.5" font-family="Helvetica,sans-Serif" font-size="10.00" fill="#000000">Manager::sendData</text>
</a>
</g>
</g>
<!-- Node9&#45;&gt;Node15 -->
<g id="edge6" class="edge">
<title>Node9&#45;&gt;Node15</title>
<path fill="none" stroke="#191970" d="M125.7288,-70.4864C146.2228,-61.2949 170.6411,-50.8391 193.124,-42.5 200.4014,-39.8007 208.101,-37.1523 215.7714,-34.6401"/>
<polygon fill="#191970" stroke="#191970" points="216.9857,-37.9263 225.4374,-31.5373 214.8462,-31.2612 216.9857,-37.9263"/>
</g>
<!-- Node13 -->
<g id="node5" class="node">
<title>Node13</title>
<g id="a_node5"><a xlink:href="classLibBBB_1_1AnalogToDigitalController.html#ae9099e54e15ebdf0213db4b7b87e3db4" target="_top" xlink:title="adcVoltage gets the ADC channel&#39;s unscaled value ">
<polygon fill="#ffffff" stroke="#000000" points="397.921,-51.5 397.921,-83.5 566.718,-83.5 566.718,-51.5 397.921,-51.5"/>
<text text-anchor="start" x="405.921" y="-70.5" font-family="Helvetica,sans-Serif" font-size="10.00" fill="#000000">LibBBB::AnalogToDigitalController</text>
<text text-anchor="middle" x="482.3195" y="-58.5" font-family="Helvetica,sans-Serif" font-size="10.00" fill="#000000">::adcVoltage</text>
</a>
</g>
</g>
<!-- Node12&#45;&gt;Node13 -->
<g id="edge4" class="edge">
<title>Node12&#45;&gt;Node13</title>
<path fill="none" stroke="#191970" d="M362.0037,-67.5C370.4774,-67.5 379.1201,-67.5 387.6899,-67.5"/>
<polygon fill="#191970" stroke="#191970" points="387.702,-71.0001 397.7019,-67.5 387.7019,-64.0001 387.702,-71.0001"/>
</g>
<!-- Node14 -->
<g id="node6" class="node">
<title>Node14</title>
<g id="a_node6"><a xlink:href="classLibBBB_1_1AnalogToDigitalController.html#a70fd232420c8ad366bd456e9db580369" target="_top" xlink:title="rawADCValue gets the raw (unscaled) ADC value ">
<polygon fill="#ffffff" stroke="#000000" points="602.718,-51.5 602.718,-83.5 771.515,-83.5 771.515,-51.5 602.718,-51.5"/>
<text text-anchor="start" x="610.718" y="-70.5" font-family="Helvetica,sans-Serif" font-size="10.00" fill="#000000">LibBBB::AnalogToDigitalController</text>
<text text-anchor="middle" x="687.1165" y="-58.5" font-family="Helvetica,sans-Serif" font-size="10.00" fill="#000000">::rawADCValue</text>
</a>
</g>
</g>
<!-- Node13&#45;&gt;Node14 -->
<g id="edge5" class="edge">
<title>Node13&#45;&gt;Node14</title>
<path fill="none" stroke="#191970" d="M566.8007,-67.5C575.2744,-67.5 583.9171,-67.5 592.4869,-67.5"/>
<polygon fill="#191970" stroke="#191970" points="592.499,-71.0001 602.4989,-67.5 592.4989,-64.0001 592.499,-71.0001"/>
</g>
</g>
</svg>
