<?xml version="1.0" encoding="UTF-8" standalone="no"?>
<!DOCTYPE svg PUBLIC "-//W3C//DTD SVG 1.1//EN"
 "http://www.w3.org/Graphics/SVG/1.1/DTD/svg11.dtd">
<!-- Generated by graphviz version 2.40.1 (20161225.0304)
 -->
<!-- Title: Core::IO::ServoControl::setDesiredDegree Pages: 1 -->
<svg width="279pt" height="92pt"
 viewBox="0.00 0.00 278.80 92.00" xmlns="http://www.w3.org/2000/svg" xmlns:xlink="http://www.w3.org/1999/xlink">
<g id="graph0" class="graph" transform="scale(1 1) rotate(0) translate(4 88)">
<title>Core::IO::ServoControl::setDesiredDegree</title>
<polygon fill="#ffffff" stroke="transparent" points="-4,4 -4,-88 274.797,-88 274.797,4 -4,4"/>
<!-- Node8 -->
<g id="node1" class="node">
<title>Node8</title>
<polygon fill="#bfbfbf" stroke="#000000" points="0,-25.5 0,-57.5 117.679,-57.5 117.679,-25.5 0,-25.5"/>
<text text-anchor="start" x="8" y="-44.5" font-family="Helvetica,sans-Serif" font-size="10.00" fill="#000000">Core::IO::ServoControl</text>
<text text-anchor="middle" x="58.8395" y="-32.5" font-family="Helvetica,sans-Serif" font-size="10.00" fill="#000000">::setDesiredDegree</text>
</g>
<!-- Node9 -->
<g id="node2" class="node">
<title>Node9</title>
<g id="a_node2"><a xlink:href="classCore_1_1IO_1_1MotorControl.html#ac8c377620913c11472dc67a4bb9622b6" target="_top" xlink:title="setPulseWidth sets the pulse width of the signal ">
<polygon fill="#ffffff" stroke="#000000" points="153.679,-51.5 153.679,-83.5 270.797,-83.5 270.797,-51.5 153.679,-51.5"/>
<text text-anchor="start" x="161.679" y="-70.5" font-family="Helvetica,sans-Serif" font-size="10.00" fill="#000000">Core::IO::MotorControl</text>
<text text-anchor="middle" x="212.238" y="-58.5" font-family="Helvetica,sans-Serif" font-size="10.00" fill="#000000">::setPulseWidth</text>
</a>
</g>
</g>
<!-- Node8&#45;&gt;Node9 -->
<g id="edge1" class="edge">
<title>Node8&#45;&gt;Node9</title>
<path fill="none" stroke="#191970" d="M117.7087,-51.4779C126.1498,-52.9086 134.896,-54.3911 143.5067,-55.8505"/>
<polygon fill="#191970" stroke="#191970" points="143.0821,-59.3284 153.5264,-57.5488 144.2519,-52.4268 143.0821,-59.3284"/>
</g>
<!-- Node10 -->
<g id="node3" class="node">
<title>Node10</title>
<g id="a_node3"><a xlink:href="classMath_1_1LinearConverter.html#a0b41880c7734a6edf56ccf798dfc693b" target="_top" xlink:title="convertXtoY getter. Uses y = mx + b. ">
<polygon fill="#ffffff" stroke="#000000" points="154.508,-.5 154.508,-32.5 269.968,-32.5 269.968,-.5 154.508,-.5"/>
<text text-anchor="start" x="162.508" y="-19.5" font-family="Helvetica,sans-Serif" font-size="10.00" fill="#000000">Math::LinearConverter</text>
<text text-anchor="middle" x="212.238" y="-7.5" font-family="Helvetica,sans-Serif" font-size="10.00" fill="#000000">::convertXtoY</text>
</a>
</g>
</g>
<!-- Node8&#45;&gt;Node10 -->
<g id="edge2" class="edge">
<title>Node8&#45;&gt;Node10</title>
<path fill="none" stroke="#191970" d="M117.7087,-31.9058C126.4257,-30.4852 135.4681,-29.0115 144.3506,-27.5639"/>
<polygon fill="#191970" stroke="#191970" points="144.9788,-31.0078 154.2856,-25.9447 143.8528,-24.0989 144.9788,-31.0078"/>
</g>
</g>
</svg>
