<?xml version="1.0" encoding="UTF-8" standalone="no"?>
<!DOCTYPE svg PUBLIC "-//W3C//DTD SVG 1.1//EN"
 "http://www.w3.org/Graphics/SVG/1.1/DTD/svg11.dtd">
<!-- Generated by graphviz version 2.40.1 (20161225.0304)
 -->
<!-- Title: VehicleControl::Control::IOFactory::fillInputList Pages: 1 -->
<svg width="305pt" height="41pt"
 viewBox="0.00 0.00 304.91 41.00" xmlns="http://www.w3.org/2000/svg" xmlns:xlink="http://www.w3.org/1999/xlink">
<g id="graph0" class="graph" transform="scale(1 1) rotate(0) translate(4 37)">
<title>VehicleControl::Control::IOFactory::fillInputList</title>
<polygon fill="#ffffff" stroke="transparent" points="-4,4 -4,-37 300.913,-37 300.913,4 -4,4"/>
<!-- Node9 -->
<g id="node1" class="node">
<title>Node9</title>
<polygon fill="#bfbfbf" stroke="#000000" points="0,-.5 0,-32.5 118.788,-32.5 118.788,-.5 0,-.5"/>
<text text-anchor="start" x="8" y="-19.5" font-family="Helvetica,sans-Serif" font-size="10.00" fill="#000000">VehicleControl::Control</text>
<text text-anchor="middle" x="59.394" y="-7.5" font-family="Helvetica,sans-Serif" font-size="10.00" fill="#000000">::IOFactory::fillInputList</text>
</g>
<!-- Node10 -->
<g id="node2" class="node">
<title>Node10</title>
<g id="a_node2"><a xlink:href="namespaceVehicleControl.html#ab876bdb990021d96b1452a85b59f99d8" target="_top" xlink:title="VehicleControl::createRising\lEdgeThreadedInput">
<polygon fill="#ffffff" stroke="#000000" points="154.788,-.5 154.788,-32.5 296.913,-32.5 296.913,-.5 154.788,-.5"/>
<text text-anchor="start" x="162.788" y="-19.5" font-family="Helvetica,sans-Serif" font-size="10.00" fill="#000000">VehicleControl::createRising</text>
<text text-anchor="middle" x="225.8505" y="-7.5" font-family="Helvetica,sans-Serif" font-size="10.00" fill="#000000">EdgeThreadedInput</text>
</a>
</g>
</g>
<!-- Node9&#45;&gt;Node10 -->
<g id="edge1" class="edge">
<title>Node9&#45;&gt;Node10</title>
<path fill="none" stroke="#191970" d="M119.0185,-16.5C127.3327,-16.5 135.9894,-16.5 144.6176,-16.5"/>
<polygon fill="#191970" stroke="#191970" points="144.711,-20.0001 154.711,-16.5 144.7109,-13.0001 144.711,-20.0001"/>
</g>
</g>
</svg>
