<?xml version="1.0" encoding="UTF-8" standalone="no"?>
<!DOCTYPE svg PUBLIC "-//W3C//DTD SVG 1.1//EN"
 "http://www.w3.org/Graphics/SVG/1.1/DTD/svg11.dtd">
<!-- Generated by graphviz version 2.40.1 (20161225.0304)
 -->
<!-- Title: VehicleControl::IO::UserLED::state Pages: 1 -->
<svg width="759pt" height="182pt"
 viewBox="0.00 0.00 758.74 182.00" xmlns="http://www.w3.org/2000/svg" xmlns:xlink="http://www.w3.org/1999/xlink">
<g id="graph0" class="graph" transform="scale(1 1) rotate(0) translate(4 178)">
<title>VehicleControl::IO::UserLED::state</title>
<polygon fill="#ffffff" stroke="transparent" points="-4,4 -4,-178 754.736,-178 754.736,4 -4,4"/>
<!-- Node25 -->
<g id="node1" class="node">
<title>Node25</title>
<polygon fill="#bfbfbf" stroke="#000000" points="0,-48.5 0,-80.5 97.123,-80.5 97.123,-48.5 0,-48.5"/>
<text text-anchor="start" x="8" y="-67.5" font-family="Helvetica,sans-Serif" font-size="10.00" fill="#000000">VehicleControl::IO</text>
<text text-anchor="middle" x="48.5615" y="-55.5" font-family="Helvetica,sans-Serif" font-size="10.00" fill="#000000">::UserLED::state</text>
</g>
<!-- Node26 -->
<g id="node2" class="node">
<title>Node26</title>
<g id="a_node2"><a xlink:href="namespaceVehicleControl.html#af89cecf99aa4e7787af7433d8f3b6970" target="_top" xlink:title="VehicleControl::callback">
<polygon fill="#ffffff" stroke="#000000" points="284.3095,-99.5 284.3095,-119.5 406.9895,-119.5 406.9895,-99.5 284.3095,-99.5"/>
<text text-anchor="middle" x="345.6495" y="-106.5" font-family="Helvetica,sans-Serif" font-size="10.00" fill="#000000">VehicleControl::callback</text>
</a>
</g>
</g>
<!-- Node25&#45;&gt;Node26 -->
<g id="edge1" class="edge">
<title>Node25&#45;&gt;Node26</title>
<path fill="none" stroke="#191970" d="M104.3894,-83.4604C113.8919,-86.169 123.7267,-88.6565 133.123,-90.5 183.4693,-100.3774 241.5454,-105.1284 284.2512,-107.4089"/>
<polygon fill="#191970" stroke="#191970" points="105.2215,-80.0566 94.6394,-80.5754 103.2353,-86.769 105.2215,-80.0566"/>
</g>
<!-- Node31 -->
<g id="node7" class="node">
<title>Node31</title>
<g id="a_node7"><a xlink:href="classVehicleControl_1_1IO_1_1UserLED.html#a681c7658d0828edefed7028390adced0" target="_top" xlink:title="setState method sets the state of the LED ">
<polygon fill="#ffffff" stroke="#000000" points="133.123,-48.5 133.123,-80.5 237.476,-80.5 237.476,-48.5 133.123,-48.5"/>
<text text-anchor="start" x="141.123" y="-67.5" font-family="Helvetica,sans-Serif" font-size="10.00" fill="#000000">VehicleControl::IO</text>
<text text-anchor="middle" x="185.2995" y="-55.5" font-family="Helvetica,sans-Serif" font-size="10.00" fill="#000000">::UserLED::setState</text>
</a>
</g>
</g>
<!-- Node25&#45;&gt;Node31 -->
<g id="edge7" class="edge">
<title>Node25&#45;&gt;Node31</title>
<path fill="none" stroke="#191970" d="M107.3101,-64.5C115.7455,-64.5 124.3801,-64.5 132.6867,-64.5"/>
<polygon fill="#191970" stroke="#191970" points="107.1552,-61.0001 97.1552,-64.5 107.1552,-68.0001 107.1552,-61.0001"/>
</g>
<!-- Node33 -->
<g id="node9" class="node">
<title>Node33</title>
<g id="a_node9"><a xlink:href="structVehicleControl_1_1IO_1_1UserLED_1_1Setup.html#a0f7dc4714f6c82868c4d3bad8baaf4c6" target="_top" xlink:title="VehicleControl::IO\l::UserLED::Setup::Setup">
<polygon fill="#ffffff" stroke="#000000" points="462.1465,-.5 462.1465,-32.5 587.6245,-32.5 587.6245,-.5 462.1465,-.5"/>
<text text-anchor="start" x="470.1465" y="-19.5" font-family="Helvetica,sans-Serif" font-size="10.00" fill="#000000">VehicleControl::IO</text>
<text text-anchor="middle" x="524.8855" y="-7.5" font-family="Helvetica,sans-Serif" font-size="10.00" fill="#000000">::UserLED::Setup::Setup</text>
</a>
</g>
</g>
<!-- Node25&#45;&gt;Node33 -->
<g id="edge12" class="edge">
<title>Node25&#45;&gt;Node33</title>
<path fill="none" stroke="#191970" d="M106.1346,-45.5401C115.1097,-42.9501 124.3238,-40.4992 133.123,-38.5 194.629,-24.5258 210.5858,-22.3046 273.476,-17.5 337.5607,-12.6041 411.1017,-13.0095 462.0182,-14.2375"/>
<polygon fill="#191970" stroke="#191970" points="105.1131,-42.1923 96.5204,-48.3904 107.1028,-48.9036 105.1131,-42.1923"/>
</g>
<!-- Node27 -->
<g id="node3" class="node">
<title>Node27</title>
<g id="a_node3"><a xlink:href="classVehicleControl_1_1IO_1_1Input.html#aa963e2cb77f82fb52ce77187494e54ea" target="_top" xlink:title="setEdgeCallback setter ">
<polygon fill="#ffffff" stroke="#000000" points="462.701,-141.5 462.701,-173.5 587.07,-173.5 587.07,-141.5 462.701,-141.5"/>
<text text-anchor="start" x="470.701" y="-160.5" font-family="Helvetica,sans-Serif" font-size="10.00" fill="#000000">VehicleControl::IO</text>
<text text-anchor="middle" x="524.8855" y="-148.5" font-family="Helvetica,sans-Serif" font-size="10.00" fill="#000000">::Input::setEdgeCallback</text>
</a>
</g>
</g>
<!-- Node26&#45;&gt;Node27 -->
<g id="edge2" class="edge">
<title>Node26&#45;&gt;Node27</title>
<path fill="none" stroke="#191970" d="M393.0379,-122.1908C415.1382,-128.1093 441.6805,-135.2174 465.1393,-141.4998"/>
<polygon fill="#191970" stroke="#191970" points="393.7883,-118.7685 383.2232,-119.5624 391.9774,-125.5302 393.7883,-118.7685"/>
</g>
<!-- Node28 -->
<g id="node4" class="node">
<title>Node28</title>
<g id="a_node4"><a xlink:href="structVehicleControl_1_1IO_1_1Input_1_1Setup.html#a09ce07a96559b6f63eaa51d8eccbc877" target="_top" xlink:title="VehicleControl::IO\l::Input::Setup::Setup">
<polygon fill="#ffffff" stroke="#000000" points="637.7625,-121.5 637.7625,-153.5 744.9215,-153.5 744.9215,-121.5 637.7625,-121.5"/>
<text text-anchor="start" x="645.7625" y="-140.5" font-family="Helvetica,sans-Serif" font-size="10.00" fill="#000000">VehicleControl::IO</text>
<text text-anchor="middle" x="691.342" y="-128.5" font-family="Helvetica,sans-Serif" font-size="10.00" fill="#000000">::Input::Setup::Setup</text>
</a>
</g>
</g>
<!-- Node26&#45;&gt;Node28 -->
<g id="edge4" class="edge">
<title>Node26&#45;&gt;Node28</title>
<path fill="none" stroke="#191970" d="M417.3074,-115.3041C482.8605,-120.6137 578.3853,-128.3509 637.6029,-133.1473"/>
<polygon fill="#191970" stroke="#191970" points="417.304,-111.7924 407.0541,-114.4736 416.7388,-118.7696 417.304,-111.7924"/>
</g>
<!-- Node29 -->
<g id="node5" class="node">
<title>Node29</title>
<g id="a_node5"><a xlink:href="namespaceVehicleControl.html#a5756c96006fcbf65cf488b7e2297a73a" target="_top" xlink:title="VehicleControl::createRising\lEdgeThreadedInput">
<polygon fill="#ffffff" stroke="#000000" points="453.823,-51.5 453.823,-83.5 595.948,-83.5 595.948,-51.5 453.823,-51.5"/>
<text text-anchor="start" x="461.823" y="-70.5" font-family="Helvetica,sans-Serif" font-size="10.00" fill="#000000">VehicleControl::createRising</text>
<text text-anchor="middle" x="524.8855" y="-58.5" font-family="Helvetica,sans-Serif" font-size="10.00" fill="#000000">EdgeThreadedInput</text>
</a>
</g>
</g>
<!-- Node26&#45;&gt;Node29 -->
<g id="edge5" class="edge">
<title>Node26&#45;&gt;Node29</title>
<path fill="none" stroke="#191970" d="M398.3965,-97.1399C416.5614,-92.8834 437.1741,-88.0532 456.4088,-83.546"/>
<polygon fill="#191970" stroke="#191970" points="397.5187,-93.7507 388.581,-99.44 399.1158,-100.5661 397.5187,-93.7507"/>
</g>
<!-- Node27&#45;&gt;Node28 -->
<g id="edge3" class="edge">
<title>Node27&#45;&gt;Node28</title>
<path fill="none" stroke="#191970" d="M597.5245,-148.7723C610.9674,-147.1571 624.785,-145.4969 637.5435,-143.964"/>
<polygon fill="#191970" stroke="#191970" points="596.8524,-145.3278 587.3413,-149.9958 597.6875,-152.2778 596.8524,-145.3278"/>
</g>
<!-- Node30 -->
<g id="node6" class="node">
<title>Node30</title>
<g id="a_node6"><a xlink:href="classVehicleControl_1_1Control_1_1IOFactory.html#a4d4de0203bf577352199f49c67f49d98" target="_top" xlink:title="fillInputList method fills in all of the app&#39;s inputs ">
<polygon fill="#ffffff" stroke="#000000" points="631.948,-51.5 631.948,-83.5 750.736,-83.5 750.736,-51.5 631.948,-51.5"/>
<text text-anchor="start" x="639.948" y="-70.5" font-family="Helvetica,sans-Serif" font-size="10.00" fill="#000000">VehicleControl::Control</text>
<text text-anchor="middle" x="691.342" y="-58.5" font-family="Helvetica,sans-Serif" font-size="10.00" fill="#000000">::IOFactory::fillInputList</text>
</a>
</g>
</g>
<!-- Node29&#45;&gt;Node30 -->
<g id="edge6" class="edge">
<title>Node29&#45;&gt;Node30</title>
<path fill="none" stroke="#191970" d="M606.0844,-67.5C614.7388,-67.5 623.4224,-67.5 631.7607,-67.5"/>
<polygon fill="#191970" stroke="#191970" points="605.9609,-64.0001 595.9609,-67.5 605.9608,-71.0001 605.9609,-64.0001"/>
</g>
<!-- Node31&#45;&gt;Node26 -->
<g id="edge8" class="edge">
<title>Node31&#45;&gt;Node26</title>
<path fill="none" stroke="#191970" d="M247.6202,-83.1232C256.2929,-85.6426 265.0989,-88.1628 273.476,-90.5 284.2092,-93.4945 295.876,-96.6213 306.638,-99.4535"/>
<polygon fill="#191970" stroke="#191970" points="248.4951,-79.7325 237.9149,-80.2887 246.5327,-86.4519 248.4951,-79.7325"/>
</g>
<!-- Node32 -->
<g id="node8" class="node">
<title>Node32</title>
<g id="a_node8"><a xlink:href="classVehicleControl_1_1IO_1_1UserLED.html#a899d101eb5e8129e5f3f6c13dce1afb6" target="_top" xlink:title="changeBlinkTime method changes the time of the blink ">
<polygon fill="#ffffff" stroke="#000000" points="273.476,-48.5 273.476,-80.5 417.823,-80.5 417.823,-48.5 273.476,-48.5"/>
<text text-anchor="start" x="281.476" y="-67.5" font-family="Helvetica,sans-Serif" font-size="10.00" fill="#000000">VehicleControl::IO</text>
<text text-anchor="middle" x="345.6495" y="-55.5" font-family="Helvetica,sans-Serif" font-size="10.00" fill="#000000">::UserLED::changeBlinkTime</text>
</a>
</g>
</g>
<!-- Node31&#45;&gt;Node32 -->
<g id="edge9" class="edge">
<title>Node31&#45;&gt;Node32</title>
<path fill="none" stroke="#191970" d="M247.8103,-64.5C256.1438,-64.5 264.7452,-64.5 273.2297,-64.5"/>
<polygon fill="#191970" stroke="#191970" points="247.8041,-61.0001 237.8041,-64.5 247.8041,-68.0001 247.8041,-61.0001"/>
</g>
<!-- Node31&#45;&gt;Node33 -->
<g id="edge11" class="edge">
<title>Node31&#45;&gt;Node33</title>
<path fill="none" stroke="#191970" d="M243.2381,-45.6364C253.2394,-42.8934 263.5965,-40.3694 273.476,-38.5 336.9753,-26.4845 410.763,-21.0116 461.9032,-18.5308"/>
<polygon fill="#191970" stroke="#191970" points="242.0484,-42.3359 233.3863,-48.4364 243.9622,-49.0692 242.0484,-42.3359"/>
</g>
<!-- Node32&#45;&gt;Node33 -->
<g id="edge10" class="edge">
<title>Node32&#45;&gt;Node33</title>
<path fill="none" stroke="#191970" d="M415.7932,-45.7153C432.011,-41.3721 449.1229,-36.7895 464.8627,-32.5743"/>
<polygon fill="#191970" stroke="#191970" points="414.5853,-42.4154 405.8311,-48.3832 416.3962,-49.1771 414.5853,-42.4154"/>
</g>
</g>
</svg>
