<?xml version="1.0" encoding="UTF-8" standalone="no"?>
<!DOCTYPE svg PUBLIC "-//W3C//DTD SVG 1.1//EN"
 "http://www.w3.org/Graphics/SVG/1.1/DTD/svg11.dtd">
<!-- Generated by graphviz version 2.40.1 (20161225.0304)
 -->
<!-- Title: VehicleControl::IO::UserLED::state Pages: 1 -->
<svg width="759pt" height="182pt"
 viewBox="0.00 0.00 758.74 182.00" xmlns="http://www.w3.org/2000/svg" xmlns:xlink="http://www.w3.org/1999/xlink">
<g id="graph0" class="graph" transform="scale(1 1) rotate(0) translate(4 178)">
<title>VehicleControl::IO::UserLED::state</title>
<polygon fill="#ffffff" stroke="transparent" points="-4,4 -4,-178 754.736,-178 754.736,4 -4,4"/>
<!-- Node25 -->
<g id="node1" class="node">
<title>Node25</title>
<polygon fill="#bfbfbf" stroke="#000000" points="0,-96.5 0,-128.5 97.123,-128.5 97.123,-96.5 0,-96.5"/>
<text text-anchor="start" x="8" y="-115.5" font-family="Helvetica,sans-Serif" font-size="10.00" fill="#000000">VehicleControl::IO</text>
<text text-anchor="middle" x="48.5615" y="-103.5" font-family="Helvetica,sans-Serif" font-size="10.00" fill="#000000">::UserLED::state</text>
</g>
<!-- Node26 -->
<g id="node2" class="node">
<title>Node26</title>
<g id="a_node2"><a xlink:href="structVehicleControl_1_1IO_1_1UserLED_1_1Setup.html#a0f7dc4714f6c82868c4d3bad8baaf4c6" target="_top" xlink:title="VehicleControl::IO\l::UserLED::Setup::Setup">
<polygon fill="#ffffff" stroke="#000000" points="462.1465,-141.5 462.1465,-173.5 587.6245,-173.5 587.6245,-141.5 462.1465,-141.5"/>
<text text-anchor="start" x="470.1465" y="-160.5" font-family="Helvetica,sans-Serif" font-size="10.00" fill="#000000">VehicleControl::IO</text>
<text text-anchor="middle" x="524.8855" y="-148.5" font-family="Helvetica,sans-Serif" font-size="10.00" fill="#000000">::UserLED::Setup::Setup</text>
</a>
</g>
</g>
<!-- Node25&#45;&gt;Node26 -->
<g id="edge1" class="edge">
<title>Node25&#45;&gt;Node26</title>
<path fill="none" stroke="#191970" d="M106.1346,-131.4599C115.1097,-134.0499 124.3238,-136.5008 133.123,-138.5 256.847,-166.6101 290.9514,-160.6849 417.823,-159.5 432.137,-159.3663 447.5262,-159.1321 462.0487,-158.8699"/>
<polygon fill="#191970" stroke="#191970" points="107.1028,-128.0964 96.5204,-128.6096 105.1131,-134.8077 107.1028,-128.0964"/>
</g>
<!-- Node27 -->
<g id="node3" class="node">
<title>Node27</title>
<g id="a_node3"><a xlink:href="namespaceVehicleControl.html#af89cecf99aa4e7787af7433d8f3b6970" target="_top" xlink:title="VehicleControl::callback">
<polygon fill="#ffffff" stroke="#000000" points="284.3095,-57.5 284.3095,-77.5 406.9895,-77.5 406.9895,-57.5 284.3095,-57.5"/>
<text text-anchor="middle" x="345.6495" y="-64.5" font-family="Helvetica,sans-Serif" font-size="10.00" fill="#000000">VehicleControl::callback</text>
</a>
</g>
</g>
<!-- Node25&#45;&gt;Node27 -->
<g id="edge2" class="edge">
<title>Node25&#45;&gt;Node27</title>
<path fill="none" stroke="#191970" d="M106.6982,-93.7131C115.4851,-91.3403 124.4951,-89.1651 133.123,-87.5 183.5211,-77.7739 241.593,-72.7178 284.2839,-70.1254"/>
<polygon fill="#191970" stroke="#191970" points="105.588,-90.3893 96.9045,-96.4595 107.4781,-97.1294 105.588,-90.3893"/>
</g>
<!-- Node32 -->
<g id="node8" class="node">
<title>Node32</title>
<g id="a_node8"><a xlink:href="classVehicleControl_1_1IO_1_1UserLED.html#a681c7658d0828edefed7028390adced0" target="_top" xlink:title="setState method sets the state of the LED ">
<polygon fill="#ffffff" stroke="#000000" points="133.123,-96.5 133.123,-128.5 237.476,-128.5 237.476,-96.5 133.123,-96.5"/>
<text text-anchor="start" x="141.123" y="-115.5" font-family="Helvetica,sans-Serif" font-size="10.00" fill="#000000">VehicleControl::IO</text>
<text text-anchor="middle" x="185.2995" y="-103.5" font-family="Helvetica,sans-Serif" font-size="10.00" fill="#000000">::UserLED::setState</text>
</a>
</g>
</g>
<!-- Node25&#45;&gt;Node32 -->
<g id="edge8" class="edge">
<title>Node25&#45;&gt;Node32</title>
<path fill="none" stroke="#191970" d="M107.3101,-112.5C115.7455,-112.5 124.3801,-112.5 132.6867,-112.5"/>
<polygon fill="#191970" stroke="#191970" points="107.1552,-109.0001 97.1552,-112.5 107.1552,-116.0001 107.1552,-109.0001"/>
</g>
<!-- Node28 -->
<g id="node4" class="node">
<title>Node28</title>
<g id="a_node4"><a xlink:href="structVehicleControl_1_1IO_1_1Input_1_1Setup.html#a09ce07a96559b6f63eaa51d8eccbc877" target="_top" xlink:title="VehicleControl::IO\l::Input::Setup::Setup">
<polygon fill="#ffffff" stroke="#000000" points="637.7625,-73.5 637.7625,-105.5 744.9215,-105.5 744.9215,-73.5 637.7625,-73.5"/>
<text text-anchor="start" x="645.7625" y="-92.5" font-family="Helvetica,sans-Serif" font-size="10.00" fill="#000000">VehicleControl::IO</text>
<text text-anchor="middle" x="691.342" y="-80.5" font-family="Helvetica,sans-Serif" font-size="10.00" fill="#000000">::Input::Setup::Setup</text>
</a>
</g>
</g>
<!-- Node27&#45;&gt;Node28 -->
<g id="edge3" class="edge">
<title>Node27&#45;&gt;Node28</title>
<path fill="none" stroke="#191970" d="M388.3345,-80.2177C408.0684,-85.4594 431.9359,-90.9066 453.823,-93.5 516.5509,-100.9326 532.7952,-94.8235 595.948,-93.5 609.4545,-93.217 624.0296,-92.7087 637.624,-92.1474"/>
<polygon fill="#191970" stroke="#191970" points="388.993,-76.7695 378.4242,-77.5116 387.1491,-83.5222 388.993,-76.7695"/>
</g>
<!-- Node29 -->
<g id="node5" class="node">
<title>Node29</title>
<g id="a_node5"><a xlink:href="classVehicleControl_1_1IO_1_1Input.html#aa963e2cb77f82fb52ce77187494e54ea" target="_top" xlink:title="setEdgeCallback setter ">
<polygon fill="#ffffff" stroke="#000000" points="462.701,-51.5 462.701,-83.5 587.07,-83.5 587.07,-51.5 462.701,-51.5"/>
<text text-anchor="start" x="470.701" y="-70.5" font-family="Helvetica,sans-Serif" font-size="10.00" fill="#000000">VehicleControl::IO</text>
<text text-anchor="middle" x="524.8855" y="-58.5" font-family="Helvetica,sans-Serif" font-size="10.00" fill="#000000">::Input::setEdgeCallback</text>
</a>
</g>
</g>
<!-- Node27&#45;&gt;Node29 -->
<g id="edge4" class="edge">
<title>Node27&#45;&gt;Node29</title>
<path fill="none" stroke="#191970" d="M417.3262,-67.5C432.3166,-67.5 448.0053,-67.5 462.6205,-67.5"/>
<polygon fill="#191970" stroke="#191970" points="417.0816,-64.0001 407.0816,-67.5 417.0816,-71.0001 417.0816,-64.0001"/>
</g>
<!-- Node30 -->
<g id="node6" class="node">
<title>Node30</title>
<g id="a_node6"><a xlink:href="namespaceVehicleControl.html#a5756c96006fcbf65cf488b7e2297a73a" target="_top" xlink:title="VehicleControl::createRising\lEdgeThreadedInput">
<polygon fill="#ffffff" stroke="#000000" points="453.823,-.5 453.823,-32.5 595.948,-32.5 595.948,-.5 453.823,-.5"/>
<text text-anchor="start" x="461.823" y="-19.5" font-family="Helvetica,sans-Serif" font-size="10.00" fill="#000000">VehicleControl::createRising</text>
<text text-anchor="middle" x="524.8855" y="-7.5" font-family="Helvetica,sans-Serif" font-size="10.00" fill="#000000">EdgeThreadedInput</text>
</a>
</g>
</g>
<!-- Node27&#45;&gt;Node30 -->
<g id="edge6" class="edge">
<title>Node27&#45;&gt;Node30</title>
<path fill="none" stroke="#191970" d="M390.787,-54.6565C414.3299,-47.9576 443.3597,-39.6974 468.3817,-32.5777"/>
<polygon fill="#191970" stroke="#191970" points="389.7211,-51.3208 381.0608,-57.424 391.6369,-58.0536 389.7211,-51.3208"/>
</g>
<!-- Node29&#45;&gt;Node28 -->
<g id="edge5" class="edge">
<title>Node29&#45;&gt;Node28</title>
<path fill="none" stroke="#191970" d="M597.5245,-77.1004C610.9674,-78.8772 624.785,-80.7034 637.5435,-82.3896"/>
<polygon fill="#191970" stroke="#191970" points="597.7138,-73.5951 587.3413,-75.7546 596.7965,-80.5348 597.7138,-73.5951"/>
</g>
<!-- Node31 -->
<g id="node7" class="node">
<title>Node31</title>
<g id="a_node7"><a xlink:href="classVehicleControl_1_1Control_1_1IOFactory.html#a4d4de0203bf577352199f49c67f49d98" target="_top" xlink:title="fillInputList method fills in all of the app&#39;s inputs ">
<polygon fill="#ffffff" stroke="#000000" points="631.948,-.5 631.948,-32.5 750.736,-32.5 750.736,-.5 631.948,-.5"/>
<text text-anchor="start" x="639.948" y="-19.5" font-family="Helvetica,sans-Serif" font-size="10.00" fill="#000000">VehicleControl::Control</text>
<text text-anchor="middle" x="691.342" y="-7.5" font-family="Helvetica,sans-Serif" font-size="10.00" fill="#000000">::IOFactory::fillInputList</text>
</a>
</g>
</g>
<!-- Node30&#45;&gt;Node31 -->
<g id="edge7" class="edge">
<title>Node30&#45;&gt;Node31</title>
<path fill="none" stroke="#191970" d="M606.0844,-16.5C614.7388,-16.5 623.4224,-16.5 631.7607,-16.5"/>
<polygon fill="#191970" stroke="#191970" points="605.9609,-13.0001 595.9609,-16.5 605.9608,-20.0001 605.9609,-13.0001"/>
</g>
<!-- Node32&#45;&gt;Node26 -->
<g id="edge9" class="edge">
<title>Node32&#45;&gt;Node26</title>
<path fill="none" stroke="#191970" d="M242.5465,-131.2792C252.7575,-134.0827 263.3636,-136.6485 273.476,-138.5 336.9839,-150.1276 410.7703,-154.6638 461.9079,-156.4201"/>
<polygon fill="#191970" stroke="#191970" points="243.4827,-127.9067 232.9065,-128.534 241.5655,-134.6391 243.4827,-127.9067"/>
</g>
<!-- Node32&#45;&gt;Node27 -->
<g id="edge10" class="edge">
<title>Node32&#45;&gt;Node27</title>
<path fill="none" stroke="#191970" d="M247.326,-94.864C256.1028,-92.3831 265.0158,-89.8715 273.476,-87.5 285.1194,-84.2362 297.8281,-80.7043 309.2915,-77.5298"/>
<polygon fill="#191970" stroke="#191970" points="246.1751,-91.5522 237.506,-97.6429 248.0812,-98.2877 246.1751,-91.5522"/>
</g>
<!-- Node33 -->
<g id="node9" class="node">
<title>Node33</title>
<g id="a_node9"><a xlink:href="classVehicleControl_1_1IO_1_1UserLED.html#a899d101eb5e8129e5f3f6c13dce1afb6" target="_top" xlink:title="changeBlinkTime method changes the time of the blink ">
<polygon fill="#ffffff" stroke="#000000" points="273.476,-96.5 273.476,-128.5 417.823,-128.5 417.823,-96.5 273.476,-96.5"/>
<text text-anchor="start" x="281.476" y="-115.5" font-family="Helvetica,sans-Serif" font-size="10.00" fill="#000000">VehicleControl::IO</text>
<text text-anchor="middle" x="345.6495" y="-103.5" font-family="Helvetica,sans-Serif" font-size="10.00" fill="#000000">::UserLED::changeBlinkTime</text>
</a>
</g>
</g>
<!-- Node32&#45;&gt;Node33 -->
<g id="edge11" class="edge">
<title>Node32&#45;&gt;Node33</title>
<path fill="none" stroke="#191970" d="M247.8103,-112.5C256.1438,-112.5 264.7452,-112.5 273.2297,-112.5"/>
<polygon fill="#191970" stroke="#191970" points="247.8041,-109.0001 237.8041,-112.5 247.8041,-116.0001 247.8041,-109.0001"/>
</g>
<!-- Node33&#45;&gt;Node26 -->
<g id="edge12" class="edge">
<title>Node33&#45;&gt;Node26</title>
<path fill="none" stroke="#191970" d="M419.6875,-131.0884C433.698,-134.6059 448.2326,-138.2551 461.8644,-141.6776"/>
<polygon fill="#191970" stroke="#191970" points="420.15,-127.596 409.5987,-128.5555 418.4454,-134.3853 420.15,-127.596"/>
</g>
</g>
</svg>
