<?xml version="1.0" encoding="UTF-8" standalone="no"?>
<!DOCTYPE svg PUBLIC "-//W3C//DTD SVG 1.1//EN"
 "http://www.w3.org/Graphics/SVG/1.1/DTD/svg11.dtd">
<!-- Generated by graphviz version 2.40.1 (20161225.0304)
 -->
<!-- Title: ThreadHelper::startDetachedThread Pages: 1 -->
<svg width="849pt" height="505pt"
 viewBox="0.00 0.00 848.76 505.36" xmlns="http://www.w3.org/2000/svg" xmlns:xlink="http://www.w3.org/1999/xlink">
<g id="graph0" class="graph" transform="scale(1 1) rotate(0) translate(4 501.3579)">
<title>ThreadHelper::startDetachedThread</title>
<polygon fill="#ffffff" stroke="transparent" points="-4,4 -4,-501.3579 844.762,-501.3579 844.762,4 -4,4"/>
<!-- Node1 -->
<g id="node1" class="node">
<title>Node1</title>
<polygon fill="#bfbfbf" stroke="#000000" points="0,-274.5 0,-306.5 144.915,-306.5 144.915,-274.5 0,-274.5"/>
<text text-anchor="start" x="8" y="-293.5" font-family="Helvetica,sans-Serif" font-size="10.00" fill="#000000">ThreadHelper::startDetached</text>
<text text-anchor="middle" x="72.4575" y="-281.5" font-family="Helvetica,sans-Serif" font-size="10.00" fill="#000000">Thread</text>
</g>
<!-- Node2 -->
<g id="node2" class="node">
<title>Node2</title>
<g id="a_node2"><a xlink:href="classVehicleControl_1_1Bluetooth_1_1Base.html#a0d454a071fb0e38cf668cb82d5f93a3c" target="_top" xlink:title="startReadThread ">
<polygon fill="#ffffff" stroke="#000000" points="187.848,-415.5 187.848,-447.5 316.654,-447.5 316.654,-415.5 187.848,-415.5"/>
<text text-anchor="start" x="195.848" y="-434.5" font-family="Helvetica,sans-Serif" font-size="10.00" fill="#000000">VehicleControl::Bluetooth</text>
<text text-anchor="middle" x="252.251" y="-422.5" font-family="Helvetica,sans-Serif" font-size="10.00" fill="#000000">::Base::startReadThread</text>
</a>
</g>
</g>
<!-- Node1&#45;&gt;Node2 -->
<g id="edge1" class="edge">
<title>Node1&#45;&gt;Node2</title>
<path fill="none" stroke="#191970" d="M89.5921,-314.9077C109.0143,-340.9317 142.9498,-381.733 180.915,-406.5 186.0809,-409.87 191.7544,-412.8453 197.5751,-415.4571"/>
<polygon fill="#191970" stroke="#191970" points="92.3089,-312.6936 83.577,-306.6932 86.6611,-316.8292 92.3089,-312.6936"/>
</g>
<!-- Node4 -->
<g id="node4" class="node">
<title>Node4</title>
<g id="a_node4"><a xlink:href="classVehicleControl_1_1Bluetooth_1_1Client.html#a83777b221312c408d42d8dfcb0b807b8" target="_top" xlink:title="VehicleControl::Bluetooth\l::Client::isConnected">
<polygon fill="#ffffff" stroke="#000000" points="550.5085,-436.5 550.5085,-468.5 679.3145,-468.5 679.3145,-436.5 550.5085,-436.5"/>
<text text-anchor="start" x="558.5085" y="-455.5" font-family="Helvetica,sans-Serif" font-size="10.00" fill="#000000">VehicleControl::Bluetooth</text>
<text text-anchor="middle" x="614.9115" y="-443.5" font-family="Helvetica,sans-Serif" font-size="10.00" fill="#000000">::Client::isConnected</text>
</a>
</g>
</g>
<!-- Node1&#45;&gt;Node4 -->
<g id="edge9" class="edge">
<title>Node1&#45;&gt;Node4</title>
<path fill="none" stroke="#191970" d="M80.2927,-316.0443C93.7381,-354.8404 125.2756,-427.2912 180.915,-457.5 303.9201,-524.2842 476.9119,-491.5206 562.5921,-468.5101"/>
<polygon fill="#191970" stroke="#191970" points="83.5963,-314.887 77.1173,-306.5041 76.9546,-317.0977 83.5963,-314.887"/>
</g>
<!-- Node5 -->
<g id="node5" class="node">
<title>Node5</title>
<g id="a_node5"><a xlink:href="classVehicleControl_1_1Bluetooth_1_1Server.html#af5d9733f754be78891f8189f6f63ac90" target="_top" xlink:title="VehicleControl::Bluetooth\l::Server::isConnected">
<polygon fill="#ffffff" stroke="#000000" points="550.5085,-354.5 550.5085,-386.5 679.3145,-386.5 679.3145,-354.5 550.5085,-354.5"/>
<text text-anchor="start" x="558.5085" y="-373.5" font-family="Helvetica,sans-Serif" font-size="10.00" fill="#000000">VehicleControl::Bluetooth</text>
<text text-anchor="middle" x="614.9115" y="-361.5" font-family="Helvetica,sans-Serif" font-size="10.00" fill="#000000">::Server::isConnected</text>
</a>
</g>
</g>
<!-- Node1&#45;&gt;Node5 -->
<g id="edge11" class="edge">
<title>Node1&#45;&gt;Node5</title>
<path fill="none" stroke="#191970" d="M143.9037,-308.8201C156.1987,-311.6302 168.8886,-314.3173 180.915,-316.5 311.0923,-340.126 465.1277,-356.6077 550.2309,-364.7248"/>
<polygon fill="#191970" stroke="#191970" points="144.6817,-305.4077 134.1483,-306.5474 143.0934,-312.2251 144.6817,-305.4077"/>
</g>
<!-- Node6 -->
<g id="node6" class="node">
<title>Node6</title>
<g id="a_node6"><a xlink:href="classVehicleControl_1_1Bluetooth_1_1Base.html#a73cb44dceb3bf46a3fb2acce2091be2a" target="_top" xlink:title="startWriteThread ">
<polygon fill="#ffffff" stroke="#000000" points="187.848,-364.5 187.848,-396.5 316.654,-396.5 316.654,-364.5 187.848,-364.5"/>
<text text-anchor="start" x="195.848" y="-383.5" font-family="Helvetica,sans-Serif" font-size="10.00" fill="#000000">VehicleControl::Bluetooth</text>
<text text-anchor="middle" x="252.251" y="-371.5" font-family="Helvetica,sans-Serif" font-size="10.00" fill="#000000">::Base::startWriteThread</text>
</a>
</g>
</g>
<!-- Node1&#45;&gt;Node6 -->
<g id="edge6" class="edge">
<title>Node1&#45;&gt;Node6</title>
<path fill="none" stroke="#191970" d="M109.4593,-311.6826C130.2286,-323.3046 156.7519,-337.706 180.915,-349.5 191.3513,-354.5939 202.8262,-359.7638 213.4642,-364.3838"/>
<polygon fill="#191970" stroke="#191970" points="111.0748,-308.5756 100.6432,-306.7231 107.6427,-314.6765 111.0748,-308.5756"/>
</g>
<!-- Node7 -->
<g id="node7" class="node">
<title>Node7</title>
<g id="a_node7"><a xlink:href="classVehicleControl_1_1Bluetooth_1_1Client.html#a0391040c6047198f5115f47bce8f1e49" target="_top" xlink:title="VehicleControl::Bluetooth\l::Client::Client">
<polygon fill="#ffffff" stroke="#000000" points="187.848,-274.5 187.848,-306.5 316.654,-306.5 316.654,-274.5 187.848,-274.5"/>
<text text-anchor="start" x="195.848" y="-293.5" font-family="Helvetica,sans-Serif" font-size="10.00" fill="#000000">VehicleControl::Bluetooth</text>
<text text-anchor="middle" x="252.251" y="-281.5" font-family="Helvetica,sans-Serif" font-size="10.00" fill="#000000">::Client::Client</text>
</a>
</g>
</g>
<!-- Node1&#45;&gt;Node7 -->
<g id="edge8" class="edge">
<title>Node1&#45;&gt;Node7</title>
<path fill="none" stroke="#191970" d="M155.0832,-290.5C166.0535,-290.5 177.1691,-290.5 187.7709,-290.5"/>
<polygon fill="#191970" stroke="#191970" points="155.0682,-287.0001 145.0682,-290.5 155.0681,-294.0001 155.0682,-287.0001"/>
</g>
<!-- Node8 -->
<g id="node8" class="node">
<title>Node8</title>
<g id="a_node8"><a xlink:href="classVehicleControl_1_1Bluetooth_1_1Server.html#a71e526977ad6225f87b2b962820931a9" target="_top" xlink:title="VehicleControl::Bluetooth\l::Server::Server">
<polygon fill="#ffffff" stroke="#000000" points="187.848,-223.5 187.848,-255.5 316.654,-255.5 316.654,-223.5 187.848,-223.5"/>
<text text-anchor="start" x="195.848" y="-242.5" font-family="Helvetica,sans-Serif" font-size="10.00" fill="#000000">VehicleControl::Bluetooth</text>
<text text-anchor="middle" x="252.251" y="-230.5" font-family="Helvetica,sans-Serif" font-size="10.00" fill="#000000">::Server::Server</text>
</a>
</g>
</g>
<!-- Node1&#45;&gt;Node8 -->
<g id="edge10" class="edge">
<title>Node1&#45;&gt;Node8</title>
<path fill="none" stroke="#191970" d="M139.2088,-271.5654C157.7948,-266.2933 177.7971,-260.6195 195.7333,-255.5317"/>
<polygon fill="#191970" stroke="#191970" points="138.0106,-268.2671 129.3453,-274.3633 139.9209,-275.0014 138.0106,-268.2671"/>
</g>
<!-- Node9 -->
<g id="node9" class="node">
<title>Node9</title>
<g id="a_node9"><a xlink:href="classVehicleControl_1_1IO_1_1Input.html#a4170e7cac459efea0380175ea12f6e69" target="_top" xlink:title="waitForEdgeThreaded does the same thing as waitForEdge(), but does so in a threaded manner...">
<polygon fill="#ffffff" stroke="#000000" points="359.587,-185.5 359.587,-217.5 507.849,-217.5 507.849,-185.5 359.587,-185.5"/>
<text text-anchor="start" x="367.587" y="-204.5" font-family="Helvetica,sans-Serif" font-size="10.00" fill="#000000">VehicleControl::IO</text>
<text text-anchor="middle" x="433.718" y="-192.5" font-family="Helvetica,sans-Serif" font-size="10.00" fill="#000000">::Input::waitForEdgeThreaded</text>
</a>
</g>
</g>
<!-- Node1&#45;&gt;Node9 -->
<g id="edge12" class="edge">
<title>Node1&#45;&gt;Node9</title>
<path fill="none" stroke="#191970" d="M96.7684,-267.3576C117.3834,-249.3404 148.6691,-225.5918 180.915,-214.5 238.5761,-194.6659 307.9958,-192.5128 359.4896,-194.7012"/>
<polygon fill="#191970" stroke="#191970" points="94.2585,-264.907 89.1457,-274.1866 98.9293,-270.1208 94.2585,-264.907"/>
</g>
<!-- Node12 -->
<g id="node12" class="node">
<title>Node12</title>
<g id="a_node12"><a xlink:href="classVehicleControl_1_1IO_1_1MotorControl.html#a14db742c3916175519c5d543990fea84" target="_top" xlink:title="ServoControl constructor creates the class, and spawns the frequency control thread. ">
<polygon fill="#ffffff" stroke="#000000" points="180.915,-133.5 180.915,-165.5 323.587,-165.5 323.587,-133.5 180.915,-133.5"/>
<text text-anchor="start" x="188.915" y="-152.5" font-family="Helvetica,sans-Serif" font-size="10.00" fill="#000000">VehicleControl::IO</text>
<text text-anchor="middle" x="252.251" y="-140.5" font-family="Helvetica,sans-Serif" font-size="10.00" fill="#000000">::MotorControl::MotorControl</text>
</a>
</g>
</g>
<!-- Node1&#45;&gt;Node12 -->
<g id="edge16" class="edge">
<title>Node1&#45;&gt;Node12</title>
<path fill="none" stroke="#191970" d="M91.4632,-266.3953C111.5837,-242.1413 145.3042,-204.9255 180.915,-180.5 189.1555,-174.8478 198.5926,-169.873 207.846,-165.6563"/>
<polygon fill="#191970" stroke="#191970" points="88.5475,-264.4323 84.9328,-274.3915 93.9691,-268.8602 88.5475,-264.4323"/>
</g>
<!-- Node13 -->
<g id="node13" class="node">
<title>Node13</title>
<g id="a_node13"><a xlink:href="classVehicleControl_1_1IO_1_1UserLED.html#a681c7658d0828edefed7028390adced0" target="_top" xlink:title="setState method sets the state of the LED ">
<polygon fill="#ffffff" stroke="#000000" points="200.0745,-73.5 200.0745,-105.5 304.4275,-105.5 304.4275,-73.5 200.0745,-73.5"/>
<text text-anchor="start" x="208.0745" y="-92.5" font-family="Helvetica,sans-Serif" font-size="10.00" fill="#000000">VehicleControl::IO</text>
<text text-anchor="middle" x="252.251" y="-80.5" font-family="Helvetica,sans-Serif" font-size="10.00" fill="#000000">::UserLED::setState</text>
</a>
</g>
</g>
<!-- Node1&#45;&gt;Node13 -->
<g id="edge17" class="edge">
<title>Node1&#45;&gt;Node13</title>
<path fill="none" stroke="#191970" d="M83.6754,-265.1093C100.4144,-229.6663 134.9499,-165.1488 180.915,-124.5 189.3888,-117.0063 199.7531,-110.7222 209.9275,-105.6418"/>
<polygon fill="#191970" stroke="#191970" points="80.4501,-263.7453 79.4313,-274.2911 86.8041,-266.6824 80.4501,-263.7453"/>
</g>
<!-- Node3 -->
<g id="node3" class="node">
<title>Node3</title>
<g id="a_node3"><a xlink:href="classVehicleControl_1_1Bluetooth_1_1Base.html#a6c41447b1283d1b90459cbdae3a54480" target="_top" xlink:title="startBothThreads ">
<polygon fill="#ffffff" stroke="#000000" points="369.315,-376.5 369.315,-408.5 498.121,-408.5 498.121,-376.5 369.315,-376.5"/>
<text text-anchor="start" x="377.315" y="-395.5" font-family="Helvetica,sans-Serif" font-size="10.00" fill="#000000">VehicleControl::Bluetooth</text>
<text text-anchor="middle" x="433.718" y="-383.5" font-family="Helvetica,sans-Serif" font-size="10.00" fill="#000000">::Base::startBothThreads</text>
</a>
</g>
</g>
<!-- Node2&#45;&gt;Node3 -->
<g id="edge2" class="edge">
<title>Node2&#45;&gt;Node3</title>
<path fill="none" stroke="#191970" d="M326.8429,-415.4691C340.8737,-412.4536 355.4366,-409.3239 369.1307,-406.3808"/>
<polygon fill="#191970" stroke="#191970" points="325.7818,-412.1171 316.7404,-417.6402 327.2526,-418.9609 325.7818,-412.1171"/>
</g>
<!-- Node3&#45;&gt;Node4 -->
<g id="edge3" class="edge">
<title>Node3&#45;&gt;Node4</title>
<path fill="none" stroke="#191970" d="M491.9988,-411.799C516.0589,-419.7662 543.6184,-428.8922 566.5354,-436.4808"/>
<polygon fill="#191970" stroke="#191970" points="492.8679,-408.3999 482.2745,-408.5789 490.6674,-415.0451 492.8679,-408.3999"/>
</g>
<!-- Node3&#45;&gt;Node5 -->
<g id="edge4" class="edge">
<title>Node3&#45;&gt;Node5</title>
<path fill="none" stroke="#191970" d="M508.3815,-383.4346C522.2891,-381.7459 536.7139,-379.9945 550.2888,-378.3463"/>
<polygon fill="#191970" stroke="#191970" points="507.8708,-379.9708 498.3656,-384.6507 508.7146,-386.9197 507.8708,-379.9708"/>
</g>
<!-- Node5&#45;&gt;Node5 -->
<g id="edge5" class="edge">
<title>Node5&#45;&gt;Node5</title>
<path fill="none" stroke="#191970" d="M585.6978,-397.0753C589.5655,-401.7466 599.3034,-405 614.9115,-405 640.5248,-405 650.3299,-396.2388 644.3268,-386.8274"/>
<polygon fill="#191970" stroke="#191970" points="589.1923,-396.7566 585.4962,-386.8274 582.1936,-396.8943 589.1923,-396.7566"/>
</g>
<!-- Node6&#45;&gt;Node3 -->
<g id="edge7" class="edge">
<title>Node6&#45;&gt;Node3</title>
<path fill="none" stroke="#191970" d="M326.8429,-385.4326C340.8737,-386.3604 355.4366,-387.3234 369.1307,-388.229"/>
<polygon fill="#191970" stroke="#191970" points="326.9496,-381.9321 316.7404,-384.7645 326.4877,-388.9168 326.9496,-381.9321"/>
</g>
<!-- Node10 -->
<g id="node10" class="node">
<title>Node10</title>
<g id="a_node10"><a xlink:href="classVehicleControl_1_1IO_1_1Input.html#aeb47b17475e36a509b1bd2ac115a42a0" target="_top" xlink:title="Input constructs an input based on the given setup. The constructor will automatically export the pin...">
<polygon fill="#ffffff" stroke="#000000" points="566.35,-230.5 566.35,-262.5 663.473,-262.5 663.473,-230.5 566.35,-230.5"/>
<text text-anchor="start" x="574.35" y="-249.5" font-family="Helvetica,sans-Serif" font-size="10.00" fill="#000000">VehicleControl::IO</text>
<text text-anchor="middle" x="614.9115" y="-237.5" font-family="Helvetica,sans-Serif" font-size="10.00" fill="#000000">::Input::Input</text>
</a>
</g>
</g>
<!-- Node9&#45;&gt;Node10 -->
<g id="edge13" class="edge">
<title>Node9&#45;&gt;Node10</title>
<path fill="none" stroke="#191970" d="M508.1864,-219.9945C527.7744,-224.8592 548.4018,-229.9821 566.2451,-234.4136"/>
<polygon fill="#191970" stroke="#191970" points="508.9144,-216.569 498.3656,-217.5555 507.2272,-223.3626 508.9144,-216.569"/>
</g>
<!-- Node11 -->
<g id="node11" class="node">
<title>Node11</title>
<g id="a_node11"><a xlink:href="structVehicleControl_1_1IO_1_1Input_1_1Setup.html#a09ce07a96559b6f63eaa51d8eccbc877" target="_top" xlink:title="VehicleControl::IO\l::Input::Setup::Setup">
<polygon fill="#ffffff" stroke="#000000" points="727.7885,-166.5 727.7885,-198.5 834.9475,-198.5 834.9475,-166.5 727.7885,-166.5"/>
<text text-anchor="start" x="735.7885" y="-185.5" font-family="Helvetica,sans-Serif" font-size="10.00" fill="#000000">VehicleControl::IO</text>
<text text-anchor="middle" x="781.368" y="-173.5" font-family="Helvetica,sans-Serif" font-size="10.00" fill="#000000">::Input::Setup::Setup</text>
</a>
</g>
</g>
<!-- Node9&#45;&gt;Node11 -->
<g id="edge15" class="edge">
<title>Node9&#45;&gt;Node11</title>
<path fill="none" stroke="#191970" d="M518.1425,-196.886C583.4301,-193.3178 671.8367,-188.4862 727.742,-185.4308"/>
<polygon fill="#191970" stroke="#191970" points="517.6653,-193.4067 507.8712,-197.4473 518.0474,-200.3963 517.6653,-193.4067"/>
</g>
<!-- Node10&#45;&gt;Node11 -->
<g id="edge14" class="edge">
<title>Node10&#45;&gt;Node11</title>
<path fill="none" stroke="#191970" d="M666.3929,-226.7062C689.9298,-217.6566 717.4513,-207.075 739.666,-198.5338"/>
<polygon fill="#191970" stroke="#191970" points="664.9933,-223.4945 656.9155,-230.3501 667.5055,-230.0282 664.9933,-223.4945"/>
</g>
<!-- Node14 -->
<g id="node14" class="node">
<title>Node14</title>
<g id="a_node14"><a xlink:href="namespaceVehicleControl.html#af89cecf99aa4e7787af7433d8f3b6970" target="_top" xlink:title="VehicleControl::callback">
<polygon fill="#ffffff" stroke="#000000" points="372.378,-107.5 372.378,-127.5 495.058,-127.5 495.058,-107.5 372.378,-107.5"/>
<text text-anchor="middle" x="433.718" y="-114.5" font-family="Helvetica,sans-Serif" font-size="10.00" fill="#000000">VehicleControl::callback</text>
</a>
</g>
</g>
<!-- Node13&#45;&gt;Node14 -->
<g id="edge18" class="edge">
<title>Node13&#45;&gt;Node14</title>
<path fill="none" stroke="#191970" d="M314.8248,-99.155C333.3416,-102.0121 353.5952,-105.1372 372.0541,-107.9854"/>
<polygon fill="#191970" stroke="#191970" points="315.1556,-95.6647 304.7388,-97.5988 314.0881,-102.5828 315.1556,-95.6647"/>
</g>
<!-- Node18 -->
<g id="node18" class="node">
<title>Node18</title>
<g id="a_node18"><a xlink:href="classVehicleControl_1_1IO_1_1UserLED.html#a899d101eb5e8129e5f3f6c13dce1afb6" target="_top" xlink:title="changeBlinkTime method changes the time of the blink ">
<polygon fill="#ffffff" stroke="#000000" points="361.5445,-54.5 361.5445,-86.5 505.8915,-86.5 505.8915,-54.5 361.5445,-54.5"/>
<text text-anchor="start" x="369.5445" y="-73.5" font-family="Helvetica,sans-Serif" font-size="10.00" fill="#000000">VehicleControl::IO</text>
<text text-anchor="middle" x="433.718" y="-61.5" font-family="Helvetica,sans-Serif" font-size="10.00" fill="#000000">::UserLED::changeBlinkTime</text>
</a>
</g>
</g>
<!-- Node13&#45;&gt;Node18 -->
<g id="edge24" class="edge">
<title>Node13&#45;&gt;Node18</title>
<path fill="none" stroke="#191970" d="M314.9169,-82.9387C329.9138,-81.3685 346.0454,-79.6795 361.4373,-78.068"/>
<polygon fill="#191970" stroke="#191970" points="314.3199,-79.482 304.7388,-84.0044 315.0489,-86.444 314.3199,-79.482"/>
</g>
<!-- Node19 -->
<g id="node19" class="node">
<title>Node19</title>
<g id="a_node19"><a xlink:href="structVehicleControl_1_1IO_1_1UserLED_1_1Setup.html#a0f7dc4714f6c82868c4d3bad8baaf4c6" target="_top" xlink:title="VehicleControl::IO\l::UserLED::Setup::Setup">
<polygon fill="#ffffff" stroke="#000000" points="552.1725,-.5 552.1725,-32.5 677.6505,-32.5 677.6505,-.5 552.1725,-.5"/>
<text text-anchor="start" x="560.1725" y="-19.5" font-family="Helvetica,sans-Serif" font-size="10.00" fill="#000000">VehicleControl::IO</text>
<text text-anchor="middle" x="614.9115" y="-7.5" font-family="Helvetica,sans-Serif" font-size="10.00" fill="#000000">::UserLED::Setup::Setup</text>
</a>
</g>
</g>
<!-- Node13&#45;&gt;Node19 -->
<g id="edge26" class="edge">
<title>Node13&#45;&gt;Node19</title>
<path fill="none" stroke="#191970" d="M293.0761,-69.115C312.7223,-60.1619 336.8916,-50.3702 359.587,-44.5 423.9135,-27.8617 499.8538,-21.1061 552.0974,-18.3656"/>
<polygon fill="#191970" stroke="#191970" points="291.4108,-66.0295 283.8212,-73.422 294.3643,-72.3759 291.4108,-66.0295"/>
</g>
<!-- Node14&#45;&gt;Node11 -->
<g id="edge21" class="edge">
<title>Node14&#45;&gt;Node11</title>
<path fill="none" stroke="#191970" d="M481.0698,-130.0088C500.4502,-134.893 523.1454,-140.3133 543.849,-144.5 606.4746,-157.1643 679.0832,-168.2642 727.3725,-175.1459"/>
<polygon fill="#191970" stroke="#191970" points="481.8198,-126.5881 471.2654,-127.5129 480.0928,-133.3718 481.8198,-126.5881"/>
</g>
<!-- Node15 -->
<g id="node15" class="node">
<title>Node15</title>
<g id="a_node15"><a xlink:href="classVehicleControl_1_1IO_1_1Input.html#aa963e2cb77f82fb52ce77187494e54ea" target="_top" xlink:title="setEdgeCallback setter ">
<polygon fill="#ffffff" stroke="#000000" points="552.727,-102.5 552.727,-134.5 677.096,-134.5 677.096,-102.5 552.727,-102.5"/>
<text text-anchor="start" x="560.727" y="-121.5" font-family="Helvetica,sans-Serif" font-size="10.00" fill="#000000">VehicleControl::IO</text>
<text text-anchor="middle" x="614.9115" y="-109.5" font-family="Helvetica,sans-Serif" font-size="10.00" fill="#000000">::Input::setEdgeCallback</text>
</a>
</g>
</g>
<!-- Node14&#45;&gt;Node15 -->
<g id="edge19" class="edge">
<title>Node14&#45;&gt;Node15</title>
<path fill="none" stroke="#191970" d="M505.2363,-117.8947C520.9263,-117.9813 537.4159,-118.0723 552.7055,-118.1567"/>
<polygon fill="#191970" stroke="#191970" points="505.0811,-114.3939 495.0619,-117.8386 505.0424,-121.3938 505.0811,-114.3939"/>
</g>
<!-- Node16 -->
<g id="node16" class="node">
<title>Node16</title>
<g id="a_node16"><a xlink:href="namespaceVehicleControl.html#a5756c96006fcbf65cf488b7e2297a73a" target="_top" xlink:title="VehicleControl::createRising\lEdgeThreadedInput">
<polygon fill="#ffffff" stroke="#000000" points="543.849,-51.5 543.849,-83.5 685.974,-83.5 685.974,-51.5 543.849,-51.5"/>
<text text-anchor="start" x="551.849" y="-70.5" font-family="Helvetica,sans-Serif" font-size="10.00" fill="#000000">VehicleControl::createRising</text>
<text text-anchor="middle" x="614.9115" y="-58.5" font-family="Helvetica,sans-Serif" font-size="10.00" fill="#000000">EdgeThreadedInput</text>
</a>
</g>
</g>
<!-- Node14&#45;&gt;Node16 -->
<g id="edge22" class="edge">
<title>Node14&#45;&gt;Node16</title>
<path fill="none" stroke="#191970" d="M480.0637,-104.711C503.4532,-98.2567 532.0588,-90.363 556.8955,-83.5094"/>
<polygon fill="#191970" stroke="#191970" points="479.0939,-101.3477 470.3852,-107.3818 480.956,-108.0955 479.0939,-101.3477"/>
</g>
<!-- Node15&#45;&gt;Node11 -->
<g id="edge20" class="edge">
<title>Node15&#45;&gt;Node11</title>
<path fill="none" stroke="#191970" d="M666.3929,-138.2938C689.9298,-147.3434 717.4513,-157.925 739.666,-166.4662"/>
<polygon fill="#191970" stroke="#191970" points="667.5055,-134.9718 656.9155,-134.6499 664.9933,-141.5055 667.5055,-134.9718"/>
</g>
<!-- Node17 -->
<g id="node17" class="node">
<title>Node17</title>
<g id="a_node17"><a xlink:href="classVehicleControl_1_1Control_1_1IOFactory.html#a4d4de0203bf577352199f49c67f49d98" target="_top" xlink:title="fillInputList method fills in all of the app&#39;s inputs ">
<polygon fill="#ffffff" stroke="#000000" points="721.974,-51.5 721.974,-83.5 840.762,-83.5 840.762,-51.5 721.974,-51.5"/>
<text text-anchor="start" x="729.974" y="-70.5" font-family="Helvetica,sans-Serif" font-size="10.00" fill="#000000">VehicleControl::Control</text>
<text text-anchor="middle" x="781.368" y="-58.5" font-family="Helvetica,sans-Serif" font-size="10.00" fill="#000000">::IOFactory::fillInputList</text>
</a>
</g>
</g>
<!-- Node16&#45;&gt;Node17 -->
<g id="edge23" class="edge">
<title>Node16&#45;&gt;Node17</title>
<path fill="none" stroke="#191970" d="M696.1104,-67.5C704.7648,-67.5 713.4484,-67.5 721.7867,-67.5"/>
<polygon fill="#191970" stroke="#191970" points="695.9869,-64.0001 685.9869,-67.5 695.9868,-71.0001 695.9869,-64.0001"/>
</g>
<!-- Node18&#45;&gt;Node19 -->
<g id="edge25" class="edge">
<title>Node18&#45;&gt;Node19</title>
<path fill="none" stroke="#191970" d="M497.2865,-51.5551C518.0645,-45.3627 540.9303,-38.5482 560.9328,-32.587"/>
<polygon fill="#191970" stroke="#191970" points="496.1752,-48.234 487.5914,-54.4444 498.1746,-54.9425 496.1752,-48.234"/>
</g>
</g>
</svg>
