<?xml version="1.0" encoding="UTF-8" standalone="no"?>
<!DOCTYPE svg PUBLIC "-//W3C//DTD SVG 1.1//EN"
 "http://www.w3.org/Graphics/SVG/1.1/DTD/svg11.dtd">
<!-- Generated by graphviz version 2.40.1 (20161225.0304)
 -->
<!-- Title: VehicleControl::IO::Input::waitForEdge Pages: 1 -->
<svg width="383pt" height="92pt"
 viewBox="0.00 0.00 382.52 92.00" xmlns="http://www.w3.org/2000/svg" xmlns:xlink="http://www.w3.org/1999/xlink">
<g id="graph0" class="graph" transform="scale(1 1) rotate(0) translate(4 88)">
<title>VehicleControl::IO::Input::waitForEdge</title>
<polygon fill="#ffffff" stroke="transparent" points="-4,4 -4,-88 378.516,-88 378.516,4 -4,4"/>
<!-- Node41 -->
<g id="node1" class="node">
<title>Node41</title>
<polygon fill="#bfbfbf" stroke="#000000" points="0,-25.5 0,-57.5 105.47,-57.5 105.47,-25.5 0,-25.5"/>
<text text-anchor="start" x="8" y="-44.5" font-family="Helvetica,sans-Serif" font-size="10.00" fill="#000000">VehicleControl::IO</text>
<text text-anchor="middle" x="52.735" y="-32.5" font-family="Helvetica,sans-Serif" font-size="10.00" fill="#000000">::Input::waitForEdge</text>
</g>
<!-- Node42 -->
<g id="node2" class="node">
<title>Node42</title>
<g id="a_node2"><a xlink:href="classVehicleControl_1_1IO_1_1IOBase.html#a8fa41e860d76951642da1d58b6756604" target="_top" xlink:title="path getter ">
<polygon fill="#ffffff" stroke="#000000" points="142.87,-51.5 142.87,-83.5 239.993,-83.5 239.993,-51.5 142.87,-51.5"/>
<text text-anchor="start" x="150.87" y="-70.5" font-family="Helvetica,sans-Serif" font-size="10.00" fill="#000000">VehicleControl::IO</text>
<text text-anchor="middle" x="191.4315" y="-58.5" font-family="Helvetica,sans-Serif" font-size="10.00" fill="#000000">::IOBase::path</text>
</a>
</g>
</g>
<!-- Node41&#45;&gt;Node42 -->
<g id="edge1" class="edge">
<title>Node41&#45;&gt;Node42</title>
<path fill="none" stroke="#191970" d="M105.5659,-51.4037C114.4652,-53.0719 123.75,-54.8124 132.7862,-56.5064"/>
<polygon fill="#191970" stroke="#191970" points="132.3754,-59.9903 142.8491,-58.3928 133.6652,-53.1101 132.3754,-59.9903"/>
</g>
<!-- Node43 -->
<g id="node3" class="node">
<title>Node43</title>
<g id="a_node3"><a xlink:href="classVehicleControl_1_1IO_1_1IOBase.html#adcc9f65745e07f2e00425d4e0f5f8e54" target="_top" xlink:title="getValue getter ">
<polygon fill="#ffffff" stroke="#000000" points="141.47,-.5 141.47,-32.5 241.393,-32.5 241.393,-.5 141.47,-.5"/>
<text text-anchor="start" x="149.47" y="-19.5" font-family="Helvetica,sans-Serif" font-size="10.00" fill="#000000">VehicleControl::IO</text>
<text text-anchor="middle" x="191.4315" y="-7.5" font-family="Helvetica,sans-Serif" font-size="10.00" fill="#000000">::IOBase::getValue</text>
</a>
</g>
</g>
<!-- Node41&#45;&gt;Node43 -->
<g id="edge2" class="edge">
<title>Node41&#45;&gt;Node43</title>
<path fill="none" stroke="#191970" d="M105.5659,-31.9773C113.9294,-30.4697 122.6332,-28.9009 131.1513,-27.3655"/>
<polygon fill="#191970" stroke="#191970" points="131.8135,-30.8026 141.034,-25.5841 130.5717,-23.9136 131.8135,-30.8026"/>
</g>
<!-- Node44 -->
<g id="node4" class="node">
<title>Node44</title>
<g id="a_node4"><a xlink:href="classVehicleControl_1_1IO_1_1IOBase.html#a1da47fda987bfedb4ec3c7fb446c09c7" target="_top" xlink:title="read function that reads the value of the given file filename ">
<polygon fill="#ffffff" stroke="#000000" points="277.393,-.5 277.393,-32.5 374.516,-32.5 374.516,-.5 277.393,-.5"/>
<text text-anchor="start" x="285.393" y="-19.5" font-family="Helvetica,sans-Serif" font-size="10.00" fill="#000000">VehicleControl::IO</text>
<text text-anchor="middle" x="325.9545" y="-7.5" font-family="Helvetica,sans-Serif" font-size="10.00" fill="#000000">::IOBase::read</text>
</a>
</g>
</g>
<!-- Node43&#45;&gt;Node44 -->
<g id="edge3" class="edge">
<title>Node43&#45;&gt;Node44</title>
<path fill="none" stroke="#191970" d="M241.5229,-16.5C249.8077,-16.5 258.4649,-16.5 266.9445,-16.5"/>
<polygon fill="#191970" stroke="#191970" points="267.1628,-20.0001 277.1627,-16.5 267.1627,-13.0001 267.1628,-20.0001"/>
</g>
</g>
</svg>
