<?xml version="1.0" encoding="UTF-8" standalone="no"?>
<!DOCTYPE svg PUBLIC "-//W3C//DTD SVG 1.1//EN"
 "http://www.w3.org/Graphics/SVG/1.1/DTD/svg11.dtd">
<!-- Generated by graphviz version 2.40.1 (20161225.0304)
 -->
<!-- Title: VehicleControl::Control::~Control Pages: 1 -->
<svg width="302pt" height="143pt"
 viewBox="0.00 0.00 301.60 143.00" xmlns="http://www.w3.org/2000/svg" xmlns:xlink="http://www.w3.org/1999/xlink">
<g id="graph0" class="graph" transform="scale(1 1) rotate(0) translate(4 139)">
<title>VehicleControl::Control::~Control</title>
<polygon fill="#ffffff" stroke="transparent" points="-4,4 -4,-139 297.596,-139 297.596,4 -4,4"/>
<!-- Node0 -->
<g id="node1" class="node">
<title>Node0</title>
<polygon fill="#bfbfbf" stroke="#000000" points="0,-51.5 0,-83.5 118.788,-83.5 118.788,-51.5 0,-51.5"/>
<text text-anchor="start" x="8" y="-70.5" font-family="Helvetica,sans-Serif" font-size="10.00" fill="#000000">VehicleControl::Control</text>
<text text-anchor="middle" x="59.394" y="-58.5" font-family="Helvetica,sans-Serif" font-size="10.00" fill="#000000">::~Control</text>
</g>
<!-- Node1 -->
<g id="node2" class="node">
<title>Node1</title>
<g id="a_node2"><a xlink:href="classVehicleControl_1_1Control_1_1IOFactory.html#a7d2f45c1d5567d7a49bf59fc0998317e" target="_top" xlink:title="destroyInputs method loops through all of the inputs, calling delete on all of them. ">
<polygon fill="#ffffff" stroke="#000000" points="158.6775,-102.5 158.6775,-134.5 289.7065,-134.5 289.7065,-102.5 158.6775,-102.5"/>
<text text-anchor="start" x="166.6775" y="-121.5" font-family="Helvetica,sans-Serif" font-size="10.00" fill="#000000">VehicleControl::Control</text>
<text text-anchor="middle" x="224.192" y="-109.5" font-family="Helvetica,sans-Serif" font-size="10.00" fill="#000000">::IOFactory::destroyInputs</text>
</a>
</g>
</g>
<!-- Node0&#45;&gt;Node1 -->
<g id="edge1" class="edge">
<title>Node0&#45;&gt;Node1</title>
<path fill="none" stroke="#191970" d="M111.5371,-83.6367C127.7756,-88.662 145.8345,-94.2507 162.6525,-99.4554"/>
<polygon fill="#191970" stroke="#191970" points="161.8003,-102.8554 172.3881,-102.4683 163.8698,-96.1683 161.8003,-102.8554"/>
</g>
<!-- Node2 -->
<g id="node3" class="node">
<title>Node2</title>
<g id="a_node3"><a xlink:href="classVehicleControl_1_1Control_1_1IOFactory.html#a029a1022f10f9273c0d7eee55a40c407" target="_top" xlink:title="destroyOutputs method loops through all of the outputs, calling delete on all of them. ">
<polygon fill="#ffffff" stroke="#000000" points="154.788,-51.5 154.788,-83.5 293.596,-83.5 293.596,-51.5 154.788,-51.5"/>
<text text-anchor="start" x="162.788" y="-70.5" font-family="Helvetica,sans-Serif" font-size="10.00" fill="#000000">VehicleControl::Control</text>
<text text-anchor="middle" x="224.192" y="-58.5" font-family="Helvetica,sans-Serif" font-size="10.00" fill="#000000">::IOFactory::destroyOutputs</text>
</a>
</g>
</g>
<!-- Node0&#45;&gt;Node2 -->
<g id="edge2" class="edge">
<title>Node0&#45;&gt;Node2</title>
<path fill="none" stroke="#191970" d="M118.8899,-67.5C127.2394,-67.5 135.9297,-67.5 144.579,-67.5"/>
<polygon fill="#191970" stroke="#191970" points="144.691,-71.0001 154.6909,-67.5 144.6909,-64.0001 144.691,-71.0001"/>
</g>
<!-- Node3 -->
<g id="node4" class="node">
<title>Node3</title>
<g id="a_node4"><a xlink:href="classVehicleControl_1_1Control_1_1IOFactory.html#a2f665cda1a5fc33ce4c799325cb70a3b" target="_top" xlink:title="destroyServos method loops through all of the servos, calling delete on all of them. ">
<polygon fill="#ffffff" stroke="#000000" points="156.737,-.5 156.737,-32.5 291.647,-32.5 291.647,-.5 156.737,-.5"/>
<text text-anchor="start" x="164.737" y="-19.5" font-family="Helvetica,sans-Serif" font-size="10.00" fill="#000000">VehicleControl::Control</text>
<text text-anchor="middle" x="224.192" y="-7.5" font-family="Helvetica,sans-Serif" font-size="10.00" fill="#000000">::IOFactory::destroyServos</text>
</a>
</g>
</g>
<!-- Node0&#45;&gt;Node3 -->
<g id="edge3" class="edge">
<title>Node0&#45;&gt;Node3</title>
<path fill="none" stroke="#191970" d="M111.5371,-51.3633C127.7756,-46.338 145.8345,-40.7493 162.6525,-35.5446"/>
<polygon fill="#191970" stroke="#191970" points="163.8698,-38.8317 172.3881,-32.5317 161.8003,-32.1446 163.8698,-38.8317"/>
</g>
</g>
</svg>
