<?xml version="1.0" encoding="UTF-8" standalone="no"?>
<!DOCTYPE svg PUBLIC "-//W3C//DTD SVG 1.1//EN"
 "http://www.w3.org/Graphics/SVG/1.1/DTD/svg11.dtd">
<!-- Generated by graphviz version 2.40.1 (20161225.0304)
 -->
<!-- Title: Core::IO::ServoControl::desiredDegree Pages: 1 -->
<svg width="279pt" height="92pt"
 viewBox="0.00 0.00 278.80 92.00" xmlns="http://www.w3.org/2000/svg" xmlns:xlink="http://www.w3.org/1999/xlink">
<g id="graph0" class="graph" transform="scale(1 1) rotate(0) translate(4 88)">
<title>Core::IO::ServoControl::desiredDegree</title>
<polygon fill="#ffffff" stroke="transparent" points="-4,4 -4,-88 274.797,-88 274.797,4 -4,4"/>
<!-- Node4 -->
<g id="node1" class="node">
<title>Node4</title>
<polygon fill="#bfbfbf" stroke="#000000" points="0,-25.5 0,-57.5 117.679,-57.5 117.679,-25.5 0,-25.5"/>
<text text-anchor="start" x="8" y="-44.5" font-family="Helvetica,sans-Serif" font-size="10.00" fill="#000000">Core::IO::ServoControl</text>
<text text-anchor="middle" x="58.8395" y="-32.5" font-family="Helvetica,sans-Serif" font-size="10.00" fill="#000000">::desiredDegree</text>
</g>
<!-- Node5 -->
<g id="node2" class="node">
<title>Node5</title>
<g id="a_node2"><a xlink:href="classMath_1_1LinearConverter.html#a273d07db25141b970ca038d0826e83be" target="_top" xlink:title="convertYtoX getter. Uses x = ( y &#45; b ) / m. ">
<polygon fill="#ffffff" stroke="#000000" points="154.508,-51.5 154.508,-83.5 269.968,-83.5 269.968,-51.5 154.508,-51.5"/>
<text text-anchor="start" x="162.508" y="-70.5" font-family="Helvetica,sans-Serif" font-size="10.00" fill="#000000">Math::LinearConverter</text>
<text text-anchor="middle" x="212.238" y="-58.5" font-family="Helvetica,sans-Serif" font-size="10.00" fill="#000000">::convertYtoX</text>
</a>
</g>
</g>
<!-- Node4&#45;&gt;Node5 -->
<g id="edge1" class="edge">
<title>Node4&#45;&gt;Node5</title>
<path fill="none" stroke="#191970" d="M117.7087,-51.4779C126.4257,-52.9554 135.4681,-54.488 144.3506,-55.9936"/>
<polygon fill="#191970" stroke="#191970" points="143.8413,-59.4571 154.2856,-57.6775 145.0111,-52.5555 143.8413,-59.4571"/>
</g>
<!-- Node6 -->
<g id="node3" class="node">
<title>Node6</title>
<g id="a_node3"><a xlink:href="classCore_1_1IO_1_1MotorControl.html#a97ccba74028ff6057d25fe794350ab7f" target="_top" xlink:title="pulseWidth getter ">
<polygon fill="#ffffff" stroke="#000000" points="153.679,-.5 153.679,-32.5 270.797,-32.5 270.797,-.5 153.679,-.5"/>
<text text-anchor="start" x="161.679" y="-19.5" font-family="Helvetica,sans-Serif" font-size="10.00" fill="#000000">Core::IO::MotorControl</text>
<text text-anchor="middle" x="212.238" y="-7.5" font-family="Helvetica,sans-Serif" font-size="10.00" fill="#000000">::pulseWidth</text>
</a>
</g>
</g>
<!-- Node4&#45;&gt;Node6 -->
<g id="edge2" class="edge">
<title>Node4&#45;&gt;Node6</title>
<path fill="none" stroke="#191970" d="M117.7087,-31.9058C126.1498,-30.5302 134.896,-29.1048 143.5067,-27.7014"/>
<polygon fill="#191970" stroke="#191970" points="144.2196,-31.1315 153.5264,-26.0685 143.0936,-24.2227 144.2196,-31.1315"/>
</g>
</g>
</svg>
