<?xml version="1.0" encoding="UTF-8" standalone="no"?>
<!DOCTYPE svg PUBLIC "-//W3C//DTD SVG 1.1//EN"
 "http://www.w3.org/Graphics/SVG/1.1/DTD/svg11.dtd">
<!-- Generated by graphviz version 2.40.1 (20161225.0304)
 -->
<!-- Title: VehicleControl::IO::Input::waitForEdge Pages: 1 -->
<svg width="429pt" height="63pt"
 viewBox="0.00 0.00 429.21 63.00" xmlns="http://www.w3.org/2000/svg" xmlns:xlink="http://www.w3.org/1999/xlink">
<g id="graph0" class="graph" transform="scale(1 1) rotate(0) translate(4 59)">
<title>VehicleControl::IO::Input::waitForEdge</title>
<polygon fill="#ffffff" stroke="transparent" points="-4,4 -4,-59 425.215,-59 425.215,4 -4,4"/>
<!-- Node45 -->
<g id="node1" class="node">
<title>Node45</title>
<polygon fill="#bfbfbf" stroke="#000000" points="0,-22.5 0,-54.5 105.47,-54.5 105.47,-22.5 0,-22.5"/>
<text text-anchor="start" x="8" y="-41.5" font-family="Helvetica,sans-Serif" font-size="10.00" fill="#000000">VehicleControl::IO</text>
<text text-anchor="middle" x="52.735" y="-29.5" font-family="Helvetica,sans-Serif" font-size="10.00" fill="#000000">::Input::waitForEdge</text>
</g>
<!-- Node46 -->
<g id="node2" class="node">
<title>Node46</title>
<g id="a_node2"><a xlink:href="structVehicleControl_1_1IO_1_1Input_1_1Setup.html#a09ce07a96559b6f63eaa51d8eccbc877" target="_top" xlink:title="VehicleControl::IO\l::Input::Setup::Setup">
<polygon fill="#ffffff" stroke="#000000" points="314.056,-22.5 314.056,-54.5 421.215,-54.5 421.215,-22.5 314.056,-22.5"/>
<text text-anchor="start" x="322.056" y="-41.5" font-family="Helvetica,sans-Serif" font-size="10.00" fill="#000000">VehicleControl::IO</text>
<text text-anchor="middle" x="367.6355" y="-29.5" font-family="Helvetica,sans-Serif" font-size="10.00" fill="#000000">::Input::Setup::Setup</text>
</a>
</g>
</g>
<!-- Node45&#45;&gt;Node46 -->
<g id="edge1" class="edge">
<title>Node45&#45;&gt;Node46</title>
<path fill="none" stroke="#191970" d="M115.7856,-41.6926C124.4139,-42.027 133.1592,-42.3128 141.47,-42.5 202.1595,-43.8672 217.3662,-43.8543 278.056,-42.5 289.5731,-42.243 301.9169,-41.8003 313.6471,-41.3008"/>
<polygon fill="#191970" stroke="#191970" points="115.8786,-38.1935 105.7435,-41.2806 115.5916,-45.1877 115.8786,-38.1935"/>
</g>
<!-- Node47 -->
<g id="node3" class="node">
<title>Node47</title>
<g id="a_node3"><a xlink:href="classVehicleControl_1_1IO_1_1Input.html#af43084e3aa7a11f0dae0ae67a22112f1" target="_top" xlink:title="cancelWaitForEdge method cancels waiting for the edge. ">
<polygon fill="#ffffff" stroke="#000000" points="141.47,-.5 141.47,-32.5 278.056,-32.5 278.056,-.5 141.47,-.5"/>
<text text-anchor="start" x="149.47" y="-19.5" font-family="Helvetica,sans-Serif" font-size="10.00" fill="#000000">VehicleControl::IO</text>
<text text-anchor="middle" x="209.763" y="-7.5" font-family="Helvetica,sans-Serif" font-size="10.00" fill="#000000">::Input::cancelWaitForEdge</text>
</a>
</g>
</g>
<!-- Node45&#45;&gt;Node47 -->
<g id="edge2" class="edge">
<title>Node45&#45;&gt;Node47</title>
<path fill="none" stroke="#191970" d="M115.9467,-29.6439C124.3051,-28.4729 132.9042,-27.2681 141.345,-26.0855"/>
<polygon fill="#191970" stroke="#191970" points="115.3152,-26.1981 105.8975,-31.0518 116.2864,-33.1304 115.3152,-26.1981"/>
</g>
<!-- Node47&#45;&gt;Node46 -->
<g id="edge3" class="edge">
<title>Node47&#45;&gt;Node46</title>
<path fill="none" stroke="#191970" d="M288.2688,-27.44C296.9639,-28.6517 305.666,-29.8644 313.953,-31.0192"/>
<polygon fill="#191970" stroke="#191970" points="288.4774,-23.9353 278.09,-26.0216 287.5112,-30.8683 288.4774,-23.9353"/>
</g>
</g>
</svg>
