<?xml version="1.0" encoding="UTF-8" standalone="no"?>
<!DOCTYPE svg PUBLIC "-//W3C//DTD SVG 1.1//EN"
 "http://www.w3.org/Graphics/SVG/1.1/DTD/svg11.dtd">
<!-- Generated by graphviz version 2.40.1 (20161225.0304)
 -->
<!-- Title: VehicleControl::IO::Output::setValue Pages: 1 -->
<svg width="409pt" height="107pt"
 viewBox="0.00 0.00 408.65 107.10" xmlns="http://www.w3.org/2000/svg" xmlns:xlink="http://www.w3.org/1999/xlink">
<g id="graph0" class="graph" transform="scale(1 1) rotate(0) translate(4 103.1019)">
<title>VehicleControl::IO::Output::setValue</title>
<polygon fill="#ffffff" stroke="transparent" points="-4,4 -4,-103.1019 404.651,-103.1019 404.651,4 -4,4"/>
<!-- Node22 -->
<g id="node1" class="node">
<title>Node22</title>
<polygon fill="#bfbfbf" stroke="#000000" points="0,-51.5 0,-83.5 97.123,-83.5 97.123,-51.5 0,-51.5"/>
<text text-anchor="start" x="8" y="-70.5" font-family="Helvetica,sans-Serif" font-size="10.00" fill="#000000">VehicleControl::IO</text>
<text text-anchor="middle" x="48.5615" y="-58.5" font-family="Helvetica,sans-Serif" font-size="10.00" fill="#000000">::Output::setValue</text>
</g>
<!-- Node23 -->
<g id="node2" class="node">
<title>Node23</title>
<g id="a_node2"><a xlink:href="structVehicleControl_1_1IO_1_1Output_1_1Setup.html#a6346d200fcd68fb1693f1e3ae9c9d3af" target="_top" xlink:title="VehicleControl::IO\l::Output::Setup::Setup">
<polygon fill="#ffffff" stroke="#000000" points="285.713,-51.5 285.713,-83.5 400.651,-83.5 400.651,-51.5 285.713,-51.5"/>
<text text-anchor="start" x="293.713" y="-70.5" font-family="Helvetica,sans-Serif" font-size="10.00" fill="#000000">VehicleControl::IO</text>
<text text-anchor="middle" x="343.182" y="-58.5" font-family="Helvetica,sans-Serif" font-size="10.00" fill="#000000">::Output::Setup::Setup</text>
</a>
</g>
</g>
<!-- Node22&#45;&gt;Node23 -->
<g id="edge1" class="edge">
<title>Node22&#45;&gt;Node23</title>
<path fill="none" stroke="#191970" d="M101.5909,-86.434C111.9225,-89.3708 122.7639,-91.9434 133.123,-93.5 184.3655,-101.1999 198.3713,-100.5078 249.713,-93.5 264.7328,-91.4499 280.7442,-87.6278 295.1936,-83.533"/>
<polygon fill="#191970" stroke="#191970" points="102.4577,-83.0401 91.8741,-83.528 100.4519,-89.7466 102.4577,-83.0401"/>
</g>
<!-- Node24 -->
<g id="node3" class="node">
<title>Node24</title>
<g id="a_node3"><a xlink:href="classVehicleControl_1_1IO_1_1Output.html#a0ff845e3963d2a3e19080b402edfaaf6" target="_top" xlink:title="toggleOutput method toggles the output once ">
<polygon fill="#ffffff" stroke="#000000" points="134.229,-.5 134.229,-32.5 248.607,-32.5 248.607,-.5 134.229,-.5"/>
<text text-anchor="start" x="142.229" y="-19.5" font-family="Helvetica,sans-Serif" font-size="10.00" fill="#000000">VehicleControl::IO</text>
<text text-anchor="middle" x="191.418" y="-7.5" font-family="Helvetica,sans-Serif" font-size="10.00" fill="#000000">::Output::toggleOutput</text>
</a>
</g>
</g>
<!-- Node22&#45;&gt;Node24 -->
<g id="edge2" class="edge">
<title>Node22&#45;&gt;Node24</title>
<path fill="none" stroke="#191970" d="M103.4424,-47.9074C117.6825,-42.8237 132.8511,-37.4085 146.5114,-32.5317"/>
<polygon fill="#191970" stroke="#191970" points="102.0032,-44.7048 93.7622,-51.3633 104.3568,-51.2973 102.0032,-44.7048"/>
</g>
<!-- Node26 -->
<g id="node5" class="node">
<title>Node26</title>
<g id="a_node5"><a xlink:href="classVehicleControl_1_1IO_1_1Output.html#a522b8b858e6e80e33b5c82cbe6a40dac" target="_top" xlink:title="cancelToggle cancels toggling ">
<polygon fill="#ffffff" stroke="#000000" points="133.123,-51.5 133.123,-83.5 249.713,-83.5 249.713,-51.5 133.123,-51.5"/>
<text text-anchor="start" x="141.123" y="-70.5" font-family="Helvetica,sans-Serif" font-size="10.00" fill="#000000">VehicleControl::IO</text>
<text text-anchor="middle" x="191.418" y="-58.5" font-family="Helvetica,sans-Serif" font-size="10.00" fill="#000000">::Output::cancelToggle</text>
</a>
</g>
</g>
<!-- Node22&#45;&gt;Node26 -->
<g id="edge5" class="edge">
<title>Node22&#45;&gt;Node26</title>
<path fill="none" stroke="#191970" d="M107.4637,-67.5C115.9005,-67.5 124.578,-67.5 133.0053,-67.5"/>
<polygon fill="#191970" stroke="#191970" points="107.3251,-64.0001 97.325,-67.5 107.325,-71.0001 107.3251,-64.0001"/>
</g>
<!-- Node24&#45;&gt;Node23 -->
<g id="edge3" class="edge">
<title>Node24&#45;&gt;Node23</title>
<path fill="none" stroke="#191970" d="M249.2848,-35.946C264.5388,-41.0721 280.8238,-46.5446 295.4753,-51.4683"/>
<polygon fill="#191970" stroke="#191970" points="250.0311,-32.5045 239.4371,-32.6367 247.8012,-39.1399 250.0311,-32.5045"/>
</g>
<!-- Node25 -->
<g id="node4" class="node">
<title>Node25</title>
<g id="a_node4"><a xlink:href="classVehicleControl_1_1IO_1_1Output.html#a08adbcc38e67222f17a35847e72f6ba7" target="_top" xlink:title="toggleOutput method toggles the output every using the time arguement. ">
<polygon fill="#ffffff" stroke="#000000" points="285.993,-.5 285.993,-32.5 400.371,-32.5 400.371,-.5 285.993,-.5"/>
<text text-anchor="start" x="293.993" y="-19.5" font-family="Helvetica,sans-Serif" font-size="10.00" fill="#000000">VehicleControl::IO</text>
<text text-anchor="middle" x="343.182" y="-7.5" font-family="Helvetica,sans-Serif" font-size="10.00" fill="#000000">::Output::toggleOutput</text>
</a>
</g>
</g>
<!-- Node24&#45;&gt;Node25 -->
<g id="edge4" class="edge">
<title>Node24&#45;&gt;Node25</title>
<path fill="none" stroke="#191970" d="M258.9016,-16.5C267.9397,-16.5 277.1387,-16.5 285.9772,-16.5"/>
<polygon fill="#191970" stroke="#191970" points="258.7935,-13.0001 248.7935,-16.5 258.7934,-20.0001 258.7935,-13.0001"/>
</g>
<!-- Node26&#45;&gt;Node23 -->
<g id="edge6" class="edge">
<title>Node26&#45;&gt;Node23</title>
<path fill="none" stroke="#191970" d="M260.3357,-67.5C268.8031,-67.5 277.387,-67.5 285.6612,-67.5"/>
<polygon fill="#191970" stroke="#191970" points="260.094,-64.0001 250.0939,-67.5 260.0939,-71.0001 260.094,-64.0001"/>
</g>
</g>
</svg>
