<?xml version="1.0" encoding="UTF-8" standalone="no"?>
<!DOCTYPE svg PUBLIC "-//W3C//DTD SVG 1.1//EN"
 "http://www.w3.org/Graphics/SVG/1.1/DTD/svg11.dtd">
<!-- Generated by graphviz version 2.40.1 (20161225.0304)
 -->
<!-- Title: VehicleControl::IO::Input::getEdgeType Pages: 1 -->
<svg width="250pt" height="41pt"
 viewBox="0.00 0.00 249.94 41.00" xmlns="http://www.w3.org/2000/svg" xmlns:xlink="http://www.w3.org/1999/xlink">
<g id="graph0" class="graph" transform="scale(1 1) rotate(0) translate(4 37)">
<title>VehicleControl::IO::Input::getEdgeType</title>
<polygon fill="#ffffff" stroke="transparent" points="-4,4 -4,-37 245.944,-37 245.944,4 -4,4"/>
<!-- Node21 -->
<g id="node1" class="node">
<title>Node21</title>
<polygon fill="#bfbfbf" stroke="#000000" points="0,-.5 0,-32.5 108.821,-32.5 108.821,-.5 0,-.5"/>
<text text-anchor="start" x="8" y="-19.5" font-family="Helvetica,sans-Serif" font-size="10.00" fill="#000000">VehicleControl::IO</text>
<text text-anchor="middle" x="54.4105" y="-7.5" font-family="Helvetica,sans-Serif" font-size="10.00" fill="#000000">::Input::getEdgeType</text>
</g>
<!-- Node22 -->
<g id="node2" class="node">
<title>Node22</title>
<g id="a_node2"><a xlink:href="classVehicleControl_1_1IO_1_1IOBase.html#a1da47fda987bfedb4ec3c7fb446c09c7" target="_top" xlink:title="read function that reads the value of the given file filename ">
<polygon fill="#ffffff" stroke="#000000" points="144.821,-.5 144.821,-32.5 241.944,-32.5 241.944,-.5 144.821,-.5"/>
<text text-anchor="start" x="152.821" y="-19.5" font-family="Helvetica,sans-Serif" font-size="10.00" fill="#000000">VehicleControl::IO</text>
<text text-anchor="middle" x="193.3825" y="-7.5" font-family="Helvetica,sans-Serif" font-size="10.00" fill="#000000">::IOBase::read</text>
</a>
</g>
</g>
<!-- Node21&#45;&gt;Node22 -->
<g id="edge1" class="edge">
<title>Node21&#45;&gt;Node22</title>
<path fill="none" stroke="#191970" d="M108.937,-16.5C117.2625,-16.5 125.8888,-16.5 134.3065,-16.5"/>
<polygon fill="#191970" stroke="#191970" points="134.4366,-20.0001 144.4366,-16.5 134.4365,-13.0001 134.4366,-20.0001"/>
</g>
</g>
</svg>
