<?xml version="1.0" encoding="UTF-8" standalone="no"?>
<!DOCTYPE svg PUBLIC "-//W3C//DTD SVG 1.1//EN"
 "http://www.w3.org/Graphics/SVG/1.1/DTD/svg11.dtd">
<!-- Generated by graphviz version 2.40.1 (20161225.0304)
 -->
<!-- Title: VehicleControl::Control::update Pages: 1 -->
<svg width="934pt" height="299pt"
 viewBox="0.00 0.00 934.30 299.00" xmlns="http://www.w3.org/2000/svg" xmlns:xlink="http://www.w3.org/1999/xlink">
<g id="graph0" class="graph" transform="scale(1 1) rotate(0) translate(4 295)">
<title>VehicleControl::Control::update</title>
<polygon fill="#ffffff" stroke="transparent" points="-4,4 -4,-295 930.303,-295 930.303,4 -4,4"/>
<!-- Node22 -->
<g id="node1" class="node">
<title>Node22</title>
<polygon fill="#bfbfbf" stroke="#000000" points="0,-201.5 0,-233.5 118.788,-233.5 118.788,-201.5 0,-201.5"/>
<text text-anchor="start" x="8" y="-220.5" font-family="Helvetica,sans-Serif" font-size="10.00" fill="#000000">VehicleControl::Control</text>
<text text-anchor="middle" x="59.394" y="-208.5" font-family="Helvetica,sans-Serif" font-size="10.00" fill="#000000">::update</text>
</g>
<!-- Node23 -->
<g id="node2" class="node">
<title>Node23</title>
<g id="a_node2"><a xlink:href="classLibBBB_1_1Bluetooth_1_1Manager.html#aba77bfc05cca940e709d9c0bb1106127" target="_top" xlink:title="isConnected getter ">
<polygon fill="#ffffff" stroke="#000000" points="175.059,-258.5 175.059,-290.5 291.641,-290.5 291.641,-258.5 175.059,-258.5"/>
<text text-anchor="start" x="183.059" y="-277.5" font-family="Helvetica,sans-Serif" font-size="10.00" fill="#000000">LibBBB::Bluetooth::</text>
<text text-anchor="middle" x="233.35" y="-265.5" font-family="Helvetica,sans-Serif" font-size="10.00" fill="#000000">Manager::isConnected</text>
</a>
</g>
</g>
<!-- Node22&#45;&gt;Node23 -->
<g id="edge1" class="edge">
<title>Node22&#45;&gt;Node23</title>
<path fill="none" stroke="#191970" d="M106.8976,-233.5971C122.1725,-238.7297 139.1801,-244.3991 154.788,-249.5 160.6807,-251.4258 166.8282,-253.4156 172.9758,-255.3926"/>
<polygon fill="#191970" stroke="#191970" points="172.0084,-258.7578 182.5995,-258.4777 174.1453,-252.092 172.0084,-258.7578"/>
</g>
<!-- Node25 -->
<g id="node4" class="node">
<title>Node25</title>
<g id="a_node4"><a xlink:href="classVehicleControl_1_1Control_1_1CommunicationProtocolParser.html#a518b7eda37805934071cbc4c3dbc4328" target="_top" xlink:title="parseIncomingPackets method gets and parses the incoming Bluetooth packets. This method calls the Blu...">
<polygon fill="#ffffff" stroke="#000000" points="154.788,-195.5 154.788,-239.5 311.912,-239.5 311.912,-195.5 154.788,-195.5"/>
<text text-anchor="start" x="162.788" y="-226.5" font-family="Helvetica,sans-Serif" font-size="10.00" fill="#000000">VehicleControl::Control</text>
<text text-anchor="start" x="162.788" y="-214.5" font-family="Helvetica,sans-Serif" font-size="10.00" fill="#000000">::CommunicationProtocolParser</text>
<text text-anchor="middle" x="233.35" y="-202.5" font-family="Helvetica,sans-Serif" font-size="10.00" fill="#000000">::parseIncomingPackets</text>
</a>
</g>
</g>
<!-- Node22&#45;&gt;Node25 -->
<g id="edge3" class="edge">
<title>Node22&#45;&gt;Node25</title>
<path fill="none" stroke="#191970" d="M119.2598,-217.5C127.4539,-217.5 136.0047,-217.5 144.5787,-217.5"/>
<polygon fill="#191970" stroke="#191970" points="144.6346,-221.0001 154.6345,-217.5 144.6345,-214.0001 144.6346,-221.0001"/>
</g>
<!-- Node27 -->
<g id="node6" class="node">
<title>Node27</title>
<g id="a_node6"><a xlink:href="classVehicleControl_1_1Control_1_1CommunicationProtocolParser.html#abdbab1c6376e364c7064e5c5b04f0168" target="_top" xlink:title="sendOutgoingPackets packs and send outgoing data. This method takes care of packing bools into a sing...">
<polygon fill="#ffffff" stroke="#000000" points="154.788,-96.5 154.788,-140.5 311.912,-140.5 311.912,-96.5 154.788,-96.5"/>
<text text-anchor="start" x="162.788" y="-127.5" font-family="Helvetica,sans-Serif" font-size="10.00" fill="#000000">VehicleControl::Control</text>
<text text-anchor="start" x="162.788" y="-115.5" font-family="Helvetica,sans-Serif" font-size="10.00" fill="#000000">::CommunicationProtocolParser</text>
<text text-anchor="middle" x="233.35" y="-103.5" font-family="Helvetica,sans-Serif" font-size="10.00" fill="#000000">::sendOutgoingPackets</text>
</a>
</g>
</g>
<!-- Node22&#45;&gt;Node27 -->
<g id="edge5" class="edge">
<title>Node22&#45;&gt;Node27</title>
<path fill="none" stroke="#191970" d="M87.7302,-201.3736C114.1929,-186.3134 154.2113,-163.5386 185.604,-145.6727"/>
<polygon fill="#191970" stroke="#191970" points="187.6671,-148.5257 194.6271,-140.5376 184.2048,-142.4419 187.6671,-148.5257"/>
</g>
<!-- Node24 -->
<g id="node3" class="node">
<title>Node24</title>
<g id="a_node3"><a xlink:href="classLibBBB_1_1ThreadHelper.html#a068eff4b68a89c09c63d8780621b431a" target="_top" xlink:title="startJoinableThread ">
<polygon fill="#ffffff" stroke="#000000" points="374.3005,-258.5 374.3005,-290.5 490.3205,-290.5 490.3205,-258.5 374.3005,-258.5"/>
<text text-anchor="start" x="382.3005" y="-277.5" font-family="Helvetica,sans-Serif" font-size="10.00" fill="#000000">LibBBB::ThreadHelper</text>
<text text-anchor="middle" x="432.3105" y="-265.5" font-family="Helvetica,sans-Serif" font-size="10.00" fill="#000000">::startJoinableThread</text>
</a>
</g>
</g>
<!-- Node23&#45;&gt;Node24 -->
<g id="edge2" class="edge">
<title>Node23&#45;&gt;Node24</title>
<path fill="none" stroke="#191970" d="M291.7004,-274.5C314.2738,-274.5 340.2765,-274.5 363.7339,-274.5"/>
<polygon fill="#191970" stroke="#191970" points="363.9612,-278.0001 373.9612,-274.5 363.9611,-271.0001 363.9612,-278.0001"/>
</g>
<!-- Node26 -->
<g id="node5" class="node">
<title>Node26</title>
<g id="a_node5"><a xlink:href="classLibBBB_1_1Bluetooth_1_1Manager.html#ae579e5664c1fa9a5cb4ed5e067f80e33" target="_top" xlink:title="receiveData method that receives the data ">
<polygon fill="#ffffff" stroke="#000000" points="375.1345,-204.5 375.1345,-236.5 489.4865,-236.5 489.4865,-204.5 375.1345,-204.5"/>
<text text-anchor="start" x="383.1345" y="-223.5" font-family="Helvetica,sans-Serif" font-size="10.00" fill="#000000">LibBBB::Bluetooth::</text>
<text text-anchor="middle" x="432.3105" y="-211.5" font-family="Helvetica,sans-Serif" font-size="10.00" fill="#000000">Manager::receiveData</text>
</a>
</g>
</g>
<!-- Node25&#45;&gt;Node26 -->
<g id="edge4" class="edge">
<title>Node25&#45;&gt;Node26</title>
<path fill="none" stroke="#191970" d="M311.9845,-218.6857C329.4348,-218.9488 347.7811,-219.2254 364.7429,-219.4812"/>
<polygon fill="#191970" stroke="#191970" points="365.0532,-222.9862 375.1048,-219.6374 365.1588,-215.987 365.0532,-222.9862"/>
</g>
<!-- Node28 -->
<g id="node7" class="node">
<title>Node28</title>
<g id="a_node7"><a xlink:href="classLibBBB_1_1Math_1_1LinearConverter_3_01float_01_4.html#a3d04d3d46e57718648da2a1073be15e8" target="_top" xlink:title="LibBBB::Math::LinearConverter\l\&lt; float \&gt;::convertXtoY">
<polygon fill="#ffffff" stroke="#000000" points="355.1295,-153.5 355.1295,-185.5 509.4915,-185.5 509.4915,-153.5 355.1295,-153.5"/>
<text text-anchor="start" x="363.1295" y="-172.5" font-family="Helvetica,sans-Serif" font-size="10.00" fill="#000000">LibBBB::Math::LinearConverter</text>
<text text-anchor="middle" x="432.3105" y="-160.5" font-family="Helvetica,sans-Serif" font-size="10.00" fill="#000000">&lt; float &gt;::convertXtoY</text>
</a>
</g>
</g>
<!-- Node27&#45;&gt;Node28 -->
<g id="edge6" class="edge">
<title>Node27&#45;&gt;Node28</title>
<path fill="none" stroke="#191970" d="M311.9845,-138.6566C327.7554,-142.6992 344.2582,-146.9294 359.8095,-150.9156"/>
<polygon fill="#191970" stroke="#191970" points="359.3183,-154.4028 369.8742,-153.4956 361.0565,-147.6221 359.3183,-154.4028"/>
</g>
<!-- Node29 -->
<g id="node8" class="node">
<title>Node29</title>
<g id="a_node8"><a xlink:href="classLibBBB_1_1AnalogToDigitalController.html#ac91d1341aaf8567024edfebac7db546e" target="_top" xlink:title="instance method is the Singleton method of creating and accessing this class. This ensures there can ...">
<polygon fill="#ffffff" stroke="#000000" points="347.912,-102.5 347.912,-134.5 516.709,-134.5 516.709,-102.5 347.912,-102.5"/>
<text text-anchor="start" x="355.912" y="-121.5" font-family="Helvetica,sans-Serif" font-size="10.00" fill="#000000">LibBBB::AnalogToDigitalController</text>
<text text-anchor="middle" x="432.3105" y="-109.5" font-family="Helvetica,sans-Serif" font-size="10.00" fill="#000000">::instance</text>
</a>
</g>
</g>
<!-- Node27&#45;&gt;Node29 -->
<g id="edge7" class="edge">
<title>Node27&#45;&gt;Node29</title>
<path fill="none" stroke="#191970" d="M311.9845,-118.5C320.416,-118.5 329.0567,-118.5 337.6494,-118.5"/>
<polygon fill="#191970" stroke="#191970" points="337.699,-122.0001 347.6989,-118.5 337.6989,-115.0001 337.699,-122.0001"/>
</g>
<!-- Node30 -->
<g id="node9" class="node">
<title>Node30</title>
<g id="a_node9"><a xlink:href="classLibBBB_1_1AnalogToDigitalController.html#a44f86e094ef5abaa24e6342ba51ba0c2" target="_top" xlink:title="batteryVoltage gets the LiPo battery&#39;s voltage ">
<polygon fill="#ffffff" stroke="#000000" points="347.912,-51.5 347.912,-83.5 516.709,-83.5 516.709,-51.5 347.912,-51.5"/>
<text text-anchor="start" x="355.912" y="-70.5" font-family="Helvetica,sans-Serif" font-size="10.00" fill="#000000">LibBBB::AnalogToDigitalController</text>
<text text-anchor="middle" x="432.3105" y="-58.5" font-family="Helvetica,sans-Serif" font-size="10.00" fill="#000000">::batteryVoltage</text>
</a>
</g>
</g>
<!-- Node27&#45;&gt;Node30 -->
<g id="edge8" class="edge">
<title>Node27&#45;&gt;Node30</title>
<path fill="none" stroke="#191970" d="M311.9845,-98.3434C327.7554,-94.3008 344.2582,-90.0706 359.8095,-86.0844"/>
<polygon fill="#191970" stroke="#191970" points="361.0565,-89.3779 369.8742,-83.5044 359.3183,-82.5972 361.0565,-89.3779"/>
</g>
<!-- Node33 -->
<g id="node12" class="node">
<title>Node33</title>
<g id="a_node12"><a xlink:href="classLibBBB_1_1Bluetooth_1_1Manager.html#a2f93bbcf746ab55eaf46ad12451e24fa" target="_top" xlink:title="sendData method that sends the data over the Bluetooth connection ">
<polygon fill="#ffffff" stroke="#000000" points="380.4085,-.5 380.4085,-32.5 484.2125,-32.5 484.2125,-.5 380.4085,-.5"/>
<text text-anchor="start" x="388.4085" y="-19.5" font-family="Helvetica,sans-Serif" font-size="10.00" fill="#000000">LibBBB::Bluetooth::</text>
<text text-anchor="middle" x="432.3105" y="-7.5" font-family="Helvetica,sans-Serif" font-size="10.00" fill="#000000">Manager::sendData</text>
</a>
</g>
</g>
<!-- Node27&#45;&gt;Node33 -->
<g id="edge11" class="edge">
<title>Node27&#45;&gt;Node33</title>
<path fill="none" stroke="#191970" d="M261.6454,-96.3803C284.0346,-79.7273 316.6338,-57.3126 347.912,-42.5 355.0244,-39.1317 362.6776,-36.0689 370.3688,-33.3245"/>
<polygon fill="#191970" stroke="#191970" points="371.7515,-36.5513 380.0934,-30.0195 369.499,-29.9236 371.7515,-36.5513"/>
</g>
<!-- Node31 -->
<g id="node10" class="node">
<title>Node31</title>
<g id="a_node10"><a xlink:href="classLibBBB_1_1AnalogToDigitalController.html#ae9099e54e15ebdf0213db4b7b87e3db4" target="_top" xlink:title="adcVoltage gets the ADC channel&#39;s unscaled value ">
<polygon fill="#ffffff" stroke="#000000" points="552.709,-51.5 552.709,-83.5 721.506,-83.5 721.506,-51.5 552.709,-51.5"/>
<text text-anchor="start" x="560.709" y="-70.5" font-family="Helvetica,sans-Serif" font-size="10.00" fill="#000000">LibBBB::AnalogToDigitalController</text>
<text text-anchor="middle" x="637.1075" y="-58.5" font-family="Helvetica,sans-Serif" font-size="10.00" fill="#000000">::adcVoltage</text>
</a>
</g>
</g>
<!-- Node30&#45;&gt;Node31 -->
<g id="edge9" class="edge">
<title>Node30&#45;&gt;Node31</title>
<path fill="none" stroke="#191970" d="M516.7917,-67.5C525.2654,-67.5 533.9081,-67.5 542.4779,-67.5"/>
<polygon fill="#191970" stroke="#191970" points="542.49,-71.0001 552.4899,-67.5 542.4899,-64.0001 542.49,-71.0001"/>
</g>
<!-- Node32 -->
<g id="node11" class="node">
<title>Node32</title>
<g id="a_node11"><a xlink:href="classLibBBB_1_1AnalogToDigitalController.html#a70fd232420c8ad366bd456e9db580369" target="_top" xlink:title="rawADCValue gets the raw (unscaled) ADC value ">
<polygon fill="#ffffff" stroke="#000000" points="757.506,-51.5 757.506,-83.5 926.303,-83.5 926.303,-51.5 757.506,-51.5"/>
<text text-anchor="start" x="765.506" y="-70.5" font-family="Helvetica,sans-Serif" font-size="10.00" fill="#000000">LibBBB::AnalogToDigitalController</text>
<text text-anchor="middle" x="841.9045" y="-58.5" font-family="Helvetica,sans-Serif" font-size="10.00" fill="#000000">::rawADCValue</text>
</a>
</g>
</g>
<!-- Node31&#45;&gt;Node32 -->
<g id="edge10" class="edge">
<title>Node31&#45;&gt;Node32</title>
<path fill="none" stroke="#191970" d="M721.5887,-67.5C730.0624,-67.5 738.7051,-67.5 747.2749,-67.5"/>
<polygon fill="#191970" stroke="#191970" points="747.287,-71.0001 757.2869,-67.5 747.2869,-64.0001 747.287,-71.0001"/>
</g>
</g>
</svg>
