<?xml version="1.0" encoding="UTF-8" standalone="no"?>
<!DOCTYPE svg PUBLIC "-//W3C//DTD SVG 1.1//EN"
 "http://www.w3.org/Graphics/SVG/1.1/DTD/svg11.dtd">
<!-- Generated by graphviz version 2.40.1 (20161225.0304)
 -->
<!-- Title: VehicleControl::IO::Input::setEdgeCallback Pages: 1 -->
<svg width="627pt" height="137pt"
 viewBox="0.00 0.00 626.75 137.00" xmlns="http://www.w3.org/2000/svg" xmlns:xlink="http://www.w3.org/1999/xlink">
<g id="graph0" class="graph" transform="scale(1 1) rotate(0) translate(4 133)">
<title>VehicleControl::IO::Input::setEdgeCallback</title>
<polygon fill="#ffffff" stroke="transparent" points="-4,4 -4,-133 622.752,-133 622.752,4 -4,4"/>
<!-- Node28 -->
<g id="node1" class="node">
<title>Node28</title>
<polygon fill="#bfbfbf" stroke="#000000" points="0,-51.5 0,-83.5 124.369,-83.5 124.369,-51.5 0,-51.5"/>
<text text-anchor="start" x="8" y="-70.5" font-family="Helvetica,sans-Serif" font-size="10.00" fill="#000000">VehicleControl::IO</text>
<text text-anchor="middle" x="62.1845" y="-58.5" font-family="Helvetica,sans-Serif" font-size="10.00" fill="#000000">::Input::setEdgeCallback</text>
</g>
<!-- Node29 -->
<g id="node2" class="node">
<title>Node29</title>
<g id="a_node2"><a xlink:href="namespaceVehicleControl.html#af89cecf99aa4e7787af7433d8f3b6970" target="_top" xlink:title="VehicleControl::callback">
<polygon fill="#ffffff" stroke="#000000" points="160.369,-57.5 160.369,-77.5 283.049,-77.5 283.049,-57.5 160.369,-57.5"/>
<text text-anchor="middle" x="221.709" y="-64.5" font-family="Helvetica,sans-Serif" font-size="10.00" fill="#000000">VehicleControl::callback</text>
</a>
</g>
</g>
<!-- Node28&#45;&gt;Node29 -->
<g id="edge1" class="edge">
<title>Node28&#45;&gt;Node29</title>
<path fill="none" stroke="#191970" d="M124.775,-67.5C133.0905,-67.5 141.6675,-67.5 150.1208,-67.5"/>
<polygon fill="#191970" stroke="#191970" points="150.3446,-71.0001 160.3446,-67.5 150.3446,-64.0001 150.3446,-71.0001"/>
</g>
<!-- Node30 -->
<g id="node3" class="node">
<title>Node30</title>
<g id="a_node3"><a xlink:href="classVehicleControl_1_1Control.html#aa050ea7668adf370680b812948b07a9e" target="_top" xlink:title="instance method is the Singleton method of creating and accessing this class. This ensures there can ...">
<polygon fill="#ffffff" stroke="#000000" points="319.049,-96.5 319.049,-128.5 437.837,-128.5 437.837,-96.5 319.049,-96.5"/>
<text text-anchor="start" x="327.049" y="-115.5" font-family="Helvetica,sans-Serif" font-size="10.00" fill="#000000">VehicleControl::Control</text>
<text text-anchor="middle" x="378.443" y="-103.5" font-family="Helvetica,sans-Serif" font-size="10.00" fill="#000000">::instance</text>
</a>
</g>
</g>
<!-- Node29&#45;&gt;Node30 -->
<g id="edge2" class="edge">
<title>Node29&#45;&gt;Node30</title>
<path fill="none" stroke="#191970" d="M256.8832,-77.5989C273.4061,-82.3428 293.6545,-88.1563 312.8517,-93.668"/>
<polygon fill="#191970" stroke="#191970" points="311.8911,-97.0336 322.4687,-96.4292 313.8229,-90.3054 311.8911,-97.0336"/>
</g>
<!-- Node31 -->
<g id="node4" class="node">
<title>Node31</title>
<g id="a_node4"><a xlink:href="classVehicleControl_1_1IO_1_1UserLED.html#a24318aac0770b5c67d10d8412fc5fda3" target="_top" xlink:title="state getter ">
<polygon fill="#ffffff" stroke="#000000" points="497.733,-51.5 497.733,-83.5 594.856,-83.5 594.856,-51.5 497.733,-51.5"/>
<text text-anchor="start" x="505.733" y="-70.5" font-family="Helvetica,sans-Serif" font-size="10.00" fill="#000000">VehicleControl::IO</text>
<text text-anchor="middle" x="546.2945" y="-58.5" font-family="Helvetica,sans-Serif" font-size="10.00" fill="#000000">::UserLED::state</text>
</a>
</g>
</g>
<!-- Node29&#45;&gt;Node31 -->
<g id="edge3" class="edge">
<title>Node29&#45;&gt;Node31</title>
<path fill="none" stroke="#191970" d="M283.1426,-67.5C341.8319,-67.5 429.6757,-67.5 487.4783,-67.5"/>
<polygon fill="#191970" stroke="#191970" points="487.5523,-71.0001 497.5523,-67.5 487.5522,-64.0001 487.5523,-71.0001"/>
</g>
<!-- Node32 -->
<g id="node5" class="node">
<title>Node32</title>
<g id="a_node5"><a xlink:href="classVehicleControl_1_1IO_1_1UserLED.html#a681c7658d0828edefed7028390adced0" target="_top" xlink:title="setState method sets the state of the LED ">
<polygon fill="#ffffff" stroke="#000000" points="326.2665,-6.5 326.2665,-38.5 430.6195,-38.5 430.6195,-6.5 326.2665,-6.5"/>
<text text-anchor="start" x="334.2665" y="-25.5" font-family="Helvetica,sans-Serif" font-size="10.00" fill="#000000">VehicleControl::IO</text>
<text text-anchor="middle" x="378.443" y="-13.5" font-family="Helvetica,sans-Serif" font-size="10.00" fill="#000000">::UserLED::setState</text>
</a>
</g>
</g>
<!-- Node29&#45;&gt;Node32 -->
<g id="edge4" class="edge">
<title>Node29&#45;&gt;Node32</title>
<path fill="none" stroke="#191970" d="M256.8832,-57.4011C274.4123,-52.3683 296.1344,-46.1317 316.346,-40.3287"/>
<polygon fill="#191970" stroke="#191970" points="317.476,-43.6458 326.1218,-37.522 315.5442,-36.9176 317.476,-43.6458"/>
</g>
<!-- Node32&#45;&gt;Node31 -->
<g id="edge5" class="edge">
<title>Node32&#45;&gt;Node31</title>
<path fill="none" stroke="#191970" d="M430.6322,-36.4916C448.742,-41.3467 469.1639,-46.8217 487.7519,-51.8051"/>
<polygon fill="#191970" stroke="#191970" points="487.007,-55.2289 497.5723,-54.4379 488.8197,-48.4677 487.007,-55.2289"/>
</g>
<!-- Node33 -->
<g id="node6" class="node">
<title>Node33</title>
<g id="a_node6"><a xlink:href="classThreadHelper.html#a4426e115e7858a4b6f6eedbc77302756" target="_top" xlink:title="startDetachedThread ">
<polygon fill="#ffffff" stroke="#000000" points="473.837,-.5 473.837,-32.5 618.752,-32.5 618.752,-.5 473.837,-.5"/>
<text text-anchor="start" x="481.837" y="-19.5" font-family="Helvetica,sans-Serif" font-size="10.00" fill="#000000">ThreadHelper::startDetached</text>
<text text-anchor="middle" x="546.2945" y="-7.5" font-family="Helvetica,sans-Serif" font-size="10.00" fill="#000000">Thread</text>
</a>
</g>
</g>
<!-- Node32&#45;&gt;Node33 -->
<g id="edge6" class="edge">
<title>Node32&#45;&gt;Node33</title>
<path fill="none" stroke="#191970" d="M430.6322,-20.6345C441.0949,-20.2605 452.3294,-19.8589 463.5361,-19.4583"/>
<polygon fill="#191970" stroke="#191970" points="463.9287,-22.9466 473.7972,-19.0915 463.6785,-15.951 463.9287,-22.9466"/>
</g>
</g>
</svg>
