<?xml version="1.0" encoding="UTF-8" standalone="no"?>
<!DOCTYPE svg PUBLIC "-//W3C//DTD SVG 1.1//EN"
 "http://www.w3.org/Graphics/SVG/1.1/DTD/svg11.dtd">
<!-- Generated by graphviz version 2.40.1 (20161225.0304)
 -->
<!-- Title: LibBBB::AnalogToDigitalController::adcVoltage Pages: 1 -->
<svg width="803pt" height="53pt"
 viewBox="0.00 0.00 803.17 53.00" xmlns="http://www.w3.org/2000/svg" xmlns:xlink="http://www.w3.org/1999/xlink">
<g id="graph0" class="graph" transform="scale(1 1) rotate(0) translate(4 49)">
<title>LibBBB::AnalogToDigitalController::adcVoltage</title>
<polygon fill="#ffffff" stroke="transparent" points="-4,4 -4,-49 799.172,-49 799.172,4 -4,4"/>
<!-- Node4 -->
<g id="node1" class="node">
<title>Node4</title>
<polygon fill="#bfbfbf" stroke="#000000" points="0,-6.5 0,-38.5 168.797,-38.5 168.797,-6.5 0,-6.5"/>
<text text-anchor="start" x="8" y="-25.5" font-family="Helvetica,sans-Serif" font-size="10.00" fill="#000000">LibBBB::AnalogToDigitalController</text>
<text text-anchor="middle" x="84.3985" y="-13.5" font-family="Helvetica,sans-Serif" font-size="10.00" fill="#000000">::adcVoltage</text>
</g>
<!-- Node5 -->
<g id="node2" class="node">
<title>Node5</title>
<g id="a_node2"><a xlink:href="classLibBBB_1_1AnalogToDigitalController.html#a44f86e094ef5abaa24e6342ba51ba0c2" target="_top" xlink:title="batteryVoltage gets the LiPo battery&#39;s voltage ">
<polygon fill="#ffffff" stroke="#000000" points="204.797,-6.5 204.797,-38.5 373.594,-38.5 373.594,-6.5 204.797,-6.5"/>
<text text-anchor="start" x="212.797" y="-25.5" font-family="Helvetica,sans-Serif" font-size="10.00" fill="#000000">LibBBB::AnalogToDigitalController</text>
<text text-anchor="middle" x="289.1955" y="-13.5" font-family="Helvetica,sans-Serif" font-size="10.00" fill="#000000">::batteryVoltage</text>
</a>
</g>
</g>
<!-- Node4&#45;&gt;Node5 -->
<g id="edge1" class="edge">
<title>Node4&#45;&gt;Node5</title>
<path fill="none" stroke="#191970" d="M178.8902,-22.5C187.4592,-22.5 196.1024,-22.5 204.5779,-22.5"/>
<polygon fill="#191970" stroke="#191970" points="178.8797,-19.0001 168.8797,-22.5 178.8796,-26.0001 178.8797,-19.0001"/>
</g>
<!-- Node6 -->
<g id="node3" class="node">
<title>Node6</title>
<g id="a_node3"><a xlink:href="classVehicleControl_1_1Control_1_1CommunicationProtocolParser.html#abdbab1c6376e364c7064e5c5b04f0168" target="_top" xlink:title="sendOutgoingPackets packs and send outgoing data. This method takes care of packing bools into a sing...">
<polygon fill="#ffffff" stroke="#000000" points="409.594,-.5 409.594,-44.5 566.718,-44.5 566.718,-.5 409.594,-.5"/>
<text text-anchor="start" x="417.594" y="-31.5" font-family="Helvetica,sans-Serif" font-size="10.00" fill="#000000">VehicleControl::Control</text>
<text text-anchor="start" x="417.594" y="-19.5" font-family="Helvetica,sans-Serif" font-size="10.00" fill="#000000">::CommunicationProtocolParser</text>
<text text-anchor="middle" x="488.156" y="-7.5" font-family="Helvetica,sans-Serif" font-size="10.00" fill="#000000">::sendOutgoingPackets</text>
</a>
</g>
</g>
<!-- Node5&#45;&gt;Node6 -->
<g id="edge2" class="edge">
<title>Node5&#45;&gt;Node6</title>
<path fill="none" stroke="#191970" d="M383.9086,-22.5C392.4993,-22.5 401.1375,-22.5 409.5662,-22.5"/>
<polygon fill="#191970" stroke="#191970" points="383.8612,-19.0001 373.8612,-22.5 383.8611,-26.0001 383.8612,-19.0001"/>
</g>
<!-- Node7 -->
<g id="node4" class="node">
<title>Node7</title>
<g id="a_node4"><a xlink:href="classVehicleControl_1_1Control.html#af677fb9565407041290bbf7b681802e5" target="_top" xlink:title="update method that controls the vehicle ">
<polygon fill="#ffffff" stroke="#000000" points="602.718,-6.5 602.718,-38.5 721.506,-38.5 721.506,-6.5 602.718,-6.5"/>
<text text-anchor="start" x="610.718" y="-25.5" font-family="Helvetica,sans-Serif" font-size="10.00" fill="#000000">VehicleControl::Control</text>
<text text-anchor="middle" x="662.112" y="-13.5" font-family="Helvetica,sans-Serif" font-size="10.00" fill="#000000">::update</text>
</a>
</g>
</g>
<!-- Node6&#45;&gt;Node7 -->
<g id="edge3" class="edge">
<title>Node6&#45;&gt;Node7</title>
<path fill="none" stroke="#191970" d="M576.9473,-22.5C585.6536,-22.5 594.3357,-22.5 602.6444,-22.5"/>
<polygon fill="#191970" stroke="#191970" points="576.7367,-19.0001 566.7366,-22.5 576.7366,-26.0001 576.7367,-19.0001"/>
</g>
<!-- Node8 -->
<g id="node5" class="node">
<title>Node8</title>
<g id="a_node5"><a xlink:href="main_8cpp.html#ae66f6b31b5ad750f1fe042a706a4e3d4" target="_top" xlink:title="main">
<polygon fill="#ffffff" stroke="#000000" points="757.506,-12.5 757.506,-32.5 795.172,-32.5 795.172,-12.5 757.506,-12.5"/>
<text text-anchor="middle" x="776.339" y="-19.5" font-family="Helvetica,sans-Serif" font-size="10.00" fill="#000000">main</text>
</a>
</g>
</g>
<!-- Node7&#45;&gt;Node8 -->
<g id="edge4" class="edge">
<title>Node7&#45;&gt;Node8</title>
<path fill="none" stroke="#191970" d="M731.8499,-22.5C741.2007,-22.5 750.0763,-22.5 757.4046,-22.5"/>
<polygon fill="#191970" stroke="#191970" points="731.5675,-19.0001 721.5675,-22.5 731.5674,-26.0001 731.5675,-19.0001"/>
</g>
</g>
</svg>
