<?xml version="1.0" encoding="UTF-8" standalone="no"?>
<!DOCTYPE svg PUBLIC "-//W3C//DTD SVG 1.1//EN"
 "http://www.w3.org/Graphics/SVG/1.1/DTD/svg11.dtd">
<!-- Generated by graphviz version 2.40.1 (20161225.0304)
 -->
<!-- Title: VehicleControl::IO::IOBase::getNumber Pages: 1 -->
<svg width="276pt" height="41pt"
 viewBox="0.00 0.00 276.04 41.00" xmlns="http://www.w3.org/2000/svg" xmlns:xlink="http://www.w3.org/1999/xlink">
<g id="graph0" class="graph" transform="scale(1 1) rotate(0) translate(4 37)">
<title>VehicleControl::IO::IOBase::getNumber</title>
<polygon fill="#ffffff" stroke="transparent" points="-4,4 -4,-37 272.04,-37 272.04,4 -4,4"/>
<!-- Node8 -->
<g id="node1" class="node">
<title>Node8</title>
<polygon fill="#bfbfbf" stroke="#000000" points="0,-.5 0,-32.5 109.912,-32.5 109.912,-.5 0,-.5"/>
<text text-anchor="start" x="8" y="-19.5" font-family="Helvetica,sans-Serif" font-size="10.00" fill="#000000">VehicleControl::IO</text>
<text text-anchor="middle" x="54.956" y="-7.5" font-family="Helvetica,sans-Serif" font-size="10.00" fill="#000000">::IOBase::getNumber</text>
</g>
<!-- Node9 -->
<g id="node2" class="node">
<title>Node9</title>
<g id="a_node2"><a xlink:href="classVehicleControl_1_1IO_1_1IOBase.html#af79bfef98b441af2239bd895e723fb64" target="_top" xlink:title="writeWithPath methods writes the value into the given path and filename ">
<polygon fill="#ffffff" stroke="#000000" points="145.912,-.5 145.912,-32.5 268.04,-32.5 268.04,-.5 145.912,-.5"/>
<text text-anchor="start" x="153.912" y="-19.5" font-family="Helvetica,sans-Serif" font-size="10.00" fill="#000000">VehicleControl::IO</text>
<text text-anchor="middle" x="206.976" y="-7.5" font-family="Helvetica,sans-Serif" font-size="10.00" fill="#000000">::IOBase::writeWithPath</text>
</a>
</g>
</g>
<!-- Node8&#45;&gt;Node9 -->
<g id="edge1" class="edge">
<title>Node8&#45;&gt;Node9</title>
<path fill="none" stroke="#191970" d="M110.2687,-16.5C118.477,-16.5 127.0339,-16.5 135.515,-16.5"/>
<polygon fill="#191970" stroke="#191970" points="135.794,-20.0001 145.7939,-16.5 135.7939,-13.0001 135.794,-20.0001"/>
</g>
</g>
</svg>
