<?xml version="1.0" encoding="UTF-8" standalone="no"?>
<!DOCTYPE svg PUBLIC "-//W3C//DTD SVG 1.1//EN"
 "http://www.w3.org/Graphics/SVG/1.1/DTD/svg11.dtd">
<!-- Generated by graphviz version 2.40.1 (20161225.0304)
 -->
<!-- Title: VehicleControl::Control::outputs Pages: 1 -->
<svg width="282pt" height="41pt"
 viewBox="0.00 0.00 281.58 41.00" xmlns="http://www.w3.org/2000/svg" xmlns:xlink="http://www.w3.org/1999/xlink">
<g id="graph0" class="graph" transform="scale(1 1) rotate(0) translate(4 37)">
<title>VehicleControl::Control::outputs</title>
<polygon fill="#ffffff" stroke="transparent" points="-4,4 -4,-37 277.576,-37 277.576,4 -4,4"/>
<!-- Node16 -->
<g id="node1" class="node">
<title>Node16</title>
<polygon fill="#bfbfbf" stroke="#000000" points="0,-.5 0,-32.5 118.788,-32.5 118.788,-.5 0,-.5"/>
<text text-anchor="start" x="8" y="-19.5" font-family="Helvetica,sans-Serif" font-size="10.00" fill="#000000">VehicleControl::Control</text>
<text text-anchor="middle" x="59.394" y="-7.5" font-family="Helvetica,sans-Serif" font-size="10.00" fill="#000000">::outputs</text>
</g>
<!-- Node17 -->
<g id="node2" class="node">
<title>Node17</title>
<g id="a_node2"><a xlink:href="classVehicleControl_1_1Control.html#aa050ea7668adf370680b812948b07a9e" target="_top" xlink:title="instance method is the Singleton method of creating and accessing this class. This ensures there can ...">
<polygon fill="#ffffff" stroke="#000000" points="154.788,-.5 154.788,-32.5 273.576,-32.5 273.576,-.5 154.788,-.5"/>
<text text-anchor="start" x="162.788" y="-19.5" font-family="Helvetica,sans-Serif" font-size="10.00" fill="#000000">VehicleControl::Control</text>
<text text-anchor="middle" x="214.182" y="-7.5" font-family="Helvetica,sans-Serif" font-size="10.00" fill="#000000">::instance</text>
</a>
</g>
</g>
<!-- Node16&#45;&gt;Node17 -->
<g id="edge1" class="edge">
<title>Node16&#45;&gt;Node17</title>
<path fill="none" stroke="#191970" d="M118.7964,-16.5C127.2527,-16.5 136.0124,-16.5 144.6406,-16.5"/>
<polygon fill="#191970" stroke="#191970" points="144.6828,-20.0001 154.6828,-16.5 144.6828,-13.0001 144.6828,-20.0001"/>
</g>
</g>
</svg>
