<?xml version="1.0" encoding="UTF-8" standalone="no"?>
<!DOCTYPE svg PUBLIC "-//W3C//DTD SVG 1.1//EN"
 "http://www.w3.org/Graphics/SVG/1.1/DTD/svg11.dtd">
<!-- Generated by graphviz version 2.40.1 (20161225.0304)
 -->
<!-- Title: VehicleControl::IO::Input::setDebounceTime Pages: 1 -->
<svg width="282pt" height="41pt"
 viewBox="0.00 0.00 281.64 41.00" xmlns="http://www.w3.org/2000/svg" xmlns:xlink="http://www.w3.org/1999/xlink">
<g id="graph0" class="graph" transform="scale(1 1) rotate(0) translate(4 37)">
<title>VehicleControl::IO::Input::setDebounceTime</title>
<polygon fill="#ffffff" stroke="transparent" points="-4,4 -4,-37 277.637,-37 277.637,4 -4,4"/>
<!-- Node26 -->
<g id="node1" class="node">
<title>Node26</title>
<polygon fill="#bfbfbf" stroke="#000000" points="0,-.5 0,-32.5 130.478,-32.5 130.478,-.5 0,-.5"/>
<text text-anchor="start" x="8" y="-19.5" font-family="Helvetica,sans-Serif" font-size="10.00" fill="#000000">VehicleControl::IO</text>
<text text-anchor="middle" x="65.239" y="-7.5" font-family="Helvetica,sans-Serif" font-size="10.00" fill="#000000">::Input::setDebounceTime</text>
</g>
<!-- Node27 -->
<g id="node2" class="node">
<title>Node27</title>
<g id="a_node2"><a xlink:href="structVehicleControl_1_1IO_1_1Input_1_1Setup.html#a09ce07a96559b6f63eaa51d8eccbc877" target="_top" xlink:title="VehicleControl::IO\l::Input::Setup::Setup">
<polygon fill="#ffffff" stroke="#000000" points="166.478,-.5 166.478,-32.5 273.637,-32.5 273.637,-.5 166.478,-.5"/>
<text text-anchor="start" x="174.478" y="-19.5" font-family="Helvetica,sans-Serif" font-size="10.00" fill="#000000">VehicleControl::IO</text>
<text text-anchor="middle" x="220.0575" y="-7.5" font-family="Helvetica,sans-Serif" font-size="10.00" fill="#000000">::Input::Setup::Setup</text>
</a>
</g>
</g>
<!-- Node26&#45;&gt;Node27 -->
<g id="edge1" class="edge">
<title>Node26&#45;&gt;Node27</title>
<path fill="none" stroke="#191970" d="M141.1098,-16.5C149.5149,-16.5 157.9443,-16.5 166.0012,-16.5"/>
<polygon fill="#191970" stroke="#191970" points="140.896,-13.0001 130.896,-16.5 140.8959,-20.0001 140.896,-13.0001"/>
</g>
</g>
</svg>
