<?xml version="1.0" encoding="UTF-8" standalone="no"?>
<!DOCTYPE svg PUBLIC "-//W3C//DTD SVG 1.1//EN"
 "http://www.w3.org/Graphics/SVG/1.1/DTD/svg11.dtd">
<!-- Generated by graphviz version 2.40.1 (20161225.0304)
 -->
<!-- Title: Core::IO::UserLED::setState Pages: 1 -->
<svg width="605pt" height="182pt"
 viewBox="0.00 0.00 605.04 182.00" xmlns="http://www.w3.org/2000/svg" xmlns:xlink="http://www.w3.org/1999/xlink">
<g id="graph0" class="graph" transform="scale(1 1) rotate(0) translate(4 178)">
<title>Core::IO::UserLED::setState</title>
<polygon fill="#ffffff" stroke="transparent" points="-4,4 -4,-178 601.045,-178 601.045,4 -4,4"/>
<!-- Node16 -->
<g id="node1" class="node">
<title>Node16</title>
<polygon fill="#bfbfbf" stroke="#000000" points="0,-45.5 0,-77.5 105.452,-77.5 105.452,-45.5 0,-45.5"/>
<text text-anchor="start" x="8" y="-64.5" font-family="Helvetica,sans-Serif" font-size="10.00" fill="#000000">Core::IO::UserLED::</text>
<text text-anchor="middle" x="52.726" y="-52.5" font-family="Helvetica,sans-Serif" font-size="10.00" fill="#000000">setState</text>
</g>
<!-- Node17 -->
<g id="node2" class="node">
<title>Node17</title>
<g id="a_node2"><a xlink:href="namespaceVehicleControl.html#af89cecf99aa4e7787af7433d8f3b6970" target="_top" xlink:title="VehicleControl::callback">
<polygon fill="#ffffff" stroke="#000000" points="141.452,-99.5 141.452,-119.5 264.132,-119.5 264.132,-99.5 141.452,-99.5"/>
<text text-anchor="middle" x="202.792" y="-106.5" font-family="Helvetica,sans-Serif" font-size="10.00" fill="#000000">VehicleControl::callback</text>
</a>
</g>
</g>
<!-- Node16&#45;&gt;Node17 -->
<g id="edge1" class="edge">
<title>Node16&#45;&gt;Node17</title>
<path fill="none" stroke="#191970" d="M112.7674,-80.7048C132.7281,-87.0894 154.1643,-93.946 171.1101,-99.3663"/>
<polygon fill="#191970" stroke="#191970" points="113.7042,-77.3298 103.1133,-77.6168 111.5716,-83.9971 113.7042,-77.3298"/>
</g>
<!-- Node22 -->
<g id="node7" class="node">
<title>Node22</title>
<g id="a_node7"><a xlink:href="classCore_1_1IO_1_1UserLED.html#a4e161b02396d015ce4fd5434853e44bc" target="_top" xlink:title="changeBlinkTime method changes the time of the blink ">
<polygon fill="#ffffff" stroke="#000000" points="150.066,-45.5 150.066,-77.5 255.518,-77.5 255.518,-45.5 150.066,-45.5"/>
<text text-anchor="start" x="158.066" y="-64.5" font-family="Helvetica,sans-Serif" font-size="10.00" fill="#000000">Core::IO::UserLED::</text>
<text text-anchor="middle" x="202.792" y="-52.5" font-family="Helvetica,sans-Serif" font-size="10.00" fill="#000000">changeBlinkTime</text>
</a>
</g>
</g>
<!-- Node16&#45;&gt;Node22 -->
<g id="edge7" class="edge">
<title>Node16&#45;&gt;Node22</title>
<path fill="none" stroke="#191970" d="M115.885,-61.5C127.1939,-61.5 138.8719,-61.5 149.8563,-61.5"/>
<polygon fill="#191970" stroke="#191970" points="115.6337,-58.0001 105.6337,-61.5 115.6336,-65.0001 115.6337,-58.0001"/>
</g>
<!-- Node23 -->
<g id="node8" class="node">
<title>Node23</title>
<g id="a_node8"><a xlink:href="structCore_1_1IO_1_1UserLED_1_1Setup.html#a72bdd70912a6322aba2da15c28a84fbe" target="_top" xlink:title="Core::IO::UserLED::\lSetup::Setup">
<polygon fill="#ffffff" stroke="#000000" points="318.4685,-.5 318.4685,-32.5 423.9205,-32.5 423.9205,-.5 318.4685,-.5"/>
<text text-anchor="start" x="326.4685" y="-19.5" font-family="Helvetica,sans-Serif" font-size="10.00" fill="#000000">Core::IO::UserLED::</text>
<text text-anchor="middle" x="371.1945" y="-7.5" font-family="Helvetica,sans-Serif" font-size="10.00" fill="#000000">Setup::Setup</text>
</a>
</g>
</g>
<!-- Node16&#45;&gt;Node23 -->
<g id="edge9" class="edge">
<title>Node16&#45;&gt;Node23</title>
<path fill="none" stroke="#191970" d="M111.0238,-42.6C121.0876,-39.8612 131.5098,-37.3481 141.452,-35.5 201.4577,-24.346 271.4992,-19.7385 318.326,-17.8362"/>
<polygon fill="#191970" stroke="#191970" points="109.7838,-39.3132 101.1104,-45.3979 111.6852,-46.05 109.7838,-39.3132"/>
</g>
<!-- Node18 -->
<g id="node3" class="node">
<title>Node18</title>
<g id="a_node3"><a xlink:href="classCore_1_1IO_1_1Input.html#af505f10ed01aa26257a8709ba7211ba6" target="_top" xlink:title="setEdgeCallback setter ">
<polygon fill="#ffffff" stroke="#000000" points="309.286,-141.5 309.286,-173.5 433.103,-173.5 433.103,-141.5 309.286,-141.5"/>
<text text-anchor="start" x="317.286" y="-160.5" font-family="Helvetica,sans-Serif" font-size="10.00" fill="#000000">Core::IO::Input::setEdge</text>
<text text-anchor="middle" x="371.1945" y="-148.5" font-family="Helvetica,sans-Serif" font-size="10.00" fill="#000000">Callback</text>
</a>
</g>
</g>
<!-- Node17&#45;&gt;Node18 -->
<g id="edge2" class="edge">
<title>Node17&#45;&gt;Node18</title>
<path fill="none" stroke="#191970" d="M247.8783,-122.351C268.5297,-128.2373 293.2172,-135.274 315.0595,-141.4998"/>
<polygon fill="#191970" stroke="#191970" points="248.6711,-118.9376 238.0947,-119.5624 246.7522,-125.6695 248.6711,-118.9376"/>
</g>
<!-- Node19 -->
<g id="node4" class="node">
<title>Node19</title>
<g id="a_node4"><a xlink:href="structCore_1_1IO_1_1Input_1_1Setup.html#a493b98ee230283215bd55b7ba739f60a" target="_top" xlink:title="Core::IO::Input::Setup\l::Setup">
<polygon fill="#ffffff" stroke="#000000" points="481.022,-121.5 481.022,-153.5 594.28,-153.5 594.28,-121.5 481.022,-121.5"/>
<text text-anchor="start" x="489.022" y="-140.5" font-family="Helvetica,sans-Serif" font-size="10.00" fill="#000000">Core::IO::Input::Setup</text>
<text text-anchor="middle" x="537.651" y="-128.5" font-family="Helvetica,sans-Serif" font-size="10.00" fill="#000000">::Setup</text>
</a>
</g>
</g>
<!-- Node17&#45;&gt;Node19 -->
<g id="edge4" class="edge">
<title>Node17&#45;&gt;Node19</title>
<path fill="none" stroke="#191970" d="M274.2564,-115.4757C335.9281,-120.6325 423.8258,-127.9822 480.8082,-132.747"/>
<polygon fill="#191970" stroke="#191970" points="274.4672,-111.9812 264.2103,-114.6356 273.8839,-118.9568 274.4672,-111.9812"/>
</g>
<!-- Node20 -->
<g id="node5" class="node">
<title>Node20</title>
<g id="a_node5"><a xlink:href="namespaceVehicleControl.html#ab876bdb990021d96b1452a85b59f99d8" target="_top" xlink:title="VehicleControl::createRising\lEdgeThreadedInput">
<polygon fill="#ffffff" stroke="#000000" points="300.132,-51.5 300.132,-83.5 442.257,-83.5 442.257,-51.5 300.132,-51.5"/>
<text text-anchor="start" x="308.132" y="-70.5" font-family="Helvetica,sans-Serif" font-size="10.00" fill="#000000">VehicleControl::createRising</text>
<text text-anchor="middle" x="371.1945" y="-58.5" font-family="Helvetica,sans-Serif" font-size="10.00" fill="#000000">EdgeThreadedInput</text>
</a>
</g>
</g>
<!-- Node17&#45;&gt;Node20 -->
<g id="edge5" class="edge">
<title>Node17&#45;&gt;Node20</title>
<path fill="none" stroke="#191970" d="M253.3013,-96.9029C270.1346,-92.7046 289.1193,-87.9698 306.8568,-83.546"/>
<polygon fill="#191970" stroke="#191970" points="251.9844,-93.624 243.1286,-99.44 253.6784,-100.416 251.9844,-93.624"/>
</g>
<!-- Node18&#45;&gt;Node19 -->
<g id="edge3" class="edge">
<title>Node18&#45;&gt;Node19</title>
<path fill="none" stroke="#191970" d="M443.1823,-148.8506C455.7802,-147.3369 468.728,-145.7812 480.8426,-144.3256"/>
<polygon fill="#191970" stroke="#191970" points="442.6878,-145.3847 433.1768,-150.0527 443.5229,-152.3347 442.6878,-145.3847"/>
</g>
<!-- Node21 -->
<g id="node6" class="node">
<title>Node21</title>
<g id="a_node6"><a xlink:href="classVehicleControl_1_1Control_1_1IOFactory.html#a4d4de0203bf577352199f49c67f49d98" target="_top" xlink:title="fillInputList method fills in all of the app&#39;s inputs ">
<polygon fill="#ffffff" stroke="#000000" points="478.257,-51.5 478.257,-83.5 597.045,-83.5 597.045,-51.5 478.257,-51.5"/>
<text text-anchor="start" x="486.257" y="-70.5" font-family="Helvetica,sans-Serif" font-size="10.00" fill="#000000">VehicleControl::Control</text>
<text text-anchor="middle" x="537.651" y="-58.5" font-family="Helvetica,sans-Serif" font-size="10.00" fill="#000000">::IOFactory::fillInputList</text>
</a>
</g>
</g>
<!-- Node20&#45;&gt;Node21 -->
<g id="edge6" class="edge">
<title>Node20&#45;&gt;Node21</title>
<path fill="none" stroke="#191970" d="M452.3934,-67.5C461.0478,-67.5 469.7314,-67.5 478.0697,-67.5"/>
<polygon fill="#191970" stroke="#191970" points="452.2699,-64.0001 442.2699,-67.5 452.2698,-71.0001 452.2699,-64.0001"/>
</g>
<!-- Node22&#45;&gt;Node23 -->
<g id="edge8" class="edge">
<title>Node22&#45;&gt;Node23</title>
<path fill="none" stroke="#191970" d="M265.6387,-44.7063C282.9599,-40.0778 301.5721,-35.1043 318.2711,-30.642"/>
<polygon fill="#191970" stroke="#191970" points="264.371,-41.4222 255.6136,-47.3852 266.1782,-48.1849 264.371,-41.4222"/>
</g>
</g>
</svg>
