<?xml version="1.0" encoding="UTF-8" standalone="no"?>
<!DOCTYPE svg PUBLIC "-//W3C//DTD SVG 1.1//EN"
 "http://www.w3.org/Graphics/SVG/1.1/DTD/svg11.dtd">
<!-- Generated by graphviz version 2.40.1 (20161225.0304)
 -->
<!-- Title: VehicleControl::IO::IOBase::writeWithPath Pages: 1 -->
<svg width="276pt" height="41pt"
 viewBox="0.00 0.00 276.04 41.00" xmlns="http://www.w3.org/2000/svg" xmlns:xlink="http://www.w3.org/1999/xlink">
<g id="graph0" class="graph" transform="scale(1 1) rotate(0) translate(4 37)">
<title>VehicleControl::IO::IOBase::writeWithPath</title>
<polygon fill="#ffffff" stroke="transparent" points="-4,4 -4,-37 272.04,-37 272.04,4 -4,4"/>
<!-- Node68 -->
<g id="node1" class="node">
<title>Node68</title>
<polygon fill="#bfbfbf" stroke="#000000" points="0,-.5 0,-32.5 122.128,-32.5 122.128,-.5 0,-.5"/>
<text text-anchor="start" x="8" y="-19.5" font-family="Helvetica,sans-Serif" font-size="10.00" fill="#000000">VehicleControl::IO</text>
<text text-anchor="middle" x="61.064" y="-7.5" font-family="Helvetica,sans-Serif" font-size="10.00" fill="#000000">::IOBase::writeWithPath</text>
</g>
<!-- Node69 -->
<g id="node2" class="node">
<title>Node69</title>
<g id="a_node2"><a xlink:href="classVehicleControl_1_1IO_1_1IOBase.html#a5e4181ad0487db2d1eb6034aa5215273" target="_top" xlink:title="getNumber getter ">
<polygon fill="#ffffff" stroke="#000000" points="158.128,-.5 158.128,-32.5 268.04,-32.5 268.04,-.5 158.128,-.5"/>
<text text-anchor="start" x="166.128" y="-19.5" font-family="Helvetica,sans-Serif" font-size="10.00" fill="#000000">VehicleControl::IO</text>
<text text-anchor="middle" x="213.084" y="-7.5" font-family="Helvetica,sans-Serif" font-size="10.00" fill="#000000">::IOBase::getNumber</text>
</a>
</g>
</g>
<!-- Node68&#45;&gt;Node69 -->
<g id="edge1" class="edge">
<title>Node68&#45;&gt;Node69</title>
<path fill="none" stroke="#191970" d="M132.6977,-16.5C141.1448,-16.5 149.6642,-16.5 157.8368,-16.5"/>
<polygon fill="#191970" stroke="#191970" points="132.4582,-13.0001 122.4582,-16.5 132.4581,-20.0001 132.4582,-13.0001"/>
</g>
</g>
</svg>
