<?xml version="1.0" encoding="UTF-8" standalone="no"?>
<!DOCTYPE svg PUBLIC "-//W3C//DTD SVG 1.1//EN"
 "http://www.w3.org/Graphics/SVG/1.1/DTD/svg11.dtd">
<!-- Generated by graphviz version 2.40.1 (20161225.0304)
 -->
<!-- Title: ThreadHelper::startDetachedThread Pages: 1 -->
<svg width="849pt" height="448pt"
 viewBox="0.00 0.00 848.76 447.62" xmlns="http://www.w3.org/2000/svg" xmlns:xlink="http://www.w3.org/1999/xlink">
<g id="graph0" class="graph" transform="scale(1 1) rotate(0) translate(4 443.6224)">
<title>ThreadHelper::startDetachedThread</title>
<polygon fill="#ffffff" stroke="transparent" points="-4,4 -4,-443.6224 844.762,-443.6224 844.762,4 -4,4"/>
<!-- Node1 -->
<g id="node1" class="node">
<title>Node1</title>
<polygon fill="#bfbfbf" stroke="#000000" points="0,-214.5 0,-246.5 144.915,-246.5 144.915,-214.5 0,-214.5"/>
<text text-anchor="start" x="8" y="-233.5" font-family="Helvetica,sans-Serif" font-size="10.00" fill="#000000">ThreadHelper::startDetached</text>
<text text-anchor="middle" x="72.4575" y="-221.5" font-family="Helvetica,sans-Serif" font-size="10.00" fill="#000000">Thread</text>
</g>
<!-- Node2 -->
<g id="node2" class="node">
<title>Node2</title>
<g id="a_node2"><a xlink:href="classVehicleControl_1_1Bluetooth_1_1Base.html#a0d454a071fb0e38cf668cb82d5f93a3c" target="_top" xlink:title="startReadThread ">
<polygon fill="#ffffff" stroke="#000000" points="187.848,-355.5 187.848,-387.5 316.654,-387.5 316.654,-355.5 187.848,-355.5"/>
<text text-anchor="start" x="195.848" y="-374.5" font-family="Helvetica,sans-Serif" font-size="10.00" fill="#000000">VehicleControl::Bluetooth</text>
<text text-anchor="middle" x="252.251" y="-362.5" font-family="Helvetica,sans-Serif" font-size="10.00" fill="#000000">::Base::startReadThread</text>
</a>
</g>
</g>
<!-- Node1&#45;&gt;Node2 -->
<g id="edge1" class="edge">
<title>Node1&#45;&gt;Node2</title>
<path fill="none" stroke="#191970" d="M89.5921,-254.9077C109.0143,-280.9317 142.9498,-321.733 180.915,-346.5 186.0809,-349.87 191.7544,-352.8453 197.5751,-355.4571"/>
<polygon fill="#191970" stroke="#191970" points="92.3089,-252.6936 83.577,-246.6932 86.6611,-256.8292 92.3089,-252.6936"/>
</g>
<!-- Node4 -->
<g id="node4" class="node">
<title>Node4</title>
<g id="a_node4"><a xlink:href="classVehicleControl_1_1Bluetooth_1_1Client.html#a83777b221312c408d42d8dfcb0b807b8" target="_top" xlink:title="VehicleControl::Bluetooth\l::Client::isConnected">
<polygon fill="#ffffff" stroke="#000000" points="550.5085,-384.5 550.5085,-416.5 679.3145,-416.5 679.3145,-384.5 550.5085,-384.5"/>
<text text-anchor="start" x="558.5085" y="-403.5" font-family="Helvetica,sans-Serif" font-size="10.00" fill="#000000">VehicleControl::Bluetooth</text>
<text text-anchor="middle" x="614.9115" y="-391.5" font-family="Helvetica,sans-Serif" font-size="10.00" fill="#000000">::Client::isConnected</text>
</a>
</g>
</g>
<!-- Node1&#45;&gt;Node4 -->
<g id="edge9" class="edge">
<title>Node1&#45;&gt;Node4</title>
<path fill="none" stroke="#191970" d="M80.4198,-256.2895C93.9562,-295.0935 125.5195,-367.1753 180.915,-397.5 300.8744,-463.1683 468.8873,-437.229 556.5167,-416.57"/>
<polygon fill="#191970" stroke="#191970" points="83.7149,-255.107 77.2186,-246.7375 77.0777,-257.3314 83.7149,-255.107"/>
</g>
<!-- Node5 -->
<g id="node5" class="node">
<title>Node5</title>
<g id="a_node5"><a xlink:href="classVehicleControl_1_1Bluetooth_1_1Server.html#af5d9733f754be78891f8189f6f63ac90" target="_top" xlink:title="VehicleControl::Bluetooth\l::Server::isConnected">
<polygon fill="#ffffff" stroke="#000000" points="550.5085,-302.5 550.5085,-334.5 679.3145,-334.5 679.3145,-302.5 550.5085,-302.5"/>
<text text-anchor="start" x="558.5085" y="-321.5" font-family="Helvetica,sans-Serif" font-size="10.00" fill="#000000">VehicleControl::Bluetooth</text>
<text text-anchor="middle" x="614.9115" y="-309.5" font-family="Helvetica,sans-Serif" font-size="10.00" fill="#000000">::Server::isConnected</text>
</a>
</g>
</g>
<!-- Node1&#45;&gt;Node5 -->
<g id="edge11" class="edge">
<title>Node1&#45;&gt;Node5</title>
<path fill="none" stroke="#191970" d="M144.9888,-248.8764C156.9506,-251.622 169.2506,-254.2737 180.915,-256.5 311.1879,-281.3639 465.1888,-301.1047 550.2601,-311.1771"/>
<polygon fill="#191970" stroke="#191970" points="145.5756,-245.4193 135.0418,-246.5553 143.9848,-252.2362 145.5756,-245.4193"/>
</g>
<!-- Node6 -->
<g id="node6" class="node">
<title>Node6</title>
<g id="a_node6"><a xlink:href="classVehicleControl_1_1Bluetooth_1_1Base.html#a73cb44dceb3bf46a3fb2acce2091be2a" target="_top" xlink:title="startWriteThread ">
<polygon fill="#ffffff" stroke="#000000" points="187.848,-304.5 187.848,-336.5 316.654,-336.5 316.654,-304.5 187.848,-304.5"/>
<text text-anchor="start" x="195.848" y="-323.5" font-family="Helvetica,sans-Serif" font-size="10.00" fill="#000000">VehicleControl::Bluetooth</text>
<text text-anchor="middle" x="252.251" y="-311.5" font-family="Helvetica,sans-Serif" font-size="10.00" fill="#000000">::Base::startWriteThread</text>
</a>
</g>
</g>
<!-- Node1&#45;&gt;Node6 -->
<g id="edge6" class="edge">
<title>Node1&#45;&gt;Node6</title>
<path fill="none" stroke="#191970" d="M109.4593,-251.6826C130.2286,-263.3046 156.7519,-277.706 180.915,-289.5 191.3513,-294.5939 202.8262,-299.7638 213.4642,-304.3838"/>
<polygon fill="#191970" stroke="#191970" points="111.0748,-248.5756 100.6432,-246.7231 107.6427,-254.6765 111.0748,-248.5756"/>
</g>
<!-- Node7 -->
<g id="node7" class="node">
<title>Node7</title>
<g id="a_node7"><a xlink:href="classVehicleControl_1_1Bluetooth_1_1Client.html#a0391040c6047198f5115f47bce8f1e49" target="_top" xlink:title="VehicleControl::Bluetooth\l::Client::Client">
<polygon fill="#ffffff" stroke="#000000" points="187.848,-214.5 187.848,-246.5 316.654,-246.5 316.654,-214.5 187.848,-214.5"/>
<text text-anchor="start" x="195.848" y="-233.5" font-family="Helvetica,sans-Serif" font-size="10.00" fill="#000000">VehicleControl::Bluetooth</text>
<text text-anchor="middle" x="252.251" y="-221.5" font-family="Helvetica,sans-Serif" font-size="10.00" fill="#000000">::Client::Client</text>
</a>
</g>
</g>
<!-- Node1&#45;&gt;Node7 -->
<g id="edge8" class="edge">
<title>Node1&#45;&gt;Node7</title>
<path fill="none" stroke="#191970" d="M155.0832,-230.5C166.0535,-230.5 177.1691,-230.5 187.7709,-230.5"/>
<polygon fill="#191970" stroke="#191970" points="155.0682,-227.0001 145.0682,-230.5 155.0681,-234.0001 155.0682,-227.0001"/>
</g>
<!-- Node8 -->
<g id="node8" class="node">
<title>Node8</title>
<g id="a_node8"><a xlink:href="classVehicleControl_1_1Bluetooth_1_1Server.html#a71e526977ad6225f87b2b962820931a9" target="_top" xlink:title="VehicleControl::Bluetooth\l::Server::Server">
<polygon fill="#ffffff" stroke="#000000" points="187.848,-163.5 187.848,-195.5 316.654,-195.5 316.654,-163.5 187.848,-163.5"/>
<text text-anchor="start" x="195.848" y="-182.5" font-family="Helvetica,sans-Serif" font-size="10.00" fill="#000000">VehicleControl::Bluetooth</text>
<text text-anchor="middle" x="252.251" y="-170.5" font-family="Helvetica,sans-Serif" font-size="10.00" fill="#000000">::Server::Server</text>
</a>
</g>
</g>
<!-- Node1&#45;&gt;Node8 -->
<g id="edge10" class="edge">
<title>Node1&#45;&gt;Node8</title>
<path fill="none" stroke="#191970" d="M139.2088,-211.5654C157.7948,-206.2933 177.7971,-200.6195 195.7333,-195.5317"/>
<polygon fill="#191970" stroke="#191970" points="138.0106,-208.2671 129.3453,-214.3633 139.9209,-215.0014 138.0106,-208.2671"/>
</g>
<!-- Node9 -->
<g id="node9" class="node">
<title>Node9</title>
<g id="a_node9"><a xlink:href="classVehicleControl_1_1IO_1_1Input.html#a4170e7cac459efea0380175ea12f6e69" target="_top" xlink:title="waitForEdgeThreaded does the same thing as waitForEdge(), but does so in a threaded manner...">
<polygon fill="#ffffff" stroke="#000000" points="359.587,-192.5 359.587,-224.5 507.849,-224.5 507.849,-192.5 359.587,-192.5"/>
<text text-anchor="start" x="367.587" y="-211.5" font-family="Helvetica,sans-Serif" font-size="10.00" fill="#000000">VehicleControl::IO</text>
<text text-anchor="middle" x="433.718" y="-199.5" font-family="Helvetica,sans-Serif" font-size="10.00" fill="#000000">::Input::waitForEdgeThreaded</text>
</a>
</g>
</g>
<!-- Node1&#45;&gt;Node9 -->
<g id="edge12" class="edge">
<title>Node1&#45;&gt;Node9</title>
<path fill="none" stroke="#191970" d="M96.2573,-207.2417C116.7808,-188.9253 148.2012,-164.821 180.915,-154.5 241.3866,-135.4216 261.8174,-140.1713 323.587,-154.5 354.9103,-161.7661 387.5982,-179.2479 409.143,-192.3661"/>
<polygon fill="#191970" stroke="#191970" points="93.6899,-204.8471 88.6828,-214.1841 98.4197,-210.0075 93.6899,-204.8471"/>
</g>
<!-- Node12 -->
<g id="node12" class="node">
<title>Node12</title>
<g id="a_node12"><a xlink:href="classVehicleControl_1_1IO_1_1UserLED.html#a681c7658d0828edefed7028390adced0" target="_top" xlink:title="setState method sets the state of the LED ">
<polygon fill="#ffffff" stroke="#000000" points="200.0745,-73.5 200.0745,-105.5 304.4275,-105.5 304.4275,-73.5 200.0745,-73.5"/>
<text text-anchor="start" x="208.0745" y="-92.5" font-family="Helvetica,sans-Serif" font-size="10.00" fill="#000000">VehicleControl::IO</text>
<text text-anchor="middle" x="252.251" y="-80.5" font-family="Helvetica,sans-Serif" font-size="10.00" fill="#000000">::UserLED::setState</text>
</a>
</g>
</g>
<!-- Node1&#45;&gt;Node12 -->
<g id="edge16" class="edge">
<title>Node1&#45;&gt;Node12</title>
<path fill="none" stroke="#191970" d="M91.4632,-206.3953C111.5837,-182.1413 145.3042,-144.9255 180.915,-120.5 189.1555,-114.8478 198.5926,-109.873 207.846,-105.6563"/>
<polygon fill="#191970" stroke="#191970" points="88.5475,-204.4323 84.9328,-214.3915 93.9691,-208.8602 88.5475,-204.4323"/>
</g>
<!-- Node19 -->
<g id="node19" class="node">
<title>Node19</title>
<g id="a_node19"><a xlink:href="classVehicleControl_1_1IO_1_1MotorControl.html#a14db742c3916175519c5d543990fea84" target="_top" xlink:title="ServoControl constructor creates the class, and spawns the frequency control thread. ">
<polygon fill="#ffffff" stroke="#000000" points="180.915,-22.5 180.915,-54.5 323.587,-54.5 323.587,-22.5 180.915,-22.5"/>
<text text-anchor="start" x="188.915" y="-41.5" font-family="Helvetica,sans-Serif" font-size="10.00" fill="#000000">VehicleControl::IO</text>
<text text-anchor="middle" x="252.251" y="-29.5" font-family="Helvetica,sans-Serif" font-size="10.00" fill="#000000">::MotorControl::MotorControl</text>
</a>
</g>
</g>
<!-- Node1&#45;&gt;Node19 -->
<g id="edge26" class="edge">
<title>Node1&#45;&gt;Node19</title>
<path fill="none" stroke="#191970" d="M82.7431,-204.7351C98.5588,-168.2616 132.2128,-101.7641 180.915,-63.5 185.2491,-60.0948 190.0812,-57.1341 195.1312,-54.5635"/>
<polygon fill="#191970" stroke="#191970" points="79.4216,-203.6039 78.7576,-214.1779 85.8707,-206.3259 79.4216,-203.6039"/>
</g>
<!-- Node3 -->
<g id="node3" class="node">
<title>Node3</title>
<g id="a_node3"><a xlink:href="classVehicleControl_1_1Bluetooth_1_1Base.html#a6c41447b1283d1b90459cbdae3a54480" target="_top" xlink:title="startBothThreads ">
<polygon fill="#ffffff" stroke="#000000" points="369.315,-320.5 369.315,-352.5 498.121,-352.5 498.121,-320.5 369.315,-320.5"/>
<text text-anchor="start" x="377.315" y="-339.5" font-family="Helvetica,sans-Serif" font-size="10.00" fill="#000000">VehicleControl::Bluetooth</text>
<text text-anchor="middle" x="433.718" y="-327.5" font-family="Helvetica,sans-Serif" font-size="10.00" fill="#000000">::Base::startBothThreads</text>
</a>
</g>
</g>
<!-- Node2&#45;&gt;Node3 -->
<g id="edge2" class="edge">
<title>Node2&#45;&gt;Node3</title>
<path fill="none" stroke="#191970" d="M326.8429,-357.1133C340.8737,-354.4071 355.4366,-351.5983 369.1307,-348.9571"/>
<polygon fill="#191970" stroke="#191970" points="325.8966,-353.7312 316.7404,-359.0618 327.2223,-360.6045 325.8966,-353.7312"/>
</g>
<!-- Node3&#45;&gt;Node4 -->
<g id="edge3" class="edge">
<title>Node3&#45;&gt;Node4</title>
<path fill="none" stroke="#191970" d="M489.075,-356.0529C514.8449,-365.1551 545.1211,-375.8491 569.5175,-384.4662"/>
<polygon fill="#191970" stroke="#191970" points="490.0356,-352.6803 479.4408,-352.6499 487.7042,-359.2806 490.0356,-352.6803"/>
</g>
<!-- Node3&#45;&gt;Node5 -->
<g id="edge4" class="edge">
<title>Node3&#45;&gt;Node5</title>
<path fill="none" stroke="#191970" d="M508.3815,-329.0828C522.2891,-327.7012 536.7139,-326.2683 550.2888,-324.9197"/>
<polygon fill="#191970" stroke="#191970" points="507.9706,-325.6063 498.3656,-330.0778 508.6627,-332.572 507.9706,-325.6063"/>
</g>
<!-- Node5&#45;&gt;Node5 -->
<g id="edge5" class="edge">
<title>Node5&#45;&gt;Node5</title>
<path fill="none" stroke="#191970" d="M585.6978,-345.0753C589.5655,-349.7466 599.3034,-353 614.9115,-353 640.5248,-353 650.3299,-344.2388 644.3268,-334.8274"/>
<polygon fill="#191970" stroke="#191970" points="589.1923,-344.7566 585.4962,-334.8274 582.1936,-344.8943 589.1923,-344.7566"/>
</g>
<!-- Node6&#45;&gt;Node3 -->
<g id="edge7" class="edge">
<title>Node6&#45;&gt;Node3</title>
<path fill="none" stroke="#191970" d="M326.8429,-327.0768C340.8737,-328.3139 355.4366,-329.5979 369.1307,-330.8053"/>
<polygon fill="#191970" stroke="#191970" points="327.0092,-323.578 316.7404,-326.1861 326.3943,-330.5509 327.0092,-323.578"/>
</g>
<!-- Node10 -->
<g id="node10" class="node">
<title>Node10</title>
<g id="a_node10"><a xlink:href="structVehicleControl_1_1IO_1_1Input_1_1Setup.html#a09ce07a96559b6f63eaa51d8eccbc877" target="_top" xlink:title="VehicleControl::IO\l::Input::Setup::Setup">
<polygon fill="#ffffff" stroke="#000000" points="727.7885,-166.5 727.7885,-198.5 834.9475,-198.5 834.9475,-166.5 727.7885,-166.5"/>
<text text-anchor="start" x="735.7885" y="-185.5" font-family="Helvetica,sans-Serif" font-size="10.00" fill="#000000">VehicleControl::IO</text>
<text text-anchor="middle" x="781.368" y="-173.5" font-family="Helvetica,sans-Serif" font-size="10.00" fill="#000000">::Input::Setup::Setup</text>
</a>
</g>
</g>
<!-- Node9&#45;&gt;Node10 -->
<g id="edge13" class="edge">
<title>Node9&#45;&gt;Node10</title>
<path fill="none" stroke="#191970" d="M496.6815,-227.0386C548.2619,-239.3684 622.7797,-250.6052 685.974,-234.5 713.2082,-227.5593 741.0558,-211.0825 759.5769,-198.5214"/>
<polygon fill="#191970" stroke="#191970" points="497.2292,-223.5687 486.6814,-224.5658 495.5488,-230.364 497.2292,-223.5687"/>
</g>
<!-- Node11 -->
<g id="node11" class="node">
<title>Node11</title>
<g id="a_node11"><a xlink:href="classVehicleControl_1_1IO_1_1Input.html#aeb47b17475e36a509b1bd2ac115a42a0" target="_top" xlink:title="Input constructs an input based on the given setup. The constructor will automatically export the pin...">
<polygon fill="#ffffff" stroke="#000000" points="566.35,-192.5 566.35,-224.5 663.473,-224.5 663.473,-192.5 566.35,-192.5"/>
<text text-anchor="start" x="574.35" y="-211.5" font-family="Helvetica,sans-Serif" font-size="10.00" fill="#000000">VehicleControl::IO</text>
<text text-anchor="middle" x="614.9115" y="-199.5" font-family="Helvetica,sans-Serif" font-size="10.00" fill="#000000">::Input::Input</text>
</a>
</g>
</g>
<!-- Node9&#45;&gt;Node11 -->
<g id="edge14" class="edge">
<title>Node9&#45;&gt;Node11</title>
<path fill="none" stroke="#191970" d="M518.1428,-208.5C534.6186,-208.5 551.368,-208.5 566.1977,-208.5"/>
<polygon fill="#191970" stroke="#191970" points="517.9392,-205.0001 507.9391,-208.5 517.9391,-212.0001 517.9392,-205.0001"/>
</g>
<!-- Node11&#45;&gt;Node10 -->
<g id="edge15" class="edge">
<title>Node11&#45;&gt;Node10</title>
<path fill="none" stroke="#191970" d="M673.6629,-199.3232C691.2757,-196.5721 710.4938,-193.5703 727.757,-190.8739"/>
<polygon fill="#191970" stroke="#191970" points="672.8451,-195.9084 663.5051,-200.9098 673.9255,-202.8246 672.8451,-195.9084"/>
</g>
<!-- Node13 -->
<g id="node13" class="node">
<title>Node13</title>
<g id="a_node13"><a xlink:href="structVehicleControl_1_1IO_1_1UserLED_1_1Setup.html#a0f7dc4714f6c82868c4d3bad8baaf4c6" target="_top" xlink:title="VehicleControl::IO\l::UserLED::Setup::Setup">
<polygon fill="#ffffff" stroke="#000000" points="552.1725,-.5 552.1725,-32.5 677.6505,-32.5 677.6505,-.5 552.1725,-.5"/>
<text text-anchor="start" x="560.1725" y="-19.5" font-family="Helvetica,sans-Serif" font-size="10.00" fill="#000000">VehicleControl::IO</text>
<text text-anchor="middle" x="614.9115" y="-7.5" font-family="Helvetica,sans-Serif" font-size="10.00" fill="#000000">::UserLED::Setup::Setup</text>
</a>
</g>
</g>
<!-- Node12&#45;&gt;Node13 -->
<g id="edge17" class="edge">
<title>Node12&#45;&gt;Node13</title>
<path fill="none" stroke="#191970" d="M311.1721,-69.5085C315.4343,-67.6125 319.6146,-65.6061 323.587,-63.5 341.0244,-54.2551 341.0727,-44.3375 359.587,-37.5 422.1707,-14.3871 499.0729,-11.1499 552.0276,-12.4317"/>
<polygon fill="#191970" stroke="#191970" points="309.6133,-66.3673 301.7594,-73.4783 312.3336,-72.8171 309.6133,-66.3673"/>
</g>
<!-- Node14 -->
<g id="node14" class="node">
<title>Node14</title>
<g id="a_node14"><a xlink:href="namespaceVehicleControl.html#af89cecf99aa4e7787af7433d8f3b6970" target="_top" xlink:title="VehicleControl::callback">
<polygon fill="#ffffff" stroke="#000000" points="372.378,-101.5 372.378,-121.5 495.058,-121.5 495.058,-101.5 372.378,-101.5"/>
<text text-anchor="middle" x="433.718" y="-108.5" font-family="Helvetica,sans-Serif" font-size="10.00" fill="#000000">VehicleControl::callback</text>
</a>
</g>
</g>
<!-- Node12&#45;&gt;Node14 -->
<g id="edge18" class="edge">
<title>Node12&#45;&gt;Node14</title>
<path fill="none" stroke="#191970" d="M314.8248,-97.0861C333.3416,-99.3309 353.5952,-101.7864 372.0541,-104.0242"/>
<polygon fill="#191970" stroke="#191970" points="315.0874,-93.5924 304.7388,-95.8633 314.2448,-100.5415 315.0874,-93.5924"/>
</g>
<!-- Node18 -->
<g id="node18" class="node">
<title>Node18</title>
<g id="a_node18"><a xlink:href="classVehicleControl_1_1IO_1_1UserLED.html#a899d101eb5e8129e5f3f6c13dce1afb6" target="_top" xlink:title="changeBlinkTime method changes the time of the blink ">
<polygon fill="#ffffff" stroke="#000000" points="361.5445,-47.5 361.5445,-79.5 505.8915,-79.5 505.8915,-47.5 361.5445,-47.5"/>
<text text-anchor="start" x="369.5445" y="-66.5" font-family="Helvetica,sans-Serif" font-size="10.00" fill="#000000">VehicleControl::IO</text>
<text text-anchor="middle" x="433.718" y="-54.5" font-family="Helvetica,sans-Serif" font-size="10.00" fill="#000000">::UserLED::changeBlinkTime</text>
</a>
</g>
</g>
<!-- Node12&#45;&gt;Node18 -->
<g id="edge24" class="edge">
<title>Node12&#45;&gt;Node18</title>
<path fill="none" stroke="#191970" d="M314.9169,-80.5214C329.9138,-78.3727 346.0454,-76.0614 361.4373,-73.8561"/>
<polygon fill="#191970" stroke="#191970" points="314.1413,-77.0967 304.7388,-81.9797 315.1341,-84.026 314.1413,-77.0967"/>
</g>
<!-- Node14&#45;&gt;Node10 -->
<g id="edge19" class="edge">
<title>Node14&#45;&gt;Node10</title>
<path fill="none" stroke="#191970" d="M505.4067,-109.9436C556.6597,-110.6326 626.7554,-115.2843 685.974,-132.5 711.8294,-140.0165 738.7808,-154.8973 757.4143,-166.4792"/>
<polygon fill="#191970" stroke="#191970" points="505.1215,-106.4411 495.0917,-109.8548 505.0612,-113.4409 505.1215,-106.4411"/>
</g>
<!-- Node15 -->
<g id="node15" class="node">
<title>Node15</title>
<g id="a_node15"><a xlink:href="classVehicleControl_1_1IO_1_1Input.html#aa963e2cb77f82fb52ce77187494e54ea" target="_top" xlink:title="setEdgeCallback setter ">
<polygon fill="#ffffff" stroke="#000000" points="552.727,-141.5 552.727,-173.5 677.096,-173.5 677.096,-141.5 552.727,-141.5"/>
<text text-anchor="start" x="560.727" y="-160.5" font-family="Helvetica,sans-Serif" font-size="10.00" fill="#000000">VehicleControl::IO</text>
<text text-anchor="middle" x="614.9115" y="-148.5" font-family="Helvetica,sans-Serif" font-size="10.00" fill="#000000">::Input::setEdgeCallback</text>
</a>
</g>
</g>
<!-- Node14&#45;&gt;Node15 -->
<g id="edge20" class="edge">
<title>Node14&#45;&gt;Node15</title>
<path fill="none" stroke="#191970" d="M483.3081,-124.0895C504.6537,-129.5086 529.8486,-135.9049 552.4499,-141.6427"/>
<polygon fill="#191970" stroke="#191970" points="484.0355,-120.6632 473.4817,-121.5949 482.313,-127.448 484.0355,-120.6632"/>
</g>
<!-- Node16 -->
<g id="node16" class="node">
<title>Node16</title>
<g id="a_node16"><a xlink:href="namespaceVehicleControl.html#a5756c96006fcbf65cf488b7e2297a73a" target="_top" xlink:title="VehicleControl::createRising\lEdgeThreadedInput">
<polygon fill="#ffffff" stroke="#000000" points="543.849,-51.5 543.849,-83.5 685.974,-83.5 685.974,-51.5 543.849,-51.5"/>
<text text-anchor="start" x="551.849" y="-70.5" font-family="Helvetica,sans-Serif" font-size="10.00" fill="#000000">VehicleControl::createRising</text>
<text text-anchor="middle" x="614.9115" y="-58.5" font-family="Helvetica,sans-Serif" font-size="10.00" fill="#000000">EdgeThreadedInput</text>
</a>
</g>
</g>
<!-- Node14&#45;&gt;Node16 -->
<g id="edge22" class="edge">
<title>Node14&#45;&gt;Node16</title>
<path fill="none" stroke="#191970" d="M485.0239,-99.0412C504.8046,-94.2377 527.6848,-88.6816 548.6792,-83.5835"/>
<polygon fill="#191970" stroke="#191970" points="484.1791,-95.6445 475.2874,-101.4055 485.831,-102.4468 484.1791,-95.6445"/>
</g>
<!-- Node15&#45;&gt;Node10 -->
<g id="edge21" class="edge">
<title>Node15&#45;&gt;Node10</title>
<path fill="none" stroke="#191970" d="M687.5505,-168.4096C700.9934,-170.4286 714.811,-172.5038 727.5695,-174.42"/>
<polygon fill="#191970" stroke="#191970" points="687.7763,-164.9043 677.3673,-166.8802 686.7366,-171.8267 687.7763,-164.9043"/>
</g>
<!-- Node17 -->
<g id="node17" class="node">
<title>Node17</title>
<g id="a_node17"><a xlink:href="classVehicleControl_1_1Control_1_1IOFactory.html#a4d4de0203bf577352199f49c67f49d98" target="_top" xlink:title="fillInputList method fills in all of the app&#39;s inputs ">
<polygon fill="#ffffff" stroke="#000000" points="721.974,-51.5 721.974,-83.5 840.762,-83.5 840.762,-51.5 721.974,-51.5"/>
<text text-anchor="start" x="729.974" y="-70.5" font-family="Helvetica,sans-Serif" font-size="10.00" fill="#000000">VehicleControl::Control</text>
<text text-anchor="middle" x="781.368" y="-58.5" font-family="Helvetica,sans-Serif" font-size="10.00" fill="#000000">::IOFactory::fillInputList</text>
</a>
</g>
</g>
<!-- Node16&#45;&gt;Node17 -->
<g id="edge23" class="edge">
<title>Node16&#45;&gt;Node17</title>
<path fill="none" stroke="#191970" d="M696.1104,-67.5C704.7648,-67.5 713.4484,-67.5 721.7867,-67.5"/>
<polygon fill="#191970" stroke="#191970" points="695.9869,-64.0001 685.9869,-67.5 695.9868,-71.0001 695.9869,-64.0001"/>
</g>
<!-- Node18&#45;&gt;Node13 -->
<g id="edge25" class="edge">
<title>Node18&#45;&gt;Node13</title>
<path fill="none" stroke="#191970" d="M505.2766,-44.9383C521.0666,-40.8425 537.6647,-36.5371 553.0331,-32.5507"/>
<polygon fill="#191970" stroke="#191970" points="504.3686,-41.5579 495.5677,-47.4567 506.1262,-48.3337 504.3686,-41.5579"/>
</g>
</g>
</svg>
