<?xml version="1.0" encoding="UTF-8" standalone="no"?>
<!DOCTYPE svg PUBLIC "-//W3C//DTD SVG 1.1//EN"
 "http://www.w3.org/Graphics/SVG/1.1/DTD/svg11.dtd">
<!-- Generated by graphviz version 2.40.1 (20161225.0304)
 -->
<!-- Title: VehicleControl::Control::instance Pages: 1 -->
<svg width="618pt" height="176pt"
 viewBox="0.00 0.00 618.38 176.00" xmlns="http://www.w3.org/2000/svg" xmlns:xlink="http://www.w3.org/1999/xlink">
<g id="graph0" class="graph" transform="scale(1 1) rotate(0) translate(4 172)">
<title>VehicleControl::Control::instance</title>
<polygon fill="#ffffff" stroke="transparent" points="-4,4 -4,-172 614.381,-172 614.381,4 -4,4"/>
<!-- Node5 -->
<g id="node1" class="node">
<title>Node5</title>
<polygon fill="#bfbfbf" stroke="#000000" points="0,-96.5 0,-128.5 118.788,-128.5 118.788,-96.5 0,-96.5"/>
<text text-anchor="start" x="8" y="-115.5" font-family="Helvetica,sans-Serif" font-size="10.00" fill="#000000">VehicleControl::Control</text>
<text text-anchor="middle" x="59.394" y="-103.5" font-family="Helvetica,sans-Serif" font-size="10.00" fill="#000000">::instance</text>
</g>
<!-- Node6 -->
<g id="node2" class="node">
<title>Node6</title>
<g id="a_node2"><a xlink:href="main_8cpp.html#ae66f6b31b5ad750f1fe042a706a4e3d4" target="_top" xlink:title="main">
<polygon fill="#ffffff" stroke="#000000" points="197.295,-147.5 197.295,-167.5 234.961,-167.5 234.961,-147.5 197.295,-147.5"/>
<text text-anchor="middle" x="216.128" y="-154.5" font-family="Helvetica,sans-Serif" font-size="10.00" fill="#000000">main</text>
</a>
</g>
</g>
<!-- Node5&#45;&gt;Node6 -->
<g id="edge1" class="edge">
<title>Node5&#45;&gt;Node6</title>
<path fill="none" stroke="#191970" d="M125.4087,-131.4535C151.4725,-138.9367 179.4063,-146.9568 197.2843,-152.0898"/>
<polygon fill="#191970" stroke="#191970" points="126.1135,-128.0145 115.5359,-128.6189 124.1817,-134.7427 126.1135,-128.0145"/>
</g>
<!-- Node7 -->
<g id="node3" class="node">
<title>Node7</title>
<g id="a_node3"><a xlink:href="classVehicleControl_1_1Control.html#af4a1b0bf7931a83b9c1b80d27ebaae8f" target="_top" xlink:title="VehicleControl::Control\l::outputs">
<polygon fill="#ffffff" stroke="#000000" points="156.734,-96.5 156.734,-128.5 275.522,-128.5 275.522,-96.5 156.734,-96.5"/>
<text text-anchor="start" x="164.734" y="-115.5" font-family="Helvetica,sans-Serif" font-size="10.00" fill="#000000">VehicleControl::Control</text>
<text text-anchor="middle" x="216.128" y="-103.5" font-family="Helvetica,sans-Serif" font-size="10.00" fill="#000000">::outputs</text>
</a>
</g>
</g>
<!-- Node5&#45;&gt;Node7 -->
<g id="edge2" class="edge">
<title>Node5&#45;&gt;Node7</title>
<path fill="none" stroke="#191970" d="M129.2916,-112.5C138.4042,-112.5 147.6714,-112.5 156.5925,-112.5"/>
<polygon fill="#191970" stroke="#191970" points="129.0956,-109.0001 119.0955,-112.5 129.0955,-116.0001 129.0956,-109.0001"/>
</g>
<!-- Node8 -->
<g id="node4" class="node">
<title>Node8</title>
<g id="a_node4"><a xlink:href="namespaceVehicleControl.html#af89cecf99aa4e7787af7433d8f3b6970" target="_top" xlink:title="VehicleControl::callback">
<polygon fill="#ffffff" stroke="#000000" points="154.788,-57.5 154.788,-77.5 277.468,-77.5 277.468,-57.5 154.788,-57.5"/>
<text text-anchor="middle" x="216.128" y="-64.5" font-family="Helvetica,sans-Serif" font-size="10.00" fill="#000000">VehicleControl::callback</text>
</a>
</g>
</g>
<!-- Node5&#45;&gt;Node8 -->
<g id="edge3" class="edge">
<title>Node5&#45;&gt;Node8</title>
<path fill="none" stroke="#191970" d="M125.377,-93.5556C144.4174,-88.0889 164.4586,-82.3348 180.8501,-77.6287"/>
<polygon fill="#191970" stroke="#191970" points="124.1817,-90.2573 115.5359,-96.3811 126.1135,-96.9855 124.1817,-90.2573"/>
</g>
<!-- Node9 -->
<g id="node5" class="node">
<title>Node9</title>
<g id="a_node5"><a xlink:href="structVehicleControl_1_1IO_1_1Input_1_1Setup.html#a09ce07a96559b6f63eaa51d8eccbc877" target="_top" xlink:title="VehicleControl::IO\l::Input::Setup::Setup">
<polygon fill="#ffffff" stroke="#000000" points="497.4075,-73.5 497.4075,-105.5 604.5665,-105.5 604.5665,-73.5 497.4075,-73.5"/>
<text text-anchor="start" x="505.4075" y="-92.5" font-family="Helvetica,sans-Serif" font-size="10.00" fill="#000000">VehicleControl::IO</text>
<text text-anchor="middle" x="550.987" y="-80.5" font-family="Helvetica,sans-Serif" font-size="10.00" fill="#000000">::Input::Setup::Setup</text>
</a>
</g>
</g>
<!-- Node8&#45;&gt;Node9 -->
<g id="edge4" class="edge">
<title>Node8&#45;&gt;Node9</title>
<path fill="none" stroke="#191970" d="M255.431,-80.5027C272.9784,-85.6538 294.0411,-90.9502 313.468,-93.5 376.0313,-101.7116 448.6521,-98.679 496.9613,-94.9094"/>
<polygon fill="#191970" stroke="#191970" points="256.1296,-77.0573 245.5444,-77.5084 254.1006,-83.7568 256.1296,-77.0573"/>
</g>
<!-- Node10 -->
<g id="node6" class="node">
<title>Node10</title>
<g id="a_node6"><a xlink:href="classVehicleControl_1_1IO_1_1Input.html#aa963e2cb77f82fb52ce77187494e54ea" target="_top" xlink:title="setEdgeCallback setter ">
<polygon fill="#ffffff" stroke="#000000" points="322.346,-51.5 322.346,-83.5 446.715,-83.5 446.715,-51.5 322.346,-51.5"/>
<text text-anchor="start" x="330.346" y="-70.5" font-family="Helvetica,sans-Serif" font-size="10.00" fill="#000000">VehicleControl::IO</text>
<text text-anchor="middle" x="384.5305" y="-58.5" font-family="Helvetica,sans-Serif" font-size="10.00" fill="#000000">::Input::setEdgeCallback</text>
</a>
</g>
</g>
<!-- Node8&#45;&gt;Node10 -->
<g id="edge5" class="edge">
<title>Node8&#45;&gt;Node10</title>
<path fill="none" stroke="#191970" d="M288.1759,-67.5C299.5066,-67.5 311.1372,-67.5 322.2236,-67.5"/>
<polygon fill="#191970" stroke="#191970" points="287.8787,-64.0001 277.8786,-67.5 287.8786,-71.0001 287.8787,-64.0001"/>
</g>
<!-- Node11 -->
<g id="node7" class="node">
<title>Node11</title>
<g id="a_node7"><a xlink:href="namespaceVehicleControl.html#a5756c96006fcbf65cf488b7e2297a73a" target="_top" xlink:title="VehicleControl::createRising\lEdgeThreadedInput">
<polygon fill="#ffffff" stroke="#000000" points="313.468,-.5 313.468,-32.5 455.593,-32.5 455.593,-.5 313.468,-.5"/>
<text text-anchor="start" x="321.468" y="-19.5" font-family="Helvetica,sans-Serif" font-size="10.00" fill="#000000">VehicleControl::createRising</text>
<text text-anchor="middle" x="384.5305" y="-7.5" font-family="Helvetica,sans-Serif" font-size="10.00" fill="#000000">EdgeThreadedInput</text>
</a>
</g>
</g>
<!-- Node8&#45;&gt;Node11 -->
<g id="edge7" class="edge">
<title>Node8&#45;&gt;Node11</title>
<path fill="none" stroke="#191970" d="M259.131,-54.4767C281.144,-47.8102 308.1422,-39.6339 331.4419,-32.5777"/>
<polygon fill="#191970" stroke="#191970" points="257.9552,-51.1758 249.3989,-57.424 259.9841,-57.8753 257.9552,-51.1758"/>
</g>
<!-- Node10&#45;&gt;Node9 -->
<g id="edge6" class="edge">
<title>Node10&#45;&gt;Node9</title>
<path fill="none" stroke="#191970" d="M457.1695,-77.1004C470.6124,-78.8772 484.43,-80.7034 497.1885,-82.3896"/>
<polygon fill="#191970" stroke="#191970" points="457.3588,-73.5951 446.9863,-75.7546 456.4415,-80.5348 457.3588,-73.5951"/>
</g>
<!-- Node12 -->
<g id="node8" class="node">
<title>Node12</title>
<g id="a_node8"><a xlink:href="classVehicleControl_1_1Control_1_1IOFactory.html#a4d4de0203bf577352199f49c67f49d98" target="_top" xlink:title="fillInputList method fills in all of the app&#39;s inputs ">
<polygon fill="#ffffff" stroke="#000000" points="491.593,-.5 491.593,-32.5 610.381,-32.5 610.381,-.5 491.593,-.5"/>
<text text-anchor="start" x="499.593" y="-19.5" font-family="Helvetica,sans-Serif" font-size="10.00" fill="#000000">VehicleControl::Control</text>
<text text-anchor="middle" x="550.987" y="-7.5" font-family="Helvetica,sans-Serif" font-size="10.00" fill="#000000">::IOFactory::fillInputList</text>
</a>
</g>
</g>
<!-- Node11&#45;&gt;Node12 -->
<g id="edge8" class="edge">
<title>Node11&#45;&gt;Node12</title>
<path fill="none" stroke="#191970" d="M465.7294,-16.5C474.3838,-16.5 483.0674,-16.5 491.4057,-16.5"/>
<polygon fill="#191970" stroke="#191970" points="465.6059,-13.0001 455.6059,-16.5 465.6058,-20.0001 465.6059,-13.0001"/>
</g>
</g>
</svg>
