<?xml version="1.0" encoding="UTF-8" standalone="no"?>
<!DOCTYPE svg PUBLIC "-//W3C//DTD SVG 1.1//EN"
 "http://www.w3.org/Graphics/SVG/1.1/DTD/svg11.dtd">
<!-- Generated by graphviz version 2.40.1 (20161225.0304)
 -->
<!-- Title: VehicleControl::IO::Input::Input Pages: 1 -->
<svg width="473pt" height="143pt"
 viewBox="0.00 0.00 473.06 143.00" xmlns="http://www.w3.org/2000/svg" xmlns:xlink="http://www.w3.org/1999/xlink">
<g id="graph0" class="graph" transform="scale(1 1) rotate(0) translate(4 139)">
<title>VehicleControl::IO::Input::Input</title>
<polygon fill="#ffffff" stroke="transparent" points="-4,4 -4,-139 469.064,-139 469.064,4 -4,4"/>
<!-- Node0 -->
<g id="node1" class="node">
<title>Node0</title>
<polygon fill="#bfbfbf" stroke="#000000" points="0,-51.5 0,-83.5 97.123,-83.5 97.123,-51.5 0,-51.5"/>
<text text-anchor="start" x="8" y="-70.5" font-family="Helvetica,sans-Serif" font-size="10.00" fill="#000000">VehicleControl::IO</text>
<text text-anchor="middle" x="48.5615" y="-58.5" font-family="Helvetica,sans-Serif" font-size="10.00" fill="#000000">::Input::Input</text>
</g>
<!-- Node1 -->
<g id="node2" class="node">
<title>Node1</title>
<g id="a_node2"><a xlink:href="classVehicleControl_1_1IO_1_1Input.html#ace52d2dc6464492817c2ea0683abd887" target="_top" xlink:title="setEdgeType sets the desired edge ">
<polygon fill="#ffffff" stroke="#000000" points="154.505,-102.5 154.505,-134.5 262.767,-134.5 262.767,-102.5 154.505,-102.5"/>
<text text-anchor="start" x="162.505" y="-121.5" font-family="Helvetica,sans-Serif" font-size="10.00" fill="#000000">VehicleControl::IO</text>
<text text-anchor="middle" x="208.636" y="-109.5" font-family="Helvetica,sans-Serif" font-size="10.00" fill="#000000">::Input::setEdgeType</text>
</a>
</g>
</g>
<!-- Node0&#45;&gt;Node1 -->
<g id="edge1" class="edge">
<title>Node0&#45;&gt;Node1</title>
<path fill="none" stroke="#191970" d="M97.4589,-83.0788C113.5993,-88.2211 131.7413,-94.0012 148.615,-99.3772"/>
<polygon fill="#191970" stroke="#191970" points="147.788,-102.787 158.3786,-102.4879 149.913,-96.1173 147.788,-102.787"/>
</g>
<!-- Node3 -->
<g id="node4" class="node">
<title>Node3</title>
<g id="a_node4"><a xlink:href="classVehicleControl_1_1IO_1_1IOBase.html#aae4d66f4082d7b5d5adf310cbc00b184" target="_top" xlink:title="setActiveHighOrLow setter ">
<polygon fill="#ffffff" stroke="#000000" points="133.123,-51.5 133.123,-83.5 284.149,-83.5 284.149,-51.5 133.123,-51.5"/>
<text text-anchor="start" x="141.123" y="-70.5" font-family="Helvetica,sans-Serif" font-size="10.00" fill="#000000">VehicleControl::IO</text>
<text text-anchor="middle" x="208.636" y="-58.5" font-family="Helvetica,sans-Serif" font-size="10.00" fill="#000000">::IOBase::setActiveHighOrLow</text>
</a>
</g>
</g>
<!-- Node0&#45;&gt;Node3 -->
<g id="edge3" class="edge">
<title>Node0&#45;&gt;Node3</title>
<path fill="none" stroke="#191970" d="M97.4589,-67.5C105.5212,-67.5 114.0829,-67.5 122.7365,-67.5"/>
<polygon fill="#191970" stroke="#191970" points="122.9129,-71.0001 132.9129,-67.5 122.9128,-64.0001 122.9129,-71.0001"/>
</g>
<!-- Node4 -->
<g id="node5" class="node">
<title>Node4</title>
<g id="a_node5"><a xlink:href="classVehicleControl_1_1IO_1_1Input.html#a4170e7cac459efea0380175ea12f6e69" target="_top" xlink:title="waitForEdgeThreaded does the same thing as waitForEdge(), but does so in a threaded manner...">
<polygon fill="#ffffff" stroke="#000000" points="134.505,-.5 134.505,-32.5 282.767,-32.5 282.767,-.5 134.505,-.5"/>
<text text-anchor="start" x="142.505" y="-19.5" font-family="Helvetica,sans-Serif" font-size="10.00" fill="#000000">VehicleControl::IO</text>
<text text-anchor="middle" x="208.636" y="-7.5" font-family="Helvetica,sans-Serif" font-size="10.00" fill="#000000">::Input::waitForEdgeThreaded</text>
</a>
</g>
</g>
<!-- Node0&#45;&gt;Node4 -->
<g id="edge5" class="edge">
<title>Node0&#45;&gt;Node4</title>
<path fill="none" stroke="#191970" d="M97.4589,-51.9212C113.5993,-46.7789 131.7413,-40.9988 148.615,-35.6228"/>
<polygon fill="#191970" stroke="#191970" points="149.913,-38.8827 158.3786,-32.5121 147.788,-32.213 149.913,-38.8827"/>
</g>
<!-- Node2 -->
<g id="node3" class="node">
<title>Node2</title>
<g id="a_node3"><a xlink:href="classVehicleControl_1_1IO_1_1IOBase.html#a09b22d396b771b2175df60b3a29b6c7f" target="_top" xlink:title="write write function that writes a single string value to a file in the path provided ...">
<polygon fill="#ffffff" stroke="#000000" points="344.045,-76.5 344.045,-108.5 441.168,-108.5 441.168,-76.5 344.045,-76.5"/>
<text text-anchor="start" x="352.045" y="-95.5" font-family="Helvetica,sans-Serif" font-size="10.00" fill="#000000">VehicleControl::IO</text>
<text text-anchor="middle" x="392.6065" y="-83.5" font-family="Helvetica,sans-Serif" font-size="10.00" fill="#000000">::IOBase::write</text>
</a>
</g>
</g>
<!-- Node1&#45;&gt;Node2 -->
<g id="edge2" class="edge">
<title>Node1&#45;&gt;Node2</title>
<path fill="none" stroke="#191970" d="M262.8382,-110.8398C285.0811,-107.6962 310.8916,-104.0485 333.6082,-100.8381"/>
<polygon fill="#191970" stroke="#191970" points="334.3921,-104.2621 343.8039,-99.3971 333.4124,-97.331 334.3921,-104.2621"/>
</g>
<!-- Node3&#45;&gt;Node2 -->
<g id="edge4" class="edge">
<title>Node3&#45;&gt;Node2</title>
<path fill="none" stroke="#191970" d="M284.2603,-77.7767C300.7635,-80.0193 317.9927,-82.3606 333.73,-84.4992"/>
<polygon fill="#191970" stroke="#191970" points="333.4533,-87.9937 343.8335,-85.8722 334.3959,-81.0574 333.4533,-87.9937"/>
</g>
<!-- Node5 -->
<g id="node6" class="node">
<title>Node5</title>
<g id="a_node6"><a xlink:href="classThreadHelper.html#a4426e115e7858a4b6f6eedbc77302756" target="_top" xlink:title="startDetachedThread ">
<polygon fill="#ffffff" stroke="#000000" points="320.149,-.5 320.149,-32.5 465.064,-32.5 465.064,-.5 320.149,-.5"/>
<text text-anchor="start" x="328.149" y="-19.5" font-family="Helvetica,sans-Serif" font-size="10.00" fill="#000000">ThreadHelper::startDetached</text>
<text text-anchor="middle" x="392.6065" y="-7.5" font-family="Helvetica,sans-Serif" font-size="10.00" fill="#000000">Thread</text>
</a>
</g>
</g>
<!-- Node4&#45;&gt;Node5 -->
<g id="edge6" class="edge">
<title>Node4&#45;&gt;Node5</title>
<path fill="none" stroke="#191970" d="M282.9336,-16.5C291.8456,-16.5 300.9878,-16.5 310.0084,-16.5"/>
<polygon fill="#191970" stroke="#191970" points="310.1224,-20.0001 320.1224,-16.5 310.1224,-13.0001 310.1224,-20.0001"/>
</g>
</g>
</svg>
