<?xml version="1.0" encoding="UTF-8" standalone="no"?>
<!DOCTYPE svg PUBLIC "-//W3C//DTD SVG 1.1//EN"
 "http://www.w3.org/Graphics/SVG/1.1/DTD/svg11.dtd">
<!-- Generated by graphviz version 2.40.1 (20161225.0304)
 -->
<!-- Title: VehicleControl::Control::instance Pages: 1 -->
<svg width="618pt" height="131pt"
 viewBox="0.00 0.00 618.38 131.00" xmlns="http://www.w3.org/2000/svg" xmlns:xlink="http://www.w3.org/1999/xlink">
<g id="graph0" class="graph" transform="scale(1 1) rotate(0) translate(4 127)">
<title>VehicleControl::Control::instance</title>
<polygon fill="#ffffff" stroke="transparent" points="-4,4 -4,-127 614.381,-127 614.381,4 -4,4"/>
<!-- Node5 -->
<g id="node1" class="node">
<title>Node5</title>
<polygon fill="#bfbfbf" stroke="#000000" points="0,-45.5 0,-77.5 118.788,-77.5 118.788,-45.5 0,-45.5"/>
<text text-anchor="start" x="8" y="-64.5" font-family="Helvetica,sans-Serif" font-size="10.00" fill="#000000">VehicleControl::Control</text>
<text text-anchor="middle" x="59.394" y="-52.5" font-family="Helvetica,sans-Serif" font-size="10.00" fill="#000000">::instance</text>
</g>
<!-- Node6 -->
<g id="node2" class="node">
<title>Node6</title>
<g id="a_node2"><a xlink:href="classVehicleControl_1_1Control.html#af4a1b0bf7931a83b9c1b80d27ebaae8f" target="_top" xlink:title="VehicleControl::Control\l::outputs">
<polygon fill="#ffffff" stroke="#000000" points="156.734,-90.5 156.734,-122.5 275.522,-122.5 275.522,-90.5 156.734,-90.5"/>
<text text-anchor="start" x="164.734" y="-109.5" font-family="Helvetica,sans-Serif" font-size="10.00" fill="#000000">VehicleControl::Control</text>
<text text-anchor="middle" x="216.128" y="-97.5" font-family="Helvetica,sans-Serif" font-size="10.00" fill="#000000">::outputs</text>
</a>
</g>
</g>
<!-- Node5&#45;&gt;Node6 -->
<g id="edge1" class="edge">
<title>Node5&#45;&gt;Node6</title>
<path fill="none" stroke="#191970" d="M125.2418,-80.4056C136.9313,-83.7618 149.0024,-87.2275 160.3781,-90.4936"/>
<polygon fill="#191970" stroke="#191970" points="126.1135,-77.0145 115.5359,-77.6189 124.1817,-83.7427 126.1135,-77.0145"/>
</g>
<!-- Node7 -->
<g id="node3" class="node">
<title>Node7</title>
<g id="a_node3"><a xlink:href="namespaceVehicleControl.html#af89cecf99aa4e7787af7433d8f3b6970" target="_top" xlink:title="VehicleControl::callback">
<polygon fill="#ffffff" stroke="#000000" points="154.788,-51.5 154.788,-71.5 277.468,-71.5 277.468,-51.5 154.788,-51.5"/>
<text text-anchor="middle" x="216.128" y="-58.5" font-family="Helvetica,sans-Serif" font-size="10.00" fill="#000000">VehicleControl::callback</text>
</a>
</g>
</g>
<!-- Node5&#45;&gt;Node7 -->
<g id="edge2" class="edge">
<title>Node5&#45;&gt;Node7</title>
<path fill="none" stroke="#191970" d="M129.3433,-61.5C137.821,-61.5 146.4315,-61.5 154.772,-61.5"/>
<polygon fill="#191970" stroke="#191970" points="129.0956,-58.0001 119.0955,-61.5 129.0955,-65.0001 129.0956,-58.0001"/>
</g>
<!-- Node12 -->
<g id="node8" class="node">
<title>Node12</title>
<g id="a_node8"><a xlink:href="main_8cpp.html#ae66f6b31b5ad750f1fe042a706a4e3d4" target="_top" xlink:title="main">
<polygon fill="#ffffff" stroke="#000000" points="197.295,-12.5 197.295,-32.5 234.961,-32.5 234.961,-12.5 197.295,-12.5"/>
<text text-anchor="middle" x="216.128" y="-19.5" font-family="Helvetica,sans-Serif" font-size="10.00" fill="#000000">main</text>
</a>
</g>
</g>
<!-- Node5&#45;&gt;Node12 -->
<g id="edge8" class="edge">
<title>Node5&#45;&gt;Node12</title>
<path fill="none" stroke="#191970" d="M128.9398,-44.195C153.8803,-37.989 180.028,-31.4827 197.1051,-27.2334"/>
<polygon fill="#191970" stroke="#191970" points="127.9545,-40.8333 119.0955,-46.6445 129.6448,-47.6262 127.9545,-40.8333"/>
</g>
<!-- Node8 -->
<g id="node4" class="node">
<title>Node8</title>
<g id="a_node4"><a xlink:href="classVehicleControl_1_1IO_1_1Input.html#aa963e2cb77f82fb52ce77187494e54ea" target="_top" xlink:title="setEdgeCallback setter ">
<polygon fill="#ffffff" stroke="#000000" points="322.346,-90.5 322.346,-122.5 446.715,-122.5 446.715,-90.5 322.346,-90.5"/>
<text text-anchor="start" x="330.346" y="-109.5" font-family="Helvetica,sans-Serif" font-size="10.00" fill="#000000">VehicleControl::IO</text>
<text text-anchor="middle" x="384.5305" y="-97.5" font-family="Helvetica,sans-Serif" font-size="10.00" fill="#000000">::Input::setEdgeCallback</text>
</a>
</g>
</g>
<!-- Node7&#45;&gt;Node8 -->
<g id="edge3" class="edge">
<title>Node7&#45;&gt;Node8</title>
<path fill="none" stroke="#191970" d="M263.7571,-74.2273C282.5994,-79.2623 304.4743,-85.1076 324.389,-90.4292"/>
<polygon fill="#191970" stroke="#191970" points="264.4854,-70.7992 253.9208,-71.5989 262.6783,-77.5619 264.4854,-70.7992"/>
</g>
<!-- Node9 -->
<g id="node5" class="node">
<title>Node9</title>
<g id="a_node5"><a xlink:href="structVehicleControl_1_1IO_1_1Input_1_1Setup.html#a09ce07a96559b6f63eaa51d8eccbc877" target="_top" xlink:title="VehicleControl::IO\l::Input::Setup::Setup">
<polygon fill="#ffffff" stroke="#000000" points="497.4075,-70.5 497.4075,-102.5 604.5665,-102.5 604.5665,-70.5 497.4075,-70.5"/>
<text text-anchor="start" x="505.4075" y="-89.5" font-family="Helvetica,sans-Serif" font-size="10.00" fill="#000000">VehicleControl::IO</text>
<text text-anchor="middle" x="550.987" y="-77.5" font-family="Helvetica,sans-Serif" font-size="10.00" fill="#000000">::Input::Setup::Setup</text>
</a>
</g>
</g>
<!-- Node7&#45;&gt;Node9 -->
<g id="edge5" class="edge">
<title>Node7&#45;&gt;Node9</title>
<path fill="none" stroke="#191970" d="M287.7655,-66.8483C350.5226,-71.5337 440.3389,-78.2392 497.1454,-82.4803"/>
<polygon fill="#191970" stroke="#191970" points="287.7792,-63.3397 277.5463,-66.0854 287.2579,-70.3203 287.7792,-63.3397"/>
</g>
<!-- Node10 -->
<g id="node6" class="node">
<title>Node10</title>
<g id="a_node6"><a xlink:href="namespaceVehicleControl.html#a5756c96006fcbf65cf488b7e2297a73a" target="_top" xlink:title="VehicleControl::createRising\lEdgeThreadedInput">
<polygon fill="#ffffff" stroke="#000000" points="313.468,-.5 313.468,-32.5 455.593,-32.5 455.593,-.5 313.468,-.5"/>
<text text-anchor="start" x="321.468" y="-19.5" font-family="Helvetica,sans-Serif" font-size="10.00" fill="#000000">VehicleControl::createRising</text>
<text text-anchor="middle" x="384.5305" y="-7.5" font-family="Helvetica,sans-Serif" font-size="10.00" fill="#000000">EdgeThreadedInput</text>
</a>
</g>
</g>
<!-- Node7&#45;&gt;Node10 -->
<g id="edge6" class="edge">
<title>Node7&#45;&gt;Node10</title>
<path fill="none" stroke="#191970" d="M263.7571,-48.7727C282.5994,-43.7377 304.4743,-37.8924 324.389,-32.5708"/>
<polygon fill="#191970" stroke="#191970" points="262.6783,-45.4381 253.9208,-51.4011 264.4854,-52.2008 262.6783,-45.4381"/>
</g>
<!-- Node8&#45;&gt;Node9 -->
<g id="edge4" class="edge">
<title>Node8&#45;&gt;Node9</title>
<path fill="none" stroke="#191970" d="M457.1695,-97.7723C470.6124,-96.1571 484.43,-94.4969 497.1885,-92.964"/>
<polygon fill="#191970" stroke="#191970" points="456.4974,-94.3278 446.9863,-98.9958 457.3325,-101.2778 456.4974,-94.3278"/>
</g>
<!-- Node11 -->
<g id="node7" class="node">
<title>Node11</title>
<g id="a_node7"><a xlink:href="classVehicleControl_1_1Control_1_1IOFactory.html#a4d4de0203bf577352199f49c67f49d98" target="_top" xlink:title="fillInputList method fills in all of the app&#39;s inputs ">
<polygon fill="#ffffff" stroke="#000000" points="491.593,-.5 491.593,-32.5 610.381,-32.5 610.381,-.5 491.593,-.5"/>
<text text-anchor="start" x="499.593" y="-19.5" font-family="Helvetica,sans-Serif" font-size="10.00" fill="#000000">VehicleControl::Control</text>
<text text-anchor="middle" x="550.987" y="-7.5" font-family="Helvetica,sans-Serif" font-size="10.00" fill="#000000">::IOFactory::fillInputList</text>
</a>
</g>
</g>
<!-- Node10&#45;&gt;Node11 -->
<g id="edge7" class="edge">
<title>Node10&#45;&gt;Node11</title>
<path fill="none" stroke="#191970" d="M465.7294,-16.5C474.3838,-16.5 483.0674,-16.5 491.4057,-16.5"/>
<polygon fill="#191970" stroke="#191970" points="465.6059,-13.0001 455.6059,-16.5 465.6058,-20.0001 465.6059,-13.0001"/>
</g>
</g>
</svg>
