<?xml version="1.0" encoding="UTF-8" standalone="no"?>
<!DOCTYPE svg PUBLIC "-//W3C//DTD SVG 1.1//EN"
 "http://www.w3.org/Graphics/SVG/1.1/DTD/svg11.dtd">
<!-- Generated by graphviz version 2.40.1 (20161225.0304)
 -->
<!-- Title: LibBBB::ThreadHelper::startDetachedThread Pages: 1 -->
<svg width="591pt" height="216pt"
 viewBox="0.00 0.00 591.18 216.00" xmlns="http://www.w3.org/2000/svg" xmlns:xlink="http://www.w3.org/1999/xlink">
<g id="graph0" class="graph" transform="scale(1 1) rotate(0) translate(4 212)">
<title>LibBBB::ThreadHelper::startDetachedThread</title>
<polygon fill="#ffffff" stroke="transparent" points="-4,4 -4,-212 587.176,-212 587.176,4 -4,4"/>
<!-- Node1 -->
<g id="node1" class="node">
<title>Node1</title>
<polygon fill="#bfbfbf" stroke="#000000" points="0,-98.5 0,-130.5 116.02,-130.5 116.02,-98.5 0,-98.5"/>
<text text-anchor="start" x="8" y="-117.5" font-family="Helvetica,sans-Serif" font-size="10.00" fill="#000000">LibBBB::ThreadHelper</text>
<text text-anchor="middle" x="58.01" y="-105.5" font-family="Helvetica,sans-Serif" font-size="10.00" fill="#000000">::startDetachedThread</text>
</g>
<!-- Node2 -->
<g id="node2" class="node">
<title>Node2</title>
<g id="a_node2"><a xlink:href="classLibBBB_1_1Bluetooth_1_1Manager.html#ae004b4701f383a22e0b9cb1093f579bb" target="_top" xlink:title="Manager creates an instance of the Bluetooth manager. ">
<polygon fill="#ffffff" stroke="#000000" points="165.0675,-175.5 165.0675,-207.5 267.7685,-207.5 267.7685,-175.5 165.0675,-175.5"/>
<text text-anchor="start" x="173.0675" y="-194.5" font-family="Helvetica,sans-Serif" font-size="10.00" fill="#000000">LibBBB::Bluetooth::</text>
<text text-anchor="middle" x="216.418" y="-182.5" font-family="Helvetica,sans-Serif" font-size="10.00" fill="#000000">Manager::Manager</text>
</a>
</g>
</g>
<!-- Node1&#45;&gt;Node2 -->
<g id="edge1" class="edge">
<title>Node1&#45;&gt;Node2</title>
<path fill="none" stroke="#191970" d="M93.3497,-135.5301C110.7324,-145.4895 132.1684,-157.2082 152.02,-166.5 158.6459,-169.6013 165.7705,-172.6442 172.78,-175.4802"/>
<polygon fill="#191970" stroke="#191970" points="95.0679,-132.4807 84.659,-130.5045 91.5637,-138.5404 95.0679,-132.4807"/>
</g>
<!-- Node3 -->
<g id="node3" class="node">
<title>Node3</title>
<g id="a_node3"><a xlink:href="classLibBBB_1_1IO_1_1Input.html#a3a448ebc4e13f3813b6b80566af3fe79" target="_top" xlink:title="waitForEdgeThreaded does the same thing as waitForEdge(), but does so in a threaded manner...">
<polygon fill="#ffffff" stroke="#000000" points="158.9625,-124.5 158.9625,-156.5 273.8735,-156.5 273.8735,-124.5 158.9625,-124.5"/>
<text text-anchor="start" x="166.9625" y="-143.5" font-family="Helvetica,sans-Serif" font-size="10.00" fill="#000000">LibBBB::IO::Input::</text>
<text text-anchor="middle" x="216.418" y="-131.5" font-family="Helvetica,sans-Serif" font-size="10.00" fill="#000000">waitForEdgeThreaded</text>
</a>
</g>
</g>
<!-- Node1&#45;&gt;Node3 -->
<g id="edge2" class="edge">
<title>Node1&#45;&gt;Node3</title>
<path fill="none" stroke="#191970" d="M126.0362,-125.6654C136.9758,-127.4609 148.2058,-129.3041 158.8685,-131.0542"/>
<polygon fill="#191970" stroke="#191970" points="126.5307,-122.1998 116.0958,-124.0338 125.3969,-129.1073 126.5307,-122.1998"/>
</g>
<!-- Node6 -->
<g id="node6" class="node">
<title>Node6</title>
<g id="a_node6"><a xlink:href="classLibBBB_1_1IO_1_1MotorControl.html#a55cb5ace57f63ba73e679b5f79c3459a" target="_top" xlink:title="MotorControl ServoControl constructor creates the class, and spawns the frequency control thread...">
<polygon fill="#ffffff" stroke="#000000" points="152.02,-73.5 152.02,-105.5 280.816,-105.5 280.816,-73.5 152.02,-73.5"/>
<text text-anchor="start" x="160.02" y="-92.5" font-family="Helvetica,sans-Serif" font-size="10.00" fill="#000000">LibBBB::IO::MotorControl</text>
<text text-anchor="middle" x="216.418" y="-80.5" font-family="Helvetica,sans-Serif" font-size="10.00" fill="#000000">::MotorControl</text>
</a>
</g>
</g>
<!-- Node1&#45;&gt;Node6 -->
<g id="edge6" class="edge">
<title>Node1&#45;&gt;Node6</title>
<path fill="none" stroke="#191970" d="M126.0616,-103.7601C134.6419,-102.4059 143.4003,-101.0237 151.9232,-99.6786"/>
<polygon fill="#191970" stroke="#191970" points="125.4279,-100.3167 116.0958,-105.3329 126.5192,-107.2311 125.4279,-100.3167"/>
</g>
<!-- Node7 -->
<g id="node7" class="node">
<title>Node7</title>
<g id="a_node7"><a xlink:href="classLibBBB_1_1IO_1_1UserLED.html#a5d6714d1ddc854308c1d4cc5448ded07" target="_top" xlink:title="setState method sets the state of the LED ">
<polygon fill="#ffffff" stroke="#000000" points="160.632,-22.5 160.632,-54.5 272.204,-54.5 272.204,-22.5 160.632,-22.5"/>
<text text-anchor="start" x="168.632" y="-41.5" font-family="Helvetica,sans-Serif" font-size="10.00" fill="#000000">LibBBB::IO::UserLED</text>
<text text-anchor="middle" x="216.418" y="-29.5" font-family="Helvetica,sans-Serif" font-size="10.00" fill="#000000">::setState</text>
</a>
</g>
</g>
<!-- Node1&#45;&gt;Node7 -->
<g id="edge7" class="edge">
<title>Node1&#45;&gt;Node7</title>
<path fill="none" stroke="#191970" d="M95.489,-93.4037C112.5291,-84.1152 133.0769,-73.3318 152.02,-64.5 159.3416,-61.0865 167.2418,-57.6788 174.9163,-54.5077"/>
<polygon fill="#191970" stroke="#191970" points="93.495,-90.5057 86.4157,-98.3883 96.8654,-96.6409 93.495,-90.5057"/>
</g>
<!-- Node4 -->
<g id="node4" class="node">
<title>Node4</title>
<g id="a_node4"><a xlink:href="classLibBBB_1_1IO_1_1Input.html#a4e59f6e2c64f7a85adff569daf35b3d3" target="_top" xlink:title="Input constructs an input based on the given setup. The constructor will automatically export the pin...">
<polygon fill="#ffffff" stroke="#000000" points="326.8045,-166.5 326.8045,-198.5 425.6155,-198.5 425.6155,-166.5 326.8045,-166.5"/>
<text text-anchor="start" x="334.8045" y="-185.5" font-family="Helvetica,sans-Serif" font-size="10.00" fill="#000000">LibBBB::IO::Input::</text>
<text text-anchor="middle" x="376.21" y="-173.5" font-family="Helvetica,sans-Serif" font-size="10.00" fill="#000000">Input</text>
</a>
</g>
</g>
<!-- Node3&#45;&gt;Node4 -->
<g id="edge3" class="edge">
<title>Node3&#45;&gt;Node4</title>
<path fill="none" stroke="#191970" d="M283.9463,-158.2492C298.3195,-162.0271 313.2401,-165.9489 326.786,-169.5093"/>
<polygon fill="#191970" stroke="#191970" points="284.6678,-154.8201 274.1066,-155.663 282.8883,-161.5901 284.6678,-154.8201"/>
</g>
<!-- Node5 -->
<g id="node5" class="node">
<title>Node5</title>
<g id="a_node5"><a xlink:href="structLibBBB_1_1IO_1_1Input_1_1Setup.html#a1ad926b46c1818dd934b0b99ddb63386" target="_top" xlink:title="LibBBB::IO::Input::\lSetup::Setup">
<polygon fill="#ffffff" stroke="#000000" points="477.9845,-143.5 477.9845,-175.5 576.7955,-175.5 576.7955,-143.5 477.9845,-143.5"/>
<text text-anchor="start" x="485.9845" y="-162.5" font-family="Helvetica,sans-Serif" font-size="10.00" fill="#000000">LibBBB::IO::Input::</text>
<text text-anchor="middle" x="527.39" y="-150.5" font-family="Helvetica,sans-Serif" font-size="10.00" fill="#000000">Setup::Setup</text>
</a>
</g>
</g>
<!-- Node3&#45;&gt;Node5 -->
<g id="edge5" class="edge">
<title>Node3&#45;&gt;Node5</title>
<path fill="none" stroke="#191970" d="M284.4062,-144.654C342.7021,-148.2158 425.3279,-153.2641 477.6304,-156.4598"/>
<polygon fill="#191970" stroke="#191970" points="284.3755,-141.1457 274.1807,-144.0292 283.9486,-148.1327 284.3755,-141.1457"/>
</g>
<!-- Node4&#45;&gt;Node5 -->
<g id="edge4" class="edge">
<title>Node4&#45;&gt;Node5</title>
<path fill="none" stroke="#191970" d="M435.6937,-173.4504C449.6273,-171.3305 464.3267,-169.0942 477.7768,-167.048"/>
<polygon fill="#191970" stroke="#191970" points="435.0718,-170.0046 425.712,-174.9689 436.1247,-176.925 435.0718,-170.0046"/>
</g>
<!-- Node8 -->
<g id="node8" class="node">
<title>Node8</title>
<g id="a_node8"><a xlink:href="classVehicleControl_1_1Control.html#aaaa31c5094e42f0f9795187d59ed10c4" target="_top" xlink:title="VehicleControl::Control\l::~Control">
<polygon fill="#ffffff" stroke="#000000" points="316.816,-73.5 316.816,-105.5 435.604,-105.5 435.604,-73.5 316.816,-73.5"/>
<text text-anchor="start" x="324.816" y="-92.5" font-family="Helvetica,sans-Serif" font-size="10.00" fill="#000000">VehicleControl::Control</text>
<text text-anchor="middle" x="376.21" y="-80.5" font-family="Helvetica,sans-Serif" font-size="10.00" fill="#000000">::~Control</text>
</a>
</g>
</g>
<!-- Node7&#45;&gt;Node8 -->
<g id="edge8" class="edge">
<title>Node7&#45;&gt;Node8</title>
<path fill="none" stroke="#191970" d="M276.8872,-57.7997C293.08,-62.9678 310.4062,-68.4977 325.9797,-73.4683"/>
<polygon fill="#191970" stroke="#191970" points="277.568,-54.343 266.9772,-54.6367 275.4395,-61.0116 277.568,-54.343"/>
</g>
<!-- Node9 -->
<g id="node9" class="node">
<title>Node9</title>
<g id="a_node9"><a xlink:href="classLibBBB_1_1IO_1_1UserLED.html#a3ae6a5944f06980dee85eb4504ec9eb0" target="_top" xlink:title="changeBlinkTime method changes the time of the blink ">
<polygon fill="#ffffff" stroke="#000000" points="320.424,-22.5 320.424,-54.5 431.996,-54.5 431.996,-22.5 320.424,-22.5"/>
<text text-anchor="start" x="328.424" y="-41.5" font-family="Helvetica,sans-Serif" font-size="10.00" fill="#000000">LibBBB::IO::UserLED</text>
<text text-anchor="middle" x="376.21" y="-29.5" font-family="Helvetica,sans-Serif" font-size="10.00" fill="#000000">::changeBlinkTime</text>
</a>
</g>
</g>
<!-- Node7&#45;&gt;Node9 -->
<g id="edge9" class="edge">
<title>Node7&#45;&gt;Node9</title>
<path fill="none" stroke="#191970" d="M282.3121,-38.5C294.9498,-38.5 308.07,-38.5 320.3541,-38.5"/>
<polygon fill="#191970" stroke="#191970" points="282.3055,-35.0001 272.3055,-38.5 282.3055,-42.0001 282.3055,-35.0001"/>
</g>
<!-- Node10 -->
<g id="node10" class="node">
<title>Node10</title>
<g id="a_node10"><a xlink:href="structLibBBB_1_1IO_1_1UserLED_1_1Setup.html#a25c259e98aa65d6594d0031eb0463b01" target="_top" xlink:title="LibBBB::IO::UserLED\l::Setup::Setup">
<polygon fill="#ffffff" stroke="#000000" points="471.604,-.5 471.604,-32.5 583.176,-32.5 583.176,-.5 471.604,-.5"/>
<text text-anchor="start" x="479.604" y="-19.5" font-family="Helvetica,sans-Serif" font-size="10.00" fill="#000000">LibBBB::IO::UserLED</text>
<text text-anchor="middle" x="527.39" y="-7.5" font-family="Helvetica,sans-Serif" font-size="10.00" fill="#000000">::Setup::Setup</text>
</a>
</g>
</g>
<!-- Node7&#45;&gt;Node10 -->
<g id="edge11" class="edge">
<title>Node7&#45;&gt;Node10</title>
<path fill="none" stroke="#191970" d="M278.0559,-19.9232C290.7592,-16.8358 304.132,-14.1157 316.816,-12.5 368.8656,-5.8697 428.7277,-7.9295 471.2892,-11.0202"/>
<polygon fill="#191970" stroke="#191970" points="276.8703,-16.613 268.0376,-22.464 278.5911,-23.3982 276.8703,-16.613"/>
</g>
<!-- Node9&#45;&gt;Node10 -->
<g id="edge10" class="edge">
<title>Node9&#45;&gt;Node10</title>
<path fill="none" stroke="#191970" d="M442.1633,-28.9024C451.9476,-27.4785 461.951,-26.0228 471.503,-24.6328"/>
<polygon fill="#191970" stroke="#191970" points="441.466,-25.4669 432.0743,-30.3705 442.4741,-32.3939 441.466,-25.4669"/>
</g>
</g>
</svg>
