<?xml version="1.0" encoding="UTF-8" standalone="no"?>
<!DOCTYPE svg PUBLIC "-//W3C//DTD SVG 1.1//EN"
 "http://www.w3.org/Graphics/SVG/1.1/DTD/svg11.dtd">
<!-- Generated by graphviz version 2.40.1 (20161225.0304)
 -->
<!-- Title: VehicleControl::IO::IOBase::setDirection Pages: 1 -->
<svg width="254pt" height="41pt"
 viewBox="0.00 0.00 254.36 41.00" xmlns="http://www.w3.org/2000/svg" xmlns:xlink="http://www.w3.org/1999/xlink">
<g id="graph0" class="graph" transform="scale(1 1) rotate(0) translate(4 37)">
<title>VehicleControl::IO::IOBase::setDirection</title>
<polygon fill="#ffffff" stroke="transparent" points="-4,4 -4,-37 250.364,-37 250.364,4 -4,4"/>
<!-- Node48 -->
<g id="node1" class="node">
<title>Node48</title>
<polygon fill="#bfbfbf" stroke="#000000" points="0,-.5 0,-32.5 113.241,-32.5 113.241,-.5 0,-.5"/>
<text text-anchor="start" x="8" y="-19.5" font-family="Helvetica,sans-Serif" font-size="10.00" fill="#000000">VehicleControl::IO</text>
<text text-anchor="middle" x="56.6205" y="-7.5" font-family="Helvetica,sans-Serif" font-size="10.00" fill="#000000">::IOBase::setDirection</text>
</g>
<!-- Node49 -->
<g id="node2" class="node">
<title>Node49</title>
<g id="a_node2"><a xlink:href="classVehicleControl_1_1IO_1_1IOBase.html#a80cc7b63461e138451f00217a9e4fc61" target="_top" xlink:title="IOBase creates an instance of the base io class. ">
<polygon fill="#ffffff" stroke="#000000" points="149.241,-.5 149.241,-32.5 246.364,-32.5 246.364,-.5 149.241,-.5"/>
<text text-anchor="start" x="157.241" y="-19.5" font-family="Helvetica,sans-Serif" font-size="10.00" fill="#000000">VehicleControl::IO</text>
<text text-anchor="middle" x="197.8025" y="-7.5" font-family="Helvetica,sans-Serif" font-size="10.00" fill="#000000">::IOBase::IOBase</text>
</a>
</g>
</g>
<!-- Node48&#45;&gt;Node49 -->
<g id="edge1" class="edge">
<title>Node48&#45;&gt;Node49</title>
<path fill="none" stroke="#191970" d="M123.6755,-16.5C132.2799,-16.5 140.9545,-16.5 149.1863,-16.5"/>
<polygon fill="#191970" stroke="#191970" points="123.6377,-13.0001 113.6377,-16.5 123.6376,-20.0001 123.6377,-13.0001"/>
</g>
</g>
</svg>
