<?xml version="1.0" encoding="UTF-8" standalone="no"?>
<!DOCTYPE svg PUBLIC "-//W3C//DTD SVG 1.1//EN"
 "http://www.w3.org/Graphics/SVG/1.1/DTD/svg11.dtd">
<!-- Generated by graphviz version 2.40.1 (20161225.0304)
 -->
<!-- Title: VehicleControl::Bluetooth::Client::isConnected Pages: 1 -->
<svg width="835pt" height="143pt"
 viewBox="0.00 0.00 834.94 143.00" xmlns="http://www.w3.org/2000/svg" xmlns:xlink="http://www.w3.org/1999/xlink">
<g id="graph0" class="graph" transform="scale(1 1) rotate(0) translate(4 139)">
<title>VehicleControl::Bluetooth::Client::isConnected</title>
<polygon fill="#ffffff" stroke="transparent" points="-4,4 -4,-139 830.939,-139 830.939,4 -4,4"/>
<!-- Node5 -->
<g id="node1" class="node">
<title>Node5</title>
<polygon fill="#bfbfbf" stroke="#000000" points="0,-57.5 0,-89.5 128.806,-89.5 128.806,-57.5 0,-57.5"/>
<text text-anchor="start" x="8" y="-76.5" font-family="Helvetica,sans-Serif" font-size="10.00" fill="#000000">VehicleControl::Bluetooth</text>
<text text-anchor="middle" x="64.403" y="-64.5" font-family="Helvetica,sans-Serif" font-size="10.00" fill="#000000">::Client::isConnected</text>
</g>
<!-- Node6 -->
<g id="node2" class="node">
<title>Node6</title>
<g id="a_node2"><a xlink:href="classThreadHelper.html#a4426e115e7858a4b6f6eedbc77302756" target="_top" xlink:title="startDetachedThread ">
<polygon fill="#ffffff" stroke="#000000" points="494.418,-102.5 494.418,-134.5 639.333,-134.5 639.333,-102.5 494.418,-102.5"/>
<text text-anchor="start" x="502.418" y="-121.5" font-family="Helvetica,sans-Serif" font-size="10.00" fill="#000000">ThreadHelper::startDetached</text>
<text text-anchor="middle" x="566.8755" y="-109.5" font-family="Helvetica,sans-Serif" font-size="10.00" fill="#000000">Thread</text>
</a>
</g>
</g>
<!-- Node5&#45;&gt;Node6 -->
<g id="edge1" class="edge">
<title>Node5&#45;&gt;Node6</title>
<path fill="none" stroke="#191970" d="M117.9104,-89.5335C132.9505,-93.4432 149.4064,-97.1678 164.806,-99.5 274.3003,-116.0827 402.3069,-119.4157 483.9481,-119.5486"/>
<polygon fill="#191970" stroke="#191970" points="484.1639,-123.0485 494.164,-119.5488 484.1641,-116.0485 484.1639,-123.0485"/>
</g>
<!-- Node7 -->
<g id="node3" class="node">
<title>Node7</title>
<g id="a_node3"><a xlink:href="classVehicleControl_1_1Bluetooth_1_1Base.html#aa491a785ca4b2feee3bc3d8ea876c59e" target="_top" xlink:title="setupSocket ">
<polygon fill="#ffffff" stroke="#000000" points="164.806,-6.5 164.806,-38.5 293.612,-38.5 293.612,-6.5 164.806,-6.5"/>
<text text-anchor="start" x="172.806" y="-25.5" font-family="Helvetica,sans-Serif" font-size="10.00" fill="#000000">VehicleControl::Bluetooth</text>
<text text-anchor="middle" x="229.209" y="-13.5" font-family="Helvetica,sans-Serif" font-size="10.00" fill="#000000">::Base::setupSocket</text>
</a>
</g>
</g>
<!-- Node5&#45;&gt;Node7 -->
<g id="edge2" class="edge">
<title>Node5&#45;&gt;Node7</title>
<path fill="none" stroke="#191970" d="M116.5486,-57.3633C132.7879,-52.338 150.8477,-46.7493 167.6665,-41.5446"/>
<polygon fill="#191970" stroke="#191970" points="168.8842,-44.8316 177.4026,-38.5317 166.8148,-38.1445 168.8842,-44.8316"/>
</g>
<!-- Node8 -->
<g id="node4" class="node">
<title>Node8</title>
<g id="a_node4"><a xlink:href="classVehicleControl_1_1Bluetooth_1_1Base.html#a6c41447b1283d1b90459cbdae3a54480" target="_top" xlink:title="startBothThreads ">
<polygon fill="#ffffff" stroke="#000000" points="164.806,-57.5 164.806,-89.5 293.612,-89.5 293.612,-57.5 164.806,-57.5"/>
<text text-anchor="start" x="172.806" y="-76.5" font-family="Helvetica,sans-Serif" font-size="10.00" fill="#000000">VehicleControl::Bluetooth</text>
<text text-anchor="middle" x="229.209" y="-64.5" font-family="Helvetica,sans-Serif" font-size="10.00" fill="#000000">::Base::startBothThreads</text>
</a>
</g>
</g>
<!-- Node5&#45;&gt;Node8 -->
<g id="edge3" class="edge">
<title>Node5&#45;&gt;Node8</title>
<path fill="none" stroke="#191970" d="M129.0657,-73.5C137.4001,-73.5 145.9888,-73.5 154.4683,-73.5"/>
<polygon fill="#191970" stroke="#191970" points="154.7328,-77.0001 164.7328,-73.5 154.7328,-70.0001 154.7328,-77.0001"/>
</g>
<!-- Node9 -->
<g id="node5" class="node">
<title>Node9</title>
<g id="a_node5"><a xlink:href="classVehicleControl_1_1Bluetooth_1_1Base.html#a0d454a071fb0e38cf668cb82d5f93a3c" target="_top" xlink:title="startReadThread ">
<polygon fill="#ffffff" stroke="#000000" points="329.612,-6.5 329.612,-38.5 458.418,-38.5 458.418,-6.5 329.612,-6.5"/>
<text text-anchor="start" x="337.612" y="-25.5" font-family="Helvetica,sans-Serif" font-size="10.00" fill="#000000">VehicleControl::Bluetooth</text>
<text text-anchor="middle" x="394.015" y="-13.5" font-family="Helvetica,sans-Serif" font-size="10.00" fill="#000000">::Base::startReadThread</text>
</a>
</g>
</g>
<!-- Node8&#45;&gt;Node9 -->
<g id="edge4" class="edge">
<title>Node8&#45;&gt;Node9</title>
<path fill="none" stroke="#191970" d="M281.3546,-57.3633C297.5939,-52.338 315.6537,-46.7493 332.4725,-41.5446"/>
<polygon fill="#191970" stroke="#191970" points="333.6902,-44.8316 342.2086,-38.5317 331.6208,-38.1445 333.6902,-44.8316"/>
</g>
<!-- Node12 -->
<g id="node8" class="node">
<title>Node12</title>
<g id="a_node8"><a xlink:href="classVehicleControl_1_1Bluetooth_1_1Base.html#a73cb44dceb3bf46a3fb2acce2091be2a" target="_top" xlink:title="startWriteThread ">
<polygon fill="#ffffff" stroke="#000000" points="329.612,-57.5 329.612,-89.5 458.418,-89.5 458.418,-57.5 329.612,-57.5"/>
<text text-anchor="start" x="337.612" y="-76.5" font-family="Helvetica,sans-Serif" font-size="10.00" fill="#000000">VehicleControl::Bluetooth</text>
<text text-anchor="middle" x="394.015" y="-64.5" font-family="Helvetica,sans-Serif" font-size="10.00" fill="#000000">::Base::startWriteThread</text>
</a>
</g>
</g>
<!-- Node8&#45;&gt;Node12 -->
<g id="edge8" class="edge">
<title>Node8&#45;&gt;Node12</title>
<path fill="none" stroke="#191970" d="M293.8717,-73.5C302.2061,-73.5 310.7948,-73.5 319.2743,-73.5"/>
<polygon fill="#191970" stroke="#191970" points="319.5388,-77.0001 329.5388,-73.5 319.5388,-70.0001 319.5388,-77.0001"/>
</g>
<!-- Node9&#45;&gt;Node6 -->
<g id="edge5" class="edge">
<title>Node9&#45;&gt;Node6</title>
<path fill="none" stroke="#191970" d="M443.6516,-38.5634C448.8562,-41.1715 453.8915,-44.1402 458.418,-47.5 479.2643,-62.9728 473.2813,-78.4264 494.418,-93.5 496.5036,-94.9873 498.6852,-96.3924 500.9367,-97.719"/>
<polygon fill="#191970" stroke="#191970" points="499.4338,-100.8834 509.9113,-102.456 502.7014,-94.6928 499.4338,-100.8834"/>
</g>
<!-- Node10 -->
<g id="node6" class="node">
<title>Node10</title>
<g id="a_node6"><a xlink:href="classVehicleControl_1_1Bluetooth_1_1Base.html#aa84d403a6275189ad0f96afb8dd57e31" target="_top" xlink:title="readMessage ">
<polygon fill="#ffffff" stroke="#000000" points="502.4725,-.5 502.4725,-32.5 631.2785,-32.5 631.2785,-.5 502.4725,-.5"/>
<text text-anchor="start" x="510.4725" y="-19.5" font-family="Helvetica,sans-Serif" font-size="10.00" fill="#000000">VehicleControl::Bluetooth</text>
<text text-anchor="middle" x="566.8755" y="-7.5" font-family="Helvetica,sans-Serif" font-size="10.00" fill="#000000">::Base::readMessage</text>
</a>
</g>
</g>
<!-- Node9&#45;&gt;Node10 -->
<g id="edge6" class="edge">
<title>Node9&#45;&gt;Node10</title>
<path fill="none" stroke="#191970" d="M458.8737,-20.2488C469.7291,-19.872 481.0695,-19.4783 492.1485,-19.0938"/>
<polygon fill="#191970" stroke="#191970" points="492.3557,-22.5888 502.2282,-18.7439 492.1128,-15.593 492.3557,-22.5888"/>
</g>
<!-- Node11 -->
<g id="node7" class="node">
<title>Node11</title>
<g id="a_node7"><a xlink:href="classVehicleControl_1_1Bluetooth_1_1Base.html#ab395ffe7b3b7a1a76007224588969bd2" target="_top" xlink:title="handleConnectionLoss ">
<polygon fill="#ffffff" stroke="#000000" points="675.333,-.5 675.333,-32.5 826.939,-32.5 826.939,-.5 675.333,-.5"/>
<text text-anchor="start" x="683.333" y="-19.5" font-family="Helvetica,sans-Serif" font-size="10.00" fill="#000000">VehicleControl::Bluetooth</text>
<text text-anchor="middle" x="751.136" y="-7.5" font-family="Helvetica,sans-Serif" font-size="10.00" fill="#000000">::Base::handleConnectionLoss</text>
</a>
</g>
</g>
<!-- Node10&#45;&gt;Node11 -->
<g id="edge7" class="edge">
<title>Node10&#45;&gt;Node11</title>
<path fill="none" stroke="#191970" d="M631.3209,-16.5C642.127,-16.5 653.4933,-16.5 664.7449,-16.5"/>
<polygon fill="#191970" stroke="#191970" points="665.0266,-20.0001 675.0266,-16.5 665.0265,-13.0001 665.0266,-20.0001"/>
</g>
<!-- Node12&#45;&gt;Node6 -->
<g id="edge9" class="edge">
<title>Node12&#45;&gt;Node6</title>
<path fill="none" stroke="#191970" d="M455.9334,-89.6189C468.7482,-92.955 482.3468,-96.495 495.4688,-99.911"/>
<polygon fill="#191970" stroke="#191970" points="494.8302,-103.3614 505.3894,-102.4936 496.5938,-96.5871 494.8302,-103.3614"/>
</g>
<!-- Node13 -->
<g id="node9" class="node">
<title>Node13</title>
<g id="a_node9"><a xlink:href="classVehicleControl_1_1Bluetooth_1_1Base.html#a8630ce75edbbb0e64227ffc5e3249c62" target="_top" xlink:title="writeMessage ">
<polygon fill="#ffffff" stroke="#000000" points="502.4725,-51.5 502.4725,-83.5 631.2785,-83.5 631.2785,-51.5 502.4725,-51.5"/>
<text text-anchor="start" x="510.4725" y="-70.5" font-family="Helvetica,sans-Serif" font-size="10.00" fill="#000000">VehicleControl::Bluetooth</text>
<text text-anchor="middle" x="566.8755" y="-58.5" font-family="Helvetica,sans-Serif" font-size="10.00" fill="#000000">::Base::writeMessage</text>
</a>
</g>
</g>
<!-- Node12&#45;&gt;Node13 -->
<g id="edge10" class="edge">
<title>Node12&#45;&gt;Node13</title>
<path fill="none" stroke="#191970" d="M458.8737,-71.2488C469.7291,-70.872 481.0695,-70.4783 492.1485,-70.0938"/>
<polygon fill="#191970" stroke="#191970" points="492.3557,-73.5888 502.2282,-69.7439 492.1128,-66.593 492.3557,-73.5888"/>
</g>
</g>
</svg>
