<?xml version="1.0" encoding="UTF-8" standalone="no"?>
<!DOCTYPE svg PUBLIC "-//W3C//DTD SVG 1.1//EN"
 "http://www.w3.org/Graphics/SVG/1.1/DTD/svg11.dtd">
<!-- Generated by graphviz version 2.40.1 (20161225.0304)
 -->
<!-- Title: VehicleControl::IO::Output::isToggling Pages: 1 -->
<svg width="262pt" height="41pt"
 viewBox="0.00 0.00 261.63 41.00" xmlns="http://www.w3.org/2000/svg" xmlns:xlink="http://www.w3.org/1999/xlink">
<g id="graph0" class="graph" transform="scale(1 1) rotate(0) translate(4 37)">
<title>VehicleControl::IO::Output::isToggling</title>
<polygon fill="#ffffff" stroke="transparent" points="-4,4 -4,-37 257.629,-37 257.629,4 -4,4"/>
<!-- Node18 -->
<g id="node1" class="node">
<title>Node18</title>
<polygon fill="#bfbfbf" stroke="#000000" points="0,-.5 0,-32.5 102.691,-32.5 102.691,-.5 0,-.5"/>
<text text-anchor="start" x="8" y="-19.5" font-family="Helvetica,sans-Serif" font-size="10.00" fill="#000000">VehicleControl::IO</text>
<text text-anchor="middle" x="51.3455" y="-7.5" font-family="Helvetica,sans-Serif" font-size="10.00" fill="#000000">::Output::isToggling</text>
</g>
<!-- Node19 -->
<g id="node2" class="node">
<title>Node19</title>
<g id="a_node2"><a xlink:href="structVehicleControl_1_1IO_1_1Output_1_1Setup.html#a6346d200fcd68fb1693f1e3ae9c9d3af" target="_top" xlink:title="VehicleControl::IO\l::Output::Setup::Setup">
<polygon fill="#ffffff" stroke="#000000" points="138.691,-.5 138.691,-32.5 253.629,-32.5 253.629,-.5 138.691,-.5"/>
<text text-anchor="start" x="146.691" y="-19.5" font-family="Helvetica,sans-Serif" font-size="10.00" fill="#000000">VehicleControl::IO</text>
<text text-anchor="middle" x="196.16" y="-7.5" font-family="Helvetica,sans-Serif" font-size="10.00" fill="#000000">::Output::Setup::Setup</text>
</a>
</g>
</g>
<!-- Node18&#45;&gt;Node19 -->
<g id="edge1" class="edge">
<title>Node18&#45;&gt;Node19</title>
<path fill="none" stroke="#191970" d="M112.9833,-16.5C121.4315,-16.5 130.0797,-16.5 138.4541,-16.5"/>
<polygon fill="#191970" stroke="#191970" points="112.8095,-13.0001 102.8094,-16.5 112.8094,-20.0001 112.8095,-13.0001"/>
</g>
</g>
</svg>
