<?xml version="1.0" encoding="UTF-8" standalone="no"?>
<!DOCTYPE svg PUBLIC "-//W3C//DTD SVG 1.1//EN"
 "http://www.w3.org/Graphics/SVG/1.1/DTD/svg11.dtd">
<!-- Generated by graphviz version 2.40.1 (20161225.0304)
 -->
<!-- Title: VehicleControl::IO::Output::cancelToggle Pages: 1 -->
<svg width="276pt" height="41pt"
 viewBox="0.00 0.00 275.53 41.00" xmlns="http://www.w3.org/2000/svg" xmlns:xlink="http://www.w3.org/1999/xlink">
<g id="graph0" class="graph" transform="scale(1 1) rotate(0) translate(4 37)">
<title>VehicleControl::IO::Output::cancelToggle</title>
<polygon fill="#ffffff" stroke="transparent" points="-4,4 -4,-37 271.528,-37 271.528,4 -4,4"/>
<!-- Node12 -->
<g id="node1" class="node">
<title>Node12</title>
<polygon fill="#bfbfbf" stroke="#000000" points="0,-.5 0,-32.5 116.59,-32.5 116.59,-.5 0,-.5"/>
<text text-anchor="start" x="8" y="-19.5" font-family="Helvetica,sans-Serif" font-size="10.00" fill="#000000">VehicleControl::IO</text>
<text text-anchor="middle" x="58.295" y="-7.5" font-family="Helvetica,sans-Serif" font-size="10.00" fill="#000000">::Output::cancelToggle</text>
</g>
<!-- Node13 -->
<g id="node2" class="node">
<title>Node13</title>
<g id="a_node2"><a xlink:href="structVehicleControl_1_1IO_1_1Output_1_1Setup.html#a6346d200fcd68fb1693f1e3ae9c9d3af" target="_top" xlink:title="VehicleControl::IO\l::Output::Setup::Setup">
<polygon fill="#ffffff" stroke="#000000" points="152.59,-.5 152.59,-32.5 267.528,-32.5 267.528,-.5 152.59,-.5"/>
<text text-anchor="start" x="160.59" y="-19.5" font-family="Helvetica,sans-Serif" font-size="10.00" fill="#000000">VehicleControl::IO</text>
<text text-anchor="middle" x="210.059" y="-7.5" font-family="Helvetica,sans-Serif" font-size="10.00" fill="#000000">::Output::Setup::Setup</text>
</a>
</g>
</g>
<!-- Node12&#45;&gt;Node13 -->
<g id="edge1" class="edge">
<title>Node12&#45;&gt;Node13</title>
<path fill="none" stroke="#191970" d="M127.2127,-16.5C135.6801,-16.5 144.264,-16.5 152.5382,-16.5"/>
<polygon fill="#191970" stroke="#191970" points="126.971,-13.0001 116.9709,-16.5 126.9709,-20.0001 126.971,-13.0001"/>
</g>
</g>
</svg>
