<?xml version="1.0" encoding="UTF-8" standalone="no"?>
<!DOCTYPE svg PUBLIC "-//W3C//DTD SVG 1.1//EN"
 "http://www.w3.org/Graphics/SVG/1.1/DTD/svg11.dtd">
<!-- Generated by graphviz version 2.40.1 (20161225.0304)
 -->
<!-- Title: LibBBB::IO::Input::setEdgeCallback Pages: 1 -->
<svg width="565pt" height="92pt"
 viewBox="0.00 0.00 565.08 92.00" xmlns="http://www.w3.org/2000/svg" xmlns:xlink="http://www.w3.org/1999/xlink">
<g id="graph0" class="graph" transform="scale(1 1) rotate(0) translate(4 88)">
<title>LibBBB::IO::Input::setEdgeCallback</title>
<polygon fill="#ffffff" stroke="transparent" points="-4,4 -4,-88 561.083,-88 561.083,4 -4,4"/>
<!-- Node28 -->
<g id="node1" class="node">
<title>Node28</title>
<polygon fill="#bfbfbf" stroke="#000000" points="0,-28.5 0,-60.5 98.811,-60.5 98.811,-28.5 0,-28.5"/>
<text text-anchor="start" x="8" y="-47.5" font-family="Helvetica,sans-Serif" font-size="10.00" fill="#000000">LibBBB::IO::Input::</text>
<text text-anchor="middle" x="49.4055" y="-35.5" font-family="Helvetica,sans-Serif" font-size="10.00" fill="#000000">setEdgeCallback</text>
</g>
<!-- Node29 -->
<g id="node2" class="node">
<title>Node29</title>
<g id="a_node2"><a xlink:href="namespaceVehicleControl.html#af89cecf99aa4e7787af7433d8f3b6970" target="_top" xlink:title="VehicleControl::callback">
<polygon fill="#ffffff" stroke="#000000" points="134.811,-34.5 134.811,-54.5 257.491,-54.5 257.491,-34.5 134.811,-34.5"/>
<text text-anchor="middle" x="196.151" y="-41.5" font-family="Helvetica,sans-Serif" font-size="10.00" fill="#000000">VehicleControl::callback</text>
</a>
</g>
</g>
<!-- Node28&#45;&gt;Node29 -->
<g id="edge1" class="edge">
<title>Node28&#45;&gt;Node29</title>
<path fill="none" stroke="#191970" d="M99.0868,-44.5C107.3341,-44.5 116.0288,-44.5 124.6879,-44.5"/>
<polygon fill="#191970" stroke="#191970" points="124.8078,-48.0001 134.8078,-44.5 124.8078,-41.0001 124.8078,-48.0001"/>
</g>
<!-- Node30 -->
<g id="node3" class="node">
<title>Node30</title>
<g id="a_node3"><a xlink:href="classLibBBB_1_1IO_1_1UserLED.html#a98c0a865b590a4149e3b5a8d8c97d6cd" target="_top" xlink:title="state getter ">
<polygon fill="#ffffff" stroke="#000000" points="443.287,-51.5 443.287,-83.5 554.859,-83.5 554.859,-51.5 443.287,-51.5"/>
<text text-anchor="start" x="451.287" y="-70.5" font-family="Helvetica,sans-Serif" font-size="10.00" fill="#000000">LibBBB::IO::UserLED</text>
<text text-anchor="middle" x="499.073" y="-58.5" font-family="Helvetica,sans-Serif" font-size="10.00" fill="#000000">::state</text>
</a>
</g>
</g>
<!-- Node29&#45;&gt;Node30 -->
<g id="edge2" class="edge">
<title>Node29&#45;&gt;Node30</title>
<path fill="none" stroke="#191970" d="M257.8169,-49.1821C308.7403,-53.0486 380.8585,-58.5243 432.9659,-62.4807"/>
<polygon fill="#191970" stroke="#191970" points="432.872,-65.9835 443.1083,-63.2508 433.402,-59.0036 432.872,-65.9835"/>
</g>
<!-- Node31 -->
<g id="node4" class="node">
<title>Node31</title>
<g id="a_node4"><a xlink:href="classLibBBB_1_1IO_1_1UserLED.html#a5d6714d1ddc854308c1d4cc5448ded07" target="_top" xlink:title="setState method sets the state of the LED ">
<polygon fill="#ffffff" stroke="#000000" points="293.491,-6.5 293.491,-38.5 405.063,-38.5 405.063,-6.5 293.491,-6.5"/>
<text text-anchor="start" x="301.491" y="-25.5" font-family="Helvetica,sans-Serif" font-size="10.00" fill="#000000">LibBBB::IO::UserLED</text>
<text text-anchor="middle" x="349.277" y="-13.5" font-family="Helvetica,sans-Serif" font-size="10.00" fill="#000000">::setState</text>
</a>
</g>
</g>
<!-- Node29&#45;&gt;Node31 -->
<g id="edge3" class="edge">
<title>Node29&#45;&gt;Node31</title>
<path fill="none" stroke="#191970" d="M257.5509,-35.6785C266.043,-34.4584 274.7943,-33.2011 283.3641,-31.9699"/>
<polygon fill="#191970" stroke="#191970" points="283.9139,-35.4269 293.3145,-30.5403 282.9184,-28.4981 283.9139,-35.4269"/>
</g>
<!-- Node31&#45;&gt;Node30 -->
<g id="edge4" class="edge">
<title>Node31&#45;&gt;Node30</title>
<path fill="none" stroke="#191970" d="M402.9337,-38.6189C413.7121,-41.8568 425.1303,-45.287 436.1896,-48.6093"/>
<polygon fill="#191970" stroke="#191970" points="435.2067,-51.9685 445.7909,-51.4936 437.2207,-45.2645 435.2067,-51.9685"/>
</g>
<!-- Node32 -->
<g id="node5" class="node">
<title>Node32</title>
<g id="a_node5"><a xlink:href="classLibBBB_1_1ThreadHelper.html#a6999e18135496ef252b1c43c374c20f9" target="_top" xlink:title="startDetachedThread ">
<polygon fill="#ffffff" stroke="#000000" points="441.063,-.5 441.063,-32.5 557.083,-32.5 557.083,-.5 441.063,-.5"/>
<text text-anchor="start" x="449.063" y="-19.5" font-family="Helvetica,sans-Serif" font-size="10.00" fill="#000000">LibBBB::ThreadHelper</text>
<text text-anchor="middle" x="499.073" y="-7.5" font-family="Helvetica,sans-Serif" font-size="10.00" fill="#000000">::startDetachedThread</text>
</a>
</g>
</g>
<!-- Node31&#45;&gt;Node32 -->
<g id="edge5" class="edge">
<title>Node31&#45;&gt;Node32</title>
<path fill="none" stroke="#191970" d="M405.4817,-20.2488C413.7446,-19.9178 422.3317,-19.5738 430.8048,-19.2344"/>
<polygon fill="#191970" stroke="#191970" points="431.2022,-22.7214 441.0541,-18.8239 430.922,-15.727 431.2022,-22.7214"/>
</g>
</g>
</svg>
