<?xml version="1.0" encoding="UTF-8" standalone="no"?>
<!DOCTYPE svg PUBLIC "-//W3C//DTD SVG 1.1//EN"
 "http://www.w3.org/Graphics/SVG/1.1/DTD/svg11.dtd">
<!-- Generated by graphviz version 2.40.1 (20161225.0304)
 -->
<!-- Title: VehicleControl::Control::update Pages: 1 -->
<svg width="472pt" height="104pt"
 viewBox="0.00 0.00 471.93 104.00" xmlns="http://www.w3.org/2000/svg" xmlns:xlink="http://www.w3.org/1999/xlink">
<g id="graph0" class="graph" transform="scale(1 1) rotate(0) translate(4 100)">
<title>VehicleControl::Control::update</title>
<polygon fill="#ffffff" stroke="transparent" points="-4,4 -4,-100 467.932,-100 467.932,4 -4,4"/>
<!-- Node22 -->
<g id="node1" class="node">
<title>Node22</title>
<polygon fill="#bfbfbf" stroke="#000000" points="0,-34.5 0,-66.5 118.788,-66.5 118.788,-34.5 0,-34.5"/>
<text text-anchor="start" x="8" y="-53.5" font-family="Helvetica,sans-Serif" font-size="10.00" fill="#000000">VehicleControl::Control</text>
<text text-anchor="middle" x="59.394" y="-41.5" font-family="Helvetica,sans-Serif" font-size="10.00" fill="#000000">::update</text>
</g>
<!-- Node23 -->
<g id="node2" class="node">
<title>Node23</title>
<g id="a_node2"><a xlink:href="classLibBBB_1_1Bluetooth_1_1Manager.html#aba77bfc05cca940e709d9c0bb1106127" target="_top" xlink:title="isConnected getter ">
<polygon fill="#ffffff" stroke="#000000" points="175.059,-63.5 175.059,-95.5 291.641,-95.5 291.641,-63.5 175.059,-63.5"/>
<text text-anchor="start" x="183.059" y="-82.5" font-family="Helvetica,sans-Serif" font-size="10.00" fill="#000000">LibBBB::Bluetooth::</text>
<text text-anchor="middle" x="233.35" y="-70.5" font-family="Helvetica,sans-Serif" font-size="10.00" fill="#000000">Manager::isConnected</text>
</a>
</g>
</g>
<!-- Node22&#45;&gt;Node23 -->
<g id="edge1" class="edge">
<title>Node22&#45;&gt;Node23</title>
<path fill="none" stroke="#191970" d="M119.2598,-60.4802C133.8728,-62.9163 149.6202,-65.5415 164.6108,-68.0406"/>
<polygon fill="#191970" stroke="#191970" points="164.4053,-71.5545 174.8447,-69.7467 165.5564,-64.6498 164.4053,-71.5545"/>
</g>
<!-- Node25 -->
<g id="node4" class="node">
<title>Node25</title>
<g id="a_node4"><a xlink:href="classVehicleControl_1_1Control_1_1CommunicationProtocolParser.html#a518b7eda37805934071cbc4c3dbc4328" target="_top" xlink:title="parseIncomingPackets method gets and parses the incoming Bluetooth packets. This method calls the Blu...">
<polygon fill="#ffffff" stroke="#000000" points="154.788,-.5 154.788,-44.5 311.912,-44.5 311.912,-.5 154.788,-.5"/>
<text text-anchor="start" x="162.788" y="-31.5" font-family="Helvetica,sans-Serif" font-size="10.00" fill="#000000">VehicleControl::Control</text>
<text text-anchor="start" x="162.788" y="-19.5" font-family="Helvetica,sans-Serif" font-size="10.00" fill="#000000">::CommunicationProtocolParser</text>
<text text-anchor="middle" x="233.35" y="-7.5" font-family="Helvetica,sans-Serif" font-size="10.00" fill="#000000">::parseIncomingPackets</text>
</a>
</g>
</g>
<!-- Node22&#45;&gt;Node25 -->
<g id="edge3" class="edge">
<title>Node22&#45;&gt;Node25</title>
<path fill="none" stroke="#191970" d="M119.2598,-40.864C127.4539,-39.5451 136.0047,-38.1687 144.5787,-36.7887"/>
<polygon fill="#191970" stroke="#191970" points="145.3178,-40.2148 154.6345,-35.1701 144.2054,-33.3038 145.3178,-40.2148"/>
</g>
<!-- Node24 -->
<g id="node3" class="node">
<title>Node24</title>
<g id="a_node3"><a xlink:href="classLibBBB_1_1ThreadHelper.html#a6999e18135496ef252b1c43c374c20f9" target="_top" xlink:title="startDetachedThread ">
<polygon fill="#ffffff" stroke="#000000" points="347.912,-63.5 347.912,-95.5 463.932,-95.5 463.932,-63.5 347.912,-63.5"/>
<text text-anchor="start" x="355.912" y="-82.5" font-family="Helvetica,sans-Serif" font-size="10.00" fill="#000000">LibBBB::ThreadHelper</text>
<text text-anchor="middle" x="405.922" y="-70.5" font-family="Helvetica,sans-Serif" font-size="10.00" fill="#000000">::startDetachedThread</text>
</a>
</g>
</g>
<!-- Node23&#45;&gt;Node24 -->
<g id="edge2" class="edge">
<title>Node23&#45;&gt;Node24</title>
<path fill="none" stroke="#191970" d="M291.775,-79.5C306.4729,-79.5 322.379,-79.5 337.5171,-79.5"/>
<polygon fill="#191970" stroke="#191970" points="337.8503,-83.0001 347.8503,-79.5 337.8502,-76.0001 337.8503,-83.0001"/>
</g>
<!-- Node26 -->
<g id="node5" class="node">
<title>Node26</title>
<g id="a_node5"><a xlink:href="classLibBBB_1_1Bluetooth_1_1Manager.html#a060493f898621db59bfda9b7077d759c" target="_top" xlink:title="receiveData method that receives the data ">
<polygon fill="#ffffff" stroke="#000000" points="348.746,-6.5 348.746,-38.5 463.098,-38.5 463.098,-6.5 348.746,-6.5"/>
<text text-anchor="start" x="356.746" y="-25.5" font-family="Helvetica,sans-Serif" font-size="10.00" fill="#000000">LibBBB::Bluetooth::</text>
<text text-anchor="middle" x="405.922" y="-13.5" font-family="Helvetica,sans-Serif" font-size="10.00" fill="#000000">Manager::receiveData</text>
</a>
</g>
</g>
<!-- Node25&#45;&gt;Node26 -->
<g id="edge4" class="edge">
<title>Node25&#45;&gt;Node26</title>
<path fill="none" stroke="#191970" d="M312.0609,-22.5C320.9421,-22.5 329.9311,-22.5 338.6477,-22.5"/>
<polygon fill="#191970" stroke="#191970" points="338.7324,-26.0001 348.7324,-22.5 338.7323,-19.0001 338.7324,-26.0001"/>
</g>
</g>
</svg>
