<?xml version="1.0" encoding="UTF-8" standalone="no"?>
<!DOCTYPE svg PUBLIC "-//W3C//DTD SVG 1.1//EN"
 "http://www.w3.org/Graphics/SVG/1.1/DTD/svg11.dtd">
<!-- Generated by graphviz version 2.40.1 (20161225.0304)
 -->
<!-- Title: VehicleControl::IO::Input::waitForEdge Pages: 1 -->
<svg width="429pt" height="64pt"
 viewBox="0.00 0.00 429.21 64.00" xmlns="http://www.w3.org/2000/svg" xmlns:xlink="http://www.w3.org/1999/xlink">
<g id="graph0" class="graph" transform="scale(1 1) rotate(0) translate(4 60)">
<title>VehicleControl::IO::Input::waitForEdge</title>
<polygon fill="#ffffff" stroke="transparent" points="-4,4 -4,-60 425.215,-60 425.215,4 -4,4"/>
<!-- Node45 -->
<g id="node1" class="node">
<title>Node45</title>
<polygon fill="#bfbfbf" stroke="#000000" points="0,-.5 0,-32.5 105.47,-32.5 105.47,-.5 0,-.5"/>
<text text-anchor="start" x="8" y="-19.5" font-family="Helvetica,sans-Serif" font-size="10.00" fill="#000000">VehicleControl::IO</text>
<text text-anchor="middle" x="52.735" y="-7.5" font-family="Helvetica,sans-Serif" font-size="10.00" fill="#000000">::Input::waitForEdge</text>
</g>
<!-- Node46 -->
<g id="node2" class="node">
<title>Node46</title>
<g id="a_node2"><a xlink:href="classVehicleControl_1_1IO_1_1Input.html#af43084e3aa7a11f0dae0ae67a22112f1" target="_top" xlink:title="cancelWaitForEdge method cancels waiting for the edge. ">
<polygon fill="#ffffff" stroke="#000000" points="141.47,-23.5 141.47,-55.5 278.056,-55.5 278.056,-23.5 141.47,-23.5"/>
<text text-anchor="start" x="149.47" y="-42.5" font-family="Helvetica,sans-Serif" font-size="10.00" fill="#000000">VehicleControl::IO</text>
<text text-anchor="middle" x="209.763" y="-30.5" font-family="Helvetica,sans-Serif" font-size="10.00" fill="#000000">::Input::cancelWaitForEdge</text>
</a>
</g>
</g>
<!-- Node45&#45;&gt;Node46 -->
<g id="edge1" class="edge">
<title>Node45&#45;&gt;Node46</title>
<path fill="none" stroke="#191970" d="M115.9467,-25.7587C124.3051,-26.9829 132.9042,-28.2424 141.345,-29.4788"/>
<polygon fill="#191970" stroke="#191970" points="116.2992,-22.273 105.8975,-24.2868 115.2847,-29.1991 116.2992,-22.273"/>
</g>
<!-- Node47 -->
<g id="node3" class="node">
<title>Node47</title>
<g id="a_node3"><a xlink:href="structVehicleControl_1_1IO_1_1Input_1_1Setup.html#a09ce07a96559b6f63eaa51d8eccbc877" target="_top" xlink:title="VehicleControl::IO\l::Input::Setup::Setup">
<polygon fill="#ffffff" stroke="#000000" points="314.056,-.5 314.056,-32.5 421.215,-32.5 421.215,-.5 314.056,-.5"/>
<text text-anchor="start" x="322.056" y="-19.5" font-family="Helvetica,sans-Serif" font-size="10.00" fill="#000000">VehicleControl::IO</text>
<text text-anchor="middle" x="367.6355" y="-7.5" font-family="Helvetica,sans-Serif" font-size="10.00" fill="#000000">::Input::Setup::Setup</text>
</a>
</g>
</g>
<!-- Node45&#45;&gt;Node47 -->
<g id="edge3" class="edge">
<title>Node45&#45;&gt;Node47</title>
<path fill="none" stroke="#191970" d="M115.7945,-14.9037C124.4214,-14.7365 133.164,-14.5936 141.47,-14.5 202.171,-13.816 217.3549,-13.8225 278.056,-14.5 289.5666,-14.6285 301.9077,-14.8498 313.6373,-15.0995"/>
<polygon fill="#191970" stroke="#191970" points="115.6795,-11.4052 105.7534,-15.1097 115.8231,-18.4037 115.6795,-11.4052"/>
</g>
<!-- Node46&#45;&gt;Node47 -->
<g id="edge2" class="edge">
<title>Node46&#45;&gt;Node47</title>
<path fill="none" stroke="#191970" d="M288.2688,-28.0627C296.9639,-26.7959 305.666,-25.5282 313.953,-24.3209"/>
<polygon fill="#191970" stroke="#191970" points="287.4809,-24.6405 278.09,-29.5456 288.4901,-31.5673 287.4809,-24.6405"/>
</g>
</g>
</svg>
