<?xml version="1.0" encoding="UTF-8" standalone="no"?>
<!DOCTYPE svg PUBLIC "-//W3C//DTD SVG 1.1//EN"
 "http://www.w3.org/Graphics/SVG/1.1/DTD/svg11.dtd">
<!-- Generated by graphviz version 2.40.1 (20161225.0304)
 -->
<!-- Title: VehicleControl::Control::IOFactory::fillInputList Pages: 1 -->
<svg width="799pt" height="137pt"
 viewBox="0.00 0.00 799.30 137.00" xmlns="http://www.w3.org/2000/svg" xmlns:xlink="http://www.w3.org/1999/xlink">
<g id="graph0" class="graph" transform="scale(1 1) rotate(0) translate(4 133)">
<title>VehicleControl::Control::IOFactory::fillInputList</title>
<polygon fill="#ffffff" stroke="transparent" points="-4,4 -4,-133 795.296,-133 795.296,4 -4,4"/>
<!-- Node6 -->
<g id="node1" class="node">
<title>Node6</title>
<polygon fill="#bfbfbf" stroke="#000000" points="0,-51.5 0,-83.5 118.788,-83.5 118.788,-51.5 0,-51.5"/>
<text text-anchor="start" x="8" y="-70.5" font-family="Helvetica,sans-Serif" font-size="10.00" fill="#000000">VehicleControl::Control</text>
<text text-anchor="middle" x="59.394" y="-58.5" font-family="Helvetica,sans-Serif" font-size="10.00" fill="#000000">::IOFactory::fillInputList</text>
</g>
<!-- Node7 -->
<g id="node2" class="node">
<title>Node7</title>
<g id="a_node2"><a xlink:href="namespaceVehicleControl.html#a5756c96006fcbf65cf488b7e2297a73a" target="_top" xlink:title="VehicleControl::createRising\lEdgeThreadedInput">
<polygon fill="#ffffff" stroke="#000000" points="154.788,-51.5 154.788,-83.5 296.913,-83.5 296.913,-51.5 154.788,-51.5"/>
<text text-anchor="start" x="162.788" y="-70.5" font-family="Helvetica,sans-Serif" font-size="10.00" fill="#000000">VehicleControl::createRising</text>
<text text-anchor="middle" x="225.8505" y="-58.5" font-family="Helvetica,sans-Serif" font-size="10.00" fill="#000000">EdgeThreadedInput</text>
</a>
</g>
</g>
<!-- Node6&#45;&gt;Node7 -->
<g id="edge1" class="edge">
<title>Node6&#45;&gt;Node7</title>
<path fill="none" stroke="#191970" d="M119.0185,-67.5C127.3327,-67.5 135.9894,-67.5 144.6176,-67.5"/>
<polygon fill="#191970" stroke="#191970" points="144.711,-71.0001 154.711,-67.5 144.7109,-64.0001 144.711,-71.0001"/>
</g>
<!-- Node8 -->
<g id="node3" class="node">
<title>Node8</title>
<g id="a_node3"><a xlink:href="namespaceVehicleControl.html#af89cecf99aa4e7787af7433d8f3b6970" target="_top" xlink:title="VehicleControl::callback">
<polygon fill="#ffffff" stroke="#000000" points="332.913,-57.5 332.913,-77.5 455.593,-77.5 455.593,-57.5 332.913,-57.5"/>
<text text-anchor="middle" x="394.253" y="-64.5" font-family="Helvetica,sans-Serif" font-size="10.00" fill="#000000">VehicleControl::callback</text>
</a>
</g>
</g>
<!-- Node7&#45;&gt;Node8 -->
<g id="edge2" class="edge">
<title>Node7&#45;&gt;Node8</title>
<path fill="none" stroke="#191970" d="M297.2683,-67.5C305.6809,-67.5 314.2678,-67.5 322.6825,-67.5"/>
<polygon fill="#191970" stroke="#191970" points="322.8379,-71.0001 332.8379,-67.5 322.8379,-64.0001 322.8379,-71.0001"/>
</g>
<!-- Node9 -->
<g id="node4" class="node">
<title>Node9</title>
<g id="a_node4"><a xlink:href="classVehicleControl_1_1Control.html#aa050ea7668adf370680b812948b07a9e" target="_top" xlink:title="instance method is the Singleton method of creating and accessing this class. This ensures there can ...">
<polygon fill="#ffffff" stroke="#000000" points="491.593,-96.5 491.593,-128.5 610.381,-128.5 610.381,-96.5 491.593,-96.5"/>
<text text-anchor="start" x="499.593" y="-115.5" font-family="Helvetica,sans-Serif" font-size="10.00" fill="#000000">VehicleControl::Control</text>
<text text-anchor="middle" x="550.987" y="-103.5" font-family="Helvetica,sans-Serif" font-size="10.00" fill="#000000">::instance</text>
</a>
</g>
</g>
<!-- Node8&#45;&gt;Node9 -->
<g id="edge3" class="edge">
<title>Node8&#45;&gt;Node9</title>
<path fill="none" stroke="#191970" d="M429.4272,-77.5989C445.9501,-82.3428 466.1985,-88.1563 485.3957,-93.668"/>
<polygon fill="#191970" stroke="#191970" points="484.4351,-97.0336 495.0127,-96.4292 486.3669,-90.3054 484.4351,-97.0336"/>
</g>
<!-- Node10 -->
<g id="node5" class="node">
<title>Node10</title>
<g id="a_node5"><a xlink:href="classVehicleControl_1_1IO_1_1UserLED.html#a24318aac0770b5c67d10d8412fc5fda3" target="_top" xlink:title="state getter ">
<polygon fill="#ffffff" stroke="#000000" points="670.277,-51.5 670.277,-83.5 767.4,-83.5 767.4,-51.5 670.277,-51.5"/>
<text text-anchor="start" x="678.277" y="-70.5" font-family="Helvetica,sans-Serif" font-size="10.00" fill="#000000">VehicleControl::IO</text>
<text text-anchor="middle" x="718.8385" y="-58.5" font-family="Helvetica,sans-Serif" font-size="10.00" fill="#000000">::UserLED::state</text>
</a>
</g>
</g>
<!-- Node8&#45;&gt;Node10 -->
<g id="edge4" class="edge">
<title>Node8&#45;&gt;Node10</title>
<path fill="none" stroke="#191970" d="M455.6866,-67.5C514.3759,-67.5 602.2197,-67.5 660.0223,-67.5"/>
<polygon fill="#191970" stroke="#191970" points="660.0963,-71.0001 670.0963,-67.5 660.0962,-64.0001 660.0963,-71.0001"/>
</g>
<!-- Node11 -->
<g id="node6" class="node">
<title>Node11</title>
<g id="a_node6"><a xlink:href="classVehicleControl_1_1IO_1_1UserLED.html#a681c7658d0828edefed7028390adced0" target="_top" xlink:title="setState method sets the state of the LED ">
<polygon fill="#ffffff" stroke="#000000" points="498.8105,-6.5 498.8105,-38.5 603.1635,-38.5 603.1635,-6.5 498.8105,-6.5"/>
<text text-anchor="start" x="506.8105" y="-25.5" font-family="Helvetica,sans-Serif" font-size="10.00" fill="#000000">VehicleControl::IO</text>
<text text-anchor="middle" x="550.987" y="-13.5" font-family="Helvetica,sans-Serif" font-size="10.00" fill="#000000">::UserLED::setState</text>
</a>
</g>
</g>
<!-- Node8&#45;&gt;Node11 -->
<g id="edge5" class="edge">
<title>Node8&#45;&gt;Node11</title>
<path fill="none" stroke="#191970" d="M429.4272,-57.4011C446.9563,-52.3683 468.6784,-46.1317 488.89,-40.3287"/>
<polygon fill="#191970" stroke="#191970" points="490.02,-43.6458 498.6658,-37.522 488.0882,-36.9176 490.02,-43.6458"/>
</g>
<!-- Node11&#45;&gt;Node10 -->
<g id="edge6" class="edge">
<title>Node11&#45;&gt;Node10</title>
<path fill="none" stroke="#191970" d="M603.1762,-36.4916C621.286,-41.3467 641.7079,-46.8217 660.2959,-51.8051"/>
<polygon fill="#191970" stroke="#191970" points="659.551,-55.2289 670.1163,-54.4379 661.3637,-48.4677 659.551,-55.2289"/>
</g>
<!-- Node12 -->
<g id="node7" class="node">
<title>Node12</title>
<g id="a_node7"><a xlink:href="classThreadHelper.html#a4426e115e7858a4b6f6eedbc77302756" target="_top" xlink:title="startDetachedThread ">
<polygon fill="#ffffff" stroke="#000000" points="646.381,-.5 646.381,-32.5 791.296,-32.5 791.296,-.5 646.381,-.5"/>
<text text-anchor="start" x="654.381" y="-19.5" font-family="Helvetica,sans-Serif" font-size="10.00" fill="#000000">ThreadHelper::startDetached</text>
<text text-anchor="middle" x="718.8385" y="-7.5" font-family="Helvetica,sans-Serif" font-size="10.00" fill="#000000">Thread</text>
</a>
</g>
</g>
<!-- Node11&#45;&gt;Node12 -->
<g id="edge7" class="edge">
<title>Node11&#45;&gt;Node12</title>
<path fill="none" stroke="#191970" d="M603.1762,-20.6345C613.6389,-20.2605 624.8734,-19.8589 636.0801,-19.4583"/>
<polygon fill="#191970" stroke="#191970" points="636.4727,-22.9466 646.3412,-19.0915 636.2225,-15.951 636.4727,-22.9466"/>
</g>
</g>
</svg>
