<?xml version="1.0" encoding="UTF-8" standalone="no"?>
<!DOCTYPE svg PUBLIC "-//W3C//DTD SVG 1.1//EN"
 "http://www.w3.org/Graphics/SVG/1.1/DTD/svg11.dtd">
<!-- Generated by graphviz version 2.40.1 (20161225.0304)
 -->
<!-- Title: VehicleControl::Bluetooth::Base Pages: 1 -->
<svg width="284pt" height="110pt"
 viewBox="0.00 0.00 283.81 110.00" xmlns="http://www.w3.org/2000/svg" xmlns:xlink="http://www.w3.org/1999/xlink">
<g id="graph0" class="graph" transform="scale(1 1) rotate(0) translate(4 106)">
<title>VehicleControl::Bluetooth::Base</title>
<polygon fill="#ffffff" stroke="transparent" points="-4,4 -4,-106 279.806,-106 279.806,4 -4,4"/>
<!-- Node0 -->
<g id="node1" class="node">
<title>Node0</title>
<polygon fill="#bfbfbf" stroke="#000000" points="73,-69.5 73,-101.5 201.806,-101.5 201.806,-69.5 73,-69.5"/>
<text text-anchor="start" x="81" y="-88.5" font-family="Helvetica,sans-Serif" font-size="10.00" fill="#000000">VehicleControl::Bluetooth</text>
<text text-anchor="middle" x="137.403" y="-76.5" font-family="Helvetica,sans-Serif" font-size="10.00" fill="#000000">::Base</text>
</g>
<!-- Node1 -->
<g id="node2" class="node">
<title>Node1</title>
<g id="a_node2"><a xlink:href="classVehicleControl_1_1Bluetooth_1_1Client.html" target="_top" xlink:title="The Client class. ">
<polygon fill="#ffffff" stroke="#000000" points="0,-.5 0,-32.5 128.806,-32.5 128.806,-.5 0,-.5"/>
<text text-anchor="start" x="8" y="-19.5" font-family="Helvetica,sans-Serif" font-size="10.00" fill="#000000">VehicleControl::Bluetooth</text>
<text text-anchor="middle" x="64.403" y="-7.5" font-family="Helvetica,sans-Serif" font-size="10.00" fill="#000000">::Client</text>
</a>
</g>
</g>
<!-- Node0&#45;&gt;Node1 -->
<g id="edge1" class="edge">
<title>Node0&#45;&gt;Node1</title>
<path fill="none" stroke="#191970" d="M112.9281,-62.3662C102.6122,-52.6156 90.8536,-41.5012 81.4952,-32.6557"/>
<polygon fill="#191970" stroke="#191970" points="110.8002,-65.171 120.4718,-69.4966 115.6087,-60.0838 110.8002,-65.171"/>
</g>
<!-- Node2 -->
<g id="node3" class="node">
<title>Node2</title>
<g id="a_node3"><a xlink:href="classVehicleControl_1_1Bluetooth_1_1Server.html" target="_top" xlink:title="VehicleControl::Bluetooth\l::Server">
<polygon fill="#ffffff" stroke="#000000" points="147,-.5 147,-32.5 275.806,-32.5 275.806,-.5 147,-.5"/>
<text text-anchor="start" x="155" y="-19.5" font-family="Helvetica,sans-Serif" font-size="10.00" fill="#000000">VehicleControl::Bluetooth</text>
<text text-anchor="middle" x="211.403" y="-7.5" font-family="Helvetica,sans-Serif" font-size="10.00" fill="#000000">::Server</text>
</a>
</g>
</g>
<!-- Node0&#45;&gt;Node2 -->
<g id="edge2" class="edge">
<title>Node0&#45;&gt;Node2</title>
<path fill="none" stroke="#191970" d="M161.906,-62.6526C172.4364,-52.8337 184.4971,-41.588 194.0767,-32.6557"/>
<polygon fill="#191970" stroke="#191970" points="159.4931,-60.117 154.5661,-69.4966 164.2668,-65.2367 159.4931,-60.117"/>
</g>
</g>
</svg>
