<?xml version="1.0" encoding="UTF-8" standalone="no"?>
<!DOCTYPE svg PUBLIC "-//W3C//DTD SVG 1.1//EN"
 "http://www.w3.org/Graphics/SVG/1.1/DTD/svg11.dtd">
<!-- Generated by graphviz version 2.40.1 (20161225.0304)
 -->
<!-- Title: VehicleControl::Bluetooth::Server::Server Pages: 1 -->
<svg width="318pt" height="41pt"
 viewBox="0.00 0.00 317.72 41.00" xmlns="http://www.w3.org/2000/svg" xmlns:xlink="http://www.w3.org/1999/xlink">
<g id="graph0" class="graph" transform="scale(1 1) rotate(0) translate(4 37)">
<title>VehicleControl::Bluetooth::Server::Server</title>
<polygon fill="#ffffff" stroke="transparent" points="-4,4 -4,-37 313.721,-37 313.721,4 -4,4"/>
<!-- Node0 -->
<g id="node1" class="node">
<title>Node0</title>
<polygon fill="#bfbfbf" stroke="#000000" points="0,-.5 0,-32.5 128.806,-32.5 128.806,-.5 0,-.5"/>
<text text-anchor="start" x="8" y="-19.5" font-family="Helvetica,sans-Serif" font-size="10.00" fill="#000000">VehicleControl::Bluetooth</text>
<text text-anchor="middle" x="64.403" y="-7.5" font-family="Helvetica,sans-Serif" font-size="10.00" fill="#000000">::Server::Server</text>
</g>
<!-- Node1 -->
<g id="node2" class="node">
<title>Node1</title>
<g id="a_node2"><a xlink:href="classThreadHelper.html#a4426e115e7858a4b6f6eedbc77302756" target="_top" xlink:title="startDetachedThread ">
<polygon fill="#ffffff" stroke="#000000" points="164.806,-.5 164.806,-32.5 309.721,-32.5 309.721,-.5 164.806,-.5"/>
<text text-anchor="start" x="172.806" y="-19.5" font-family="Helvetica,sans-Serif" font-size="10.00" fill="#000000">ThreadHelper::startDetached</text>
<text text-anchor="middle" x="237.2635" y="-7.5" font-family="Helvetica,sans-Serif" font-size="10.00" fill="#000000">Thread</text>
</a>
</g>
</g>
<!-- Node0&#45;&gt;Node1 -->
<g id="edge1" class="edge">
<title>Node0&#45;&gt;Node1</title>
<path fill="none" stroke="#191970" d="M129.2617,-16.5C137.5933,-16.5 146.2107,-16.5 154.7763,-16.5"/>
<polygon fill="#191970" stroke="#191970" points="154.7876,-20.0001 164.7876,-16.5 154.7875,-13.0001 154.7876,-20.0001"/>
</g>
</g>
</svg>
