<?xml version="1.0" encoding="UTF-8" standalone="no"?>
<!DOCTYPE svg PUBLIC "-//W3C//DTD SVG 1.1//EN"
 "http://www.w3.org/Graphics/SVG/1.1/DTD/svg11.dtd">
<!-- Generated by graphviz version 2.40.1 (20161225.0304)
 -->
<!-- Title: VehicleControl::IO::UserLED::UserLED Pages: 1 -->
<svg width="249pt" height="41pt"
 viewBox="0.00 0.00 249.35 41.00" xmlns="http://www.w3.org/2000/svg" xmlns:xlink="http://www.w3.org/1999/xlink">
<g id="graph0" class="graph" transform="scale(1 1) rotate(0) translate(4 37)">
<title>VehicleControl::IO::UserLED::UserLED</title>
<polygon fill="#ffffff" stroke="transparent" points="-4,4 -4,-37 245.347,-37 245.347,4 -4,4"/>
<!-- Node0 -->
<g id="node1" class="node">
<title>Node0</title>
<polygon fill="#bfbfbf" stroke="#000000" points="0,-.5 0,-32.5 108.224,-32.5 108.224,-.5 0,-.5"/>
<text text-anchor="start" x="8" y="-19.5" font-family="Helvetica,sans-Serif" font-size="10.00" fill="#000000">VehicleControl::IO</text>
<text text-anchor="middle" x="54.112" y="-7.5" font-family="Helvetica,sans-Serif" font-size="10.00" fill="#000000">::UserLED::UserLED</text>
</g>
<!-- Node1 -->
<g id="node2" class="node">
<title>Node1</title>
<g id="a_node2"><a xlink:href="namespaceVehicleControl_1_1IO.html#a6a8717b53bf4029a6a4cf9b0a004d6ac" target="_top" xlink:title="VehicleControl::IO\l::enumToString">
<polygon fill="#ffffff" stroke="#000000" points="144.224,-.5 144.224,-32.5 241.347,-32.5 241.347,-.5 144.224,-.5"/>
<text text-anchor="start" x="152.224" y="-19.5" font-family="Helvetica,sans-Serif" font-size="10.00" fill="#000000">VehicleControl::IO</text>
<text text-anchor="middle" x="192.7855" y="-7.5" font-family="Helvetica,sans-Serif" font-size="10.00" fill="#000000">::enumToString</text>
</a>
</g>
</g>
<!-- Node0&#45;&gt;Node1 -->
<g id="edge1" class="edge">
<title>Node0&#45;&gt;Node1</title>
<path fill="none" stroke="#191970" d="M108.5214,-16.5C116.829,-16.5 125.4367,-16.5 133.8364,-16.5"/>
<polygon fill="#191970" stroke="#191970" points="133.9447,-20.0001 143.9447,-16.5 133.9447,-13.0001 133.9447,-20.0001"/>
</g>
</g>
</svg>
