<?xml version="1.0" encoding="UTF-8" standalone="no"?>
<!DOCTYPE svg PUBLIC "-//W3C//DTD SVG 1.1//EN"
 "http://www.w3.org/Graphics/SVG/1.1/DTD/svg11.dtd">
<!-- Generated by graphviz version 2.40.1 (20161225.0304)
 -->
<!-- Title: VehicleControl::IO::IOBase Pages: 1 -->
<svg width="220pt" height="110pt"
 viewBox="0.00 0.00 220.12 110.00" xmlns="http://www.w3.org/2000/svg" xmlns:xlink="http://www.w3.org/1999/xlink">
<g id="graph0" class="graph" transform="scale(1 1) rotate(0) translate(4 106)">
<title>VehicleControl::IO::IOBase</title>
<polygon fill="#ffffff" stroke="transparent" points="-4,4 -4,-106 216.123,-106 216.123,4 -4,4"/>
<!-- Node0 -->
<g id="node1" class="node">
<title>Node0</title>
<polygon fill="#bfbfbf" stroke="#000000" points="57,-69.5 57,-101.5 154.123,-101.5 154.123,-69.5 57,-69.5"/>
<text text-anchor="start" x="65" y="-88.5" font-family="Helvetica,sans-Serif" font-size="10.00" fill="#000000">VehicleControl::IO</text>
<text text-anchor="middle" x="105.5615" y="-76.5" font-family="Helvetica,sans-Serif" font-size="10.00" fill="#000000">::IOBase</text>
</g>
<!-- Node1 -->
<g id="node2" class="node">
<title>Node1</title>
<g id="a_node2"><a xlink:href="classVehicleControl_1_1IO_1_1Input.html" target="_top" xlink:title="The Input class represents a GPIO pin that is set up as an input. This class allows the user to add a...">
<polygon fill="#ffffff" stroke="#000000" points="0,-.5 0,-32.5 97.123,-32.5 97.123,-.5 0,-.5"/>
<text text-anchor="start" x="8" y="-19.5" font-family="Helvetica,sans-Serif" font-size="10.00" fill="#000000">VehicleControl::IO</text>
<text text-anchor="middle" x="48.5615" y="-7.5" font-family="Helvetica,sans-Serif" font-size="10.00" fill="#000000">::Input</text>
</a>
</g>
</g>
<!-- Node0&#45;&gt;Node1 -->
<g id="edge1" class="edge">
<title>Node0&#45;&gt;Node1</title>
<path fill="none" stroke="#191970" d="M85.7872,-61.5627C77.9682,-52.0976 69.1795,-41.4586 62.1058,-32.8958"/>
<polygon fill="#191970" stroke="#191970" points="83.2741,-64.016 92.3413,-69.4966 88.6708,-59.5578 83.2741,-64.016"/>
</g>
<!-- Node2 -->
<g id="node3" class="node">
<title>Node2</title>
<g id="a_node3"><a xlink:href="classVehicleControl_1_1IO_1_1Output.html" target="_top" xlink:title="The Output class represents a GPIO pin that is set up as an output. This class has the ability to tog...">
<polygon fill="#ffffff" stroke="#000000" points="115,-.5 115,-32.5 212.123,-32.5 212.123,-.5 115,-.5"/>
<text text-anchor="start" x="123" y="-19.5" font-family="Helvetica,sans-Serif" font-size="10.00" fill="#000000">VehicleControl::IO</text>
<text text-anchor="middle" x="163.5615" y="-7.5" font-family="Helvetica,sans-Serif" font-size="10.00" fill="#000000">::Output</text>
</a>
</g>
</g>
<!-- Node0&#45;&gt;Node2 -->
<g id="edge2" class="edge">
<title>Node0&#45;&gt;Node2</title>
<path fill="none" stroke="#191970" d="M125.6827,-61.5627C133.6389,-52.0976 142.5818,-41.4586 149.7795,-32.8958"/>
<polygon fill="#191970" stroke="#191970" points="122.769,-59.5896 119.0136,-69.4966 128.1274,-64.0938 122.769,-59.5896"/>
</g>
</g>
</svg>
