<?xml version="1.0" encoding="UTF-8" standalone="no"?>
<!DOCTYPE svg PUBLIC "-//W3C//DTD SVG 1.1//EN"
 "http://www.w3.org/Graphics/SVG/1.1/DTD/svg11.dtd">
<!-- Generated by graphviz version 2.40.1 (20161225.0304)
 -->
<!-- Title: VehicleControl::IO::Output::toggleOutput Pages: 1 -->
<svg width="542pt" height="92pt"
 viewBox="0.00 0.00 541.80 92.00" xmlns="http://www.w3.org/2000/svg" xmlns:xlink="http://www.w3.org/1999/xlink">
<g id="graph0" class="graph" transform="scale(1 1) rotate(0) translate(4 88)">
<title>VehicleControl::IO::Output::toggleOutput</title>
<polygon fill="#ffffff" stroke="transparent" points="-4,4 -4,-88 537.802,-88 537.802,4 -4,4"/>
<!-- Node35 -->
<g id="node1" class="node">
<title>Node35</title>
<polygon fill="#bfbfbf" stroke="#000000" points="0,-25.5 0,-57.5 114.378,-57.5 114.378,-25.5 0,-25.5"/>
<text text-anchor="start" x="8" y="-44.5" font-family="Helvetica,sans-Serif" font-size="10.00" fill="#000000">VehicleControl::IO</text>
<text text-anchor="middle" x="57.189" y="-32.5" font-family="Helvetica,sans-Serif" font-size="10.00" fill="#000000">::Output::toggleOutput</text>
</g>
<!-- Node36 -->
<g id="node2" class="node">
<title>Node36</title>
<g id="a_node2"><a xlink:href="classVehicleControl_1_1IO_1_1Output.html#a0ff845e3963d2a3e19080b402edfaaf6" target="_top" xlink:title="toggleOutput method toggles the output once ">
<polygon fill="#ffffff" stroke="#000000" points="150.378,-25.5 150.378,-57.5 264.756,-57.5 264.756,-25.5 150.378,-25.5"/>
<text text-anchor="start" x="158.378" y="-44.5" font-family="Helvetica,sans-Serif" font-size="10.00" fill="#000000">VehicleControl::IO</text>
<text text-anchor="middle" x="207.567" y="-32.5" font-family="Helvetica,sans-Serif" font-size="10.00" fill="#000000">::Output::toggleOutput</text>
</a>
</g>
</g>
<!-- Node35&#45;&gt;Node36 -->
<g id="edge1" class="edge">
<title>Node35&#45;&gt;Node36</title>
<path fill="none" stroke="#191970" d="M114.4695,-41.5C122.7307,-41.5 131.2982,-41.5 139.7407,-41.5"/>
<polygon fill="#191970" stroke="#191970" points="139.9477,-45.0001 149.9477,-41.5 139.9476,-38.0001 139.9477,-45.0001"/>
</g>
<!-- Node37 -->
<g id="node3" class="node">
<title>Node37</title>
<g id="a_node3"><a xlink:href="classVehicleControl_1_1IO_1_1IOBase.html#adcc9f65745e07f2e00425d4e0f5f8e54" target="_top" xlink:title="getValue getter ">
<polygon fill="#ffffff" stroke="#000000" points="300.756,-51.5 300.756,-83.5 400.679,-83.5 400.679,-51.5 300.756,-51.5"/>
<text text-anchor="start" x="308.756" y="-70.5" font-family="Helvetica,sans-Serif" font-size="10.00" fill="#000000">VehicleControl::IO</text>
<text text-anchor="middle" x="350.7175" y="-58.5" font-family="Helvetica,sans-Serif" font-size="10.00" fill="#000000">::IOBase::getValue</text>
</a>
</g>
</g>
<!-- Node36&#45;&gt;Node37 -->
<g id="edge2" class="edge">
<title>Node36&#45;&gt;Node37</title>
<path fill="none" stroke="#191970" d="M264.967,-51.9254C273.4649,-53.4688 282.2405,-55.0627 290.7885,-56.6153"/>
<polygon fill="#191970" stroke="#191970" points="290.2236,-60.0699 300.6881,-58.4133 291.4746,-53.1825 290.2236,-60.0699"/>
</g>
<!-- Node39 -->
<g id="node5" class="node">
<title>Node39</title>
<g id="a_node5"><a xlink:href="classVehicleControl_1_1IO_1_1Output.html#a98a765948ebfdb90aaad27a140fac509" target="_top" xlink:title="setValue setter ">
<polygon fill="#ffffff" stroke="#000000" points="302.156,-.5 302.156,-32.5 399.279,-32.5 399.279,-.5 302.156,-.5"/>
<text text-anchor="start" x="310.156" y="-19.5" font-family="Helvetica,sans-Serif" font-size="10.00" fill="#000000">VehicleControl::IO</text>
<text text-anchor="middle" x="350.7175" y="-7.5" font-family="Helvetica,sans-Serif" font-size="10.00" fill="#000000">::Output::setValue</text>
</a>
</g>
</g>
<!-- Node36&#45;&gt;Node39 -->
<g id="edge4" class="edge">
<title>Node36&#45;&gt;Node39</title>
<path fill="none" stroke="#191970" d="M264.967,-31.4756C273.8964,-29.9162 283.1324,-28.3032 292.0886,-26.739"/>
<polygon fill="#191970" stroke="#191970" points="292.8017,-30.1676 302.0504,-24.9993 291.5973,-23.2719 292.8017,-30.1676"/>
</g>
<!-- Node38 -->
<g id="node4" class="node">
<title>Node38</title>
<g id="a_node4"><a xlink:href="classVehicleControl_1_1IO_1_1IOBase.html#a1da47fda987bfedb4ec3c7fb446c09c7" target="_top" xlink:title="read function that reads the value of the given file filename ">
<polygon fill="#ffffff" stroke="#000000" points="436.679,-51.5 436.679,-83.5 533.802,-83.5 533.802,-51.5 436.679,-51.5"/>
<text text-anchor="start" x="444.679" y="-70.5" font-family="Helvetica,sans-Serif" font-size="10.00" fill="#000000">VehicleControl::IO</text>
<text text-anchor="middle" x="485.2405" y="-58.5" font-family="Helvetica,sans-Serif" font-size="10.00" fill="#000000">::IOBase::read</text>
</a>
</g>
</g>
<!-- Node37&#45;&gt;Node38 -->
<g id="edge3" class="edge">
<title>Node37&#45;&gt;Node38</title>
<path fill="none" stroke="#191970" d="M400.8089,-67.5C409.0937,-67.5 417.7509,-67.5 426.2305,-67.5"/>
<polygon fill="#191970" stroke="#191970" points="426.4488,-71.0001 436.4487,-67.5 426.4487,-64.0001 426.4488,-71.0001"/>
</g>
<!-- Node40 -->
<g id="node6" class="node">
<title>Node40</title>
<g id="a_node6"><a xlink:href="classVehicleControl_1_1IO_1_1IOBase.html#a09b22d396b771b2175df60b3a29b6c7f" target="_top" xlink:title="write write function that writes a single string value to a file in the path provided ...">
<polygon fill="#ffffff" stroke="#000000" points="436.679,-.5 436.679,-32.5 533.802,-32.5 533.802,-.5 436.679,-.5"/>
<text text-anchor="start" x="444.679" y="-19.5" font-family="Helvetica,sans-Serif" font-size="10.00" fill="#000000">VehicleControl::IO</text>
<text text-anchor="middle" x="485.2405" y="-7.5" font-family="Helvetica,sans-Serif" font-size="10.00" fill="#000000">::IOBase::write</text>
</a>
</g>
</g>
<!-- Node39&#45;&gt;Node40 -->
<g id="edge5" class="edge">
<title>Node39&#45;&gt;Node40</title>
<path fill="none" stroke="#191970" d="M399.2834,-16.5C408.0322,-16.5 417.2395,-16.5 426.2459,-16.5"/>
<polygon fill="#191970" stroke="#191970" points="426.2941,-20.0001 436.2941,-16.5 426.294,-13.0001 426.2941,-20.0001"/>
</g>
</g>
</svg>
