<?xml version="1.0" encoding="UTF-8" standalone="no"?>
<!DOCTYPE svg PUBLIC "-//W3C//DTD SVG 1.1//EN"
 "http://www.w3.org/Graphics/SVG/1.1/DTD/svg11.dtd">
<!-- Generated by graphviz version 2.40.1 (20161225.0304)
 -->
<!-- Title: VehicleControl::IO::Output::changeToggleTime Pages: 1 -->
<svg width="302pt" height="41pt"
 viewBox="0.00 0.00 301.64 41.00" xmlns="http://www.w3.org/2000/svg" xmlns:xlink="http://www.w3.org/1999/xlink">
<g id="graph0" class="graph" transform="scale(1 1) rotate(0) translate(4 37)">
<title>VehicleControl::IO::Output::changeToggleTime</title>
<polygon fill="#ffffff" stroke="transparent" points="-4,4 -4,-37 297.643,-37 297.643,4 -4,4"/>
<!-- Node15 -->
<g id="node1" class="node">
<title>Node15</title>
<polygon fill="#bfbfbf" stroke="#000000" points="0,-.5 0,-32.5 142.705,-32.5 142.705,-.5 0,-.5"/>
<text text-anchor="start" x="8" y="-19.5" font-family="Helvetica,sans-Serif" font-size="10.00" fill="#000000">VehicleControl::IO</text>
<text text-anchor="middle" x="71.3525" y="-7.5" font-family="Helvetica,sans-Serif" font-size="10.00" fill="#000000">::Output::changeToggleTime</text>
</g>
<!-- Node16 -->
<g id="node2" class="node">
<title>Node16</title>
<g id="a_node2"><a xlink:href="structVehicleControl_1_1IO_1_1Output_1_1Setup.html#a6346d200fcd68fb1693f1e3ae9c9d3af" target="_top" xlink:title="VehicleControl::IO\l::Output::Setup::Setup">
<polygon fill="#ffffff" stroke="#000000" points="178.705,-.5 178.705,-32.5 293.643,-32.5 293.643,-.5 178.705,-.5"/>
<text text-anchor="start" x="186.705" y="-19.5" font-family="Helvetica,sans-Serif" font-size="10.00" fill="#000000">VehicleControl::IO</text>
<text text-anchor="middle" x="236.174" y="-7.5" font-family="Helvetica,sans-Serif" font-size="10.00" fill="#000000">::Output::Setup::Setup</text>
</a>
</g>
</g>
<!-- Node15&#45;&gt;Node16 -->
<g id="edge1" class="edge">
<title>Node15&#45;&gt;Node16</title>
<path fill="none" stroke="#191970" d="M153.1686,-16.5C161.7113,-16.5 170.2626,-16.5 178.4551,-16.5"/>
<polygon fill="#191970" stroke="#191970" points="153.1662,-13.0001 143.1661,-16.5 153.1661,-20.0001 153.1662,-13.0001"/>
</g>
</g>
</svg>
