<?xml version="1.0" encoding="UTF-8" standalone="no"?>
<!DOCTYPE svg PUBLIC "-//W3C//DTD SVG 1.1//EN"
 "http://www.w3.org/Graphics/SVG/1.1/DTD/svg11.dtd">
<!-- Generated by graphviz version 2.40.1 (20161225.0304)
 -->
<!-- Title: VehicleControl::IO::Input::setEdgeCallback Pages: 1 -->
<svg width="276pt" height="41pt"
 viewBox="0.00 0.00 275.53 41.00" xmlns="http://www.w3.org/2000/svg" xmlns:xlink="http://www.w3.org/1999/xlink">
<g id="graph0" class="graph" transform="scale(1 1) rotate(0) translate(4 37)">
<title>VehicleControl::IO::Input::setEdgeCallback</title>
<polygon fill="#ffffff" stroke="transparent" points="-4,4 -4,-37 271.528,-37 271.528,4 -4,4"/>
<!-- Node34 -->
<g id="node1" class="node">
<title>Node34</title>
<polygon fill="#bfbfbf" stroke="#000000" points="0,-.5 0,-32.5 124.369,-32.5 124.369,-.5 0,-.5"/>
<text text-anchor="start" x="8" y="-19.5" font-family="Helvetica,sans-Serif" font-size="10.00" fill="#000000">VehicleControl::IO</text>
<text text-anchor="middle" x="62.1845" y="-7.5" font-family="Helvetica,sans-Serif" font-size="10.00" fill="#000000">::Input::setEdgeCallback</text>
</g>
<!-- Node35 -->
<g id="node2" class="node">
<title>Node35</title>
<g id="a_node2"><a xlink:href="structVehicleControl_1_1IO_1_1Input_1_1Setup.html#a09ce07a96559b6f63eaa51d8eccbc877" target="_top" xlink:title="VehicleControl::IO\l::Input::Setup::Setup">
<polygon fill="#ffffff" stroke="#000000" points="160.369,-.5 160.369,-32.5 267.528,-32.5 267.528,-.5 160.369,-.5"/>
<text text-anchor="start" x="168.369" y="-19.5" font-family="Helvetica,sans-Serif" font-size="10.00" fill="#000000">VehicleControl::IO</text>
<text text-anchor="middle" x="213.9485" y="-7.5" font-family="Helvetica,sans-Serif" font-size="10.00" fill="#000000">::Input::Setup::Setup</text>
</a>
</g>
</g>
<!-- Node34&#45;&gt;Node35 -->
<g id="edge1" class="edge">
<title>Node34&#45;&gt;Node35</title>
<path fill="none" stroke="#191970" d="M135.0667,-16.5C143.5361,-16.5 152.0555,-16.5 160.2019,-16.5"/>
<polygon fill="#191970" stroke="#191970" points="134.789,-13.0001 124.7889,-16.5 134.7889,-20.0001 134.789,-13.0001"/>
</g>
</g>
</svg>
