<?xml version="1.0" encoding="UTF-8" standalone="no"?>
<!DOCTYPE svg PUBLIC "-//W3C//DTD SVG 1.1//EN"
 "http://www.w3.org/Graphics/SVG/1.1/DTD/svg11.dtd">
<!-- Generated by graphviz version 2.40.1 (20161225.0304)
 -->
<!-- Title: LibBBB::ThreadHelper::startDetachedThread Pages: 1 -->
<svg width="591pt" height="198pt"
 viewBox="0.00 0.00 591.18 197.71" xmlns="http://www.w3.org/2000/svg" xmlns:xlink="http://www.w3.org/1999/xlink">
<g id="graph0" class="graph" transform="scale(1 1) rotate(0) translate(4 193.7092)">
<title>LibBBB::ThreadHelper::startDetachedThread</title>
<polygon fill="#ffffff" stroke="transparent" points="-4,4 -4,-193.7092 587.176,-193.7092 587.176,4 -4,4"/>
<!-- Node1 -->
<g id="node1" class="node">
<title>Node1</title>
<polygon fill="#bfbfbf" stroke="#000000" points="0,-80.2092 0,-112.2092 116.02,-112.2092 116.02,-80.2092 0,-80.2092"/>
<text text-anchor="start" x="8" y="-99.2092" font-family="Helvetica,sans-Serif" font-size="10.00" fill="#000000">LibBBB::ThreadHelper</text>
<text text-anchor="middle" x="58.01" y="-87.2092" font-family="Helvetica,sans-Serif" font-size="10.00" fill="#000000">::startDetachedThread</text>
</g>
<!-- Node2 -->
<g id="node2" class="node">
<title>Node2</title>
<g id="a_node2"><a xlink:href="classLibBBB_1_1Bluetooth_1_1Manager.html#aba77bfc05cca940e709d9c0bb1106127" target="_top" xlink:title="LibBBB::Bluetooth::\lManager::isConnected">
<polygon fill="#ffffff" stroke="#000000" points="158.127,-157.2092 158.127,-189.2092 274.709,-189.2092 274.709,-157.2092 158.127,-157.2092"/>
<text text-anchor="start" x="166.127" y="-176.2092" font-family="Helvetica,sans-Serif" font-size="10.00" fill="#000000">LibBBB::Bluetooth::</text>
<text text-anchor="middle" x="216.418" y="-164.2092" font-family="Helvetica,sans-Serif" font-size="10.00" fill="#000000">Manager::isConnected</text>
</a>
</g>
</g>
<!-- Node1&#45;&gt;Node2 -->
<g id="edge1" class="edge">
<title>Node1&#45;&gt;Node2</title>
<path fill="none" stroke="#191970" d="M93.3497,-117.2393C110.7324,-127.1988 132.1684,-138.9174 152.02,-148.2092 158.6459,-151.3106 165.7705,-154.3534 172.78,-157.1895"/>
<polygon fill="#191970" stroke="#191970" points="95.0679,-114.1899 84.659,-112.2137 91.5637,-120.2496 95.0679,-114.1899"/>
</g>
<!-- Node5 -->
<g id="node5" class="node">
<title>Node5</title>
<g id="a_node5"><a xlink:href="classLibBBB_1_1IO_1_1Input.html#a3a448ebc4e13f3813b6b80566af3fe79" target="_top" xlink:title="waitForEdgeThreaded does the same thing as waitForEdge(), but does so in a threaded manner...">
<polygon fill="#ffffff" stroke="#000000" points="158.9625,-106.2092 158.9625,-138.2092 273.8735,-138.2092 273.8735,-106.2092 158.9625,-106.2092"/>
<text text-anchor="start" x="166.9625" y="-125.2092" font-family="Helvetica,sans-Serif" font-size="10.00" fill="#000000">LibBBB::IO::Input::</text>
<text text-anchor="middle" x="216.418" y="-113.2092" font-family="Helvetica,sans-Serif" font-size="10.00" fill="#000000">waitForEdgeThreaded</text>
</a>
</g>
</g>
<!-- Node1&#45;&gt;Node5 -->
<g id="edge4" class="edge">
<title>Node1&#45;&gt;Node5</title>
<path fill="none" stroke="#191970" d="M126.0362,-107.3746C136.9758,-109.1701 148.2058,-111.0133 158.8685,-112.7634"/>
<polygon fill="#191970" stroke="#191970" points="126.5307,-103.909 116.0958,-105.743 125.3969,-110.8166 126.5307,-103.909"/>
</g>
<!-- Node8 -->
<g id="node8" class="node">
<title>Node8</title>
<g id="a_node8"><a xlink:href="classLibBBB_1_1IO_1_1MotorControl.html#a55cb5ace57f63ba73e679b5f79c3459a" target="_top" xlink:title="MotorControl ServoControl constructor creates the class, and spawns the frequency control thread...">
<polygon fill="#ffffff" stroke="#000000" points="152.02,-55.2092 152.02,-87.2092 280.816,-87.2092 280.816,-55.2092 152.02,-55.2092"/>
<text text-anchor="start" x="160.02" y="-74.2092" font-family="Helvetica,sans-Serif" font-size="10.00" fill="#000000">LibBBB::IO::MotorControl</text>
<text text-anchor="middle" x="216.418" y="-62.2092" font-family="Helvetica,sans-Serif" font-size="10.00" fill="#000000">::MotorControl</text>
</a>
</g>
</g>
<!-- Node1&#45;&gt;Node8 -->
<g id="edge8" class="edge">
<title>Node1&#45;&gt;Node8</title>
<path fill="none" stroke="#191970" d="M126.0616,-85.4693C134.6419,-84.1152 143.4003,-82.7329 151.9232,-81.3878"/>
<polygon fill="#191970" stroke="#191970" points="125.4279,-82.0259 116.0958,-87.0421 126.5192,-88.9403 125.4279,-82.0259"/>
</g>
<!-- Node9 -->
<g id="node9" class="node">
<title>Node9</title>
<g id="a_node9"><a xlink:href="classLibBBB_1_1IO_1_1UserLED.html#a5d6714d1ddc854308c1d4cc5448ded07" target="_top" xlink:title="setState method sets the state of the LED ">
<polygon fill="#ffffff" stroke="#000000" points="160.632,-4.2092 160.632,-36.2092 272.204,-36.2092 272.204,-4.2092 160.632,-4.2092"/>
<text text-anchor="start" x="168.632" y="-23.2092" font-family="Helvetica,sans-Serif" font-size="10.00" fill="#000000">LibBBB::IO::UserLED</text>
<text text-anchor="middle" x="216.418" y="-11.2092" font-family="Helvetica,sans-Serif" font-size="10.00" fill="#000000">::setState</text>
</a>
</g>
</g>
<!-- Node1&#45;&gt;Node9 -->
<g id="edge9" class="edge">
<title>Node1&#45;&gt;Node9</title>
<path fill="none" stroke="#191970" d="M95.489,-75.1129C112.5291,-65.8244 133.0769,-55.041 152.02,-46.2092 159.3416,-42.7957 167.2418,-39.388 174.9163,-36.217"/>
<polygon fill="#191970" stroke="#191970" points="93.495,-72.215 86.4157,-80.0975 96.8654,-78.3501 93.495,-72.215"/>
</g>
<!-- Node3 -->
<g id="node3" class="node">
<title>Node3</title>
<g id="a_node3"><a xlink:href="classVehicleControl_1_1Control.html#af677fb9565407041290bbf7b681802e5" target="_top" xlink:title="update method that controls the vehicle ">
<polygon fill="#ffffff" stroke="#000000" points="316.816,-157.2092 316.816,-189.2092 435.604,-189.2092 435.604,-157.2092 316.816,-157.2092"/>
<text text-anchor="start" x="324.816" y="-176.2092" font-family="Helvetica,sans-Serif" font-size="10.00" fill="#000000">VehicleControl::Control</text>
<text text-anchor="middle" x="376.21" y="-164.2092" font-family="Helvetica,sans-Serif" font-size="10.00" fill="#000000">::update</text>
</a>
</g>
</g>
<!-- Node2&#45;&gt;Node3 -->
<g id="edge2" class="edge">
<title>Node2&#45;&gt;Node3</title>
<path fill="none" stroke="#191970" d="M285.3037,-173.2092C295.7076,-173.2092 306.3654,-173.2092 316.5532,-173.2092"/>
<polygon fill="#191970" stroke="#191970" points="285.0113,-169.7093 275.0113,-173.2092 285.0113,-176.7093 285.0113,-169.7093"/>
</g>
<!-- Node4 -->
<g id="node4" class="node">
<title>Node4</title>
<g id="a_node4"><a xlink:href="main_8cpp.html#ae66f6b31b5ad750f1fe042a706a4e3d4" target="_top" xlink:title="main">
<polygon fill="#ffffff" stroke="#000000" points="508.557,-163.2092 508.557,-183.2092 546.223,-183.2092 546.223,-163.2092 508.557,-163.2092"/>
<text text-anchor="middle" x="527.39" y="-170.2092" font-family="Helvetica,sans-Serif" font-size="10.00" fill="#000000">main</text>
</a>
</g>
</g>
<!-- Node3&#45;&gt;Node4 -->
<g id="edge3" class="edge">
<title>Node3&#45;&gt;Node4</title>
<path fill="none" stroke="#191970" d="M446.0194,-173.2092C468.8435,-173.2092 492.3747,-173.2092 508.2238,-173.2092"/>
<polygon fill="#191970" stroke="#191970" points="445.9604,-169.7093 435.9603,-173.2092 445.9603,-176.7093 445.9604,-169.7093"/>
</g>
<!-- Node6 -->
<g id="node6" class="node">
<title>Node6</title>
<g id="a_node6"><a xlink:href="classLibBBB_1_1IO_1_1Input.html#a4e59f6e2c64f7a85adff569daf35b3d3" target="_top" xlink:title="Input constructs an input based on the given setup. The constructor will automatically export the pin...">
<polygon fill="#ffffff" stroke="#000000" points="326.8045,-106.2092 326.8045,-138.2092 425.6155,-138.2092 425.6155,-106.2092 326.8045,-106.2092"/>
<text text-anchor="start" x="334.8045" y="-125.2092" font-family="Helvetica,sans-Serif" font-size="10.00" fill="#000000">LibBBB::IO::Input::</text>
<text text-anchor="middle" x="376.21" y="-113.2092" font-family="Helvetica,sans-Serif" font-size="10.00" fill="#000000">Input</text>
</a>
</g>
</g>
<!-- Node5&#45;&gt;Node6 -->
<g id="edge5" class="edge">
<title>Node5&#45;&gt;Node6</title>
<path fill="none" stroke="#191970" d="M284.361,-122.2092C298.6063,-122.2092 313.3703,-122.2092 326.786,-122.2092"/>
<polygon fill="#191970" stroke="#191970" points="284.1066,-118.7093 274.1066,-122.2092 284.1065,-125.7093 284.1066,-118.7093"/>
</g>
<!-- Node7 -->
<g id="node7" class="node">
<title>Node7</title>
<g id="a_node7"><a xlink:href="structLibBBB_1_1IO_1_1Input_1_1Setup.html#a1ad926b46c1818dd934b0b99ddb63386" target="_top" xlink:title="LibBBB::IO::Input::\lSetup::Setup">
<polygon fill="#ffffff" stroke="#000000" points="477.9845,-73.2092 477.9845,-105.2092 576.7955,-105.2092 576.7955,-73.2092 477.9845,-73.2092"/>
<text text-anchor="start" x="485.9845" y="-92.2092" font-family="Helvetica,sans-Serif" font-size="10.00" fill="#000000">LibBBB::IO::Input::</text>
<text text-anchor="middle" x="527.39" y="-80.2092" font-family="Helvetica,sans-Serif" font-size="10.00" fill="#000000">Setup::Setup</text>
</a>
</g>
</g>
<!-- Node5&#45;&gt;Node7 -->
<g id="edge7" class="edge">
<title>Node5&#45;&gt;Node7</title>
<path fill="none" stroke="#191970" d="M282.0255,-103.8182C293.5399,-101.1811 305.4682,-98.8201 316.816,-97.2092 371.5101,-89.4453 434.9442,-88.0571 477.779,-88.2244"/>
<polygon fill="#191970" stroke="#191970" points="280.9564,-100.4748 272.0384,-106.1948 282.577,-107.2846 280.9564,-100.4748"/>
</g>
<!-- Node6&#45;&gt;Node7 -->
<g id="edge6" class="edge">
<title>Node6&#45;&gt;Node7</title>
<path fill="none" stroke="#191970" d="M435.6937,-109.225C449.6273,-106.1835 464.3267,-102.9749 477.7768,-100.0389"/>
<polygon fill="#191970" stroke="#191970" points="434.7355,-105.8516 425.712,-111.4038 436.2284,-112.6906 434.7355,-105.8516"/>
</g>
<!-- Node10 -->
<g id="node10" class="node">
<title>Node10</title>
<g id="a_node10"><a xlink:href="classLibBBB_1_1IO_1_1UserLED.html#a3ae6a5944f06980dee85eb4504ec9eb0" target="_top" xlink:title="changeBlinkTime method changes the time of the blink ">
<polygon fill="#ffffff" stroke="#000000" points="320.424,-13.2092 320.424,-45.2092 431.996,-45.2092 431.996,-13.2092 320.424,-13.2092"/>
<text text-anchor="start" x="328.424" y="-32.2092" font-family="Helvetica,sans-Serif" font-size="10.00" fill="#000000">LibBBB::IO::UserLED</text>
<text text-anchor="middle" x="376.21" y="-20.2092" font-family="Helvetica,sans-Serif" font-size="10.00" fill="#000000">::changeBlinkTime</text>
</a>
</g>
</g>
<!-- Node9&#45;&gt;Node10 -->
<g id="edge10" class="edge">
<title>Node9&#45;&gt;Node10</title>
<path fill="none" stroke="#191970" d="M282.3121,-23.9206C294.9498,-24.6324 308.07,-25.3714 320.3541,-26.0632"/>
<polygon fill="#191970" stroke="#191970" points="282.4865,-20.425 272.3055,-23.357 282.0928,-27.4139 282.4865,-20.425"/>
</g>
<!-- Node11 -->
<g id="node11" class="node">
<title>Node11</title>
<g id="a_node11"><a xlink:href="structLibBBB_1_1IO_1_1UserLED_1_1Setup.html#a25c259e98aa65d6594d0031eb0463b01" target="_top" xlink:title="LibBBB::IO::UserLED\l::Setup::Setup">
<polygon fill="#ffffff" stroke="#000000" points="471.604,-1.2092 471.604,-33.2092 583.176,-33.2092 583.176,-1.2092 471.604,-1.2092"/>
<text text-anchor="start" x="479.604" y="-20.2092" font-family="Helvetica,sans-Serif" font-size="10.00" fill="#000000">LibBBB::IO::UserLED</text>
<text text-anchor="middle" x="527.39" y="-8.2092" font-family="Helvetica,sans-Serif" font-size="10.00" fill="#000000">::Setup::Setup</text>
</a>
</g>
</g>
<!-- Node9&#45;&gt;Node11 -->
<g id="edge12" class="edge">
<title>Node9&#45;&gt;Node11</title>
<path fill="none" stroke="#191970" d="M282.2068,-7.449C293.7008,-5.6842 305.5754,-4.1542 316.816,-3.2092 369.4251,1.2133 382.9605,.7825 435.604,-3.2092 447.1767,-4.0867 459.5002,-5.5781 471.2367,-7.2685"/>
<polygon fill="#191970" stroke="#191970" points="281.5478,-4.0099 272.2293,-9.0514 282.6579,-10.9213 281.5478,-4.0099"/>
</g>
<!-- Node10&#45;&gt;Node11 -->
<g id="edge11" class="edge">
<title>Node10&#45;&gt;Node11</title>
<path fill="none" stroke="#191970" d="M442.1633,-23.9741C451.9476,-23.1975 461.951,-22.4035 471.503,-21.6453"/>
<polygon fill="#191970" stroke="#191970" points="441.766,-20.4946 432.0743,-24.775 442.3199,-27.4726 441.766,-20.4946"/>
</g>
</g>
</svg>
