<?xml version="1.0" encoding="UTF-8" standalone="no"?>
<!DOCTYPE svg PUBLIC "-//W3C//DTD SVG 1.1//EN"
 "http://www.w3.org/Graphics/SVG/1.1/DTD/svg11.dtd">
<!-- Generated by graphviz version 2.40.1 (20161225.0304)
 -->
<!-- Title: VehicleControl::IO::Output::toggleOutput Pages: 1 -->
<svg width="273pt" height="92pt"
 viewBox="0.00 0.00 273.32 92.00" xmlns="http://www.w3.org/2000/svg" xmlns:xlink="http://www.w3.org/1999/xlink">
<g id="graph0" class="graph" transform="scale(1 1) rotate(0) translate(4 88)">
<title>VehicleControl::IO::Output::toggleOutput</title>
<polygon fill="#ffffff" stroke="transparent" points="-4,4 -4,-88 269.316,-88 269.316,4 -4,4"/>
<!-- Node32 -->
<g id="node1" class="node">
<title>Node32</title>
<polygon fill="#bfbfbf" stroke="#000000" points="0,-25.5 0,-57.5 114.378,-57.5 114.378,-25.5 0,-25.5"/>
<text text-anchor="start" x="8" y="-44.5" font-family="Helvetica,sans-Serif" font-size="10.00" fill="#000000">VehicleControl::IO</text>
<text text-anchor="middle" x="57.189" y="-32.5" font-family="Helvetica,sans-Serif" font-size="10.00" fill="#000000">::Output::toggleOutput</text>
</g>
<!-- Node33 -->
<g id="node2" class="node">
<title>Node33</title>
<g id="a_node2"><a xlink:href="classVehicleControl_1_1IO_1_1Output.html#a08adbcc38e67222f17a35847e72f6ba7" target="_top" xlink:title="toggleOutput method toggles the output every using the time arguement. ">
<polygon fill="#ffffff" stroke="#000000" points="150.658,-51.5 150.658,-83.5 265.036,-83.5 265.036,-51.5 150.658,-51.5"/>
<text text-anchor="start" x="158.658" y="-70.5" font-family="Helvetica,sans-Serif" font-size="10.00" fill="#000000">VehicleControl::IO</text>
<text text-anchor="middle" x="207.847" y="-58.5" font-family="Helvetica,sans-Serif" font-size="10.00" fill="#000000">::Output::toggleOutput</text>
</a>
</g>
</g>
<!-- Node32&#45;&gt;Node33 -->
<g id="edge1" class="edge">
<title>Node32&#45;&gt;Node33</title>
<path fill="none" stroke="#191970" d="M124.6595,-53.1438C133.3278,-54.6398 142.1364,-56.1599 150.6194,-57.6239"/>
<polygon fill="#191970" stroke="#191970" points="125.0257,-49.6553 114.5761,-51.4037 123.8352,-56.5534 125.0257,-49.6553"/>
</g>
<!-- Node34 -->
<g id="node3" class="node">
<title>Node34</title>
<g id="a_node3"><a xlink:href="structVehicleControl_1_1IO_1_1Output_1_1Setup.html#a6346d200fcd68fb1693f1e3ae9c9d3af" target="_top" xlink:title="VehicleControl::IO\l::Output::Setup::Setup">
<polygon fill="#ffffff" stroke="#000000" points="150.378,-.5 150.378,-32.5 265.316,-32.5 265.316,-.5 150.378,-.5"/>
<text text-anchor="start" x="158.378" y="-19.5" font-family="Helvetica,sans-Serif" font-size="10.00" fill="#000000">VehicleControl::IO</text>
<text text-anchor="middle" x="207.847" y="-7.5" font-family="Helvetica,sans-Serif" font-size="10.00" fill="#000000">::Output::Setup::Setup</text>
</a>
</g>
</g>
<!-- Node32&#45;&gt;Node34 -->
<g id="edge2" class="edge">
<title>Node32&#45;&gt;Node34</title>
<path fill="none" stroke="#191970" d="M124.5162,-30.3278C133.0609,-28.9099 141.7444,-27.469 150.1204,-26.0791"/>
<polygon fill="#191970" stroke="#191970" points="123.8682,-26.8874 114.5761,-31.9773 125.0142,-33.793 123.8682,-26.8874"/>
</g>
</g>
</svg>
