<?xml version="1.0" encoding="UTF-8" standalone="no"?>
<!DOCTYPE svg PUBLIC "-//W3C//DTD SVG 1.1//EN"
 "http://www.w3.org/Graphics/SVG/1.1/DTD/svg11.dtd">
<!-- Generated by graphviz version 2.40.1 (20161225.0304)
 -->
<!-- Title: VehicleControl::Control::~Control Pages: 1 -->
<svg width="454pt" height="219pt"
 viewBox="0.00 0.00 453.62 219.00" xmlns="http://www.w3.org/2000/svg" xmlns:xlink="http://www.w3.org/1999/xlink">
<g id="graph0" class="graph" transform="scale(1 1) rotate(0) translate(4 215)">
<title>VehicleControl::Control::~Control</title>
<polygon fill="#ffffff" stroke="transparent" points="-4,4 -4,-215 449.616,-215 449.616,4 -4,4"/>
<!-- Node0 -->
<g id="node1" class="node">
<title>Node0</title>
<polygon fill="#bfbfbf" stroke="#000000" points="0,-101.5 0,-133.5 118.788,-133.5 118.788,-101.5 0,-101.5"/>
<text text-anchor="start" x="8" y="-120.5" font-family="Helvetica,sans-Serif" font-size="10.00" fill="#000000">VehicleControl::Control</text>
<text text-anchor="middle" x="59.394" y="-108.5" font-family="Helvetica,sans-Serif" font-size="10.00" fill="#000000">::~Control</text>
</g>
<!-- Node1 -->
<g id="node2" class="node">
<title>Node1</title>
<g id="a_node2"><a xlink:href="classVehicleControl_1_1Control_1_1IOFactory.html#a7d2f45c1d5567d7a49bf59fc0998317e" target="_top" xlink:title="destroyInputs method loops through all of the inputs, calling delete on all of them. ">
<polygon fill="#ffffff" stroke="#000000" points="158.6775,-178.5 158.6775,-210.5 289.7065,-210.5 289.7065,-178.5 158.6775,-178.5"/>
<text text-anchor="start" x="166.6775" y="-197.5" font-family="Helvetica,sans-Serif" font-size="10.00" fill="#000000">VehicleControl::Control</text>
<text text-anchor="middle" x="224.192" y="-185.5" font-family="Helvetica,sans-Serif" font-size="10.00" fill="#000000">::IOFactory::destroyInputs</text>
</a>
</g>
</g>
<!-- Node0&#45;&gt;Node1 -->
<g id="edge1" class="edge">
<title>Node0&#45;&gt;Node1</title>
<path fill="none" stroke="#191970" d="M86.38,-133.6576C105.1805,-144.5519 131.0461,-158.8288 154.788,-169.5 158.6648,-171.2425 162.7028,-172.9533 166.7952,-174.6115"/>
<polygon fill="#191970" stroke="#191970" points="165.8046,-177.9825 176.3921,-178.3749 168.3601,-171.4656 165.8046,-177.9825"/>
</g>
<!-- Node2 -->
<g id="node3" class="node">
<title>Node2</title>
<g id="a_node3"><a xlink:href="classVehicleControl_1_1Control_1_1IOFactory.html#a029a1022f10f9273c0d7eee55a40c407" target="_top" xlink:title="destroyOutputs method loops through all of the outputs, calling delete on all of them. ">
<polygon fill="#ffffff" stroke="#000000" points="154.788,-127.5 154.788,-159.5 293.596,-159.5 293.596,-127.5 154.788,-127.5"/>
<text text-anchor="start" x="162.788" y="-146.5" font-family="Helvetica,sans-Serif" font-size="10.00" fill="#000000">VehicleControl::Control</text>
<text text-anchor="middle" x="224.192" y="-134.5" font-family="Helvetica,sans-Serif" font-size="10.00" fill="#000000">::IOFactory::destroyOutputs</text>
</a>
</g>
</g>
<!-- Node0&#45;&gt;Node2 -->
<g id="edge2" class="edge">
<title>Node0&#45;&gt;Node2</title>
<path fill="none" stroke="#191970" d="M118.8899,-126.8866C127.2394,-128.2039 135.9297,-129.575 144.579,-130.9396"/>
<polygon fill="#191970" stroke="#191970" points="144.2676,-134.4336 154.6909,-132.5349 145.3586,-127.5192 144.2676,-134.4336"/>
</g>
<!-- Node3 -->
<g id="node4" class="node">
<title>Node3</title>
<g id="a_node4"><a xlink:href="classVehicleControl_1_1Control_1_1IOFactory.html#a2f665cda1a5fc33ce4c799325cb70a3b" target="_top" xlink:title="destroyServos method loops through all of the servos, calling delete on all of them. ">
<polygon fill="#ffffff" stroke="#000000" points="156.737,-76.5 156.737,-108.5 291.647,-108.5 291.647,-76.5 156.737,-76.5"/>
<text text-anchor="start" x="164.737" y="-95.5" font-family="Helvetica,sans-Serif" font-size="10.00" fill="#000000">VehicleControl::Control</text>
<text text-anchor="middle" x="224.192" y="-83.5" font-family="Helvetica,sans-Serif" font-size="10.00" fill="#000000">::IOFactory::destroyServos</text>
</a>
</g>
</g>
<!-- Node0&#45;&gt;Node3 -->
<g id="edge3" class="edge">
<title>Node0&#45;&gt;Node3</title>
<path fill="none" stroke="#191970" d="M118.8899,-108.4744C127.8948,-107.1084 137.2962,-105.6822 146.6151,-104.2685"/>
<polygon fill="#191970" stroke="#191970" points="147.3101,-107.7032 156.672,-102.7428 146.2601,-100.7824 147.3101,-107.7032"/>
</g>
<!-- Node4 -->
<g id="node5" class="node">
<title>Node4</title>
<g id="a_node5"><a xlink:href="classLibBBB_1_1IO_1_1UserLED.html#a5d6714d1ddc854308c1d4cc5448ded07" target="_top" xlink:title="setState method sets the state of the LED ">
<polygon fill="#ffffff" stroke="#000000" points="168.406,-25.5 168.406,-57.5 279.978,-57.5 279.978,-25.5 168.406,-25.5"/>
<text text-anchor="start" x="176.406" y="-44.5" font-family="Helvetica,sans-Serif" font-size="10.00" fill="#000000">LibBBB::IO::UserLED</text>
<text text-anchor="middle" x="224.192" y="-32.5" font-family="Helvetica,sans-Serif" font-size="10.00" fill="#000000">::setState</text>
</a>
</g>
</g>
<!-- Node0&#45;&gt;Node4 -->
<g id="edge4" class="edge">
<title>Node0&#45;&gt;Node4</title>
<path fill="none" stroke="#191970" d="M87.7387,-101.4566C106.4771,-91.1479 131.7451,-77.807 154.788,-67.5 159.4404,-65.419 164.3145,-63.3596 169.2305,-61.3648"/>
<polygon fill="#191970" stroke="#191970" points="170.6794,-64.5555 178.6885,-57.6198 168.1023,-58.0472 170.6794,-64.5555"/>
</g>
<!-- Node5 -->
<g id="node6" class="node">
<title>Node5</title>
<g id="a_node6"><a xlink:href="classLibBBB_1_1IO_1_1UserLED.html#a98c0a865b590a4149e3b5a8d8c97d6cd" target="_top" xlink:title="state getter ">
<polygon fill="#ffffff" stroke="#000000" points="331.82,-51.5 331.82,-83.5 443.392,-83.5 443.392,-51.5 331.82,-51.5"/>
<text text-anchor="start" x="339.82" y="-70.5" font-family="Helvetica,sans-Serif" font-size="10.00" fill="#000000">LibBBB::IO::UserLED</text>
<text text-anchor="middle" x="387.606" y="-58.5" font-family="Helvetica,sans-Serif" font-size="10.00" fill="#000000">::state</text>
</a>
</g>
</g>
<!-- Node4&#45;&gt;Node5 -->
<g id="edge5" class="edge">
<title>Node4&#45;&gt;Node5</title>
<path fill="none" stroke="#191970" d="M280.4298,-50.4477C293.8024,-52.5754 308.1862,-54.8639 321.939,-57.052"/>
<polygon fill="#191970" stroke="#191970" points="321.3923,-60.509 331.8181,-58.6239 322.4923,-53.596 321.3923,-60.509"/>
</g>
<!-- Node6 -->
<g id="node7" class="node">
<title>Node6</title>
<g id="a_node7"><a xlink:href="classLibBBB_1_1ThreadHelper.html#a6999e18135496ef252b1c43c374c20f9" target="_top" xlink:title="startDetachedThread ">
<polygon fill="#ffffff" stroke="#000000" points="329.596,-.5 329.596,-32.5 445.616,-32.5 445.616,-.5 329.596,-.5"/>
<text text-anchor="start" x="337.596" y="-19.5" font-family="Helvetica,sans-Serif" font-size="10.00" fill="#000000">LibBBB::ThreadHelper</text>
<text text-anchor="middle" x="387.606" y="-7.5" font-family="Helvetica,sans-Serif" font-size="10.00" fill="#000000">::startDetachedThread</text>
</a>
</g>
</g>
<!-- Node4&#45;&gt;Node6 -->
<g id="edge6" class="edge">
<title>Node4&#45;&gt;Node6</title>
<path fill="none" stroke="#191970" d="M280.4298,-32.8964C292.8871,-30.9906 306.2219,-28.9506 319.1066,-26.9794"/>
<polygon fill="#191970" stroke="#191970" points="319.9624,-30.3893 329.3181,-25.4172 318.9038,-23.4698 319.9624,-30.3893"/>
</g>
</g>
</svg>
