<?xml version="1.0" encoding="UTF-8" standalone="no"?>
<!DOCTYPE svg PUBLIC "-//W3C//DTD SVG 1.1//EN"
 "http://www.w3.org/Graphics/SVG/1.1/DTD/svg11.dtd">
<!-- Generated by graphviz version 2.40.1 (20161225.0304)
 -->
<!-- Title: VehicleControl::Control::IOFactory::destroyServos Pages: 1 -->
<svg width="298pt" height="41pt"
 viewBox="0.00 0.00 297.70 41.00" xmlns="http://www.w3.org/2000/svg" xmlns:xlink="http://www.w3.org/1999/xlink">
<g id="graph0" class="graph" transform="scale(1 1) rotate(0) translate(4 37)">
<title>VehicleControl::Control::IOFactory::destroyServos</title>
<polygon fill="#ffffff" stroke="transparent" points="-4,4 -4,-37 293.698,-37 293.698,4 -4,4"/>
<!-- Node7 -->
<g id="node1" class="node">
<title>Node7</title>
<polygon fill="#bfbfbf" stroke="#000000" points="0,-.5 0,-32.5 134.91,-32.5 134.91,-.5 0,-.5"/>
<text text-anchor="start" x="8" y="-19.5" font-family="Helvetica,sans-Serif" font-size="10.00" fill="#000000">VehicleControl::Control</text>
<text text-anchor="middle" x="67.455" y="-7.5" font-family="Helvetica,sans-Serif" font-size="10.00" fill="#000000">::IOFactory::destroyServos</text>
</g>
<!-- Node8 -->
<g id="node2" class="node">
<title>Node8</title>
<g id="a_node2"><a xlink:href="classVehicleControl_1_1Control.html#aaaa31c5094e42f0f9795187d59ed10c4" target="_top" xlink:title="VehicleControl::Control\l::~Control">
<polygon fill="#ffffff" stroke="#000000" points="170.91,-.5 170.91,-32.5 289.698,-32.5 289.698,-.5 170.91,-.5"/>
<text text-anchor="start" x="178.91" y="-19.5" font-family="Helvetica,sans-Serif" font-size="10.00" fill="#000000">VehicleControl::Control</text>
<text text-anchor="middle" x="230.304" y="-7.5" font-family="Helvetica,sans-Serif" font-size="10.00" fill="#000000">::~Control</text>
</a>
</g>
</g>
<!-- Node7&#45;&gt;Node8 -->
<g id="edge1" class="edge">
<title>Node7&#45;&gt;Node8</title>
<path fill="none" stroke="#191970" d="M145.1283,-16.5C153.7098,-16.5 162.3469,-16.5 170.6574,-16.5"/>
<polygon fill="#191970" stroke="#191970" points="145.1029,-13.0001 135.1029,-16.5 145.1028,-20.0001 145.1029,-13.0001"/>
</g>
</g>
</svg>
