<?xml version="1.0" encoding="UTF-8" standalone="no"?>
<!DOCTYPE svg PUBLIC "-//W3C//DTD SVG 1.1//EN"
 "http://www.w3.org/Graphics/SVG/1.1/DTD/svg11.dtd">
<!-- Generated by graphviz version 2.40.1 (20161225.0304)
 -->
<!-- Title: LibBBB::Bluetooth::Manager::sendData Pages: 1 -->
<svg width="533pt" height="53pt"
 viewBox="0.00 0.00 533.38 53.00" xmlns="http://www.w3.org/2000/svg" xmlns:xlink="http://www.w3.org/1999/xlink">
<g id="graph0" class="graph" transform="scale(1 1) rotate(0) translate(4 49)">
<title>LibBBB::Bluetooth::Manager::sendData</title>
<polygon fill="#ffffff" stroke="transparent" points="-4,4 -4,-49 529.382,-49 529.382,4 -4,4"/>
<!-- Node16 -->
<g id="node1" class="node">
<title>Node16</title>
<polygon fill="#bfbfbf" stroke="#000000" points="0,-6.5 0,-38.5 103.804,-38.5 103.804,-6.5 0,-6.5"/>
<text text-anchor="start" x="8" y="-25.5" font-family="Helvetica,sans-Serif" font-size="10.00" fill="#000000">LibBBB::Bluetooth::</text>
<text text-anchor="middle" x="51.902" y="-13.5" font-family="Helvetica,sans-Serif" font-size="10.00" fill="#000000">Manager::sendData</text>
</g>
<!-- Node17 -->
<g id="node2" class="node">
<title>Node17</title>
<g id="a_node2"><a xlink:href="classVehicleControl_1_1Control_1_1CommunicationProtocolParser.html#abdbab1c6376e364c7064e5c5b04f0168" target="_top" xlink:title="sendOutgoingPackets packs and send outgoing data. This method takes care of packing bools into a sing...">
<polygon fill="#ffffff" stroke="#000000" points="139.804,-.5 139.804,-44.5 296.928,-44.5 296.928,-.5 139.804,-.5"/>
<text text-anchor="start" x="147.804" y="-31.5" font-family="Helvetica,sans-Serif" font-size="10.00" fill="#000000">VehicleControl::Control</text>
<text text-anchor="start" x="147.804" y="-19.5" font-family="Helvetica,sans-Serif" font-size="10.00" fill="#000000">::CommunicationProtocolParser</text>
<text text-anchor="middle" x="218.366" y="-7.5" font-family="Helvetica,sans-Serif" font-size="10.00" fill="#000000">::sendOutgoingPackets</text>
</a>
</g>
</g>
<!-- Node16&#45;&gt;Node17 -->
<g id="edge1" class="edge">
<title>Node16&#45;&gt;Node17</title>
<path fill="none" stroke="#191970" d="M114.3431,-22.5C122.5602,-22.5 131.0662,-22.5 139.5119,-22.5"/>
<polygon fill="#191970" stroke="#191970" points="114.1156,-19.0001 104.1155,-22.5 114.1155,-26.0001 114.1156,-19.0001"/>
</g>
<!-- Node18 -->
<g id="node3" class="node">
<title>Node18</title>
<g id="a_node3"><a xlink:href="classVehicleControl_1_1Control.html#af677fb9565407041290bbf7b681802e5" target="_top" xlink:title="update method that controls the vehicle ">
<polygon fill="#ffffff" stroke="#000000" points="332.928,-6.5 332.928,-38.5 451.716,-38.5 451.716,-6.5 332.928,-6.5"/>
<text text-anchor="start" x="340.928" y="-25.5" font-family="Helvetica,sans-Serif" font-size="10.00" fill="#000000">VehicleControl::Control</text>
<text text-anchor="middle" x="392.322" y="-13.5" font-family="Helvetica,sans-Serif" font-size="10.00" fill="#000000">::update</text>
</a>
</g>
</g>
<!-- Node17&#45;&gt;Node18 -->
<g id="edge2" class="edge">
<title>Node17&#45;&gt;Node18</title>
<path fill="none" stroke="#191970" d="M307.1573,-22.5C315.8636,-22.5 324.5457,-22.5 332.8544,-22.5"/>
<polygon fill="#191970" stroke="#191970" points="306.9467,-19.0001 296.9466,-22.5 306.9466,-26.0001 306.9467,-19.0001"/>
</g>
<!-- Node19 -->
<g id="node4" class="node">
<title>Node19</title>
<g id="a_node4"><a xlink:href="main_8cpp.html#ae66f6b31b5ad750f1fe042a706a4e3d4" target="_top" xlink:title="main">
<polygon fill="#ffffff" stroke="#000000" points="487.716,-12.5 487.716,-32.5 525.382,-32.5 525.382,-12.5 487.716,-12.5"/>
<text text-anchor="middle" x="506.549" y="-19.5" font-family="Helvetica,sans-Serif" font-size="10.00" fill="#000000">main</text>
</a>
</g>
</g>
<!-- Node18&#45;&gt;Node19 -->
<g id="edge3" class="edge">
<title>Node18&#45;&gt;Node19</title>
<path fill="none" stroke="#191970" d="M462.0599,-22.5C471.4107,-22.5 480.2863,-22.5 487.6146,-22.5"/>
<polygon fill="#191970" stroke="#191970" points="461.7775,-19.0001 451.7775,-22.5 461.7774,-26.0001 461.7775,-19.0001"/>
</g>
</g>
</svg>
