<?xml version="1.0" encoding="UTF-8" standalone="no"?>
<!DOCTYPE svg PUBLIC "-//W3C//DTD SVG 1.1//EN"
 "http://www.w3.org/Graphics/SVG/1.1/DTD/svg11.dtd">
<!-- Generated by graphviz version 2.40.1 (20161225.0304)
 -->
<!-- Title: VehicleControl::IO::IOBase::read Pages: 1 -->
<svg width="718pt" height="197pt"
 viewBox="0.00 0.00 718.28 197.00" xmlns="http://www.w3.org/2000/svg" xmlns:xlink="http://www.w3.org/1999/xlink">
<g id="graph0" class="graph" transform="scale(1 1) rotate(0) translate(4 193)">
<title>VehicleControl::IO::IOBase::read</title>
<polygon fill="#ffffff" stroke="transparent" points="-4,4 -4,-193 714.279,-193 714.279,4 -4,4"/>
<!-- Node31 -->
<g id="node1" class="node">
<title>Node31</title>
<polygon fill="#bfbfbf" stroke="#000000" points="0,-101.5 0,-133.5 97.123,-133.5 97.123,-101.5 0,-101.5"/>
<text text-anchor="start" x="8" y="-120.5" font-family="Helvetica,sans-Serif" font-size="10.00" fill="#000000">VehicleControl::IO</text>
<text text-anchor="middle" x="48.5615" y="-108.5" font-family="Helvetica,sans-Serif" font-size="10.00" fill="#000000">::IOBase::read</text>
</g>
<!-- Node32 -->
<g id="node2" class="node">
<title>Node32</title>
<g id="a_node2"><a xlink:href="classVehicleControl_1_1IO_1_1Input.html#ac9f955530d4e9be48fd1c936d29aab49" target="_top" xlink:title="getEdgeType getter ">
<polygon fill="#ffffff" stroke="#000000" points="133.123,-156.5 133.123,-188.5 241.944,-188.5 241.944,-156.5 133.123,-156.5"/>
<text text-anchor="start" x="141.123" y="-175.5" font-family="Helvetica,sans-Serif" font-size="10.00" fill="#000000">VehicleControl::IO</text>
<text text-anchor="middle" x="187.5335" y="-163.5" font-family="Helvetica,sans-Serif" font-size="10.00" fill="#000000">::Input::getEdgeType</text>
</a>
</g>
</g>
<!-- Node31&#45;&gt;Node32 -->
<g id="edge1" class="edge">
<title>Node31&#45;&gt;Node32</title>
<path fill="none" stroke="#191970" d="M98.7179,-137.3501C114.4646,-143.582 131.6501,-150.3834 146.6724,-156.3287"/>
<polygon fill="#191970" stroke="#191970" points="99.7178,-133.9817 89.1315,-133.5561 97.1418,-140.4905 99.7178,-133.9817"/>
</g>
<!-- Node34 -->
<g id="node4" class="node">
<title>Node34</title>
<g id="a_node4"><a xlink:href="classVehicleControl_1_1IO_1_1IOBase.html#adcc9f65745e07f2e00425d4e0f5f8e54" target="_top" xlink:title="getValue getter ">
<polygon fill="#ffffff" stroke="#000000" points="137.572,-76.5 137.572,-108.5 237.495,-108.5 237.495,-76.5 137.572,-76.5"/>
<text text-anchor="start" x="145.572" y="-95.5" font-family="Helvetica,sans-Serif" font-size="10.00" fill="#000000">VehicleControl::IO</text>
<text text-anchor="middle" x="187.5335" y="-83.5" font-family="Helvetica,sans-Serif" font-size="10.00" fill="#000000">::IOBase::getValue</text>
</a>
</g>
</g>
<!-- Node31&#45;&gt;Node34 -->
<g id="edge3" class="edge">
<title>Node31&#45;&gt;Node34</title>
<path fill="none" stroke="#191970" d="M107.0812,-106.9728C117.1321,-105.1647 127.4971,-103.3001 137.3062,-101.5355"/>
<polygon fill="#191970" stroke="#191970" points="106.3895,-103.5409 97.1672,-108.7562 107.6289,-110.4303 106.3895,-103.5409"/>
</g>
<!-- Node33 -->
<g id="node3" class="node">
<title>Node33</title>
<g id="a_node3"><a xlink:href="structVehicleControl_1_1IO_1_1Input_1_1Setup.html#a09ce07a96559b6f63eaa51d8eccbc877" target="_top" xlink:title="VehicleControl::IO\l::Input::Setup::Setup">
<polygon fill="#ffffff" stroke="#000000" points="603.12,-147.5 603.12,-179.5 710.279,-179.5 710.279,-147.5 603.12,-147.5"/>
<text text-anchor="start" x="611.12" y="-166.5" font-family="Helvetica,sans-Serif" font-size="10.00" fill="#000000">VehicleControl::IO</text>
<text text-anchor="middle" x="656.6995" y="-154.5" font-family="Helvetica,sans-Serif" font-size="10.00" fill="#000000">::Input::Setup::Setup</text>
</a>
</g>
</g>
<!-- Node32&#45;&gt;Node33 -->
<g id="edge2" class="edge">
<title>Node32&#45;&gt;Node33</title>
<path fill="none" stroke="#191970" d="M252.5303,-171.3781C328.1223,-170.0555 456.6644,-167.7515 567.12,-165.5 578.629,-165.2654 590.9693,-164.9993 602.6987,-164.7396"/>
<polygon fill="#191970" stroke="#191970" points="252.1601,-167.884 242.2227,-171.5581 252.2823,-174.8829 252.1601,-167.884"/>
</g>
<!-- Node35 -->
<g id="node5" class="node">
<title>Node35</title>
<g id="a_node5"><a xlink:href="classVehicleControl_1_1IO_1_1Input.html#a23f6d0d5f5cc67622adccf30c7bdb655" target="_top" xlink:title="waitForEdge method is a blocking wait for edge. Therefore, the callee will halt its thread until this...">
<polygon fill="#ffffff" stroke="#000000" points="283.504,-102.5 283.504,-134.5 388.974,-134.5 388.974,-102.5 283.504,-102.5"/>
<text text-anchor="start" x="291.504" y="-121.5" font-family="Helvetica,sans-Serif" font-size="10.00" fill="#000000">VehicleControl::IO</text>
<text text-anchor="middle" x="336.239" y="-109.5" font-family="Helvetica,sans-Serif" font-size="10.00" fill="#000000">::Input::waitForEdge</text>
</a>
</g>
</g>
<!-- Node34&#45;&gt;Node35 -->
<g id="edge4" class="edge">
<title>Node34&#45;&gt;Node35</title>
<path fill="none" stroke="#191970" d="M248.0275,-103.0769C259.7509,-105.1267 271.951,-107.2597 283.4054,-109.2625"/>
<polygon fill="#191970" stroke="#191970" points="248.3318,-99.5771 237.8784,-101.3024 247.1261,-106.4725 248.3318,-99.5771"/>
</g>
<!-- Node37 -->
<g id="node7" class="node">
<title>Node37</title>
<g id="a_node7"><a xlink:href="classVehicleControl_1_1IO_1_1Output.html#a0ff845e3963d2a3e19080b402edfaaf6" target="_top" xlink:title="toggleOutput method toggles the output once ">
<polygon fill="#ffffff" stroke="#000000" points="279.05,-51.5 279.05,-83.5 393.428,-83.5 393.428,-51.5 279.05,-51.5"/>
<text text-anchor="start" x="287.05" y="-70.5" font-family="Helvetica,sans-Serif" font-size="10.00" fill="#000000">VehicleControl::IO</text>
<text text-anchor="middle" x="336.239" y="-58.5" font-family="Helvetica,sans-Serif" font-size="10.00" fill="#000000">::Output::toggleOutput</text>
</a>
</g>
</g>
<!-- Node34&#45;&gt;Node37 -->
<g id="edge8" class="edge">
<title>Node34&#45;&gt;Node37</title>
<path fill="none" stroke="#191970" d="M247.9825,-82.3375C258.239,-80.6132 268.8615,-78.8273 279.0314,-77.1176"/>
<polygon fill="#191970" stroke="#191970" points="247.1597,-78.9266 237.8784,-84.0361 248.3203,-85.8297 247.1597,-78.9266"/>
</g>
<!-- Node40 -->
<g id="node10" class="node">
<title>Node40</title>
<g id="a_node10"><a xlink:href="classVehicleControl_1_1IO_1_1Output.html#a522b8b858e6e80e33b5c82cbe6a40dac" target="_top" xlink:title="cancelToggle cancels toggling ">
<polygon fill="#ffffff" stroke="#000000" points="277.944,-.5 277.944,-32.5 394.534,-32.5 394.534,-.5 277.944,-.5"/>
<text text-anchor="start" x="285.944" y="-19.5" font-family="Helvetica,sans-Serif" font-size="10.00" fill="#000000">VehicleControl::IO</text>
<text text-anchor="middle" x="336.239" y="-7.5" font-family="Helvetica,sans-Serif" font-size="10.00" fill="#000000">::Output::cancelToggle</text>
</a>
</g>
</g>
<!-- Node34&#45;&gt;Node40 -->
<g id="edge11" class="edge">
<title>Node34&#45;&gt;Node40</title>
<path fill="none" stroke="#191970" d="M223.169,-71.2174C239.6194,-61.7004 259.5445,-50.6014 277.944,-41.5 284.0637,-38.4728 290.6385,-35.4456 297.0889,-32.5959"/>
<polygon fill="#191970" stroke="#191970" points="221.2949,-68.2586 214.4191,-76.3192 224.8208,-74.3058 221.2949,-68.2586"/>
</g>
<!-- Node35&#45;&gt;Node33 -->
<g id="edge7" class="edge">
<title>Node35&#45;&gt;Node33</title>
<path fill="none" stroke="#191970" d="M397.5862,-137.1776C408.4815,-139.9885 419.7823,-142.5832 430.534,-144.5 488.9152,-154.9083 556.8192,-159.6454 602.8717,-161.7822"/>
<polygon fill="#191970" stroke="#191970" points="398.2856,-133.7419 387.7216,-134.5486 396.4829,-140.5058 398.2856,-133.7419"/>
</g>
<!-- Node36 -->
<g id="node6" class="node">
<title>Node36</title>
<g id="a_node6"><a xlink:href="classVehicleControl_1_1IO_1_1Input.html#af43084e3aa7a11f0dae0ae67a22112f1" target="_top" xlink:title="cancelWaitForEdge method cancels waiting for the edge. ">
<polygon fill="#ffffff" stroke="#000000" points="430.534,-102.5 430.534,-134.5 567.12,-134.5 567.12,-102.5 430.534,-102.5"/>
<text text-anchor="start" x="438.534" y="-121.5" font-family="Helvetica,sans-Serif" font-size="10.00" fill="#000000">VehicleControl::IO</text>
<text text-anchor="middle" x="498.827" y="-109.5" font-family="Helvetica,sans-Serif" font-size="10.00" fill="#000000">::Input::cancelWaitForEdge</text>
</a>
</g>
</g>
<!-- Node35&#45;&gt;Node36 -->
<g id="edge5" class="edge">
<title>Node35&#45;&gt;Node36</title>
<path fill="none" stroke="#191970" d="M399.0902,-118.5C409.3165,-118.5 419.9539,-118.5 430.3076,-118.5"/>
<polygon fill="#191970" stroke="#191970" points="399.0267,-115.0001 389.0267,-118.5 399.0266,-122.0001 399.0267,-115.0001"/>
</g>
<!-- Node36&#45;&gt;Node33 -->
<g id="edge6" class="edge">
<title>Node36&#45;&gt;Node33</title>
<path fill="none" stroke="#191970" d="M565.3169,-137.4523C577.8577,-141.0269 590.8284,-144.7241 602.9197,-148.1706"/>
<polygon fill="#191970" stroke="#191970" points="565.9531,-133.9943 555.3767,-134.6189 564.0342,-140.7261 565.9531,-133.9943"/>
</g>
<!-- Node38 -->
<g id="node8" class="node">
<title>Node38</title>
<g id="a_node8"><a xlink:href="classVehicleControl_1_1IO_1_1Output.html#a08adbcc38e67222f17a35847e72f6ba7" target="_top" xlink:title="toggleOutput method toggles the output every using the time arguement. ">
<polygon fill="#ffffff" stroke="#000000" points="441.638,-51.5 441.638,-83.5 556.016,-83.5 556.016,-51.5 441.638,-51.5"/>
<text text-anchor="start" x="449.638" y="-70.5" font-family="Helvetica,sans-Serif" font-size="10.00" fill="#000000">VehicleControl::IO</text>
<text text-anchor="middle" x="498.827" y="-58.5" font-family="Helvetica,sans-Serif" font-size="10.00" fill="#000000">::Output::toggleOutput</text>
</a>
</g>
</g>
<!-- Node37&#45;&gt;Node38 -->
<g id="edge9" class="edge">
<title>Node37&#45;&gt;Node38</title>
<path fill="none" stroke="#191970" d="M403.9186,-67.5C416.404,-67.5 429.3304,-67.5 441.4742,-67.5"/>
<polygon fill="#191970" stroke="#191970" points="403.5615,-64.0001 393.5614,-67.5 403.5614,-71.0001 403.5615,-64.0001"/>
</g>
<!-- Node39 -->
<g id="node9" class="node">
<title>Node39</title>
<g id="a_node9"><a xlink:href="structVehicleControl_1_1IO_1_1Output_1_1Setup.html#a6346d200fcd68fb1693f1e3ae9c9d3af" target="_top" xlink:title="VehicleControl::IO\l::Output::Setup::Setup">
<polygon fill="#ffffff" stroke="#000000" points="441.358,-.5 441.358,-32.5 556.296,-32.5 556.296,-.5 441.358,-.5"/>
<text text-anchor="start" x="449.358" y="-19.5" font-family="Helvetica,sans-Serif" font-size="10.00" fill="#000000">VehicleControl::IO</text>
<text text-anchor="middle" x="498.827" y="-7.5" font-family="Helvetica,sans-Serif" font-size="10.00" fill="#000000">::Output::Setup::Setup</text>
</a>
</g>
</g>
<!-- Node37&#45;&gt;Node39 -->
<g id="edge10" class="edge">
<title>Node37&#45;&gt;Node39</title>
<path fill="none" stroke="#191970" d="M397.3003,-48.3465C413.9097,-43.1366 431.7223,-37.5492 447.7178,-32.5317"/>
<polygon fill="#191970" stroke="#191970" points="396.1769,-45.0307 387.6829,-51.3633 398.272,-51.7098 396.1769,-45.0307"/>
</g>
<!-- Node40&#45;&gt;Node39 -->
<g id="edge12" class="edge">
<title>Node40&#45;&gt;Node39</title>
<path fill="none" stroke="#191970" d="M404.9838,-16.5C417.0796,-16.5 429.5551,-16.5 441.3044,-16.5"/>
<polygon fill="#191970" stroke="#191970" points="404.937,-13.0001 394.937,-16.5 404.937,-20.0001 404.937,-13.0001"/>
</g>
</g>
</svg>
