<?xml version="1.0" encoding="UTF-8" standalone="no"?>
<!DOCTYPE svg PUBLIC "-//W3C//DTD SVG 1.1//EN"
 "http://www.w3.org/Graphics/SVG/1.1/DTD/svg11.dtd">
<!-- Generated by graphviz version 2.40.1 (20161225.0304)
 -->
<!-- Title: LibBBB::IO::UserLED::setState Pages: 1 -->
<svg width="611pt" height="182pt"
 viewBox="0.00 0.00 611.16 182.00" xmlns="http://www.w3.org/2000/svg" xmlns:xlink="http://www.w3.org/1999/xlink">
<g id="graph0" class="graph" transform="scale(1 1) rotate(0) translate(4 178)">
<title>LibBBB::IO::UserLED::setState</title>
<polygon fill="#ffffff" stroke="transparent" points="-4,4 -4,-178 607.165,-178 607.165,4 -4,4"/>
<!-- Node16 -->
<g id="node1" class="node">
<title>Node16</title>
<polygon fill="#bfbfbf" stroke="#000000" points="0,-45.5 0,-77.5 111.572,-77.5 111.572,-45.5 0,-45.5"/>
<text text-anchor="start" x="8" y="-64.5" font-family="Helvetica,sans-Serif" font-size="10.00" fill="#000000">LibBBB::IO::UserLED</text>
<text text-anchor="middle" x="55.786" y="-52.5" font-family="Helvetica,sans-Serif" font-size="10.00" fill="#000000">::setState</text>
</g>
<!-- Node17 -->
<g id="node2" class="node">
<title>Node17</title>
<g id="a_node2"><a xlink:href="namespaceVehicleControl.html#af89cecf99aa4e7787af7433d8f3b6970" target="_top" xlink:title="VehicleControl::callback">
<polygon fill="#ffffff" stroke="#000000" points="147.572,-99.5 147.572,-119.5 270.252,-119.5 270.252,-99.5 147.572,-99.5"/>
<text text-anchor="middle" x="208.912" y="-106.5" font-family="Helvetica,sans-Serif" font-size="10.00" fill="#000000">VehicleControl::callback</text>
</a>
</g>
</g>
<!-- Node16&#45;&gt;Node17 -->
<g id="edge1" class="edge">
<title>Node16&#45;&gt;Node17</title>
<path fill="none" stroke="#191970" d="M116.7741,-80.6178C137.2204,-87.027 159.2141,-93.9213 176.5841,-99.3663"/>
<polygon fill="#191970" stroke="#191970" points="117.7898,-77.2683 107.2007,-77.6168 115.696,-83.9478 117.7898,-77.2683"/>
</g>
<!-- Node22 -->
<g id="node7" class="node">
<title>Node22</title>
<g id="a_node7"><a xlink:href="classLibBBB_1_1IO_1_1UserLED.html#a3ae6a5944f06980dee85eb4504ec9eb0" target="_top" xlink:title="changeBlinkTime method changes the time of the blink ">
<polygon fill="#ffffff" stroke="#000000" points="153.126,-45.5 153.126,-77.5 264.698,-77.5 264.698,-45.5 153.126,-45.5"/>
<text text-anchor="start" x="161.126" y="-64.5" font-family="Helvetica,sans-Serif" font-size="10.00" fill="#000000">LibBBB::IO::UserLED</text>
<text text-anchor="middle" x="208.912" y="-52.5" font-family="Helvetica,sans-Serif" font-size="10.00" fill="#000000">::changeBlinkTime</text>
</a>
</g>
</g>
<!-- Node16&#45;&gt;Node22 -->
<g id="edge7" class="edge">
<title>Node16&#45;&gt;Node22</title>
<path fill="none" stroke="#191970" d="M122.1261,-61.5C132.4293,-61.5 142.984,-61.5 153.0258,-61.5"/>
<polygon fill="#191970" stroke="#191970" points="121.935,-58.0001 111.935,-61.5 121.9349,-65.0001 121.935,-58.0001"/>
</g>
<!-- Node23 -->
<g id="node8" class="node">
<title>Node23</title>
<g id="a_node8"><a xlink:href="structLibBBB_1_1IO_1_1UserLED_1_1Setup.html#a25c259e98aa65d6594d0031eb0463b01" target="_top" xlink:title="LibBBB::IO::UserLED\l::Setup::Setup">
<polygon fill="#ffffff" stroke="#000000" points="321.5285,-.5 321.5285,-32.5 433.1005,-32.5 433.1005,-.5 321.5285,-.5"/>
<text text-anchor="start" x="329.5285" y="-19.5" font-family="Helvetica,sans-Serif" font-size="10.00" fill="#000000">LibBBB::IO::UserLED</text>
<text text-anchor="middle" x="377.3145" y="-7.5" font-family="Helvetica,sans-Serif" font-size="10.00" fill="#000000">::Setup::Setup</text>
</a>
</g>
</g>
<!-- Node16&#45;&gt;Node23 -->
<g id="edge9" class="edge">
<title>Node16&#45;&gt;Node23</title>
<path fill="none" stroke="#191970" d="M115.8003,-42.7071C126.3082,-39.9326 137.1982,-37.3799 147.572,-35.5 206.2491,-24.8665 274.45,-20.1746 321.211,-18.1101"/>
<polygon fill="#191970" stroke="#191970" points="114.5955,-39.4079 105.872,-45.4205 116.441,-46.1603 114.5955,-39.4079"/>
</g>
<!-- Node18 -->
<g id="node3" class="node">
<title>Node18</title>
<g id="a_node3"><a xlink:href="classLibBBB_1_1IO_1_1Input.html#ab581bd59f9ca5bfb2e45ebdc81b5e3cc" target="_top" xlink:title="setEdgeCallback setter ">
<polygon fill="#ffffff" stroke="#000000" points="327.909,-141.5 327.909,-173.5 426.72,-173.5 426.72,-141.5 327.909,-141.5"/>
<text text-anchor="start" x="335.909" y="-160.5" font-family="Helvetica,sans-Serif" font-size="10.00" fill="#000000">LibBBB::IO::Input::</text>
<text text-anchor="middle" x="377.3145" y="-148.5" font-family="Helvetica,sans-Serif" font-size="10.00" fill="#000000">setEdgeCallback</text>
</a>
</g>
</g>
<!-- Node17&#45;&gt;Node18 -->
<g id="edge2" class="edge">
<title>Node17&#45;&gt;Node18</title>
<path fill="none" stroke="#191970" d="M253.9581,-122.3395C276.6977,-128.8211 304.3388,-136.6996 327.6875,-143.3547"/>
<polygon fill="#191970" stroke="#191970" points="254.7911,-118.9376 244.2147,-119.5624 252.8722,-125.6695 254.7911,-118.9376"/>
</g>
<!-- Node19 -->
<g id="node4" class="node">
<title>Node19</title>
<g id="a_node4"><a xlink:href="structLibBBB_1_1IO_1_1Input_1_1Setup.html#a1ad926b46c1818dd934b0b99ddb63386" target="_top" xlink:title="LibBBB::IO::Input::\lSetup::Setup">
<polygon fill="#ffffff" stroke="#000000" points="494.3655,-121.5 494.3655,-153.5 593.1765,-153.5 593.1765,-121.5 494.3655,-121.5"/>
<text text-anchor="start" x="502.3655" y="-140.5" font-family="Helvetica,sans-Serif" font-size="10.00" fill="#000000">LibBBB::IO::Input::</text>
<text text-anchor="middle" x="543.771" y="-128.5" font-family="Helvetica,sans-Serif" font-size="10.00" fill="#000000">Setup::Setup</text>
</a>
</g>
</g>
<!-- Node17&#45;&gt;Node19 -->
<g id="edge4" class="edge">
<title>Node17&#45;&gt;Node19</title>
<path fill="none" stroke="#191970" d="M280.4038,-115.4779C344.7581,-120.8591 437.6534,-128.6267 494.1869,-133.3539"/>
<polygon fill="#191970" stroke="#191970" points="280.5872,-111.9812 270.3303,-114.6356 280.0039,-118.9568 280.5872,-111.9812"/>
</g>
<!-- Node20 -->
<g id="node5" class="node">
<title>Node20</title>
<g id="a_node5"><a xlink:href="namespaceVehicleControl.html#ab876bdb990021d96b1452a85b59f99d8" target="_top" xlink:title="VehicleControl::createRising\lEdgeThreadedInput">
<polygon fill="#ffffff" stroke="#000000" points="306.252,-51.5 306.252,-83.5 448.377,-83.5 448.377,-51.5 306.252,-51.5"/>
<text text-anchor="start" x="314.252" y="-70.5" font-family="Helvetica,sans-Serif" font-size="10.00" fill="#000000">VehicleControl::createRising</text>
<text text-anchor="middle" x="377.3145" y="-58.5" font-family="Helvetica,sans-Serif" font-size="10.00" fill="#000000">EdgeThreadedInput</text>
</a>
</g>
</g>
<!-- Node17&#45;&gt;Node20 -->
<g id="edge5" class="edge">
<title>Node17&#45;&gt;Node20</title>
<path fill="none" stroke="#191970" d="M259.4213,-96.9029C276.2546,-92.7046 295.2393,-87.9698 312.9768,-83.546"/>
<polygon fill="#191970" stroke="#191970" points="258.1044,-93.624 249.2486,-99.44 259.7984,-100.416 258.1044,-93.624"/>
</g>
<!-- Node18&#45;&gt;Node19 -->
<g id="edge3" class="edge">
<title>Node18&#45;&gt;Node19</title>
<path fill="none" stroke="#191970" d="M436.7511,-150.3586C455.5604,-148.0986 476.1395,-145.626 494.1825,-143.4581"/>
<polygon fill="#191970" stroke="#191970" points="436.3173,-146.8855 426.8063,-151.5535 437.1524,-153.8355 436.3173,-146.8855"/>
</g>
<!-- Node21 -->
<g id="node6" class="node">
<title>Node21</title>
<g id="a_node6"><a xlink:href="classVehicleControl_1_1Control_1_1IOFactory.html#a4d4de0203bf577352199f49c67f49d98" target="_top" xlink:title="fillInputList method fills in all of the app&#39;s inputs ">
<polygon fill="#ffffff" stroke="#000000" points="484.377,-51.5 484.377,-83.5 603.165,-83.5 603.165,-51.5 484.377,-51.5"/>
<text text-anchor="start" x="492.377" y="-70.5" font-family="Helvetica,sans-Serif" font-size="10.00" fill="#000000">VehicleControl::Control</text>
<text text-anchor="middle" x="543.771" y="-58.5" font-family="Helvetica,sans-Serif" font-size="10.00" fill="#000000">::IOFactory::fillInputList</text>
</a>
</g>
</g>
<!-- Node20&#45;&gt;Node21 -->
<g id="edge6" class="edge">
<title>Node20&#45;&gt;Node21</title>
<path fill="none" stroke="#191970" d="M458.5134,-67.5C467.1678,-67.5 475.8514,-67.5 484.1897,-67.5"/>
<polygon fill="#191970" stroke="#191970" points="458.3899,-64.0001 448.3899,-67.5 458.3898,-71.0001 458.3899,-64.0001"/>
</g>
<!-- Node22&#45;&gt;Node23 -->
<g id="edge8" class="edge">
<title>Node22&#45;&gt;Node23</title>
<path fill="none" stroke="#191970" d="M274.9557,-43.852C290.3459,-39.7395 306.5857,-35.3999 321.4838,-31.4189"/>
<polygon fill="#191970" stroke="#191970" points="273.745,-40.5526 264.9876,-46.5157 275.5522,-47.3154 273.745,-40.5526"/>
</g>
</g>
</svg>
