<?xml version="1.0" encoding="UTF-8" standalone="no"?>
<!DOCTYPE svg PUBLIC "-//W3C//DTD SVG 1.1//EN"
 "http://www.w3.org/Graphics/SVG/1.1/DTD/svg11.dtd">
<!-- Generated by graphviz version 2.40.1 (20161225.0304)
 -->
<!-- Title: VehicleControl::IO::IOBase::write Pages: 1 -->
<svg width="596pt" height="290pt"
 viewBox="0.00 0.00 595.68 290.00" xmlns="http://www.w3.org/2000/svg" xmlns:xlink="http://www.w3.org/1999/xlink">
<g id="graph0" class="graph" transform="scale(1 1) rotate(0) translate(4 286)">
<title>VehicleControl::IO::IOBase::write</title>
<polygon fill="#ffffff" stroke="transparent" points="-4,4 -4,-286 591.677,-286 591.677,4 -4,4"/>
<!-- Node51 -->
<g id="node1" class="node">
<title>Node51</title>
<polygon fill="#bfbfbf" stroke="#000000" points="0,-147.5 0,-179.5 97.123,-179.5 97.123,-147.5 0,-147.5"/>
<text text-anchor="start" x="8" y="-166.5" font-family="Helvetica,sans-Serif" font-size="10.00" fill="#000000">VehicleControl::IO</text>
<text text-anchor="middle" x="48.5615" y="-154.5" font-family="Helvetica,sans-Serif" font-size="10.00" fill="#000000">::IOBase::write</text>
</g>
<!-- Node52 -->
<g id="node2" class="node">
<title>Node52</title>
<g id="a_node2"><a xlink:href="classVehicleControl_1_1IO_1_1Input.html#ace52d2dc6464492817c2ea0683abd887" target="_top" xlink:title="setEdgeType sets the desired edge ">
<polygon fill="#ffffff" stroke="#000000" points="154.505,-198.5 154.505,-230.5 262.767,-230.5 262.767,-198.5 154.505,-198.5"/>
<text text-anchor="start" x="162.505" y="-217.5" font-family="Helvetica,sans-Serif" font-size="10.00" fill="#000000">VehicleControl::IO</text>
<text text-anchor="middle" x="208.636" y="-205.5" font-family="Helvetica,sans-Serif" font-size="10.00" fill="#000000">::Input::setEdgeType</text>
</a>
</g>
</g>
<!-- Node51&#45;&gt;Node52 -->
<g id="edge1" class="edge">
<title>Node51&#45;&gt;Node52</title>
<path fill="none" stroke="#191970" d="M107.1687,-182.1724C123.9688,-187.5249 142.1288,-193.3107 158.3786,-198.4879"/>
<polygon fill="#191970" stroke="#191970" points="108.0495,-178.7797 97.4589,-179.0788 105.9245,-185.4494 108.0495,-178.7797"/>
</g>
<!-- Node55 -->
<g id="node5" class="node">
<title>Node55</title>
<g id="a_node5"><a xlink:href="classVehicleControl_1_1IO_1_1IOBase.html#ac9e0d3fef92152f7333cb5b4cdd48521" target="_top" xlink:title="setDirection setter ">
<polygon fill="#ffffff" stroke="#000000" points="152.0155,-147.5 152.0155,-179.5 265.2565,-179.5 265.2565,-147.5 152.0155,-147.5"/>
<text text-anchor="start" x="160.0155" y="-166.5" font-family="Helvetica,sans-Serif" font-size="10.00" fill="#000000">VehicleControl::IO</text>
<text text-anchor="middle" x="208.636" y="-154.5" font-family="Helvetica,sans-Serif" font-size="10.00" fill="#000000">::IOBase::setDirection</text>
</a>
</g>
</g>
<!-- Node51&#45;&gt;Node55 -->
<g id="edge5" class="edge">
<title>Node51&#45;&gt;Node55</title>
<path fill="none" stroke="#191970" d="M107.7637,-163.5C122.1916,-163.5 137.5904,-163.5 151.9005,-163.5"/>
<polygon fill="#191970" stroke="#191970" points="107.459,-160.0001 97.4589,-163.5 107.4589,-167.0001 107.459,-160.0001"/>
</g>
<!-- Node57 -->
<g id="node7" class="node">
<title>Node57</title>
<g id="a_node7"><a xlink:href="classVehicleControl_1_1IO_1_1IOBase.html#aae4d66f4082d7b5d5adf310cbc00b184" target="_top" xlink:title="setActiveHighOrLow setter ">
<polygon fill="#ffffff" stroke="#000000" points="133.123,-249.5 133.123,-281.5 284.149,-281.5 284.149,-249.5 133.123,-249.5"/>
<text text-anchor="start" x="141.123" y="-268.5" font-family="Helvetica,sans-Serif" font-size="10.00" fill="#000000">VehicleControl::IO</text>
<text text-anchor="middle" x="208.636" y="-256.5" font-family="Helvetica,sans-Serif" font-size="10.00" fill="#000000">::IOBase::setActiveHighOrLow</text>
</a>
</g>
</g>
<!-- Node51&#45;&gt;Node57 -->
<g id="edge7" class="edge">
<title>Node51&#45;&gt;Node57</title>
<path fill="none" stroke="#191970" d="M69.089,-186.8548C85.0719,-203.7935 108.5987,-226.1581 133.123,-240.5 138.845,-243.8463 145.076,-246.8166 151.424,-249.4343"/>
<polygon fill="#191970" stroke="#191970" points="71.6553,-184.4749 62.2999,-179.5023 66.5125,-189.2237 71.6553,-184.4749"/>
</g>
<!-- Node58 -->
<g id="node8" class="node">
<title>Node58</title>
<g id="a_node8"><a xlink:href="classVehicleControl_1_1IO_1_1IOBase.html#ab26373fa6ebd6821e15fa0ca90e50256" target="_top" xlink:title="write write function that writes a single string value to a file in the path provided ...">
<polygon fill="#ffffff" stroke="#000000" points="160.0745,-96.5 160.0745,-128.5 257.1975,-128.5 257.1975,-96.5 160.0745,-96.5"/>
<text text-anchor="start" x="168.0745" y="-115.5" font-family="Helvetica,sans-Serif" font-size="10.00" fill="#000000">VehicleControl::IO</text>
<text text-anchor="middle" x="208.636" y="-103.5" font-family="Helvetica,sans-Serif" font-size="10.00" fill="#000000">::IOBase::write</text>
</a>
</g>
</g>
<!-- Node51&#45;&gt;Node58 -->
<g id="edge9" class="edge">
<title>Node51&#45;&gt;Node58</title>
<path fill="none" stroke="#191970" d="M107.4515,-144.7376C124.7471,-139.2271 143.4621,-133.2645 160.038,-127.9834"/>
<polygon fill="#191970" stroke="#191970" points="105.9245,-141.5506 97.4589,-147.9212 108.0495,-148.2203 105.9245,-141.5506"/>
</g>
<!-- Node59 -->
<g id="node9" class="node">
<title>Node59</title>
<g id="a_node9"><a xlink:href="classVehicleControl_1_1IO_1_1Output.html#a98a765948ebfdb90aaad27a140fac509" target="_top" xlink:title="setValue setter ">
<polygon fill="#ffffff" stroke="#000000" points="160.0745,-45.5 160.0745,-77.5 257.1975,-77.5 257.1975,-45.5 160.0745,-45.5"/>
<text text-anchor="start" x="168.0745" y="-64.5" font-family="Helvetica,sans-Serif" font-size="10.00" fill="#000000">VehicleControl::IO</text>
<text text-anchor="middle" x="208.636" y="-52.5" font-family="Helvetica,sans-Serif" font-size="10.00" fill="#000000">::Output::setValue</text>
</a>
</g>
</g>
<!-- Node51&#45;&gt;Node59 -->
<g id="edge10" class="edge">
<title>Node51&#45;&gt;Node59</title>
<path fill="none" stroke="#191970" d="M69.9229,-139.7919C85.9401,-123.2172 109.1465,-101.6083 133.123,-87.5 141.3685,-82.6482 150.6549,-78.523 159.8222,-75.0852"/>
<polygon fill="#191970" stroke="#191970" points="66.9916,-137.7979 62.6655,-147.4693 72.0785,-142.6066 66.9916,-137.7979"/>
</g>
<!-- Node53 -->
<g id="node3" class="node">
<title>Node53</title>
<g id="a_node3"><a xlink:href="classVehicleControl_1_1IO_1_1Input.html#aeb47b17475e36a509b1bd2ac115a42a0" target="_top" xlink:title="Input constructs an input based on the given setup. The constructor will automatically export the pin...">
<polygon fill="#ffffff" stroke="#000000" points="329.8825,-243.5 329.8825,-275.5 427.0055,-275.5 427.0055,-243.5 329.8825,-243.5"/>
<text text-anchor="start" x="337.8825" y="-262.5" font-family="Helvetica,sans-Serif" font-size="10.00" fill="#000000">VehicleControl::IO</text>
<text text-anchor="middle" x="378.444" y="-250.5" font-family="Helvetica,sans-Serif" font-size="10.00" fill="#000000">::Input::Input</text>
</a>
</g>
</g>
<!-- Node52&#45;&gt;Node53 -->
<g id="edge2" class="edge">
<title>Node52&#45;&gt;Node53</title>
<path fill="none" stroke="#191970" d="M272.5616,-231.4406C291.4682,-236.451 311.8555,-241.8537 329.6443,-246.5678"/>
<polygon fill="#191970" stroke="#191970" points="273.3941,-228.0405 262.8312,-228.862 271.6009,-234.8069 273.3941,-228.0405"/>
</g>
<!-- Node54 -->
<g id="node4" class="node">
<title>Node54</title>
<g id="a_node4"><a xlink:href="structVehicleControl_1_1IO_1_1Input_1_1Setup.html#a09ce07a96559b6f63eaa51d8eccbc877" target="_top" xlink:title="VehicleControl::IO\l::Input::Setup::Setup">
<polygon fill="#ffffff" stroke="#000000" points="476.6285,-220.5 476.6285,-252.5 583.7875,-252.5 583.7875,-220.5 476.6285,-220.5"/>
<text text-anchor="start" x="484.6285" y="-239.5" font-family="Helvetica,sans-Serif" font-size="10.00" fill="#000000">VehicleControl::IO</text>
<text text-anchor="middle" x="530.208" y="-227.5" font-family="Helvetica,sans-Serif" font-size="10.00" fill="#000000">::Input::Setup::Setup</text>
</a>
</g>
</g>
<!-- Node52&#45;&gt;Node54 -->
<g id="edge4" class="edge">
<title>Node52&#45;&gt;Node54</title>
<path fill="none" stroke="#191970" d="M272.8936,-218.8961C332.6204,-222.9823 420.5623,-228.9987 476.6036,-232.8327"/>
<polygon fill="#191970" stroke="#191970" points="273.0383,-215.3979 262.8227,-218.2071 272.5604,-222.3816 273.0383,-215.3979"/>
</g>
<!-- Node53&#45;&gt;Node54 -->
<g id="edge3" class="edge">
<title>Node53&#45;&gt;Node54</title>
<path fill="none" stroke="#191970" d="M437.4298,-250.5606C450.2824,-248.6128 463.8163,-246.5617 476.4531,-244.6466"/>
<polygon fill="#191970" stroke="#191970" points="436.6611,-247.1371 427.2985,-252.0961 437.71,-254.0581 436.6611,-247.1371"/>
</g>
<!-- Node56 -->
<g id="node6" class="node">
<title>Node56</title>
<g id="a_node6"><a xlink:href="classVehicleControl_1_1IO_1_1IOBase.html#a80cc7b63461e138451f00217a9e4fc61" target="_top" xlink:title="IOBase creates an instance of the base io class. ">
<polygon fill="#ffffff" stroke="#000000" points="329.8825,-147.5 329.8825,-179.5 427.0055,-179.5 427.0055,-147.5 329.8825,-147.5"/>
<text text-anchor="start" x="337.8825" y="-166.5" font-family="Helvetica,sans-Serif" font-size="10.00" fill="#000000">VehicleControl::IO</text>
<text text-anchor="middle" x="378.444" y="-154.5" font-family="Helvetica,sans-Serif" font-size="10.00" fill="#000000">::IOBase::IOBase</text>
</a>
</g>
</g>
<!-- Node55&#45;&gt;Node56 -->
<g id="edge6" class="edge">
<title>Node55&#45;&gt;Node56</title>
<path fill="none" stroke="#191970" d="M275.8209,-163.5C293.8503,-163.5 312.9954,-163.5 329.8052,-163.5"/>
<polygon fill="#191970" stroke="#191970" points="275.652,-160.0001 265.652,-163.5 275.652,-167.0001 275.652,-160.0001"/>
</g>
<!-- Node57&#45;&gt;Node53 -->
<g id="edge8" class="edge">
<title>Node57&#45;&gt;Node53</title>
<path fill="none" stroke="#191970" d="M294.7187,-262.4584C306.7813,-262.0321 318.8122,-261.607 329.8371,-261.2175"/>
<polygon fill="#191970" stroke="#191970" points="294.4702,-258.9649 284.6,-262.8159 294.7174,-265.9605 294.4702,-258.9649"/>
</g>
<!-- Node60 -->
<g id="node10" class="node">
<title>Node60</title>
<g id="a_node10"><a xlink:href="classVehicleControl_1_1IO_1_1Output.html#a0ff845e3963d2a3e19080b402edfaaf6" target="_top" xlink:title="toggleOutput method toggles the output once ">
<polygon fill="#ffffff" stroke="#000000" points="321.255,-90.5 321.255,-122.5 435.633,-122.5 435.633,-90.5 321.255,-90.5"/>
<text text-anchor="start" x="329.255" y="-109.5" font-family="Helvetica,sans-Serif" font-size="10.00" fill="#000000">VehicleControl::IO</text>
<text text-anchor="middle" x="378.444" y="-97.5" font-family="Helvetica,sans-Serif" font-size="10.00" fill="#000000">::Output::toggleOutput</text>
</a>
</g>
</g>
<!-- Node59&#45;&gt;Node60 -->
<g id="edge11" class="edge">
<title>Node59&#45;&gt;Node60</title>
<path fill="none" stroke="#191970" d="M267.3268,-77.0534C284.7254,-81.6641 303.7523,-86.7063 321.0667,-91.2947"/>
<polygon fill="#191970" stroke="#191970" points="267.8591,-73.5737 257.2962,-74.3952 266.0659,-80.3401 267.8591,-73.5737"/>
</g>
<!-- Node62 -->
<g id="node12" class="node">
<title>Node62</title>
<g id="a_node12"><a xlink:href="structVehicleControl_1_1IO_1_1Output_1_1Setup.html#a6346d200fcd68fb1693f1e3ae9c9d3af" target="_top" xlink:title="VehicleControl::IO\l::Output::Setup::Setup">
<polygon fill="#ffffff" stroke="#000000" points="472.739,-42.5 472.739,-74.5 587.677,-74.5 587.677,-42.5 472.739,-42.5"/>
<text text-anchor="start" x="480.739" y="-61.5" font-family="Helvetica,sans-Serif" font-size="10.00" fill="#000000">VehicleControl::IO</text>
<text text-anchor="middle" x="530.208" y="-49.5" font-family="Helvetica,sans-Serif" font-size="10.00" fill="#000000">::Output::Setup::Setup</text>
</a>
</g>
</g>
<!-- Node59&#45;&gt;Node62 -->
<g id="edge16" class="edge">
<title>Node59&#45;&gt;Node62</title>
<path fill="none" stroke="#191970" d="M267.6379,-60.9496C325.9491,-60.4056 414.5932,-59.5786 472.4636,-59.0387"/>
<polygon fill="#191970" stroke="#191970" points="267.4427,-57.4511 257.4759,-61.0444 267.5081,-64.4508 267.4427,-57.4511"/>
</g>
<!-- Node63 -->
<g id="node13" class="node">
<title>Node63</title>
<g id="a_node13"><a xlink:href="classVehicleControl_1_1IO_1_1Output.html#a522b8b858e6e80e33b5c82cbe6a40dac" target="_top" xlink:title="cancelToggle cancels toggling ">
<polygon fill="#ffffff" stroke="#000000" points="320.149,-.5 320.149,-32.5 436.739,-32.5 436.739,-.5 320.149,-.5"/>
<text text-anchor="start" x="328.149" y="-19.5" font-family="Helvetica,sans-Serif" font-size="10.00" fill="#000000">VehicleControl::IO</text>
<text text-anchor="middle" x="378.444" y="-7.5" font-family="Helvetica,sans-Serif" font-size="10.00" fill="#000000">::Output::cancelToggle</text>
</a>
</g>
</g>
<!-- Node59&#45;&gt;Node63 -->
<g id="edge14" class="edge">
<title>Node59&#45;&gt;Node63</title>
<path fill="none" stroke="#191970" d="M267.1754,-45.9867C284.3076,-41.4466 303.0297,-36.4852 320.1468,-31.9491"/>
<polygon fill="#191970" stroke="#191970" points="266.0659,-42.6599 257.2962,-48.6048 267.8591,-49.4263 266.0659,-42.6599"/>
</g>
<!-- Node61 -->
<g id="node11" class="node">
<title>Node61</title>
<g id="a_node11"><a xlink:href="classVehicleControl_1_1IO_1_1Output.html#a08adbcc38e67222f17a35847e72f6ba7" target="_top" xlink:title="toggleOutput method toggles the output every using the time arguement. ">
<polygon fill="#ffffff" stroke="#000000" points="473.019,-93.5 473.019,-125.5 587.397,-125.5 587.397,-93.5 473.019,-93.5"/>
<text text-anchor="start" x="481.019" y="-112.5" font-family="Helvetica,sans-Serif" font-size="10.00" fill="#000000">VehicleControl::IO</text>
<text text-anchor="middle" x="530.208" y="-100.5" font-family="Helvetica,sans-Serif" font-size="10.00" fill="#000000">::Output::toggleOutput</text>
</a>
</g>
</g>
<!-- Node60&#45;&gt;Node61 -->
<g id="edge12" class="edge">
<title>Node60&#45;&gt;Node61</title>
<path fill="none" stroke="#191970" d="M445.9276,-107.834C454.9657,-108.0126 464.1647,-108.1945 473.0032,-108.3692"/>
<polygon fill="#191970" stroke="#191970" points="445.8867,-104.3326 435.8195,-107.6342 445.7483,-111.3312 445.8867,-104.3326"/>
</g>
<!-- Node60&#45;&gt;Node62 -->
<g id="edge13" class="edge">
<title>Node60&#45;&gt;Node62</title>
<path fill="none" stroke="#191970" d="M439.0043,-87.346C452.3878,-83.113 466.4349,-78.6702 479.3851,-74.5743"/>
<polygon fill="#191970" stroke="#191970" points="437.8804,-84.0305 429.4014,-90.3832 439.9914,-90.7046 437.8804,-84.0305"/>
</g>
<!-- Node63&#45;&gt;Node62 -->
<g id="edge15" class="edge">
<title>Node63&#45;&gt;Node62</title>
<path fill="none" stroke="#191970" d="M446.4641,-35.3242C455.1998,-37.7418 464.076,-40.1983 472.6229,-42.5636"/>
<polygon fill="#191970" stroke="#191970" points="447.2572,-31.9122 436.6859,-32.6182 445.3901,-38.6587 447.2572,-31.9122"/>
</g>
</g>
</svg>
