<?xml version="1.0" encoding="UTF-8" standalone="no"?>
<!DOCTYPE svg PUBLIC "-//W3C//DTD SVG 1.1//EN"
 "http://www.w3.org/Graphics/SVG/1.1/DTD/svg11.dtd">
<!-- Generated by graphviz version 2.40.1 (20161225.0304)
 -->
<!-- Title: VehicleControl::Bluetooth::Base::startBothThreads Pages: 1 -->
<svg width="670pt" height="143pt"
 viewBox="0.00 0.00 670.13 143.00" xmlns="http://www.w3.org/2000/svg" xmlns:xlink="http://www.w3.org/1999/xlink">
<g id="graph0" class="graph" transform="scale(1 1) rotate(0) translate(4 139)">
<title>VehicleControl::Bluetooth::Base::startBothThreads</title>
<polygon fill="#ffffff" stroke="transparent" points="-4,4 -4,-139 666.133,-139 666.133,4 -4,4"/>
<!-- Node22 -->
<g id="node1" class="node">
<title>Node22</title>
<polygon fill="#bfbfbf" stroke="#000000" points="0,-50.5 0,-82.5 128.806,-82.5 128.806,-50.5 0,-50.5"/>
<text text-anchor="start" x="8" y="-69.5" font-family="Helvetica,sans-Serif" font-size="10.00" fill="#000000">VehicleControl::Bluetooth</text>
<text text-anchor="middle" x="64.403" y="-57.5" font-family="Helvetica,sans-Serif" font-size="10.00" fill="#000000">::Base::startBothThreads</text>
</g>
<!-- Node23 -->
<g id="node2" class="node">
<title>Node23</title>
<g id="a_node2"><a xlink:href="classVehicleControl_1_1Bluetooth_1_1Base.html#a0d454a071fb0e38cf668cb82d5f93a3c" target="_top" xlink:title="startReadThread ">
<polygon fill="#ffffff" stroke="#000000" points="164.806,-76.5 164.806,-108.5 293.612,-108.5 293.612,-76.5 164.806,-76.5"/>
<text text-anchor="start" x="172.806" y="-95.5" font-family="Helvetica,sans-Serif" font-size="10.00" fill="#000000">VehicleControl::Bluetooth</text>
<text text-anchor="middle" x="229.209" y="-83.5" font-family="Helvetica,sans-Serif" font-size="10.00" fill="#000000">::Base::startReadThread</text>
</a>
</g>
</g>
<!-- Node22&#45;&gt;Node23 -->
<g id="edge1" class="edge">
<title>Node22&#45;&gt;Node23</title>
<path fill="none" stroke="#191970" d="M129.0657,-76.7013C137.4917,-78.0306 146.1776,-79.4009 154.7478,-80.7529"/>
<polygon fill="#191970" stroke="#191970" points="154.3095,-84.227 164.7328,-82.3282 155.4004,-77.3125 154.3095,-84.227"/>
</g>
<!-- Node27 -->
<g id="node6" class="node">
<title>Node27</title>
<g id="a_node6"><a xlink:href="classVehicleControl_1_1Bluetooth_1_1Base.html#a73cb44dceb3bf46a3fb2acce2091be2a" target="_top" xlink:title="startWriteThread ">
<polygon fill="#ffffff" stroke="#000000" points="164.806,-25.5 164.806,-57.5 293.612,-57.5 293.612,-25.5 164.806,-25.5"/>
<text text-anchor="start" x="172.806" y="-44.5" font-family="Helvetica,sans-Serif" font-size="10.00" fill="#000000">VehicleControl::Bluetooth</text>
<text text-anchor="middle" x="229.209" y="-32.5" font-family="Helvetica,sans-Serif" font-size="10.00" fill="#000000">::Base::startWriteThread</text>
</a>
</g>
</g>
<!-- Node22&#45;&gt;Node27 -->
<g id="edge5" class="edge">
<title>Node22&#45;&gt;Node27</title>
<path fill="none" stroke="#191970" d="M129.0657,-56.6911C137.4917,-55.4129 146.1776,-54.0953 154.7478,-52.7953"/>
<polygon fill="#191970" stroke="#191970" points="155.3708,-56.2409 164.7328,-51.2806 154.3209,-49.3201 155.3708,-56.2409"/>
</g>
<!-- Node24 -->
<g id="node3" class="node">
<title>Node24</title>
<g id="a_node3"><a xlink:href="classThreadHelper.html#a4426e115e7858a4b6f6eedbc77302756" target="_top" xlink:title="startDetachedThread ">
<polygon fill="#ffffff" stroke="#000000" points="329.612,-51.5 329.612,-83.5 474.527,-83.5 474.527,-51.5 329.612,-51.5"/>
<text text-anchor="start" x="337.612" y="-70.5" font-family="Helvetica,sans-Serif" font-size="10.00" fill="#000000">ThreadHelper::startDetached</text>
<text text-anchor="middle" x="402.0695" y="-58.5" font-family="Helvetica,sans-Serif" font-size="10.00" fill="#000000">Thread</text>
</a>
</g>
</g>
<!-- Node23&#45;&gt;Node24 -->
<g id="edge2" class="edge">
<title>Node23&#45;&gt;Node24</title>
<path fill="none" stroke="#191970" d="M294.0677,-83.1198C302.3993,-81.9148 311.0167,-80.6685 319.5823,-79.4297"/>
<polygon fill="#191970" stroke="#191970" points="320.1975,-82.8773 329.5936,-77.9819 319.1955,-75.9493 320.1975,-82.8773"/>
</g>
<!-- Node25 -->
<g id="node4" class="node">
<title>Node25</title>
<g id="a_node4"><a xlink:href="classVehicleControl_1_1Bluetooth_1_1Base.html#aa84d403a6275189ad0f96afb8dd57e31" target="_top" xlink:title="readMessage ">
<polygon fill="#ffffff" stroke="#000000" points="337.6665,-102.5 337.6665,-134.5 466.4725,-134.5 466.4725,-102.5 337.6665,-102.5"/>
<text text-anchor="start" x="345.6665" y="-121.5" font-family="Helvetica,sans-Serif" font-size="10.00" fill="#000000">VehicleControl::Bluetooth</text>
<text text-anchor="middle" x="402.0695" y="-109.5" font-family="Helvetica,sans-Serif" font-size="10.00" fill="#000000">::Base::readMessage</text>
</a>
</g>
</g>
<!-- Node23&#45;&gt;Node25 -->
<g id="edge3" class="edge">
<title>Node23&#45;&gt;Node25</title>
<path fill="none" stroke="#191970" d="M294.0677,-102.2554C304.9231,-103.8882 316.2635,-105.5939 327.3425,-107.2603"/>
<polygon fill="#191970" stroke="#191970" points="327.0129,-110.75 337.4222,-108.7764 328.0541,-103.8279 327.0129,-110.75"/>
</g>
<!-- Node26 -->
<g id="node5" class="node">
<title>Node26</title>
<g id="a_node5"><a xlink:href="classVehicleControl_1_1Bluetooth_1_1Base.html#ab395ffe7b3b7a1a76007224588969bd2" target="_top" xlink:title="handleConnectionLoss ">
<polygon fill="#ffffff" stroke="#000000" points="510.527,-102.5 510.527,-134.5 662.133,-134.5 662.133,-102.5 510.527,-102.5"/>
<text text-anchor="start" x="518.527" y="-121.5" font-family="Helvetica,sans-Serif" font-size="10.00" fill="#000000">VehicleControl::Bluetooth</text>
<text text-anchor="middle" x="586.33" y="-109.5" font-family="Helvetica,sans-Serif" font-size="10.00" fill="#000000">::Base::handleConnectionLoss</text>
</a>
</g>
</g>
<!-- Node25&#45;&gt;Node26 -->
<g id="edge4" class="edge">
<title>Node25&#45;&gt;Node26</title>
<path fill="none" stroke="#191970" d="M466.5149,-118.5C477.321,-118.5 488.6873,-118.5 499.9389,-118.5"/>
<polygon fill="#191970" stroke="#191970" points="500.2206,-122.0001 510.2206,-118.5 500.2205,-115.0001 500.2206,-122.0001"/>
</g>
<!-- Node27&#45;&gt;Node24 -->
<g id="edge6" class="edge">
<title>Node27&#45;&gt;Node24</title>
<path fill="none" stroke="#191970" d="M294.0677,-51.2554C302.3993,-52.5086 311.0167,-53.8047 319.5823,-55.0931"/>
<polygon fill="#191970" stroke="#191970" points="319.1842,-58.5725 329.5936,-56.5989 320.2254,-51.6503 319.1842,-58.5725"/>
</g>
<!-- Node28 -->
<g id="node7" class="node">
<title>Node28</title>
<g id="a_node7"><a xlink:href="classVehicleControl_1_1Bluetooth_1_1Base.html#a8630ce75edbbb0e64227ffc5e3249c62" target="_top" xlink:title="writeMessage ">
<polygon fill="#ffffff" stroke="#000000" points="337.6665,-.5 337.6665,-32.5 466.4725,-32.5 466.4725,-.5 337.6665,-.5"/>
<text text-anchor="start" x="345.6665" y="-19.5" font-family="Helvetica,sans-Serif" font-size="10.00" fill="#000000">VehicleControl::Bluetooth</text>
<text text-anchor="middle" x="402.0695" y="-7.5" font-family="Helvetica,sans-Serif" font-size="10.00" fill="#000000">::Base::writeMessage</text>
</a>
</g>
</g>
<!-- Node27&#45;&gt;Node28 -->
<g id="edge7" class="edge">
<title>Node27&#45;&gt;Node28</title>
<path fill="none" stroke="#191970" d="M294.0677,-32.1198C304.9231,-30.5498 316.2635,-28.9097 327.3425,-27.3074"/>
<polygon fill="#191970" stroke="#191970" points="328.0262,-30.745 337.4222,-25.8496 327.0242,-23.8171 328.0262,-30.745"/>
</g>
</g>
</svg>
