<?xml version="1.0" encoding="UTF-8" standalone="no"?>
<!DOCTYPE svg PUBLIC "-//W3C//DTD SVG 1.1//EN"
 "http://www.w3.org/Graphics/SVG/1.1/DTD/svg11.dtd">
<!-- Generated by graphviz version 2.40.1 (20161225.0304)
 -->
<!-- Title: VehicleControl::Control Pages: 1 -->
<svg width="254pt" height="110pt"
 viewBox="0.00 0.00 254.35 110.00" xmlns="http://www.w3.org/2000/svg" xmlns:xlink="http://www.w3.org/1999/xlink">
<g id="graph0" class="graph" transform="scale(1 1) rotate(0) translate(4 106)">
<title>VehicleControl::Control</title>
<polygon fill="#ffffff" stroke="transparent" points="-4,4 -4,-106 250.35,-106 250.35,4 -4,4"/>
<!-- Node2 -->
<g id="node1" class="node">
<title>Node2</title>
<polygon fill="#bfbfbf" stroke="#000000" points="71.009,-.5 71.009,-20.5 189.797,-20.5 189.797,-.5 71.009,-.5"/>
<text text-anchor="middle" x="130.403" y="-7.5" font-family="Helvetica,sans-Serif" font-size="10.00" fill="#000000">VehicleControl::Control</text>
</g>
<!-- Node3 -->
<g id="node2" class="node">
<title>Node3</title>
<g id="a_node2"><a xlink:href="classVehicleControl_1_1Bluetooth_1_1Manager_1_1Interface.html" target="_top" xlink:title="VehicleControl::Bluetooth\l::Manager::Interface">
<polygon fill="#ffffff" stroke="#000000" points="0,-69.5 0,-101.5 128.806,-101.5 128.806,-69.5 0,-69.5"/>
<text text-anchor="start" x="8" y="-88.5" font-family="Helvetica,sans-Serif" font-size="10.00" fill="#000000">VehicleControl::Bluetooth</text>
<text text-anchor="middle" x="64.403" y="-76.5" font-family="Helvetica,sans-Serif" font-size="10.00" fill="#000000">::Manager::Interface</text>
</a>
</g>
</g>
<!-- Node3&#45;&gt;Node2 -->
<g id="edge1" class="edge">
<title>Node3&#45;&gt;Node2</title>
<path fill="none" stroke="#191970" d="M85.5513,-61.4679C97.7374,-47.62 112.4101,-30.9465 121.5747,-20.5322"/>
<polygon fill="#191970" stroke="#191970" points="82.7028,-59.4067 78.724,-69.2261 87.9578,-64.0312 82.7028,-59.4067"/>
</g>
<!-- Node4 -->
<g id="node3" class="node">
<title>Node4</title>
<g id="a_node3"><a xlink:href="classCore_1_1IO_1_1UserLED.html" target="_top" xlink:title="The UserLED class represents a user controlled LED. This class allows the LED to blink in a threaded ...">
<polygon fill="#ffffff" stroke="#000000" points="146.456,-75.5 146.456,-95.5 246.35,-95.5 246.35,-75.5 146.456,-75.5"/>
<text text-anchor="middle" x="196.403" y="-82.5" font-family="Helvetica,sans-Serif" font-size="10.00" fill="#000000">Core::IO::UserLED</text>
</a>
</g>
</g>
<!-- Node4&#45;&gt;Node2 -->
<g id="edge2" class="edge">
<title>Node4&#45;&gt;Node2</title>
<path fill="none" stroke="#9a32cd" stroke-dasharray="5,2" d="M180.6035,-67.546C167.7935,-52.9892 150.1839,-32.9783 139.5865,-20.9358"/>
<polygon fill="#9a32cd" stroke="#9a32cd" points="178.2681,-70.1902 187.5019,-75.3852 183.5231,-65.5658 178.2681,-70.1902"/>
<text text-anchor="middle" x="175.7955" y="-42" font-family="Helvetica,sans-Serif" font-size="10.00" fill="#000000"> _red</text>
</g>
</g>
</svg>
