<?xml version="1.0" encoding="UTF-8" standalone="no"?>
<!DOCTYPE svg PUBLIC "-//W3C//DTD SVG 1.1//EN"
 "http://www.w3.org/Graphics/SVG/1.1/DTD/svg11.dtd">
<!-- Generated by graphviz version 2.40.1 (20161225.0304)
 -->
<!-- Title: VehicleControl::Bluetooth::Base::startReadThread Pages: 1 -->
<svg width="489pt" height="92pt"
 viewBox="0.00 0.00 489.22 92.00" xmlns="http://www.w3.org/2000/svg" xmlns:xlink="http://www.w3.org/1999/xlink">
<g id="graph0" class="graph" transform="scale(1 1) rotate(0) translate(4 88)">
<title>VehicleControl::Bluetooth::Base::startReadThread</title>
<polygon fill="#ffffff" stroke="transparent" points="-4,4 -4,-88 485.218,-88 485.218,4 -4,4"/>
<!-- Node32 -->
<g id="node1" class="node">
<title>Node32</title>
<polygon fill="#bfbfbf" stroke="#000000" points="0,-25.5 0,-57.5 128.806,-57.5 128.806,-25.5 0,-25.5"/>
<text text-anchor="start" x="8" y="-44.5" font-family="Helvetica,sans-Serif" font-size="10.00" fill="#000000">VehicleControl::Bluetooth</text>
<text text-anchor="middle" x="64.403" y="-32.5" font-family="Helvetica,sans-Serif" font-size="10.00" fill="#000000">::Base::startReadThread</text>
</g>
<!-- Node33 -->
<g id="node2" class="node">
<title>Node33</title>
<g id="a_node2"><a xlink:href="classCore_1_1ThreadHelper.html#a138066760eabf36c1681bbd177db0446" target="_top" xlink:title="startDetachedThread ">
<polygon fill="#ffffff" stroke="#000000" points="171.4735,-51.5 171.4735,-83.5 286.9445,-83.5 286.9445,-51.5 171.4735,-51.5"/>
<text text-anchor="start" x="179.4735" y="-70.5" font-family="Helvetica,sans-Serif" font-size="10.00" fill="#000000">Core::ThreadHelper</text>
<text text-anchor="middle" x="229.209" y="-58.5" font-family="Helvetica,sans-Serif" font-size="10.00" fill="#000000">::startDetachedThread</text>
</a>
</g>
</g>
<!-- Node32&#45;&gt;Node33 -->
<g id="edge1" class="edge">
<title>Node32&#45;&gt;Node33</title>
<path fill="none" stroke="#191970" d="M129.0657,-51.7013C139.6581,-53.3723 150.6611,-55.1082 161.3288,-56.7911"/>
<polygon fill="#191970" stroke="#191970" points="161.0062,-60.2835 171.4295,-58.3846 162.0971,-53.369 161.0062,-60.2835"/>
</g>
<!-- Node34 -->
<g id="node3" class="node">
<title>Node34</title>
<g id="a_node3"><a xlink:href="classVehicleControl_1_1Bluetooth_1_1Base.html#aa84d403a6275189ad0f96afb8dd57e31" target="_top" xlink:title="readMessage ">
<polygon fill="#ffffff" stroke="#000000" points="164.806,-.5 164.806,-32.5 293.612,-32.5 293.612,-.5 164.806,-.5"/>
<text text-anchor="start" x="172.806" y="-19.5" font-family="Helvetica,sans-Serif" font-size="10.00" fill="#000000">VehicleControl::Bluetooth</text>
<text text-anchor="middle" x="229.209" y="-7.5" font-family="Helvetica,sans-Serif" font-size="10.00" fill="#000000">::Base::readMessage</text>
</a>
</g>
</g>
<!-- Node32&#45;&gt;Node34 -->
<g id="edge2" class="edge">
<title>Node32&#45;&gt;Node34</title>
<path fill="none" stroke="#191970" d="M129.0657,-31.6911C137.4917,-30.4129 146.1776,-29.0953 154.7478,-27.7953"/>
<polygon fill="#191970" stroke="#191970" points="155.3708,-31.2409 164.7328,-26.2806 154.3209,-24.3201 155.3708,-31.2409"/>
</g>
<!-- Node35 -->
<g id="node4" class="node">
<title>Node35</title>
<g id="a_node4"><a xlink:href="classVehicleControl_1_1Bluetooth_1_1Base.html#ab395ffe7b3b7a1a76007224588969bd2" target="_top" xlink:title="handleConnectionLoss ">
<polygon fill="#ffffff" stroke="#000000" points="329.612,-.5 329.612,-32.5 481.218,-32.5 481.218,-.5 329.612,-.5"/>
<text text-anchor="start" x="337.612" y="-19.5" font-family="Helvetica,sans-Serif" font-size="10.00" fill="#000000">VehicleControl::Bluetooth</text>
<text text-anchor="middle" x="405.415" y="-7.5" font-family="Helvetica,sans-Serif" font-size="10.00" fill="#000000">::Base::handleConnectionLoss</text>
</a>
</g>
</g>
<!-- Node34&#45;&gt;Node35 -->
<g id="edge3" class="edge">
<title>Node34&#45;&gt;Node35</title>
<path fill="none" stroke="#191970" d="M293.8211,-16.5C302.1514,-16.5 310.7841,-16.5 319.3902,-16.5"/>
<polygon fill="#191970" stroke="#191970" points="319.4613,-20.0001 329.4613,-16.5 319.4612,-13.0001 319.4613,-20.0001"/>
</g>
</g>
</svg>
