<?xml version="1.0" encoding="UTF-8" standalone="no"?>
<!DOCTYPE svg PUBLIC "-//W3C//DTD SVG 1.1//EN"
 "http://www.w3.org/Graphics/SVG/1.1/DTD/svg11.dtd">
<!-- Generated by graphviz version 2.40.1 (20161225.0304)
 -->
<!-- Title: Core::ThreadHelper::startDetachedThread Pages: 1 -->
<svg width="780pt" height="362pt"
 viewBox="0.00 0.00 779.87 362.00" xmlns="http://www.w3.org/2000/svg" xmlns:xlink="http://www.w3.org/1999/xlink">
<g id="graph0" class="graph" transform="scale(1 1) rotate(0) translate(4 358)">
<title>Core::ThreadHelper::startDetachedThread</title>
<polygon fill="#ffffff" stroke="transparent" points="-4,4 -4,-358 775.87,-358 775.87,4 -4,4"/>
<!-- Node1 -->
<g id="node1" class="node">
<title>Node1</title>
<polygon fill="#bfbfbf" stroke="#000000" points="0,-196.5 0,-228.5 115.471,-228.5 115.471,-196.5 0,-196.5"/>
<text text-anchor="start" x="8" y="-215.5" font-family="Helvetica,sans-Serif" font-size="10.00" fill="#000000">Core::ThreadHelper</text>
<text text-anchor="middle" x="57.7355" y="-203.5" font-family="Helvetica,sans-Serif" font-size="10.00" fill="#000000">::startDetachedThread</text>
</g>
<!-- Node2 -->
<g id="node2" class="node">
<title>Node2</title>
<g id="a_node2"><a xlink:href="classVehicleControl_1_1Bluetooth_1_1Manager.html#a7f49ac22adfb97732952694307580f68" target="_top" xlink:title="Base constructor. ">
<polygon fill="#ffffff" stroke="#000000" points="151.471,-321.5 151.471,-353.5 280.277,-353.5 280.277,-321.5 151.471,-321.5"/>
<text text-anchor="start" x="159.471" y="-340.5" font-family="Helvetica,sans-Serif" font-size="10.00" fill="#000000">VehicleControl::Bluetooth</text>
<text text-anchor="middle" x="215.874" y="-328.5" font-family="Helvetica,sans-Serif" font-size="10.00" fill="#000000">::Manager::Manager</text>
</a>
</g>
</g>
<!-- Node1&#45;&gt;Node2 -->
<g id="edge1" class="edge">
<title>Node1&#45;&gt;Node2</title>
<path fill="none" stroke="#191970" d="M75.3673,-236.8181C92.6075,-259.1088 120.6959,-291.7156 151.471,-312.5 156.3413,-315.7893 161.7068,-318.7352 167.1993,-321.3489"/>
<polygon fill="#191970" stroke="#191970" points="78.1387,-234.6803 69.3079,-228.8263 72.5606,-238.9095 78.1387,-234.6803"/>
</g>
<!-- Node3 -->
<g id="node3" class="node">
<title>Node3</title>
<g id="a_node3"><a xlink:href="classVehicleControl_1_1Bluetooth_1_1Manager.html#a01832c6e997c7a249c84e50fb1e1fd09" target="_top" xlink:title="VehicleControl::Bluetooth\l::Manager::sendData">
<polygon fill="#ffffff" stroke="#000000" points="151.471,-270.5 151.471,-302.5 280.277,-302.5 280.277,-270.5 151.471,-270.5"/>
<text text-anchor="start" x="159.471" y="-289.5" font-family="Helvetica,sans-Serif" font-size="10.00" fill="#000000">VehicleControl::Bluetooth</text>
<text text-anchor="middle" x="215.874" y="-277.5" font-family="Helvetica,sans-Serif" font-size="10.00" fill="#000000">::Manager::sendData</text>
</a>
</g>
</g>
<!-- Node1&#45;&gt;Node3 -->
<g id="edge2" class="edge">
<title>Node1&#45;&gt;Node3</title>
<path fill="none" stroke="#191970" d="M95.4688,-233.45C112.3806,-242.5197 132.7059,-252.9851 151.471,-261.5 158.2427,-264.5727 165.5119,-267.6235 172.6404,-270.4827"/>
<polygon fill="#191970" stroke="#191970" points="96.9172,-230.2543 86.4561,-228.5762 93.5874,-236.4117 96.9172,-230.2543"/>
</g>
<!-- Node4 -->
<g id="node4" class="node">
<title>Node4</title>
<g id="a_node4"><a xlink:href="classVehicleControl_1_1Bluetooth_1_1Manager.html#ae92751dc904b98458bf42aebe57fffe7" target="_top" xlink:title="VehicleControl::Bluetooth\l::Manager::receiveData">
<polygon fill="#ffffff" stroke="#000000" points="151.471,-219.5 151.471,-251.5 280.277,-251.5 280.277,-219.5 151.471,-219.5"/>
<text text-anchor="start" x="159.471" y="-238.5" font-family="Helvetica,sans-Serif" font-size="10.00" fill="#000000">VehicleControl::Bluetooth</text>
<text text-anchor="middle" x="215.874" y="-226.5" font-family="Helvetica,sans-Serif" font-size="10.00" fill="#000000">::Manager::receiveData</text>
</a>
</g>
</g>
<!-- Node1&#45;&gt;Node4 -->
<g id="edge3" class="edge">
<title>Node1&#45;&gt;Node4</title>
<path fill="none" stroke="#191970" d="M125.8724,-222.41C134.2835,-223.6333 142.8628,-224.8811 151.2198,-226.0966"/>
<polygon fill="#191970" stroke="#191970" points="126.1221,-218.9096 115.7225,-220.9338 125.1146,-225.8367 126.1221,-218.9096"/>
</g>
<!-- Node5 -->
<g id="node5" class="node">
<title>Node5</title>
<g id="a_node5"><a xlink:href="classCore_1_1IO_1_1Input.html#a35ee0fc0d31172da73135b8ddc543fff" target="_top" xlink:title="waitForEdgeThreaded does the same thing as waitForEdge(), but does so in a threaded manner...">
<polygon fill="#ffffff" stroke="#000000" points="317.664,-185.5 317.664,-217.5 437.57,-217.5 437.57,-185.5 317.664,-185.5"/>
<text text-anchor="start" x="325.664" y="-204.5" font-family="Helvetica,sans-Serif" font-size="10.00" fill="#000000">Core::IO::Input::waitFor</text>
<text text-anchor="middle" x="377.617" y="-192.5" font-family="Helvetica,sans-Serif" font-size="10.00" fill="#000000">EdgeThreaded</text>
</a>
</g>
</g>
<!-- Node1&#45;&gt;Node5 -->
<g id="edge4" class="edge">
<title>Node1&#45;&gt;Node5</title>
<path fill="none" stroke="#191970" d="M125.9905,-210.1529C182.811,-208.1989 262.9429,-205.4434 317.4042,-203.5706"/>
<polygon fill="#191970" stroke="#191970" points="125.5374,-206.6663 115.6636,-210.508 125.778,-213.6621 125.5374,-206.6663"/>
</g>
<!-- Node8 -->
<g id="node8" class="node">
<title>Node8</title>
<g id="a_node8"><a xlink:href="classCore_1_1IO_1_1MotorControl.html#a6c2c814eeba186101329b864df3bfcc3" target="_top" xlink:title="MotorControl ServoControl constructor creates the class, and spawns the frequency control thread...">
<polygon fill="#ffffff" stroke="#000000" points="157.315,-129.5 157.315,-161.5 274.433,-161.5 274.433,-129.5 157.315,-129.5"/>
<text text-anchor="start" x="165.315" y="-148.5" font-family="Helvetica,sans-Serif" font-size="10.00" fill="#000000">Core::IO::MotorControl</text>
<text text-anchor="middle" x="215.874" y="-136.5" font-family="Helvetica,sans-Serif" font-size="10.00" fill="#000000">::MotorControl</text>
</a>
</g>
</g>
<!-- Node1&#45;&gt;Node8 -->
<g id="edge8" class="edge">
<title>Node1&#45;&gt;Node8</title>
<path fill="none" stroke="#191970" d="M104.9827,-192.4824C128.3269,-182.5919 156.1129,-170.8195 178.0312,-161.5332"/>
<polygon fill="#191970" stroke="#191970" points="103.4559,-189.328 95.6136,-196.4518 106.1867,-195.7734 103.4559,-189.328"/>
</g>
<!-- Node9 -->
<g id="node9" class="node">
<title>Node9</title>
<g id="a_node9"><a xlink:href="classCore_1_1IO_1_1UserLED.html#ac39c3ed451b83046ff37ecb4ccff142c" target="_top" xlink:title="setState method sets the state of the LED ">
<polygon fill="#ffffff" stroke="#000000" points="163.148,-69.5 163.148,-101.5 268.6,-101.5 268.6,-69.5 163.148,-69.5"/>
<text text-anchor="start" x="171.148" y="-88.5" font-family="Helvetica,sans-Serif" font-size="10.00" fill="#000000">Core::IO::UserLED::</text>
<text text-anchor="middle" x="215.874" y="-76.5" font-family="Helvetica,sans-Serif" font-size="10.00" fill="#000000">setState</text>
</a>
</g>
</g>
<!-- Node1&#45;&gt;Node9 -->
<g id="edge9" class="edge">
<title>Node1&#45;&gt;Node9</title>
<path fill="none" stroke="#191970" d="M78.3908,-188.821C96.4113,-169.0409 123.9204,-140.8814 151.471,-120.5 160.883,-113.5372 171.8477,-107.0587 182.0337,-101.6156"/>
<polygon fill="#191970" stroke="#191970" points="75.5904,-186.7008 71.5074,-196.4773 80.7959,-191.3808 75.5904,-186.7008"/>
</g>
<!-- Node6 -->
<g id="node6" class="node">
<title>Node6</title>
<g id="a_node6"><a xlink:href="classCore_1_1IO_1_1Input.html#ae490cffe2162d4538dd108b0bd1f3695" target="_top" xlink:title="Input constructs an input based on the given setup. The constructor will automatically export the pin...">
<polygon fill="#ffffff" stroke="#000000" points="491.3355,-230.5 491.3355,-250.5 600.7035,-250.5 600.7035,-230.5 491.3355,-230.5"/>
<text text-anchor="middle" x="546.0195" y="-237.5" font-family="Helvetica,sans-Serif" font-size="10.00" fill="#000000">Core::IO::Input::Input</text>
</a>
</g>
</g>
<!-- Node5&#45;&gt;Node6 -->
<g id="edge5" class="edge">
<title>Node5&#45;&gt;Node6</title>
<path fill="none" stroke="#191970" d="M447.8644,-217.7685C466.483,-222.0803 486.0379,-226.609 502.7499,-230.4793"/>
<polygon fill="#191970" stroke="#191970" points="448.4704,-214.3162 437.9385,-215.4697 446.891,-221.1357 448.4704,-214.3162"/>
</g>
<!-- Node7 -->
<g id="node7" class="node">
<title>Node7</title>
<g id="a_node7"><a xlink:href="structCore_1_1IO_1_1Input_1_1Setup.html#a493b98ee230283215bd55b7ba739f60a" target="_top" xlink:title="Core::IO::Input::Setup\l::Setup">
<polygon fill="#ffffff" stroke="#000000" points="655.847,-166.5 655.847,-198.5 769.105,-198.5 769.105,-166.5 655.847,-166.5"/>
<text text-anchor="start" x="663.847" y="-185.5" font-family="Helvetica,sans-Serif" font-size="10.00" fill="#000000">Core::IO::Input::Setup</text>
<text text-anchor="middle" x="712.476" y="-173.5" font-family="Helvetica,sans-Serif" font-size="10.00" fill="#000000">::Setup</text>
</a>
</g>
</g>
<!-- Node5&#45;&gt;Node7 -->
<g id="edge7" class="edge">
<title>Node5&#45;&gt;Node7</title>
<path fill="none" stroke="#191970" d="M447.9264,-197.5106C509.7029,-194.0054 598.4418,-188.9703 655.7765,-185.7171"/>
<polygon fill="#191970" stroke="#191970" points="447.6555,-194.0203 437.8698,-198.0812 448.0521,-201.009 447.6555,-194.0203"/>
</g>
<!-- Node6&#45;&gt;Node7 -->
<g id="edge6" class="edge">
<title>Node6&#45;&gt;Node7</title>
<path fill="none" stroke="#191970" d="M584.6308,-227.0463C608.9766,-218.5633 640.5532,-207.5607 666.233,-198.6129"/>
<polygon fill="#191970" stroke="#191970" points="583.3055,-223.8016 575.014,-230.3972 585.6088,-230.4118 583.3055,-223.8016"/>
</g>
<!-- Node10 -->
<g id="node10" class="node">
<title>Node10</title>
<g id="a_node10"><a xlink:href="namespaceVehicleControl.html#af89cecf99aa4e7787af7433d8f3b6970" target="_top" xlink:title="VehicleControl::callback">
<polygon fill="#ffffff" stroke="#000000" points="316.277,-102.5 316.277,-122.5 438.957,-122.5 438.957,-102.5 316.277,-102.5"/>
<text text-anchor="middle" x="377.617" y="-109.5" font-family="Helvetica,sans-Serif" font-size="10.00" fill="#000000">VehicleControl::callback</text>
</a>
</g>
</g>
<!-- Node9&#45;&gt;Node10 -->
<g id="edge10" class="edge">
<title>Node9&#45;&gt;Node10</title>
<path fill="none" stroke="#191970" d="M278.872,-96.0164C291.5855,-98.1386 304.9194,-100.3645 317.53,-102.4696"/>
<polygon fill="#191970" stroke="#191970" points="279.2745,-92.5352 268.8347,-94.3408 278.1219,-99.4397 279.2745,-92.5352"/>
</g>
<!-- Node14 -->
<g id="node14" class="node">
<title>Node14</title>
<g id="a_node14"><a xlink:href="classCore_1_1IO_1_1UserLED.html#a4e161b02396d015ce4fd5434853e44bc" target="_top" xlink:title="changeBlinkTime method changes the time of the blink ">
<polygon fill="#ffffff" stroke="#000000" points="324.891,-50.5 324.891,-82.5 430.343,-82.5 430.343,-50.5 324.891,-50.5"/>
<text text-anchor="start" x="332.891" y="-69.5" font-family="Helvetica,sans-Serif" font-size="10.00" fill="#000000">Core::IO::UserLED::</text>
<text text-anchor="middle" x="377.617" y="-57.5" font-family="Helvetica,sans-Serif" font-size="10.00" fill="#000000">changeBlinkTime</text>
</a>
</g>
</g>
<!-- Node9&#45;&gt;Node14 -->
<g id="edge16" class="edge">
<title>Node9&#45;&gt;Node14</title>
<path fill="none" stroke="#191970" d="M279.1335,-78.0689C294.2487,-76.2933 310.2266,-74.4164 324.8137,-72.7028"/>
<polygon fill="#191970" stroke="#191970" points="278.358,-74.6358 268.8347,-79.2787 279.1748,-81.588 278.358,-74.6358"/>
</g>
<!-- Node15 -->
<g id="node15" class="node">
<title>Node15</title>
<g id="a_node15"><a xlink:href="structCore_1_1IO_1_1UserLED_1_1Setup.html#a72bdd70912a6322aba2da15c28a84fbe" target="_top" xlink:title="Core::IO::UserLED::\lSetup::Setup">
<polygon fill="#ffffff" stroke="#000000" points="493.2935,-.5 493.2935,-32.5 598.7455,-32.5 598.7455,-.5 493.2935,-.5"/>
<text text-anchor="start" x="501.2935" y="-19.5" font-family="Helvetica,sans-Serif" font-size="10.00" fill="#000000">Core::IO::UserLED::</text>
<text text-anchor="middle" x="546.0195" y="-7.5" font-family="Helvetica,sans-Serif" font-size="10.00" fill="#000000">Setup::Setup</text>
</a>
</g>
</g>
<!-- Node9&#45;&gt;Node15 -->
<g id="edge18" class="edge">
<title>Node9&#45;&gt;Node15</title>
<path fill="none" stroke="#191970" d="M254.4099,-64.767C272.6634,-55.8587 295.0709,-46.2031 316.277,-40.5 375.5291,-24.565 446.0188,-19.1047 493.1493,-17.2904"/>
<polygon fill="#191970" stroke="#191970" points="252.6531,-61.7321 245.2715,-69.3324 255.7815,-67.9942 252.6531,-61.7321"/>
</g>
<!-- Node10&#45;&gt;Node7 -->
<g id="edge13" class="edge">
<title>Node10&#45;&gt;Node7</title>
<path fill="none" stroke="#191970" d="M414.1385,-126.0346C432.2362,-132.3476 454.5366,-139.5433 474.957,-144.5 536.0328,-159.3252 607.387,-169.8526 655.8258,-176.0116"/>
<polygon fill="#191970" stroke="#191970" points="415.15,-122.6798 404.5553,-122.638 412.8115,-129.2777 415.15,-122.6798"/>
</g>
<!-- Node11 -->
<g id="node11" class="node">
<title>Node11</title>
<g id="a_node11"><a xlink:href="classCore_1_1IO_1_1Input.html#af505f10ed01aa26257a8709ba7211ba6" target="_top" xlink:title="setEdgeCallback setter ">
<polygon fill="#ffffff" stroke="#000000" points="484.111,-102.5 484.111,-134.5 607.928,-134.5 607.928,-102.5 484.111,-102.5"/>
<text text-anchor="start" x="492.111" y="-121.5" font-family="Helvetica,sans-Serif" font-size="10.00" fill="#000000">Core::IO::Input::setEdge</text>
<text text-anchor="middle" x="546.0195" y="-109.5" font-family="Helvetica,sans-Serif" font-size="10.00" fill="#000000">Callback</text>
</a>
</g>
</g>
<!-- Node10&#45;&gt;Node11 -->
<g id="edge11" class="edge">
<title>Node10&#45;&gt;Node11</title>
<path fill="none" stroke="#191970" d="M449.3834,-115.057C460.8989,-115.4672 472.7318,-115.8888 483.9946,-116.2901"/>
<polygon fill="#191970" stroke="#191970" points="449.486,-111.5585 439.3676,-114.7001 449.2366,-118.554 449.486,-111.5585"/>
</g>
<!-- Node12 -->
<g id="node12" class="node">
<title>Node12</title>
<g id="a_node12"><a xlink:href="namespaceVehicleControl.html#ab876bdb990021d96b1452a85b59f99d8" target="_top" xlink:title="VehicleControl::createRising\lEdgeThreadedInput">
<polygon fill="#ffffff" stroke="#000000" points="474.957,-51.5 474.957,-83.5 617.082,-83.5 617.082,-51.5 474.957,-51.5"/>
<text text-anchor="start" x="482.957" y="-70.5" font-family="Helvetica,sans-Serif" font-size="10.00" fill="#000000">VehicleControl::createRising</text>
<text text-anchor="middle" x="546.0195" y="-58.5" font-family="Helvetica,sans-Serif" font-size="10.00" fill="#000000">EdgeThreadedInput</text>
</a>
</g>
</g>
<!-- Node10&#45;&gt;Node12 -->
<g id="edge14" class="edge">
<title>Node10&#45;&gt;Node12</title>
<path fill="none" stroke="#191970" d="M425.2461,-99.7727C444.0884,-94.7377 465.9633,-88.8924 485.878,-83.5708"/>
<polygon fill="#191970" stroke="#191970" points="424.1673,-96.4381 415.4098,-102.4011 425.9744,-103.2008 424.1673,-96.4381"/>
</g>
<!-- Node11&#45;&gt;Node7 -->
<g id="edge12" class="edge">
<title>Node11&#45;&gt;Node7</title>
<path fill="none" stroke="#191970" d="M597.5009,-138.2938C621.0378,-147.3434 648.5593,-157.925 670.774,-166.4662"/>
<polygon fill="#191970" stroke="#191970" points="598.6135,-134.9718 588.0235,-134.6499 596.1013,-141.5055 598.6135,-134.9718"/>
</g>
<!-- Node13 -->
<g id="node13" class="node">
<title>Node13</title>
<g id="a_node13"><a xlink:href="classVehicleControl_1_1Control_1_1IOFactory.html#a4d4de0203bf577352199f49c67f49d98" target="_top" xlink:title="fillInputList method fills in all of the app&#39;s inputs ">
<polygon fill="#ffffff" stroke="#000000" points="653.082,-51.5 653.082,-83.5 771.87,-83.5 771.87,-51.5 653.082,-51.5"/>
<text text-anchor="start" x="661.082" y="-70.5" font-family="Helvetica,sans-Serif" font-size="10.00" fill="#000000">VehicleControl::Control</text>
<text text-anchor="middle" x="712.476" y="-58.5" font-family="Helvetica,sans-Serif" font-size="10.00" fill="#000000">::IOFactory::fillInputList</text>
</a>
</g>
</g>
<!-- Node12&#45;&gt;Node13 -->
<g id="edge15" class="edge">
<title>Node12&#45;&gt;Node13</title>
<path fill="none" stroke="#191970" d="M627.2184,-67.5C635.8728,-67.5 644.5564,-67.5 652.8947,-67.5"/>
<polygon fill="#191970" stroke="#191970" points="627.0949,-64.0001 617.0949,-67.5 627.0948,-71.0001 627.0949,-64.0001"/>
</g>
<!-- Node14&#45;&gt;Node15 -->
<g id="edge17" class="edge">
<title>Node14&#45;&gt;Node15</title>
<path fill="none" stroke="#191970" d="M440.4637,-47.8403C457.7849,-42.6975 476.3971,-37.1714 493.0961,-32.2134"/>
<polygon fill="#191970" stroke="#191970" points="439.0287,-44.6153 430.4386,-50.8169 441.0212,-51.3258 439.0287,-44.6153"/>
</g>
</g>
</svg>
