<?xml version="1.0" encoding="UTF-8" standalone="no"?>
<!DOCTYPE svg PUBLIC "-//W3C//DTD SVG 1.1//EN"
 "http://www.w3.org/Graphics/SVG/1.1/DTD/svg11.dtd">
<!-- Generated by graphviz version 2.40.1 (20161225.0304)
 -->
<!-- Title: VehicleControl::IO::ServoControl::desiredDegree Pages: 1 -->
<svg width="329pt" height="92pt"
 viewBox="0.00 0.00 329.37 92.00" xmlns="http://www.w3.org/2000/svg" xmlns:xlink="http://www.w3.org/1999/xlink">
<g id="graph0" class="graph" transform="scale(1 1) rotate(0) translate(4 88)">
<title>VehicleControl::IO::ServoControl::desiredDegree</title>
<polygon fill="#ffffff" stroke="transparent" points="-4,4 -4,-88 325.368,-88 325.368,4 -4,4"/>
<!-- Node4 -->
<g id="node1" class="node">
<title>Node4</title>
<polygon fill="#bfbfbf" stroke="#000000" points="0,-25.5 0,-57.5 151.023,-57.5 151.023,-25.5 0,-25.5"/>
<text text-anchor="start" x="8" y="-44.5" font-family="Helvetica,sans-Serif" font-size="10.00" fill="#000000">VehicleControl::IO</text>
<text text-anchor="middle" x="75.5115" y="-32.5" font-family="Helvetica,sans-Serif" font-size="10.00" fill="#000000">::ServoControl::desiredDegree</text>
</g>
<!-- Node5 -->
<g id="node2" class="node">
<title>Node5</title>
<g id="a_node2"><a xlink:href="classMath_1_1LinearConverter.html#a273d07db25141b970ca038d0826e83be" target="_top" xlink:title="convertYtoX getter. Uses x = ( y &#45; b ) / m. ">
<polygon fill="#ffffff" stroke="#000000" points="196.4655,-51.5 196.4655,-83.5 311.9255,-83.5 311.9255,-51.5 196.4655,-51.5"/>
<text text-anchor="start" x="204.4655" y="-70.5" font-family="Helvetica,sans-Serif" font-size="10.00" fill="#000000">Math::LinearConverter</text>
<text text-anchor="middle" x="254.1955" y="-58.5" font-family="Helvetica,sans-Serif" font-size="10.00" fill="#000000">::convertYtoX</text>
</a>
</g>
</g>
<!-- Node4&#45;&gt;Node5 -->
<g id="edge1" class="edge">
<title>Node4&#45;&gt;Node5</title>
<path fill="none" stroke="#191970" d="M151.0306,-52.4887C162.7439,-54.193 174.782,-55.9447 186.3132,-57.6226"/>
<polygon fill="#191970" stroke="#191970" points="185.8954,-61.0986 196.2952,-59.075 186.9034,-54.1715 185.8954,-61.0986"/>
</g>
<!-- Node6 -->
<g id="node3" class="node">
<title>Node6</title>
<g id="a_node3"><a xlink:href="classVehicleControl_1_1IO_1_1MotorControl.html#aa3d0162e477010fd1d60e53d76b69a5c" target="_top" xlink:title="pulseWidth getter ">
<polygon fill="#ffffff" stroke="#000000" points="187.023,-.5 187.023,-32.5 321.368,-32.5 321.368,-.5 187.023,-.5"/>
<text text-anchor="start" x="195.023" y="-19.5" font-family="Helvetica,sans-Serif" font-size="10.00" fill="#000000">VehicleControl::IO</text>
<text text-anchor="middle" x="254.1955" y="-7.5" font-family="Helvetica,sans-Serif" font-size="10.00" fill="#000000">::MotorControl::pulseWidth</text>
</a>
</g>
</g>
<!-- Node4&#45;&gt;Node6 -->
<g id="edge2" class="edge">
<title>Node4&#45;&gt;Node6</title>
<path fill="none" stroke="#191970" d="M151.0306,-30.934C159.588,-29.7367 168.3189,-28.5152 176.8987,-27.3147"/>
<polygon fill="#191970" stroke="#191970" points="177.4634,-30.7699 186.8819,-25.918 176.4934,-23.8374 177.4634,-30.7699"/>
</g>
</g>
</svg>
