<?xml version="1.0" encoding="UTF-8" standalone="no"?>
<!DOCTYPE svg PUBLIC "-//W3C//DTD SVG 1.1//EN"
 "http://www.w3.org/Graphics/SVG/1.1/DTD/svg11.dtd">
<!-- Generated by graphviz version 2.40.1 (20161225.0304)
 -->
<!-- Title: Core::IO::Input::waitForEdgeThreaded Pages: 1 -->
<svg width="309pt" height="41pt"
 viewBox="0.00 0.00 308.82 41.00" xmlns="http://www.w3.org/2000/svg" xmlns:xlink="http://www.w3.org/1999/xlink">
<g id="graph0" class="graph" transform="scale(1 1) rotate(0) translate(4 37)">
<title>Core::IO::Input::waitForEdgeThreaded</title>
<polygon fill="#ffffff" stroke="transparent" points="-4,4 -4,-37 304.821,-37 304.821,4 -4,4"/>
<!-- Node47 -->
<g id="node1" class="node">
<title>Node47</title>
<polygon fill="#bfbfbf" stroke="#000000" points="0,-.5 0,-32.5 119.906,-32.5 119.906,-.5 0,-.5"/>
<text text-anchor="start" x="8" y="-19.5" font-family="Helvetica,sans-Serif" font-size="10.00" fill="#000000">Core::IO::Input::waitFor</text>
<text text-anchor="middle" x="59.953" y="-7.5" font-family="Helvetica,sans-Serif" font-size="10.00" fill="#000000">EdgeThreaded</text>
</g>
<!-- Node48 -->
<g id="node2" class="node">
<title>Node48</title>
<g id="a_node2"><a xlink:href="classThreadHelper.html#a4426e115e7858a4b6f6eedbc77302756" target="_top" xlink:title="startDetachedThread ">
<polygon fill="#ffffff" stroke="#000000" points="155.906,-.5 155.906,-32.5 300.821,-32.5 300.821,-.5 155.906,-.5"/>
<text text-anchor="start" x="163.906" y="-19.5" font-family="Helvetica,sans-Serif" font-size="10.00" fill="#000000">ThreadHelper::startDetached</text>
<text text-anchor="middle" x="228.3635" y="-7.5" font-family="Helvetica,sans-Serif" font-size="10.00" fill="#000000">Thread</text>
</a>
</g>
</g>
<!-- Node47&#45;&gt;Node48 -->
<g id="edge1" class="edge">
<title>Node47&#45;&gt;Node48</title>
<path fill="none" stroke="#191970" d="M120.2774,-16.5C128.5535,-16.5 137.1651,-16.5 145.7546,-16.5"/>
<polygon fill="#191970" stroke="#191970" points="145.8064,-20.0001 155.8063,-16.5 145.8063,-13.0001 145.8064,-20.0001"/>
</g>
</g>
</svg>
