<?xml version="1.0" encoding="UTF-8" standalone="no"?>
<!DOCTYPE svg PUBLIC "-//W3C//DTD SVG 1.1//EN"
 "http://www.w3.org/Graphics/SVG/1.1/DTD/svg11.dtd">
<!-- Generated by graphviz version 2.40.1 (20161225.0304)
 -->
<!-- Title: VehicleControl::Control Pages: 1 -->
<svg width="127pt" height="110pt"
 viewBox="0.00 0.00 126.79 110.00" xmlns="http://www.w3.org/2000/svg" xmlns:xlink="http://www.w3.org/1999/xlink">
<g id="graph0" class="graph" transform="scale(1 1) rotate(0) translate(4 106)">
<title>VehicleControl::Control</title>
<polygon fill="#ffffff" stroke="transparent" points="-4,4 -4,-106 122.788,-106 122.788,4 -4,4"/>
<!-- Node1 -->
<g id="node1" class="node">
<title>Node1</title>
<polygon fill="#bfbfbf" stroke="#000000" points="0,-.5 0,-20.5 118.788,-20.5 118.788,-.5 0,-.5"/>
<text text-anchor="middle" x="59.394" y="-7.5" font-family="Helvetica,sans-Serif" font-size="10.00" fill="#000000">VehicleControl::Control</text>
</g>
<!-- Node2 -->
<g id="node2" class="node">
<title>Node2</title>
<g id="a_node2"><a xlink:href="classVehicleControl_1_1IO_1_1UserLED.html" target="_top" xlink:title="The UserLED class represents a user controlled LED. This class allows the LED to blink in a threaded ...">
<polygon fill="#ffffff" stroke="#000000" points="10.8325,-69.5 10.8325,-101.5 107.9555,-101.5 107.9555,-69.5 10.8325,-69.5"/>
<text text-anchor="start" x="18.8325" y="-88.5" font-family="Helvetica,sans-Serif" font-size="10.00" fill="#000000">VehicleControl::IO</text>
<text text-anchor="middle" x="59.394" y="-76.5" font-family="Helvetica,sans-Serif" font-size="10.00" fill="#000000">::UserLED</text>
</a>
</g>
</g>
<!-- Node2&#45;&gt;Node1 -->
<g id="edge1" class="edge">
<title>Node2&#45;&gt;Node1</title>
<path fill="none" stroke="#9a32cd" stroke-dasharray="5,2" d="M59.394,-59.1133C59.394,-45.7697 59.394,-30.3625 59.394,-20.5322"/>
<polygon fill="#9a32cd" stroke="#9a32cd" points="55.8941,-59.2261 59.394,-69.2261 62.8941,-59.2262 55.8941,-59.2261"/>
<text text-anchor="middle" x="70.7865" y="-42" font-family="Helvetica,sans-Serif" font-size="10.00" fill="#000000"> _red</text>
</g>
</g>
</svg>
