<?xml version="1.0" encoding="UTF-8" standalone="no"?>
<!DOCTYPE svg PUBLIC "-//W3C//DTD SVG 1.1//EN"
 "http://www.w3.org/Graphics/SVG/1.1/DTD/svg11.dtd">
<!-- Generated by graphviz version 2.40.1 (20161225.0304)
 -->
<!-- Title: VehicleControl::IO::MotorControl::setFrequency Pages: 1 -->
<svg width="318pt" height="41pt"
 viewBox="0.00 0.00 318.26 41.00" xmlns="http://www.w3.org/2000/svg" xmlns:xlink="http://www.w3.org/1999/xlink">
<g id="graph0" class="graph" transform="scale(1 1) rotate(0) translate(4 37)">
<title>VehicleControl::IO::MotorControl::setFrequency</title>
<polygon fill="#ffffff" stroke="transparent" points="-4,4 -4,-37 314.262,-37 314.262,4 -4,4"/>
<!-- Node35 -->
<g id="node1" class="node">
<title>Node35</title>
<polygon fill="#bfbfbf" stroke="#000000" points="0,-.5 0,-32.5 145.465,-32.5 145.465,-.5 0,-.5"/>
<text text-anchor="start" x="8" y="-19.5" font-family="Helvetica,sans-Serif" font-size="10.00" fill="#000000">VehicleControl::IO</text>
<text text-anchor="middle" x="72.7325" y="-7.5" font-family="Helvetica,sans-Serif" font-size="10.00" fill="#000000">::MotorControl::setFrequency</text>
</g>
<!-- Node36 -->
<g id="node2" class="node">
<title>Node36</title>
<g id="a_node2"><a xlink:href="classVehicleControl_1_1IO_1_1MotorControl.html#ac9ec3e369840c53a3e3e6caebb0ed151" target="_top" xlink:title="frequency getter ">
<polygon fill="#ffffff" stroke="#000000" points="181.465,-.5 181.465,-32.5 310.262,-32.5 310.262,-.5 181.465,-.5"/>
<text text-anchor="start" x="189.465" y="-19.5" font-family="Helvetica,sans-Serif" font-size="10.00" fill="#000000">VehicleControl::IO</text>
<text text-anchor="middle" x="245.8635" y="-7.5" font-family="Helvetica,sans-Serif" font-size="10.00" fill="#000000">::MotorControl::frequency</text>
</a>
</g>
</g>
<!-- Node35&#45;&gt;Node36 -->
<g id="edge1" class="edge">
<title>Node35&#45;&gt;Node36</title>
<path fill="none" stroke="#191970" d="M145.6538,-16.5C154.0634,-16.5 162.6493,-16.5 171.083,-16.5"/>
<polygon fill="#191970" stroke="#191970" points="171.2729,-20.0001 181.2728,-16.5 171.2728,-13.0001 171.2729,-20.0001"/>
</g>
</g>
</svg>
