<?xml version="1.0" encoding="UTF-8" standalone="no"?>
<!DOCTYPE svg PUBLIC "-//W3C//DTD SVG 1.1//EN"
 "http://www.w3.org/Graphics/SVG/1.1/DTD/svg11.dtd">
<!-- Generated by graphviz version 2.40.1 (20161225.0304)
 -->
<!-- Title: VehicleControl::Bluetooth::Base::startWriteThread Pages: 1 -->
<svg width="302pt" height="92pt"
 viewBox="0.00 0.00 301.61 92.00" xmlns="http://www.w3.org/2000/svg" xmlns:xlink="http://www.w3.org/1999/xlink">
<g id="graph0" class="graph" transform="scale(1 1) rotate(0) translate(4 88)">
<title>VehicleControl::Bluetooth::Base::startWriteThread</title>
<polygon fill="#ffffff" stroke="transparent" points="-4,4 -4,-88 297.612,-88 297.612,4 -4,4"/>
<!-- Node40 -->
<g id="node1" class="node">
<title>Node40</title>
<polygon fill="#bfbfbf" stroke="#000000" points="0,-25.5 0,-57.5 128.806,-57.5 128.806,-25.5 0,-25.5"/>
<text text-anchor="start" x="8" y="-44.5" font-family="Helvetica,sans-Serif" font-size="10.00" fill="#000000">VehicleControl::Bluetooth</text>
<text text-anchor="middle" x="64.403" y="-32.5" font-family="Helvetica,sans-Serif" font-size="10.00" fill="#000000">::Base::startWriteThread</text>
</g>
<!-- Node41 -->
<g id="node2" class="node">
<title>Node41</title>
<g id="a_node2"><a xlink:href="classCore_1_1ThreadHelper.html#a138066760eabf36c1681bbd177db0446" target="_top" xlink:title="startDetachedThread ">
<polygon fill="#ffffff" stroke="#000000" points="171.4735,-51.5 171.4735,-83.5 286.9445,-83.5 286.9445,-51.5 171.4735,-51.5"/>
<text text-anchor="start" x="179.4735" y="-70.5" font-family="Helvetica,sans-Serif" font-size="10.00" fill="#000000">Core::ThreadHelper</text>
<text text-anchor="middle" x="229.209" y="-58.5" font-family="Helvetica,sans-Serif" font-size="10.00" fill="#000000">::startDetachedThread</text>
</a>
</g>
</g>
<!-- Node40&#45;&gt;Node41 -->
<g id="edge1" class="edge">
<title>Node40&#45;&gt;Node41</title>
<path fill="none" stroke="#191970" d="M129.0657,-51.7013C139.6581,-53.3723 150.6611,-55.1082 161.3288,-56.7911"/>
<polygon fill="#191970" stroke="#191970" points="161.0062,-60.2835 171.4295,-58.3846 162.0971,-53.369 161.0062,-60.2835"/>
</g>
<!-- Node42 -->
<g id="node3" class="node">
<title>Node42</title>
<g id="a_node3"><a xlink:href="classVehicleControl_1_1Bluetooth_1_1Base.html#a8630ce75edbbb0e64227ffc5e3249c62" target="_top" xlink:title="writeMessage ">
<polygon fill="#ffffff" stroke="#000000" points="164.806,-.5 164.806,-32.5 293.612,-32.5 293.612,-.5 164.806,-.5"/>
<text text-anchor="start" x="172.806" y="-19.5" font-family="Helvetica,sans-Serif" font-size="10.00" fill="#000000">VehicleControl::Bluetooth</text>
<text text-anchor="middle" x="229.209" y="-7.5" font-family="Helvetica,sans-Serif" font-size="10.00" fill="#000000">::Base::writeMessage</text>
</a>
</g>
</g>
<!-- Node40&#45;&gt;Node42 -->
<g id="edge2" class="edge">
<title>Node40&#45;&gt;Node42</title>
<path fill="none" stroke="#191970" d="M129.0657,-31.6911C137.4917,-30.4129 146.1776,-29.0953 154.7478,-27.7953"/>
<polygon fill="#191970" stroke="#191970" points="155.3708,-31.2409 164.7328,-26.2806 154.3209,-24.3201 155.3708,-31.2409"/>
</g>
</g>
</svg>
