<?xml version="1.0" encoding="UTF-8" standalone="no"?>
<!DOCTYPE svg PUBLIC "-//W3C//DTD SVG 1.1//EN"
 "http://www.w3.org/Graphics/SVG/1.1/DTD/svg11.dtd">
<!-- Generated by graphviz version 2.40.1 (20161225.0304)
 -->
<!-- Title: VehicleControl::IO::Input::setEdgeType Pages: 1 -->
<svg width="249pt" height="41pt"
 viewBox="0.00 0.00 249.38 41.00" xmlns="http://www.w3.org/2000/svg" xmlns:xlink="http://www.w3.org/1999/xlink">
<g id="graph0" class="graph" transform="scale(1 1) rotate(0) translate(4 37)">
<title>VehicleControl::IO::Input::setEdgeType</title>
<polygon fill="#ffffff" stroke="transparent" points="-4,4 -4,-37 245.385,-37 245.385,4 -4,4"/>
<!-- Node36 -->
<g id="node1" class="node">
<title>Node36</title>
<polygon fill="#bfbfbf" stroke="#000000" points="0,-.5 0,-32.5 108.262,-32.5 108.262,-.5 0,-.5"/>
<text text-anchor="start" x="8" y="-19.5" font-family="Helvetica,sans-Serif" font-size="10.00" fill="#000000">VehicleControl::IO</text>
<text text-anchor="middle" x="54.131" y="-7.5" font-family="Helvetica,sans-Serif" font-size="10.00" fill="#000000">::Input::setEdgeType</text>
</g>
<!-- Node37 -->
<g id="node2" class="node">
<title>Node37</title>
<g id="a_node2"><a xlink:href="classVehicleControl_1_1IO_1_1IOBase.html#a09b22d396b771b2175df60b3a29b6c7f" target="_top" xlink:title="write write function that writes a single string value to a file in the path provided ...">
<polygon fill="#ffffff" stroke="#000000" points="144.262,-.5 144.262,-32.5 241.385,-32.5 241.385,-.5 144.262,-.5"/>
<text text-anchor="start" x="152.262" y="-19.5" font-family="Helvetica,sans-Serif" font-size="10.00" fill="#000000">VehicleControl::IO</text>
<text text-anchor="middle" x="192.8235" y="-7.5" font-family="Helvetica,sans-Serif" font-size="10.00" fill="#000000">::IOBase::write</text>
</a>
</g>
</g>
<!-- Node36&#45;&gt;Node37 -->
<g id="edge1" class="edge">
<title>Node36&#45;&gt;Node37</title>
<path fill="none" stroke="#191970" d="M108.5479,-16.5C116.8566,-16.5 125.4655,-16.5 133.8663,-16.5"/>
<polygon fill="#191970" stroke="#191970" points="133.976,-20.0001 143.976,-16.5 133.976,-13.0001 133.976,-20.0001"/>
</g>
</g>
</svg>
