<?xml version="1.0" encoding="UTF-8" standalone="no"?>
<!DOCTYPE svg PUBLIC "-//W3C//DTD SVG 1.1//EN"
 "http://www.w3.org/Graphics/SVG/1.1/DTD/svg11.dtd">
<!-- Generated by graphviz version 2.40.1 (20161225.0304)
 -->
<!-- Title: VehicleControl::IO::Input::waitForEdgeThreaded Pages: 1 -->
<svg width="433pt" height="63pt"
 viewBox="0.00 0.00 432.54 63.00" xmlns="http://www.w3.org/2000/svg" xmlns:xlink="http://www.w3.org/1999/xlink">
<g id="graph0" class="graph" transform="scale(1 1) rotate(0) translate(4 59)">
<title>VehicleControl::IO::Input::waitForEdgeThreaded</title>
<polygon fill="#ffffff" stroke="transparent" points="-4,4 -4,-59 428.544,-59 428.544,4 -4,4"/>
<!-- Node50 -->
<g id="node1" class="node">
<title>Node50</title>
<polygon fill="#bfbfbf" stroke="#000000" points="0,-22.5 0,-54.5 148.262,-54.5 148.262,-22.5 0,-22.5"/>
<text text-anchor="start" x="8" y="-41.5" font-family="Helvetica,sans-Serif" font-size="10.00" fill="#000000">VehicleControl::IO</text>
<text text-anchor="middle" x="74.131" y="-29.5" font-family="Helvetica,sans-Serif" font-size="10.00" fill="#000000">::Input::waitForEdgeThreaded</text>
</g>
<!-- Node51 -->
<g id="node2" class="node">
<title>Node51</title>
<g id="a_node2"><a xlink:href="structVehicleControl_1_1IO_1_1Input_1_1Setup.html#a09ce07a96559b6f63eaa51d8eccbc877" target="_top" xlink:title="VehicleControl::IO\l::Input::Setup::Setup">
<polygon fill="#ffffff" stroke="#000000" points="317.385,-22.5 317.385,-54.5 424.544,-54.5 424.544,-22.5 317.385,-22.5"/>
<text text-anchor="start" x="325.385" y="-41.5" font-family="Helvetica,sans-Serif" font-size="10.00" fill="#000000">VehicleControl::IO</text>
<text text-anchor="middle" x="370.9645" y="-29.5" font-family="Helvetica,sans-Serif" font-size="10.00" fill="#000000">::Input::Setup::Setup</text>
</a>
</g>
</g>
<!-- Node50&#45;&gt;Node51 -->
<g id="edge1" class="edge">
<title>Node50&#45;&gt;Node51</title>
<path fill="none" stroke="#191970" d="M158.6115,-41.8808C167.2737,-42.1339 175.9437,-42.349 184.262,-42.5 227.4207,-43.2835 238.23,-43.463 281.385,-42.5 292.9021,-42.243 305.2459,-41.8003 316.9761,-41.3008"/>
<polygon fill="#191970" stroke="#191970" points="158.5713,-38.378 148.468,-41.5678 158.3553,-45.3746 158.5713,-38.378"/>
</g>
<!-- Node52 -->
<g id="node3" class="node">
<title>Node52</title>
<g id="a_node3"><a xlink:href="classVehicleControl_1_1IO_1_1Input.html#aeb47b17475e36a509b1bd2ac115a42a0" target="_top" xlink:title="Input constructs an input based on the given setup. The constructor will automatically export the pin...">
<polygon fill="#ffffff" stroke="#000000" points="184.262,-.5 184.262,-32.5 281.385,-32.5 281.385,-.5 184.262,-.5"/>
<text text-anchor="start" x="192.262" y="-19.5" font-family="Helvetica,sans-Serif" font-size="10.00" fill="#000000">VehicleControl::IO</text>
<text text-anchor="middle" x="232.8235" y="-7.5" font-family="Helvetica,sans-Serif" font-size="10.00" fill="#000000">::Input::Input</text>
</a>
</g>
</g>
<!-- Node50&#45;&gt;Node52 -->
<g id="edge2" class="edge">
<title>Node50&#45;&gt;Node52</title>
<path fill="none" stroke="#191970" d="M158.3046,-26.8308C167.0978,-25.6117 175.8117,-24.4037 184.012,-23.2669"/>
<polygon fill="#191970" stroke="#191970" points="157.7909,-23.3684 148.3663,-28.2085 158.7522,-30.3021 157.7909,-23.3684"/>
</g>
<!-- Node52&#45;&gt;Node51 -->
<g id="edge3" class="edge">
<title>Node52&#45;&gt;Node51</title>
<path fill="none" stroke="#191970" d="M291.669,-25.8716C300.0966,-27.2137 308.7319,-28.589 317.058,-29.915"/>
<polygon fill="#191970" stroke="#191970" points="291.9529,-22.3728 281.5268,-24.2564 290.8519,-29.2857 291.9529,-22.3728"/>
</g>
</g>
</svg>
