<?xml version="1.0" encoding="UTF-8" standalone="no"?>
<!DOCTYPE svg PUBLIC "-//W3C//DTD SVG 1.1//EN"
 "http://www.w3.org/Graphics/SVG/1.1/DTD/svg11.dtd">
<!-- Generated by graphviz version 2.40.1 (20161225.0304)
 -->
<!-- Title: VehicleControl::Control Pages: 1 -->
<svg width="240pt" height="110pt"
 viewBox="0.00 0.00 240.14 110.00" xmlns="http://www.w3.org/2000/svg" xmlns:xlink="http://www.w3.org/1999/xlink">
<g id="graph0" class="graph" transform="scale(1 1) rotate(0) translate(4 106)">
<title>VehicleControl::Control</title>
<polygon fill="#ffffff" stroke="transparent" points="-4,4 -4,-106 236.1365,-106 236.1365,4 -4,4"/>
<!-- Node2 -->
<g id="node1" class="node">
<title>Node2</title>
<polygon fill="#bfbfbf" stroke="#000000" points="53.9565,-.5 53.9565,-20.5 172.7445,-20.5 172.7445,-.5 53.9565,-.5"/>
<text text-anchor="middle" x="113.3505" y="-7.5" font-family="Helvetica,sans-Serif" font-size="10.00" fill="#000000">VehicleControl::Control</text>
</g>
<!-- Node3 -->
<g id="node2" class="node">
<title>Node3</title>
<g id="a_node2"><a xlink:href="classLibBBB_1_1Bluetooth_1_1Manager_1_1Interface.html" target="_top" xlink:title="LibBBB::Bluetooth::\lManager::Interface">
<polygon fill="#ffffff" stroke="#000000" points="0,-69.5 0,-101.5 102.701,-101.5 102.701,-69.5 0,-69.5"/>
<text text-anchor="start" x="8" y="-88.5" font-family="Helvetica,sans-Serif" font-size="10.00" fill="#000000">LibBBB::Bluetooth::</text>
<text text-anchor="middle" x="51.3505" y="-76.5" font-family="Helvetica,sans-Serif" font-size="10.00" fill="#000000">Manager::Interface</text>
</a>
</g>
</g>
<!-- Node3&#45;&gt;Node2 -->
<g id="edge1" class="edge">
<title>Node3&#45;&gt;Node2</title>
<path fill="none" stroke="#191970" d="M71.2171,-61.4679C82.6646,-47.62 96.4481,-30.9465 105.0573,-20.5322"/>
<polygon fill="#191970" stroke="#191970" points="68.4775,-59.2886 64.8036,-69.2261 73.8727,-63.7487 68.4775,-59.2886"/>
</g>
<!-- Node4 -->
<g id="node3" class="node">
<title>Node4</title>
<g id="a_node3"><a xlink:href="classLibBBB_1_1IO_1_1UserLED.html" target="_top" xlink:title="The UserLED class represents a user controlled LED. This class allows the LED to blink in a threaded ...">
<polygon fill="#ffffff" stroke="#000000" points="120.5645,-75.5 120.5645,-95.5 232.1365,-95.5 232.1365,-75.5 120.5645,-75.5"/>
<text text-anchor="middle" x="176.3505" y="-82.5" font-family="Helvetica,sans-Serif" font-size="10.00" fill="#000000">LibBBB::IO::UserLED</text>
</a>
</g>
</g>
<!-- Node4&#45;&gt;Node2 -->
<g id="edge2" class="edge">
<title>Node4&#45;&gt;Node2</title>
<path fill="none" stroke="#9a32cd" stroke-dasharray="5,2" d="M161.2692,-67.546C149.0414,-52.9892 132.2323,-32.9783 122.1166,-20.9358"/>
<polygon fill="#9a32cd" stroke="#9a32cd" points="158.7421,-69.9793 167.854,-75.3852 164.1021,-65.4769 158.7421,-69.9793"/>
<text text-anchor="middle" x="157.743" y="-42" font-family="Helvetica,sans-Serif" font-size="10.00" fill="#000000"> _red</text>
</g>
</g>
</svg>
