<?xml version="1.0" encoding="UTF-8" standalone="no"?>
<!DOCTYPE svg PUBLIC "-//W3C//DTD SVG 1.1//EN"
 "http://www.w3.org/Graphics/SVG/1.1/DTD/svg11.dtd">
<!-- Generated by graphviz version 2.40.1 (20161225.0304)
 -->
<!-- Title: VehicleControl::IO::Input::getEdgeType Pages: 1 -->
<svg width="260pt" height="41pt"
 viewBox="0.00 0.00 259.98 41.00" xmlns="http://www.w3.org/2000/svg" xmlns:xlink="http://www.w3.org/1999/xlink">
<g id="graph0" class="graph" transform="scale(1 1) rotate(0) translate(4 37)">
<title>VehicleControl::IO::Input::getEdgeType</title>
<polygon fill="#ffffff" stroke="transparent" points="-4,4 -4,-37 255.98,-37 255.98,4 -4,4"/>
<!-- Node23 -->
<g id="node1" class="node">
<title>Node23</title>
<polygon fill="#bfbfbf" stroke="#000000" points="0,-.5 0,-32.5 108.821,-32.5 108.821,-.5 0,-.5"/>
<text text-anchor="start" x="8" y="-19.5" font-family="Helvetica,sans-Serif" font-size="10.00" fill="#000000">VehicleControl::IO</text>
<text text-anchor="middle" x="54.4105" y="-7.5" font-family="Helvetica,sans-Serif" font-size="10.00" fill="#000000">::Input::getEdgeType</text>
</g>
<!-- Node24 -->
<g id="node2" class="node">
<title>Node24</title>
<g id="a_node2"><a xlink:href="structVehicleControl_1_1IO_1_1Input_1_1Setup.html#a09ce07a96559b6f63eaa51d8eccbc877" target="_top" xlink:title="VehicleControl::IO\l::Input::Setup::Setup">
<polygon fill="#ffffff" stroke="#000000" points="144.821,-.5 144.821,-32.5 251.98,-32.5 251.98,-.5 144.821,-.5"/>
<text text-anchor="start" x="152.821" y="-19.5" font-family="Helvetica,sans-Serif" font-size="10.00" fill="#000000">VehicleControl::IO</text>
<text text-anchor="middle" x="198.4005" y="-7.5" font-family="Helvetica,sans-Serif" font-size="10.00" fill="#000000">::Input::Setup::Setup</text>
</a>
</g>
</g>
<!-- Node23&#45;&gt;Node24 -->
<g id="edge1" class="edge">
<title>Node23&#45;&gt;Node24</title>
<path fill="none" stroke="#191970" d="M119.0614,-16.5C127.517,-16.5 136.1091,-16.5 144.3647,-16.5"/>
<polygon fill="#191970" stroke="#191970" points="118.847,-13.0001 108.8469,-16.5 118.8469,-20.0001 118.847,-13.0001"/>
</g>
</g>
</svg>
