<?xml version="1.0" encoding="UTF-8" standalone="no"?>
<!DOCTYPE svg PUBLIC "-//W3C//DTD SVG 1.1//EN"
 "http://www.w3.org/Graphics/SVG/1.1/DTD/svg11.dtd">
<!-- Generated by graphviz version 2.40.1 (20161225.0304)
 -->
<!-- Title: VehicleControl::Bluetooth::Base::handleConnectionLoss Pages: 1 -->
<svg width="819pt" height="110pt"
 viewBox="0.00 0.00 818.83 110.00" xmlns="http://www.w3.org/2000/svg" xmlns:xlink="http://www.w3.org/1999/xlink">
<g id="graph0" class="graph" transform="scale(1 1) rotate(0) translate(4 106)">
<title>VehicleControl::Bluetooth::Base::handleConnectionLoss</title>
<polygon fill="#ffffff" stroke="transparent" points="-4,4 -4,-106 814.83,-106 814.83,4 -4,4"/>
<!-- Node5 -->
<g id="node1" class="node">
<title>Node5</title>
<polygon fill="#bfbfbf" stroke="#000000" points="0,-34.5 0,-66.5 151.606,-66.5 151.606,-34.5 0,-34.5"/>
<text text-anchor="start" x="8" y="-53.5" font-family="Helvetica,sans-Serif" font-size="10.00" fill="#000000">VehicleControl::Bluetooth</text>
<text text-anchor="middle" x="75.803" y="-41.5" font-family="Helvetica,sans-Serif" font-size="10.00" fill="#000000">::Base::handleConnectionLoss</text>
</g>
<!-- Node6 -->
<g id="node2" class="node">
<title>Node6</title>
<g id="a_node2"><a xlink:href="classVehicleControl_1_1Bluetooth_1_1Base.html#aa84d403a6275189ad0f96afb8dd57e31" target="_top" xlink:title="readMessage ">
<polygon fill="#ffffff" stroke="#000000" points="187.606,-34.5 187.606,-66.5 316.412,-66.5 316.412,-34.5 187.606,-34.5"/>
<text text-anchor="start" x="195.606" y="-53.5" font-family="Helvetica,sans-Serif" font-size="10.00" fill="#000000">VehicleControl::Bluetooth</text>
<text text-anchor="middle" x="252.009" y="-41.5" font-family="Helvetica,sans-Serif" font-size="10.00" fill="#000000">::Base::readMessage</text>
</a>
</g>
</g>
<!-- Node5&#45;&gt;Node6 -->
<g id="edge1" class="edge">
<title>Node5&#45;&gt;Node6</title>
<path fill="none" stroke="#191970" d="M161.9199,-50.5C170.56,-50.5 179.2257,-50.5 187.5842,-50.5"/>
<polygon fill="#191970" stroke="#191970" points="161.8087,-47.0001 151.8087,-50.5 161.8087,-54.0001 161.8087,-47.0001"/>
</g>
<!-- Node7 -->
<g id="node3" class="node">
<title>Node7</title>
<g id="a_node3"><a xlink:href="classVehicleControl_1_1Bluetooth_1_1Base.html#a0d454a071fb0e38cf668cb82d5f93a3c" target="_top" xlink:title="startReadThread ">
<polygon fill="#ffffff" stroke="#000000" points="352.412,-34.5 352.412,-66.5 481.218,-66.5 481.218,-34.5 352.412,-34.5"/>
<text text-anchor="start" x="360.412" y="-53.5" font-family="Helvetica,sans-Serif" font-size="10.00" fill="#000000">VehicleControl::Bluetooth</text>
<text text-anchor="middle" x="416.815" y="-41.5" font-family="Helvetica,sans-Serif" font-size="10.00" fill="#000000">::Base::startReadThread</text>
</a>
</g>
</g>
<!-- Node6&#45;&gt;Node7 -->
<g id="edge2" class="edge">
<title>Node6&#45;&gt;Node7</title>
<path fill="none" stroke="#191970" d="M326.9395,-50.5C335.4206,-50.5 344.0081,-50.5 352.3388,-50.5"/>
<polygon fill="#191970" stroke="#191970" points="326.6717,-47.0001 316.6717,-50.5 326.6716,-54.0001 326.6717,-47.0001"/>
</g>
<!-- Node8 -->
<g id="node4" class="node">
<title>Node8</title>
<g id="a_node4"><a xlink:href="classVehicleControl_1_1Bluetooth_1_1Base.html#a6c41447b1283d1b90459cbdae3a54480" target="_top" xlink:title="startBothThreads ">
<polygon fill="#ffffff" stroke="#000000" points="517.218,-34.5 517.218,-66.5 646.024,-66.5 646.024,-34.5 517.218,-34.5"/>
<text text-anchor="start" x="525.218" y="-53.5" font-family="Helvetica,sans-Serif" font-size="10.00" fill="#000000">VehicleControl::Bluetooth</text>
<text text-anchor="middle" x="581.621" y="-41.5" font-family="Helvetica,sans-Serif" font-size="10.00" fill="#000000">::Base::startBothThreads</text>
</a>
</g>
</g>
<!-- Node7&#45;&gt;Node8 -->
<g id="edge3" class="edge">
<title>Node7&#45;&gt;Node8</title>
<path fill="none" stroke="#191970" d="M491.7455,-50.5C500.2266,-50.5 508.8141,-50.5 517.1448,-50.5"/>
<polygon fill="#191970" stroke="#191970" points="491.4777,-47.0001 481.4777,-50.5 491.4776,-54.0001 491.4777,-47.0001"/>
</g>
<!-- Node9 -->
<g id="node5" class="node">
<title>Node9</title>
<g id="a_node5"><a xlink:href="classVehicleControl_1_1Bluetooth_1_1Client.html#a83777b221312c408d42d8dfcb0b807b8" target="_top" xlink:title="VehicleControl::Bluetooth\l::Client::isConnected">
<polygon fill="#ffffff" stroke="#000000" points="682.024,-69.5 682.024,-101.5 810.83,-101.5 810.83,-69.5 682.024,-69.5"/>
<text text-anchor="start" x="690.024" y="-88.5" font-family="Helvetica,sans-Serif" font-size="10.00" fill="#000000">VehicleControl::Bluetooth</text>
<text text-anchor="middle" x="746.427" y="-76.5" font-family="Helvetica,sans-Serif" font-size="10.00" fill="#000000">::Client::isConnected</text>
</a>
</g>
</g>
<!-- Node8&#45;&gt;Node9 -->
<g id="edge4" class="edge">
<title>Node8&#45;&gt;Node9</title>
<path fill="none" stroke="#191970" d="M656.272,-66.3537C664.8438,-68.1741 673.5286,-70.0185 681.9508,-71.8071"/>
<polygon fill="#191970" stroke="#191970" points="656.7926,-62.8863 646.2837,-64.2325 655.3384,-69.7336 656.7926,-62.8863"/>
</g>
<!-- Node10 -->
<g id="node6" class="node">
<title>Node10</title>
<g id="a_node6"><a xlink:href="classVehicleControl_1_1Bluetooth_1_1Server.html#af5d9733f754be78891f8189f6f63ac90" target="_top" xlink:title="VehicleControl::Bluetooth\l::Server::isConnected">
<polygon fill="#ffffff" stroke="#000000" points="682.024,-.5 682.024,-32.5 810.83,-32.5 810.83,-.5 682.024,-.5"/>
<text text-anchor="start" x="690.024" y="-19.5" font-family="Helvetica,sans-Serif" font-size="10.00" fill="#000000">VehicleControl::Bluetooth</text>
<text text-anchor="middle" x="746.427" y="-7.5" font-family="Helvetica,sans-Serif" font-size="10.00" fill="#000000">::Server::isConnected</text>
</a>
</g>
</g>
<!-- Node8&#45;&gt;Node10 -->
<g id="edge5" class="edge">
<title>Node8&#45;&gt;Node10</title>
<path fill="none" stroke="#191970" d="M656.272,-35.0993C664.8438,-33.3309 673.5286,-31.5392 681.9508,-29.8016"/>
<polygon fill="#191970" stroke="#191970" points="655.3702,-31.7115 646.2837,-37.1599 656.7846,-38.5671 655.3702,-31.7115"/>
</g>
<!-- Node10&#45;&gt;Node10 -->
<g id="edge6" class="edge">
<title>Node10&#45;&gt;Node10</title>
<path fill="none" stroke="#191970" d="M717.5652,-43.0753C721.3864,-47.7466 731.007,-51 746.427,-51 771.7317,-51 781.4186,-42.2388 775.4879,-32.8274"/>
<polygon fill="#191970" stroke="#191970" points="721.0598,-42.7575 717.3661,-32.8274 714.0611,-42.8935 721.0598,-42.7575"/>
</g>
</g>
</svg>
