<?xml version="1.0" encoding="UTF-8" standalone="no"?>
<!DOCTYPE svg PUBLIC "-//W3C//DTD SVG 1.1//EN"
 "http://www.w3.org/Graphics/SVG/1.1/DTD/svg11.dtd">
<!-- Generated by graphviz version 2.40.1 (20161225.0304)
 -->
<!-- Title: VehicleControl::Bluetooth::Base::startReadThread Pages: 1 -->
<svg width="466pt" height="110pt"
 viewBox="0.00 0.00 466.42 110.00" xmlns="http://www.w3.org/2000/svg" xmlns:xlink="http://www.w3.org/1999/xlink">
<g id="graph0" class="graph" transform="scale(1 1) rotate(0) translate(4 106)">
<title>VehicleControl::Bluetooth::Base::startReadThread</title>
<polygon fill="#ffffff" stroke="transparent" points="-4,4 -4,-106 462.418,-106 462.418,4 -4,4"/>
<!-- Node36 -->
<g id="node1" class="node">
<title>Node36</title>
<polygon fill="#bfbfbf" stroke="#000000" points="0,-34.5 0,-66.5 128.806,-66.5 128.806,-34.5 0,-34.5"/>
<text text-anchor="start" x="8" y="-53.5" font-family="Helvetica,sans-Serif" font-size="10.00" fill="#000000">VehicleControl::Bluetooth</text>
<text text-anchor="middle" x="64.403" y="-41.5" font-family="Helvetica,sans-Serif" font-size="10.00" fill="#000000">::Base::startReadThread</text>
</g>
<!-- Node37 -->
<g id="node2" class="node">
<title>Node37</title>
<g id="a_node2"><a xlink:href="classVehicleControl_1_1Bluetooth_1_1Base.html#a6c41447b1283d1b90459cbdae3a54480" target="_top" xlink:title="startBothThreads ">
<polygon fill="#ffffff" stroke="#000000" points="164.806,-34.5 164.806,-66.5 293.612,-66.5 293.612,-34.5 164.806,-34.5"/>
<text text-anchor="start" x="172.806" y="-53.5" font-family="Helvetica,sans-Serif" font-size="10.00" fill="#000000">VehicleControl::Bluetooth</text>
<text text-anchor="middle" x="229.209" y="-41.5" font-family="Helvetica,sans-Serif" font-size="10.00" fill="#000000">::Base::startBothThreads</text>
</a>
</g>
</g>
<!-- Node36&#45;&gt;Node37 -->
<g id="edge1" class="edge">
<title>Node36&#45;&gt;Node37</title>
<path fill="none" stroke="#191970" d="M139.3335,-50.5C147.8146,-50.5 156.4021,-50.5 164.7328,-50.5"/>
<polygon fill="#191970" stroke="#191970" points="139.0657,-47.0001 129.0657,-50.5 139.0656,-54.0001 139.0657,-47.0001"/>
</g>
<!-- Node38 -->
<g id="node3" class="node">
<title>Node38</title>
<g id="a_node3"><a xlink:href="classVehicleControl_1_1Bluetooth_1_1Client.html#a83777b221312c408d42d8dfcb0b807b8" target="_top" xlink:title="VehicleControl::Bluetooth\l::Client::isConnected">
<polygon fill="#ffffff" stroke="#000000" points="329.612,-69.5 329.612,-101.5 458.418,-101.5 458.418,-69.5 329.612,-69.5"/>
<text text-anchor="start" x="337.612" y="-88.5" font-family="Helvetica,sans-Serif" font-size="10.00" fill="#000000">VehicleControl::Bluetooth</text>
<text text-anchor="middle" x="394.015" y="-76.5" font-family="Helvetica,sans-Serif" font-size="10.00" fill="#000000">::Client::isConnected</text>
</a>
</g>
</g>
<!-- Node37&#45;&gt;Node38 -->
<g id="edge2" class="edge">
<title>Node37&#45;&gt;Node38</title>
<path fill="none" stroke="#191970" d="M303.86,-66.3537C312.4318,-68.1741 321.1166,-70.0185 329.5388,-71.8071"/>
<polygon fill="#191970" stroke="#191970" points="304.3806,-62.8863 293.8717,-64.2325 302.9264,-69.7336 304.3806,-62.8863"/>
</g>
<!-- Node39 -->
<g id="node4" class="node">
<title>Node39</title>
<g id="a_node4"><a xlink:href="classVehicleControl_1_1Bluetooth_1_1Server.html#af5d9733f754be78891f8189f6f63ac90" target="_top" xlink:title="VehicleControl::Bluetooth\l::Server::isConnected">
<polygon fill="#ffffff" stroke="#000000" points="329.612,-.5 329.612,-32.5 458.418,-32.5 458.418,-.5 329.612,-.5"/>
<text text-anchor="start" x="337.612" y="-19.5" font-family="Helvetica,sans-Serif" font-size="10.00" fill="#000000">VehicleControl::Bluetooth</text>
<text text-anchor="middle" x="394.015" y="-7.5" font-family="Helvetica,sans-Serif" font-size="10.00" fill="#000000">::Server::isConnected</text>
</a>
</g>
</g>
<!-- Node37&#45;&gt;Node39 -->
<g id="edge3" class="edge">
<title>Node37&#45;&gt;Node39</title>
<path fill="none" stroke="#191970" d="M303.86,-35.0993C312.4318,-33.3309 321.1166,-31.5392 329.5388,-29.8016"/>
<polygon fill="#191970" stroke="#191970" points="302.9582,-31.7115 293.8717,-37.1599 304.3726,-38.5671 302.9582,-31.7115"/>
</g>
<!-- Node39&#45;&gt;Node39 -->
<g id="edge4" class="edge">
<title>Node39&#45;&gt;Node39</title>
<path fill="none" stroke="#191970" d="M365.1532,-43.0753C368.9744,-47.7466 378.595,-51 394.015,-51 419.3197,-51 429.0066,-42.2388 423.0759,-32.8274"/>
<polygon fill="#191970" stroke="#191970" points="368.6478,-42.7575 364.9541,-32.8274 361.6491,-42.8935 368.6478,-42.7575"/>
</g>
</g>
</svg>
