<?xml version="1.0" encoding="UTF-8" standalone="no"?>
<!DOCTYPE svg PUBLIC "-//W3C//DTD SVG 1.1//EN"
 "http://www.w3.org/Graphics/SVG/1.1/DTD/svg11.dtd">
<!-- Generated by graphviz version 2.40.1 (20161225.0304)
 -->
<!-- Title: LibBBB::Bluetooth::Manager::receiveData Pages: 1 -->
<svg width="351pt" height="41pt"
 viewBox="0.00 0.00 350.81 41.00" xmlns="http://www.w3.org/2000/svg" xmlns:xlink="http://www.w3.org/1999/xlink">
<g id="graph0" class="graph" transform="scale(1 1) rotate(0) translate(4 37)">
<title>LibBBB::Bluetooth::Manager::receiveData</title>
<polygon fill="#ffffff" stroke="transparent" points="-4,4 -4,-37 346.806,-37 346.806,4 -4,4"/>
<!-- Node10 -->
<g id="node1" class="node">
<title>Node10</title>
<polygon fill="#bfbfbf" stroke="#000000" points="0,-.5 0,-32.5 114.352,-32.5 114.352,-.5 0,-.5"/>
<text text-anchor="start" x="8" y="-19.5" font-family="Helvetica,sans-Serif" font-size="10.00" fill="#000000">LibBBB::Bluetooth::</text>
<text text-anchor="middle" x="57.176" y="-7.5" font-family="Helvetica,sans-Serif" font-size="10.00" fill="#000000">Manager::receiveData</text>
</g>
<!-- Node11 -->
<g id="node2" class="node">
<title>Node11</title>
<g id="a_node2"><a xlink:href="classVehicleControl_1_1Control.html#af677fb9565407041290bbf7b681802e5" target="_top" xlink:title="update method that controls the vehicle ">
<polygon fill="#ffffff" stroke="#000000" points="150.352,-.5 150.352,-32.5 269.14,-32.5 269.14,-.5 150.352,-.5"/>
<text text-anchor="start" x="158.352" y="-19.5" font-family="Helvetica,sans-Serif" font-size="10.00" fill="#000000">VehicleControl::Control</text>
<text text-anchor="middle" x="209.746" y="-7.5" font-family="Helvetica,sans-Serif" font-size="10.00" fill="#000000">::update</text>
</a>
</g>
</g>
<!-- Node10&#45;&gt;Node11 -->
<g id="edge1" class="edge">
<title>Node10&#45;&gt;Node11</title>
<path fill="none" stroke="#191970" d="M124.6708,-16.5C133.1568,-16.5 141.7898,-16.5 150.1422,-16.5"/>
<polygon fill="#191970" stroke="#191970" points="124.4215,-13.0001 114.4215,-16.5 124.4215,-20.0001 124.4215,-13.0001"/>
</g>
<!-- Node12 -->
<g id="node3" class="node">
<title>Node12</title>
<g id="a_node3"><a xlink:href="main_8cpp.html#ae66f6b31b5ad750f1fe042a706a4e3d4" target="_top" xlink:title="main">
<polygon fill="#ffffff" stroke="#000000" points="305.14,-6.5 305.14,-26.5 342.806,-26.5 342.806,-6.5 305.14,-6.5"/>
<text text-anchor="middle" x="323.973" y="-13.5" font-family="Helvetica,sans-Serif" font-size="10.00" fill="#000000">main</text>
</a>
</g>
</g>
<!-- Node11&#45;&gt;Node12 -->
<g id="edge2" class="edge">
<title>Node11&#45;&gt;Node12</title>
<path fill="none" stroke="#191970" d="M279.4839,-16.5C288.8347,-16.5 297.7103,-16.5 305.0386,-16.5"/>
<polygon fill="#191970" stroke="#191970" points="279.2015,-13.0001 269.2015,-16.5 279.2014,-20.0001 279.2015,-13.0001"/>
</g>
</g>
</svg>
