<?xml version="1.0" encoding="UTF-8" standalone="no"?>
<!DOCTYPE svg PUBLIC "-//W3C//DTD SVG 1.1//EN"
 "http://www.w3.org/Graphics/SVG/1.1/DTD/svg11.dtd">
<!-- Generated by graphviz version 2.40.1 (20161225.0304)
 -->
<!-- Title: VehicleControl::Control::update Pages: 1 -->
<svg width="431pt" height="92pt"
 viewBox="0.00 0.00 431.39 92.00" xmlns="http://www.w3.org/2000/svg" xmlns:xlink="http://www.w3.org/1999/xlink">
<g id="graph0" class="graph" transform="scale(1 1) rotate(0) translate(4 88)">
<title>VehicleControl::Control::update</title>
<polygon fill="#ffffff" stroke="transparent" points="-4,4 -4,-88 427.39,-88 427.39,4 -4,4"/>
<!-- Node19 -->
<g id="node1" class="node">
<title>Node19</title>
<polygon fill="#bfbfbf" stroke="#000000" points="0,-25.5 0,-57.5 118.788,-57.5 118.788,-25.5 0,-25.5"/>
<text text-anchor="start" x="8" y="-44.5" font-family="Helvetica,sans-Serif" font-size="10.00" fill="#000000">VehicleControl::Control</text>
<text text-anchor="middle" x="59.394" y="-32.5" font-family="Helvetica,sans-Serif" font-size="10.00" fill="#000000">::update</text>
</g>
<!-- Node20 -->
<g id="node2" class="node">
<title>Node20</title>
<g id="a_node2"><a xlink:href="classLibBBB_1_1Bluetooth_1_1Manager.html#aba77bfc05cca940e709d9c0bb1106127" target="_top" xlink:title="LibBBB::Bluetooth::\lManager::isConnected">
<polygon fill="#ffffff" stroke="#000000" points="154.788,-51.5 154.788,-83.5 271.37,-83.5 271.37,-51.5 154.788,-51.5"/>
<text text-anchor="start" x="162.788" y="-70.5" font-family="Helvetica,sans-Serif" font-size="10.00" fill="#000000">LibBBB::Bluetooth::</text>
<text text-anchor="middle" x="213.079" y="-58.5" font-family="Helvetica,sans-Serif" font-size="10.00" fill="#000000">Manager::isConnected</text>
</a>
</g>
</g>
<!-- Node19&#45;&gt;Node20 -->
<g id="edge1" class="edge">
<title>Node19&#45;&gt;Node20</title>
<path fill="none" stroke="#191970" d="M118.8126,-51.5523C127.2514,-52.9799 135.9861,-54.4576 144.5799,-55.9115"/>
<polygon fill="#191970" stroke="#191970" points="144.1337,-59.3857 154.5774,-57.6029 145.3014,-52.4838 144.1337,-59.3857"/>
</g>
<!-- Node22 -->
<g id="node4" class="node">
<title>Node22</title>
<g id="a_node4"><a xlink:href="classLibBBB_1_1Bluetooth_1_1Manager.html#a060493f898621db59bfda9b7077d759c" target="_top" xlink:title="LibBBB::Bluetooth::\lManager::receiveData">
<polygon fill="#ffffff" stroke="#000000" points="155.903,-.5 155.903,-32.5 270.255,-32.5 270.255,-.5 155.903,-.5"/>
<text text-anchor="start" x="163.903" y="-19.5" font-family="Helvetica,sans-Serif" font-size="10.00" fill="#000000">LibBBB::Bluetooth::</text>
<text text-anchor="middle" x="213.079" y="-7.5" font-family="Helvetica,sans-Serif" font-size="10.00" fill="#000000">Manager::receiveData</text>
</a>
</g>
</g>
<!-- Node19&#45;&gt;Node22 -->
<g id="edge3" class="edge">
<title>Node19&#45;&gt;Node22</title>
<path fill="none" stroke="#191970" d="M118.8126,-31.8343C127.65,-30.3968 136.8118,-28.9064 145.7966,-27.4449"/>
<polygon fill="#191970" stroke="#191970" points="146.5304,-30.8716 155.8387,-25.8113 145.4065,-23.9624 146.5304,-30.8716"/>
</g>
<!-- Node21 -->
<g id="node3" class="node">
<title>Node21</title>
<g id="a_node3"><a xlink:href="classLibBBB_1_1ThreadHelper.html#a6999e18135496ef252b1c43c374c20f9" target="_top" xlink:title="startDetachedThread ">
<polygon fill="#ffffff" stroke="#000000" points="307.37,-51.5 307.37,-83.5 423.39,-83.5 423.39,-51.5 307.37,-51.5"/>
<text text-anchor="start" x="315.37" y="-70.5" font-family="Helvetica,sans-Serif" font-size="10.00" fill="#000000">LibBBB::ThreadHelper</text>
<text text-anchor="middle" x="365.38" y="-58.5" font-family="Helvetica,sans-Serif" font-size="10.00" fill="#000000">::startDetachedThread</text>
</a>
</g>
</g>
<!-- Node20&#45;&gt;Node21 -->
<g id="edge2" class="edge">
<title>Node20&#45;&gt;Node21</title>
<path fill="none" stroke="#191970" d="M271.527,-67.5C279.968,-67.5 288.7163,-67.5 297.3249,-67.5"/>
<polygon fill="#191970" stroke="#191970" points="297.3399,-71.0001 307.3399,-67.5 297.3398,-64.0001 297.3399,-71.0001"/>
</g>
</g>
</svg>
