<?xml version="1.0" encoding="UTF-8" standalone="no"?>
<!DOCTYPE svg PUBLIC "-//W3C//DTD SVG 1.1//EN"
 "http://www.w3.org/Graphics/SVG/1.1/DTD/svg11.dtd">
<!-- Generated by graphviz version 2.40.1 (20161225.0304)
 -->
<!-- Title: VehicleControl::Control::CommunicationProtocolParser::sendOutgoingPackets Pages: 1 -->
<svg width="394pt" height="53pt"
 viewBox="0.00 0.00 393.58 53.00" xmlns="http://www.w3.org/2000/svg" xmlns:xlink="http://www.w3.org/1999/xlink">
<g id="graph0" class="graph" transform="scale(1 1) rotate(0) translate(4 49)">
<title>VehicleControl::Control::CommunicationProtocolParser::sendOutgoingPackets</title>
<polygon fill="#ffffff" stroke="transparent" points="-4,4 -4,-49 389.578,-49 389.578,4 -4,4"/>
<!-- Node16 -->
<g id="node1" class="node">
<title>Node16</title>
<polygon fill="#bfbfbf" stroke="#000000" points="0,-.5 0,-44.5 157.124,-44.5 157.124,-.5 0,-.5"/>
<text text-anchor="start" x="8" y="-31.5" font-family="Helvetica,sans-Serif" font-size="10.00" fill="#000000">VehicleControl::Control</text>
<text text-anchor="start" x="8" y="-19.5" font-family="Helvetica,sans-Serif" font-size="10.00" fill="#000000">::CommunicationProtocolParser</text>
<text text-anchor="middle" x="78.562" y="-7.5" font-family="Helvetica,sans-Serif" font-size="10.00" fill="#000000">::sendOutgoingPackets</text>
</g>
<!-- Node17 -->
<g id="node2" class="node">
<title>Node17</title>
<g id="a_node2"><a xlink:href="classVehicleControl_1_1Control.html#af677fb9565407041290bbf7b681802e5" target="_top" xlink:title="update method that controls the vehicle ">
<polygon fill="#ffffff" stroke="#000000" points="193.124,-6.5 193.124,-38.5 311.912,-38.5 311.912,-6.5 193.124,-6.5"/>
<text text-anchor="start" x="201.124" y="-25.5" font-family="Helvetica,sans-Serif" font-size="10.00" fill="#000000">VehicleControl::Control</text>
<text text-anchor="middle" x="252.518" y="-13.5" font-family="Helvetica,sans-Serif" font-size="10.00" fill="#000000">::update</text>
</a>
</g>
</g>
<!-- Node16&#45;&gt;Node17 -->
<g id="edge1" class="edge">
<title>Node16&#45;&gt;Node17</title>
<path fill="none" stroke="#191970" d="M167.3533,-22.5C176.0596,-22.5 184.7417,-22.5 193.0504,-22.5"/>
<polygon fill="#191970" stroke="#191970" points="167.1427,-19.0001 157.1426,-22.5 167.1426,-26.0001 167.1427,-19.0001"/>
</g>
<!-- Node18 -->
<g id="node3" class="node">
<title>Node18</title>
<g id="a_node3"><a xlink:href="main_8cpp.html#ae66f6b31b5ad750f1fe042a706a4e3d4" target="_top" xlink:title="main">
<polygon fill="#ffffff" stroke="#000000" points="347.912,-12.5 347.912,-32.5 385.578,-32.5 385.578,-12.5 347.912,-12.5"/>
<text text-anchor="middle" x="366.745" y="-19.5" font-family="Helvetica,sans-Serif" font-size="10.00" fill="#000000">main</text>
</a>
</g>
</g>
<!-- Node17&#45;&gt;Node18 -->
<g id="edge2" class="edge">
<title>Node17&#45;&gt;Node18</title>
<path fill="none" stroke="#191970" d="M322.2559,-22.5C331.6067,-22.5 340.4823,-22.5 347.8106,-22.5"/>
<polygon fill="#191970" stroke="#191970" points="321.9735,-19.0001 311.9735,-22.5 321.9734,-26.0001 321.9735,-19.0001"/>
</g>
</g>
</svg>
