<?xml version="1.0" encoding="UTF-8" standalone="no"?>
<!DOCTYPE svg PUBLIC "-//W3C//DTD SVG 1.1//EN"
 "http://www.w3.org/Graphics/SVG/1.1/DTD/svg11.dtd">
<!-- Generated by graphviz version 2.40.1 (20161225.0304)
 -->
<!-- Title: Math::LinearConverter::convertYtoX Pages: 1 -->
<svg width="310pt" height="41pt"
 viewBox="0.00 0.00 310.48 41.00" xmlns="http://www.w3.org/2000/svg" xmlns:xlink="http://www.w3.org/1999/xlink">
<g id="graph0" class="graph" transform="scale(1 1) rotate(0) translate(4 37)">
<title>Math::LinearConverter::convertYtoX</title>
<polygon fill="#ffffff" stroke="transparent" points="-4,4 -4,-37 306.483,-37 306.483,4 -4,4"/>
<!-- Node6 -->
<g id="node1" class="node">
<title>Node6</title>
<polygon fill="#bfbfbf" stroke="#000000" points="0,-.5 0,-32.5 115.46,-32.5 115.46,-.5 0,-.5"/>
<text text-anchor="start" x="8" y="-19.5" font-family="Helvetica,sans-Serif" font-size="10.00" fill="#000000">Math::LinearConverter</text>
<text text-anchor="middle" x="57.73" y="-7.5" font-family="Helvetica,sans-Serif" font-size="10.00" fill="#000000">::convertYtoX</text>
</g>
<!-- Node7 -->
<g id="node2" class="node">
<title>Node7</title>
<g id="a_node2"><a xlink:href="classVehicleControl_1_1IO_1_1ServoControl.html#ad147f1a35161984fe4a9bb5d062f0aaa" target="_top" xlink:title="desiredDegree getter ">
<polygon fill="#ffffff" stroke="#000000" points="151.46,-.5 151.46,-32.5 302.483,-32.5 302.483,-.5 151.46,-.5"/>
<text text-anchor="start" x="159.46" y="-19.5" font-family="Helvetica,sans-Serif" font-size="10.00" fill="#000000">VehicleControl::IO</text>
<text text-anchor="middle" x="226.9715" y="-7.5" font-family="Helvetica,sans-Serif" font-size="10.00" fill="#000000">::ServoControl::desiredDegree</text>
</a>
</g>
</g>
<!-- Node6&#45;&gt;Node7 -->
<g id="edge1" class="edge">
<title>Node6&#45;&gt;Node7</title>
<path fill="none" stroke="#191970" d="M125.6259,-16.5C134.0401,-16.5 142.6841,-16.5 151.2069,-16.5"/>
<polygon fill="#191970" stroke="#191970" points="125.5,-13.0001 115.5,-16.5 125.4999,-20.0001 125.5,-13.0001"/>
</g>
</g>
</svg>
