<?xml version="1.0" encoding="UTF-8" standalone="no"?>
<!DOCTYPE svg PUBLIC "-//W3C//DTD SVG 1.1//EN"
 "http://www.w3.org/Graphics/SVG/1.1/DTD/svg11.dtd">
<!-- Generated by graphviz version 2.40.1 (20161225.0304)
 -->
<!-- Title: VehicleControl::IO::MotorControl::MotorControl Pages: 1 -->
<svg width="332pt" height="41pt"
 viewBox="0.00 0.00 331.59 41.00" xmlns="http://www.w3.org/2000/svg" xmlns:xlink="http://www.w3.org/1999/xlink">
<g id="graph0" class="graph" transform="scale(1 1) rotate(0) translate(4 37)">
<title>VehicleControl::IO::MotorControl::MotorControl</title>
<polygon fill="#ffffff" stroke="transparent" points="-4,4 -4,-37 327.587,-37 327.587,4 -4,4"/>
<!-- Node0 -->
<g id="node1" class="node">
<title>Node0</title>
<polygon fill="#bfbfbf" stroke="#000000" points="0,-.5 0,-32.5 142.672,-32.5 142.672,-.5 0,-.5"/>
<text text-anchor="start" x="8" y="-19.5" font-family="Helvetica,sans-Serif" font-size="10.00" fill="#000000">VehicleControl::IO</text>
<text text-anchor="middle" x="71.336" y="-7.5" font-family="Helvetica,sans-Serif" font-size="10.00" fill="#000000">::MotorControl::MotorControl</text>
</g>
<!-- Node1 -->
<g id="node2" class="node">
<title>Node1</title>
<g id="a_node2"><a xlink:href="classThreadHelper.html#a4426e115e7858a4b6f6eedbc77302756" target="_top" xlink:title="startDetachedThread ">
<polygon fill="#ffffff" stroke="#000000" points="178.672,-.5 178.672,-32.5 323.587,-32.5 323.587,-.5 178.672,-.5"/>
<text text-anchor="start" x="186.672" y="-19.5" font-family="Helvetica,sans-Serif" font-size="10.00" fill="#000000">ThreadHelper::startDetached</text>
<text text-anchor="middle" x="251.1295" y="-7.5" font-family="Helvetica,sans-Serif" font-size="10.00" fill="#000000">Thread</text>
</a>
</g>
</g>
<!-- Node0&#45;&gt;Node1 -->
<g id="edge1" class="edge">
<title>Node0&#45;&gt;Node1</title>
<path fill="none" stroke="#191970" d="M142.9118,-16.5C151.358,-16.5 160.0295,-16.5 168.6108,-16.5"/>
<polygon fill="#191970" stroke="#191970" points="168.6241,-20.0001 178.6241,-16.5 168.624,-13.0001 168.6241,-20.0001"/>
</g>
</g>
</svg>
