<?xml version="1.0" encoding="UTF-8" standalone="no"?>
<!DOCTYPE svg PUBLIC "-//W3C//DTD SVG 1.1//EN"
 "http://www.w3.org/Graphics/SVG/1.1/DTD/svg11.dtd">
<!-- Generated by graphviz version 2.40.1 (20161225.0304)
 -->
<!-- Title: LibBBB::IO::UserLED::state Pages: 1 -->
<svg width="570pt" height="153pt"
 viewBox="0.00 0.00 569.50 153.00" xmlns="http://www.w3.org/2000/svg" xmlns:xlink="http://www.w3.org/1999/xlink">
<g id="graph0" class="graph" transform="scale(1 1) rotate(0) translate(4 149)">
<title>LibBBB::IO::UserLED::state</title>
<polygon fill="#ffffff" stroke="transparent" points="-4,4 -4,-149 565.504,-149 565.504,4 -4,4"/>
<!-- Node21 -->
<g id="node1" class="node">
<title>Node21</title>
<polygon fill="#bfbfbf" stroke="#000000" points="0,-.5 0,-32.5 111.572,-32.5 111.572,-.5 0,-.5"/>
<text text-anchor="start" x="8" y="-19.5" font-family="Helvetica,sans-Serif" font-size="10.00" fill="#000000">LibBBB::IO::UserLED</text>
<text text-anchor="middle" x="55.786" y="-7.5" font-family="Helvetica,sans-Serif" font-size="10.00" fill="#000000">::state</text>
</g>
<!-- Node22 -->
<g id="node2" class="node">
<title>Node22</title>
<g id="a_node2"><a xlink:href="classLibBBB_1_1IO_1_1UserLED.html#a5d6714d1ddc854308c1d4cc5448ded07" target="_top" xlink:title="setState method sets the state of the LED ">
<polygon fill="#ffffff" stroke="#000000" points="147.572,-42.5 147.572,-74.5 259.144,-74.5 259.144,-42.5 147.572,-42.5"/>
<text text-anchor="start" x="155.572" y="-61.5" font-family="Helvetica,sans-Serif" font-size="10.00" fill="#000000">LibBBB::IO::UserLED</text>
<text text-anchor="middle" x="203.358" y="-49.5" font-family="Helvetica,sans-Serif" font-size="10.00" fill="#000000">::setState</text>
</a>
</g>
</g>
<!-- Node21&#45;&gt;Node22 -->
<g id="edge1" class="edge">
<title>Node21&#45;&gt;Node22</title>
<path fill="none" stroke="#191970" d="M121.3371,-35.1563C130.0642,-37.6401 138.9468,-40.1681 147.4885,-42.5991"/>
<polygon fill="#191970" stroke="#191970" points="122.1528,-31.7495 111.5766,-32.3784 120.2366,-38.4822 122.1528,-31.7495"/>
</g>
<!-- Node25 -->
<g id="node5" class="node">
<title>Node25</title>
<g id="a_node5"><a xlink:href="structLibBBB_1_1IO_1_1UserLED_1_1Setup.html#a25c259e98aa65d6594d0031eb0463b01" target="_top" xlink:title="LibBBB::IO::UserLED\l::Setup::Setup">
<polygon fill="#ffffff" stroke="#000000" points="449.932,-16.5 449.932,-48.5 561.504,-48.5 561.504,-16.5 449.932,-16.5"/>
<text text-anchor="start" x="457.932" y="-35.5" font-family="Helvetica,sans-Serif" font-size="10.00" fill="#000000">LibBBB::IO::UserLED</text>
<text text-anchor="middle" x="505.718" y="-23.5" font-family="Helvetica,sans-Serif" font-size="10.00" fill="#000000">::Setup::Setup</text>
</a>
</g>
</g>
<!-- Node21&#45;&gt;Node25 -->
<g id="edge6" class="edge">
<title>Node21&#45;&gt;Node25</title>
<path fill="none" stroke="#191970" d="M122.0712,-18.8572C210.7602,-22.011 366.4846,-27.5487 449.6453,-30.506"/>
<polygon fill="#191970" stroke="#191970" points="121.9786,-15.3518 111.8605,-18.4941 121.7297,-22.3473 121.9786,-15.3518"/>
</g>
<!-- Node23 -->
<g id="node3" class="node">
<title>Node23</title>
<g id="a_node3"><a xlink:href="classVehicleControl_1_1Control.html#aaaa31c5094e42f0f9795187d59ed10c4" target="_top" xlink:title="VehicleControl::Control\l::~Control">
<polygon fill="#ffffff" stroke="#000000" points="295.144,-112.5 295.144,-144.5 413.932,-144.5 413.932,-112.5 295.144,-112.5"/>
<text text-anchor="start" x="303.144" y="-131.5" font-family="Helvetica,sans-Serif" font-size="10.00" fill="#000000">VehicleControl::Control</text>
<text text-anchor="middle" x="354.538" y="-119.5" font-family="Helvetica,sans-Serif" font-size="10.00" fill="#000000">::~Control</text>
</a>
</g>
</g>
<!-- Node22&#45;&gt;Node23 -->
<g id="edge2" class="edge">
<title>Node22&#45;&gt;Node23</title>
<path fill="none" stroke="#191970" d="M244.0161,-79.0565C259.8738,-86.9099 278.2656,-95.8179 295.144,-103.5 301.6609,-106.4661 308.6314,-109.5116 315.4215,-112.4115"/>
<polygon fill="#191970" stroke="#191970" points="245.5149,-75.893 235.0027,-74.5717 242.3965,-82.16 245.5149,-75.893"/>
</g>
<!-- Node24 -->
<g id="node4" class="node">
<title>Node24</title>
<g id="a_node4"><a xlink:href="classLibBBB_1_1IO_1_1UserLED.html#a3ae6a5944f06980dee85eb4504ec9eb0" target="_top" xlink:title="changeBlinkTime method changes the time of the blink ">
<polygon fill="#ffffff" stroke="#000000" points="298.752,-61.5 298.752,-93.5 410.324,-93.5 410.324,-61.5 298.752,-61.5"/>
<text text-anchor="start" x="306.752" y="-80.5" font-family="Helvetica,sans-Serif" font-size="10.00" fill="#000000">LibBBB::IO::UserLED</text>
<text text-anchor="middle" x="354.538" y="-68.5" font-family="Helvetica,sans-Serif" font-size="10.00" fill="#000000">::changeBlinkTime</text>
</a>
</g>
</g>
<!-- Node22&#45;&gt;Node24 -->
<g id="edge3" class="edge">
<title>Node22&#45;&gt;Node24</title>
<path fill="none" stroke="#191970" d="M269.3113,-66.7889C279.0956,-68.0186 289.099,-69.2758 298.651,-70.4762"/>
<polygon fill="#191970" stroke="#191970" points="269.5807,-63.2953 259.2223,-65.5209 268.7078,-70.2407 269.5807,-63.2953"/>
</g>
<!-- Node22&#45;&gt;Node25 -->
<g id="edge5" class="edge">
<title>Node22&#45;&gt;Node25</title>
<path fill="none" stroke="#191970" d="M269.3164,-52.8282C323.2542,-48.1901 398.686,-41.7037 449.722,-37.3151"/>
<polygon fill="#191970" stroke="#191970" points="268.8312,-49.3569 259.1678,-53.7009 269.431,-56.3312 268.8312,-49.3569"/>
</g>
<!-- Node24&#45;&gt;Node25 -->
<g id="edge4" class="edge">
<title>Node24&#45;&gt;Node25</title>
<path fill="none" stroke="#191970" d="M418.3908,-58.4937C429.5605,-55.1689 441.0808,-51.7398 451.9436,-48.5064"/>
<polygon fill="#191970" stroke="#191970" points="417.2763,-55.1736 408.6904,-61.3811 419.2734,-61.8827 417.2763,-55.1736"/>
</g>
</g>
</svg>
