<?xml version="1.0" encoding="UTF-8" standalone="no"?>
<!DOCTYPE svg PUBLIC "-//W3C//DTD SVG 1.1//EN"
 "http://www.w3.org/Graphics/SVG/1.1/DTD/svg11.dtd">
<!-- Generated by graphviz version 2.40.1 (20161225.0304)
 -->
<!-- Title: VehicleControl::IO::Output::toggleOutput Pages: 1 -->
<svg width="391pt" height="92pt"
 viewBox="0.00 0.00 391.42 92.00" xmlns="http://www.w3.org/2000/svg" xmlns:xlink="http://www.w3.org/1999/xlink">
<g id="graph0" class="graph" transform="scale(1 1) rotate(0) translate(4 88)">
<title>VehicleControl::IO::Output::toggleOutput</title>
<polygon fill="#ffffff" stroke="transparent" points="-4,4 -4,-88 387.424,-88 387.424,4 -4,4"/>
<!-- Node27 -->
<g id="node1" class="node">
<title>Node27</title>
<polygon fill="#bfbfbf" stroke="#000000" points="0,-25.5 0,-57.5 114.378,-57.5 114.378,-25.5 0,-25.5"/>
<text text-anchor="start" x="8" y="-44.5" font-family="Helvetica,sans-Serif" font-size="10.00" fill="#000000">VehicleControl::IO</text>
<text text-anchor="middle" x="57.189" y="-32.5" font-family="Helvetica,sans-Serif" font-size="10.00" fill="#000000">::Output::toggleOutput</text>
</g>
<!-- Node28 -->
<g id="node2" class="node">
<title>Node28</title>
<g id="a_node2"><a xlink:href="classVehicleControl_1_1IO_1_1IOBase.html#adcc9f65745e07f2e00425d4e0f5f8e54" target="_top" xlink:title="getValue getter ">
<polygon fill="#ffffff" stroke="#000000" points="150.378,-51.5 150.378,-83.5 250.301,-83.5 250.301,-51.5 150.378,-51.5"/>
<text text-anchor="start" x="158.378" y="-70.5" font-family="Helvetica,sans-Serif" font-size="10.00" fill="#000000">VehicleControl::IO</text>
<text text-anchor="middle" x="200.3395" y="-58.5" font-family="Helvetica,sans-Serif" font-size="10.00" fill="#000000">::IOBase::getValue</text>
</a>
</g>
</g>
<!-- Node27&#45;&gt;Node28 -->
<g id="edge1" class="edge">
<title>Node27&#45;&gt;Node28</title>
<path fill="none" stroke="#191970" d="M114.589,-51.9254C123.0869,-53.4688 131.8625,-55.0627 140.4105,-56.6153"/>
<polygon fill="#191970" stroke="#191970" points="139.8456,-60.0699 150.3101,-58.4133 141.0966,-53.1825 139.8456,-60.0699"/>
</g>
<!-- Node30 -->
<g id="node4" class="node">
<title>Node30</title>
<g id="a_node4"><a xlink:href="classVehicleControl_1_1IO_1_1Output.html#a98a765948ebfdb90aaad27a140fac509" target="_top" xlink:title="setValue setter ">
<polygon fill="#ffffff" stroke="#000000" points="151.778,-.5 151.778,-32.5 248.901,-32.5 248.901,-.5 151.778,-.5"/>
<text text-anchor="start" x="159.778" y="-19.5" font-family="Helvetica,sans-Serif" font-size="10.00" fill="#000000">VehicleControl::IO</text>
<text text-anchor="middle" x="200.3395" y="-7.5" font-family="Helvetica,sans-Serif" font-size="10.00" fill="#000000">::Output::setValue</text>
</a>
</g>
</g>
<!-- Node27&#45;&gt;Node30 -->
<g id="edge3" class="edge">
<title>Node27&#45;&gt;Node30</title>
<path fill="none" stroke="#191970" d="M114.589,-31.4756C123.5184,-29.9162 132.7544,-28.3032 141.7106,-26.739"/>
<polygon fill="#191970" stroke="#191970" points="142.4237,-30.1676 151.6724,-24.9993 141.2193,-23.2719 142.4237,-30.1676"/>
</g>
<!-- Node29 -->
<g id="node3" class="node">
<title>Node29</title>
<g id="a_node3"><a xlink:href="classVehicleControl_1_1IO_1_1IOBase.html#a1da47fda987bfedb4ec3c7fb446c09c7" target="_top" xlink:title="read function that reads the value of the given file filename ">
<polygon fill="#ffffff" stroke="#000000" points="286.301,-51.5 286.301,-83.5 383.424,-83.5 383.424,-51.5 286.301,-51.5"/>
<text text-anchor="start" x="294.301" y="-70.5" font-family="Helvetica,sans-Serif" font-size="10.00" fill="#000000">VehicleControl::IO</text>
<text text-anchor="middle" x="334.8625" y="-58.5" font-family="Helvetica,sans-Serif" font-size="10.00" fill="#000000">::IOBase::read</text>
</a>
</g>
</g>
<!-- Node28&#45;&gt;Node29 -->
<g id="edge2" class="edge">
<title>Node28&#45;&gt;Node29</title>
<path fill="none" stroke="#191970" d="M250.4309,-67.5C258.7157,-67.5 267.3729,-67.5 275.8525,-67.5"/>
<polygon fill="#191970" stroke="#191970" points="276.0708,-71.0001 286.0707,-67.5 276.0707,-64.0001 276.0708,-71.0001"/>
</g>
<!-- Node31 -->
<g id="node5" class="node">
<title>Node31</title>
<g id="a_node5"><a xlink:href="classVehicleControl_1_1IO_1_1IOBase.html#a09b22d396b771b2175df60b3a29b6c7f" target="_top" xlink:title="write write function that writes a single string value to a file in the path provided ...">
<polygon fill="#ffffff" stroke="#000000" points="286.301,-.5 286.301,-32.5 383.424,-32.5 383.424,-.5 286.301,-.5"/>
<text text-anchor="start" x="294.301" y="-19.5" font-family="Helvetica,sans-Serif" font-size="10.00" fill="#000000">VehicleControl::IO</text>
<text text-anchor="middle" x="334.8625" y="-7.5" font-family="Helvetica,sans-Serif" font-size="10.00" fill="#000000">::IOBase::write</text>
</a>
</g>
</g>
<!-- Node30&#45;&gt;Node31 -->
<g id="edge4" class="edge">
<title>Node30&#45;&gt;Node31</title>
<path fill="none" stroke="#191970" d="M248.9054,-16.5C257.6542,-16.5 266.8615,-16.5 275.8679,-16.5"/>
<polygon fill="#191970" stroke="#191970" points="275.9161,-20.0001 285.9161,-16.5 275.916,-13.0001 275.9161,-20.0001"/>
</g>
</g>
</svg>
