<?xml version="1.0" encoding="UTF-8" standalone="no"?>
<!DOCTYPE svg PUBLIC "-//W3C//DTD SVG 1.1//EN"
 "http://www.w3.org/Graphics/SVG/1.1/DTD/svg11.dtd">
<!-- Generated by graphviz version 2.40.1 (20161225.0304)
 -->
<!-- Title: VehicleControl::IO::IOBase::read Pages: 1 -->
<svg width="718pt" height="211pt"
 viewBox="0.00 0.00 718.28 211.00" xmlns="http://www.w3.org/2000/svg" xmlns:xlink="http://www.w3.org/1999/xlink">
<g id="graph0" class="graph" transform="scale(1 1) rotate(0) translate(4 207)">
<title>VehicleControl::IO::IOBase::read</title>
<polygon fill="#ffffff" stroke="transparent" points="-4,4 -4,-207 714.279,-207 714.279,4 -4,4"/>
<!-- Node31 -->
<g id="node1" class="node">
<title>Node31</title>
<polygon fill="#bfbfbf" stroke="#000000" points="0,-115.5 0,-147.5 97.123,-147.5 97.123,-115.5 0,-115.5"/>
<text text-anchor="start" x="8" y="-134.5" font-family="Helvetica,sans-Serif" font-size="10.00" fill="#000000">VehicleControl::IO</text>
<text text-anchor="middle" x="48.5615" y="-122.5" font-family="Helvetica,sans-Serif" font-size="10.00" fill="#000000">::IOBase::read</text>
</g>
<!-- Node32 -->
<g id="node2" class="node">
<title>Node32</title>
<g id="a_node2"><a xlink:href="classVehicleControl_1_1IO_1_1Input.html#ac9f955530d4e9be48fd1c936d29aab49" target="_top" xlink:title="getEdgeType getter ">
<polygon fill="#ffffff" stroke="#000000" points="133.123,-170.5 133.123,-202.5 241.944,-202.5 241.944,-170.5 133.123,-170.5"/>
<text text-anchor="start" x="141.123" y="-189.5" font-family="Helvetica,sans-Serif" font-size="10.00" fill="#000000">VehicleControl::IO</text>
<text text-anchor="middle" x="187.5335" y="-177.5" font-family="Helvetica,sans-Serif" font-size="10.00" fill="#000000">::Input::getEdgeType</text>
</a>
</g>
</g>
<!-- Node31&#45;&gt;Node32 -->
<g id="edge1" class="edge">
<title>Node31&#45;&gt;Node32</title>
<path fill="none" stroke="#191970" d="M98.7179,-151.3501C114.4646,-157.582 131.6501,-164.3834 146.6724,-170.3287"/>
<polygon fill="#191970" stroke="#191970" points="99.7178,-147.9817 89.1315,-147.5561 97.1418,-154.4905 99.7178,-147.9817"/>
</g>
<!-- Node34 -->
<g id="node4" class="node">
<title>Node34</title>
<g id="a_node4"><a xlink:href="classVehicleControl_1_1IO_1_1IOBase.html#adcc9f65745e07f2e00425d4e0f5f8e54" target="_top" xlink:title="getValue getter ">
<polygon fill="#ffffff" stroke="#000000" points="137.572,-90.5 137.572,-122.5 237.495,-122.5 237.495,-90.5 137.572,-90.5"/>
<text text-anchor="start" x="145.572" y="-109.5" font-family="Helvetica,sans-Serif" font-size="10.00" fill="#000000">VehicleControl::IO</text>
<text text-anchor="middle" x="187.5335" y="-97.5" font-family="Helvetica,sans-Serif" font-size="10.00" fill="#000000">::IOBase::getValue</text>
</a>
</g>
</g>
<!-- Node31&#45;&gt;Node34 -->
<g id="edge3" class="edge">
<title>Node31&#45;&gt;Node34</title>
<path fill="none" stroke="#191970" d="M107.0812,-120.9728C117.1321,-119.1647 127.4971,-117.3001 137.3062,-115.5355"/>
<polygon fill="#191970" stroke="#191970" points="106.3895,-117.5409 97.1672,-122.7562 107.6289,-124.4303 106.3895,-117.5409"/>
</g>
<!-- Node33 -->
<g id="node3" class="node">
<title>Node33</title>
<g id="a_node3"><a xlink:href="structVehicleControl_1_1IO_1_1Input_1_1Setup.html#a09ce07a96559b6f63eaa51d8eccbc877" target="_top" xlink:title="VehicleControl::IO\l::Input::Setup::Setup">
<polygon fill="#ffffff" stroke="#000000" points="603.12,-147.5 603.12,-179.5 710.279,-179.5 710.279,-147.5 603.12,-147.5"/>
<text text-anchor="start" x="611.12" y="-166.5" font-family="Helvetica,sans-Serif" font-size="10.00" fill="#000000">VehicleControl::IO</text>
<text text-anchor="middle" x="656.6995" y="-154.5" font-family="Helvetica,sans-Serif" font-size="10.00" fill="#000000">::Input::Setup::Setup</text>
</a>
</g>
</g>
<!-- Node32&#45;&gt;Node33 -->
<g id="edge2" class="edge">
<title>Node32&#45;&gt;Node33</title>
<path fill="none" stroke="#191970" d="M252.439,-183.3181C345.8192,-178.7403 516.3467,-170.3805 603.032,-166.1309"/>
<polygon fill="#191970" stroke="#191970" points="252.0876,-179.8311 242.271,-183.8166 252.4304,-186.8227 252.0876,-179.8311"/>
</g>
<!-- Node35 -->
<g id="node5" class="node">
<title>Node35</title>
<g id="a_node5"><a xlink:href="classVehicleControl_1_1IO_1_1Input.html#a23f6d0d5f5cc67622adccf30c7bdb655" target="_top" xlink:title="waitForEdge method is a blocking wait for edge. Therefore, the callee will halt its thread until this...">
<polygon fill="#ffffff" stroke="#000000" points="283.504,-116.5 283.504,-148.5 388.974,-148.5 388.974,-116.5 283.504,-116.5"/>
<text text-anchor="start" x="291.504" y="-135.5" font-family="Helvetica,sans-Serif" font-size="10.00" fill="#000000">VehicleControl::IO</text>
<text text-anchor="middle" x="336.239" y="-123.5" font-family="Helvetica,sans-Serif" font-size="10.00" fill="#000000">::Input::waitForEdge</text>
</a>
</g>
</g>
<!-- Node34&#45;&gt;Node35 -->
<g id="edge4" class="edge">
<title>Node34&#45;&gt;Node35</title>
<path fill="none" stroke="#191970" d="M248.0275,-117.0769C259.7509,-119.1267 271.951,-121.2597 283.4054,-123.2625"/>
<polygon fill="#191970" stroke="#191970" points="248.3318,-113.5771 237.8784,-115.3024 247.1261,-120.4725 248.3318,-113.5771"/>
</g>
<!-- Node37 -->
<g id="node7" class="node">
<title>Node37</title>
<g id="a_node7"><a xlink:href="classVehicleControl_1_1IO_1_1Output.html#a0ff845e3963d2a3e19080b402edfaaf6" target="_top" xlink:title="toggleOutput method toggles the output once ">
<polygon fill="#ffffff" stroke="#000000" points="279.05,-14.5 279.05,-46.5 393.428,-46.5 393.428,-14.5 279.05,-14.5"/>
<text text-anchor="start" x="287.05" y="-33.5" font-family="Helvetica,sans-Serif" font-size="10.00" fill="#000000">VehicleControl::IO</text>
<text text-anchor="middle" x="336.239" y="-21.5" font-family="Helvetica,sans-Serif" font-size="10.00" fill="#000000">::Output::toggleOutput</text>
</a>
</g>
</g>
<!-- Node34&#45;&gt;Node37 -->
<g id="edge8" class="edge">
<title>Node34&#45;&gt;Node37</title>
<path fill="none" stroke="#191970" d="M224.0082,-85.3965C240.3351,-76.1929 259.929,-65.4783 277.944,-56.5 284.6883,-53.1388 291.9629,-49.7287 299.01,-46.5329"/>
<polygon fill="#191970" stroke="#191970" points="222.2759,-82.3552 215.3046,-90.3335 225.7296,-88.4439 222.2759,-82.3552"/>
</g>
<!-- Node40 -->
<g id="node10" class="node">
<title>Node40</title>
<g id="a_node10"><a xlink:href="classVehicleControl_1_1IO_1_1Output.html#a522b8b858e6e80e33b5c82cbe6a40dac" target="_top" xlink:title="cancelToggle cancels toggling ">
<polygon fill="#ffffff" stroke="#000000" points="277.944,-65.5 277.944,-97.5 394.534,-97.5 394.534,-65.5 277.944,-65.5"/>
<text text-anchor="start" x="285.944" y="-84.5" font-family="Helvetica,sans-Serif" font-size="10.00" fill="#000000">VehicleControl::IO</text>
<text text-anchor="middle" x="336.239" y="-72.5" font-family="Helvetica,sans-Serif" font-size="10.00" fill="#000000">::Output::cancelToggle</text>
</a>
</g>
</g>
<!-- Node34&#45;&gt;Node40 -->
<g id="edge11" class="edge">
<title>Node34&#45;&gt;Node40</title>
<path fill="none" stroke="#191970" d="M247.9662,-96.3402C257.7922,-94.6883 267.9546,-92.9798 277.7335,-91.3358"/>
<polygon fill="#191970" stroke="#191970" points="247.1597,-92.9266 237.8784,-98.0361 248.3203,-99.8297 247.1597,-92.9266"/>
</g>
<!-- Node35&#45;&gt;Node33 -->
<g id="edge5" class="edge">
<title>Node35&#45;&gt;Node33</title>
<path fill="none" stroke="#191970" d="M399.019,-140.8697C409.5326,-142.1621 420.3358,-143.4232 430.534,-144.5 489.312,-150.7061 556.8573,-156.1626 602.7159,-159.6172"/>
<polygon fill="#191970" stroke="#191970" points="399.4135,-137.3918 389.0569,-139.6259 398.5462,-144.3379 399.4135,-137.3918"/>
</g>
<!-- Node36 -->
<g id="node6" class="node">
<title>Node36</title>
<g id="a_node6"><a xlink:href="classVehicleControl_1_1IO_1_1Input.html#af43084e3aa7a11f0dae0ae67a22112f1" target="_top" xlink:title="cancelWaitForEdge method cancels waiting for the edge. ">
<polygon fill="#ffffff" stroke="#000000" points="430.534,-102.5 430.534,-134.5 567.12,-134.5 567.12,-102.5 430.534,-102.5"/>
<text text-anchor="start" x="438.534" y="-121.5" font-family="Helvetica,sans-Serif" font-size="10.00" fill="#000000">VehicleControl::IO</text>
<text text-anchor="middle" x="498.827" y="-109.5" font-family="Helvetica,sans-Serif" font-size="10.00" fill="#000000">::Input::cancelWaitForEdge</text>
</a>
</g>
</g>
<!-- Node35&#45;&gt;Node36 -->
<g id="edge6" class="edge">
<title>Node35&#45;&gt;Node36</title>
<path fill="none" stroke="#191970" d="M399.0902,-127.0881C409.3165,-126.2075 419.9539,-125.2915 430.3076,-124.4"/>
<polygon fill="#191970" stroke="#191970" points="398.6895,-123.6095 389.0267,-127.9546 399.2901,-130.5837 398.6895,-123.6095"/>
</g>
<!-- Node36&#45;&gt;Node33 -->
<g id="edge7" class="edge">
<title>Node36&#45;&gt;Node33</title>
<path fill="none" stroke="#191970" d="M565.3169,-137.4523C577.8577,-141.0269 590.8284,-144.7241 602.9197,-148.1706"/>
<polygon fill="#191970" stroke="#191970" points="565.9531,-133.9943 555.3767,-134.6189 564.0342,-140.7261 565.9531,-133.9943"/>
</g>
<!-- Node38 -->
<g id="node8" class="node">
<title>Node38</title>
<g id="a_node8"><a xlink:href="structVehicleControl_1_1IO_1_1Output_1_1Setup.html#a6346d200fcd68fb1693f1e3ae9c9d3af" target="_top" xlink:title="VehicleControl::IO\l::Output::Setup::Setup">
<polygon fill="#ffffff" stroke="#000000" points="441.358,-51.5 441.358,-83.5 556.296,-83.5 556.296,-51.5 441.358,-51.5"/>
<text text-anchor="start" x="449.358" y="-70.5" font-family="Helvetica,sans-Serif" font-size="10.00" fill="#000000">VehicleControl::IO</text>
<text text-anchor="middle" x="498.827" y="-58.5" font-family="Helvetica,sans-Serif" font-size="10.00" fill="#000000">::Output::Setup::Setup</text>
</a>
</g>
</g>
<!-- Node37&#45;&gt;Node38 -->
<g id="edge9" class="edge">
<title>Node37&#45;&gt;Node38</title>
<path fill="none" stroke="#191970" d="M403.4847,-45.803C416.0104,-48.6535 428.9949,-51.6084 441.1997,-54.3858"/>
<polygon fill="#191970" stroke="#191970" points="404.0888,-42.3511 393.5614,-43.5448 402.5355,-49.1766 404.0888,-42.3511"/>
</g>
<!-- Node39 -->
<g id="node9" class="node">
<title>Node39</title>
<g id="a_node9"><a xlink:href="classVehicleControl_1_1IO_1_1Output.html#a08adbcc38e67222f17a35847e72f6ba7" target="_top" xlink:title="toggleOutput method toggles the output every using the time arguement. ">
<polygon fill="#ffffff" stroke="#000000" points="441.638,-.5 441.638,-32.5 556.016,-32.5 556.016,-.5 441.638,-.5"/>
<text text-anchor="start" x="449.638" y="-19.5" font-family="Helvetica,sans-Serif" font-size="10.00" fill="#000000">VehicleControl::IO</text>
<text text-anchor="middle" x="498.827" y="-7.5" font-family="Helvetica,sans-Serif" font-size="10.00" fill="#000000">::Output::toggleOutput</text>
</a>
</g>
</g>
<!-- Node37&#45;&gt;Node39 -->
<g id="edge10" class="edge">
<title>Node37&#45;&gt;Node39</title>
<path fill="none" stroke="#191970" d="M403.5442,-24.7045C416.1454,-23.6195 429.2089,-22.4946 441.4742,-21.4385"/>
<polygon fill="#191970" stroke="#191970" points="403.2243,-21.219 393.5614,-25.5641 403.8249,-28.1932 403.2243,-21.219"/>
</g>
<!-- Node40&#45;&gt;Node38 -->
<g id="edge12" class="edge">
<title>Node40&#45;&gt;Node38</title>
<path fill="none" stroke="#191970" d="M404.9838,-75.5806C417.0796,-74.539 429.5551,-73.4648 441.3044,-72.4531"/>
<polygon fill="#191970" stroke="#191970" points="404.5998,-72.1006 394.937,-76.4457 405.2004,-79.0748 404.5998,-72.1006"/>
</g>
</g>
</svg>
