<?xml version="1.0" encoding="UTF-8" standalone="no"?>
<!DOCTYPE svg PUBLIC "-//W3C//DTD SVG 1.1//EN"
 "http://www.w3.org/Graphics/SVG/1.1/DTD/svg11.dtd">
<!-- Generated by graphviz version 2.40.1 (20161225.0304)
 -->
<!-- Title: VehicleControl::IO::Input::getDebounceTime Pages: 1 -->
<svg width="282pt" height="41pt"
 viewBox="0.00 0.00 282.20 41.00" xmlns="http://www.w3.org/2000/svg" xmlns:xlink="http://www.w3.org/1999/xlink">
<g id="graph0" class="graph" transform="scale(1 1) rotate(0) translate(4 37)">
<title>VehicleControl::IO::Input::getDebounceTime</title>
<polygon fill="#ffffff" stroke="transparent" points="-4,4 -4,-37 278.196,-37 278.196,4 -4,4"/>
<!-- Node19 -->
<g id="node1" class="node">
<title>Node19</title>
<polygon fill="#bfbfbf" stroke="#000000" points="0,-.5 0,-32.5 131.037,-32.5 131.037,-.5 0,-.5"/>
<text text-anchor="start" x="8" y="-19.5" font-family="Helvetica,sans-Serif" font-size="10.00" fill="#000000">VehicleControl::IO</text>
<text text-anchor="middle" x="65.5185" y="-7.5" font-family="Helvetica,sans-Serif" font-size="10.00" fill="#000000">::Input::getDebounceTime</text>
</g>
<!-- Node20 -->
<g id="node2" class="node">
<title>Node20</title>
<g id="a_node2"><a xlink:href="structVehicleControl_1_1IO_1_1Input_1_1Setup.html#a09ce07a96559b6f63eaa51d8eccbc877" target="_top" xlink:title="VehicleControl::IO\l::Input::Setup::Setup">
<polygon fill="#ffffff" stroke="#000000" points="167.037,-.5 167.037,-32.5 274.196,-32.5 274.196,-.5 167.037,-.5"/>
<text text-anchor="start" x="175.037" y="-19.5" font-family="Helvetica,sans-Serif" font-size="10.00" fill="#000000">VehicleControl::IO</text>
<text text-anchor="middle" x="220.6165" y="-7.5" font-family="Helvetica,sans-Serif" font-size="10.00" fill="#000000">::Input::Setup::Setup</text>
</a>
</g>
</g>
<!-- Node19&#45;&gt;Node20 -->
<g id="edge1" class="edge">
<title>Node19&#45;&gt;Node20</title>
<path fill="none" stroke="#191970" d="M141.3894,-16.5C150.0219,-16.5 158.6821,-16.5 166.9419,-16.5"/>
<polygon fill="#191970" stroke="#191970" points="141.294,-13.0001 131.294,-16.5 141.294,-20.0001 141.294,-13.0001"/>
</g>
</g>
</svg>
