<?xml version="1.0" encoding="UTF-8" standalone="no"?>
<!DOCTYPE svg PUBLIC "-//W3C//DTD SVG 1.1//EN"
 "http://www.w3.org/Graphics/SVG/1.1/DTD/svg11.dtd">
<!-- Generated by graphviz version 2.40.1 (20161225.0304)
 -->
<!-- Title: VehicleControl::Control::update Pages: 1 -->
<svg width="472pt" height="167pt"
 viewBox="0.00 0.00 471.93 167.00" xmlns="http://www.w3.org/2000/svg" xmlns:xlink="http://www.w3.org/1999/xlink">
<g id="graph0" class="graph" transform="scale(1 1) rotate(0) translate(4 163)">
<title>VehicleControl::Control::update</title>
<polygon fill="#ffffff" stroke="transparent" points="-4,4 -4,-163 467.932,-163 467.932,4 -4,4"/>
<!-- Node22 -->
<g id="node1" class="node">
<title>Node22</title>
<polygon fill="#bfbfbf" stroke="#000000" points="0,-69.5 0,-101.5 118.788,-101.5 118.788,-69.5 0,-69.5"/>
<text text-anchor="start" x="8" y="-88.5" font-family="Helvetica,sans-Serif" font-size="10.00" fill="#000000">VehicleControl::Control</text>
<text text-anchor="middle" x="59.394" y="-76.5" font-family="Helvetica,sans-Serif" font-size="10.00" fill="#000000">::update</text>
</g>
<!-- Node23 -->
<g id="node2" class="node">
<title>Node23</title>
<g id="a_node2"><a xlink:href="classLibBBB_1_1Bluetooth_1_1Manager.html#aba77bfc05cca940e709d9c0bb1106127" target="_top" xlink:title="isConnected getter ">
<polygon fill="#ffffff" stroke="#000000" points="175.059,-126.5 175.059,-158.5 291.641,-158.5 291.641,-126.5 175.059,-126.5"/>
<text text-anchor="start" x="183.059" y="-145.5" font-family="Helvetica,sans-Serif" font-size="10.00" fill="#000000">LibBBB::Bluetooth::</text>
<text text-anchor="middle" x="233.35" y="-133.5" font-family="Helvetica,sans-Serif" font-size="10.00" fill="#000000">Manager::isConnected</text>
</a>
</g>
</g>
<!-- Node22&#45;&gt;Node23 -->
<g id="edge1" class="edge">
<title>Node22&#45;&gt;Node23</title>
<path fill="none" stroke="#191970" d="M106.8976,-101.5971C122.1725,-106.7297 139.1801,-112.3991 154.788,-117.5 160.6807,-119.4258 166.8282,-121.4156 172.9758,-123.3926"/>
<polygon fill="#191970" stroke="#191970" points="172.0084,-126.7578 182.5995,-126.4777 174.1453,-120.092 172.0084,-126.7578"/>
</g>
<!-- Node25 -->
<g id="node4" class="node">
<title>Node25</title>
<g id="a_node4"><a xlink:href="classVehicleControl_1_1Control_1_1CommunicationProtocolParser.html#a518b7eda37805934071cbc4c3dbc4328" target="_top" xlink:title="parseIncomingPackets method gets and parses the incoming Bluetooth packets. This method calls the Blu...">
<polygon fill="#ffffff" stroke="#000000" points="154.788,-63.5 154.788,-107.5 311.912,-107.5 311.912,-63.5 154.788,-63.5"/>
<text text-anchor="start" x="162.788" y="-94.5" font-family="Helvetica,sans-Serif" font-size="10.00" fill="#000000">VehicleControl::Control</text>
<text text-anchor="start" x="162.788" y="-82.5" font-family="Helvetica,sans-Serif" font-size="10.00" fill="#000000">::CommunicationProtocolParser</text>
<text text-anchor="middle" x="233.35" y="-70.5" font-family="Helvetica,sans-Serif" font-size="10.00" fill="#000000">::parseIncomingPackets</text>
</a>
</g>
</g>
<!-- Node22&#45;&gt;Node25 -->
<g id="edge3" class="edge">
<title>Node22&#45;&gt;Node25</title>
<path fill="none" stroke="#191970" d="M119.2598,-85.5C127.4539,-85.5 136.0047,-85.5 144.5787,-85.5"/>
<polygon fill="#191970" stroke="#191970" points="144.6346,-89.0001 154.6345,-85.5 144.6345,-82.0001 144.6346,-89.0001"/>
</g>
<!-- Node27 -->
<g id="node6" class="node">
<title>Node27</title>
<g id="a_node6"><a xlink:href="classVehicleControl_1_1Control_1_1CommunicationProtocolParser.html#abdbab1c6376e364c7064e5c5b04f0168" target="_top" xlink:title="sendOutgoingPackets packs and send outgoing data. This method takes care of packing bools into a sing...">
<polygon fill="#ffffff" stroke="#000000" points="154.788,-.5 154.788,-44.5 311.912,-44.5 311.912,-.5 154.788,-.5"/>
<text text-anchor="start" x="162.788" y="-31.5" font-family="Helvetica,sans-Serif" font-size="10.00" fill="#000000">VehicleControl::Control</text>
<text text-anchor="start" x="162.788" y="-19.5" font-family="Helvetica,sans-Serif" font-size="10.00" fill="#000000">::CommunicationProtocolParser</text>
<text text-anchor="middle" x="233.35" y="-7.5" font-family="Helvetica,sans-Serif" font-size="10.00" fill="#000000">::sendOutgoingPackets</text>
</a>
</g>
</g>
<!-- Node22&#45;&gt;Node27 -->
<g id="edge5" class="edge">
<title>Node22&#45;&gt;Node27</title>
<path fill="none" stroke="#191970" d="M103.7405,-69.4394C121.6473,-62.9543 142.7569,-55.3092 162.6821,-48.0931"/>
<polygon fill="#191970" stroke="#191970" points="164.1387,-51.2881 172.3492,-44.5921 161.755,-44.7065 164.1387,-51.2881"/>
</g>
<!-- Node24 -->
<g id="node3" class="node">
<title>Node24</title>
<g id="a_node3"><a xlink:href="classLibBBB_1_1ThreadHelper.html#a068eff4b68a89c09c63d8780621b431a" target="_top" xlink:title="startJoinableThread ">
<polygon fill="#ffffff" stroke="#000000" points="347.912,-126.5 347.912,-158.5 463.932,-158.5 463.932,-126.5 347.912,-126.5"/>
<text text-anchor="start" x="355.912" y="-145.5" font-family="Helvetica,sans-Serif" font-size="10.00" fill="#000000">LibBBB::ThreadHelper</text>
<text text-anchor="middle" x="405.922" y="-133.5" font-family="Helvetica,sans-Serif" font-size="10.00" fill="#000000">::startJoinableThread</text>
</a>
</g>
</g>
<!-- Node23&#45;&gt;Node24 -->
<g id="edge2" class="edge">
<title>Node23&#45;&gt;Node24</title>
<path fill="none" stroke="#191970" d="M291.775,-142.5C306.4729,-142.5 322.379,-142.5 337.5171,-142.5"/>
<polygon fill="#191970" stroke="#191970" points="337.8503,-146.0001 347.8503,-142.5 337.8502,-139.0001 337.8503,-146.0001"/>
</g>
<!-- Node26 -->
<g id="node5" class="node">
<title>Node26</title>
<g id="a_node5"><a xlink:href="classLibBBB_1_1Bluetooth_1_1Manager.html#ae579e5664c1fa9a5cb4ed5e067f80e33" target="_top" xlink:title="receiveData method that receives the data ">
<polygon fill="#ffffff" stroke="#000000" points="348.746,-69.5 348.746,-101.5 463.098,-101.5 463.098,-69.5 348.746,-69.5"/>
<text text-anchor="start" x="356.746" y="-88.5" font-family="Helvetica,sans-Serif" font-size="10.00" fill="#000000">LibBBB::Bluetooth::</text>
<text text-anchor="middle" x="405.922" y="-76.5" font-family="Helvetica,sans-Serif" font-size="10.00" fill="#000000">Manager::receiveData</text>
</a>
</g>
</g>
<!-- Node25&#45;&gt;Node26 -->
<g id="edge4" class="edge">
<title>Node25&#45;&gt;Node26</title>
<path fill="none" stroke="#191970" d="M312.0609,-85.5C320.9421,-85.5 329.9311,-85.5 338.6477,-85.5"/>
<polygon fill="#191970" stroke="#191970" points="338.7324,-89.0001 348.7324,-85.5 338.7323,-82.0001 338.7324,-89.0001"/>
</g>
<!-- Node28 -->
<g id="node7" class="node">
<title>Node28</title>
<g id="a_node7"><a xlink:href="classLibBBB_1_1Bluetooth_1_1Manager.html#a2f93bbcf746ab55eaf46ad12451e24fa" target="_top" xlink:title="sendData method that sends the data over the Bluetooth connection ">
<polygon fill="#ffffff" stroke="#000000" points="354.02,-6.5 354.02,-38.5 457.824,-38.5 457.824,-6.5 354.02,-6.5"/>
<text text-anchor="start" x="362.02" y="-25.5" font-family="Helvetica,sans-Serif" font-size="10.00" fill="#000000">LibBBB::Bluetooth::</text>
<text text-anchor="middle" x="405.922" y="-13.5" font-family="Helvetica,sans-Serif" font-size="10.00" fill="#000000">Manager::sendData</text>
</a>
</g>
</g>
<!-- Node27&#45;&gt;Node28 -->
<g id="edge6" class="edge">
<title>Node27&#45;&gt;Node28</title>
<path fill="none" stroke="#191970" d="M312.0609,-22.5C322.7283,-22.5 333.5513,-22.5 343.871,-22.5"/>
<polygon fill="#191970" stroke="#191970" points="343.9985,-26.0001 353.9985,-22.5 343.9984,-19.0001 343.9985,-26.0001"/>
</g>
</g>
</svg>
