<?xml version="1.0" encoding="UTF-8" standalone="no"?>
<!DOCTYPE svg PUBLIC "-//W3C//DTD SVG 1.1//EN"
 "http://www.w3.org/Graphics/SVG/1.1/DTD/svg11.dtd">
<!-- Generated by graphviz version 2.40.1 (20161225.0304)
 -->
<!-- Title: VehicleControl::IO::Input Pages: 1 -->
<svg width="105pt" height="110pt"
 viewBox="0.00 0.00 105.12 110.00" xmlns="http://www.w3.org/2000/svg" xmlns:xlink="http://www.w3.org/1999/xlink">
<g id="graph0" class="graph" transform="scale(1 1) rotate(0) translate(4 106)">
<title>VehicleControl::IO::Input</title>
<polygon fill="#ffffff" stroke="transparent" points="-4,4 -4,-106 101.123,-106 101.123,4 -4,4"/>
<!-- Node2 -->
<g id="node1" class="node">
<title>Node2</title>
<polygon fill="#bfbfbf" stroke="#000000" points="0,-.5 0,-32.5 97.123,-32.5 97.123,-.5 0,-.5"/>
<text text-anchor="start" x="8" y="-19.5" font-family="Helvetica,sans-Serif" font-size="10.00" fill="#000000">VehicleControl::IO</text>
<text text-anchor="middle" x="48.5615" y="-7.5" font-family="Helvetica,sans-Serif" font-size="10.00" fill="#000000">::Input</text>
</g>
<!-- Node3 -->
<g id="node2" class="node">
<title>Node3</title>
<g id="a_node2"><a xlink:href="classVehicleControl_1_1IO_1_1IOBase.html" target="_top" xlink:title="The IOBase class is the base class for all GPIO. This class contains all of the methods to call into ...">
<polygon fill="#ffffff" stroke="#000000" points="0,-69.5 0,-101.5 97.123,-101.5 97.123,-69.5 0,-69.5"/>
<text text-anchor="start" x="8" y="-88.5" font-family="Helvetica,sans-Serif" font-size="10.00" fill="#000000">VehicleControl::IO</text>
<text text-anchor="middle" x="48.5615" y="-76.5" font-family="Helvetica,sans-Serif" font-size="10.00" fill="#000000">::IOBase</text>
</a>
</g>
</g>
<!-- Node3&#45;&gt;Node2 -->
<g id="edge1" class="edge">
<title>Node3&#45;&gt;Node2</title>
<path fill="none" stroke="#191970" d="M48.5615,-59.2468C48.5615,-50.3917 48.5615,-40.7667 48.5615,-32.8958"/>
<polygon fill="#191970" stroke="#191970" points="45.0616,-59.4965 48.5615,-69.4966 52.0616,-59.4966 45.0616,-59.4965"/>
</g>
</g>
</svg>
