<?xml version="1.0" encoding="UTF-8" standalone="no"?>
<!DOCTYPE svg PUBLIC "-//W3C//DTD SVG 1.1//EN"
 "http://www.w3.org/Graphics/SVG/1.1/DTD/svg11.dtd">
<!-- Generated by graphviz version 2.40.1 (20161225.0304)
 -->
<!-- Title: Core::IO::UserLED::setState Pages: 1 -->
<svg width="294pt" height="92pt"
 viewBox="0.00 0.00 294.37 92.00" xmlns="http://www.w3.org/2000/svg" xmlns:xlink="http://www.w3.org/1999/xlink">
<g id="graph0" class="graph" transform="scale(1 1) rotate(0) translate(4 88)">
<title>Core::IO::UserLED::setState</title>
<polygon fill="#ffffff" stroke="transparent" points="-4,4 -4,-88 290.367,-88 290.367,4 -4,4"/>
<!-- Node13 -->
<g id="node1" class="node">
<title>Node13</title>
<polygon fill="#bfbfbf" stroke="#000000" points="0,-25.5 0,-57.5 105.452,-57.5 105.452,-25.5 0,-25.5"/>
<text text-anchor="start" x="8" y="-44.5" font-family="Helvetica,sans-Serif" font-size="10.00" fill="#000000">Core::IO::UserLED::</text>
<text text-anchor="middle" x="52.726" y="-32.5" font-family="Helvetica,sans-Serif" font-size="10.00" fill="#000000">setState</text>
</g>
<!-- Node14 -->
<g id="node2" class="node">
<title>Node14</title>
<g id="a_node2"><a xlink:href="classCore_1_1IO_1_1UserLED.html#a5d7887f070c9ce082f8be1d3aae448d2" target="_top" xlink:title="state getter ">
<polygon fill="#ffffff" stroke="#000000" points="161.1835,-51.5 161.1835,-83.5 266.6355,-83.5 266.6355,-51.5 161.1835,-51.5"/>
<text text-anchor="start" x="169.1835" y="-70.5" font-family="Helvetica,sans-Serif" font-size="10.00" fill="#000000">Core::IO::UserLED::</text>
<text text-anchor="middle" x="213.9095" y="-58.5" font-family="Helvetica,sans-Serif" font-size="10.00" fill="#000000">state</text>
</a>
</g>
</g>
<!-- Node13&#45;&gt;Node14 -->
<g id="edge1" class="edge">
<title>Node13&#45;&gt;Node14</title>
<path fill="none" stroke="#191970" d="M105.5035,-50.0134C119.9754,-52.3478 135.8112,-54.9022 150.7995,-57.3199"/>
<polygon fill="#191970" stroke="#191970" points="150.5836,-60.8303 161.0134,-58.9675 151.6984,-53.9196 150.5836,-60.8303"/>
</g>
<!-- Node15 -->
<g id="node3" class="node">
<title>Node15</title>
<g id="a_node3"><a xlink:href="classThreadHelper.html#a4426e115e7858a4b6f6eedbc77302756" target="_top" xlink:title="startDetachedThread ">
<polygon fill="#ffffff" stroke="#000000" points="141.452,-.5 141.452,-32.5 286.367,-32.5 286.367,-.5 141.452,-.5"/>
<text text-anchor="start" x="149.452" y="-19.5" font-family="Helvetica,sans-Serif" font-size="10.00" fill="#000000">ThreadHelper::startDetached</text>
<text text-anchor="middle" x="213.9095" y="-7.5" font-family="Helvetica,sans-Serif" font-size="10.00" fill="#000000">Thread</text>
</a>
</g>
</g>
<!-- Node13&#45;&gt;Node15 -->
<g id="edge2" class="edge">
<title>Node13&#45;&gt;Node15</title>
<path fill="none" stroke="#191970" d="M105.5035,-33.3141C113.8419,-32.0208 122.6331,-30.6572 131.4541,-29.2891"/>
<polygon fill="#191970" stroke="#191970" points="132.0581,-32.7373 141.4034,-27.7459 130.9851,-25.82 132.0581,-32.7373"/>
</g>
</g>
</svg>
