<?xml version="1.0" encoding="UTF-8" standalone="no"?>
<!DOCTYPE svg PUBLIC "-//W3C//DTD SVG 1.1//EN"
 "http://www.w3.org/Graphics/SVG/1.1/DTD/svg11.dtd">
<!-- Generated by graphviz version 2.40.1 (20161225.0304)
 -->
<!-- Title: VehicleControl::Bluetooth::Base::startWriteThread Pages: 1 -->
<svg width="318pt" height="92pt"
 viewBox="0.00 0.00 317.72 92.00" xmlns="http://www.w3.org/2000/svg" xmlns:xlink="http://www.w3.org/1999/xlink">
<g id="graph0" class="graph" transform="scale(1 1) rotate(0) translate(4 88)">
<title>VehicleControl::Bluetooth::Base::startWriteThread</title>
<polygon fill="#ffffff" stroke="transparent" points="-4,4 -4,-88 313.721,-88 313.721,4 -4,4"/>
<!-- Node40 -->
<g id="node1" class="node">
<title>Node40</title>
<polygon fill="#bfbfbf" stroke="#000000" points="0,-25.5 0,-57.5 128.806,-57.5 128.806,-25.5 0,-25.5"/>
<text text-anchor="start" x="8" y="-44.5" font-family="Helvetica,sans-Serif" font-size="10.00" fill="#000000">VehicleControl::Bluetooth</text>
<text text-anchor="middle" x="64.403" y="-32.5" font-family="Helvetica,sans-Serif" font-size="10.00" fill="#000000">::Base::startWriteThread</text>
</g>
<!-- Node41 -->
<g id="node2" class="node">
<title>Node41</title>
<g id="a_node2"><a xlink:href="classThreadHelper.html#a4426e115e7858a4b6f6eedbc77302756" target="_top" xlink:title="startDetachedThread ">
<polygon fill="#ffffff" stroke="#000000" points="164.806,-51.5 164.806,-83.5 309.721,-83.5 309.721,-51.5 164.806,-51.5"/>
<text text-anchor="start" x="172.806" y="-70.5" font-family="Helvetica,sans-Serif" font-size="10.00" fill="#000000">ThreadHelper::startDetached</text>
<text text-anchor="middle" x="237.2635" y="-58.5" font-family="Helvetica,sans-Serif" font-size="10.00" fill="#000000">Thread</text>
</a>
</g>
</g>
<!-- Node40&#45;&gt;Node41 -->
<g id="edge1" class="edge">
<title>Node40&#45;&gt;Node41</title>
<path fill="none" stroke="#191970" d="M129.2617,-51.2554C137.5933,-52.5086 146.2107,-53.8047 154.7763,-55.0931"/>
<polygon fill="#191970" stroke="#191970" points="154.3782,-58.5725 164.7876,-56.5989 155.4194,-51.6503 154.3782,-58.5725"/>
</g>
<!-- Node42 -->
<g id="node3" class="node">
<title>Node42</title>
<g id="a_node3"><a xlink:href="classVehicleControl_1_1Bluetooth_1_1Base.html#a8630ce75edbbb0e64227ffc5e3249c62" target="_top" xlink:title="writeMessage ">
<polygon fill="#ffffff" stroke="#000000" points="172.8605,-.5 172.8605,-32.5 301.6665,-32.5 301.6665,-.5 172.8605,-.5"/>
<text text-anchor="start" x="180.8605" y="-19.5" font-family="Helvetica,sans-Serif" font-size="10.00" fill="#000000">VehicleControl::Bluetooth</text>
<text text-anchor="middle" x="237.2635" y="-7.5" font-family="Helvetica,sans-Serif" font-size="10.00" fill="#000000">::Base::writeMessage</text>
</a>
</g>
</g>
<!-- Node40&#45;&gt;Node42 -->
<g id="edge2" class="edge">
<title>Node40&#45;&gt;Node42</title>
<path fill="none" stroke="#191970" d="M129.2617,-32.1198C140.1171,-30.5498 151.4575,-28.9097 162.5365,-27.3074"/>
<polygon fill="#191970" stroke="#191970" points="163.2202,-30.745 172.6162,-25.8496 162.2182,-23.8171 163.2202,-30.745"/>
</g>
</g>
</svg>
