<?xml version="1.0" encoding="UTF-8" standalone="no"?>
<!DOCTYPE svg PUBLIC "-//W3C//DTD SVG 1.1//EN"
 "http://www.w3.org/Graphics/SVG/1.1/DTD/svg11.dtd">
<!-- Generated by graphviz version 2.40.1 (20161225.0304)
 -->
<!-- Title: VehicleControl::Bluetooth::Base::startBothThreads Pages: 1 -->
<svg width="654pt" height="143pt"
 viewBox="0.00 0.00 654.02 143.00" xmlns="http://www.w3.org/2000/svg" xmlns:xlink="http://www.w3.org/1999/xlink">
<g id="graph0" class="graph" transform="scale(1 1) rotate(0) translate(4 139)">
<title>VehicleControl::Bluetooth::Base::startBothThreads</title>
<polygon fill="#ffffff" stroke="transparent" points="-4,4 -4,-139 650.024,-139 650.024,4 -4,4"/>
<!-- Node22 -->
<g id="node1" class="node">
<title>Node22</title>
<polygon fill="#bfbfbf" stroke="#000000" points="0,-50.5 0,-82.5 128.806,-82.5 128.806,-50.5 0,-50.5"/>
<text text-anchor="start" x="8" y="-69.5" font-family="Helvetica,sans-Serif" font-size="10.00" fill="#000000">VehicleControl::Bluetooth</text>
<text text-anchor="middle" x="64.403" y="-57.5" font-family="Helvetica,sans-Serif" font-size="10.00" fill="#000000">::Base::startBothThreads</text>
</g>
<!-- Node23 -->
<g id="node2" class="node">
<title>Node23</title>
<g id="a_node2"><a xlink:href="classVehicleControl_1_1Bluetooth_1_1Base.html#a0d454a071fb0e38cf668cb82d5f93a3c" target="_top" xlink:title="startReadThread ">
<polygon fill="#ffffff" stroke="#000000" points="164.806,-76.5 164.806,-108.5 293.612,-108.5 293.612,-76.5 164.806,-76.5"/>
<text text-anchor="start" x="172.806" y="-95.5" font-family="Helvetica,sans-Serif" font-size="10.00" fill="#000000">VehicleControl::Bluetooth</text>
<text text-anchor="middle" x="229.209" y="-83.5" font-family="Helvetica,sans-Serif" font-size="10.00" fill="#000000">::Base::startReadThread</text>
</a>
</g>
</g>
<!-- Node22&#45;&gt;Node23 -->
<g id="edge1" class="edge">
<title>Node22&#45;&gt;Node23</title>
<path fill="none" stroke="#191970" d="M129.0657,-76.7013C137.4917,-78.0306 146.1776,-79.4009 154.7478,-80.7529"/>
<polygon fill="#191970" stroke="#191970" points="154.3095,-84.227 164.7328,-82.3282 155.4004,-77.3125 154.3095,-84.227"/>
</g>
<!-- Node27 -->
<g id="node6" class="node">
<title>Node27</title>
<g id="a_node6"><a xlink:href="classVehicleControl_1_1Bluetooth_1_1Base.html#a73cb44dceb3bf46a3fb2acce2091be2a" target="_top" xlink:title="startWriteThread ">
<polygon fill="#ffffff" stroke="#000000" points="164.806,-25.5 164.806,-57.5 293.612,-57.5 293.612,-25.5 164.806,-25.5"/>
<text text-anchor="start" x="172.806" y="-44.5" font-family="Helvetica,sans-Serif" font-size="10.00" fill="#000000">VehicleControl::Bluetooth</text>
<text text-anchor="middle" x="229.209" y="-32.5" font-family="Helvetica,sans-Serif" font-size="10.00" fill="#000000">::Base::startWriteThread</text>
</a>
</g>
</g>
<!-- Node22&#45;&gt;Node27 -->
<g id="edge5" class="edge">
<title>Node22&#45;&gt;Node27</title>
<path fill="none" stroke="#191970" d="M129.0657,-56.6911C137.4917,-55.4129 146.1776,-54.0953 154.7478,-52.7953"/>
<polygon fill="#191970" stroke="#191970" points="155.3708,-56.2409 164.7328,-51.2806 154.3209,-49.3201 155.3708,-56.2409"/>
</g>
<!-- Node24 -->
<g id="node3" class="node">
<title>Node24</title>
<g id="a_node3"><a xlink:href="classCore_1_1ThreadHelper.html#a138066760eabf36c1681bbd177db0446" target="_top" xlink:title="startDetachedThread ">
<polygon fill="#ffffff" stroke="#000000" points="336.2795,-51.5 336.2795,-83.5 451.7505,-83.5 451.7505,-51.5 336.2795,-51.5"/>
<text text-anchor="start" x="344.2795" y="-70.5" font-family="Helvetica,sans-Serif" font-size="10.00" fill="#000000">Core::ThreadHelper</text>
<text text-anchor="middle" x="394.015" y="-58.5" font-family="Helvetica,sans-Serif" font-size="10.00" fill="#000000">::startDetachedThread</text>
</a>
</g>
</g>
<!-- Node23&#45;&gt;Node24 -->
<g id="edge2" class="edge">
<title>Node23&#45;&gt;Node24</title>
<path fill="none" stroke="#191970" d="M293.8717,-82.6911C304.4641,-81.0843 315.4671,-79.4152 326.1348,-77.797"/>
<polygon fill="#191970" stroke="#191970" points="326.8736,-81.225 336.2355,-76.2648 325.8236,-74.3042 326.8736,-81.225"/>
</g>
<!-- Node25 -->
<g id="node4" class="node">
<title>Node25</title>
<g id="a_node4"><a xlink:href="classVehicleControl_1_1Bluetooth_1_1Base.html#aa84d403a6275189ad0f96afb8dd57e31" target="_top" xlink:title="readMessage ">
<polygon fill="#ffffff" stroke="#000000" points="329.612,-102.5 329.612,-134.5 458.418,-134.5 458.418,-102.5 329.612,-102.5"/>
<text text-anchor="start" x="337.612" y="-121.5" font-family="Helvetica,sans-Serif" font-size="10.00" fill="#000000">VehicleControl::Bluetooth</text>
<text text-anchor="middle" x="394.015" y="-109.5" font-family="Helvetica,sans-Serif" font-size="10.00" fill="#000000">::Base::readMessage</text>
</a>
</g>
</g>
<!-- Node23&#45;&gt;Node25 -->
<g id="edge3" class="edge">
<title>Node23&#45;&gt;Node25</title>
<path fill="none" stroke="#191970" d="M293.8717,-102.7013C302.2977,-104.0306 310.9836,-105.4009 319.5538,-106.7529"/>
<polygon fill="#191970" stroke="#191970" points="319.1155,-110.227 329.5388,-108.3282 320.2064,-103.3125 319.1155,-110.227"/>
</g>
<!-- Node26 -->
<g id="node5" class="node">
<title>Node26</title>
<g id="a_node5"><a xlink:href="classVehicleControl_1_1Bluetooth_1_1Base.html#ab395ffe7b3b7a1a76007224588969bd2" target="_top" xlink:title="handleConnectionLoss ">
<polygon fill="#ffffff" stroke="#000000" points="494.418,-102.5 494.418,-134.5 646.024,-134.5 646.024,-102.5 494.418,-102.5"/>
<text text-anchor="start" x="502.418" y="-121.5" font-family="Helvetica,sans-Serif" font-size="10.00" fill="#000000">VehicleControl::Bluetooth</text>
<text text-anchor="middle" x="570.221" y="-109.5" font-family="Helvetica,sans-Serif" font-size="10.00" fill="#000000">::Base::handleConnectionLoss</text>
</a>
</g>
</g>
<!-- Node25&#45;&gt;Node26 -->
<g id="edge4" class="edge">
<title>Node25&#45;&gt;Node26</title>
<path fill="none" stroke="#191970" d="M458.6271,-118.5C466.9574,-118.5 475.5901,-118.5 484.1962,-118.5"/>
<polygon fill="#191970" stroke="#191970" points="484.2673,-122.0001 494.2673,-118.5 484.2672,-115.0001 484.2673,-122.0001"/>
</g>
<!-- Node27&#45;&gt;Node24 -->
<g id="edge6" class="edge">
<title>Node27&#45;&gt;Node24</title>
<path fill="none" stroke="#191970" d="M293.8717,-51.7013C304.4641,-53.3723 315.4671,-55.1082 326.1348,-56.7911"/>
<polygon fill="#191970" stroke="#191970" points="325.8122,-60.2835 336.2355,-58.3846 326.9031,-53.369 325.8122,-60.2835"/>
</g>
<!-- Node28 -->
<g id="node7" class="node">
<title>Node28</title>
<g id="a_node7"><a xlink:href="classVehicleControl_1_1Bluetooth_1_1Base.html#a8630ce75edbbb0e64227ffc5e3249c62" target="_top" xlink:title="writeMessage ">
<polygon fill="#ffffff" stroke="#000000" points="329.612,-.5 329.612,-32.5 458.418,-32.5 458.418,-.5 329.612,-.5"/>
<text text-anchor="start" x="337.612" y="-19.5" font-family="Helvetica,sans-Serif" font-size="10.00" fill="#000000">VehicleControl::Bluetooth</text>
<text text-anchor="middle" x="394.015" y="-7.5" font-family="Helvetica,sans-Serif" font-size="10.00" fill="#000000">::Base::writeMessage</text>
</a>
</g>
</g>
<!-- Node27&#45;&gt;Node28 -->
<g id="edge7" class="edge">
<title>Node27&#45;&gt;Node28</title>
<path fill="none" stroke="#191970" d="M293.8717,-31.6911C302.2977,-30.4129 310.9836,-29.0953 319.5538,-27.7953"/>
<polygon fill="#191970" stroke="#191970" points="320.1768,-31.2409 329.5388,-26.2806 319.1269,-24.3201 320.1768,-31.2409"/>
</g>
</g>
</svg>
