<?xml version="1.0" encoding="UTF-8" standalone="no"?>
<!DOCTYPE svg PUBLIC "-//W3C//DTD SVG 1.1//EN"
 "http://www.w3.org/Graphics/SVG/1.1/DTD/svg11.dtd">
<!-- Generated by graphviz version 2.40.1 (20161225.0304)
 -->
<!-- Title: VehicleControl::IO::UserLED::setState Pages: 1 -->
<svg width="626pt" height="182pt"
 viewBox="0.00 0.00 625.61 182.00" xmlns="http://www.w3.org/2000/svg" xmlns:xlink="http://www.w3.org/1999/xlink">
<g id="graph0" class="graph" transform="scale(1 1) rotate(0) translate(4 178)">
<title>VehicleControl::IO::UserLED::setState</title>
<polygon fill="#ffffff" stroke="transparent" points="-4,4 -4,-178 621.613,-178 621.613,4 -4,4"/>
<!-- Node16 -->
<g id="node1" class="node">
<title>Node16</title>
<polygon fill="#bfbfbf" stroke="#000000" points="0,-96.5 0,-128.5 104.353,-128.5 104.353,-96.5 0,-96.5"/>
<text text-anchor="start" x="8" y="-115.5" font-family="Helvetica,sans-Serif" font-size="10.00" fill="#000000">VehicleControl::IO</text>
<text text-anchor="middle" x="52.1765" y="-103.5" font-family="Helvetica,sans-Serif" font-size="10.00" fill="#000000">::UserLED::setState</text>
</g>
<!-- Node17 -->
<g id="node2" class="node">
<title>Node17</title>
<g id="a_node2"><a xlink:href="structVehicleControl_1_1IO_1_1UserLED_1_1Setup.html#a0f7dc4714f6c82868c4d3bad8baaf4c6" target="_top" xlink:title="VehicleControl::IO\l::UserLED::Setup::Setup">
<polygon fill="#ffffff" stroke="#000000" points="329.0235,-141.5 329.0235,-173.5 454.5015,-173.5 454.5015,-141.5 329.0235,-141.5"/>
<text text-anchor="start" x="337.0235" y="-160.5" font-family="Helvetica,sans-Serif" font-size="10.00" fill="#000000">VehicleControl::IO</text>
<text text-anchor="middle" x="391.7625" y="-148.5" font-family="Helvetica,sans-Serif" font-size="10.00" fill="#000000">::UserLED::Setup::Setup</text>
</a>
</g>
</g>
<!-- Node16&#45;&gt;Node17 -->
<g id="edge1" class="edge">
<title>Node16&#45;&gt;Node17</title>
<path fill="none" stroke="#191970" d="M109.4235,-131.2792C119.6345,-134.0827 130.2406,-136.6485 140.353,-138.5 203.8609,-150.1276 277.6473,-154.6638 328.7849,-156.4201"/>
<polygon fill="#191970" stroke="#191970" points="110.3597,-127.9067 99.7835,-128.534 108.4425,-134.6391 110.3597,-127.9067"/>
</g>
<!-- Node18 -->
<g id="node3" class="node">
<title>Node18</title>
<g id="a_node3"><a xlink:href="namespaceVehicleControl.html#af89cecf99aa4e7787af7433d8f3b6970" target="_top" xlink:title="VehicleControl::callback">
<polygon fill="#ffffff" stroke="#000000" points="151.1865,-57.5 151.1865,-77.5 273.8665,-77.5 273.8665,-57.5 151.1865,-57.5"/>
<text text-anchor="middle" x="212.5265" y="-64.5" font-family="Helvetica,sans-Serif" font-size="10.00" fill="#000000">VehicleControl::callback</text>
</a>
</g>
</g>
<!-- Node16&#45;&gt;Node18 -->
<g id="edge2" class="edge">
<title>Node16&#45;&gt;Node18</title>
<path fill="none" stroke="#191970" d="M114.203,-94.864C122.9798,-92.3831 131.8928,-89.8715 140.353,-87.5 151.9964,-84.2362 164.7051,-80.7043 176.1685,-77.5298"/>
<polygon fill="#191970" stroke="#191970" points="113.0521,-91.5522 104.383,-97.6429 114.9582,-98.2877 113.0521,-91.5522"/>
</g>
<!-- Node23 -->
<g id="node8" class="node">
<title>Node23</title>
<g id="a_node8"><a xlink:href="classVehicleControl_1_1IO_1_1UserLED.html#a899d101eb5e8129e5f3f6c13dce1afb6" target="_top" xlink:title="changeBlinkTime method changes the time of the blink ">
<polygon fill="#ffffff" stroke="#000000" points="140.353,-96.5 140.353,-128.5 284.7,-128.5 284.7,-96.5 140.353,-96.5"/>
<text text-anchor="start" x="148.353" y="-115.5" font-family="Helvetica,sans-Serif" font-size="10.00" fill="#000000">VehicleControl::IO</text>
<text text-anchor="middle" x="212.5265" y="-103.5" font-family="Helvetica,sans-Serif" font-size="10.00" fill="#000000">::UserLED::changeBlinkTime</text>
</a>
</g>
</g>
<!-- Node16&#45;&gt;Node23 -->
<g id="edge8" class="edge">
<title>Node16&#45;&gt;Node23</title>
<path fill="none" stroke="#191970" d="M114.6873,-112.5C123.0208,-112.5 131.6222,-112.5 140.1067,-112.5"/>
<polygon fill="#191970" stroke="#191970" points="114.6811,-109.0001 104.6811,-112.5 114.6811,-116.0001 114.6811,-109.0001"/>
</g>
<!-- Node19 -->
<g id="node4" class="node">
<title>Node19</title>
<g id="a_node4"><a xlink:href="structVehicleControl_1_1IO_1_1Input_1_1Setup.html#a09ce07a96559b6f63eaa51d8eccbc877" target="_top" xlink:title="VehicleControl::IO\l::Input::Setup::Setup">
<polygon fill="#ffffff" stroke="#000000" points="504.6395,-73.5 504.6395,-105.5 611.7985,-105.5 611.7985,-73.5 504.6395,-73.5"/>
<text text-anchor="start" x="512.6395" y="-92.5" font-family="Helvetica,sans-Serif" font-size="10.00" fill="#000000">VehicleControl::IO</text>
<text text-anchor="middle" x="558.219" y="-80.5" font-family="Helvetica,sans-Serif" font-size="10.00" fill="#000000">::Input::Setup::Setup</text>
</a>
</g>
</g>
<!-- Node18&#45;&gt;Node19 -->
<g id="edge3" class="edge">
<title>Node18&#45;&gt;Node19</title>
<path fill="none" stroke="#191970" d="M255.2115,-80.2177C274.9454,-85.4594 298.8129,-90.9066 320.7,-93.5 383.4279,-100.9326 399.6722,-94.8235 462.825,-93.5 476.3315,-93.217 490.9066,-92.7087 504.501,-92.1474"/>
<polygon fill="#191970" stroke="#191970" points="255.87,-76.7695 245.3012,-77.5116 254.0261,-83.5222 255.87,-76.7695"/>
</g>
<!-- Node20 -->
<g id="node5" class="node">
<title>Node20</title>
<g id="a_node5"><a xlink:href="classVehicleControl_1_1IO_1_1Input.html#aa963e2cb77f82fb52ce77187494e54ea" target="_top" xlink:title="setEdgeCallback setter ">
<polygon fill="#ffffff" stroke="#000000" points="329.578,-51.5 329.578,-83.5 453.947,-83.5 453.947,-51.5 329.578,-51.5"/>
<text text-anchor="start" x="337.578" y="-70.5" font-family="Helvetica,sans-Serif" font-size="10.00" fill="#000000">VehicleControl::IO</text>
<text text-anchor="middle" x="391.7625" y="-58.5" font-family="Helvetica,sans-Serif" font-size="10.00" fill="#000000">::Input::setEdgeCallback</text>
</a>
</g>
</g>
<!-- Node18&#45;&gt;Node20 -->
<g id="edge4" class="edge">
<title>Node18&#45;&gt;Node20</title>
<path fill="none" stroke="#191970" d="M284.2032,-67.5C299.1936,-67.5 314.8823,-67.5 329.4975,-67.5"/>
<polygon fill="#191970" stroke="#191970" points="283.9586,-64.0001 273.9586,-67.5 283.9586,-71.0001 283.9586,-64.0001"/>
</g>
<!-- Node21 -->
<g id="node6" class="node">
<title>Node21</title>
<g id="a_node6"><a xlink:href="namespaceVehicleControl.html#a5756c96006fcbf65cf488b7e2297a73a" target="_top" xlink:title="VehicleControl::createRising\lEdgeThreadedInput">
<polygon fill="#ffffff" stroke="#000000" points="320.7,-.5 320.7,-32.5 462.825,-32.5 462.825,-.5 320.7,-.5"/>
<text text-anchor="start" x="328.7" y="-19.5" font-family="Helvetica,sans-Serif" font-size="10.00" fill="#000000">VehicleControl::createRising</text>
<text text-anchor="middle" x="391.7625" y="-7.5" font-family="Helvetica,sans-Serif" font-size="10.00" fill="#000000">EdgeThreadedInput</text>
</a>
</g>
</g>
<!-- Node18&#45;&gt;Node21 -->
<g id="edge6" class="edge">
<title>Node18&#45;&gt;Node21</title>
<path fill="none" stroke="#191970" d="M257.664,-54.6565C281.2069,-47.9576 310.2367,-39.6974 335.2587,-32.5777"/>
<polygon fill="#191970" stroke="#191970" points="256.5981,-51.3208 247.9378,-57.424 258.5139,-58.0536 256.5981,-51.3208"/>
</g>
<!-- Node20&#45;&gt;Node19 -->
<g id="edge5" class="edge">
<title>Node20&#45;&gt;Node19</title>
<path fill="none" stroke="#191970" d="M464.4015,-77.1004C477.8444,-78.8772 491.662,-80.7034 504.4205,-82.3896"/>
<polygon fill="#191970" stroke="#191970" points="464.5908,-73.5951 454.2183,-75.7546 463.6735,-80.5348 464.5908,-73.5951"/>
</g>
<!-- Node22 -->
<g id="node7" class="node">
<title>Node22</title>
<g id="a_node7"><a xlink:href="classVehicleControl_1_1Control_1_1IOFactory.html#a4d4de0203bf577352199f49c67f49d98" target="_top" xlink:title="fillInputList method fills in all of the app&#39;s inputs ">
<polygon fill="#ffffff" stroke="#000000" points="498.825,-.5 498.825,-32.5 617.613,-32.5 617.613,-.5 498.825,-.5"/>
<text text-anchor="start" x="506.825" y="-19.5" font-family="Helvetica,sans-Serif" font-size="10.00" fill="#000000">VehicleControl::Control</text>
<text text-anchor="middle" x="558.219" y="-7.5" font-family="Helvetica,sans-Serif" font-size="10.00" fill="#000000">::IOFactory::fillInputList</text>
</a>
</g>
</g>
<!-- Node21&#45;&gt;Node22 -->
<g id="edge7" class="edge">
<title>Node21&#45;&gt;Node22</title>
<path fill="none" stroke="#191970" d="M472.9614,-16.5C481.6158,-16.5 490.2994,-16.5 498.6377,-16.5"/>
<polygon fill="#191970" stroke="#191970" points="472.8379,-13.0001 462.8379,-16.5 472.8378,-20.0001 472.8379,-13.0001"/>
</g>
<!-- Node23&#45;&gt;Node17 -->
<g id="edge9" class="edge">
<title>Node23&#45;&gt;Node17</title>
<path fill="none" stroke="#191970" d="M286.5645,-131.0884C300.575,-134.6059 315.1096,-138.2551 328.7414,-141.6776"/>
<polygon fill="#191970" stroke="#191970" points="287.027,-127.596 276.4757,-128.5555 285.3224,-134.3853 287.027,-127.596"/>
</g>
</g>
</svg>
