<?xml version="1.0" encoding="UTF-8" standalone="no"?>
<!DOCTYPE svg PUBLIC "-//W3C//DTD SVG 1.1//EN"
 "http://www.w3.org/Graphics/SVG/1.1/DTD/svg11.dtd">
<!-- Generated by graphviz version 2.40.1 (20161225.0304)
 -->
<!-- Title: VehicleControl::IO::Input::waitForEdgeThreaded Pages: 1 -->
<svg width="433pt" height="64pt"
 viewBox="0.00 0.00 432.54 64.00" xmlns="http://www.w3.org/2000/svg" xmlns:xlink="http://www.w3.org/1999/xlink">
<g id="graph0" class="graph" transform="scale(1 1) rotate(0) translate(4 60)">
<title>VehicleControl::IO::Input::waitForEdgeThreaded</title>
<polygon fill="#ffffff" stroke="transparent" points="-4,4 -4,-60 428.544,-60 428.544,4 -4,4"/>
<!-- Node50 -->
<g id="node1" class="node">
<title>Node50</title>
<polygon fill="#bfbfbf" stroke="#000000" points="0,-.5 0,-32.5 148.262,-32.5 148.262,-.5 0,-.5"/>
<text text-anchor="start" x="8" y="-19.5" font-family="Helvetica,sans-Serif" font-size="10.00" fill="#000000">VehicleControl::IO</text>
<text text-anchor="middle" x="74.131" y="-7.5" font-family="Helvetica,sans-Serif" font-size="10.00" fill="#000000">::Input::waitForEdgeThreaded</text>
</g>
<!-- Node51 -->
<g id="node2" class="node">
<title>Node51</title>
<g id="a_node2"><a xlink:href="classVehicleControl_1_1IO_1_1Input.html#aeb47b17475e36a509b1bd2ac115a42a0" target="_top" xlink:title="Input constructs an input based on the given setup. The constructor will automatically export the pin...">
<polygon fill="#ffffff" stroke="#000000" points="184.262,-23.5 184.262,-55.5 281.385,-55.5 281.385,-23.5 184.262,-23.5"/>
<text text-anchor="start" x="192.262" y="-42.5" font-family="Helvetica,sans-Serif" font-size="10.00" fill="#000000">VehicleControl::IO</text>
<text text-anchor="middle" x="232.8235" y="-30.5" font-family="Helvetica,sans-Serif" font-size="10.00" fill="#000000">::Input::Input</text>
</a>
</g>
</g>
<!-- Node50&#45;&gt;Node51 -->
<g id="edge1" class="edge">
<title>Node50&#45;&gt;Node51</title>
<path fill="none" stroke="#191970" d="M158.3046,-28.6997C167.0978,-29.9741 175.8117,-31.237 184.012,-32.4255"/>
<polygon fill="#191970" stroke="#191970" points="158.7649,-25.2299 148.3663,-27.2592 157.7608,-32.1575 158.7649,-25.2299"/>
</g>
<!-- Node52 -->
<g id="node3" class="node">
<title>Node52</title>
<g id="a_node3"><a xlink:href="structVehicleControl_1_1IO_1_1Input_1_1Setup.html#a09ce07a96559b6f63eaa51d8eccbc877" target="_top" xlink:title="VehicleControl::IO\l::Input::Setup::Setup">
<polygon fill="#ffffff" stroke="#000000" points="317.385,-.5 317.385,-32.5 424.544,-32.5 424.544,-.5 317.385,-.5"/>
<text text-anchor="start" x="325.385" y="-19.5" font-family="Helvetica,sans-Serif" font-size="10.00" fill="#000000">VehicleControl::IO</text>
<text text-anchor="middle" x="370.9645" y="-7.5" font-family="Helvetica,sans-Serif" font-size="10.00" fill="#000000">::Input::Setup::Setup</text>
</a>
</g>
</g>
<!-- Node50&#45;&gt;Node52 -->
<g id="edge3" class="edge">
<title>Node50&#45;&gt;Node52</title>
<path fill="none" stroke="#191970" d="M158.6179,-14.8096C167.2788,-14.6831 175.9468,-14.5755 184.262,-14.5 227.426,-14.1081 238.2219,-14.0182 281.385,-14.5 292.8956,-14.6285 305.2367,-14.8498 316.9663,-15.0995"/>
<polygon fill="#191970" stroke="#191970" points="158.4203,-11.3121 148.4755,-14.9661 158.5284,-18.3113 158.4203,-11.3121"/>
</g>
<!-- Node51&#45;&gt;Node52 -->
<g id="edge2" class="edge">
<title>Node51&#45;&gt;Node52</title>
<path fill="none" stroke="#191970" d="M291.3912,-29.7487C299.9068,-28.3309 308.6404,-26.8767 317.058,-25.4753"/>
<polygon fill="#191970" stroke="#191970" points="290.8162,-26.2961 281.5268,-31.3911 291.9659,-33.2011 290.8162,-26.2961"/>
</g>
</g>
</svg>
