<?xml version="1.0" encoding="UTF-8" standalone="no"?>
<!DOCTYPE svg PUBLIC "-//W3C//DTD SVG 1.1//EN"
 "http://www.w3.org/Graphics/SVG/1.1/DTD/svg11.dtd">
<!-- Generated by graphviz version 2.40.1 (20161225.0304)
 -->
<!-- Title: VehicleControl::IO::Output::cancelToggle Pages: 1 -->
<svg width="394pt" height="143pt"
 viewBox="0.00 0.00 393.64 143.00" xmlns="http://www.w3.org/2000/svg" xmlns:xlink="http://www.w3.org/1999/xlink">
<g id="graph0" class="graph" transform="scale(1 1) rotate(0) translate(4 139)">
<title>VehicleControl::IO::Output::cancelToggle</title>
<polygon fill="#ffffff" stroke="transparent" points="-4,4 -4,-139 389.636,-139 389.636,4 -4,4"/>
<!-- Node6 -->
<g id="node1" class="node">
<title>Node6</title>
<polygon fill="#bfbfbf" stroke="#000000" points="0,-51.5 0,-83.5 116.59,-83.5 116.59,-51.5 0,-51.5"/>
<text text-anchor="start" x="8" y="-70.5" font-family="Helvetica,sans-Serif" font-size="10.00" fill="#000000">VehicleControl::IO</text>
<text text-anchor="middle" x="58.295" y="-58.5" font-family="Helvetica,sans-Serif" font-size="10.00" fill="#000000">::Output::cancelToggle</text>
</g>
<!-- Node7 -->
<g id="node2" class="node">
<title>Node7</title>
<g id="a_node2"><a xlink:href="classVehicleControl_1_1IO_1_1IOBase.html#a8fa41e860d76951642da1d58b6756604" target="_top" xlink:title="path getter ">
<polygon fill="#ffffff" stroke="#000000" points="153.99,-102.5 153.99,-134.5 251.113,-134.5 251.113,-102.5 153.99,-102.5"/>
<text text-anchor="start" x="161.99" y="-121.5" font-family="Helvetica,sans-Serif" font-size="10.00" fill="#000000">VehicleControl::IO</text>
<text text-anchor="middle" x="202.5515" y="-109.5" font-family="Helvetica,sans-Serif" font-size="10.00" fill="#000000">::IOBase::path</text>
</a>
</g>
</g>
<!-- Node6&#45;&gt;Node7 -->
<g id="edge1" class="edge">
<title>Node6&#45;&gt;Node7</title>
<path fill="none" stroke="#191970" d="M103.9387,-83.6367C117.7545,-88.5211 133.0758,-93.9378 147.4419,-99.0167"/>
<polygon fill="#191970" stroke="#191970" points="146.61,-102.4348 157.2048,-102.4683 148.9433,-95.8351 146.61,-102.4348"/>
</g>
<!-- Node8 -->
<g id="node3" class="node">
<title>Node8</title>
<g id="a_node3"><a xlink:href="classVehicleControl_1_1IO_1_1IOBase.html#adcc9f65745e07f2e00425d4e0f5f8e54" target="_top" xlink:title="getValue getter ">
<polygon fill="#ffffff" stroke="#000000" points="152.59,-51.5 152.59,-83.5 252.513,-83.5 252.513,-51.5 152.59,-51.5"/>
<text text-anchor="start" x="160.59" y="-70.5" font-family="Helvetica,sans-Serif" font-size="10.00" fill="#000000">VehicleControl::IO</text>
<text text-anchor="middle" x="202.5515" y="-58.5" font-family="Helvetica,sans-Serif" font-size="10.00" fill="#000000">::IOBase::getValue</text>
</a>
</g>
</g>
<!-- Node6&#45;&gt;Node8 -->
<g id="edge2" class="edge">
<title>Node6&#45;&gt;Node8</title>
<path fill="none" stroke="#191970" d="M116.9696,-67.5C125.2881,-67.5 133.854,-67.5 142.2035,-67.5"/>
<polygon fill="#191970" stroke="#191970" points="142.2495,-71.0001 152.2495,-67.5 142.2494,-64.0001 142.2495,-71.0001"/>
</g>
<!-- Node10 -->
<g id="node5" class="node">
<title>Node10</title>
<g id="a_node5"><a xlink:href="classVehicleControl_1_1IO_1_1Output.html#a98a765948ebfdb90aaad27a140fac509" target="_top" xlink:title="setValue setter ">
<polygon fill="#ffffff" stroke="#000000" points="153.99,-.5 153.99,-32.5 251.113,-32.5 251.113,-.5 153.99,-.5"/>
<text text-anchor="start" x="161.99" y="-19.5" font-family="Helvetica,sans-Serif" font-size="10.00" fill="#000000">VehicleControl::IO</text>
<text text-anchor="middle" x="202.5515" y="-7.5" font-family="Helvetica,sans-Serif" font-size="10.00" fill="#000000">::Output::setValue</text>
</a>
</g>
</g>
<!-- Node6&#45;&gt;Node10 -->
<g id="edge4" class="edge">
<title>Node6&#45;&gt;Node10</title>
<path fill="none" stroke="#191970" d="M103.9387,-51.3633C117.7545,-46.4789 133.0758,-41.0622 147.4419,-35.9833"/>
<polygon fill="#191970" stroke="#191970" points="148.9433,-39.1649 157.2048,-32.5317 146.61,-32.5652 148.9433,-39.1649"/>
</g>
<!-- Node9 -->
<g id="node4" class="node">
<title>Node9</title>
<g id="a_node4"><a xlink:href="classVehicleControl_1_1IO_1_1IOBase.html#a1da47fda987bfedb4ec3c7fb446c09c7" target="_top" xlink:title="read function that reads the value of the given file filename ">
<polygon fill="#ffffff" stroke="#000000" points="288.513,-51.5 288.513,-83.5 385.636,-83.5 385.636,-51.5 288.513,-51.5"/>
<text text-anchor="start" x="296.513" y="-70.5" font-family="Helvetica,sans-Serif" font-size="10.00" fill="#000000">VehicleControl::IO</text>
<text text-anchor="middle" x="337.0745" y="-58.5" font-family="Helvetica,sans-Serif" font-size="10.00" fill="#000000">::IOBase::read</text>
</a>
</g>
</g>
<!-- Node8&#45;&gt;Node9 -->
<g id="edge3" class="edge">
<title>Node8&#45;&gt;Node9</title>
<path fill="none" stroke="#191970" d="M252.6429,-67.5C260.9277,-67.5 269.5849,-67.5 278.0645,-67.5"/>
<polygon fill="#191970" stroke="#191970" points="278.2828,-71.0001 288.2827,-67.5 278.2827,-64.0001 278.2828,-71.0001"/>
</g>
<!-- Node11 -->
<g id="node6" class="node">
<title>Node11</title>
<g id="a_node6"><a xlink:href="classVehicleControl_1_1IO_1_1IOBase.html#a09b22d396b771b2175df60b3a29b6c7f" target="_top" xlink:title="write write function that writes a single string value to a file in the path provided ...">
<polygon fill="#ffffff" stroke="#000000" points="288.513,-.5 288.513,-32.5 385.636,-32.5 385.636,-.5 288.513,-.5"/>
<text text-anchor="start" x="296.513" y="-19.5" font-family="Helvetica,sans-Serif" font-size="10.00" fill="#000000">VehicleControl::IO</text>
<text text-anchor="middle" x="337.0745" y="-7.5" font-family="Helvetica,sans-Serif" font-size="10.00" fill="#000000">::IOBase::write</text>
</a>
</g>
</g>
<!-- Node10&#45;&gt;Node11 -->
<g id="edge5" class="edge">
<title>Node10&#45;&gt;Node11</title>
<path fill="none" stroke="#191970" d="M251.1174,-16.5C259.8662,-16.5 269.0735,-16.5 278.0799,-16.5"/>
<polygon fill="#191970" stroke="#191970" points="278.1281,-20.0001 288.1281,-16.5 278.128,-13.0001 278.1281,-20.0001"/>
</g>
</g>
</svg>
