<?xml version="1.0" encoding="UTF-8" standalone="no"?>
<!DOCTYPE svg PUBLIC "-//W3C//DTD SVG 1.1//EN"
 "http://www.w3.org/Graphics/SVG/1.1/DTD/svg11.dtd">
<!-- Generated by graphviz version 2.40.1 (20161225.0304)
 -->
<!-- Title: LibBBB::Math::LinearConverter&lt; float &gt;::convertXtoY Pages: 1 -->
<svg width="584pt" height="53pt"
 viewBox="0.00 0.00 583.94 53.00" xmlns="http://www.w3.org/2000/svg" xmlns:xlink="http://www.w3.org/1999/xlink">
<g id="graph0" class="graph" transform="scale(1 1) rotate(0) translate(4 49)">
<title>LibBBB::Math::LinearConverter&lt; float &gt;::convertXtoY</title>
<polygon fill="#ffffff" stroke="transparent" points="-4,4 -4,-49 579.94,-49 579.94,4 -4,4"/>
<!-- Node3 -->
<g id="node1" class="node">
<title>Node3</title>
<polygon fill="#bfbfbf" stroke="#000000" points="0,-6.5 0,-38.5 154.362,-38.5 154.362,-6.5 0,-6.5"/>
<text text-anchor="start" x="8" y="-25.5" font-family="Helvetica,sans-Serif" font-size="10.00" fill="#000000">LibBBB::Math::LinearConverter</text>
<text text-anchor="middle" x="77.181" y="-13.5" font-family="Helvetica,sans-Serif" font-size="10.00" fill="#000000">&lt; float &gt;::convertXtoY</text>
</g>
<!-- Node4 -->
<g id="node2" class="node">
<title>Node4</title>
<g id="a_node2"><a xlink:href="classVehicleControl_1_1Control_1_1CommunicationProtocolParser.html#abdbab1c6376e364c7064e5c5b04f0168" target="_top" xlink:title="sendOutgoingPackets packs and send outgoing data. This method takes care of packing bools into a sing...">
<polygon fill="#ffffff" stroke="#000000" points="190.362,-.5 190.362,-44.5 347.486,-44.5 347.486,-.5 190.362,-.5"/>
<text text-anchor="start" x="198.362" y="-31.5" font-family="Helvetica,sans-Serif" font-size="10.00" fill="#000000">VehicleControl::Control</text>
<text text-anchor="start" x="198.362" y="-19.5" font-family="Helvetica,sans-Serif" font-size="10.00" fill="#000000">::CommunicationProtocolParser</text>
<text text-anchor="middle" x="268.924" y="-7.5" font-family="Helvetica,sans-Serif" font-size="10.00" fill="#000000">::sendOutgoingPackets</text>
</a>
</g>
</g>
<!-- Node3&#45;&gt;Node4 -->
<g id="edge1" class="edge">
<title>Node3&#45;&gt;Node4</title>
<path fill="none" stroke="#191970" d="M164.8808,-22.5C173.3443,-22.5 181.8933,-22.5 190.2615,-22.5"/>
<polygon fill="#191970" stroke="#191970" points="164.6176,-19.0001 154.6175,-22.5 164.6175,-26.0001 164.6176,-19.0001"/>
</g>
<!-- Node5 -->
<g id="node3" class="node">
<title>Node5</title>
<g id="a_node3"><a xlink:href="classVehicleControl_1_1Control.html#af677fb9565407041290bbf7b681802e5" target="_top" xlink:title="update method that controls the vehicle ">
<polygon fill="#ffffff" stroke="#000000" points="383.486,-6.5 383.486,-38.5 502.274,-38.5 502.274,-6.5 383.486,-6.5"/>
<text text-anchor="start" x="391.486" y="-25.5" font-family="Helvetica,sans-Serif" font-size="10.00" fill="#000000">VehicleControl::Control</text>
<text text-anchor="middle" x="442.88" y="-13.5" font-family="Helvetica,sans-Serif" font-size="10.00" fill="#000000">::update</text>
</a>
</g>
</g>
<!-- Node4&#45;&gt;Node5 -->
<g id="edge2" class="edge">
<title>Node4&#45;&gt;Node5</title>
<path fill="none" stroke="#191970" d="M357.7153,-22.5C366.4216,-22.5 375.1037,-22.5 383.4124,-22.5"/>
<polygon fill="#191970" stroke="#191970" points="357.5047,-19.0001 347.5046,-22.5 357.5046,-26.0001 357.5047,-19.0001"/>
</g>
<!-- Node6 -->
<g id="node4" class="node">
<title>Node6</title>
<g id="a_node4"><a xlink:href="main_8cpp.html#ae66f6b31b5ad750f1fe042a706a4e3d4" target="_top" xlink:title="main">
<polygon fill="#ffffff" stroke="#000000" points="538.274,-12.5 538.274,-32.5 575.94,-32.5 575.94,-12.5 538.274,-12.5"/>
<text text-anchor="middle" x="557.107" y="-19.5" font-family="Helvetica,sans-Serif" font-size="10.00" fill="#000000">main</text>
</a>
</g>
</g>
<!-- Node5&#45;&gt;Node6 -->
<g id="edge3" class="edge">
<title>Node5&#45;&gt;Node6</title>
<path fill="none" stroke="#191970" d="M512.6179,-22.5C521.9687,-22.5 530.8443,-22.5 538.1726,-22.5"/>
<polygon fill="#191970" stroke="#191970" points="512.3355,-19.0001 502.3355,-22.5 512.3354,-26.0001 512.3355,-19.0001"/>
</g>
</g>
</svg>
