<?xml version="1.0" encoding="UTF-8" standalone="no"?>
<!DOCTYPE svg PUBLIC "-//W3C//DTD SVG 1.1//EN"
 "http://www.w3.org/Graphics/SVG/1.1/DTD/svg11.dtd">
<!-- Generated by graphviz version 2.40.1 (20161225.0304)
 -->
<!-- Title: VehicleControl::IO::IOBase::setActiveHighOrLow Pages: 1 -->
<svg width="292pt" height="41pt"
 viewBox="0.00 0.00 292.15 41.00" xmlns="http://www.w3.org/2000/svg" xmlns:xlink="http://www.w3.org/1999/xlink">
<g id="graph0" class="graph" transform="scale(1 1) rotate(0) translate(4 37)">
<title>VehicleControl::IO::IOBase::setActiveHighOrLow</title>
<polygon fill="#ffffff" stroke="transparent" points="-4,4 -4,-37 288.149,-37 288.149,4 -4,4"/>
<!-- Node41 -->
<g id="node1" class="node">
<title>Node41</title>
<polygon fill="#bfbfbf" stroke="#000000" points="0,-.5 0,-32.5 151.026,-32.5 151.026,-.5 0,-.5"/>
<text text-anchor="start" x="8" y="-19.5" font-family="Helvetica,sans-Serif" font-size="10.00" fill="#000000">VehicleControl::IO</text>
<text text-anchor="middle" x="75.513" y="-7.5" font-family="Helvetica,sans-Serif" font-size="10.00" fill="#000000">::IOBase::setActiveHighOrLow</text>
</g>
<!-- Node42 -->
<g id="node2" class="node">
<title>Node42</title>
<g id="a_node2"><a xlink:href="classVehicleControl_1_1IO_1_1IOBase.html#a09b22d396b771b2175df60b3a29b6c7f" target="_top" xlink:title="write write function that writes a single string value to a file in the path provided ...">
<polygon fill="#ffffff" stroke="#000000" points="187.026,-.5 187.026,-32.5 284.149,-32.5 284.149,-.5 187.026,-.5"/>
<text text-anchor="start" x="195.026" y="-19.5" font-family="Helvetica,sans-Serif" font-size="10.00" fill="#000000">VehicleControl::IO</text>
<text text-anchor="middle" x="235.5875" y="-7.5" font-family="Helvetica,sans-Serif" font-size="10.00" fill="#000000">::IOBase::write</text>
</a>
</g>
</g>
<!-- Node41&#45;&gt;Node42 -->
<g id="edge1" class="edge">
<title>Node41&#45;&gt;Node42</title>
<path fill="none" stroke="#191970" d="M151.3313,-16.5C159.8541,-16.5 168.4409,-16.5 176.7037,-16.5"/>
<polygon fill="#191970" stroke="#191970" points="176.9674,-20.0001 186.9674,-16.5 176.9674,-13.0001 176.9674,-20.0001"/>
</g>
</g>
</svg>
