<?xml version="1.0" encoding="UTF-8" standalone="no"?>
<!DOCTYPE svg PUBLIC "-//W3C//DTD SVG 1.1//EN"
 "http://www.w3.org/Graphics/SVG/1.1/DTD/svg11.dtd">
<!-- Generated by graphviz version 2.40.1 (20161225.0304)
 -->
<!-- Title: VehicleControl::IO::MotorControl::frequency Pages: 1 -->
<svg width="318pt" height="92pt"
 viewBox="0.00 0.00 318.26 92.00" xmlns="http://www.w3.org/2000/svg" xmlns:xlink="http://www.w3.org/1999/xlink">
<g id="graph0" class="graph" transform="scale(1 1) rotate(0) translate(4 88)">
<title>VehicleControl::IO::MotorControl::frequency</title>
<polygon fill="#ffffff" stroke="transparent" points="-4,4 -4,-88 314.262,-88 314.262,4 -4,4"/>
<!-- Node12 -->
<g id="node1" class="node">
<title>Node12</title>
<polygon fill="#bfbfbf" stroke="#000000" points="0,-25.5 0,-57.5 128.797,-57.5 128.797,-25.5 0,-25.5"/>
<text text-anchor="start" x="8" y="-44.5" font-family="Helvetica,sans-Serif" font-size="10.00" fill="#000000">VehicleControl::IO</text>
<text text-anchor="middle" x="64.3985" y="-32.5" font-family="Helvetica,sans-Serif" font-size="10.00" fill="#000000">::MotorControl::frequency</text>
</g>
<!-- Node13 -->
<g id="node2" class="node">
<title>Node13</title>
<g id="a_node2"><a xlink:href="classVehicleControl_1_1IO_1_1MotorControl.html#a25f16811082428a2eeda1c78f3a9773a" target="_top" xlink:title="setFrequency sets the frequency of the signal ">
<polygon fill="#ffffff" stroke="#000000" points="164.797,-51.5 164.797,-83.5 310.262,-83.5 310.262,-51.5 164.797,-51.5"/>
<text text-anchor="start" x="172.797" y="-70.5" font-family="Helvetica,sans-Serif" font-size="10.00" fill="#000000">VehicleControl::IO</text>
<text text-anchor="middle" x="237.5295" y="-58.5" font-family="Helvetica,sans-Serif" font-size="10.00" fill="#000000">::MotorControl::setFrequency</text>
</a>
</g>
</g>
<!-- Node12&#45;&gt;Node13 -->
<g id="edge1" class="edge">
<title>Node12&#45;&gt;Node13</title>
<path fill="none" stroke="#191970" d="M138.7963,-52.6727C147.3359,-53.9551 156.0367,-55.2618 164.5572,-56.5414"/>
<polygon fill="#191970" stroke="#191970" points="139.275,-49.2054 128.8661,-51.1814 138.2354,-56.1278 139.275,-49.2054"/>
</g>
<!-- Node14 -->
<g id="node3" class="node">
<title>Node14</title>
<g id="a_node3"><a xlink:href="classVehicleControl_1_1IO_1_1MotorControl.html#afde0146703bc6472e34b93c9115e8dfe" target="_top" xlink:title="dutyCycle getter ">
<polygon fill="#ffffff" stroke="#000000" points="173.1355,-.5 173.1355,-32.5 301.9235,-32.5 301.9235,-.5 173.1355,-.5"/>
<text text-anchor="start" x="181.1355" y="-19.5" font-family="Helvetica,sans-Serif" font-size="10.00" fill="#000000">VehicleControl::IO</text>
<text text-anchor="middle" x="237.5295" y="-7.5" font-family="Helvetica,sans-Serif" font-size="10.00" fill="#000000">::MotorControl::dutyCycle</text>
</a>
</g>
</g>
<!-- Node12&#45;&gt;Node14 -->
<g id="edge2" class="edge">
<title>Node12&#45;&gt;Node14</title>
<path fill="none" stroke="#191970" d="M138.7825,-30.759C150.174,-29.1141 161.8527,-27.4277 173.0081,-25.8169"/>
<polygon fill="#191970" stroke="#191970" points="138.2632,-27.2976 128.8661,-32.1909 139.2637,-34.2257 138.2632,-27.2976"/>
</g>
</g>
</svg>
