<?xml version="1.0" encoding="UTF-8" standalone="no"?>
<!DOCTYPE svg PUBLIC "-//W3C//DTD SVG 1.1//EN"
 "http://www.w3.org/Graphics/SVG/1.1/DTD/svg11.dtd">
<!-- Generated by graphviz version 2.40.1 (20161225.0304)
 -->
<!-- Title: VehicleControl::IO::IOBase::setActiveHighOrLow Pages: 1 -->
<svg width="435pt" height="41pt"
 viewBox="0.00 0.00 435.31 41.00" xmlns="http://www.w3.org/2000/svg" xmlns:xlink="http://www.w3.org/1999/xlink">
<g id="graph0" class="graph" transform="scale(1 1) rotate(0) translate(4 37)">
<title>VehicleControl::IO::IOBase::setActiveHighOrLow</title>
<polygon fill="#ffffff" stroke="transparent" points="-4,4 -4,-37 431.308,-37 431.308,4 -4,4"/>
<!-- Node43 -->
<g id="node1" class="node">
<title>Node43</title>
<polygon fill="#bfbfbf" stroke="#000000" points="0,-.5 0,-32.5 151.026,-32.5 151.026,-.5 0,-.5"/>
<text text-anchor="start" x="8" y="-19.5" font-family="Helvetica,sans-Serif" font-size="10.00" fill="#000000">VehicleControl::IO</text>
<text text-anchor="middle" x="75.513" y="-7.5" font-family="Helvetica,sans-Serif" font-size="10.00" fill="#000000">::IOBase::setActiveHighOrLow</text>
</g>
<!-- Node44 -->
<g id="node2" class="node">
<title>Node44</title>
<g id="a_node2"><a xlink:href="classVehicleControl_1_1IO_1_1Input.html#aeb47b17475e36a509b1bd2ac115a42a0" target="_top" xlink:title="Input constructs an input based on the given setup. The constructor will automatically export the pin...">
<polygon fill="#ffffff" stroke="#000000" points="187.026,-.5 187.026,-32.5 284.149,-32.5 284.149,-.5 187.026,-.5"/>
<text text-anchor="start" x="195.026" y="-19.5" font-family="Helvetica,sans-Serif" font-size="10.00" fill="#000000">VehicleControl::IO</text>
<text text-anchor="middle" x="235.5875" y="-7.5" font-family="Helvetica,sans-Serif" font-size="10.00" fill="#000000">::Input::Input</text>
</a>
</g>
</g>
<!-- Node43&#45;&gt;Node44 -->
<g id="edge1" class="edge">
<title>Node43&#45;&gt;Node44</title>
<path fill="none" stroke="#191970" d="M161.5646,-16.5C170.2657,-16.5 178.8714,-16.5 186.9674,-16.5"/>
<polygon fill="#191970" stroke="#191970" points="161.3313,-13.0001 151.3313,-16.5 161.3312,-20.0001 161.3313,-13.0001"/>
</g>
<!-- Node45 -->
<g id="node3" class="node">
<title>Node45</title>
<g id="a_node3"><a xlink:href="structVehicleControl_1_1IO_1_1Input_1_1Setup.html#a09ce07a96559b6f63eaa51d8eccbc877" target="_top" xlink:title="VehicleControl::IO\l::Input::Setup::Setup">
<polygon fill="#ffffff" stroke="#000000" points="320.149,-.5 320.149,-32.5 427.308,-32.5 427.308,-.5 320.149,-.5"/>
<text text-anchor="start" x="328.149" y="-19.5" font-family="Helvetica,sans-Serif" font-size="10.00" fill="#000000">VehicleControl::IO</text>
<text text-anchor="middle" x="373.7285" y="-7.5" font-family="Helvetica,sans-Serif" font-size="10.00" fill="#000000">::Input::Setup::Setup</text>
</a>
</g>
</g>
<!-- Node44&#45;&gt;Node45 -->
<g id="edge2" class="edge">
<title>Node44&#45;&gt;Node45</title>
<path fill="none" stroke="#191970" d="M294.433,-16.5C302.8606,-16.5 311.4959,-16.5 319.822,-16.5"/>
<polygon fill="#191970" stroke="#191970" points="294.2909,-13.0001 284.2908,-16.5 294.2908,-20.0001 294.2909,-13.0001"/>
</g>
</g>
</svg>
