<?xml version="1.0" encoding="UTF-8" standalone="no"?>
<!DOCTYPE svg PUBLIC "-//W3C//DTD SVG 1.1//EN"
 "http://www.w3.org/Graphics/SVG/1.1/DTD/svg11.dtd">
<!-- Generated by graphviz version 2.40.1 (20161225.0304)
 -->
<!-- Title: VehicleControl::Bluetooth::Server Pages: 1 -->
<svg width="137pt" height="110pt"
 viewBox="0.00 0.00 136.81 110.00" xmlns="http://www.w3.org/2000/svg" xmlns:xlink="http://www.w3.org/1999/xlink">
<g id="graph0" class="graph" transform="scale(1 1) rotate(0) translate(4 106)">
<title>VehicleControl::Bluetooth::Server</title>
<polygon fill="#ffffff" stroke="transparent" points="-4,4 -4,-106 132.806,-106 132.806,4 -4,4"/>
<!-- Node2 -->
<g id="node1" class="node">
<title>Node2</title>
<polygon fill="#bfbfbf" stroke="#000000" points="0,-.5 0,-32.5 128.806,-32.5 128.806,-.5 0,-.5"/>
<text text-anchor="start" x="8" y="-19.5" font-family="Helvetica,sans-Serif" font-size="10.00" fill="#000000">VehicleControl::Bluetooth</text>
<text text-anchor="middle" x="64.403" y="-7.5" font-family="Helvetica,sans-Serif" font-size="10.00" fill="#000000">::Server</text>
</g>
<!-- Node3 -->
<g id="node2" class="node">
<title>Node3</title>
<g id="a_node2"><a xlink:href="classVehicleControl_1_1Bluetooth_1_1Base.html" target="_top" xlink:title="The Base class is the base class for the bluetooth client and server. This class contains helper meth...">
<polygon fill="#ffffff" stroke="#000000" points="0,-69.5 0,-101.5 128.806,-101.5 128.806,-69.5 0,-69.5"/>
<text text-anchor="start" x="8" y="-88.5" font-family="Helvetica,sans-Serif" font-size="10.00" fill="#000000">VehicleControl::Bluetooth</text>
<text text-anchor="middle" x="64.403" y="-76.5" font-family="Helvetica,sans-Serif" font-size="10.00" fill="#000000">::Base</text>
</a>
</g>
</g>
<!-- Node3&#45;&gt;Node2 -->
<g id="edge1" class="edge">
<title>Node3&#45;&gt;Node2</title>
<path fill="none" stroke="#191970" d="M64.403,-59.2468C64.403,-50.3917 64.403,-40.7667 64.403,-32.8958"/>
<polygon fill="#191970" stroke="#191970" points="60.9031,-59.4965 64.403,-69.4966 67.9031,-59.4966 60.9031,-59.4965"/>
</g>
</g>
</svg>
