<?xml version="1.0" encoding="UTF-8" standalone="no"?>
<!DOCTYPE svg PUBLIC "-//W3C//DTD SVG 1.1//EN"
 "http://www.w3.org/Graphics/SVG/1.1/DTD/svg11.dtd">
<!-- Generated by graphviz version 2.40.1 (20161225.0304)
 -->
<!-- Title: Core::IO::UserLED::state Pages: 1 -->
<svg width="746pt" height="182pt"
 viewBox="0.00 0.00 746.50 182.00" xmlns="http://www.w3.org/2000/svg" xmlns:xlink="http://www.w3.org/1999/xlink">
<g id="graph0" class="graph" transform="scale(1 1) rotate(0) translate(4 178)">
<title>Core::IO::UserLED::state</title>
<polygon fill="#ffffff" stroke="transparent" points="-4,4 -4,-178 742.497,-178 742.497,4 -4,4"/>
<!-- Node25 -->
<g id="node1" class="node">
<title>Node25</title>
<polygon fill="#bfbfbf" stroke="#000000" points="0,-48.5 0,-80.5 105.452,-80.5 105.452,-48.5 0,-48.5"/>
<text text-anchor="start" x="8" y="-67.5" font-family="Helvetica,sans-Serif" font-size="10.00" fill="#000000">Core::IO::UserLED::</text>
<text text-anchor="middle" x="52.726" y="-55.5" font-family="Helvetica,sans-Serif" font-size="10.00" fill="#000000">state</text>
</g>
<!-- Node26 -->
<g id="node2" class="node">
<title>Node26</title>
<g id="a_node2"><a xlink:href="namespaceVehicleControl.html#af89cecf99aa4e7787af7433d8f3b6970" target="_top" xlink:title="VehicleControl::callback">
<polygon fill="#ffffff" stroke="#000000" points="282.904,-99.5 282.904,-119.5 405.584,-119.5 405.584,-99.5 282.904,-99.5"/>
<text text-anchor="middle" x="344.244" y="-106.5" font-family="Helvetica,sans-Serif" font-size="10.00" fill="#000000">VehicleControl::callback</text>
</a>
</g>
</g>
<!-- Node25&#45;&gt;Node26 -->
<g id="edge1" class="edge">
<title>Node25&#45;&gt;Node26</title>
<path fill="none" stroke="#191970" d="M111.0412,-83.3076C121.103,-86.0571 131.52,-88.5977 141.452,-90.5 188.3373,-99.4799 242.168,-104.2726 282.5804,-106.797"/>
<polygon fill="#191970" stroke="#191970" points="111.704,-79.8578 101.1289,-80.5043 109.799,-86.5936 111.704,-79.8578"/>
</g>
<!-- Node31 -->
<g id="node7" class="node">
<title>Node31</title>
<g id="a_node7"><a xlink:href="classCore_1_1IO_1_1UserLED.html#ac39c3ed451b83046ff37ecb4ccff142c" target="_top" xlink:title="setState method sets the state of the LED ">
<polygon fill="#ffffff" stroke="#000000" points="141.452,-48.5 141.452,-80.5 246.904,-80.5 246.904,-48.5 141.452,-48.5"/>
<text text-anchor="start" x="149.452" y="-67.5" font-family="Helvetica,sans-Serif" font-size="10.00" fill="#000000">Core::IO::UserLED::</text>
<text text-anchor="middle" x="194.178" y="-55.5" font-family="Helvetica,sans-Serif" font-size="10.00" fill="#000000">setState</text>
</a>
</g>
</g>
<!-- Node25&#45;&gt;Node31 -->
<g id="edge7" class="edge">
<title>Node25&#45;&gt;Node31</title>
<path fill="none" stroke="#191970" d="M115.9981,-64.5C124.4441,-64.5 133.0334,-64.5 141.277,-64.5"/>
<polygon fill="#191970" stroke="#191970" points="115.8,-61.0001 105.7999,-64.5 115.7999,-68.0001 115.8,-61.0001"/>
</g>
<!-- Node33 -->
<g id="node9" class="node">
<title>Node33</title>
<g id="a_node9"><a xlink:href="structCore_1_1IO_1_1UserLED_1_1Setup.html#a72bdd70912a6322aba2da15c28a84fbe" target="_top" xlink:title="Core::IO::UserLED::\lSetup::Setup">
<polygon fill="#ffffff" stroke="#000000" points="459.9205,-.5 459.9205,-32.5 565.3725,-32.5 565.3725,-.5 459.9205,-.5"/>
<text text-anchor="start" x="467.9205" y="-19.5" font-family="Helvetica,sans-Serif" font-size="10.00" fill="#000000">Core::IO::UserLED::</text>
<text text-anchor="middle" x="512.6465" y="-7.5" font-family="Helvetica,sans-Serif" font-size="10.00" fill="#000000">Setup::Setup</text>
</a>
</g>
</g>
<!-- Node25&#45;&gt;Node33 -->
<g id="edge12" class="edge">
<title>Node25&#45;&gt;Node33</title>
<path fill="none" stroke="#191970" d="M112.4919,-45.6495C122.114,-43.0019 132.0128,-40.5049 141.452,-38.5 252.908,-14.8268 387.1223,-13.3391 459.7332,-14.6982"/>
<polygon fill="#191970" stroke="#191970" points="111.2656,-42.3589 102.5957,-48.4486 113.1708,-49.0947 111.2656,-42.3589"/>
</g>
<!-- Node27 -->
<g id="node3" class="node">
<title>Node27</title>
<g id="a_node3"><a xlink:href="classCore_1_1IO_1_1Input.html#af505f10ed01aa26257a8709ba7211ba6" target="_top" xlink:title="setEdgeCallback setter ">
<polygon fill="#ffffff" stroke="#000000" points="450.738,-141.5 450.738,-173.5 574.555,-173.5 574.555,-141.5 450.738,-141.5"/>
<text text-anchor="start" x="458.738" y="-160.5" font-family="Helvetica,sans-Serif" font-size="10.00" fill="#000000">Core::IO::Input::setEdge</text>
<text text-anchor="middle" x="512.6465" y="-148.5" font-family="Helvetica,sans-Serif" font-size="10.00" fill="#000000">Callback</text>
</a>
</g>
</g>
<!-- Node26&#45;&gt;Node27 -->
<g id="edge2" class="edge">
<title>Node26&#45;&gt;Node27</title>
<path fill="none" stroke="#191970" d="M389.3303,-122.351C409.9817,-128.2373 434.6692,-135.274 456.5115,-141.4998"/>
<polygon fill="#191970" stroke="#191970" points="390.1231,-118.9376 379.5467,-119.5624 388.2042,-125.6695 390.1231,-118.9376"/>
</g>
<!-- Node28 -->
<g id="node4" class="node">
<title>Node28</title>
<g id="a_node4"><a xlink:href="structCore_1_1IO_1_1Input_1_1Setup.html#a493b98ee230283215bd55b7ba739f60a" target="_top" xlink:title="Core::IO::Input::Setup\l::Setup">
<polygon fill="#ffffff" stroke="#000000" points="622.474,-121.5 622.474,-153.5 735.732,-153.5 735.732,-121.5 622.474,-121.5"/>
<text text-anchor="start" x="630.474" y="-140.5" font-family="Helvetica,sans-Serif" font-size="10.00" fill="#000000">Core::IO::Input::Setup</text>
<text text-anchor="middle" x="679.103" y="-128.5" font-family="Helvetica,sans-Serif" font-size="10.00" fill="#000000">::Setup</text>
</a>
</g>
</g>
<!-- Node26&#45;&gt;Node28 -->
<g id="edge4" class="edge">
<title>Node26&#45;&gt;Node28</title>
<path fill="none" stroke="#191970" d="M415.7084,-115.4757C477.3801,-120.6325 565.2778,-127.9822 622.2602,-132.747"/>
<polygon fill="#191970" stroke="#191970" points="415.9192,-111.9812 405.6623,-114.6356 415.3359,-118.9568 415.9192,-111.9812"/>
</g>
<!-- Node29 -->
<g id="node5" class="node">
<title>Node29</title>
<g id="a_node5"><a xlink:href="namespaceVehicleControl.html#ab876bdb990021d96b1452a85b59f99d8" target="_top" xlink:title="VehicleControl::createRising\lEdgeThreadedInput">
<polygon fill="#ffffff" stroke="#000000" points="441.584,-51.5 441.584,-83.5 583.709,-83.5 583.709,-51.5 441.584,-51.5"/>
<text text-anchor="start" x="449.584" y="-70.5" font-family="Helvetica,sans-Serif" font-size="10.00" fill="#000000">VehicleControl::createRising</text>
<text text-anchor="middle" x="512.6465" y="-58.5" font-family="Helvetica,sans-Serif" font-size="10.00" fill="#000000">EdgeThreadedInput</text>
</a>
</g>
</g>
<!-- Node26&#45;&gt;Node29 -->
<g id="edge5" class="edge">
<title>Node26&#45;&gt;Node29</title>
<path fill="none" stroke="#191970" d="M394.7533,-96.9029C411.5866,-92.7046 430.5713,-87.9698 448.3088,-83.546"/>
<polygon fill="#191970" stroke="#191970" points="393.4364,-93.624 384.5806,-99.44 395.1304,-100.416 393.4364,-93.624"/>
</g>
<!-- Node27&#45;&gt;Node28 -->
<g id="edge3" class="edge">
<title>Node27&#45;&gt;Node28</title>
<path fill="none" stroke="#191970" d="M584.6343,-148.8506C597.2322,-147.3369 610.18,-145.7812 622.2946,-144.3256"/>
<polygon fill="#191970" stroke="#191970" points="584.1398,-145.3847 574.6288,-150.0527 584.9749,-152.3347 584.1398,-145.3847"/>
</g>
<!-- Node30 -->
<g id="node6" class="node">
<title>Node30</title>
<g id="a_node6"><a xlink:href="classVehicleControl_1_1Control_1_1IOFactory.html#a4d4de0203bf577352199f49c67f49d98" target="_top" xlink:title="fillInputList method fills in all of the app&#39;s inputs ">
<polygon fill="#ffffff" stroke="#000000" points="619.709,-51.5 619.709,-83.5 738.497,-83.5 738.497,-51.5 619.709,-51.5"/>
<text text-anchor="start" x="627.709" y="-70.5" font-family="Helvetica,sans-Serif" font-size="10.00" fill="#000000">VehicleControl::Control</text>
<text text-anchor="middle" x="679.103" y="-58.5" font-family="Helvetica,sans-Serif" font-size="10.00" fill="#000000">::IOFactory::fillInputList</text>
</a>
</g>
</g>
<!-- Node29&#45;&gt;Node30 -->
<g id="edge6" class="edge">
<title>Node29&#45;&gt;Node30</title>
<path fill="none" stroke="#191970" d="M593.8454,-67.5C602.4998,-67.5 611.1834,-67.5 619.5217,-67.5"/>
<polygon fill="#191970" stroke="#191970" points="593.7219,-64.0001 583.7219,-67.5 593.7218,-71.0001 593.7219,-64.0001"/>
</g>
<!-- Node31&#45;&gt;Node26 -->
<g id="edge8" class="edge">
<title>Node31&#45;&gt;Node26</title>
<path fill="none" stroke="#191970" d="M256.879,-83.302C275.275,-88.8184 294.6878,-94.6397 310.5297,-99.3902"/>
<polygon fill="#191970" stroke="#191970" points="257.6696,-79.8852 247.0857,-80.3653 255.6589,-86.5902 257.6696,-79.8852"/>
</g>
<!-- Node32 -->
<g id="node8" class="node">
<title>Node32</title>
<g id="a_node8"><a xlink:href="classCore_1_1IO_1_1UserLED.html#a4e161b02396d015ce4fd5434853e44bc" target="_top" xlink:title="changeBlinkTime method changes the time of the blink ">
<polygon fill="#ffffff" stroke="#000000" points="291.518,-48.5 291.518,-80.5 396.97,-80.5 396.97,-48.5 291.518,-48.5"/>
<text text-anchor="start" x="299.518" y="-67.5" font-family="Helvetica,sans-Serif" font-size="10.00" fill="#000000">Core::IO::UserLED::</text>
<text text-anchor="middle" x="344.244" y="-55.5" font-family="Helvetica,sans-Serif" font-size="10.00" fill="#000000">changeBlinkTime</text>
</a>
</g>
</g>
<!-- Node31&#45;&gt;Node32 -->
<g id="edge9" class="edge">
<title>Node31&#45;&gt;Node32</title>
<path fill="none" stroke="#191970" d="M257.337,-64.5C268.6459,-64.5 280.3239,-64.5 291.3083,-64.5"/>
<polygon fill="#191970" stroke="#191970" points="257.0857,-61.0001 247.0857,-64.5 257.0856,-68.0001 257.0857,-61.0001"/>
</g>
<!-- Node31&#45;&gt;Node33 -->
<g id="edge11" class="edge">
<title>Node31&#45;&gt;Node33</title>
<path fill="none" stroke="#191970" d="M252.856,-45.6116C262.8059,-42.8977 273.0922,-40.3897 282.904,-38.5 342.9055,-26.9442 412.9478,-21.3491 459.7759,-18.7138"/>
<polygon fill="#191970" stroke="#191970" points="251.7221,-42.2948 243.0483,-48.3789 253.623,-49.0318 251.7221,-42.2948"/>
</g>
<!-- Node32&#45;&gt;Node33 -->
<g id="edge10" class="edge">
<title>Node32&#45;&gt;Node33</title>
<path fill="none" stroke="#191970" d="M407.0907,-46.5867C424.4119,-41.6496 443.0241,-36.3446 459.7231,-31.5848"/>
<polygon fill="#191970" stroke="#191970" points="405.7231,-43.337 397.0656,-49.4442 407.642,-50.0689 405.7231,-43.337"/>
</g>
</g>
</svg>
