<?xml version="1.0" encoding="UTF-8" standalone="no"?>
<!DOCTYPE svg PUBLIC "-//W3C//DTD SVG 1.1//EN"
 "http://www.w3.org/Graphics/SVG/1.1/DTD/svg11.dtd">
<!-- Generated by graphviz version 2.40.1 (20161225.0304)
 -->
<!-- Title: VehicleControl::IO::Output::~Output Pages: 1 -->
<svg width="256pt" height="41pt"
 viewBox="0.00 0.00 256.06 41.00" xmlns="http://www.w3.org/2000/svg" xmlns:xlink="http://www.w3.org/1999/xlink">
<g id="graph0" class="graph" transform="scale(1 1) rotate(0) translate(4 37)">
<title>VehicleControl::IO::Output::~Output</title>
<polygon fill="#ffffff" stroke="transparent" points="-4,4 -4,-37 252.061,-37 252.061,4 -4,4"/>
<!-- Node4 -->
<g id="node1" class="node">
<title>Node4</title>
<polygon fill="#bfbfbf" stroke="#000000" points="0,-.5 0,-32.5 97.123,-32.5 97.123,-.5 0,-.5"/>
<text text-anchor="start" x="8" y="-19.5" font-family="Helvetica,sans-Serif" font-size="10.00" fill="#000000">VehicleControl::IO</text>
<text text-anchor="middle" x="48.5615" y="-7.5" font-family="Helvetica,sans-Serif" font-size="10.00" fill="#000000">::Output::~Output</text>
</g>
<!-- Node5 -->
<g id="node2" class="node">
<title>Node5</title>
<g id="a_node2"><a xlink:href="structVehicleControl_1_1IO_1_1Output_1_1Setup.html#a6346d200fcd68fb1693f1e3ae9c9d3af" target="_top" xlink:title="VehicleControl::IO\l::Output::Setup::Setup">
<polygon fill="#ffffff" stroke="#000000" points="133.123,-.5 133.123,-32.5 248.061,-32.5 248.061,-.5 133.123,-.5"/>
<text text-anchor="start" x="141.123" y="-19.5" font-family="Helvetica,sans-Serif" font-size="10.00" fill="#000000">VehicleControl::IO</text>
<text text-anchor="middle" x="190.592" y="-7.5" font-family="Helvetica,sans-Serif" font-size="10.00" fill="#000000">::Output::Setup::Setup</text>
</a>
</g>
</g>
<!-- Node4&#45;&gt;Node5 -->
<g id="edge1" class="edge">
<title>Node4&#45;&gt;Node5</title>
<path fill="none" stroke="#191970" d="M107.5008,-16.5C115.8689,-16.5 124.4674,-16.5 132.8132,-16.5"/>
<polygon fill="#191970" stroke="#191970" points="107.4404,-13.0001 97.4403,-16.5 107.4403,-20.0001 107.4404,-13.0001"/>
</g>
</g>
</svg>
