<?xml version="1.0" encoding="UTF-8" standalone="no"?>
<!DOCTYPE svg PUBLIC "-//W3C//DTD SVG 1.1//EN"
 "http://www.w3.org/Graphics/SVG/1.1/DTD/svg11.dtd">
<!-- Generated by graphviz version 2.40.1 (20161225.0304)
 -->
<!-- Title: Core::IO::MotorControl::dutyCycle Pages: 1 -->
<svg width="278pt" height="143pt"
 viewBox="0.00 0.00 278.24 143.00" xmlns="http://www.w3.org/2000/svg" xmlns:xlink="http://www.w3.org/1999/xlink">
<g id="graph0" class="graph" transform="scale(1 1) rotate(0) translate(4 139)">
<title>Core::IO::MotorControl::dutyCycle</title>
<polygon fill="#ffffff" stroke="transparent" points="-4,4 -4,-139 274.236,-139 274.236,4 -4,4"/>
<!-- Node7 -->
<g id="node1" class="node">
<title>Node7</title>
<polygon fill="#bfbfbf" stroke="#000000" points="0,-51.5 0,-83.5 117.118,-83.5 117.118,-51.5 0,-51.5"/>
<text text-anchor="start" x="8" y="-70.5" font-family="Helvetica,sans-Serif" font-size="10.00" fill="#000000">Core::IO::MotorControl</text>
<text text-anchor="middle" x="58.559" y="-58.5" font-family="Helvetica,sans-Serif" font-size="10.00" fill="#000000">::dutyCycle</text>
</g>
<!-- Node8 -->
<g id="node2" class="node">
<title>Node8</title>
<g id="a_node2"><a xlink:href="classMath_1_1LinearConverter.html#a273d07db25141b970ca038d0826e83be" target="_top" xlink:title="convertYtoX getter. Uses x = ( y &#45; b ) / m. ">
<polygon fill="#ffffff" stroke="#000000" points="153.947,-102.5 153.947,-134.5 269.407,-134.5 269.407,-102.5 153.947,-102.5"/>
<text text-anchor="start" x="161.947" y="-121.5" font-family="Helvetica,sans-Serif" font-size="10.00" fill="#000000">Math::LinearConverter</text>
<text text-anchor="middle" x="211.677" y="-109.5" font-family="Helvetica,sans-Serif" font-size="10.00" fill="#000000">::convertYtoX</text>
</a>
</g>
</g>
<!-- Node7&#45;&gt;Node8 -->
<g id="edge1" class="edge">
<title>Node7&#45;&gt;Node8</title>
<path fill="none" stroke="#191970" d="M107.0065,-83.6367C121.812,-88.5681 138.2464,-94.042 153.6217,-99.1631"/>
<polygon fill="#191970" stroke="#191970" points="152.9511,-102.6288 163.5447,-102.4683 155.1632,-95.9875 152.9511,-102.6288"/>
</g>
<!-- Node9 -->
<g id="node3" class="node">
<title>Node9</title>
<g id="a_node3"><a xlink:href="classCore_1_1IO_1_1MotorControl.html#a97ccba74028ff6057d25fe794350ab7f" target="_top" xlink:title="pulseWidth getter ">
<polygon fill="#ffffff" stroke="#000000" points="153.118,-51.5 153.118,-83.5 270.236,-83.5 270.236,-51.5 153.118,-51.5"/>
<text text-anchor="start" x="161.118" y="-70.5" font-family="Helvetica,sans-Serif" font-size="10.00" fill="#000000">Core::IO::MotorControl</text>
<text text-anchor="middle" x="211.677" y="-58.5" font-family="Helvetica,sans-Serif" font-size="10.00" fill="#000000">::pulseWidth</text>
</a>
</g>
</g>
<!-- Node7&#45;&gt;Node9 -->
<g id="edge2" class="edge">
<title>Node7&#45;&gt;Node9</title>
<path fill="none" stroke="#191970" d="M117.3205,-67.5C125.7462,-67.5 134.4764,-67.5 143.0714,-67.5"/>
<polygon fill="#191970" stroke="#191970" points="143.0728,-71.0001 153.0727,-67.5 143.0727,-64.0001 143.0728,-71.0001"/>
</g>
<!-- Node10 -->
<g id="node4" class="node">
<title>Node10</title>
<g id="a_node4"><a xlink:href="classCore_1_1IO_1_1MotorControl.html#ab5df62720b22a5e50d3158018687886a" target="_top" xlink:title="frequency getter ">
<polygon fill="#ffffff" stroke="#000000" points="153.118,-.5 153.118,-32.5 270.236,-32.5 270.236,-.5 153.118,-.5"/>
<text text-anchor="start" x="161.118" y="-19.5" font-family="Helvetica,sans-Serif" font-size="10.00" fill="#000000">Core::IO::MotorControl</text>
<text text-anchor="middle" x="211.677" y="-7.5" font-family="Helvetica,sans-Serif" font-size="10.00" fill="#000000">::frequency</text>
</a>
</g>
</g>
<!-- Node7&#45;&gt;Node10 -->
<g id="edge3" class="edge">
<title>Node7&#45;&gt;Node10</title>
<path fill="none" stroke="#191970" d="M107.0065,-51.3633C121.812,-46.4319 138.2464,-40.958 153.6217,-35.8369"/>
<polygon fill="#191970" stroke="#191970" points="155.1632,-39.0125 163.5447,-32.5317 152.9511,-32.3712 155.1632,-39.0125"/>
</g>
</g>
</svg>
