<?xml version="1.0" encoding="UTF-8" standalone="no"?>
<!DOCTYPE svg PUBLIC "-//W3C//DTD SVG 1.1//EN"
 "http://www.w3.org/Graphics/SVG/1.1/DTD/svg11.dtd">
<!-- Generated by graphviz version 2.40.1 (20161225.0304)
 -->
<!-- Title: VehicleControl::IO::UserLED::changeBlinkTime Pages: 1 -->
<svg width="314pt" height="41pt"
 viewBox="0.00 0.00 313.82 41.00" xmlns="http://www.w3.org/2000/svg" xmlns:xlink="http://www.w3.org/1999/xlink">
<g id="graph0" class="graph" transform="scale(1 1) rotate(0) translate(4 37)">
<title>VehicleControl::IO::UserLED::changeBlinkTime</title>
<polygon fill="#ffffff" stroke="transparent" points="-4,4 -4,-37 309.825,-37 309.825,4 -4,4"/>
<!-- Node11 -->
<g id="node1" class="node">
<title>Node11</title>
<polygon fill="#bfbfbf" stroke="#000000" points="0,-.5 0,-32.5 144.347,-32.5 144.347,-.5 0,-.5"/>
<text text-anchor="start" x="8" y="-19.5" font-family="Helvetica,sans-Serif" font-size="10.00" fill="#000000">VehicleControl::IO</text>
<text text-anchor="middle" x="72.1735" y="-7.5" font-family="Helvetica,sans-Serif" font-size="10.00" fill="#000000">::UserLED::changeBlinkTime</text>
</g>
<!-- Node12 -->
<g id="node2" class="node">
<title>Node12</title>
<g id="a_node2"><a xlink:href="structVehicleControl_1_1IO_1_1UserLED_1_1Setup.html#a0f7dc4714f6c82868c4d3bad8baaf4c6" target="_top" xlink:title="VehicleControl::IO\l::UserLED::Setup::Setup">
<polygon fill="#ffffff" stroke="#000000" points="180.347,-.5 180.347,-32.5 305.825,-32.5 305.825,-.5 180.347,-.5"/>
<text text-anchor="start" x="188.347" y="-19.5" font-family="Helvetica,sans-Serif" font-size="10.00" fill="#000000">VehicleControl::IO</text>
<text text-anchor="middle" x="243.086" y="-7.5" font-family="Helvetica,sans-Serif" font-size="10.00" fill="#000000">::UserLED::Setup::Setup</text>
</a>
</g>
</g>
<!-- Node11&#45;&gt;Node12 -->
<g id="edge1" class="edge">
<title>Node11&#45;&gt;Node12</title>
<path fill="none" stroke="#191970" d="M154.695,-16.5C163.2801,-16.5 171.9048,-16.5 180.2219,-16.5"/>
<polygon fill="#191970" stroke="#191970" points="154.6558,-13.0001 144.6558,-16.5 154.6558,-20.0001 154.6558,-13.0001"/>
</g>
</g>
</svg>
