<?xml version="1.0" encoding="UTF-8" standalone="no"?>
<!DOCTYPE svg PUBLIC "-//W3C//DTD SVG 1.1//EN"
 "http://www.w3.org/Graphics/SVG/1.1/DTD/svg11.dtd">
<!-- Generated by graphviz version 2.40.1 (20161225.0304)
 -->
<!-- Title: VehicleControl::Control::IOFactory::fillInputList Pages: 1 -->
<svg width="757pt" height="92pt"
 viewBox="0.00 0.00 756.52 92.00" xmlns="http://www.w3.org/2000/svg" xmlns:xlink="http://www.w3.org/1999/xlink">
<g id="graph0" class="graph" transform="scale(1 1) rotate(0) translate(4 88)">
<title>VehicleControl::Control::IOFactory::fillInputList</title>
<polygon fill="#ffffff" stroke="transparent" points="-4,4 -4,-88 752.516,-88 752.516,4 -4,4"/>
<!-- Node6 -->
<g id="node1" class="node">
<title>Node6</title>
<polygon fill="#bfbfbf" stroke="#000000" points="0,-28.5 0,-60.5 118.788,-60.5 118.788,-28.5 0,-28.5"/>
<text text-anchor="start" x="8" y="-47.5" font-family="Helvetica,sans-Serif" font-size="10.00" fill="#000000">VehicleControl::Control</text>
<text text-anchor="middle" x="59.394" y="-35.5" font-family="Helvetica,sans-Serif" font-size="10.00" fill="#000000">::IOFactory::fillInputList</text>
</g>
<!-- Node7 -->
<g id="node2" class="node">
<title>Node7</title>
<g id="a_node2"><a xlink:href="namespaceVehicleControl.html#ab876bdb990021d96b1452a85b59f99d8" target="_top" xlink:title="VehicleControl::createRising\lEdgeThreadedInput">
<polygon fill="#ffffff" stroke="#000000" points="154.788,-28.5 154.788,-60.5 296.913,-60.5 296.913,-28.5 154.788,-28.5"/>
<text text-anchor="start" x="162.788" y="-47.5" font-family="Helvetica,sans-Serif" font-size="10.00" fill="#000000">VehicleControl::createRising</text>
<text text-anchor="middle" x="225.8505" y="-35.5" font-family="Helvetica,sans-Serif" font-size="10.00" fill="#000000">EdgeThreadedInput</text>
</a>
</g>
</g>
<!-- Node6&#45;&gt;Node7 -->
<g id="edge1" class="edge">
<title>Node6&#45;&gt;Node7</title>
<path fill="none" stroke="#191970" d="M119.0185,-44.5C127.3327,-44.5 135.9894,-44.5 144.6176,-44.5"/>
<polygon fill="#191970" stroke="#191970" points="144.711,-48.0001 154.711,-44.5 144.7109,-41.0001 144.711,-48.0001"/>
</g>
<!-- Node8 -->
<g id="node3" class="node">
<title>Node8</title>
<g id="a_node3"><a xlink:href="namespaceVehicleControl.html#af89cecf99aa4e7787af7433d8f3b6970" target="_top" xlink:title="VehicleControl::callback">
<polygon fill="#ffffff" stroke="#000000" points="332.913,-34.5 332.913,-54.5 455.593,-54.5 455.593,-34.5 332.913,-34.5"/>
<text text-anchor="middle" x="394.253" y="-41.5" font-family="Helvetica,sans-Serif" font-size="10.00" fill="#000000">VehicleControl::callback</text>
</a>
</g>
</g>
<!-- Node7&#45;&gt;Node8 -->
<g id="edge2" class="edge">
<title>Node7&#45;&gt;Node8</title>
<path fill="none" stroke="#191970" d="M297.2683,-44.5C305.6809,-44.5 314.2678,-44.5 322.6825,-44.5"/>
<polygon fill="#191970" stroke="#191970" points="322.8379,-48.0001 332.8379,-44.5 322.8379,-41.0001 322.8379,-48.0001"/>
</g>
<!-- Node9 -->
<g id="node4" class="node">
<title>Node9</title>
<g id="a_node4"><a xlink:href="classCore_1_1IO_1_1UserLED.html#a5d7887f070c9ce082f8be1d3aae448d2" target="_top" xlink:title="state getter ">
<polygon fill="#ffffff" stroke="#000000" points="638.0545,-51.5 638.0545,-83.5 743.5065,-83.5 743.5065,-51.5 638.0545,-51.5"/>
<text text-anchor="start" x="646.0545" y="-70.5" font-family="Helvetica,sans-Serif" font-size="10.00" fill="#000000">Core::IO::UserLED::</text>
<text text-anchor="middle" x="690.7805" y="-58.5" font-family="Helvetica,sans-Serif" font-size="10.00" fill="#000000">state</text>
</a>
</g>
</g>
<!-- Node8&#45;&gt;Node9 -->
<g id="edge3" class="edge">
<title>Node8&#45;&gt;Node9</title>
<path fill="none" stroke="#191970" d="M455.6937,-49.2656C506.003,-53.1678 576.9052,-58.6673 627.6646,-62.6045"/>
<polygon fill="#191970" stroke="#191970" points="627.6147,-66.111 637.8555,-63.3949 628.1561,-59.132 627.6147,-66.111"/>
</g>
<!-- Node10 -->
<g id="node5" class="node">
<title>Node10</title>
<g id="a_node5"><a xlink:href="classCore_1_1IO_1_1UserLED.html#ac39c3ed451b83046ff37ecb4ccff142c" target="_top" xlink:title="setState method sets the state of the LED ">
<polygon fill="#ffffff" stroke="#000000" points="491.593,-6.5 491.593,-38.5 597.045,-38.5 597.045,-6.5 491.593,-6.5"/>
<text text-anchor="start" x="499.593" y="-25.5" font-family="Helvetica,sans-Serif" font-size="10.00" fill="#000000">Core::IO::UserLED::</text>
<text text-anchor="middle" x="544.319" y="-13.5" font-family="Helvetica,sans-Serif" font-size="10.00" fill="#000000">setState</text>
</a>
</g>
</g>
<!-- Node8&#45;&gt;Node10 -->
<g id="edge4" class="edge">
<title>Node8&#45;&gt;Node10</title>
<path fill="none" stroke="#191970" d="M455.7236,-35.4883C464.1252,-34.2566 472.7615,-32.9905 481.192,-31.7546"/>
<polygon fill="#191970" stroke="#191970" points="481.9572,-35.1799 491.3437,-30.2663 480.9418,-28.2539 481.9572,-35.1799"/>
</g>
<!-- Node10&#45;&gt;Node9 -->
<g id="edge5" class="edge">
<title>Node10&#45;&gt;Node9</title>
<path fill="none" stroke="#191970" d="M596.7813,-38.6189C607.2133,-41.8241 618.2583,-45.2177 628.9691,-48.5086"/>
<polygon fill="#191970" stroke="#191970" points="628.0976,-51.9022 638.6845,-51.4936 630.1535,-45.2109 628.0976,-51.9022"/>
</g>
<!-- Node11 -->
<g id="node6" class="node">
<title>Node11</title>
<g id="a_node6"><a xlink:href="classCore_1_1ThreadHelper.html#a138066760eabf36c1681bbd177db0446" target="_top" xlink:title="startDetachedThread ">
<polygon fill="#ffffff" stroke="#000000" points="633.045,-.5 633.045,-32.5 748.516,-32.5 748.516,-.5 633.045,-.5"/>
<text text-anchor="start" x="641.045" y="-19.5" font-family="Helvetica,sans-Serif" font-size="10.00" fill="#000000">Core::ThreadHelper</text>
<text text-anchor="middle" x="690.7805" y="-7.5" font-family="Helvetica,sans-Serif" font-size="10.00" fill="#000000">::startDetachedThread</text>
</a>
</g>
</g>
<!-- Node10&#45;&gt;Node11 -->
<g id="edge6" class="edge">
<title>Node10&#45;&gt;Node11</title>
<path fill="none" stroke="#191970" d="M597.195,-20.3339C605.5577,-19.9913 614.3052,-19.6329 622.9517,-19.2787"/>
<polygon fill="#191970" stroke="#191970" points="623.1781,-22.7725 633.0265,-18.866 622.8915,-15.7783 623.1781,-22.7725"/>
</g>
</g>
</svg>
