<?xml version="1.0" encoding="UTF-8" standalone="no"?>
<!DOCTYPE svg PUBLIC "-//W3C//DTD SVG 1.1//EN"
 "http://www.w3.org/Graphics/SVG/1.1/DTD/svg11.dtd">
<!-- Generated by graphviz version 2.40.1 (20161225.0304)
 -->
<!-- Title: VehicleControl::Control::IOFactory::fillInputList Pages: 1 -->
<svg width="763pt" height="92pt"
 viewBox="0.00 0.00 763.18 92.00" xmlns="http://www.w3.org/2000/svg" xmlns:xlink="http://www.w3.org/1999/xlink">
<g id="graph0" class="graph" transform="scale(1 1) rotate(0) translate(4 88)">
<title>VehicleControl::Control::IOFactory::fillInputList</title>
<polygon fill="#ffffff" stroke="transparent" points="-4,4 -4,-88 759.185,-88 759.185,4 -4,4"/>
<!-- Node9 -->
<g id="node1" class="node">
<title>Node9</title>
<polygon fill="#bfbfbf" stroke="#000000" points="0,-28.5 0,-60.5 118.788,-60.5 118.788,-28.5 0,-28.5"/>
<text text-anchor="start" x="8" y="-47.5" font-family="Helvetica,sans-Serif" font-size="10.00" fill="#000000">VehicleControl::Control</text>
<text text-anchor="middle" x="59.394" y="-35.5" font-family="Helvetica,sans-Serif" font-size="10.00" fill="#000000">::IOFactory::fillInputList</text>
</g>
<!-- Node10 -->
<g id="node2" class="node">
<title>Node10</title>
<g id="a_node2"><a xlink:href="namespaceVehicleControl.html#ab876bdb990021d96b1452a85b59f99d8" target="_top" xlink:title="VehicleControl::createRising\lEdgeThreadedInput">
<polygon fill="#ffffff" stroke="#000000" points="154.788,-28.5 154.788,-60.5 296.913,-60.5 296.913,-28.5 154.788,-28.5"/>
<text text-anchor="start" x="162.788" y="-47.5" font-family="Helvetica,sans-Serif" font-size="10.00" fill="#000000">VehicleControl::createRising</text>
<text text-anchor="middle" x="225.8505" y="-35.5" font-family="Helvetica,sans-Serif" font-size="10.00" fill="#000000">EdgeThreadedInput</text>
</a>
</g>
</g>
<!-- Node9&#45;&gt;Node10 -->
<g id="edge1" class="edge">
<title>Node9&#45;&gt;Node10</title>
<path fill="none" stroke="#191970" d="M119.0185,-44.5C127.3327,-44.5 135.9894,-44.5 144.6176,-44.5"/>
<polygon fill="#191970" stroke="#191970" points="144.711,-48.0001 154.711,-44.5 144.7109,-41.0001 144.711,-48.0001"/>
</g>
<!-- Node11 -->
<g id="node3" class="node">
<title>Node11</title>
<g id="a_node3"><a xlink:href="namespaceVehicleControl.html#af89cecf99aa4e7787af7433d8f3b6970" target="_top" xlink:title="VehicleControl::callback">
<polygon fill="#ffffff" stroke="#000000" points="332.913,-34.5 332.913,-54.5 455.593,-54.5 455.593,-34.5 332.913,-34.5"/>
<text text-anchor="middle" x="394.253" y="-41.5" font-family="Helvetica,sans-Serif" font-size="10.00" fill="#000000">VehicleControl::callback</text>
</a>
</g>
</g>
<!-- Node10&#45;&gt;Node11 -->
<g id="edge2" class="edge">
<title>Node10&#45;&gt;Node11</title>
<path fill="none" stroke="#191970" d="M297.2683,-44.5C305.6809,-44.5 314.2678,-44.5 322.6825,-44.5"/>
<polygon fill="#191970" stroke="#191970" points="322.8379,-48.0001 332.8379,-44.5 322.8379,-41.0001 322.8379,-48.0001"/>
</g>
<!-- Node12 -->
<g id="node4" class="node">
<title>Node12</title>
<g id="a_node4"><a xlink:href="classLibBBB_1_1IO_1_1UserLED.html#a98c0a865b590a4149e3b5a8d8c97d6cd" target="_top" xlink:title="state getter ">
<polygon fill="#ffffff" stroke="#000000" points="641.389,-51.5 641.389,-83.5 752.961,-83.5 752.961,-51.5 641.389,-51.5"/>
<text text-anchor="start" x="649.389" y="-70.5" font-family="Helvetica,sans-Serif" font-size="10.00" fill="#000000">LibBBB::IO::UserLED</text>
<text text-anchor="middle" x="697.175" y="-58.5" font-family="Helvetica,sans-Serif" font-size="10.00" fill="#000000">::state</text>
</a>
</g>
</g>
<!-- Node11&#45;&gt;Node12 -->
<g id="edge3" class="edge">
<title>Node11&#45;&gt;Node12</title>
<path fill="none" stroke="#191970" d="M455.9189,-49.1821C506.8423,-53.0486 578.9605,-58.5243 631.0679,-62.4807"/>
<polygon fill="#191970" stroke="#191970" points="630.974,-65.9835 641.2103,-63.2508 631.504,-59.0036 630.974,-65.9835"/>
</g>
<!-- Node13 -->
<g id="node5" class="node">
<title>Node13</title>
<g id="a_node5"><a xlink:href="classLibBBB_1_1IO_1_1UserLED.html#a5d6714d1ddc854308c1d4cc5448ded07" target="_top" xlink:title="setState method sets the state of the LED ">
<polygon fill="#ffffff" stroke="#000000" points="491.593,-6.5 491.593,-38.5 603.165,-38.5 603.165,-6.5 491.593,-6.5"/>
<text text-anchor="start" x="499.593" y="-25.5" font-family="Helvetica,sans-Serif" font-size="10.00" fill="#000000">LibBBB::IO::UserLED</text>
<text text-anchor="middle" x="547.379" y="-13.5" font-family="Helvetica,sans-Serif" font-size="10.00" fill="#000000">::setState</text>
</a>
</g>
</g>
<!-- Node11&#45;&gt;Node13 -->
<g id="edge4" class="edge">
<title>Node11&#45;&gt;Node13</title>
<path fill="none" stroke="#191970" d="M455.6529,-35.6785C464.145,-34.4584 472.8963,-33.2011 481.4661,-31.9699"/>
<polygon fill="#191970" stroke="#191970" points="482.0159,-35.4269 491.4165,-30.5403 481.0204,-28.4981 482.0159,-35.4269"/>
</g>
<!-- Node13&#45;&gt;Node12 -->
<g id="edge5" class="edge">
<title>Node13&#45;&gt;Node12</title>
<path fill="none" stroke="#191970" d="M601.0357,-38.6189C611.8141,-41.8568 623.2323,-45.287 634.2916,-48.6093"/>
<polygon fill="#191970" stroke="#191970" points="633.3087,-51.9685 643.8929,-51.4936 635.3227,-45.2645 633.3087,-51.9685"/>
</g>
<!-- Node14 -->
<g id="node6" class="node">
<title>Node14</title>
<g id="a_node6"><a xlink:href="classLibBBB_1_1ThreadHelper.html#a6999e18135496ef252b1c43c374c20f9" target="_top" xlink:title="startDetachedThread ">
<polygon fill="#ffffff" stroke="#000000" points="639.165,-.5 639.165,-32.5 755.185,-32.5 755.185,-.5 639.165,-.5"/>
<text text-anchor="start" x="647.165" y="-19.5" font-family="Helvetica,sans-Serif" font-size="10.00" fill="#000000">LibBBB::ThreadHelper</text>
<text text-anchor="middle" x="697.175" y="-7.5" font-family="Helvetica,sans-Serif" font-size="10.00" fill="#000000">::startDetachedThread</text>
</a>
</g>
</g>
<!-- Node13&#45;&gt;Node14 -->
<g id="edge6" class="edge">
<title>Node13&#45;&gt;Node14</title>
<path fill="none" stroke="#191970" d="M603.5837,-20.2488C611.8466,-19.9178 620.4337,-19.5738 628.9068,-19.2344"/>
<polygon fill="#191970" stroke="#191970" points="629.3042,-22.7214 639.1561,-18.8239 629.024,-15.727 629.3042,-22.7214"/>
</g>
</g>
</svg>
