<?xml version="1.0" encoding="UTF-8" standalone="no"?>
<!DOCTYPE svg PUBLIC "-//W3C//DTD SVG 1.1//EN"
 "http://www.w3.org/Graphics/SVG/1.1/DTD/svg11.dtd">
<!-- Generated by graphviz version 2.40.1 (20161225.0304)
 -->
<!-- Title: Math::LinearConverter::convertXtoY Pages: 1 -->
<svg width="293pt" height="53pt"
 viewBox="0.00 0.00 292.70 53.00" xmlns="http://www.w3.org/2000/svg" xmlns:xlink="http://www.w3.org/1999/xlink">
<g id="graph0" class="graph" transform="scale(1 1) rotate(0) translate(4 49)">
<title>Math::LinearConverter::convertXtoY</title>
<polygon fill="#ffffff" stroke="transparent" points="-4,4 -4,-49 288.697,-49 288.697,4 -4,4"/>
<!-- Node3 -->
<g id="node1" class="node">
<title>Node3</title>
<polygon fill="#bfbfbf" stroke="#000000" points="0,-6.5 0,-38.5 115.46,-38.5 115.46,-6.5 0,-6.5"/>
<text text-anchor="start" x="8" y="-25.5" font-family="Helvetica,sans-Serif" font-size="10.00" fill="#000000">Math::LinearConverter</text>
<text text-anchor="middle" x="57.73" y="-13.5" font-family="Helvetica,sans-Serif" font-size="10.00" fill="#000000">::convertXtoY</text>
</g>
<!-- Node4 -->
<g id="node2" class="node">
<title>Node4</title>
<g id="a_node2"><a xlink:href="classVehicleControl_1_1IO_1_1ServoControl.html#a27a9e1d9ec14e6ff1b7c27c2cdbdfd2f" target="_top" xlink:title="setDesiredDegree method sets the desired servo position in degrees ">
<polygon fill="#ffffff" stroke="#000000" points="151.46,-.5 151.46,-44.5 284.697,-44.5 284.697,-.5 151.46,-.5"/>
<text text-anchor="start" x="159.46" y="-31.5" font-family="Helvetica,sans-Serif" font-size="10.00" fill="#000000">VehicleControl::IO</text>
<text text-anchor="start" x="159.46" y="-19.5" font-family="Helvetica,sans-Serif" font-size="10.00" fill="#000000">::ServoControl::setDesired</text>
<text text-anchor="middle" x="218.0785" y="-7.5" font-family="Helvetica,sans-Serif" font-size="10.00" fill="#000000">Degree</text>
</a>
</g>
</g>
<!-- Node3&#45;&gt;Node4 -->
<g id="edge1" class="edge">
<title>Node3&#45;&gt;Node4</title>
<path fill="none" stroke="#191970" d="M125.7975,-22.5C134.2373,-22.5 142.8604,-22.5 151.2809,-22.5"/>
<polygon fill="#191970" stroke="#191970" points="125.6195,-19.0001 115.6195,-22.5 125.6195,-26.0001 125.6195,-19.0001"/>
</g>
</g>
</svg>
