<?xml version="1.0" encoding="UTF-8" standalone="no"?>
<!DOCTYPE svg PUBLIC "-//W3C//DTD SVG 1.1//EN"
 "http://www.w3.org/Graphics/SVG/1.1/DTD/svg11.dtd">
<!-- Generated by graphviz version 2.40.1 (20161225.0304)
 -->
<!-- Title: VehicleControl::IO::Output::setValue Pages: 1 -->
<svg width="409pt" height="134pt"
 viewBox="0.00 0.00 408.65 134.00" xmlns="http://www.w3.org/2000/svg" xmlns:xlink="http://www.w3.org/1999/xlink">
<g id="graph0" class="graph" transform="scale(1 1) rotate(0) translate(4 130)">
<title>VehicleControl::IO::Output::setValue</title>
<polygon fill="#ffffff" stroke="transparent" points="-4,4 -4,-130 404.651,-130 404.651,4 -4,4"/>
<!-- Node22 -->
<g id="node1" class="node">
<title>Node22</title>
<polygon fill="#bfbfbf" stroke="#000000" points="0,-45.5 0,-77.5 97.123,-77.5 97.123,-45.5 0,-45.5"/>
<text text-anchor="start" x="8" y="-64.5" font-family="Helvetica,sans-Serif" font-size="10.00" fill="#000000">VehicleControl::IO</text>
<text text-anchor="middle" x="48.5615" y="-52.5" font-family="Helvetica,sans-Serif" font-size="10.00" fill="#000000">::Output::setValue</text>
</g>
<!-- Node23 -->
<g id="node2" class="node">
<title>Node23</title>
<g id="a_node2"><a xlink:href="classVehicleControl_1_1IO_1_1Output.html#a0ff845e3963d2a3e19080b402edfaaf6" target="_top" xlink:title="toggleOutput method toggles the output once ">
<polygon fill="#ffffff" stroke="#000000" points="134.229,-90.5 134.229,-122.5 248.607,-122.5 248.607,-90.5 134.229,-90.5"/>
<text text-anchor="start" x="142.229" y="-109.5" font-family="Helvetica,sans-Serif" font-size="10.00" fill="#000000">VehicleControl::IO</text>
<text text-anchor="middle" x="191.418" y="-97.5" font-family="Helvetica,sans-Serif" font-size="10.00" fill="#000000">::Output::toggleOutput</text>
</a>
</g>
</g>
<!-- Node22&#45;&gt;Node23 -->
<g id="edge1" class="edge">
<title>Node22&#45;&gt;Node23</title>
<path fill="none" stroke="#191970" d="M106.943,-79.8903C118.0473,-83.3881 129.5871,-87.0232 140.4391,-90.4416"/>
<polygon fill="#191970" stroke="#191970" points="107.9146,-76.5268 97.325,-76.8606 105.8114,-83.2034 107.9146,-76.5268"/>
</g>
<!-- Node25 -->
<g id="node4" class="node">
<title>Node25</title>
<g id="a_node4"><a xlink:href="structVehicleControl_1_1IO_1_1Output_1_1Setup.html#a6346d200fcd68fb1693f1e3ae9c9d3af" target="_top" xlink:title="VehicleControl::IO\l::Output::Setup::Setup">
<polygon fill="#ffffff" stroke="#000000" points="285.713,-42.5 285.713,-74.5 400.651,-74.5 400.651,-42.5 285.713,-42.5"/>
<text text-anchor="start" x="293.713" y="-61.5" font-family="Helvetica,sans-Serif" font-size="10.00" fill="#000000">VehicleControl::IO</text>
<text text-anchor="middle" x="343.182" y="-49.5" font-family="Helvetica,sans-Serif" font-size="10.00" fill="#000000">::Output::Setup::Setup</text>
</a>
</g>
</g>
<!-- Node22&#45;&gt;Node25 -->
<g id="edge6" class="edge">
<title>Node22&#45;&gt;Node25</title>
<path fill="none" stroke="#191970" d="M107.2493,-60.9024C159.0563,-60.3749 234.1385,-59.6103 285.6083,-59.0862"/>
<polygon fill="#191970" stroke="#191970" points="107.1759,-57.4029 97.2121,-61.0046 107.2472,-64.4025 107.1759,-57.4029"/>
</g>
<!-- Node26 -->
<g id="node5" class="node">
<title>Node26</title>
<g id="a_node5"><a xlink:href="classVehicleControl_1_1IO_1_1Output.html#a522b8b858e6e80e33b5c82cbe6a40dac" target="_top" xlink:title="cancelToggle cancels toggling ">
<polygon fill="#ffffff" stroke="#000000" points="133.123,-.5 133.123,-32.5 249.713,-32.5 249.713,-.5 133.123,-.5"/>
<text text-anchor="start" x="141.123" y="-19.5" font-family="Helvetica,sans-Serif" font-size="10.00" fill="#000000">VehicleControl::IO</text>
<text text-anchor="middle" x="191.418" y="-7.5" font-family="Helvetica,sans-Serif" font-size="10.00" fill="#000000">::Output::cancelToggle</text>
</a>
</g>
</g>
<!-- Node22&#45;&gt;Node26 -->
<g id="edge4" class="edge">
<title>Node22&#45;&gt;Node26</title>
<path fill="none" stroke="#191970" d="M106.943,-43.1097C118.0473,-39.6119 129.5871,-35.9768 140.4391,-32.5584"/>
<polygon fill="#191970" stroke="#191970" points="105.8114,-39.7966 97.325,-46.1394 107.9146,-46.4732 105.8114,-39.7966"/>
</g>
<!-- Node24 -->
<g id="node3" class="node">
<title>Node24</title>
<g id="a_node3"><a xlink:href="classVehicleControl_1_1IO_1_1Output.html#a08adbcc38e67222f17a35847e72f6ba7" target="_top" xlink:title="toggleOutput method toggles the output every using the time arguement. ">
<polygon fill="#ffffff" stroke="#000000" points="285.993,-93.5 285.993,-125.5 400.371,-125.5 400.371,-93.5 285.993,-93.5"/>
<text text-anchor="start" x="293.993" y="-112.5" font-family="Helvetica,sans-Serif" font-size="10.00" fill="#000000">VehicleControl::IO</text>
<text text-anchor="middle" x="343.182" y="-100.5" font-family="Helvetica,sans-Serif" font-size="10.00" fill="#000000">::Output::toggleOutput</text>
</a>
</g>
</g>
<!-- Node23&#45;&gt;Node24 -->
<g id="edge2" class="edge">
<title>Node23&#45;&gt;Node24</title>
<path fill="none" stroke="#191970" d="M258.9016,-107.834C267.9397,-108.0126 277.1387,-108.1945 285.9772,-108.3692"/>
<polygon fill="#191970" stroke="#191970" points="258.8607,-104.3326 248.7935,-107.6342 258.7223,-111.3312 258.8607,-104.3326"/>
</g>
<!-- Node23&#45;&gt;Node25 -->
<g id="edge3" class="edge">
<title>Node23&#45;&gt;Node25</title>
<path fill="none" stroke="#191970" d="M251.9783,-87.346C265.3618,-83.113 279.4089,-78.6702 292.3591,-74.5743"/>
<polygon fill="#191970" stroke="#191970" points="250.8544,-84.0305 242.3754,-90.3832 252.9654,-90.7046 250.8544,-84.0305"/>
</g>
<!-- Node26&#45;&gt;Node25 -->
<g id="edge5" class="edge">
<title>Node26&#45;&gt;Node25</title>
<path fill="none" stroke="#191970" d="M259.4381,-35.3242C268.1738,-37.7418 277.05,-40.1983 285.5969,-42.5636"/>
<polygon fill="#191970" stroke="#191970" points="260.2312,-31.9122 249.6599,-32.6182 258.3641,-38.6587 260.2312,-31.9122"/>
</g>
</g>
</svg>
