<?xml version="1.0" encoding="UTF-8" standalone="no"?>
<!DOCTYPE svg PUBLIC "-//W3C//DTD SVG 1.1//EN"
 "http://www.w3.org/Graphics/SVG/1.1/DTD/svg11.dtd">
<!-- Generated by graphviz version 2.40.1 (20161225.0304)
 -->
<!-- Title: LibBBB::AnalogToDigitalController::batteryVoltage Pages: 1 -->
<svg width="598pt" height="53pt"
 viewBox="0.00 0.00 598.37 53.00" xmlns="http://www.w3.org/2000/svg" xmlns:xlink="http://www.w3.org/1999/xlink">
<g id="graph0" class="graph" transform="scale(1 1) rotate(0) translate(4 49)">
<title>LibBBB::AnalogToDigitalController::batteryVoltage</title>
<polygon fill="#ffffff" stroke="transparent" points="-4,4 -4,-49 594.375,-49 594.375,4 -4,4"/>
<!-- Node12 -->
<g id="node1" class="node">
<title>Node12</title>
<polygon fill="#bfbfbf" stroke="#000000" points="0,-6.5 0,-38.5 168.797,-38.5 168.797,-6.5 0,-6.5"/>
<text text-anchor="start" x="8" y="-25.5" font-family="Helvetica,sans-Serif" font-size="10.00" fill="#000000">LibBBB::AnalogToDigitalController</text>
<text text-anchor="middle" x="84.3985" y="-13.5" font-family="Helvetica,sans-Serif" font-size="10.00" fill="#000000">::batteryVoltage</text>
</g>
<!-- Node13 -->
<g id="node2" class="node">
<title>Node13</title>
<g id="a_node2"><a xlink:href="classVehicleControl_1_1Control_1_1CommunicationProtocolParser.html#abdbab1c6376e364c7064e5c5b04f0168" target="_top" xlink:title="sendOutgoingPackets packs and send outgoing data. This method takes care of packing bools into a sing...">
<polygon fill="#ffffff" stroke="#000000" points="204.797,-.5 204.797,-44.5 361.921,-44.5 361.921,-.5 204.797,-.5"/>
<text text-anchor="start" x="212.797" y="-31.5" font-family="Helvetica,sans-Serif" font-size="10.00" fill="#000000">VehicleControl::Control</text>
<text text-anchor="start" x="212.797" y="-19.5" font-family="Helvetica,sans-Serif" font-size="10.00" fill="#000000">::CommunicationProtocolParser</text>
<text text-anchor="middle" x="283.359" y="-7.5" font-family="Helvetica,sans-Serif" font-size="10.00" fill="#000000">::sendOutgoingPackets</text>
</a>
</g>
</g>
<!-- Node12&#45;&gt;Node13 -->
<g id="edge1" class="edge">
<title>Node12&#45;&gt;Node13</title>
<path fill="none" stroke="#191970" d="M179.1116,-22.5C187.7023,-22.5 196.3405,-22.5 204.7692,-22.5"/>
<polygon fill="#191970" stroke="#191970" points="179.0642,-19.0001 169.0642,-22.5 179.0641,-26.0001 179.0642,-19.0001"/>
</g>
<!-- Node14 -->
<g id="node3" class="node">
<title>Node14</title>
<g id="a_node3"><a xlink:href="classVehicleControl_1_1Control.html#af677fb9565407041290bbf7b681802e5" target="_top" xlink:title="update method that controls the vehicle ">
<polygon fill="#ffffff" stroke="#000000" points="397.921,-6.5 397.921,-38.5 516.709,-38.5 516.709,-6.5 397.921,-6.5"/>
<text text-anchor="start" x="405.921" y="-25.5" font-family="Helvetica,sans-Serif" font-size="10.00" fill="#000000">VehicleControl::Control</text>
<text text-anchor="middle" x="457.315" y="-13.5" font-family="Helvetica,sans-Serif" font-size="10.00" fill="#000000">::update</text>
</a>
</g>
</g>
<!-- Node13&#45;&gt;Node14 -->
<g id="edge2" class="edge">
<title>Node13&#45;&gt;Node14</title>
<path fill="none" stroke="#191970" d="M372.1503,-22.5C380.8566,-22.5 389.5387,-22.5 397.8474,-22.5"/>
<polygon fill="#191970" stroke="#191970" points="371.9397,-19.0001 361.9396,-22.5 371.9396,-26.0001 371.9397,-19.0001"/>
</g>
<!-- Node15 -->
<g id="node4" class="node">
<title>Node15</title>
<g id="a_node4"><a xlink:href="main_8cpp.html#ae66f6b31b5ad750f1fe042a706a4e3d4" target="_top" xlink:title="main">
<polygon fill="#ffffff" stroke="#000000" points="552.709,-12.5 552.709,-32.5 590.375,-32.5 590.375,-12.5 552.709,-12.5"/>
<text text-anchor="middle" x="571.542" y="-19.5" font-family="Helvetica,sans-Serif" font-size="10.00" fill="#000000">main</text>
</a>
</g>
</g>
<!-- Node14&#45;&gt;Node15 -->
<g id="edge3" class="edge">
<title>Node14&#45;&gt;Node15</title>
<path fill="none" stroke="#191970" d="M527.0529,-22.5C536.4037,-22.5 545.2793,-22.5 552.6076,-22.5"/>
<polygon fill="#191970" stroke="#191970" points="526.7705,-19.0001 516.7705,-22.5 526.7704,-26.0001 526.7705,-19.0001"/>
</g>
</g>
</svg>
