<?xml version="1.0" encoding="UTF-8" standalone="no"?>
<!DOCTYPE svg PUBLIC "-//W3C//DTD SVG 1.1//EN"
 "http://www.w3.org/Graphics/SVG/1.1/DTD/svg11.dtd">
<!-- Generated by graphviz version 2.40.1 (20161225.0304)
 -->
<!-- Title: VehicleControl::IO::IOBase::getValue Pages: 1 -->
<svg width="241pt" height="41pt"
 viewBox="0.00 0.00 241.05 41.00" xmlns="http://www.w3.org/2000/svg" xmlns:xlink="http://www.w3.org/1999/xlink">
<g id="graph0" class="graph" transform="scale(1 1) rotate(0) translate(4 37)">
<title>VehicleControl::IO::IOBase::getValue</title>
<polygon fill="#ffffff" stroke="transparent" points="-4,4 -4,-37 237.046,-37 237.046,4 -4,4"/>
<!-- Node11 -->
<g id="node1" class="node">
<title>Node11</title>
<polygon fill="#bfbfbf" stroke="#000000" points="0,-.5 0,-32.5 99.923,-32.5 99.923,-.5 0,-.5"/>
<text text-anchor="start" x="8" y="-19.5" font-family="Helvetica,sans-Serif" font-size="10.00" fill="#000000">VehicleControl::IO</text>
<text text-anchor="middle" x="49.9615" y="-7.5" font-family="Helvetica,sans-Serif" font-size="10.00" fill="#000000">::IOBase::getValue</text>
</g>
<!-- Node12 -->
<g id="node2" class="node">
<title>Node12</title>
<g id="a_node2"><a xlink:href="classVehicleControl_1_1IO_1_1IOBase.html#a1da47fda987bfedb4ec3c7fb446c09c7" target="_top" xlink:title="read function that reads the value of the given file filename ">
<polygon fill="#ffffff" stroke="#000000" points="135.923,-.5 135.923,-32.5 233.046,-32.5 233.046,-.5 135.923,-.5"/>
<text text-anchor="start" x="143.923" y="-19.5" font-family="Helvetica,sans-Serif" font-size="10.00" fill="#000000">VehicleControl::IO</text>
<text text-anchor="middle" x="184.4845" y="-7.5" font-family="Helvetica,sans-Serif" font-size="10.00" fill="#000000">::IOBase::read</text>
</a>
</g>
</g>
<!-- Node11&#45;&gt;Node12 -->
<g id="edge1" class="edge">
<title>Node11&#45;&gt;Node12</title>
<path fill="none" stroke="#191970" d="M100.0529,-16.5C108.3377,-16.5 116.9949,-16.5 125.4745,-16.5"/>
<polygon fill="#191970" stroke="#191970" points="125.6928,-20.0001 135.6927,-16.5 125.6927,-13.0001 125.6928,-20.0001"/>
</g>
</g>
</svg>
