<?xml version="1.0" encoding="UTF-8" standalone="no"?>
<!DOCTYPE svg PUBLIC "-//W3C//DTD SVG 1.1//EN"
 "http://www.w3.org/Graphics/SVG/1.1/DTD/svg11.dtd">
<!-- Generated by graphviz version 2.40.1 (20161225.0304)
 -->
<!-- Title: VehicleControl::IO::UserLED::UserLED Pages: 1 -->
<svg width="278pt" height="41pt"
 viewBox="0.00 0.00 277.70 41.00" xmlns="http://www.w3.org/2000/svg" xmlns:xlink="http://www.w3.org/1999/xlink">
<g id="graph0" class="graph" transform="scale(1 1) rotate(0) translate(4 37)">
<title>VehicleControl::IO::UserLED::UserLED</title>
<polygon fill="#ffffff" stroke="transparent" points="-4,4 -4,-37 273.702,-37 273.702,4 -4,4"/>
<!-- Node2 -->
<g id="node1" class="node">
<title>Node2</title>
<polygon fill="#bfbfbf" stroke="#000000" points="0,-.5 0,-32.5 108.224,-32.5 108.224,-.5 0,-.5"/>
<text text-anchor="start" x="8" y="-19.5" font-family="Helvetica,sans-Serif" font-size="10.00" fill="#000000">VehicleControl::IO</text>
<text text-anchor="middle" x="54.112" y="-7.5" font-family="Helvetica,sans-Serif" font-size="10.00" fill="#000000">::UserLED::UserLED</text>
</g>
<!-- Node3 -->
<g id="node2" class="node">
<title>Node3</title>
<g id="a_node2"><a xlink:href="structVehicleControl_1_1IO_1_1UserLED_1_1Setup.html#a0f7dc4714f6c82868c4d3bad8baaf4c6" target="_top" xlink:title="VehicleControl::IO\l::UserLED::Setup::Setup">
<polygon fill="#ffffff" stroke="#000000" points="144.224,-.5 144.224,-32.5 269.702,-32.5 269.702,-.5 144.224,-.5"/>
<text text-anchor="start" x="152.224" y="-19.5" font-family="Helvetica,sans-Serif" font-size="10.00" fill="#000000">VehicleControl::IO</text>
<text text-anchor="middle" x="206.963" y="-7.5" font-family="Helvetica,sans-Serif" font-size="10.00" fill="#000000">::UserLED::Setup::Setup</text>
</a>
</g>
</g>
<!-- Node2&#45;&gt;Node3 -->
<g id="edge1" class="edge">
<title>Node2&#45;&gt;Node3</title>
<path fill="none" stroke="#191970" d="M118.6345,-16.5C127.1037,-16.5 135.7728,-16.5 144.212,-16.5"/>
<polygon fill="#191970" stroke="#191970" points="118.432,-13.0001 108.4319,-16.5 118.4319,-20.0001 118.432,-13.0001"/>
</g>
</g>
</svg>
