<?xml version="1.0" encoding="UTF-8" standalone="no"?>
<!DOCTYPE svg PUBLIC "-//W3C//DTD SVG 1.1//EN"
 "http://www.w3.org/Graphics/SVG/1.1/DTD/svg11.dtd">
<!-- Generated by graphviz version 2.40.1 (20161225.0304)
 -->
<!-- Title: VehicleControl::Bluetooth::Base::startBothThreads Pages: 1 -->
<svg width="302pt" height="110pt"
 viewBox="0.00 0.00 301.61 110.00" xmlns="http://www.w3.org/2000/svg" xmlns:xlink="http://www.w3.org/1999/xlink">
<g id="graph0" class="graph" transform="scale(1 1) rotate(0) translate(4 106)">
<title>VehicleControl::Bluetooth::Base::startBothThreads</title>
<polygon fill="#ffffff" stroke="transparent" points="-4,4 -4,-106 297.612,-106 297.612,4 -4,4"/>
<!-- Node29 -->
<g id="node1" class="node">
<title>Node29</title>
<polygon fill="#bfbfbf" stroke="#000000" points="0,-34.5 0,-66.5 128.806,-66.5 128.806,-34.5 0,-34.5"/>
<text text-anchor="start" x="8" y="-53.5" font-family="Helvetica,sans-Serif" font-size="10.00" fill="#000000">VehicleControl::Bluetooth</text>
<text text-anchor="middle" x="64.403" y="-41.5" font-family="Helvetica,sans-Serif" font-size="10.00" fill="#000000">::Base::startBothThreads</text>
</g>
<!-- Node30 -->
<g id="node2" class="node">
<title>Node30</title>
<g id="a_node2"><a xlink:href="classVehicleControl_1_1Bluetooth_1_1Client.html#a83777b221312c408d42d8dfcb0b807b8" target="_top" xlink:title="VehicleControl::Bluetooth\l::Client::isConnected">
<polygon fill="#ffffff" stroke="#000000" points="164.806,-69.5 164.806,-101.5 293.612,-101.5 293.612,-69.5 164.806,-69.5"/>
<text text-anchor="start" x="172.806" y="-88.5" font-family="Helvetica,sans-Serif" font-size="10.00" fill="#000000">VehicleControl::Bluetooth</text>
<text text-anchor="middle" x="229.209" y="-76.5" font-family="Helvetica,sans-Serif" font-size="10.00" fill="#000000">::Client::isConnected</text>
</a>
</g>
</g>
<!-- Node29&#45;&gt;Node30 -->
<g id="edge1" class="edge">
<title>Node29&#45;&gt;Node30</title>
<path fill="none" stroke="#191970" d="M139.054,-66.3537C147.6258,-68.1741 156.3106,-70.0185 164.7328,-71.8071"/>
<polygon fill="#191970" stroke="#191970" points="139.5746,-62.8863 129.0657,-64.2325 138.1204,-69.7336 139.5746,-62.8863"/>
</g>
<!-- Node31 -->
<g id="node3" class="node">
<title>Node31</title>
<g id="a_node3"><a xlink:href="classVehicleControl_1_1Bluetooth_1_1Server.html#af5d9733f754be78891f8189f6f63ac90" target="_top" xlink:title="VehicleControl::Bluetooth\l::Server::isConnected">
<polygon fill="#ffffff" stroke="#000000" points="164.806,-.5 164.806,-32.5 293.612,-32.5 293.612,-.5 164.806,-.5"/>
<text text-anchor="start" x="172.806" y="-19.5" font-family="Helvetica,sans-Serif" font-size="10.00" fill="#000000">VehicleControl::Bluetooth</text>
<text text-anchor="middle" x="229.209" y="-7.5" font-family="Helvetica,sans-Serif" font-size="10.00" fill="#000000">::Server::isConnected</text>
</a>
</g>
</g>
<!-- Node29&#45;&gt;Node31 -->
<g id="edge2" class="edge">
<title>Node29&#45;&gt;Node31</title>
<path fill="none" stroke="#191970" d="M139.054,-35.0993C147.6258,-33.3309 156.3106,-31.5392 164.7328,-29.8016"/>
<polygon fill="#191970" stroke="#191970" points="138.1522,-31.7115 129.0657,-37.1599 139.5666,-38.5671 138.1522,-31.7115"/>
</g>
<!-- Node31&#45;&gt;Node31 -->
<g id="edge3" class="edge">
<title>Node31&#45;&gt;Node31</title>
<path fill="none" stroke="#191970" d="M200.3472,-43.0753C204.1684,-47.7466 213.789,-51 229.209,-51 254.5137,-51 264.2006,-42.2388 258.2699,-32.8274"/>
<polygon fill="#191970" stroke="#191970" points="203.8418,-42.7575 200.1481,-32.8274 196.8431,-42.8935 203.8418,-42.7575"/>
</g>
</g>
</svg>
