<?xml version="1.0" encoding="UTF-8" standalone="no"?>
<!DOCTYPE svg PUBLIC "-//W3C//DTD SVG 1.1//EN"
 "http://www.w3.org/Graphics/SVG/1.1/DTD/svg11.dtd">
<!-- Generated by graphviz version 2.40.1 (20161225.0304)
 -->
<!-- Title: VehicleControl::IO::MotorControl::setPulseWidth Pages: 1 -->
<svg width="342pt" height="92pt"
 viewBox="0.00 0.00 341.59 92.00" xmlns="http://www.w3.org/2000/svg" xmlns:xlink="http://www.w3.org/1999/xlink">
<g id="graph0" class="graph" transform="scale(1 1) rotate(0) translate(4 88)">
<title>VehicleControl::IO::MotorControl::setPulseWidth</title>
<polygon fill="#ffffff" stroke="transparent" points="-4,4 -4,-88 337.586,-88 337.586,4 -4,4"/>
<!-- Node43 -->
<g id="node1" class="node">
<title>Node43</title>
<polygon fill="#bfbfbf" stroke="#000000" points="0,-25.5 0,-57.5 148.793,-57.5 148.793,-25.5 0,-25.5"/>
<text text-anchor="start" x="8" y="-44.5" font-family="Helvetica,sans-Serif" font-size="10.00" fill="#000000">VehicleControl::IO</text>
<text text-anchor="middle" x="74.3965" y="-32.5" font-family="Helvetica,sans-Serif" font-size="10.00" fill="#000000">::MotorControl::setPulseWidth</text>
</g>
<!-- Node44 -->
<g id="node2" class="node">
<title>Node44</title>
<g id="a_node2"><a xlink:href="classVehicleControl_1_1IO_1_1MotorControl.html#aa3d0162e477010fd1d60e53d76b69a5c" target="_top" xlink:title="pulseWidth getter ">
<polygon fill="#ffffff" stroke="#000000" points="192.017,-51.5 192.017,-83.5 326.362,-83.5 326.362,-51.5 192.017,-51.5"/>
<text text-anchor="start" x="200.017" y="-70.5" font-family="Helvetica,sans-Serif" font-size="10.00" fill="#000000">VehicleControl::IO</text>
<text text-anchor="middle" x="259.1895" y="-58.5" font-family="Helvetica,sans-Serif" font-size="10.00" fill="#000000">::MotorControl::pulseWidth</text>
</a>
</g>
</g>
<!-- Node43&#45;&gt;Node44 -->
<g id="edge1" class="edge">
<title>Node43&#45;&gt;Node44</title>
<path fill="none" stroke="#191970" d="M149.0262,-52.0003C159.7295,-53.5062 170.7633,-55.0586 181.5236,-56.5726"/>
<polygon fill="#191970" stroke="#191970" points="181.3464,-60.082 191.7366,-58.0095 182.3218,-53.1503 181.3464,-60.082"/>
</g>
<!-- Node45 -->
<g id="node3" class="node">
<title>Node45</title>
<g id="a_node3"><a xlink:href="classVehicleControl_1_1IO_1_1MotorControl.html#acbd458d9cb594ef6851dda1e67521d1b" target="_top" xlink:title="setPulseWidth sets the pulse width of the signal ">
<polygon fill="#ffffff" stroke="#000000" points="184.793,-.5 184.793,-32.5 333.586,-32.5 333.586,-.5 184.793,-.5"/>
<text text-anchor="start" x="192.793" y="-19.5" font-family="Helvetica,sans-Serif" font-size="10.00" fill="#000000">VehicleControl::IO</text>
<text text-anchor="middle" x="259.1895" y="-7.5" font-family="Helvetica,sans-Serif" font-size="10.00" fill="#000000">::MotorControl::setPulseWidth</text>
</a>
</g>
</g>
<!-- Node43&#45;&gt;Node45 -->
<g id="edge2" class="edge">
<title>Node43&#45;&gt;Node45</title>
<path fill="none" stroke="#191970" d="M149.0262,-31.4036C157.4499,-30.264 166.0783,-29.0967 174.6169,-27.9415"/>
<polygon fill="#191970" stroke="#191970" points="175.1411,-31.4026 184.5816,-26.5934 174.2026,-24.4658 175.1411,-31.4026"/>
</g>
</g>
</svg>
