<?xml version="1.0" encoding="UTF-8" standalone="no"?>
<!DOCTYPE svg PUBLIC "-//W3C//DTD SVG 1.1//EN"
 "http://www.w3.org/Graphics/SVG/1.1/DTD/svg11.dtd">
<!-- Generated by graphviz version 2.40.1 (20161225.0304)
 -->
<!-- Title: LibBBB::Bluetooth::Manager::isConnected Pages: 1 -->
<svg width="353pt" height="41pt"
 viewBox="0.00 0.00 353.04 41.00" xmlns="http://www.w3.org/2000/svg" xmlns:xlink="http://www.w3.org/1999/xlink">
<g id="graph0" class="graph" transform="scale(1 1) rotate(0) translate(4 37)">
<title>LibBBB::Bluetooth::Manager::isConnected</title>
<polygon fill="#ffffff" stroke="transparent" points="-4,4 -4,-37 349.036,-37 349.036,4 -4,4"/>
<!-- Node7 -->
<g id="node1" class="node">
<title>Node7</title>
<polygon fill="#bfbfbf" stroke="#000000" points="0,-.5 0,-32.5 116.582,-32.5 116.582,-.5 0,-.5"/>
<text text-anchor="start" x="8" y="-19.5" font-family="Helvetica,sans-Serif" font-size="10.00" fill="#000000">LibBBB::Bluetooth::</text>
<text text-anchor="middle" x="58.291" y="-7.5" font-family="Helvetica,sans-Serif" font-size="10.00" fill="#000000">Manager::isConnected</text>
</g>
<!-- Node8 -->
<g id="node2" class="node">
<title>Node8</title>
<g id="a_node2"><a xlink:href="classVehicleControl_1_1Control.html#af677fb9565407041290bbf7b681802e5" target="_top" xlink:title="update method that controls the vehicle ">
<polygon fill="#ffffff" stroke="#000000" points="152.582,-.5 152.582,-32.5 271.37,-32.5 271.37,-.5 152.582,-.5"/>
<text text-anchor="start" x="160.582" y="-19.5" font-family="Helvetica,sans-Serif" font-size="10.00" fill="#000000">VehicleControl::Control</text>
<text text-anchor="middle" x="211.976" y="-7.5" font-family="Helvetica,sans-Serif" font-size="10.00" fill="#000000">::update</text>
</a>
</g>
</g>
<!-- Node7&#45;&gt;Node8 -->
<g id="edge1" class="edge">
<title>Node7&#45;&gt;Node8</title>
<path fill="none" stroke="#191970" d="M127.105,-16.5C135.6048,-16.5 144.2371,-16.5 152.5797,-16.5"/>
<polygon fill="#191970" stroke="#191970" points="126.8312,-13.0001 116.8311,-16.5 126.8311,-20.0001 126.8312,-13.0001"/>
</g>
<!-- Node9 -->
<g id="node3" class="node">
<title>Node9</title>
<g id="a_node3"><a xlink:href="main_8cpp.html#ae66f6b31b5ad750f1fe042a706a4e3d4" target="_top" xlink:title="main">
<polygon fill="#ffffff" stroke="#000000" points="307.37,-6.5 307.37,-26.5 345.036,-26.5 345.036,-6.5 307.37,-6.5"/>
<text text-anchor="middle" x="326.203" y="-13.5" font-family="Helvetica,sans-Serif" font-size="10.00" fill="#000000">main</text>
</a>
</g>
</g>
<!-- Node8&#45;&gt;Node9 -->
<g id="edge2" class="edge">
<title>Node8&#45;&gt;Node9</title>
<path fill="none" stroke="#191970" d="M281.7139,-16.5C291.0647,-16.5 299.9403,-16.5 307.2686,-16.5"/>
<polygon fill="#191970" stroke="#191970" points="281.4315,-13.0001 271.4315,-16.5 281.4314,-20.0001 281.4315,-13.0001"/>
</g>
</g>
</svg>
