<?xml version="1.0" encoding="UTF-8" standalone="no"?>
<!DOCTYPE svg PUBLIC "-//W3C//DTD SVG 1.1//EN"
 "http://www.w3.org/Graphics/SVG/1.1/DTD/svg11.dtd">
<!-- Generated by graphviz version 2.40.1 (20161225.0304)
 -->
<!-- Title: VehicleControl::IO::Input::setEdgeType Pages: 1 -->
<svg width="393pt" height="63pt"
 viewBox="0.00 0.00 392.54 63.00" xmlns="http://www.w3.org/2000/svg" xmlns:xlink="http://www.w3.org/1999/xlink">
<g id="graph0" class="graph" transform="scale(1 1) rotate(0) translate(4 59)">
<title>VehicleControl::IO::Input::setEdgeType</title>
<polygon fill="#ffffff" stroke="transparent" points="-4,4 -4,-59 388.544,-59 388.544,4 -4,4"/>
<!-- Node38 -->
<g id="node1" class="node">
<title>Node38</title>
<polygon fill="#bfbfbf" stroke="#000000" points="0,-22.5 0,-54.5 108.262,-54.5 108.262,-22.5 0,-22.5"/>
<text text-anchor="start" x="8" y="-41.5" font-family="Helvetica,sans-Serif" font-size="10.00" fill="#000000">VehicleControl::IO</text>
<text text-anchor="middle" x="54.131" y="-29.5" font-family="Helvetica,sans-Serif" font-size="10.00" fill="#000000">::Input::setEdgeType</text>
</g>
<!-- Node39 -->
<g id="node2" class="node">
<title>Node39</title>
<g id="a_node2"><a xlink:href="structVehicleControl_1_1IO_1_1Input_1_1Setup.html#a09ce07a96559b6f63eaa51d8eccbc877" target="_top" xlink:title="VehicleControl::IO\l::Input::Setup::Setup">
<polygon fill="#ffffff" stroke="#000000" points="277.385,-22.5 277.385,-54.5 384.544,-54.5 384.544,-22.5 277.385,-22.5"/>
<text text-anchor="start" x="285.385" y="-41.5" font-family="Helvetica,sans-Serif" font-size="10.00" fill="#000000">VehicleControl::IO</text>
<text text-anchor="middle" x="330.9645" y="-29.5" font-family="Helvetica,sans-Serif" font-size="10.00" fill="#000000">::Input::Setup::Setup</text>
</a>
</g>
</g>
<!-- Node38&#45;&gt;Node39 -->
<g id="edge1" class="edge">
<title>Node38&#45;&gt;Node39</title>
<path fill="none" stroke="#191970" d="M118.5245,-41.7059C127.1747,-42.0346 135.9332,-42.3153 144.262,-42.5 187.4172,-43.4571 198.23,-43.463 241.385,-42.5 252.9021,-42.243 265.2459,-41.8003 276.9761,-41.3008"/>
<polygon fill="#191970" stroke="#191970" points="118.5846,-38.2056 108.452,-41.3008 118.3032,-45.2 118.5846,-38.2056"/>
</g>
<!-- Node40 -->
<g id="node3" class="node">
<title>Node40</title>
<g id="a_node3"><a xlink:href="classVehicleControl_1_1IO_1_1Input.html#aeb47b17475e36a509b1bd2ac115a42a0" target="_top" xlink:title="Input constructs an input based on the given setup. The constructor will automatically export the pin...">
<polygon fill="#ffffff" stroke="#000000" points="144.262,-.5 144.262,-32.5 241.385,-32.5 241.385,-.5 144.262,-.5"/>
<text text-anchor="start" x="152.262" y="-19.5" font-family="Helvetica,sans-Serif" font-size="10.00" fill="#000000">VehicleControl::IO</text>
<text text-anchor="middle" x="192.8235" y="-7.5" font-family="Helvetica,sans-Serif" font-size="10.00" fill="#000000">::Input::Input</text>
</a>
</g>
</g>
<!-- Node38&#45;&gt;Node40 -->
<g id="edge2" class="edge">
<title>Node38&#45;&gt;Node40</title>
<path fill="none" stroke="#191970" d="M118.5183,-28.2866C127.078,-26.9288 135.739,-25.555 143.976,-24.2484"/>
<polygon fill="#191970" stroke="#191970" points="117.876,-24.8446 108.5479,-29.8682 118.9728,-31.7582 117.876,-24.8446"/>
</g>
<!-- Node40&#45;&gt;Node39 -->
<g id="edge3" class="edge">
<title>Node40&#45;&gt;Node39</title>
<path fill="none" stroke="#191970" d="M251.669,-25.8716C260.0966,-27.2137 268.7319,-28.589 277.058,-29.915"/>
<polygon fill="#191970" stroke="#191970" points="251.9529,-22.3728 241.5268,-24.2564 250.8519,-29.2857 251.9529,-22.3728"/>
</g>
</g>
</svg>
