<?xml version="1.0" encoding="UTF-8" standalone="no"?>
<!DOCTYPE svg PUBLIC "-//W3C//DTD SVG 1.1//EN"
 "http://www.w3.org/Graphics/SVG/1.1/DTD/svg11.dtd">
<!-- Generated by graphviz version 2.40.1 (20161225.0304)
 -->
<!-- Title: Core::IO::UserLED::changeBlinkTime Pages: 1 -->
<svg width="436pt" height="92pt"
 viewBox="0.00 0.00 435.82 92.00" xmlns="http://www.w3.org/2000/svg" xmlns:xlink="http://www.w3.org/1999/xlink">
<g id="graph0" class="graph" transform="scale(1 1) rotate(0) translate(4 88)">
<title>Core::IO::UserLED::changeBlinkTime</title>
<polygon fill="#ffffff" stroke="transparent" points="-4,4 -4,-88 431.819,-88 431.819,4 -4,4"/>
<!-- Node7 -->
<g id="node1" class="node">
<title>Node7</title>
<polygon fill="#bfbfbf" stroke="#000000" points="0,-25.5 0,-57.5 105.452,-57.5 105.452,-25.5 0,-25.5"/>
<text text-anchor="start" x="8" y="-44.5" font-family="Helvetica,sans-Serif" font-size="10.00" fill="#000000">Core::IO::UserLED::</text>
<text text-anchor="middle" x="52.726" y="-32.5" font-family="Helvetica,sans-Serif" font-size="10.00" fill="#000000">changeBlinkTime</text>
</g>
<!-- Node8 -->
<g id="node2" class="node">
<title>Node8</title>
<g id="a_node2"><a xlink:href="classCore_1_1IO_1_1UserLED.html#ac39c3ed451b83046ff37ecb4ccff142c" target="_top" xlink:title="setState method sets the state of the LED ">
<polygon fill="#ffffff" stroke="#000000" points="141.452,-25.5 141.452,-57.5 246.904,-57.5 246.904,-25.5 141.452,-25.5"/>
<text text-anchor="start" x="149.452" y="-44.5" font-family="Helvetica,sans-Serif" font-size="10.00" fill="#000000">Core::IO::UserLED::</text>
<text text-anchor="middle" x="194.178" y="-32.5" font-family="Helvetica,sans-Serif" font-size="10.00" fill="#000000">setState</text>
</a>
</g>
</g>
<!-- Node7&#45;&gt;Node8 -->
<g id="edge1" class="edge">
<title>Node7&#45;&gt;Node8</title>
<path fill="none" stroke="#191970" d="M105.7999,-41.5C114.0484,-41.5 122.6391,-41.5 131.083,-41.5"/>
<polygon fill="#191970" stroke="#191970" points="131.2771,-45.0001 141.277,-41.5 131.277,-38.0001 131.2771,-45.0001"/>
</g>
<!-- Node9 -->
<g id="node3" class="node">
<title>Node9</title>
<g id="a_node3"><a xlink:href="classCore_1_1IO_1_1UserLED.html#a5d7887f070c9ce082f8be1d3aae448d2" target="_top" xlink:title="state getter ">
<polygon fill="#ffffff" stroke="#000000" points="302.6355,-51.5 302.6355,-83.5 408.0875,-83.5 408.0875,-51.5 302.6355,-51.5"/>
<text text-anchor="start" x="310.6355" y="-70.5" font-family="Helvetica,sans-Serif" font-size="10.00" fill="#000000">Core::IO::UserLED::</text>
<text text-anchor="middle" x="355.3615" y="-58.5" font-family="Helvetica,sans-Serif" font-size="10.00" fill="#000000">state</text>
</a>
</g>
</g>
<!-- Node8&#45;&gt;Node9 -->
<g id="edge2" class="edge">
<title>Node8&#45;&gt;Node9</title>
<path fill="none" stroke="#191970" d="M246.9555,-50.0134C261.4274,-52.3478 277.2632,-54.9022 292.2515,-57.3199"/>
<polygon fill="#191970" stroke="#191970" points="292.0356,-60.8303 302.4654,-58.9675 293.1504,-53.9196 292.0356,-60.8303"/>
</g>
<!-- Node10 -->
<g id="node4" class="node">
<title>Node10</title>
<g id="a_node4"><a xlink:href="classThreadHelper.html#a4426e115e7858a4b6f6eedbc77302756" target="_top" xlink:title="startDetachedThread ">
<polygon fill="#ffffff" stroke="#000000" points="282.904,-.5 282.904,-32.5 427.819,-32.5 427.819,-.5 282.904,-.5"/>
<text text-anchor="start" x="290.904" y="-19.5" font-family="Helvetica,sans-Serif" font-size="10.00" fill="#000000">ThreadHelper::startDetached</text>
<text text-anchor="middle" x="355.3615" y="-7.5" font-family="Helvetica,sans-Serif" font-size="10.00" fill="#000000">Thread</text>
</a>
</g>
</g>
<!-- Node8&#45;&gt;Node10 -->
<g id="edge3" class="edge">
<title>Node8&#45;&gt;Node10</title>
<path fill="none" stroke="#191970" d="M246.9555,-33.3141C255.2939,-32.0208 264.0851,-30.6572 272.9061,-29.2891"/>
<polygon fill="#191970" stroke="#191970" points="273.5101,-32.7373 282.8554,-27.7459 272.4371,-25.82 273.5101,-32.7373"/>
</g>
</g>
</svg>
