<?xml version="1.0" encoding="UTF-8" standalone="no"?>
<!DOCTYPE svg PUBLIC "-//W3C//DTD SVG 1.1//EN"
 "http://www.w3.org/Graphics/SVG/1.1/DTD/svg11.dtd">
<!-- Generated by graphviz version 2.40.1 (20161225.0304)
 -->
<!-- Title: VehicleControl::IO::MotorControl::setPulseWidth Pages: 1 -->
<svg width="342pt" height="155pt"
 viewBox="0.00 0.00 341.59 155.00" xmlns="http://www.w3.org/2000/svg" xmlns:xlink="http://www.w3.org/1999/xlink">
<g id="graph0" class="graph" transform="scale(1 1) rotate(0) translate(4 151)">
<title>VehicleControl::IO::MotorControl::setPulseWidth</title>
<polygon fill="#ffffff" stroke="transparent" points="-4,4 -4,-151 337.586,-151 337.586,4 -4,4"/>
<!-- Node39 -->
<g id="node1" class="node">
<title>Node39</title>
<polygon fill="#bfbfbf" stroke="#000000" points="0,-63.5 0,-95.5 148.793,-95.5 148.793,-63.5 0,-63.5"/>
<text text-anchor="start" x="8" y="-82.5" font-family="Helvetica,sans-Serif" font-size="10.00" fill="#000000">VehicleControl::IO</text>
<text text-anchor="middle" x="74.3965" y="-70.5" font-family="Helvetica,sans-Serif" font-size="10.00" fill="#000000">::MotorControl::setPulseWidth</text>
</g>
<!-- Node40 -->
<g id="node2" class="node">
<title>Node40</title>
<g id="a_node2"><a xlink:href="classVehicleControl_1_1IO_1_1MotorControl.html#acc47708aa71a6501afc203a737847488" target="_top" xlink:title="setPulseWidth sets the final pulse width of the signal using the given ramp time ">
<polygon fill="#ffffff" stroke="#000000" points="184.793,-114.5 184.793,-146.5 333.586,-146.5 333.586,-114.5 184.793,-114.5"/>
<text text-anchor="start" x="192.793" y="-133.5" font-family="Helvetica,sans-Serif" font-size="10.00" fill="#000000">VehicleControl::IO</text>
<text text-anchor="middle" x="259.1895" y="-121.5" font-family="Helvetica,sans-Serif" font-size="10.00" fill="#000000">::MotorControl::setPulseWidth</text>
</a>
</g>
</g>
<!-- Node39&#45;&gt;Node40 -->
<g id="edge1" class="edge">
<title>Node39&#45;&gt;Node40</title>
<path fill="none" stroke="#191970" d="M142.4934,-98.2937C161.6878,-103.591 182.3883,-109.304 200.9487,-114.4264"/>
<polygon fill="#191970" stroke="#191970" points="143.1833,-94.8533 132.6125,-95.5667 141.321,-101.601 143.1833,-94.8533"/>
</g>
<!-- Node41 -->
<g id="node3" class="node">
<title>Node41</title>
<g id="a_node3"><a xlink:href="classVehicleControl_1_1IO_1_1MotorControl.html#a0f8d19d6f6ddfda7b905c7bdcd03f27f" target="_top" xlink:title="setDutyCycle setter ">
<polygon fill="#ffffff" stroke="#000000" points="187.2965,-63.5 187.2965,-95.5 331.0825,-95.5 331.0825,-63.5 187.2965,-63.5"/>
<text text-anchor="start" x="195.2965" y="-82.5" font-family="Helvetica,sans-Serif" font-size="10.00" fill="#000000">VehicleControl::IO</text>
<text text-anchor="middle" x="259.1895" y="-70.5" font-family="Helvetica,sans-Serif" font-size="10.00" fill="#000000">::MotorControl::setDutyCycle</text>
</a>
</g>
</g>
<!-- Node39&#45;&gt;Node41 -->
<g id="edge2" class="edge">
<title>Node39&#45;&gt;Node41</title>
<path fill="none" stroke="#191970" d="M159.1626,-79.5C168.5594,-79.5 178.0622,-79.5 187.2787,-79.5"/>
<polygon fill="#191970" stroke="#191970" points="159.0263,-76.0001 149.0262,-79.5 159.0262,-83.0001 159.0263,-76.0001"/>
</g>
<!-- Node42 -->
<g id="node4" class="node">
<title>Node42</title>
<g id="a_node4"><a xlink:href="classVehicleControl_1_1IO_1_1ServoControl.html#a27a9e1d9ec14e6ff1b7c27c2cdbdfd2f" target="_top" xlink:title="setDesiredDegree method sets the desired servo position in degrees ">
<polygon fill="#ffffff" stroke="#000000" points="192.571,-.5 192.571,-44.5 325.808,-44.5 325.808,-.5 192.571,-.5"/>
<text text-anchor="start" x="200.571" y="-31.5" font-family="Helvetica,sans-Serif" font-size="10.00" fill="#000000">VehicleControl::IO</text>
<text text-anchor="start" x="200.571" y="-19.5" font-family="Helvetica,sans-Serif" font-size="10.00" fill="#000000">::ServoControl::setDesired</text>
<text text-anchor="middle" x="259.1895" y="-7.5" font-family="Helvetica,sans-Serif" font-size="10.00" fill="#000000">Degree</text>
</a>
</g>
</g>
<!-- Node39&#45;&gt;Node42 -->
<g id="edge3" class="edge">
<title>Node39&#45;&gt;Node42</title>
<path fill="none" stroke="#191970" d="M135.9422,-60.516C154.0646,-54.9261 173.9757,-48.7845 192.4097,-43.0985"/>
<polygon fill="#191970" stroke="#191970" points="134.8875,-57.1786 126.3634,-63.4706 136.9508,-63.8676 134.8875,-57.1786"/>
</g>
</g>
</svg>
