<?xml version="1.0" encoding="UTF-8" standalone="no"?>
<!DOCTYPE svg PUBLIC "-//W3C//DTD SVG 1.1//EN"
 "http://www.w3.org/Graphics/SVG/1.1/DTD/svg11.dtd">
<!-- Generated by graphviz version 2.40.1 (20161225.0304)
 -->
<!-- Title: VehicleControl::Bluetooth::Base::readMessage Pages: 1 -->
<svg width="631pt" height="110pt"
 viewBox="0.00 0.00 631.22 110.00" xmlns="http://www.w3.org/2000/svg" xmlns:xlink="http://www.w3.org/1999/xlink">
<g id="graph0" class="graph" transform="scale(1 1) rotate(0) translate(4 106)">
<title>VehicleControl::Bluetooth::Base::readMessage</title>
<polygon fill="#ffffff" stroke="transparent" points="-4,4 -4,-106 627.224,-106 627.224,4 -4,4"/>
<!-- Node13 -->
<g id="node1" class="node">
<title>Node13</title>
<polygon fill="#bfbfbf" stroke="#000000" points="0,-34.5 0,-66.5 128.806,-66.5 128.806,-34.5 0,-34.5"/>
<text text-anchor="start" x="8" y="-53.5" font-family="Helvetica,sans-Serif" font-size="10.00" fill="#000000">VehicleControl::Bluetooth</text>
<text text-anchor="middle" x="64.403" y="-41.5" font-family="Helvetica,sans-Serif" font-size="10.00" fill="#000000">::Base::readMessage</text>
</g>
<!-- Node14 -->
<g id="node2" class="node">
<title>Node14</title>
<g id="a_node2"><a xlink:href="classVehicleControl_1_1Bluetooth_1_1Base.html#a0d454a071fb0e38cf668cb82d5f93a3c" target="_top" xlink:title="startReadThread ">
<polygon fill="#ffffff" stroke="#000000" points="164.806,-34.5 164.806,-66.5 293.612,-66.5 293.612,-34.5 164.806,-34.5"/>
<text text-anchor="start" x="172.806" y="-53.5" font-family="Helvetica,sans-Serif" font-size="10.00" fill="#000000">VehicleControl::Bluetooth</text>
<text text-anchor="middle" x="229.209" y="-41.5" font-family="Helvetica,sans-Serif" font-size="10.00" fill="#000000">::Base::startReadThread</text>
</a>
</g>
</g>
<!-- Node13&#45;&gt;Node14 -->
<g id="edge1" class="edge">
<title>Node13&#45;&gt;Node14</title>
<path fill="none" stroke="#191970" d="M139.3335,-50.5C147.8146,-50.5 156.4021,-50.5 164.7328,-50.5"/>
<polygon fill="#191970" stroke="#191970" points="139.0657,-47.0001 129.0657,-50.5 139.0656,-54.0001 139.0657,-47.0001"/>
</g>
<!-- Node15 -->
<g id="node3" class="node">
<title>Node15</title>
<g id="a_node3"><a xlink:href="classVehicleControl_1_1Bluetooth_1_1Base.html#a6c41447b1283d1b90459cbdae3a54480" target="_top" xlink:title="startBothThreads ">
<polygon fill="#ffffff" stroke="#000000" points="329.612,-34.5 329.612,-66.5 458.418,-66.5 458.418,-34.5 329.612,-34.5"/>
<text text-anchor="start" x="337.612" y="-53.5" font-family="Helvetica,sans-Serif" font-size="10.00" fill="#000000">VehicleControl::Bluetooth</text>
<text text-anchor="middle" x="394.015" y="-41.5" font-family="Helvetica,sans-Serif" font-size="10.00" fill="#000000">::Base::startBothThreads</text>
</a>
</g>
</g>
<!-- Node14&#45;&gt;Node15 -->
<g id="edge2" class="edge">
<title>Node14&#45;&gt;Node15</title>
<path fill="none" stroke="#191970" d="M304.1395,-50.5C312.6206,-50.5 321.2081,-50.5 329.5388,-50.5"/>
<polygon fill="#191970" stroke="#191970" points="303.8717,-47.0001 293.8717,-50.5 303.8716,-54.0001 303.8717,-47.0001"/>
</g>
<!-- Node16 -->
<g id="node4" class="node">
<title>Node16</title>
<g id="a_node4"><a xlink:href="classVehicleControl_1_1Bluetooth_1_1Client.html#a83777b221312c408d42d8dfcb0b807b8" target="_top" xlink:title="VehicleControl::Bluetooth\l::Client::isConnected">
<polygon fill="#ffffff" stroke="#000000" points="494.418,-69.5 494.418,-101.5 623.224,-101.5 623.224,-69.5 494.418,-69.5"/>
<text text-anchor="start" x="502.418" y="-88.5" font-family="Helvetica,sans-Serif" font-size="10.00" fill="#000000">VehicleControl::Bluetooth</text>
<text text-anchor="middle" x="558.821" y="-76.5" font-family="Helvetica,sans-Serif" font-size="10.00" fill="#000000">::Client::isConnected</text>
</a>
</g>
</g>
<!-- Node15&#45;&gt;Node16 -->
<g id="edge3" class="edge">
<title>Node15&#45;&gt;Node16</title>
<path fill="none" stroke="#191970" d="M468.666,-66.3537C477.2378,-68.1741 485.9226,-70.0185 494.3448,-71.8071"/>
<polygon fill="#191970" stroke="#191970" points="469.1866,-62.8863 458.6777,-64.2325 467.7324,-69.7336 469.1866,-62.8863"/>
</g>
<!-- Node17 -->
<g id="node5" class="node">
<title>Node17</title>
<g id="a_node5"><a xlink:href="classVehicleControl_1_1Bluetooth_1_1Server.html#af5d9733f754be78891f8189f6f63ac90" target="_top" xlink:title="VehicleControl::Bluetooth\l::Server::isConnected">
<polygon fill="#ffffff" stroke="#000000" points="494.418,-.5 494.418,-32.5 623.224,-32.5 623.224,-.5 494.418,-.5"/>
<text text-anchor="start" x="502.418" y="-19.5" font-family="Helvetica,sans-Serif" font-size="10.00" fill="#000000">VehicleControl::Bluetooth</text>
<text text-anchor="middle" x="558.821" y="-7.5" font-family="Helvetica,sans-Serif" font-size="10.00" fill="#000000">::Server::isConnected</text>
</a>
</g>
</g>
<!-- Node15&#45;&gt;Node17 -->
<g id="edge4" class="edge">
<title>Node15&#45;&gt;Node17</title>
<path fill="none" stroke="#191970" d="M468.666,-35.0993C477.2378,-33.3309 485.9226,-31.5392 494.3448,-29.8016"/>
<polygon fill="#191970" stroke="#191970" points="467.7642,-31.7115 458.6777,-37.1599 469.1786,-38.5671 467.7642,-31.7115"/>
</g>
<!-- Node17&#45;&gt;Node17 -->
<g id="edge5" class="edge">
<title>Node17&#45;&gt;Node17</title>
<path fill="none" stroke="#191970" d="M529.9592,-43.0753C533.7804,-47.7466 543.401,-51 558.821,-51 584.1257,-51 593.8126,-42.2388 587.8819,-32.8274"/>
<polygon fill="#191970" stroke="#191970" points="533.4538,-42.7575 529.7601,-32.8274 526.4551,-42.8935 533.4538,-42.7575"/>
</g>
</g>
</svg>
