<?xml version="1.0" encoding="UTF-8" standalone="no"?>
<!DOCTYPE svg PUBLIC "-//W3C//DTD SVG 1.1//EN"
 "http://www.w3.org/Graphics/SVG/1.1/DTD/svg11.dtd">
<!-- Generated by graphviz version 2.40.1 (20161225.0304)
 -->
<!-- Title: VehicleControl::IO::MotorControl::pulseWidth Pages: 1 -->
<svg width="329pt" height="194pt"
 viewBox="0.00 0.00 329.37 194.00" xmlns="http://www.w3.org/2000/svg" xmlns:xlink="http://www.w3.org/1999/xlink">
<g id="graph0" class="graph" transform="scale(1 1) rotate(0) translate(4 190)">
<title>VehicleControl::IO::MotorControl::pulseWidth</title>
<polygon fill="#ffffff" stroke="transparent" points="-4,4 -4,-190 325.368,-190 325.368,4 -4,4"/>
<!-- Node18 -->
<g id="node1" class="node">
<title>Node18</title>
<polygon fill="#bfbfbf" stroke="#000000" points="0,-76.5 0,-108.5 134.345,-108.5 134.345,-76.5 0,-76.5"/>
<text text-anchor="start" x="8" y="-95.5" font-family="Helvetica,sans-Serif" font-size="10.00" fill="#000000">VehicleControl::IO</text>
<text text-anchor="middle" x="67.1725" y="-83.5" font-family="Helvetica,sans-Serif" font-size="10.00" fill="#000000">::MotorControl::pulseWidth</text>
</g>
<!-- Node19 -->
<g id="node2" class="node">
<title>Node19</title>
<g id="a_node2"><a xlink:href="classVehicleControl_1_1IO_1_1MotorControl.html#acc47708aa71a6501afc203a737847488" target="_top" xlink:title="setPulseWidth sets the final pulse width of the signal using the given ramp time ">
<polygon fill="#ffffff" stroke="#000000" points="171.46,-153.5 171.46,-185.5 320.253,-185.5 320.253,-153.5 171.46,-153.5"/>
<text text-anchor="start" x="179.46" y="-172.5" font-family="Helvetica,sans-Serif" font-size="10.00" fill="#000000">VehicleControl::IO</text>
<text text-anchor="middle" x="245.8565" y="-160.5" font-family="Helvetica,sans-Serif" font-size="10.00" fill="#000000">::MotorControl::setPulseWidth</text>
</a>
</g>
</g>
<!-- Node18&#45;&gt;Node19 -->
<g id="edge1" class="edge">
<title>Node18&#45;&gt;Node19</title>
<path fill="none" stroke="#191970" d="M105.445,-113.482C124.617,-123.5544 148.3731,-135.3839 170.345,-144.5 177.8705,-147.6223 185.9381,-150.6334 193.8982,-153.4186"/>
<polygon fill="#191970" stroke="#191970" points="106.9035,-110.2937 96.4295,-108.698 103.6223,-116.4771 106.9035,-110.2937"/>
</g>
<!-- Node20 -->
<g id="node3" class="node">
<title>Node20</title>
<g id="a_node3"><a xlink:href="classVehicleControl_1_1IO_1_1MotorControl.html#a0f8d19d6f6ddfda7b905c7bdcd03f27f" target="_top" xlink:title="setDutyCycle setter ">
<polygon fill="#ffffff" stroke="#000000" points="173.9635,-102.5 173.9635,-134.5 317.7495,-134.5 317.7495,-102.5 173.9635,-102.5"/>
<text text-anchor="start" x="181.9635" y="-121.5" font-family="Helvetica,sans-Serif" font-size="10.00" fill="#000000">VehicleControl::IO</text>
<text text-anchor="middle" x="245.8565" y="-109.5" font-family="Helvetica,sans-Serif" font-size="10.00" fill="#000000">::MotorControl::setDutyCycle</text>
</a>
</g>
</g>
<!-- Node18&#45;&gt;Node20 -->
<g id="edge2" class="edge">
<title>Node18&#45;&gt;Node20</title>
<path fill="none" stroke="#191970" d="M144.5274,-103.7558C154.264,-105.1725 164.1941,-106.6174 173.8437,-108.0215"/>
<polygon fill="#191970" stroke="#191970" points="144.8704,-100.2689 134.4706,-102.2924 143.8624,-107.196 144.8704,-100.2689"/>
</g>
<!-- Node21 -->
<g id="node4" class="node">
<title>Node21</title>
<g id="a_node4"><a xlink:href="classVehicleControl_1_1IO_1_1MotorControl.html#afde0146703bc6472e34b93c9115e8dfe" target="_top" xlink:title="dutyCycle getter ">
<polygon fill="#ffffff" stroke="#000000" points="181.4625,-51.5 181.4625,-83.5 310.2505,-83.5 310.2505,-51.5 181.4625,-51.5"/>
<text text-anchor="start" x="189.4625" y="-70.5" font-family="Helvetica,sans-Serif" font-size="10.00" fill="#000000">VehicleControl::IO</text>
<text text-anchor="middle" x="245.8565" y="-58.5" font-family="Helvetica,sans-Serif" font-size="10.00" fill="#000000">::MotorControl::dutyCycle</text>
</a>
</g>
</g>
<!-- Node18&#45;&gt;Node21 -->
<g id="edge3" class="edge">
<title>Node18&#45;&gt;Node21</title>
<path fill="none" stroke="#191970" d="M144.6456,-81.6606C156.8677,-79.9506 169.3914,-78.1984 181.2799,-76.535"/>
<polygon fill="#191970" stroke="#191970" points="143.8892,-78.2323 134.4706,-83.0842 144.8592,-85.1647 143.8892,-78.2323"/>
</g>
<!-- Node22 -->
<g id="node5" class="node">
<title>Node22</title>
<g id="a_node5"><a xlink:href="classVehicleControl_1_1IO_1_1ServoControl.html#ad147f1a35161984fe4a9bb5d062f0aaa" target="_top" xlink:title="desiredDegree getter ">
<polygon fill="#ffffff" stroke="#000000" points="170.345,-.5 170.345,-32.5 321.368,-32.5 321.368,-.5 170.345,-.5"/>
<text text-anchor="start" x="178.345" y="-19.5" font-family="Helvetica,sans-Serif" font-size="10.00" fill="#000000">VehicleControl::IO</text>
<text text-anchor="middle" x="245.8565" y="-7.5" font-family="Helvetica,sans-Serif" font-size="10.00" fill="#000000">::ServoControl::desiredDegree</text>
</a>
</g>
</g>
<!-- Node18&#45;&gt;Node22 -->
<g id="edge4" class="edge">
<title>Node18&#45;&gt;Node22</title>
<path fill="none" stroke="#191970" d="M106.8351,-71.902C125.8115,-62.4039 148.9994,-51.3101 170.345,-42.5 178.6756,-39.0617 187.6439,-35.6932 196.389,-32.5807"/>
<polygon fill="#191970" stroke="#191970" points="105.2346,-68.7892 97.8842,-76.4196 108.3886,-75.0384 105.2346,-68.7892"/>
</g>
</g>
</svg>
