<?xml version="1.0" encoding="UTF-8" standalone="no"?>
<!DOCTYPE svg PUBLIC "-//W3C//DTD SVG 1.1//EN"
 "http://www.w3.org/Graphics/SVG/1.1/DTD/svg11.dtd">
<!-- Generated by graphviz version 2.40.1 (20161225.0304)
 -->
<!-- Title: LibBBB::ThreadHelper::startJoinableThread Pages: 1 -->
<svg width="505pt" height="41pt"
 viewBox="0.00 0.00 505.06 41.00" xmlns="http://www.w3.org/2000/svg" xmlns:xlink="http://www.w3.org/1999/xlink">
<g id="graph0" class="graph" transform="scale(1 1) rotate(0) translate(4 37)">
<title>LibBBB::ThreadHelper::startJoinableThread</title>
<polygon fill="#ffffff" stroke="transparent" points="-4,4 -4,-37 501.056,-37 501.056,4 -4,4"/>
<!-- Node12 -->
<g id="node1" class="node">
<title>Node12</title>
<polygon fill="#bfbfbf" stroke="#000000" points="0,-.5 0,-32.5 116.02,-32.5 116.02,-.5 0,-.5"/>
<text text-anchor="start" x="8" y="-19.5" font-family="Helvetica,sans-Serif" font-size="10.00" fill="#000000">LibBBB::ThreadHelper</text>
<text text-anchor="middle" x="58.01" y="-7.5" font-family="Helvetica,sans-Serif" font-size="10.00" fill="#000000">::startJoinableThread</text>
</g>
<!-- Node13 -->
<g id="node2" class="node">
<title>Node13</title>
<g id="a_node2"><a xlink:href="classLibBBB_1_1Bluetooth_1_1Manager.html#aba77bfc05cca940e709d9c0bb1106127" target="_top" xlink:title="isConnected getter ">
<polygon fill="#ffffff" stroke="#000000" points="152.02,-.5 152.02,-32.5 268.602,-32.5 268.602,-.5 152.02,-.5"/>
<text text-anchor="start" x="160.02" y="-19.5" font-family="Helvetica,sans-Serif" font-size="10.00" fill="#000000">LibBBB::Bluetooth::</text>
<text text-anchor="middle" x="210.311" y="-7.5" font-family="Helvetica,sans-Serif" font-size="10.00" fill="#000000">Manager::isConnected</text>
</a>
</g>
</g>
<!-- Node12&#45;&gt;Node13 -->
<g id="edge1" class="edge">
<title>Node12&#45;&gt;Node13</title>
<path fill="none" stroke="#191970" d="M126.0715,-16.5C134.7093,-16.5 143.4875,-16.5 151.9548,-16.5"/>
<polygon fill="#191970" stroke="#191970" points="126.023,-13.0001 116.0229,-16.5 126.0229,-20.0001 126.023,-13.0001"/>
</g>
<!-- Node14 -->
<g id="node3" class="node">
<title>Node14</title>
<g id="a_node3"><a xlink:href="classVehicleControl_1_1Control.html#af677fb9565407041290bbf7b681802e5" target="_top" xlink:title="update method that controls the vehicle ">
<polygon fill="#ffffff" stroke="#000000" points="304.602,-.5 304.602,-32.5 423.39,-32.5 423.39,-.5 304.602,-.5"/>
<text text-anchor="start" x="312.602" y="-19.5" font-family="Helvetica,sans-Serif" font-size="10.00" fill="#000000">VehicleControl::Control</text>
<text text-anchor="middle" x="363.996" y="-7.5" font-family="Helvetica,sans-Serif" font-size="10.00" fill="#000000">::update</text>
</a>
</g>
</g>
<!-- Node13&#45;&gt;Node14 -->
<g id="edge2" class="edge">
<title>Node13&#45;&gt;Node14</title>
<path fill="none" stroke="#191970" d="M279.125,-16.5C287.6248,-16.5 296.2571,-16.5 304.5997,-16.5"/>
<polygon fill="#191970" stroke="#191970" points="278.8512,-13.0001 268.8511,-16.5 278.8511,-20.0001 278.8512,-13.0001"/>
</g>
<!-- Node15 -->
<g id="node4" class="node">
<title>Node15</title>
<g id="a_node4"><a xlink:href="main_8cpp.html#ae66f6b31b5ad750f1fe042a706a4e3d4" target="_top" xlink:title="main">
<polygon fill="#ffffff" stroke="#000000" points="459.39,-6.5 459.39,-26.5 497.056,-26.5 497.056,-6.5 459.39,-6.5"/>
<text text-anchor="middle" x="478.223" y="-13.5" font-family="Helvetica,sans-Serif" font-size="10.00" fill="#000000">main</text>
</a>
</g>
</g>
<!-- Node14&#45;&gt;Node15 -->
<g id="edge3" class="edge">
<title>Node14&#45;&gt;Node15</title>
<path fill="none" stroke="#191970" d="M433.7339,-16.5C443.0847,-16.5 451.9603,-16.5 459.2886,-16.5"/>
<polygon fill="#191970" stroke="#191970" points="433.4515,-13.0001 423.4515,-16.5 433.4514,-20.0001 433.4515,-13.0001"/>
</g>
</g>
</svg>
