<?xml version="1.0" encoding="UTF-8" standalone="no"?>
<!DOCTYPE svg PUBLIC "-//W3C//DTD SVG 1.1//EN"
 "http://www.w3.org/Graphics/SVG/1.1/DTD/svg11.dtd">
<!-- Generated by graphviz version 2.40.1 (20161225.0304)
 -->
<!-- Title: VehicleControl::IO::MotorControl::setDutyCycle Pages: 1 -->
<svg width="337pt" height="92pt"
 viewBox="0.00 0.00 336.58 92.00" xmlns="http://www.w3.org/2000/svg" xmlns:xlink="http://www.w3.org/1999/xlink">
<g id="graph0" class="graph" transform="scale(1 1) rotate(0) translate(4 88)">
<title>VehicleControl::IO::MotorControl::setDutyCycle</title>
<polygon fill="#ffffff" stroke="transparent" points="-4,4 -4,-88 332.579,-88 332.579,4 -4,4"/>
<!-- Node27 -->
<g id="node1" class="node">
<title>Node27</title>
<polygon fill="#bfbfbf" stroke="#000000" points="0,-25.5 0,-57.5 143.786,-57.5 143.786,-25.5 0,-25.5"/>
<text text-anchor="start" x="8" y="-44.5" font-family="Helvetica,sans-Serif" font-size="10.00" fill="#000000">VehicleControl::IO</text>
<text text-anchor="middle" x="71.893" y="-32.5" font-family="Helvetica,sans-Serif" font-size="10.00" fill="#000000">::MotorControl::setDutyCycle</text>
</g>
<!-- Node28 -->
<g id="node2" class="node">
<title>Node28</title>
<g id="a_node2"><a xlink:href="classVehicleControl_1_1IO_1_1MotorControl.html#acbd458d9cb594ef6851dda1e67521d1b" target="_top" xlink:title="setPulseWidth sets the pulse width of the signal ">
<polygon fill="#ffffff" stroke="#000000" points="179.786,-51.5 179.786,-83.5 328.579,-83.5 328.579,-51.5 179.786,-51.5"/>
<text text-anchor="start" x="187.786" y="-70.5" font-family="Helvetica,sans-Serif" font-size="10.00" fill="#000000">VehicleControl::IO</text>
<text text-anchor="middle" x="254.1825" y="-58.5" font-family="Helvetica,sans-Serif" font-size="10.00" fill="#000000">::MotorControl::setPulseWidth</text>
</a>
</g>
</g>
<!-- Node27&#45;&gt;Node28 -->
<g id="edge1" class="edge">
<title>Node27&#45;&gt;Node28</title>
<path fill="none" stroke="#191970" d="M143.9386,-51.7759C152.379,-52.9797 161.0481,-54.2162 169.6386,-55.4415"/>
<polygon fill="#191970" stroke="#191970" points="169.2746,-58.9249 179.6686,-56.8721 170.263,-51.995 169.2746,-58.9249"/>
</g>
<!-- Node29 -->
<g id="node3" class="node">
<title>Node29</title>
<g id="a_node3"><a xlink:href="classVehicleControl_1_1IO_1_1MotorControl.html#aa3d0162e477010fd1d60e53d76b69a5c" target="_top" xlink:title="pulseWidth getter ">
<polygon fill="#ffffff" stroke="#000000" points="187.01,-.5 187.01,-32.5 321.355,-32.5 321.355,-.5 187.01,-.5"/>
<text text-anchor="start" x="195.01" y="-19.5" font-family="Helvetica,sans-Serif" font-size="10.00" fill="#000000">VehicleControl::IO</text>
<text text-anchor="middle" x="254.1825" y="-7.5" font-family="Helvetica,sans-Serif" font-size="10.00" fill="#000000">::MotorControl::pulseWidth</text>
</a>
</g>
</g>
<!-- Node27&#45;&gt;Node29 -->
<g id="edge2" class="edge">
<title>Node27&#45;&gt;Node29</title>
<path fill="none" stroke="#191970" d="M143.9386,-31.6193C154.7581,-30.1355 165.9535,-28.6001 176.8773,-27.102"/>
<polygon fill="#191970" stroke="#191970" points="177.3828,-30.5655 186.8144,-25.7392 176.4316,-23.6304 177.3828,-30.5655"/>
</g>
</g>
</svg>
