<?xml version="1.0" encoding="UTF-8" standalone="no"?>
<!DOCTYPE svg PUBLIC "-//W3C//DTD SVG 1.1//EN"
 "http://www.w3.org/Graphics/SVG/1.1/DTD/svg11.dtd">
<!-- Generated by graphviz version 2.40.1 (20161225.0304)
 -->
<!-- Title: VehicleControl::IO::UserLED::changeBlinkTime Pages: 1 -->
<svg width="474pt" height="92pt"
 viewBox="0.00 0.00 473.61 92.00" xmlns="http://www.w3.org/2000/svg" xmlns:xlink="http://www.w3.org/1999/xlink">
<g id="graph0" class="graph" transform="scale(1 1) rotate(0) translate(4 88)">
<title>VehicleControl::IO::UserLED::changeBlinkTime</title>
<polygon fill="#ffffff" stroke="transparent" points="-4,4 -4,-88 469.615,-88 469.615,4 -4,4"/>
<!-- Node7 -->
<g id="node1" class="node">
<title>Node7</title>
<polygon fill="#bfbfbf" stroke="#000000" points="0,-25.5 0,-57.5 144.347,-57.5 144.347,-25.5 0,-25.5"/>
<text text-anchor="start" x="8" y="-44.5" font-family="Helvetica,sans-Serif" font-size="10.00" fill="#000000">VehicleControl::IO</text>
<text text-anchor="middle" x="72.1735" y="-32.5" font-family="Helvetica,sans-Serif" font-size="10.00" fill="#000000">::UserLED::changeBlinkTime</text>
</g>
<!-- Node8 -->
<g id="node2" class="node">
<title>Node8</title>
<g id="a_node2"><a xlink:href="classVehicleControl_1_1IO_1_1UserLED.html#a681c7658d0828edefed7028390adced0" target="_top" xlink:title="setState method sets the state of the LED ">
<polygon fill="#ffffff" stroke="#000000" points="180.347,-25.5 180.347,-57.5 284.7,-57.5 284.7,-25.5 180.347,-25.5"/>
<text text-anchor="start" x="188.347" y="-44.5" font-family="Helvetica,sans-Serif" font-size="10.00" fill="#000000">VehicleControl::IO</text>
<text text-anchor="middle" x="232.5235" y="-32.5" font-family="Helvetica,sans-Serif" font-size="10.00" fill="#000000">::UserLED::setState</text>
</a>
</g>
</g>
<!-- Node7&#45;&gt;Node8 -->
<g id="edge1" class="edge">
<title>Node7&#45;&gt;Node8</title>
<path fill="none" stroke="#191970" d="M144.3741,-41.5C152.8842,-41.5 161.5154,-41.5 169.8789,-41.5"/>
<polygon fill="#191970" stroke="#191970" points="169.9218,-45.0001 179.9218,-41.5 169.9217,-38.0001 169.9218,-45.0001"/>
</g>
<!-- Node9 -->
<g id="node3" class="node">
<title>Node9</title>
<g id="a_node3"><a xlink:href="classVehicleControl_1_1IO_1_1UserLED.html#a24318aac0770b5c67d10d8412fc5fda3" target="_top" xlink:title="state getter ">
<polygon fill="#ffffff" stroke="#000000" points="344.596,-51.5 344.596,-83.5 441.719,-83.5 441.719,-51.5 344.596,-51.5"/>
<text text-anchor="start" x="352.596" y="-70.5" font-family="Helvetica,sans-Serif" font-size="10.00" fill="#000000">VehicleControl::IO</text>
<text text-anchor="middle" x="393.1575" y="-58.5" font-family="Helvetica,sans-Serif" font-size="10.00" fill="#000000">::UserLED::state</text>
</a>
</g>
</g>
<!-- Node8&#45;&gt;Node9 -->
<g id="edge2" class="edge">
<title>Node8&#45;&gt;Node9</title>
<path fill="none" stroke="#191970" d="M285.1211,-50.0134C300.9576,-52.5767 318.4329,-55.4052 334.6294,-58.0267"/>
<polygon fill="#191970" stroke="#191970" points="334.0919,-61.4852 344.5227,-59.628 335.2104,-54.5751 334.0919,-61.4852"/>
</g>
<!-- Node10 -->
<g id="node4" class="node">
<title>Node10</title>
<g id="a_node4"><a xlink:href="classThreadHelper.html#a4426e115e7858a4b6f6eedbc77302756" target="_top" xlink:title="startDetachedThread ">
<polygon fill="#ffffff" stroke="#000000" points="320.7,-.5 320.7,-32.5 465.615,-32.5 465.615,-.5 320.7,-.5"/>
<text text-anchor="start" x="328.7" y="-19.5" font-family="Helvetica,sans-Serif" font-size="10.00" fill="#000000">ThreadHelper::startDetached</text>
<text text-anchor="middle" x="393.1575" y="-7.5" font-family="Helvetica,sans-Serif" font-size="10.00" fill="#000000">Thread</text>
</a>
</g>
</g>
<!-- Node8&#45;&gt;Node10 -->
<g id="edge3" class="edge">
<title>Node8&#45;&gt;Node10</title>
<path fill="none" stroke="#191970" d="M285.1211,-33.3141C293.276,-32.0449 301.8654,-30.7081 310.491,-29.3657"/>
<polygon fill="#191970" stroke="#191970" points="311.2666,-32.7872 320.6094,-27.7909 310.1901,-25.8704 311.2666,-32.7872"/>
</g>
</g>
</svg>
