<?xml version="1.0" encoding="UTF-8" standalone="no"?>
<!DOCTYPE svg PUBLIC "-//W3C//DTD SVG 1.1//EN"
 "http://www.w3.org/Graphics/SVG/1.1/DTD/svg11.dtd">
<!-- Generated by graphviz version 2.40.1 (20161225.0304)
 -->
<!-- Title: Math::Range::highValue Pages: 1 -->
<svg width="291pt" height="92pt"
 viewBox="0.00 0.00 290.53 92.00" xmlns="http://www.w3.org/2000/svg" xmlns:xlink="http://www.w3.org/1999/xlink">
<g id="graph0" class="graph" transform="scale(1 1) rotate(0) translate(4 88)">
<title>Math::Range::highValue</title>
<polygon fill="#ffffff" stroke="transparent" points="-4,4 -4,-88 286.526,-88 286.526,4 -4,4"/>
<!-- Node5 -->
<g id="node1" class="node">
<title>Node5</title>
<polygon fill="#bfbfbf" stroke="#000000" points="0,-31.5 0,-51.5 123.258,-51.5 123.258,-31.5 0,-31.5"/>
<text text-anchor="middle" x="61.629" y="-38.5" font-family="Helvetica,sans-Serif" font-size="10.00" fill="#000000">Math::Range::highValue</text>
</g>
<!-- Node6 -->
<g id="node2" class="node">
<title>Node6</title>
<g id="a_node2"><a xlink:href="classMath_1_1LinearConverter.html#a0b41880c7734a6edf56ccf798dfc693b" target="_top" xlink:title="convertXtoY getter. Uses y = mx + b. ">
<polygon fill="#ffffff" stroke="#000000" points="159.258,-51.5 159.258,-83.5 282.526,-83.5 282.526,-51.5 159.258,-51.5"/>
<text text-anchor="start" x="167.258" y="-70.5" font-family="Helvetica,sans-Serif" font-size="10.00" fill="#000000">Math::LinearConverter</text>
<text text-anchor="middle" x="220.892" y="-58.5" font-family="Helvetica,sans-Serif" font-size="10.00" fill="#000000">&lt; int32_t &gt;::convertXtoY</text>
</a>
</g>
</g>
<!-- Node5&#45;&gt;Node6 -->
<g id="edge1" class="edge">
<title>Node5&#45;&gt;Node6</title>
<path fill="none" stroke="#191970" d="M133.2828,-53.1976C141.939,-54.6108 150.7223,-56.0447 159.2179,-57.4316"/>
<polygon fill="#191970" stroke="#191970" points="133.6375,-49.7093 123.2042,-51.5523 132.5096,-56.6178 133.6375,-49.7093"/>
</g>
<!-- Node7 -->
<g id="node3" class="node">
<title>Node7</title>
<g id="a_node3"><a xlink:href="classMath_1_1LinearConverter.html#a273d07db25141b970ca038d0826e83be" target="_top" xlink:title="convertYtoX getter. Uses x = ( y &#45; b ) / m. ">
<polygon fill="#ffffff" stroke="#000000" points="159.258,-.5 159.258,-32.5 282.526,-32.5 282.526,-.5 159.258,-.5"/>
<text text-anchor="start" x="167.258" y="-19.5" font-family="Helvetica,sans-Serif" font-size="10.00" fill="#000000">Math::LinearConverter</text>
<text text-anchor="middle" x="220.892" y="-7.5" font-family="Helvetica,sans-Serif" font-size="10.00" fill="#000000">&lt; int32_t &gt;::convertYtoX</text>
</a>
</g>
</g>
<!-- Node5&#45;&gt;Node7 -->
<g id="edge2" class="edge">
<title>Node5&#45;&gt;Node7</title>
<path fill="none" stroke="#191970" d="M133.5628,-30.2083C142.0646,-28.8738 150.6845,-27.5207 159.03,-26.2107"/>
<polygon fill="#191970" stroke="#191970" points="132.9965,-26.7543 123.6603,-31.7628 134.0821,-33.6696 132.9965,-26.7543"/>
</g>
</g>
</svg>
