<?xml version="1.0" encoding="UTF-8" standalone="no"?>
<!DOCTYPE svg PUBLIC "-//W3C//DTD SVG 1.1//EN"
 "http://www.w3.org/Graphics/SVG/1.1/DTD/svg11.dtd">
<!-- Generated by graphviz version 2.40.1 (20161225.0304)
 -->
<!-- Title: VehicleControl::Bluetooth::Client::isConnected Pages: 1 -->
<svg width="819pt" height="143pt"
 viewBox="0.00 0.00 818.83 143.00" xmlns="http://www.w3.org/2000/svg" xmlns:xlink="http://www.w3.org/1999/xlink">
<g id="graph0" class="graph" transform="scale(1 1) rotate(0) translate(4 139)">
<title>VehicleControl::Bluetooth::Client::isConnected</title>
<polygon fill="#ffffff" stroke="transparent" points="-4,4 -4,-139 814.83,-139 814.83,4 -4,4"/>
<!-- Node5 -->
<g id="node1" class="node">
<title>Node5</title>
<polygon fill="#bfbfbf" stroke="#000000" points="0,-57.5 0,-89.5 128.806,-89.5 128.806,-57.5 0,-57.5"/>
<text text-anchor="start" x="8" y="-76.5" font-family="Helvetica,sans-Serif" font-size="10.00" fill="#000000">VehicleControl::Bluetooth</text>
<text text-anchor="middle" x="64.403" y="-64.5" font-family="Helvetica,sans-Serif" font-size="10.00" fill="#000000">::Client::isConnected</text>
</g>
<!-- Node6 -->
<g id="node2" class="node">
<title>Node6</title>
<g id="a_node2"><a xlink:href="classCore_1_1ThreadHelper.html#a138066760eabf36c1681bbd177db0446" target="_top" xlink:title="startDetachedThread ">
<polygon fill="#ffffff" stroke="#000000" points="501.0855,-102.5 501.0855,-134.5 616.5565,-134.5 616.5565,-102.5 501.0855,-102.5"/>
<text text-anchor="start" x="509.0855" y="-121.5" font-family="Helvetica,sans-Serif" font-size="10.00" fill="#000000">Core::ThreadHelper</text>
<text text-anchor="middle" x="558.821" y="-109.5" font-family="Helvetica,sans-Serif" font-size="10.00" fill="#000000">::startDetachedThread</text>
</a>
</g>
</g>
<!-- Node5&#45;&gt;Node6 -->
<g id="edge1" class="edge">
<title>Node5&#45;&gt;Node6</title>
<path fill="none" stroke="#191970" d="M117.9119,-89.5237C132.952,-93.4334 149.4075,-97.1603 164.806,-99.5 278.2033,-116.7296 411.8671,-119.5474 490.7454,-119.436"/>
<polygon fill="#191970" stroke="#191970" points="491.0425,-122.9352 501.0317,-119.4043 491.0209,-115.9352 491.0425,-122.9352"/>
</g>
<!-- Node7 -->
<g id="node3" class="node">
<title>Node7</title>
<g id="a_node3"><a xlink:href="classVehicleControl_1_1Bluetooth_1_1Base.html#aa491a785ca4b2feee3bc3d8ea876c59e" target="_top" xlink:title="setupSocket ">
<polygon fill="#ffffff" stroke="#000000" points="164.806,-6.5 164.806,-38.5 293.612,-38.5 293.612,-6.5 164.806,-6.5"/>
<text text-anchor="start" x="172.806" y="-25.5" font-family="Helvetica,sans-Serif" font-size="10.00" fill="#000000">VehicleControl::Bluetooth</text>
<text text-anchor="middle" x="229.209" y="-13.5" font-family="Helvetica,sans-Serif" font-size="10.00" fill="#000000">::Base::setupSocket</text>
</a>
</g>
</g>
<!-- Node5&#45;&gt;Node7 -->
<g id="edge2" class="edge">
<title>Node5&#45;&gt;Node7</title>
<path fill="none" stroke="#191970" d="M116.5486,-57.3633C132.7879,-52.338 150.8477,-46.7493 167.6665,-41.5446"/>
<polygon fill="#191970" stroke="#191970" points="168.8842,-44.8316 177.4026,-38.5317 166.8148,-38.1445 168.8842,-44.8316"/>
</g>
<!-- Node8 -->
<g id="node4" class="node">
<title>Node8</title>
<g id="a_node4"><a xlink:href="classVehicleControl_1_1Bluetooth_1_1Base.html#a6c41447b1283d1b90459cbdae3a54480" target="_top" xlink:title="startBothThreads ">
<polygon fill="#ffffff" stroke="#000000" points="164.806,-57.5 164.806,-89.5 293.612,-89.5 293.612,-57.5 164.806,-57.5"/>
<text text-anchor="start" x="172.806" y="-76.5" font-family="Helvetica,sans-Serif" font-size="10.00" fill="#000000">VehicleControl::Bluetooth</text>
<text text-anchor="middle" x="229.209" y="-64.5" font-family="Helvetica,sans-Serif" font-size="10.00" fill="#000000">::Base::startBothThreads</text>
</a>
</g>
</g>
<!-- Node5&#45;&gt;Node8 -->
<g id="edge3" class="edge">
<title>Node5&#45;&gt;Node8</title>
<path fill="none" stroke="#191970" d="M129.0657,-73.5C137.4001,-73.5 145.9888,-73.5 154.4683,-73.5"/>
<polygon fill="#191970" stroke="#191970" points="154.7328,-77.0001 164.7328,-73.5 154.7328,-70.0001 154.7328,-77.0001"/>
</g>
<!-- Node9 -->
<g id="node5" class="node">
<title>Node9</title>
<g id="a_node5"><a xlink:href="classVehicleControl_1_1Bluetooth_1_1Base.html#a0d454a071fb0e38cf668cb82d5f93a3c" target="_top" xlink:title="startReadThread ">
<polygon fill="#ffffff" stroke="#000000" points="329.612,-6.5 329.612,-38.5 458.418,-38.5 458.418,-6.5 329.612,-6.5"/>
<text text-anchor="start" x="337.612" y="-25.5" font-family="Helvetica,sans-Serif" font-size="10.00" fill="#000000">VehicleControl::Bluetooth</text>
<text text-anchor="middle" x="394.015" y="-13.5" font-family="Helvetica,sans-Serif" font-size="10.00" fill="#000000">::Base::startReadThread</text>
</a>
</g>
</g>
<!-- Node8&#45;&gt;Node9 -->
<g id="edge4" class="edge">
<title>Node8&#45;&gt;Node9</title>
<path fill="none" stroke="#191970" d="M281.3546,-57.3633C297.5939,-52.338 315.6537,-46.7493 332.4725,-41.5446"/>
<polygon fill="#191970" stroke="#191970" points="333.6902,-44.8316 342.2086,-38.5317 331.6208,-38.1445 333.6902,-44.8316"/>
</g>
<!-- Node12 -->
<g id="node8" class="node">
<title>Node12</title>
<g id="a_node8"><a xlink:href="classVehicleControl_1_1Bluetooth_1_1Base.html#a73cb44dceb3bf46a3fb2acce2091be2a" target="_top" xlink:title="startWriteThread ">
<polygon fill="#ffffff" stroke="#000000" points="329.612,-57.5 329.612,-89.5 458.418,-89.5 458.418,-57.5 329.612,-57.5"/>
<text text-anchor="start" x="337.612" y="-76.5" font-family="Helvetica,sans-Serif" font-size="10.00" fill="#000000">VehicleControl::Bluetooth</text>
<text text-anchor="middle" x="394.015" y="-64.5" font-family="Helvetica,sans-Serif" font-size="10.00" fill="#000000">::Base::startWriteThread</text>
</a>
</g>
</g>
<!-- Node8&#45;&gt;Node12 -->
<g id="edge8" class="edge">
<title>Node8&#45;&gt;Node12</title>
<path fill="none" stroke="#191970" d="M293.8717,-73.5C302.2061,-73.5 310.7948,-73.5 319.2743,-73.5"/>
<polygon fill="#191970" stroke="#191970" points="319.5388,-77.0001 329.5388,-73.5 319.5388,-70.0001 319.5388,-77.0001"/>
</g>
<!-- Node9&#45;&gt;Node6 -->
<g id="edge5" class="edge">
<title>Node9&#45;&gt;Node6</title>
<path fill="none" stroke="#191970" d="M443.6516,-38.5634C448.8562,-41.1715 453.8915,-44.1402 458.418,-47.5 479.2643,-62.9728 473.5717,-78.0272 494.418,-93.5 496.2569,-94.8649 498.1798,-96.1653 500.1638,-97.4031"/>
<polygon fill="#191970" stroke="#191970" points="498.7464,-100.6202 509.1844,-102.4366 502.1574,-94.5075 498.7464,-100.6202"/>
</g>
<!-- Node10 -->
<g id="node6" class="node">
<title>Node10</title>
<g id="a_node6"><a xlink:href="classVehicleControl_1_1Bluetooth_1_1Base.html#aa84d403a6275189ad0f96afb8dd57e31" target="_top" xlink:title="readMessage ">
<polygon fill="#ffffff" stroke="#000000" points="494.418,-.5 494.418,-32.5 623.224,-32.5 623.224,-.5 494.418,-.5"/>
<text text-anchor="start" x="502.418" y="-19.5" font-family="Helvetica,sans-Serif" font-size="10.00" fill="#000000">VehicleControl::Bluetooth</text>
<text text-anchor="middle" x="558.821" y="-7.5" font-family="Helvetica,sans-Serif" font-size="10.00" fill="#000000">::Base::readMessage</text>
</a>
</g>
</g>
<!-- Node9&#45;&gt;Node10 -->
<g id="edge6" class="edge">
<title>Node9&#45;&gt;Node10</title>
<path fill="none" stroke="#191970" d="M458.6777,-20.1459C467.0121,-19.8424 475.6008,-19.5298 484.0803,-19.221"/>
<polygon fill="#191970" stroke="#191970" points="484.4788,-22.7089 494.3448,-18.8473 484.224,-15.7136 484.4788,-22.7089"/>
</g>
<!-- Node11 -->
<g id="node7" class="node">
<title>Node11</title>
<g id="a_node7"><a xlink:href="classVehicleControl_1_1Bluetooth_1_1Base.html#ab395ffe7b3b7a1a76007224588969bd2" target="_top" xlink:title="handleConnectionLoss ">
<polygon fill="#ffffff" stroke="#000000" points="659.224,-.5 659.224,-32.5 810.83,-32.5 810.83,-.5 659.224,-.5"/>
<text text-anchor="start" x="667.224" y="-19.5" font-family="Helvetica,sans-Serif" font-size="10.00" fill="#000000">VehicleControl::Bluetooth</text>
<text text-anchor="middle" x="735.027" y="-7.5" font-family="Helvetica,sans-Serif" font-size="10.00" fill="#000000">::Base::handleConnectionLoss</text>
</a>
</g>
</g>
<!-- Node10&#45;&gt;Node11 -->
<g id="edge7" class="edge">
<title>Node10&#45;&gt;Node11</title>
<path fill="none" stroke="#191970" d="M623.4331,-16.5C631.7634,-16.5 640.3961,-16.5 649.0022,-16.5"/>
<polygon fill="#191970" stroke="#191970" points="649.0733,-20.0001 659.0733,-16.5 649.0732,-13.0001 649.0733,-20.0001"/>
</g>
<!-- Node12&#45;&gt;Node6 -->
<g id="edge9" class="edge">
<title>Node12&#45;&gt;Node6</title>
<path fill="none" stroke="#191970" d="M453.0482,-89.6189C465.3649,-92.982 478.4408,-96.5523 491.0451,-99.9939"/>
<polygon fill="#191970" stroke="#191970" points="490.46,-103.4622 501.0288,-102.7199 492.3039,-96.7094 490.46,-103.4622"/>
</g>
<!-- Node13 -->
<g id="node9" class="node">
<title>Node13</title>
<g id="a_node9"><a xlink:href="classVehicleControl_1_1Bluetooth_1_1Base.html#a8630ce75edbbb0e64227ffc5e3249c62" target="_top" xlink:title="writeMessage ">
<polygon fill="#ffffff" stroke="#000000" points="494.418,-51.5 494.418,-83.5 623.224,-83.5 623.224,-51.5 494.418,-51.5"/>
<text text-anchor="start" x="502.418" y="-70.5" font-family="Helvetica,sans-Serif" font-size="10.00" fill="#000000">VehicleControl::Bluetooth</text>
<text text-anchor="middle" x="558.821" y="-58.5" font-family="Helvetica,sans-Serif" font-size="10.00" fill="#000000">::Base::writeMessage</text>
</a>
</g>
</g>
<!-- Node12&#45;&gt;Node13 -->
<g id="edge10" class="edge">
<title>Node12&#45;&gt;Node13</title>
<path fill="none" stroke="#191970" d="M458.6777,-71.1459C467.0121,-70.8424 475.6008,-70.5298 484.0803,-70.221"/>
<polygon fill="#191970" stroke="#191970" points="484.4788,-73.7089 494.3448,-69.8473 484.224,-66.7136 484.4788,-73.7089"/>
</g>
</g>
</svg>
