<?xml version="1.0" encoding="UTF-8" standalone="no"?>
<!DOCTYPE svg PUBLIC "-//W3C//DTD SVG 1.1//EN"
 "http://www.w3.org/Graphics/SVG/1.1/DTD/svg11.dtd">
<!-- Generated by graphviz version 2.40.1 (20161225.0304)
 -->
<!-- Title: Core::ThreadHelper::startDetachedThread Pages: 1 -->
<svg width="786pt" height="506pt"
 viewBox="0.00 0.00 786.00 506.03" xmlns="http://www.w3.org/2000/svg" xmlns:xlink="http://www.w3.org/1999/xlink">
<g id="graph0" class="graph" transform="scale(1 1) rotate(0) translate(4 502.0293)">
<title>Core::ThreadHelper::startDetachedThread</title>
<polygon fill="#ffffff" stroke="transparent" points="-4,4 -4,-502.0293 781.996,-502.0293 781.996,4 -4,4"/>
<!-- Node1 -->
<g id="node1" class="node">
<title>Node1</title>
<polygon fill="#bfbfbf" stroke="#000000" points="0,-274.5 0,-306.5 115.471,-306.5 115.471,-274.5 0,-274.5"/>
<text text-anchor="start" x="8" y="-293.5" font-family="Helvetica,sans-Serif" font-size="10.00" fill="#000000">Core::ThreadHelper</text>
<text text-anchor="middle" x="57.7355" y="-281.5" font-family="Helvetica,sans-Serif" font-size="10.00" fill="#000000">::startDetachedThread</text>
</g>
<!-- Node2 -->
<g id="node2" class="node">
<title>Node2</title>
<g id="a_node2"><a xlink:href="classVehicleControl_1_1Bluetooth_1_1Base.html#a0d454a071fb0e38cf668cb82d5f93a3c" target="_top" xlink:title="startReadThread ">
<polygon fill="#ffffff" stroke="#000000" points="151.471,-415.5 151.471,-447.5 280.277,-447.5 280.277,-415.5 151.471,-415.5"/>
<text text-anchor="start" x="159.471" y="-434.5" font-family="Helvetica,sans-Serif" font-size="10.00" fill="#000000">VehicleControl::Bluetooth</text>
<text text-anchor="middle" x="215.874" y="-422.5" font-family="Helvetica,sans-Serif" font-size="10.00" fill="#000000">::Base::startReadThread</text>
</a>
</g>
</g>
<!-- Node1&#45;&gt;Node2 -->
<g id="edge1" class="edge">
<title>Node1&#45;&gt;Node2</title>
<path fill="none" stroke="#191970" d="M72.3693,-315.4573C88.7107,-341.3968 117.39,-381.6136 151.471,-406.5 156.0236,-409.8244 161.0753,-412.7707 166.2895,-415.3658"/>
<polygon fill="#191970" stroke="#191970" points="75.1415,-313.2839 66.9198,-306.6015 69.1798,-316.9525 75.1415,-313.2839"/>
</g>
<!-- Node4 -->
<g id="node4" class="node">
<title>Node4</title>
<g id="a_node4"><a xlink:href="classVehicleControl_1_1Bluetooth_1_1Client.html#a83777b221312c408d42d8dfcb0b807b8" target="_top" xlink:title="VehicleControl::Bluetooth\l::Client::isConnected">
<polygon fill="#ffffff" stroke="#000000" points="487.7425,-442.5 487.7425,-474.5 616.5485,-474.5 616.5485,-442.5 487.7425,-442.5"/>
<text text-anchor="start" x="495.7425" y="-461.5" font-family="Helvetica,sans-Serif" font-size="10.00" fill="#000000">VehicleControl::Bluetooth</text>
<text text-anchor="middle" x="552.1455" y="-449.5" font-family="Helvetica,sans-Serif" font-size="10.00" fill="#000000">::Client::isConnected</text>
</a>
</g>
</g>
<!-- Node1&#45;&gt;Node4 -->
<g id="edge9" class="edge">
<title>Node1&#45;&gt;Node4</title>
<path fill="none" stroke="#191970" d="M63.6411,-316.6798C73.9549,-355.46 99.3185,-426.8791 151.471,-457.5 260.3462,-521.4251 416.2423,-495.2091 497.7581,-474.5367"/>
<polygon fill="#191970" stroke="#191970" points="66.9563,-315.5116 61.1214,-306.6683 60.168,-317.2202 66.9563,-315.5116"/>
</g>
<!-- Node5 -->
<g id="node5" class="node">
<title>Node5</title>
<g id="a_node5"><a xlink:href="classVehicleControl_1_1Bluetooth_1_1Server.html#af5d9733f754be78891f8189f6f63ac90" target="_top" xlink:title="VehicleControl::Bluetooth\l::Server::isConnected">
<polygon fill="#ffffff" stroke="#000000" points="487.7425,-337.5 487.7425,-369.5 616.5485,-369.5 616.5485,-337.5 487.7425,-337.5"/>
<text text-anchor="start" x="495.7425" y="-356.5" font-family="Helvetica,sans-Serif" font-size="10.00" fill="#000000">VehicleControl::Bluetooth</text>
<text text-anchor="middle" x="552.1455" y="-344.5" font-family="Helvetica,sans-Serif" font-size="10.00" fill="#000000">::Server::isConnected</text>
</a>
</g>
</g>
<!-- Node1&#45;&gt;Node5 -->
<g id="edge11" class="edge">
<title>Node1&#45;&gt;Node5</title>
<path fill="none" stroke="#191970" d="M119.1139,-309.2078C129.8241,-311.9881 140.9152,-314.5647 151.471,-316.5 268.7971,-338.0108 407.8635,-347.2871 487.4731,-351.0797"/>
<polygon fill="#191970" stroke="#191970" points="119.9764,-305.8156 109.4114,-306.6099 118.1658,-312.5774 119.9764,-305.8156"/>
</g>
<!-- Node6 -->
<g id="node6" class="node">
<title>Node6</title>
<g id="a_node6"><a xlink:href="classVehicleControl_1_1Bluetooth_1_1Base.html#a73cb44dceb3bf46a3fb2acce2091be2a" target="_top" xlink:title="startWriteThread ">
<polygon fill="#ffffff" stroke="#000000" points="151.471,-364.5 151.471,-396.5 280.277,-396.5 280.277,-364.5 151.471,-364.5"/>
<text text-anchor="start" x="159.471" y="-383.5" font-family="Helvetica,sans-Serif" font-size="10.00" fill="#000000">VehicleControl::Bluetooth</text>
<text text-anchor="middle" x="215.874" y="-371.5" font-family="Helvetica,sans-Serif" font-size="10.00" fill="#000000">::Base::startWriteThread</text>
</a>
</g>
</g>
<!-- Node1&#45;&gt;Node6 -->
<g id="edge6" class="edge">
<title>Node1&#45;&gt;Node6</title>
<path fill="none" stroke="#191970" d="M90.383,-312.3249C108.1528,-323.8769 130.6939,-338.0089 151.471,-349.5 160.8096,-354.6649 171.1419,-359.8581 180.7465,-364.4777"/>
<polygon fill="#191970" stroke="#191970" points="91.8433,-309.0974 81.56,-306.5467 88.0082,-314.9534 91.8433,-309.0974"/>
</g>
<!-- Node7 -->
<g id="node7" class="node">
<title>Node7</title>
<g id="a_node7"><a xlink:href="classVehicleControl_1_1Bluetooth_1_1Client.html#a0391040c6047198f5115f47bce8f1e49" target="_top" xlink:title="VehicleControl::Bluetooth\l::Client::Client">
<polygon fill="#ffffff" stroke="#000000" points="151.471,-274.5 151.471,-306.5 280.277,-306.5 280.277,-274.5 151.471,-274.5"/>
<text text-anchor="start" x="159.471" y="-293.5" font-family="Helvetica,sans-Serif" font-size="10.00" fill="#000000">VehicleControl::Bluetooth</text>
<text text-anchor="middle" x="215.874" y="-281.5" font-family="Helvetica,sans-Serif" font-size="10.00" fill="#000000">::Client::Client</text>
</a>
</g>
</g>
<!-- Node1&#45;&gt;Node7 -->
<g id="edge8" class="edge">
<title>Node1&#45;&gt;Node7</title>
<path fill="none" stroke="#191970" d="M125.8724,-290.5C134.2835,-290.5 142.8628,-290.5 151.2198,-290.5"/>
<polygon fill="#191970" stroke="#191970" points="125.7225,-287.0001 115.7225,-290.5 125.7224,-294.0001 125.7225,-287.0001"/>
</g>
<!-- Node8 -->
<g id="node8" class="node">
<title>Node8</title>
<g id="a_node8"><a xlink:href="classVehicleControl_1_1Bluetooth_1_1Server.html#a71e526977ad6225f87b2b962820931a9" target="_top" xlink:title="VehicleControl::Bluetooth\l::Server::Server">
<polygon fill="#ffffff" stroke="#000000" points="151.471,-223.5 151.471,-255.5 280.277,-255.5 280.277,-223.5 151.471,-223.5"/>
<text text-anchor="start" x="159.471" y="-242.5" font-family="Helvetica,sans-Serif" font-size="10.00" fill="#000000">VehicleControl::Bluetooth</text>
<text text-anchor="middle" x="215.874" y="-230.5" font-family="Helvetica,sans-Serif" font-size="10.00" fill="#000000">::Server::Server</text>
</a>
</g>
</g>
<!-- Node1&#45;&gt;Node8 -->
<g id="edge10" class="edge">
<title>Node1&#45;&gt;Node8</title>
<path fill="none" stroke="#191970" d="M117.579,-271.2003C133.6042,-266.0322 150.7511,-260.5023 166.1635,-255.5317"/>
<polygon fill="#191970" stroke="#191970" points="116.2145,-267.9628 107.7715,-274.3633 118.3631,-274.6249 116.2145,-267.9628"/>
</g>
<!-- Node9 -->
<g id="node9" class="node">
<title>Node9</title>
<g id="a_node9"><a xlink:href="classCore_1_1IO_1_1Input.html#a35ee0fc0d31172da73135b8ddc543fff" target="_top" xlink:title="waitForEdgeThreaded does the same thing as waitForEdge(), but does so in a threaded manner...">
<polygon fill="#ffffff" stroke="#000000" points="320.727,-185.5 320.727,-217.5 440.633,-217.5 440.633,-185.5 320.727,-185.5"/>
<text text-anchor="start" x="328.727" y="-204.5" font-family="Helvetica,sans-Serif" font-size="10.00" fill="#000000">Core::IO::Input::waitFor</text>
<text text-anchor="middle" x="380.68" y="-192.5" font-family="Helvetica,sans-Serif" font-size="10.00" fill="#000000">EdgeThreaded</text>
</a>
</g>
</g>
<!-- Node1&#45;&gt;Node9 -->
<g id="edge12" class="edge">
<title>Node1&#45;&gt;Node9</title>
<path fill="none" stroke="#191970" d="M78.6222,-266.9397C96.1032,-249.0177 122.7465,-225.6072 151.471,-214.5 205.932,-193.441 273.1239,-192.2273 320.6404,-195.042"/>
<polygon fill="#191970" stroke="#191970" points="76.0493,-264.5663 71.7119,-274.2326 81.1306,-269.3809 76.0493,-264.5663"/>
</g>
<!-- Node12 -->
<g id="node12" class="node">
<title>Node12</title>
<g id="a_node12"><a xlink:href="classCore_1_1IO_1_1MotorControl.html#a6c2c814eeba186101329b864df3bfcc3" target="_top" xlink:title="MotorControl ServoControl constructor creates the class, and spawns the frequency control thread...">
<polygon fill="#ffffff" stroke="#000000" points="157.315,-133.5 157.315,-165.5 274.433,-165.5 274.433,-133.5 157.315,-133.5"/>
<text text-anchor="start" x="165.315" y="-152.5" font-family="Helvetica,sans-Serif" font-size="10.00" fill="#000000">Core::IO::MotorControl</text>
<text text-anchor="middle" x="215.874" y="-140.5" font-family="Helvetica,sans-Serif" font-size="10.00" fill="#000000">::MotorControl</text>
</a>
</g>
</g>
<!-- Node1&#45;&gt;Node12 -->
<g id="edge16" class="edge">
<title>Node1&#45;&gt;Node12</title>
<path fill="none" stroke="#191970" d="M73.8822,-266.1783C90.8998,-241.9974 119.6172,-205.0608 151.471,-180.5 158.8412,-174.8172 167.4207,-169.8034 175.8683,-165.5544"/>
<polygon fill="#191970" stroke="#191970" points="70.9627,-264.2465 68.1578,-274.4633 76.7218,-268.2257 70.9627,-264.2465"/>
</g>
<!-- Node13 -->
<g id="node13" class="node">
<title>Node13</title>
<g id="a_node13"><a xlink:href="classCore_1_1IO_1_1UserLED.html#ac39c3ed451b83046ff37ecb4ccff142c" target="_top" xlink:title="setState method sets the state of the LED ">
<polygon fill="#ffffff" stroke="#000000" points="163.148,-73.5 163.148,-105.5 268.6,-105.5 268.6,-73.5 163.148,-73.5"/>
<text text-anchor="start" x="171.148" y="-92.5" font-family="Helvetica,sans-Serif" font-size="10.00" fill="#000000">Core::IO::UserLED::</text>
<text text-anchor="middle" x="215.874" y="-80.5" font-family="Helvetica,sans-Serif" font-size="10.00" fill="#000000">setState</text>
</a>
</g>
</g>
<!-- Node1&#45;&gt;Node13 -->
<g id="edge17" class="edge">
<title>Node1&#45;&gt;Node13</title>
<path fill="none" stroke="#191970" d="M66.9635,-264.8571C80.7326,-229.5581 109.5997,-165.697 151.471,-124.5 159.0907,-117.003 168.644,-110.6576 178.0415,-105.5153"/>
<polygon fill="#191970" stroke="#191970" points="63.6078,-263.835 63.3294,-274.4262 70.1518,-266.3203 63.6078,-263.835"/>
</g>
<!-- Node3 -->
<g id="node3" class="node">
<title>Node3</title>
<g id="a_node3"><a xlink:href="classVehicleControl_1_1Bluetooth_1_1Base.html#a6c41447b1283d1b90459cbdae3a54480" target="_top" xlink:title="startBothThreads ">
<polygon fill="#ffffff" stroke="#000000" points="316.277,-403.5 316.277,-435.5 445.083,-435.5 445.083,-403.5 316.277,-403.5"/>
<text text-anchor="start" x="324.277" y="-422.5" font-family="Helvetica,sans-Serif" font-size="10.00" fill="#000000">VehicleControl::Bluetooth</text>
<text text-anchor="middle" x="380.68" y="-410.5" font-family="Helvetica,sans-Serif" font-size="10.00" fill="#000000">::Base::startBothThreads</text>
</a>
</g>
</g>
<!-- Node2&#45;&gt;Node3 -->
<g id="edge2" class="edge">
<title>Node2&#45;&gt;Node3</title>
<path fill="none" stroke="#191970" d="M290.525,-426.0644C299.0968,-425.4403 307.7816,-424.8079 316.2038,-424.1947"/>
<polygon fill="#191970" stroke="#191970" points="290.2561,-422.5747 280.5367,-426.7917 290.7645,-429.5562 290.2561,-422.5747"/>
</g>
<!-- Node3&#45;&gt;Node4 -->
<g id="edge3" class="edge">
<title>Node3&#45;&gt;Node4</title>
<path fill="none" stroke="#191970" d="M455.2788,-436.4676C466.0168,-438.9099 476.9918,-441.4062 487.5146,-443.7996"/>
<polygon fill="#191970" stroke="#191970" points="456.031,-433.0493 445.5038,-434.2442 454.4784,-439.875 456.031,-433.0493"/>
</g>
<!-- Node3&#45;&gt;Node5 -->
<g id="edge4" class="edge">
<title>Node3&#45;&gt;Node5</title>
<path fill="none" stroke="#191970" d="M431.9638,-399.76C456.9889,-390.1274 486.7112,-378.6868 510.3365,-369.593"/>
<polygon fill="#191970" stroke="#191970" points="430.7004,-396.4959 422.6252,-403.3546 433.215,-403.0287 430.7004,-396.4959"/>
</g>
<!-- Node5&#45;&gt;Node5 -->
<g id="edge5" class="edge">
<title>Node5&#45;&gt;Node5</title>
<path fill="none" stroke="#191970" d="M522.9318,-380.0753C526.7995,-384.7466 536.5374,-388 552.1455,-388 577.7588,-388 587.5639,-379.2388 581.5608,-369.8274"/>
<polygon fill="#191970" stroke="#191970" points="526.4263,-379.7566 522.7302,-369.8274 519.4276,-379.8943 526.4263,-379.7566"/>
</g>
<!-- Node6&#45;&gt;Node3 -->
<g id="edge7" class="edge">
<title>Node6&#45;&gt;Node3</title>
<path fill="none" stroke="#191970" d="M290.525,-398.1655C299.0968,-400.194 307.7816,-402.2492 316.2038,-404.2422"/>
<polygon fill="#191970" stroke="#191970" points="291.0739,-394.6989 280.5367,-395.8019 289.4619,-401.5107 291.0739,-394.6989"/>
</g>
<!-- Node10 -->
<g id="node10" class="node">
<title>Node10</title>
<g id="a_node10"><a xlink:href="classCore_1_1IO_1_1Input.html#ae490cffe2162d4538dd108b0bd1f3695" target="_top" xlink:title="Input constructs an input based on the given setup. The constructor will automatically export the pin...">
<polygon fill="#ffffff" stroke="#000000" points="497.4615,-230.5 497.4615,-250.5 606.8295,-250.5 606.8295,-230.5 497.4615,-230.5"/>
<text text-anchor="middle" x="552.1455" y="-237.5" font-family="Helvetica,sans-Serif" font-size="10.00" fill="#000000">Core::IO::Input::Input</text>
</a>
</g>
</g>
<!-- Node9&#45;&gt;Node10 -->
<g id="edge13" class="edge">
<title>Node9&#45;&gt;Node10</title>
<path fill="none" stroke="#191970" d="M450.4202,-217.3625C469.9298,-221.8 490.585,-226.498 508.1489,-230.4929"/>
<polygon fill="#191970" stroke="#191970" points="451.1775,-213.9454 440.6503,-215.1403 449.625,-220.7711 451.1775,-213.9454"/>
</g>
<!-- Node11 -->
<g id="node11" class="node">
<title>Node11</title>
<g id="a_node11"><a xlink:href="structCore_1_1IO_1_1Input_1_1Setup.html#a493b98ee230283215bd55b7ba739f60a" target="_top" xlink:title="Core::IO::Input::Setup\l::Setup">
<polygon fill="#ffffff" stroke="#000000" points="661.973,-166.5 661.973,-198.5 775.231,-198.5 775.231,-166.5 661.973,-166.5"/>
<text text-anchor="start" x="669.973" y="-185.5" font-family="Helvetica,sans-Serif" font-size="10.00" fill="#000000">Core::IO::Input::Setup</text>
<text text-anchor="middle" x="718.602" y="-173.5" font-family="Helvetica,sans-Serif" font-size="10.00" fill="#000000">::Setup</text>
</a>
</g>
</g>
<!-- Node9&#45;&gt;Node11 -->
<g id="edge15" class="edge">
<title>Node9&#45;&gt;Node11</title>
<path fill="none" stroke="#191970" d="M450.8855,-197.5526C513.4591,-194.0344 603.8772,-188.9505 661.9477,-185.6854"/>
<polygon fill="#191970" stroke="#191970" points="450.492,-194.0691 440.7043,-198.1251 450.885,-201.0581 450.492,-194.0691"/>
</g>
<!-- Node10&#45;&gt;Node11 -->
<g id="edge14" class="edge">
<title>Node10&#45;&gt;Node11</title>
<path fill="none" stroke="#191970" d="M590.7568,-227.0463C615.1026,-218.5633 646.6792,-207.5607 672.359,-198.6129"/>
<polygon fill="#191970" stroke="#191970" points="589.4315,-223.8016 581.14,-230.3972 591.7348,-230.4118 589.4315,-223.8016"/>
</g>
<!-- Node14 -->
<g id="node14" class="node">
<title>Node14</title>
<g id="a_node14"><a xlink:href="namespaceVehicleControl.html#af89cecf99aa4e7787af7433d8f3b6970" target="_top" xlink:title="VehicleControl::callback">
<polygon fill="#ffffff" stroke="#000000" points="319.34,-107.5 319.34,-127.5 442.02,-127.5 442.02,-107.5 319.34,-107.5"/>
<text text-anchor="middle" x="380.68" y="-114.5" font-family="Helvetica,sans-Serif" font-size="10.00" fill="#000000">VehicleControl::callback</text>
</a>
</g>
</g>
<!-- Node13&#45;&gt;Node14 -->
<g id="edge18" class="edge">
<title>Node13&#45;&gt;Node14</title>
<path fill="none" stroke="#191970" d="M278.9863,-100.2226C293.028,-102.6082 307.8615,-105.1284 321.7285,-107.4843"/>
<polygon fill="#191970" stroke="#191970" points="279.3718,-96.738 268.9268,-98.5135 278.1993,-103.6391 279.3718,-96.738"/>
</g>
<!-- Node18 -->
<g id="node18" class="node">
<title>Node18</title>
<g id="a_node18"><a xlink:href="classCore_1_1IO_1_1UserLED.html#a4e161b02396d015ce4fd5434853e44bc" target="_top" xlink:title="changeBlinkTime method changes the time of the blink ">
<polygon fill="#ffffff" stroke="#000000" points="327.954,-54.5 327.954,-86.5 433.406,-86.5 433.406,-54.5 327.954,-54.5"/>
<text text-anchor="start" x="335.954" y="-73.5" font-family="Helvetica,sans-Serif" font-size="10.00" fill="#000000">Core::IO::UserLED::</text>
<text text-anchor="middle" x="380.68" y="-61.5" font-family="Helvetica,sans-Serif" font-size="10.00" fill="#000000">changeBlinkTime</text>
</a>
</g>
</g>
<!-- Node13&#45;&gt;Node18 -->
<g id="edge24" class="edge">
<title>Node13&#45;&gt;Node18</title>
<path fill="none" stroke="#191970" d="M279.272,-82.191C295.2778,-80.3458 312.2955,-78.3839 327.7266,-76.6048"/>
<polygon fill="#191970" stroke="#191970" points="278.4601,-78.7614 268.9268,-83.3837 279.2619,-85.7153 278.4601,-78.7614"/>
</g>
<!-- Node19 -->
<g id="node19" class="node">
<title>Node19</title>
<g id="a_node19"><a xlink:href="structCore_1_1IO_1_1UserLED_1_1Setup.html#a72bdd70912a6322aba2da15c28a84fbe" target="_top" xlink:title="Core::IO::UserLED::\lSetup::Setup">
<polygon fill="#ffffff" stroke="#000000" points="499.4195,-.5 499.4195,-32.5 604.8715,-32.5 604.8715,-.5 499.4195,-.5"/>
<text text-anchor="start" x="507.4195" y="-19.5" font-family="Helvetica,sans-Serif" font-size="10.00" fill="#000000">Core::IO::UserLED::</text>
<text text-anchor="middle" x="552.1455" y="-7.5" font-family="Helvetica,sans-Serif" font-size="10.00" fill="#000000">Setup::Setup</text>
</a>
</g>
</g>
<!-- Node13&#45;&gt;Node19 -->
<g id="edge26" class="edge">
<title>Node13&#45;&gt;Node19</title>
<path fill="none" stroke="#191970" d="M254.4469,-68.9027C272.7082,-60.023 295.1116,-50.3521 316.277,-44.5 377.684,-27.5214 450.8815,-20.838 499.2716,-18.2073"/>
<polygon fill="#191970" stroke="#191970" points="252.699,-65.863 245.3035,-73.4497 255.8159,-72.1307 252.699,-65.863"/>
</g>
<!-- Node14&#45;&gt;Node11 -->
<g id="edge21" class="edge">
<title>Node14&#45;&gt;Node11</title>
<path fill="none" stroke="#191970" d="M424.3443,-130.3026C441.8797,-135.1656 462.3437,-140.4927 481.083,-144.5 542.3386,-157.5992 613.3559,-168.394 661.6651,-175.0877"/>
<polygon fill="#191970" stroke="#191970" points="424.9672,-126.8422 414.3932,-127.5065 423.0736,-133.5812 424.9672,-126.8422"/>
</g>
<!-- Node15 -->
<g id="node15" class="node">
<title>Node15</title>
<g id="a_node15"><a xlink:href="classCore_1_1IO_1_1Input.html#af505f10ed01aa26257a8709ba7211ba6" target="_top" xlink:title="setEdgeCallback setter ">
<polygon fill="#ffffff" stroke="#000000" points="490.237,-102.5 490.237,-134.5 614.054,-134.5 614.054,-102.5 490.237,-102.5"/>
<text text-anchor="start" x="498.237" y="-121.5" font-family="Helvetica,sans-Serif" font-size="10.00" fill="#000000">Core::IO::Input::setEdge</text>
<text text-anchor="middle" x="552.1455" y="-109.5" font-family="Helvetica,sans-Serif" font-size="10.00" fill="#000000">Callback</text>
</a>
</g>
</g>
<!-- Node14&#45;&gt;Node15 -->
<g id="edge19" class="edge">
<title>Node14&#45;&gt;Node15</title>
<path fill="none" stroke="#191970" d="M452.458,-117.9186C464.9326,-117.9914 477.8123,-118.0665 490.002,-118.1376"/>
<polygon fill="#191970" stroke="#191970" points="452.1189,-114.4167 442.0987,-117.8582 452.0781,-121.4166 452.1189,-114.4167"/>
</g>
<!-- Node16 -->
<g id="node16" class="node">
<title>Node16</title>
<g id="a_node16"><a xlink:href="namespaceVehicleControl.html#ab876bdb990021d96b1452a85b59f99d8" target="_top" xlink:title="VehicleControl::createRising\lEdgeThreadedInput">
<polygon fill="#ffffff" stroke="#000000" points="481.083,-51.5 481.083,-83.5 623.208,-83.5 623.208,-51.5 481.083,-51.5"/>
<text text-anchor="start" x="489.083" y="-70.5" font-family="Helvetica,sans-Serif" font-size="10.00" fill="#000000">VehicleControl::createRising</text>
<text text-anchor="middle" x="552.1455" y="-58.5" font-family="Helvetica,sans-Serif" font-size="10.00" fill="#000000">EdgeThreadedInput</text>
</a>
</g>
</g>
<!-- Node14&#45;&gt;Node16 -->
<g id="edge22" class="edge">
<title>Node14&#45;&gt;Node16</title>
<path fill="none" stroke="#191970" d="M425.1315,-104.5378C447.1544,-98.1158 473.9509,-90.3019 497.2443,-83.5094"/>
<polygon fill="#191970" stroke="#191970" points="423.9989,-101.2222 415.3786,-107.3818 425.9586,-107.9423 423.9989,-101.2222"/>
</g>
<!-- Node15&#45;&gt;Node11 -->
<g id="edge20" class="edge">
<title>Node15&#45;&gt;Node11</title>
<path fill="none" stroke="#191970" d="M603.6269,-138.2938C627.1638,-147.3434 654.6853,-157.925 676.9,-166.4662"/>
<polygon fill="#191970" stroke="#191970" points="604.7395,-134.9718 594.1495,-134.6499 602.2273,-141.5055 604.7395,-134.9718"/>
</g>
<!-- Node17 -->
<g id="node17" class="node">
<title>Node17</title>
<g id="a_node17"><a xlink:href="classVehicleControl_1_1Control_1_1IOFactory.html#a4d4de0203bf577352199f49c67f49d98" target="_top" xlink:title="fillInputList method fills in all of the app&#39;s inputs ">
<polygon fill="#ffffff" stroke="#000000" points="659.208,-51.5 659.208,-83.5 777.996,-83.5 777.996,-51.5 659.208,-51.5"/>
<text text-anchor="start" x="667.208" y="-70.5" font-family="Helvetica,sans-Serif" font-size="10.00" fill="#000000">VehicleControl::Control</text>
<text text-anchor="middle" x="718.602" y="-58.5" font-family="Helvetica,sans-Serif" font-size="10.00" fill="#000000">::IOFactory::fillInputList</text>
</a>
</g>
</g>
<!-- Node16&#45;&gt;Node17 -->
<g id="edge23" class="edge">
<title>Node16&#45;&gt;Node17</title>
<path fill="none" stroke="#191970" d="M633.3444,-67.5C641.9988,-67.5 650.6824,-67.5 659.0207,-67.5"/>
<polygon fill="#191970" stroke="#191970" points="633.2209,-64.0001 623.2209,-67.5 633.2208,-71.0001 633.2209,-64.0001"/>
</g>
<!-- Node18&#45;&gt;Node19 -->
<g id="edge25" class="edge">
<title>Node18&#45;&gt;Node19</title>
<path fill="none" stroke="#191970" d="M441.3699,-51.3868C460.8894,-45.2395 482.3075,-38.4942 501.0648,-32.587"/>
<polygon fill="#191970" stroke="#191970" points="440.1479,-48.1021 431.6611,-54.4444 442.2506,-54.7788 440.1479,-48.1021"/>
</g>
</g>
</svg>
