<?xml version="1.0" encoding="UTF-8" standalone="no"?>
<!DOCTYPE svg PUBLIC "-//W3C//DTD SVG 1.1//EN"
 "http://www.w3.org/Graphics/SVG/1.1/DTD/svg11.dtd">
<!-- Generated by graphviz version 2.40.1 (20161225.0304)
 -->
<!-- Title: VehicleControl::IO::Input::setEdgeType Pages: 1 -->
<svg width="393pt" height="64pt"
 viewBox="0.00 0.00 392.54 64.00" xmlns="http://www.w3.org/2000/svg" xmlns:xlink="http://www.w3.org/1999/xlink">
<g id="graph0" class="graph" transform="scale(1 1) rotate(0) translate(4 60)">
<title>VehicleControl::IO::Input::setEdgeType</title>
<polygon fill="#ffffff" stroke="transparent" points="-4,4 -4,-60 388.544,-60 388.544,4 -4,4"/>
<!-- Node38 -->
<g id="node1" class="node">
<title>Node38</title>
<polygon fill="#bfbfbf" stroke="#000000" points="0,-.5 0,-32.5 108.262,-32.5 108.262,-.5 0,-.5"/>
<text text-anchor="start" x="8" y="-19.5" font-family="Helvetica,sans-Serif" font-size="10.00" fill="#000000">VehicleControl::IO</text>
<text text-anchor="middle" x="54.131" y="-7.5" font-family="Helvetica,sans-Serif" font-size="10.00" fill="#000000">::Input::setEdgeType</text>
</g>
<!-- Node39 -->
<g id="node2" class="node">
<title>Node39</title>
<g id="a_node2"><a xlink:href="classVehicleControl_1_1IO_1_1Input.html#aeb47b17475e36a509b1bd2ac115a42a0" target="_top" xlink:title="Input constructs an input based on the given setup. The constructor will automatically export the pin...">
<polygon fill="#ffffff" stroke="#000000" points="144.262,-23.5 144.262,-55.5 241.385,-55.5 241.385,-23.5 144.262,-23.5"/>
<text text-anchor="start" x="152.262" y="-42.5" font-family="Helvetica,sans-Serif" font-size="10.00" fill="#000000">VehicleControl::IO</text>
<text text-anchor="middle" x="192.8235" y="-30.5" font-family="Helvetica,sans-Serif" font-size="10.00" fill="#000000">::Input::Input</text>
</a>
</g>
</g>
<!-- Node38&#45;&gt;Node39 -->
<g id="edge1" class="edge">
<title>Node38&#45;&gt;Node39</title>
<path fill="none" stroke="#191970" d="M118.5183,-27.1776C127.078,-28.5971 135.739,-30.0334 143.976,-31.3994"/>
<polygon fill="#191970" stroke="#191970" points="118.9858,-23.7074 108.5479,-25.5242 117.8405,-30.6131 118.9858,-23.7074"/>
</g>
<!-- Node40 -->
<g id="node3" class="node">
<title>Node40</title>
<g id="a_node3"><a xlink:href="structVehicleControl_1_1IO_1_1Input_1_1Setup.html#a09ce07a96559b6f63eaa51d8eccbc877" target="_top" xlink:title="VehicleControl::IO\l::Input::Setup::Setup">
<polygon fill="#ffffff" stroke="#000000" points="277.385,-.5 277.385,-32.5 384.544,-32.5 384.544,-.5 277.385,-.5"/>
<text text-anchor="start" x="285.385" y="-19.5" font-family="Helvetica,sans-Serif" font-size="10.00" fill="#000000">VehicleControl::IO</text>
<text text-anchor="middle" x="330.9645" y="-7.5" font-family="Helvetica,sans-Serif" font-size="10.00" fill="#000000">::Input::Setup::Setup</text>
</a>
</g>
</g>
<!-- Node38&#45;&gt;Node40 -->
<g id="edge3" class="edge">
<title>Node38&#45;&gt;Node40</title>
<path fill="none" stroke="#191970" d="M118.5332,-14.897C127.182,-14.7326 135.9378,-14.5923 144.262,-14.5 187.4251,-14.0212 198.2219,-14.0182 241.385,-14.5 252.8956,-14.6285 265.2367,-14.8498 276.9663,-15.0995"/>
<polygon fill="#191970" stroke="#191970" points="118.3893,-11.3991 108.4617,-15.0995 118.5301,-18.3977 118.3893,-11.3991"/>
</g>
<!-- Node39&#45;&gt;Node40 -->
<g id="edge2" class="edge">
<title>Node39&#45;&gt;Node40</title>
<path fill="none" stroke="#191970" d="M251.3912,-29.7487C259.9068,-28.3309 268.6404,-26.8767 277.058,-25.4753"/>
<polygon fill="#191970" stroke="#191970" points="250.8162,-26.2961 241.5268,-31.3911 251.9659,-33.2011 250.8162,-26.2961"/>
</g>
</g>
</svg>
