<?xml version="1.0" encoding="UTF-8" standalone="no"?>
<!DOCTYPE svg PUBLIC "-//W3C//DTD SVG 1.1//EN"
 "http://www.w3.org/Graphics/SVG/1.1/DTD/svg11.dtd">
<!-- Generated by graphviz version 2.40.1 (20161225.0304)
 -->
<!-- Title: Core::IO::Input::setEdgeCallback Pages: 1 -->
<svg width="613pt" height="92pt"
 viewBox="0.00 0.00 612.86 92.00" xmlns="http://www.w3.org/2000/svg" xmlns:xlink="http://www.w3.org/1999/xlink">
<g id="graph0" class="graph" transform="scale(1 1) rotate(0) translate(4 88)">
<title>Core::IO::Input::setEdgeCallback</title>
<polygon fill="#ffffff" stroke="transparent" points="-4,4 -4,-88 608.864,-88 608.864,4 -4,4"/>
<!-- Node28 -->
<g id="node1" class="node">
<title>Node28</title>
<polygon fill="#bfbfbf" stroke="#000000" points="0,-28.5 0,-60.5 123.817,-60.5 123.817,-28.5 0,-28.5"/>
<text text-anchor="start" x="8" y="-47.5" font-family="Helvetica,sans-Serif" font-size="10.00" fill="#000000">Core::IO::Input::setEdge</text>
<text text-anchor="middle" x="61.9085" y="-35.5" font-family="Helvetica,sans-Serif" font-size="10.00" fill="#000000">Callback</text>
</g>
<!-- Node29 -->
<g id="node2" class="node">
<title>Node29</title>
<g id="a_node2"><a xlink:href="namespaceVehicleControl.html#af89cecf99aa4e7787af7433d8f3b6970" target="_top" xlink:title="VehicleControl::callback">
<polygon fill="#ffffff" stroke="#000000" points="159.817,-34.5 159.817,-54.5 282.497,-54.5 282.497,-34.5 159.817,-34.5"/>
<text text-anchor="middle" x="221.157" y="-41.5" font-family="Helvetica,sans-Serif" font-size="10.00" fill="#000000">VehicleControl::callback</text>
</a>
</g>
</g>
<!-- Node28&#45;&gt;Node29 -->
<g id="edge1" class="edge">
<title>Node28&#45;&gt;Node29</title>
<path fill="none" stroke="#191970" d="M123.9341,-44.5C132.2539,-44.5 140.8436,-44.5 149.3146,-44.5"/>
<polygon fill="#191970" stroke="#191970" points="149.5625,-48.0001 159.5624,-44.5 149.5624,-41.0001 149.5625,-48.0001"/>
</g>
<!-- Node30 -->
<g id="node3" class="node">
<title>Node30</title>
<g id="a_node3"><a xlink:href="classCore_1_1IO_1_1UserLED.html#a5d7887f070c9ce082f8be1d3aae448d2" target="_top" xlink:title="state getter ">
<polygon fill="#ffffff" stroke="#000000" points="479.6805,-51.5 479.6805,-83.5 585.1325,-83.5 585.1325,-51.5 479.6805,-51.5"/>
<text text-anchor="start" x="487.6805" y="-70.5" font-family="Helvetica,sans-Serif" font-size="10.00" fill="#000000">Core::IO::UserLED::</text>
<text text-anchor="middle" x="532.4065" y="-58.5" font-family="Helvetica,sans-Serif" font-size="10.00" fill="#000000">state</text>
</a>
</g>
</g>
<!-- Node29&#45;&gt;Node30 -->
<g id="edge2" class="edge">
<title>Node29&#45;&gt;Node30</title>
<path fill="none" stroke="#191970" d="M282.6499,-49.0441C336.6586,-53.0351 414.8956,-58.8164 469.362,-62.8413"/>
<polygon fill="#191970" stroke="#191970" points="469.3531,-66.3501 479.5839,-63.5966 469.869,-59.3691 469.3531,-66.3501"/>
</g>
<!-- Node31 -->
<g id="node4" class="node">
<title>Node31</title>
<g id="a_node4"><a xlink:href="classCore_1_1IO_1_1UserLED.html#ac39c3ed451b83046ff37ecb4ccff142c" target="_top" xlink:title="setState method sets the state of the LED ">
<polygon fill="#ffffff" stroke="#000000" points="318.497,-6.5 318.497,-38.5 423.949,-38.5 423.949,-6.5 318.497,-6.5"/>
<text text-anchor="start" x="326.497" y="-25.5" font-family="Helvetica,sans-Serif" font-size="10.00" fill="#000000">Core::IO::UserLED::</text>
<text text-anchor="middle" x="371.223" y="-13.5" font-family="Helvetica,sans-Serif" font-size="10.00" fill="#000000">setState</text>
</a>
</g>
</g>
<!-- Node29&#45;&gt;Node31 -->
<g id="edge3" class="edge">
<title>Node29&#45;&gt;Node31</title>
<path fill="none" stroke="#191970" d="M282.6276,-35.4883C291.0292,-34.2566 299.6655,-32.9905 308.096,-31.7546"/>
<polygon fill="#191970" stroke="#191970" points="308.8612,-35.1799 318.2477,-30.2663 307.8458,-28.2539 308.8612,-35.1799"/>
</g>
<!-- Node31&#45;&gt;Node30 -->
<g id="edge4" class="edge">
<title>Node31&#45;&gt;Node30</title>
<path fill="none" stroke="#191970" d="M424.0005,-37.2347C438.6116,-41.3139 454.6129,-45.7812 469.7286,-50.0013"/>
<polygon fill="#191970" stroke="#191970" points="468.9376,-53.4142 479.5104,-52.7322 470.8199,-46.672 468.9376,-53.4142"/>
</g>
<!-- Node32 -->
<g id="node5" class="node">
<title>Node32</title>
<g id="a_node5"><a xlink:href="classThreadHelper.html#a4426e115e7858a4b6f6eedbc77302756" target="_top" xlink:title="startDetachedThread ">
<polygon fill="#ffffff" stroke="#000000" points="459.949,-.5 459.949,-32.5 604.864,-32.5 604.864,-.5 459.949,-.5"/>
<text text-anchor="start" x="467.949" y="-19.5" font-family="Helvetica,sans-Serif" font-size="10.00" fill="#000000">ThreadHelper::startDetached</text>
<text text-anchor="middle" x="532.4065" y="-7.5" font-family="Helvetica,sans-Serif" font-size="10.00" fill="#000000">Thread</text>
</a>
</g>
</g>
<!-- Node31&#45;&gt;Node32 -->
<g id="edge5" class="edge">
<title>Node31&#45;&gt;Node32</title>
<path fill="none" stroke="#191970" d="M424.0005,-20.5354C432.2493,-20.2283 440.9411,-19.9048 449.6666,-19.58"/>
<polygon fill="#191970" stroke="#191970" points="450.0376,-23.0687 459.9004,-19.199 449.7771,-16.0735 450.0376,-23.0687"/>
</g>
</g>
</svg>
