<?xml version="1.0" encoding="UTF-8" standalone="no"?>
<!DOCTYPE svg PUBLIC "-//W3C//DTD SVG 1.1//EN"
 "http://www.w3.org/Graphics/SVG/1.1/DTD/svg11.dtd">
<!-- Generated by graphviz version 2.40.1 (20161225.0304)
 -->
<!-- Title: VehicleControl::IO::Input::cancelWaitForEdge Pages: 1 -->
<svg width="555pt" height="92pt"
 viewBox="0.00 0.00 555.10 92.00" xmlns="http://www.w3.org/2000/svg" xmlns:xlink="http://www.w3.org/1999/xlink">
<g id="graph0" class="graph" transform="scale(1 1) rotate(0) translate(4 88)">
<title>VehicleControl::IO::Input::cancelWaitForEdge</title>
<polygon fill="#ffffff" stroke="transparent" points="-4,4 -4,-88 551.102,-88 551.102,4 -4,4"/>
<!-- Node11 -->
<g id="node1" class="node">
<title>Node11</title>
<polygon fill="#bfbfbf" stroke="#000000" points="0,-25.5 0,-57.5 136.586,-57.5 136.586,-25.5 0,-25.5"/>
<text text-anchor="start" x="8" y="-44.5" font-family="Helvetica,sans-Serif" font-size="10.00" fill="#000000">VehicleControl::IO</text>
<text text-anchor="middle" x="68.293" y="-32.5" font-family="Helvetica,sans-Serif" font-size="10.00" fill="#000000">::Input::cancelWaitForEdge</text>
</g>
<!-- Node12 -->
<g id="node2" class="node">
<title>Node12</title>
<g id="a_node2"><a xlink:href="classVehicleControl_1_1IO_1_1Input.html#a23f6d0d5f5cc67622adccf30c7bdb655" target="_top" xlink:title="waitForEdge method is a blocking wait for edge. Therefore, the callee will halt its thread until this...">
<polygon fill="#ffffff" stroke="#000000" points="172.586,-25.5 172.586,-57.5 278.056,-57.5 278.056,-25.5 172.586,-25.5"/>
<text text-anchor="start" x="180.586" y="-44.5" font-family="Helvetica,sans-Serif" font-size="10.00" fill="#000000">VehicleControl::IO</text>
<text text-anchor="middle" x="225.321" y="-32.5" font-family="Helvetica,sans-Serif" font-size="10.00" fill="#000000">::Input::waitForEdge</text>
</a>
</g>
</g>
<!-- Node11&#45;&gt;Node12 -->
<g id="edge1" class="edge">
<title>Node11&#45;&gt;Node12</title>
<path fill="none" stroke="#191970" d="M136.711,-41.5C145.1721,-41.5 153.7922,-41.5 162.1695,-41.5"/>
<polygon fill="#191970" stroke="#191970" points="162.2406,-45.0001 172.2406,-41.5 162.2406,-38.0001 162.2406,-45.0001"/>
</g>
<!-- Node13 -->
<g id="node3" class="node">
<title>Node13</title>
<g id="a_node3"><a xlink:href="classVehicleControl_1_1IO_1_1IOBase.html#a8fa41e860d76951642da1d58b6756604" target="_top" xlink:title="path getter ">
<polygon fill="#ffffff" stroke="#000000" points="315.456,-51.5 315.456,-83.5 412.579,-83.5 412.579,-51.5 315.456,-51.5"/>
<text text-anchor="start" x="323.456" y="-70.5" font-family="Helvetica,sans-Serif" font-size="10.00" fill="#000000">VehicleControl::IO</text>
<text text-anchor="middle" x="364.0175" y="-58.5" font-family="Helvetica,sans-Serif" font-size="10.00" fill="#000000">::IOBase::path</text>
</a>
</g>
</g>
<!-- Node12&#45;&gt;Node13 -->
<g id="edge2" class="edge">
<title>Node12&#45;&gt;Node13</title>
<path fill="none" stroke="#191970" d="M278.1519,-51.4037C287.0512,-53.0719 296.336,-54.8124 305.3722,-56.5064"/>
<polygon fill="#191970" stroke="#191970" points="304.9614,-59.9903 315.4351,-58.3928 306.2512,-53.1101 304.9614,-59.9903"/>
</g>
<!-- Node14 -->
<g id="node4" class="node">
<title>Node14</title>
<g id="a_node4"><a xlink:href="classVehicleControl_1_1IO_1_1IOBase.html#adcc9f65745e07f2e00425d4e0f5f8e54" target="_top" xlink:title="getValue getter ">
<polygon fill="#ffffff" stroke="#000000" points="314.056,-.5 314.056,-32.5 413.979,-32.5 413.979,-.5 314.056,-.5"/>
<text text-anchor="start" x="322.056" y="-19.5" font-family="Helvetica,sans-Serif" font-size="10.00" fill="#000000">VehicleControl::IO</text>
<text text-anchor="middle" x="364.0175" y="-7.5" font-family="Helvetica,sans-Serif" font-size="10.00" fill="#000000">::IOBase::getValue</text>
</a>
</g>
</g>
<!-- Node12&#45;&gt;Node14 -->
<g id="edge3" class="edge">
<title>Node12&#45;&gt;Node14</title>
<path fill="none" stroke="#191970" d="M278.1519,-31.9773C286.5154,-30.4697 295.2192,-28.9009 303.7373,-27.3655"/>
<polygon fill="#191970" stroke="#191970" points="304.3995,-30.8026 313.62,-25.5841 303.1577,-23.9136 304.3995,-30.8026"/>
</g>
<!-- Node15 -->
<g id="node5" class="node">
<title>Node15</title>
<g id="a_node5"><a xlink:href="classVehicleControl_1_1IO_1_1IOBase.html#a1da47fda987bfedb4ec3c7fb446c09c7" target="_top" xlink:title="read function that reads the value of the given file filename ">
<polygon fill="#ffffff" stroke="#000000" points="449.979,-.5 449.979,-32.5 547.102,-32.5 547.102,-.5 449.979,-.5"/>
<text text-anchor="start" x="457.979" y="-19.5" font-family="Helvetica,sans-Serif" font-size="10.00" fill="#000000">VehicleControl::IO</text>
<text text-anchor="middle" x="498.5405" y="-7.5" font-family="Helvetica,sans-Serif" font-size="10.00" fill="#000000">::IOBase::read</text>
</a>
</g>
</g>
<!-- Node14&#45;&gt;Node15 -->
<g id="edge4" class="edge">
<title>Node14&#45;&gt;Node15</title>
<path fill="none" stroke="#191970" d="M414.1089,-16.5C422.3937,-16.5 431.0509,-16.5 439.5305,-16.5"/>
<polygon fill="#191970" stroke="#191970" points="439.7488,-20.0001 449.7487,-16.5 439.7487,-13.0001 439.7488,-20.0001"/>
</g>
</g>
</svg>
