<?xml version="1.0" encoding="UTF-8" standalone="no"?>
<!DOCTYPE svg PUBLIC "-//W3C//DTD SVG 1.1//EN"
 "http://www.w3.org/Graphics/SVG/1.1/DTD/svg11.dtd">
<!-- Generated by graphviz version 2.40.1 (20161225.0304)
 -->
<!-- Title: VehicleControl::IO::ServoControl::setDesiredDegree Pages: 1 -->
<svg width="326pt" height="92pt"
 viewBox="0.00 0.00 326.03 92.00" xmlns="http://www.w3.org/2000/svg" xmlns:xlink="http://www.w3.org/1999/xlink">
<g id="graph0" class="graph" transform="scale(1 1) rotate(0) translate(4 88)">
<title>VehicleControl::IO::ServoControl::setDesiredDegree</title>
<polygon fill="#ffffff" stroke="transparent" points="-4,4 -4,-88 322.03,-88 322.03,4 -4,4"/>
<!-- Node12 -->
<g id="node1" class="node">
<title>Node12</title>
<polygon fill="#bfbfbf" stroke="#000000" points="0,-19.5 0,-63.5 133.237,-63.5 133.237,-19.5 0,-19.5"/>
<text text-anchor="start" x="8" y="-50.5" font-family="Helvetica,sans-Serif" font-size="10.00" fill="#000000">VehicleControl::IO</text>
<text text-anchor="start" x="8" y="-38.5" font-family="Helvetica,sans-Serif" font-size="10.00" fill="#000000">::ServoControl::setDesired</text>
<text text-anchor="middle" x="66.6185" y="-26.5" font-family="Helvetica,sans-Serif" font-size="10.00" fill="#000000">Degree</text>
</g>
<!-- Node13 -->
<g id="node2" class="node">
<title>Node13</title>
<g id="a_node2"><a xlink:href="classVehicleControl_1_1IO_1_1MotorControl.html#acbd458d9cb594ef6851dda1e67521d1b" target="_top" xlink:title="setPulseWidth sets the pulse width of the signal ">
<polygon fill="#ffffff" stroke="#000000" points="169.237,-51.5 169.237,-83.5 318.03,-83.5 318.03,-51.5 169.237,-51.5"/>
<text text-anchor="start" x="177.237" y="-70.5" font-family="Helvetica,sans-Serif" font-size="10.00" fill="#000000">VehicleControl::IO</text>
<text text-anchor="middle" x="243.6335" y="-58.5" font-family="Helvetica,sans-Serif" font-size="10.00" fill="#000000">::MotorControl::setPulseWidth</text>
</a>
</g>
</g>
<!-- Node12&#45;&gt;Node13 -->
<g id="edge1" class="edge">
<title>Node12&#45;&gt;Node13</title>
<path fill="none" stroke="#191970" d="M133.288,-51.2924C141.6705,-52.5237 150.3317,-53.7958 158.9446,-55.0609"/>
<polygon fill="#191970" stroke="#191970" points="158.6111,-58.5494 169.0136,-56.5398 159.6284,-51.6237 158.6111,-58.5494"/>
</g>
<!-- Node14 -->
<g id="node3" class="node">
<title>Node14</title>
<g id="a_node3"><a xlink:href="classMath_1_1LinearConverter.html#a0b41880c7734a6edf56ccf798dfc693b" target="_top" xlink:title="convertXtoY getter. Uses y = mx + b. ">
<polygon fill="#ffffff" stroke="#000000" points="185.9035,-.5 185.9035,-32.5 301.3635,-32.5 301.3635,-.5 185.9035,-.5"/>
<text text-anchor="start" x="193.9035" y="-19.5" font-family="Helvetica,sans-Serif" font-size="10.00" fill="#000000">Math::LinearConverter</text>
<text text-anchor="middle" x="243.6335" y="-7.5" font-family="Helvetica,sans-Serif" font-size="10.00" fill="#000000">::convertXtoY</text>
</a>
</g>
</g>
<!-- Node12&#45;&gt;Node14 -->
<g id="edge2" class="edge">
<title>Node12&#45;&gt;Node14</title>
<path fill="none" stroke="#191970" d="M133.288,-32.0842C147.168,-30.1239 161.8121,-28.0557 175.7358,-26.0893"/>
<polygon fill="#191970" stroke="#191970" points="176.3135,-29.5425 185.7258,-24.6784 175.3346,-22.6113 176.3135,-29.5425"/>
</g>
</g>
</svg>
