<?xml version="1.0" encoding="UTF-8" standalone="no"?>
<!DOCTYPE svg PUBLIC "-//W3C//DTD SVG 1.1//EN"
 "http://www.w3.org/Graphics/SVG/1.1/DTD/svg11.dtd">
<!-- Generated by graphviz version 2.40.1 (20161225.0304)
 -->
<!-- Title: VehicleControl::IO::UserLED::setState Pages: 1 -->
<svg width="626pt" height="182pt"
 viewBox="0.00 0.00 625.61 182.00" xmlns="http://www.w3.org/2000/svg" xmlns:xlink="http://www.w3.org/1999/xlink">
<g id="graph0" class="graph" transform="scale(1 1) rotate(0) translate(4 178)">
<title>VehicleControl::IO::UserLED::setState</title>
<polygon fill="#ffffff" stroke="transparent" points="-4,4 -4,-178 621.613,-178 621.613,4 -4,4"/>
<!-- Node16 -->
<g id="node1" class="node">
<title>Node16</title>
<polygon fill="#bfbfbf" stroke="#000000" points="0,-45.5 0,-77.5 104.353,-77.5 104.353,-45.5 0,-45.5"/>
<text text-anchor="start" x="8" y="-64.5" font-family="Helvetica,sans-Serif" font-size="10.00" fill="#000000">VehicleControl::IO</text>
<text text-anchor="middle" x="52.1765" y="-52.5" font-family="Helvetica,sans-Serif" font-size="10.00" fill="#000000">::UserLED::setState</text>
</g>
<!-- Node17 -->
<g id="node2" class="node">
<title>Node17</title>
<g id="a_node2"><a xlink:href="namespaceVehicleControl.html#af89cecf99aa4e7787af7433d8f3b6970" target="_top" xlink:title="VehicleControl::callback">
<polygon fill="#ffffff" stroke="#000000" points="151.1865,-99.5 151.1865,-119.5 273.8665,-119.5 273.8665,-99.5 151.1865,-99.5"/>
<text text-anchor="middle" x="212.5265" y="-106.5" font-family="Helvetica,sans-Serif" font-size="10.00" fill="#000000">VehicleControl::callback</text>
</a>
</g>
</g>
<!-- Node16&#45;&gt;Node17 -->
<g id="edge1" class="edge">
<title>Node16&#45;&gt;Node17</title>
<path fill="none" stroke="#191970" d="M114.3197,-80.1023C136.3671,-86.7021 160.3331,-93.8762 179.0705,-99.4851"/>
<polygon fill="#191970" stroke="#191970" points="115.2648,-76.7318 104.6811,-77.217 113.2574,-83.4378 115.2648,-76.7318"/>
</g>
<!-- Node22 -->
<g id="node7" class="node">
<title>Node22</title>
<g id="a_node7"><a xlink:href="classVehicleControl_1_1IO_1_1UserLED.html#a899d101eb5e8129e5f3f6c13dce1afb6" target="_top" xlink:title="changeBlinkTime method changes the time of the blink ">
<polygon fill="#ffffff" stroke="#000000" points="140.353,-45.5 140.353,-77.5 284.7,-77.5 284.7,-45.5 140.353,-45.5"/>
<text text-anchor="start" x="148.353" y="-64.5" font-family="Helvetica,sans-Serif" font-size="10.00" fill="#000000">VehicleControl::IO</text>
<text text-anchor="middle" x="212.5265" y="-52.5" font-family="Helvetica,sans-Serif" font-size="10.00" fill="#000000">::UserLED::changeBlinkTime</text>
</a>
</g>
</g>
<!-- Node16&#45;&gt;Node22 -->
<g id="edge7" class="edge">
<title>Node16&#45;&gt;Node22</title>
<path fill="none" stroke="#191970" d="M114.6873,-61.5C123.0208,-61.5 131.6222,-61.5 140.1067,-61.5"/>
<polygon fill="#191970" stroke="#191970" points="114.6811,-58.0001 104.6811,-61.5 114.6811,-65.0001 114.6811,-58.0001"/>
</g>
<!-- Node23 -->
<g id="node8" class="node">
<title>Node23</title>
<g id="a_node8"><a xlink:href="structVehicleControl_1_1IO_1_1UserLED_1_1Setup.html#a0f7dc4714f6c82868c4d3bad8baaf4c6" target="_top" xlink:title="VehicleControl::IO\l::UserLED::Setup::Setup">
<polygon fill="#ffffff" stroke="#000000" points="329.0235,-.5 329.0235,-32.5 454.5015,-32.5 454.5015,-.5 329.0235,-.5"/>
<text text-anchor="start" x="337.0235" y="-19.5" font-family="Helvetica,sans-Serif" font-size="10.00" fill="#000000">VehicleControl::IO</text>
<text text-anchor="middle" x="391.7625" y="-7.5" font-family="Helvetica,sans-Serif" font-size="10.00" fill="#000000">::UserLED::Setup::Setup</text>
</a>
</g>
</g>
<!-- Node16&#45;&gt;Node23 -->
<g id="edge9" class="edge">
<title>Node16&#45;&gt;Node23</title>
<path fill="none" stroke="#191970" d="M109.4235,-42.7208C119.6345,-39.9173 130.2406,-37.3515 140.353,-35.5 203.8609,-23.8724 277.6473,-19.3362 328.7849,-17.5799"/>
<polygon fill="#191970" stroke="#191970" points="108.4425,-39.3609 99.7835,-45.466 110.3597,-46.0933 108.4425,-39.3609"/>
</g>
<!-- Node18 -->
<g id="node3" class="node">
<title>Node18</title>
<g id="a_node3"><a xlink:href="classVehicleControl_1_1IO_1_1Input.html#aa963e2cb77f82fb52ce77187494e54ea" target="_top" xlink:title="setEdgeCallback setter ">
<polygon fill="#ffffff" stroke="#000000" points="329.578,-141.5 329.578,-173.5 453.947,-173.5 453.947,-141.5 329.578,-141.5"/>
<text text-anchor="start" x="337.578" y="-160.5" font-family="Helvetica,sans-Serif" font-size="10.00" fill="#000000">VehicleControl::IO</text>
<text text-anchor="middle" x="391.7625" y="-148.5" font-family="Helvetica,sans-Serif" font-size="10.00" fill="#000000">::Input::setEdgeCallback</text>
</a>
</g>
</g>
<!-- Node17&#45;&gt;Node18 -->
<g id="edge2" class="edge">
<title>Node17&#45;&gt;Node18</title>
<path fill="none" stroke="#191970" d="M259.9149,-122.1908C282.0152,-128.1093 308.5575,-135.2174 332.0163,-141.4998"/>
<polygon fill="#191970" stroke="#191970" points="260.6653,-118.7685 250.1002,-119.5624 258.8544,-125.5302 260.6653,-118.7685"/>
</g>
<!-- Node19 -->
<g id="node4" class="node">
<title>Node19</title>
<g id="a_node4"><a xlink:href="structVehicleControl_1_1IO_1_1Input_1_1Setup.html#a09ce07a96559b6f63eaa51d8eccbc877" target="_top" xlink:title="VehicleControl::IO\l::Input::Setup::Setup">
<polygon fill="#ffffff" stroke="#000000" points="504.6395,-121.5 504.6395,-153.5 611.7985,-153.5 611.7985,-121.5 504.6395,-121.5"/>
<text text-anchor="start" x="512.6395" y="-140.5" font-family="Helvetica,sans-Serif" font-size="10.00" fill="#000000">VehicleControl::IO</text>
<text text-anchor="middle" x="558.219" y="-128.5" font-family="Helvetica,sans-Serif" font-size="10.00" fill="#000000">::Input::Setup::Setup</text>
</a>
</g>
</g>
<!-- Node17&#45;&gt;Node19 -->
<g id="edge4" class="edge">
<title>Node17&#45;&gt;Node19</title>
<path fill="none" stroke="#191970" d="M284.1844,-115.3041C349.7375,-120.6137 445.2623,-128.3509 504.4799,-133.1473"/>
<polygon fill="#191970" stroke="#191970" points="284.181,-111.7924 273.9311,-114.4736 283.6158,-118.7696 284.181,-111.7924"/>
</g>
<!-- Node20 -->
<g id="node5" class="node">
<title>Node20</title>
<g id="a_node5"><a xlink:href="namespaceVehicleControl.html#a5756c96006fcbf65cf488b7e2297a73a" target="_top" xlink:title="VehicleControl::createRising\lEdgeThreadedInput">
<polygon fill="#ffffff" stroke="#000000" points="320.7,-51.5 320.7,-83.5 462.825,-83.5 462.825,-51.5 320.7,-51.5"/>
<text text-anchor="start" x="328.7" y="-70.5" font-family="Helvetica,sans-Serif" font-size="10.00" fill="#000000">VehicleControl::createRising</text>
<text text-anchor="middle" x="391.7625" y="-58.5" font-family="Helvetica,sans-Serif" font-size="10.00" fill="#000000">EdgeThreadedInput</text>
</a>
</g>
</g>
<!-- Node17&#45;&gt;Node20 -->
<g id="edge5" class="edge">
<title>Node17&#45;&gt;Node20</title>
<path fill="none" stroke="#191970" d="M265.2735,-97.1399C283.4384,-92.8834 304.0511,-88.0532 323.2858,-83.546"/>
<polygon fill="#191970" stroke="#191970" points="264.3957,-93.7507 255.458,-99.44 265.9928,-100.5661 264.3957,-93.7507"/>
</g>
<!-- Node18&#45;&gt;Node19 -->
<g id="edge3" class="edge">
<title>Node18&#45;&gt;Node19</title>
<path fill="none" stroke="#191970" d="M464.4015,-148.7723C477.8444,-147.1571 491.662,-145.4969 504.4205,-143.964"/>
<polygon fill="#191970" stroke="#191970" points="463.7294,-145.3278 454.2183,-149.9958 464.5645,-152.2778 463.7294,-145.3278"/>
</g>
<!-- Node21 -->
<g id="node6" class="node">
<title>Node21</title>
<g id="a_node6"><a xlink:href="classVehicleControl_1_1Control_1_1IOFactory.html#a4d4de0203bf577352199f49c67f49d98" target="_top" xlink:title="fillInputList method fills in all of the app&#39;s inputs ">
<polygon fill="#ffffff" stroke="#000000" points="498.825,-51.5 498.825,-83.5 617.613,-83.5 617.613,-51.5 498.825,-51.5"/>
<text text-anchor="start" x="506.825" y="-70.5" font-family="Helvetica,sans-Serif" font-size="10.00" fill="#000000">VehicleControl::Control</text>
<text text-anchor="middle" x="558.219" y="-58.5" font-family="Helvetica,sans-Serif" font-size="10.00" fill="#000000">::IOFactory::fillInputList</text>
</a>
</g>
</g>
<!-- Node20&#45;&gt;Node21 -->
<g id="edge6" class="edge">
<title>Node20&#45;&gt;Node21</title>
<path fill="none" stroke="#191970" d="M472.9614,-67.5C481.6158,-67.5 490.2994,-67.5 498.6377,-67.5"/>
<polygon fill="#191970" stroke="#191970" points="472.8379,-64.0001 462.8379,-67.5 472.8378,-71.0001 472.8379,-64.0001"/>
</g>
<!-- Node22&#45;&gt;Node23 -->
<g id="edge8" class="edge">
<title>Node22&#45;&gt;Node23</title>
<path fill="none" stroke="#191970" d="M286.5645,-42.9116C300.575,-39.3941 315.1096,-35.7449 328.7414,-32.3224"/>
<polygon fill="#191970" stroke="#191970" points="285.3224,-39.6147 276.4757,-45.4445 287.027,-46.404 285.3224,-39.6147"/>
</g>
</g>
</svg>
