<?xml version="1.0" encoding="UTF-8" standalone="no"?>
<!DOCTYPE svg PUBLIC "-//W3C//DTD SVG 1.1//EN"
 "http://www.w3.org/Graphics/SVG/1.1/DTD/svg11.dtd">
<!-- Generated by graphviz version 2.40.1 (20161225.0304)
 -->
<!-- Title: VehicleControl::IO::IOBase::getValue Pages: 1 -->
<svg width="576pt" height="165pt"
 viewBox="0.00 0.00 576.26 165.00" xmlns="http://www.w3.org/2000/svg" xmlns:xlink="http://www.w3.org/1999/xlink">
<g id="graph0" class="graph" transform="scale(1 1) rotate(0) translate(4 161)">
<title>VehicleControl::IO::IOBase::getValue</title>
<polygon fill="#ffffff" stroke="transparent" points="-4,4 -4,-161 572.258,-161 572.258,4 -4,4"/>
<!-- Node13 -->
<g id="node1" class="node">
<title>Node13</title>
<polygon fill="#bfbfbf" stroke="#000000" points="0,-51.5 0,-83.5 99.923,-83.5 99.923,-51.5 0,-51.5"/>
<text text-anchor="start" x="8" y="-70.5" font-family="Helvetica,sans-Serif" font-size="10.00" fill="#000000">VehicleControl::IO</text>
<text text-anchor="middle" x="49.9615" y="-58.5" font-family="Helvetica,sans-Serif" font-size="10.00" fill="#000000">::IOBase::getValue</text>
</g>
<!-- Node14 -->
<g id="node2" class="node">
<title>Node14</title>
<g id="a_node2"><a xlink:href="classVehicleControl_1_1IO_1_1Input.html#a23f6d0d5f5cc67622adccf30c7bdb655" target="_top" xlink:title="waitForEdge method is a blocking wait for edge. Therefore, the callee will halt its thread until this...">
<polygon fill="#ffffff" stroke="#000000" points="141.483,-102.5 141.483,-134.5 246.953,-134.5 246.953,-102.5 141.483,-102.5"/>
<text text-anchor="start" x="149.483" y="-121.5" font-family="Helvetica,sans-Serif" font-size="10.00" fill="#000000">VehicleControl::IO</text>
<text text-anchor="middle" x="194.218" y="-109.5" font-family="Helvetica,sans-Serif" font-size="10.00" fill="#000000">::Input::waitForEdge</text>
</a>
</g>
</g>
<!-- Node13&#45;&gt;Node14 -->
<g id="edge1" class="edge">
<title>Node13&#45;&gt;Node14</title>
<path fill="none" stroke="#191970" d="M105.3803,-87.0926C119.7599,-92.1763 135.0771,-97.5915 148.8713,-102.4683"/>
<polygon fill="#191970" stroke="#191970" points="106.1999,-83.6701 95.6052,-83.6367 103.8667,-90.2698 106.1999,-83.6701"/>
</g>
<!-- Node17 -->
<g id="node5" class="node">
<title>Node17</title>
<g id="a_node5"><a xlink:href="classVehicleControl_1_1IO_1_1Output.html#a0ff845e3963d2a3e19080b402edfaaf6" target="_top" xlink:title="toggleOutput method toggles the output once ">
<polygon fill="#ffffff" stroke="#000000" points="137.029,-.5 137.029,-32.5 251.407,-32.5 251.407,-.5 137.029,-.5"/>
<text text-anchor="start" x="145.029" y="-19.5" font-family="Helvetica,sans-Serif" font-size="10.00" fill="#000000">VehicleControl::IO</text>
<text text-anchor="middle" x="194.218" y="-7.5" font-family="Helvetica,sans-Serif" font-size="10.00" fill="#000000">::Output::toggleOutput</text>
</a>
</g>
</g>
<!-- Node13&#45;&gt;Node17 -->
<g id="edge5" class="edge">
<title>Node13&#45;&gt;Node17</title>
<path fill="none" stroke="#191970" d="M105.3803,-47.9074C119.7599,-42.8237 135.0771,-37.4085 148.8713,-32.5317"/>
<polygon fill="#191970" stroke="#191970" points="103.8667,-44.7302 95.6052,-51.3633 106.1999,-51.3299 103.8667,-44.7302"/>
</g>
<!-- Node20 -->
<g id="node8" class="node">
<title>Node20</title>
<g id="a_node8"><a xlink:href="classVehicleControl_1_1IO_1_1Output.html#a522b8b858e6e80e33b5c82cbe6a40dac" target="_top" xlink:title="cancelToggle cancels toggling ">
<polygon fill="#ffffff" stroke="#000000" points="135.923,-51.5 135.923,-83.5 252.513,-83.5 252.513,-51.5 135.923,-51.5"/>
<text text-anchor="start" x="143.923" y="-70.5" font-family="Helvetica,sans-Serif" font-size="10.00" fill="#000000">VehicleControl::IO</text>
<text text-anchor="middle" x="194.218" y="-58.5" font-family="Helvetica,sans-Serif" font-size="10.00" fill="#000000">::Output::cancelToggle</text>
</a>
</g>
</g>
<!-- Node13&#45;&gt;Node20 -->
<g id="edge8" class="edge">
<title>Node13&#45;&gt;Node20</title>
<path fill="none" stroke="#191970" d="M110.2084,-67.5C118.6871,-67.5 127.3911,-67.5 135.8341,-67.5"/>
<polygon fill="#191970" stroke="#191970" points="110.0106,-64.0001 100.0106,-67.5 110.0105,-71.0001 110.0106,-64.0001"/>
</g>
<!-- Node15 -->
<g id="node3" class="node">
<title>Node15</title>
<g id="a_node3"><a xlink:href="structVehicleControl_1_1IO_1_1Input_1_1Setup.html#a09ce07a96559b6f63eaa51d8eccbc877" target="_top" xlink:title="VehicleControl::IO\l::Input::Setup::Setup">
<polygon fill="#ffffff" stroke="#000000" points="461.099,-124.5 461.099,-156.5 568.258,-156.5 568.258,-124.5 461.099,-124.5"/>
<text text-anchor="start" x="469.099" y="-143.5" font-family="Helvetica,sans-Serif" font-size="10.00" fill="#000000">VehicleControl::IO</text>
<text text-anchor="middle" x="514.6785" y="-131.5" font-family="Helvetica,sans-Serif" font-size="10.00" fill="#000000">::Input::Setup::Setup</text>
</a>
</g>
</g>
<!-- Node14&#45;&gt;Node15 -->
<g id="edge2" class="edge">
<title>Node14&#45;&gt;Node15</title>
<path fill="none" stroke="#191970" d="M252.4048,-137.1658C264.2347,-140.2155 276.6807,-142.8986 288.513,-144.5 347.0819,-152.4267 414.9528,-149.6509 460.9464,-146.0168"/>
<polygon fill="#191970" stroke="#191970" points="253.2059,-133.7568 242.6395,-134.5334 251.3839,-140.5156 253.2059,-133.7568"/>
</g>
<!-- Node16 -->
<g id="node4" class="node">
<title>Node16</title>
<g id="a_node4"><a xlink:href="classVehicleControl_1_1IO_1_1Input.html#af43084e3aa7a11f0dae0ae67a22112f1" target="_top" xlink:title="cancelWaitForEdge method cancels waiting for the edge. ">
<polygon fill="#ffffff" stroke="#000000" points="288.513,-102.5 288.513,-134.5 425.099,-134.5 425.099,-102.5 288.513,-102.5"/>
<text text-anchor="start" x="296.513" y="-121.5" font-family="Helvetica,sans-Serif" font-size="10.00" fill="#000000">VehicleControl::IO</text>
<text text-anchor="middle" x="356.806" y="-109.5" font-family="Helvetica,sans-Serif" font-size="10.00" fill="#000000">::Input::cancelWaitForEdge</text>
</a>
</g>
</g>
<!-- Node14&#45;&gt;Node16 -->
<g id="edge3" class="edge">
<title>Node14&#45;&gt;Node16</title>
<path fill="none" stroke="#191970" d="M257.0692,-118.5C267.2955,-118.5 277.9329,-118.5 288.2866,-118.5"/>
<polygon fill="#191970" stroke="#191970" points="257.0057,-115.0001 247.0057,-118.5 257.0056,-122.0001 257.0057,-115.0001"/>
</g>
<!-- Node16&#45;&gt;Node15 -->
<g id="edge4" class="edge">
<title>Node16&#45;&gt;Node15</title>
<path fill="none" stroke="#191970" d="M435.3118,-129.44C444.0069,-130.6517 452.709,-131.8644 460.996,-133.0192"/>
<polygon fill="#191970" stroke="#191970" points="435.5204,-125.9353 425.133,-128.0216 434.5542,-132.8683 435.5204,-125.9353"/>
</g>
<!-- Node18 -->
<g id="node6" class="node">
<title>Node18</title>
<g id="a_node6"><a xlink:href="structVehicleControl_1_1IO_1_1Output_1_1Setup.html#a6346d200fcd68fb1693f1e3ae9c9d3af" target="_top" xlink:title="VehicleControl::IO\l::Output::Setup::Setup">
<polygon fill="#ffffff" stroke="#000000" points="299.337,-51.5 299.337,-83.5 414.275,-83.5 414.275,-51.5 299.337,-51.5"/>
<text text-anchor="start" x="307.337" y="-70.5" font-family="Helvetica,sans-Serif" font-size="10.00" fill="#000000">VehicleControl::IO</text>
<text text-anchor="middle" x="356.806" y="-58.5" font-family="Helvetica,sans-Serif" font-size="10.00" fill="#000000">::Output::Setup::Setup</text>
</a>
</g>
</g>
<!-- Node17&#45;&gt;Node18 -->
<g id="edge6" class="edge">
<title>Node17&#45;&gt;Node18</title>
<path fill="none" stroke="#191970" d="M255.2793,-35.6535C271.8887,-40.8634 289.7013,-46.4508 305.6968,-51.4683"/>
<polygon fill="#191970" stroke="#191970" points="256.251,-32.2902 245.6619,-32.6367 254.1559,-38.9693 256.251,-32.2902"/>
</g>
<!-- Node19 -->
<g id="node7" class="node">
<title>Node19</title>
<g id="a_node7"><a xlink:href="classVehicleControl_1_1IO_1_1Output.html#a08adbcc38e67222f17a35847e72f6ba7" target="_top" xlink:title="toggleOutput method toggles the output every using the time arguement. ">
<polygon fill="#ffffff" stroke="#000000" points="299.617,-.5 299.617,-32.5 413.995,-32.5 413.995,-.5 299.617,-.5"/>
<text text-anchor="start" x="307.617" y="-19.5" font-family="Helvetica,sans-Serif" font-size="10.00" fill="#000000">VehicleControl::IO</text>
<text text-anchor="middle" x="356.806" y="-7.5" font-family="Helvetica,sans-Serif" font-size="10.00" fill="#000000">::Output::toggleOutput</text>
</a>
</g>
</g>
<!-- Node17&#45;&gt;Node19 -->
<g id="edge7" class="edge">
<title>Node17&#45;&gt;Node19</title>
<path fill="none" stroke="#191970" d="M261.8976,-16.5C274.383,-16.5 287.3094,-16.5 299.4532,-16.5"/>
<polygon fill="#191970" stroke="#191970" points="261.5405,-13.0001 251.5404,-16.5 261.5404,-20.0001 261.5405,-13.0001"/>
</g>
<!-- Node20&#45;&gt;Node18 -->
<g id="edge9" class="edge">
<title>Node20&#45;&gt;Node18</title>
<path fill="none" stroke="#191970" d="M262.9628,-67.5C275.0586,-67.5 287.5341,-67.5 299.2834,-67.5"/>
<polygon fill="#191970" stroke="#191970" points="262.916,-64.0001 252.916,-67.5 262.916,-71.0001 262.916,-64.0001"/>
</g>
</g>
</svg>
