<?xml version="1.0" encoding="UTF-8" standalone="no"?>
<!DOCTYPE svg PUBLIC "-//W3C//DTD SVG 1.1//EN"
 "http://www.w3.org/Graphics/SVG/1.1/DTD/svg11.dtd">
<!-- Generated by graphviz version 2.40.1 (20161225.0304)
 -->
<!-- Title: VehicleControl::Control::IOFactory::destroyOutputs Pages: 1 -->
<svg width="302pt" height="41pt"
 viewBox="0.00 0.00 301.60 41.00" xmlns="http://www.w3.org/2000/svg" xmlns:xlink="http://www.w3.org/1999/xlink">
<g id="graph0" class="graph" transform="scale(1 1) rotate(0) translate(4 37)">
<title>VehicleControl::Control::IOFactory::destroyOutputs</title>
<polygon fill="#ffffff" stroke="transparent" points="-4,4 -4,-37 297.596,-37 297.596,4 -4,4"/>
<!-- Node4 -->
<g id="node1" class="node">
<title>Node4</title>
<polygon fill="#bfbfbf" stroke="#000000" points="0,-.5 0,-32.5 138.808,-32.5 138.808,-.5 0,-.5"/>
<text text-anchor="start" x="8" y="-19.5" font-family="Helvetica,sans-Serif" font-size="10.00" fill="#000000">VehicleControl::Control</text>
<text text-anchor="middle" x="69.404" y="-7.5" font-family="Helvetica,sans-Serif" font-size="10.00" fill="#000000">::IOFactory::destroyOutputs</text>
</g>
<!-- Node5 -->
<g id="node2" class="node">
<title>Node5</title>
<g id="a_node2"><a xlink:href="classVehicleControl_1_1Control.html#aaaa31c5094e42f0f9795187d59ed10c4" target="_top" xlink:title="VehicleControl::Control\l::~Control">
<polygon fill="#ffffff" stroke="#000000" points="174.808,-.5 174.808,-32.5 293.596,-32.5 293.596,-.5 174.808,-.5"/>
<text text-anchor="start" x="182.808" y="-19.5" font-family="Helvetica,sans-Serif" font-size="10.00" fill="#000000">VehicleControl::Control</text>
<text text-anchor="middle" x="234.202" y="-7.5" font-family="Helvetica,sans-Serif" font-size="10.00" fill="#000000">::~Control</text>
</a>
</g>
</g>
<!-- Node4&#45;&gt;Node5 -->
<g id="edge1" class="edge">
<title>Node4&#45;&gt;Node5</title>
<path fill="none" stroke="#191970" d="M148.9753,-16.5C157.666,-16.5 166.3988,-16.5 174.7862,-16.5"/>
<polygon fill="#191970" stroke="#191970" points="148.8156,-13.0001 138.8156,-16.5 148.8155,-20.0001 148.8156,-13.0001"/>
</g>
</g>
</svg>
