<?xml version="1.0" encoding="UTF-8" standalone="no"?>
<!DOCTYPE svg PUBLIC "-//W3C//DTD SVG 1.1//EN"
 "http://www.w3.org/Graphics/SVG/1.1/DTD/svg11.dtd">
<!-- Generated by graphviz version 2.40.1 (20161225.0304)
 -->
<!-- Title: LibBBB::IO::UserLED::state Pages: 1 -->
<svg width="759pt" height="182pt"
 viewBox="0.00 0.00 758.74 182.00" xmlns="http://www.w3.org/2000/svg" xmlns:xlink="http://www.w3.org/1999/xlink">
<g id="graph0" class="graph" transform="scale(1 1) rotate(0) translate(4 178)">
<title>LibBBB::IO::UserLED::state</title>
<polygon fill="#ffffff" stroke="transparent" points="-4,4 -4,-178 754.737,-178 754.737,4 -4,4"/>
<!-- Node25 -->
<g id="node1" class="node">
<title>Node25</title>
<polygon fill="#bfbfbf" stroke="#000000" points="0,-48.5 0,-80.5 111.572,-80.5 111.572,-48.5 0,-48.5"/>
<text text-anchor="start" x="8" y="-67.5" font-family="Helvetica,sans-Serif" font-size="10.00" fill="#000000">LibBBB::IO::UserLED</text>
<text text-anchor="middle" x="55.786" y="-55.5" font-family="Helvetica,sans-Serif" font-size="10.00" fill="#000000">::state</text>
</g>
<!-- Node26 -->
<g id="node2" class="node">
<title>Node26</title>
<g id="a_node2"><a xlink:href="namespaceVehicleControl.html#af89cecf99aa4e7787af7433d8f3b6970" target="_top" xlink:title="VehicleControl::callback">
<polygon fill="#ffffff" stroke="#000000" points="295.144,-99.5 295.144,-119.5 417.824,-119.5 417.824,-99.5 295.144,-99.5"/>
<text text-anchor="middle" x="356.484" y="-106.5" font-family="Helvetica,sans-Serif" font-size="10.00" fill="#000000">VehicleControl::callback</text>
</a>
</g>
</g>
<!-- Node25&#45;&gt;Node26 -->
<g id="edge1" class="edge">
<title>Node25&#45;&gt;Node26</title>
<path fill="none" stroke="#191970" d="M115.8135,-83.2211C126.3199,-86.0037 137.206,-88.5776 147.572,-90.5 196.6298,-99.5978 253.0112,-104.3995 294.8278,-106.8978"/>
<polygon fill="#191970" stroke="#191970" points="116.4552,-79.768 105.8859,-80.5037 114.6071,-86.5197 116.4552,-79.768"/>
</g>
<!-- Node31 -->
<g id="node7" class="node">
<title>Node31</title>
<g id="a_node7"><a xlink:href="classLibBBB_1_1IO_1_1UserLED.html#a5d6714d1ddc854308c1d4cc5448ded07" target="_top" xlink:title="setState method sets the state of the LED ">
<polygon fill="#ffffff" stroke="#000000" points="147.572,-48.5 147.572,-80.5 259.144,-80.5 259.144,-48.5 147.572,-48.5"/>
<text text-anchor="start" x="155.572" y="-67.5" font-family="Helvetica,sans-Serif" font-size="10.00" fill="#000000">LibBBB::IO::UserLED</text>
<text text-anchor="middle" x="203.358" y="-55.5" font-family="Helvetica,sans-Serif" font-size="10.00" fill="#000000">::setState</text>
</a>
</g>
</g>
<!-- Node25&#45;&gt;Node31 -->
<g id="edge7" class="edge">
<title>Node25&#45;&gt;Node31</title>
<path fill="none" stroke="#191970" d="M121.6187,-64.5C130.2552,-64.5 139.0386,-64.5 147.4885,-64.5"/>
<polygon fill="#191970" stroke="#191970" points="121.5767,-61.0001 111.5766,-64.5 121.5766,-68.0001 121.5767,-61.0001"/>
</g>
<!-- Node33 -->
<g id="node9" class="node">
<title>Node33</title>
<g id="a_node9"><a xlink:href="structLibBBB_1_1IO_1_1UserLED_1_1Setup.html#a25c259e98aa65d6594d0031eb0463b01" target="_top" xlink:title="LibBBB::IO::UserLED\l::Setup::Setup">
<polygon fill="#ffffff" stroke="#000000" points="469.1005,-.5 469.1005,-32.5 580.6725,-32.5 580.6725,-.5 469.1005,-.5"/>
<text text-anchor="start" x="477.1005" y="-19.5" font-family="Helvetica,sans-Serif" font-size="10.00" fill="#000000">LibBBB::IO::UserLED</text>
<text text-anchor="middle" x="524.8865" y="-7.5" font-family="Helvetica,sans-Serif" font-size="10.00" fill="#000000">::Setup::Setup</text>
</a>
</g>
</g>
<!-- Node25&#45;&gt;Node33 -->
<g id="edge12" class="edge">
<title>Node25&#45;&gt;Node33</title>
<path fill="none" stroke="#191970" d="M117.3176,-45.721C127.3678,-43.044 137.7152,-40.519 147.572,-38.5 259.9057,-15.49 394.6934,-13.6428 468.9364,-14.7881"/>
<polygon fill="#191970" stroke="#191970" points="116.1175,-42.4206 107.3957,-48.4356 117.9649,-49.1725 116.1175,-42.4206"/>
</g>
<!-- Node27 -->
<g id="node3" class="node">
<title>Node27</title>
<g id="a_node3"><a xlink:href="classLibBBB_1_1IO_1_1Input.html#ab581bd59f9ca5bfb2e45ebdc81b5e3cc" target="_top" xlink:title="setEdgeCallback setter ">
<polygon fill="#ffffff" stroke="#000000" points="475.481,-141.5 475.481,-173.5 574.292,-173.5 574.292,-141.5 475.481,-141.5"/>
<text text-anchor="start" x="483.481" y="-160.5" font-family="Helvetica,sans-Serif" font-size="10.00" fill="#000000">LibBBB::IO::Input::</text>
<text text-anchor="middle" x="524.8865" y="-148.5" font-family="Helvetica,sans-Serif" font-size="10.00" fill="#000000">setEdgeCallback</text>
</a>
</g>
</g>
<!-- Node26&#45;&gt;Node27 -->
<g id="edge2" class="edge">
<title>Node26&#45;&gt;Node27</title>
<path fill="none" stroke="#191970" d="M401.5301,-122.3395C424.2697,-128.8211 451.9108,-136.6996 475.2595,-143.3547"/>
<polygon fill="#191970" stroke="#191970" points="402.3631,-118.9376 391.7867,-119.5624 400.4442,-125.6695 402.3631,-118.9376"/>
</g>
<!-- Node28 -->
<g id="node4" class="node">
<title>Node28</title>
<g id="a_node4"><a xlink:href="structLibBBB_1_1IO_1_1Input_1_1Setup.html#a1ad926b46c1818dd934b0b99ddb63386" target="_top" xlink:title="LibBBB::IO::Input::\lSetup::Setup">
<polygon fill="#ffffff" stroke="#000000" points="641.9375,-121.5 641.9375,-153.5 740.7485,-153.5 740.7485,-121.5 641.9375,-121.5"/>
<text text-anchor="start" x="649.9375" y="-140.5" font-family="Helvetica,sans-Serif" font-size="10.00" fill="#000000">LibBBB::IO::Input::</text>
<text text-anchor="middle" x="691.343" y="-128.5" font-family="Helvetica,sans-Serif" font-size="10.00" fill="#000000">Setup::Setup</text>
</a>
</g>
</g>
<!-- Node26&#45;&gt;Node28 -->
<g id="edge4" class="edge">
<title>Node26&#45;&gt;Node28</title>
<path fill="none" stroke="#191970" d="M427.9758,-115.4779C492.3301,-120.8591 585.2254,-128.6267 641.7589,-133.3539"/>
<polygon fill="#191970" stroke="#191970" points="428.1592,-111.9812 417.9023,-114.6356 427.5759,-118.9568 428.1592,-111.9812"/>
</g>
<!-- Node29 -->
<g id="node5" class="node">
<title>Node29</title>
<g id="a_node5"><a xlink:href="namespaceVehicleControl.html#ab876bdb990021d96b1452a85b59f99d8" target="_top" xlink:title="VehicleControl::createRising\lEdgeThreadedInput">
<polygon fill="#ffffff" stroke="#000000" points="453.824,-51.5 453.824,-83.5 595.949,-83.5 595.949,-51.5 453.824,-51.5"/>
<text text-anchor="start" x="461.824" y="-70.5" font-family="Helvetica,sans-Serif" font-size="10.00" fill="#000000">VehicleControl::createRising</text>
<text text-anchor="middle" x="524.8865" y="-58.5" font-family="Helvetica,sans-Serif" font-size="10.00" fill="#000000">EdgeThreadedInput</text>
</a>
</g>
</g>
<!-- Node26&#45;&gt;Node29 -->
<g id="edge5" class="edge">
<title>Node26&#45;&gt;Node29</title>
<path fill="none" stroke="#191970" d="M406.9933,-96.9029C423.8266,-92.7046 442.8113,-87.9698 460.5488,-83.546"/>
<polygon fill="#191970" stroke="#191970" points="405.6764,-93.624 396.8206,-99.44 407.3704,-100.416 405.6764,-93.624"/>
</g>
<!-- Node27&#45;&gt;Node28 -->
<g id="edge3" class="edge">
<title>Node27&#45;&gt;Node28</title>
<path fill="none" stroke="#191970" d="M584.3231,-150.3586C603.1324,-148.0986 623.7115,-145.626 641.7545,-143.4581"/>
<polygon fill="#191970" stroke="#191970" points="583.8893,-146.8855 574.3783,-151.5535 584.7244,-153.8355 583.8893,-146.8855"/>
</g>
<!-- Node30 -->
<g id="node6" class="node">
<title>Node30</title>
<g id="a_node6"><a xlink:href="classVehicleControl_1_1Control_1_1IOFactory.html#a4d4de0203bf577352199f49c67f49d98" target="_top" xlink:title="fillInputList method fills in all of the app&#39;s inputs ">
<polygon fill="#ffffff" stroke="#000000" points="631.949,-51.5 631.949,-83.5 750.737,-83.5 750.737,-51.5 631.949,-51.5"/>
<text text-anchor="start" x="639.949" y="-70.5" font-family="Helvetica,sans-Serif" font-size="10.00" fill="#000000">VehicleControl::Control</text>
<text text-anchor="middle" x="691.343" y="-58.5" font-family="Helvetica,sans-Serif" font-size="10.00" fill="#000000">::IOFactory::fillInputList</text>
</a>
</g>
</g>
<!-- Node29&#45;&gt;Node30 -->
<g id="edge6" class="edge">
<title>Node29&#45;&gt;Node30</title>
<path fill="none" stroke="#191970" d="M606.0854,-67.5C614.7398,-67.5 623.4234,-67.5 631.7617,-67.5"/>
<polygon fill="#191970" stroke="#191970" points="605.9619,-64.0001 595.9619,-67.5 605.9618,-71.0001 605.9619,-64.0001"/>
</g>
<!-- Node31&#45;&gt;Node26 -->
<g id="edge8" class="edge">
<title>Node31&#45;&gt;Node26</title>
<path fill="none" stroke="#191970" d="M267.8221,-83.4444C286.4242,-88.9111 306.004,-94.6652 322.0181,-99.3713"/>
<polygon fill="#191970" stroke="#191970" points="268.7886,-80.0805 258.2075,-80.6189 266.8149,-86.7965 268.7886,-80.0805"/>
</g>
<!-- Node32 -->
<g id="node8" class="node">
<title>Node32</title>
<g id="a_node8"><a xlink:href="classLibBBB_1_1IO_1_1UserLED.html#a3ae6a5944f06980dee85eb4504ec9eb0" target="_top" xlink:title="changeBlinkTime method changes the time of the blink ">
<polygon fill="#ffffff" stroke="#000000" points="300.698,-48.5 300.698,-80.5 412.27,-80.5 412.27,-48.5 300.698,-48.5"/>
<text text-anchor="start" x="308.698" y="-67.5" font-family="Helvetica,sans-Serif" font-size="10.00" fill="#000000">LibBBB::IO::UserLED</text>
<text text-anchor="middle" x="356.484" y="-55.5" font-family="Helvetica,sans-Serif" font-size="10.00" fill="#000000">::changeBlinkTime</text>
</a>
</g>
</g>
<!-- Node31&#45;&gt;Node32 -->
<g id="edge9" class="edge">
<title>Node31&#45;&gt;Node32</title>
<path fill="none" stroke="#191970" d="M269.6981,-64.5C280.0013,-64.5 290.556,-64.5 300.5978,-64.5"/>
<polygon fill="#191970" stroke="#191970" points="269.507,-61.0001 259.507,-64.5 269.5069,-68.0001 269.507,-61.0001"/>
</g>
<!-- Node31&#45;&gt;Node33 -->
<g id="edge11" class="edge">
<title>Node31&#45;&gt;Node33</title>
<path fill="none" stroke="#191970" d="M263.7686,-45.7213C274.1579,-42.972 284.9059,-40.4239 295.144,-38.5 353.8188,-27.4739 422.0201,-21.8302 468.7818,-19.0386"/>
<polygon fill="#191970" stroke="#191970" points="262.6699,-42.3932 253.946,-48.4052 264.515,-49.1457 262.6699,-42.3932"/>
</g>
<!-- Node32&#45;&gt;Node33 -->
<g id="edge10" class="edge">
<title>Node32&#45;&gt;Node33</title>
<path fill="none" stroke="#191970" d="M422.5277,-45.6755C437.9179,-41.2888 454.1577,-36.6599 469.0558,-32.4135"/>
<polygon fill="#191970" stroke="#191970" points="421.2171,-42.4095 412.5596,-48.5167 423.136,-49.1414 421.2171,-42.4095"/>
</g>
</g>
</svg>
