<?xml version="1.0" encoding="UTF-8" standalone="no"?>
<!DOCTYPE svg PUBLIC "-//W3C//DTD SVG 1.1//EN"
 "http://www.w3.org/Graphics/SVG/1.1/DTD/svg11.dtd">
<!-- Generated by graphviz version 2.40.1 (20161225.0304)
 -->
<!-- Title: VehicleControl::Control::CommunicationProtocolParser::sendOutgoingPackets Pages: 1 -->
<svg width="305pt" height="53pt"
 viewBox="0.00 0.00 304.93 53.00" xmlns="http://www.w3.org/2000/svg" xmlns:xlink="http://www.w3.org/1999/xlink">
<g id="graph0" class="graph" transform="scale(1 1) rotate(0) translate(4 49)">
<title>VehicleControl::Control::CommunicationProtocolParser::sendOutgoingPackets</title>
<polygon fill="#ffffff" stroke="transparent" points="-4,4 -4,-49 300.928,-49 300.928,4 -4,4"/>
<!-- Node9 -->
<g id="node1" class="node">
<title>Node9</title>
<polygon fill="#bfbfbf" stroke="#000000" points="0,-.5 0,-44.5 157.124,-44.5 157.124,-.5 0,-.5"/>
<text text-anchor="start" x="8" y="-31.5" font-family="Helvetica,sans-Serif" font-size="10.00" fill="#000000">VehicleControl::Control</text>
<text text-anchor="start" x="8" y="-19.5" font-family="Helvetica,sans-Serif" font-size="10.00" fill="#000000">::CommunicationProtocolParser</text>
<text text-anchor="middle" x="78.562" y="-7.5" font-family="Helvetica,sans-Serif" font-size="10.00" fill="#000000">::sendOutgoingPackets</text>
</g>
<!-- Node10 -->
<g id="node2" class="node">
<title>Node10</title>
<g id="a_node2"><a xlink:href="classLibBBB_1_1Bluetooth_1_1Manager.html#a2f93bbcf746ab55eaf46ad12451e24fa" target="_top" xlink:title="sendData method that sends the data over the Bluetooth connection ">
<polygon fill="#ffffff" stroke="#000000" points="193.124,-6.5 193.124,-38.5 296.928,-38.5 296.928,-6.5 193.124,-6.5"/>
<text text-anchor="start" x="201.124" y="-25.5" font-family="Helvetica,sans-Serif" font-size="10.00" fill="#000000">LibBBB::Bluetooth::</text>
<text text-anchor="middle" x="245.026" y="-13.5" font-family="Helvetica,sans-Serif" font-size="10.00" fill="#000000">Manager::sendData</text>
</a>
</g>
</g>
<!-- Node9&#45;&gt;Node10 -->
<g id="edge1" class="edge">
<title>Node9&#45;&gt;Node10</title>
<path fill="none" stroke="#191970" d="M157.4066,-22.5C166.0097,-22.5 174.6754,-22.5 183.0348,-22.5"/>
<polygon fill="#191970" stroke="#191970" points="183.0548,-26.0001 193.0547,-22.5 183.0547,-19.0001 183.0548,-26.0001"/>
</g>
</g>
</svg>
