<?xml version="1.0" encoding="UTF-8" standalone="no"?>
<!DOCTYPE svg PUBLIC "-//W3C//DTD SVG 1.1//EN"
 "http://www.w3.org/Graphics/SVG/1.1/DTD/svg11.dtd">
<!-- Generated by graphviz version 2.40.1 (20161225.0304)
 -->
<!-- Title: VehicleControl::IO::IOBase::write Pages: 1 -->
<svg width="596pt" height="296pt"
 viewBox="0.00 0.00 595.68 296.00" xmlns="http://www.w3.org/2000/svg" xmlns:xlink="http://www.w3.org/1999/xlink">
<g id="graph0" class="graph" transform="scale(1 1) rotate(0) translate(4 292)">
<title>VehicleControl::IO::IOBase::write</title>
<polygon fill="#ffffff" stroke="transparent" points="-4,4 -4,-292 591.677,-292 591.677,4 -4,4"/>
<!-- Node51 -->
<g id="node1" class="node">
<title>Node51</title>
<polygon fill="#bfbfbf" stroke="#000000" points="0,-153.5 0,-185.5 97.123,-185.5 97.123,-153.5 0,-153.5"/>
<text text-anchor="start" x="8" y="-172.5" font-family="Helvetica,sans-Serif" font-size="10.00" fill="#000000">VehicleControl::IO</text>
<text text-anchor="middle" x="48.5615" y="-160.5" font-family="Helvetica,sans-Serif" font-size="10.00" fill="#000000">::IOBase::write</text>
</g>
<!-- Node52 -->
<g id="node2" class="node">
<title>Node52</title>
<g id="a_node2"><a xlink:href="classVehicleControl_1_1IO_1_1Input.html#ace52d2dc6464492817c2ea0683abd887" target="_top" xlink:title="setEdgeType sets the desired edge ">
<polygon fill="#ffffff" stroke="#000000" points="154.505,-255.5 154.505,-287.5 262.767,-287.5 262.767,-255.5 154.505,-255.5"/>
<text text-anchor="start" x="162.505" y="-274.5" font-family="Helvetica,sans-Serif" font-size="10.00" fill="#000000">VehicleControl::IO</text>
<text text-anchor="middle" x="208.636" y="-262.5" font-family="Helvetica,sans-Serif" font-size="10.00" fill="#000000">::Input::setEdgeType</text>
</a>
</g>
</g>
<!-- Node51&#45;&gt;Node52 -->
<g id="edge1" class="edge">
<title>Node51&#45;&gt;Node52</title>
<path fill="none" stroke="#191970" d="M69.089,-192.8548C85.0719,-209.7935 108.5987,-232.1581 133.123,-246.5 139.6795,-250.3343 146.9042,-253.6749 154.2075,-256.5571"/>
<polygon fill="#191970" stroke="#191970" points="71.6553,-190.4749 62.2999,-185.5023 66.5125,-195.2237 71.6553,-190.4749"/>
</g>
<!-- Node55 -->
<g id="node5" class="node">
<title>Node55</title>
<g id="a_node5"><a xlink:href="classVehicleControl_1_1IO_1_1IOBase.html#ac9e0d3fef92152f7333cb5b4cdd48521" target="_top" xlink:title="setDirection setter ">
<polygon fill="#ffffff" stroke="#000000" points="152.0155,-153.5 152.0155,-185.5 265.2565,-185.5 265.2565,-153.5 152.0155,-153.5"/>
<text text-anchor="start" x="160.0155" y="-172.5" font-family="Helvetica,sans-Serif" font-size="10.00" fill="#000000">VehicleControl::IO</text>
<text text-anchor="middle" x="208.636" y="-160.5" font-family="Helvetica,sans-Serif" font-size="10.00" fill="#000000">::IOBase::setDirection</text>
</a>
</g>
</g>
<!-- Node51&#45;&gt;Node55 -->
<g id="edge5" class="edge">
<title>Node51&#45;&gt;Node55</title>
<path fill="none" stroke="#191970" d="M107.7637,-169.5C122.1916,-169.5 137.5904,-169.5 151.9005,-169.5"/>
<polygon fill="#191970" stroke="#191970" points="107.459,-166.0001 97.4589,-169.5 107.4589,-173.0001 107.459,-166.0001"/>
</g>
<!-- Node57 -->
<g id="node7" class="node">
<title>Node57</title>
<g id="a_node7"><a xlink:href="classVehicleControl_1_1IO_1_1IOBase.html#aae4d66f4082d7b5d5adf310cbc00b184" target="_top" xlink:title="setActiveHighOrLow setter ">
<polygon fill="#ffffff" stroke="#000000" points="133.123,-204.5 133.123,-236.5 284.149,-236.5 284.149,-204.5 133.123,-204.5"/>
<text text-anchor="start" x="141.123" y="-223.5" font-family="Helvetica,sans-Serif" font-size="10.00" fill="#000000">VehicleControl::IO</text>
<text text-anchor="middle" x="208.636" y="-211.5" font-family="Helvetica,sans-Serif" font-size="10.00" fill="#000000">::IOBase::setActiveHighOrLow</text>
</a>
</g>
</g>
<!-- Node51&#45;&gt;Node57 -->
<g id="edge7" class="edge">
<title>Node51&#45;&gt;Node57</title>
<path fill="none" stroke="#191970" d="M107.1687,-188.1724C123.9688,-193.5249 142.1288,-199.3107 158.3786,-204.4879"/>
<polygon fill="#191970" stroke="#191970" points="108.0495,-184.7797 97.4589,-185.0788 105.9245,-191.4494 108.0495,-184.7797"/>
</g>
<!-- Node58 -->
<g id="node8" class="node">
<title>Node58</title>
<g id="a_node8"><a xlink:href="classVehicleControl_1_1IO_1_1IOBase.html#ab26373fa6ebd6821e15fa0ca90e50256" target="_top" xlink:title="write write function that writes a single string value to a file in the path provided ...">
<polygon fill="#ffffff" stroke="#000000" points="160.0745,-102.5 160.0745,-134.5 257.1975,-134.5 257.1975,-102.5 160.0745,-102.5"/>
<text text-anchor="start" x="168.0745" y="-121.5" font-family="Helvetica,sans-Serif" font-size="10.00" fill="#000000">VehicleControl::IO</text>
<text text-anchor="middle" x="208.636" y="-109.5" font-family="Helvetica,sans-Serif" font-size="10.00" fill="#000000">::IOBase::write</text>
</a>
</g>
</g>
<!-- Node51&#45;&gt;Node58 -->
<g id="edge9" class="edge">
<title>Node51&#45;&gt;Node58</title>
<path fill="none" stroke="#191970" d="M107.4515,-150.7376C124.7471,-145.2271 143.4621,-139.2645 160.038,-133.9834"/>
<polygon fill="#191970" stroke="#191970" points="105.9245,-147.5506 97.4589,-153.9212 108.0495,-154.2203 105.9245,-147.5506"/>
</g>
<!-- Node59 -->
<g id="node9" class="node">
<title>Node59</title>
<g id="a_node9"><a xlink:href="classVehicleControl_1_1IO_1_1Output.html#a98a765948ebfdb90aaad27a140fac509" target="_top" xlink:title="setValue setter ">
<polygon fill="#ffffff" stroke="#000000" points="160.0745,-51.5 160.0745,-83.5 257.1975,-83.5 257.1975,-51.5 160.0745,-51.5"/>
<text text-anchor="start" x="168.0745" y="-70.5" font-family="Helvetica,sans-Serif" font-size="10.00" fill="#000000">VehicleControl::IO</text>
<text text-anchor="middle" x="208.636" y="-58.5" font-family="Helvetica,sans-Serif" font-size="10.00" fill="#000000">::Output::setValue</text>
</a>
</g>
</g>
<!-- Node51&#45;&gt;Node59 -->
<g id="edge10" class="edge">
<title>Node51&#45;&gt;Node59</title>
<path fill="none" stroke="#191970" d="M69.9229,-145.7919C85.9401,-129.2172 109.1465,-107.6083 133.123,-93.5 141.3685,-88.6482 150.6549,-84.523 159.8222,-81.0852"/>
<polygon fill="#191970" stroke="#191970" points="66.9916,-143.7979 62.6655,-153.4693 72.0785,-148.6066 66.9916,-143.7979"/>
</g>
<!-- Node53 -->
<g id="node3" class="node">
<title>Node53</title>
<g id="a_node3"><a xlink:href="structVehicleControl_1_1IO_1_1Input_1_1Setup.html#a09ce07a96559b6f63eaa51d8eccbc877" target="_top" xlink:title="VehicleControl::IO\l::Input::Setup::Setup">
<polygon fill="#ffffff" stroke="#000000" points="476.6285,-232.5 476.6285,-264.5 583.7875,-264.5 583.7875,-232.5 476.6285,-232.5"/>
<text text-anchor="start" x="484.6285" y="-251.5" font-family="Helvetica,sans-Serif" font-size="10.00" fill="#000000">VehicleControl::IO</text>
<text text-anchor="middle" x="530.208" y="-239.5" font-family="Helvetica,sans-Serif" font-size="10.00" fill="#000000">::Input::Setup::Setup</text>
</a>
</g>
</g>
<!-- Node52&#45;&gt;Node53 -->
<g id="edge2" class="edge">
<title>Node52&#45;&gt;Node53</title>
<path fill="none" stroke="#191970" d="M272.8936,-266.9041C332.6204,-262.6322 420.5623,-256.3423 476.6036,-252.334"/>
<polygon fill="#191970" stroke="#191970" points="272.5475,-263.4198 262.8227,-267.6244 273.0469,-270.4019 272.5475,-263.4198"/>
</g>
<!-- Node54 -->
<g id="node4" class="node">
<title>Node54</title>
<g id="a_node4"><a xlink:href="classVehicleControl_1_1IO_1_1Input.html#aeb47b17475e36a509b1bd2ac115a42a0" target="_top" xlink:title="Input constructs an input based on the given setup. The constructor will automatically export the pin...">
<polygon fill="#ffffff" stroke="#000000" points="329.8825,-210.5 329.8825,-242.5 427.0055,-242.5 427.0055,-210.5 329.8825,-210.5"/>
<text text-anchor="start" x="337.8825" y="-229.5" font-family="Helvetica,sans-Serif" font-size="10.00" fill="#000000">VehicleControl::IO</text>
<text text-anchor="middle" x="378.444" y="-217.5" font-family="Helvetica,sans-Serif" font-size="10.00" fill="#000000">::Input::Input</text>
</a>
</g>
</g>
<!-- Node52&#45;&gt;Node54 -->
<g id="edge3" class="edge">
<title>Node52&#45;&gt;Node54</title>
<path fill="none" stroke="#191970" d="M272.5616,-254.5594C291.4682,-249.549 311.8555,-244.1463 329.6443,-239.4322"/>
<polygon fill="#191970" stroke="#191970" points="271.6009,-251.1931 262.8312,-257.138 273.3941,-257.9595 271.6009,-251.1931"/>
</g>
<!-- Node54&#45;&gt;Node53 -->
<g id="edge4" class="edge">
<title>Node54&#45;&gt;Node53</title>
<path fill="none" stroke="#191970" d="M437.4298,-235.0507C450.2824,-236.9138 463.8163,-238.8757 476.4531,-240.7076"/>
<polygon fill="#191970" stroke="#191970" points="437.6972,-231.5529 427.2985,-233.582 436.6929,-238.4805 437.6972,-231.5529"/>
</g>
<!-- Node56 -->
<g id="node6" class="node">
<title>Node56</title>
<g id="a_node6"><a xlink:href="classVehicleControl_1_1IO_1_1IOBase.html#a80cc7b63461e138451f00217a9e4fc61" target="_top" xlink:title="IOBase creates an instance of the base io class. ">
<polygon fill="#ffffff" stroke="#000000" points="329.8825,-153.5 329.8825,-185.5 427.0055,-185.5 427.0055,-153.5 329.8825,-153.5"/>
<text text-anchor="start" x="337.8825" y="-172.5" font-family="Helvetica,sans-Serif" font-size="10.00" fill="#000000">VehicleControl::IO</text>
<text text-anchor="middle" x="378.444" y="-160.5" font-family="Helvetica,sans-Serif" font-size="10.00" fill="#000000">::IOBase::IOBase</text>
</a>
</g>
</g>
<!-- Node55&#45;&gt;Node56 -->
<g id="edge6" class="edge">
<title>Node55&#45;&gt;Node56</title>
<path fill="none" stroke="#191970" d="M275.8209,-169.5C293.8503,-169.5 312.9954,-169.5 329.8052,-169.5"/>
<polygon fill="#191970" stroke="#191970" points="275.652,-166.0001 265.652,-169.5 275.652,-173.0001 275.652,-166.0001"/>
</g>
<!-- Node57&#45;&gt;Node54 -->
<g id="edge8" class="edge">
<title>Node57&#45;&gt;Node54</title>
<path fill="none" stroke="#191970" d="M294.7187,-223.5416C306.7813,-223.9679 318.8122,-224.393 329.8371,-224.7825"/>
<polygon fill="#191970" stroke="#191970" points="294.7174,-220.0395 284.6,-223.1841 294.4702,-227.0351 294.7174,-220.0395"/>
</g>
<!-- Node60 -->
<g id="node10" class="node">
<title>Node60</title>
<g id="a_node10"><a xlink:href="structVehicleControl_1_1IO_1_1Output_1_1Setup.html#a6346d200fcd68fb1693f1e3ae9c9d3af" target="_top" xlink:title="VehicleControl::IO\l::Output::Setup::Setup">
<polygon fill="#ffffff" stroke="#000000" points="472.739,-51.5 472.739,-83.5 587.677,-83.5 587.677,-51.5 472.739,-51.5"/>
<text text-anchor="start" x="480.739" y="-70.5" font-family="Helvetica,sans-Serif" font-size="10.00" fill="#000000">VehicleControl::IO</text>
<text text-anchor="middle" x="530.208" y="-58.5" font-family="Helvetica,sans-Serif" font-size="10.00" fill="#000000">::Output::Setup::Setup</text>
</a>
</g>
</g>
<!-- Node59&#45;&gt;Node60 -->
<g id="edge11" class="edge">
<title>Node59&#45;&gt;Node60</title>
<path fill="none" stroke="#191970" d="M267.1135,-83.7864C284.0812,-87.7877 302.7322,-91.4964 320.149,-93.5 371.6273,-99.4218 385.3973,-100.5078 436.739,-93.5 451.7588,-91.4499 467.7702,-87.6278 482.2196,-83.533"/>
<polygon fill="#191970" stroke="#191970" points="267.8838,-80.3718 257.3397,-81.4073 266.2282,-87.1732 267.8838,-80.3718"/>
</g>
<!-- Node61 -->
<g id="node11" class="node">
<title>Node61</title>
<g id="a_node11"><a xlink:href="classVehicleControl_1_1IO_1_1Output.html#a0ff845e3963d2a3e19080b402edfaaf6" target="_top" xlink:title="toggleOutput method toggles the output once ">
<polygon fill="#ffffff" stroke="#000000" points="321.255,-.5 321.255,-32.5 435.633,-32.5 435.633,-.5 321.255,-.5"/>
<text text-anchor="start" x="329.255" y="-19.5" font-family="Helvetica,sans-Serif" font-size="10.00" fill="#000000">VehicleControl::IO</text>
<text text-anchor="middle" x="378.444" y="-7.5" font-family="Helvetica,sans-Serif" font-size="10.00" fill="#000000">::Output::toggleOutput</text>
</a>
</g>
</g>
<!-- Node59&#45;&gt;Node61 -->
<g id="edge12" class="edge">
<title>Node59&#45;&gt;Node61</title>
<path fill="none" stroke="#191970" d="M266.945,-49.9875C285.7778,-44.3313 306.5524,-38.0919 325.0143,-32.547"/>
<polygon fill="#191970" stroke="#191970" points="265.8667,-46.6568 257.2962,-52.8854 267.8803,-53.361 265.8667,-46.6568"/>
</g>
<!-- Node63 -->
<g id="node13" class="node">
<title>Node63</title>
<g id="a_node13"><a xlink:href="classVehicleControl_1_1IO_1_1Output.html#a522b8b858e6e80e33b5c82cbe6a40dac" target="_top" xlink:title="cancelToggle cancels toggling ">
<polygon fill="#ffffff" stroke="#000000" points="320.149,-51.5 320.149,-83.5 436.739,-83.5 436.739,-51.5 320.149,-51.5"/>
<text text-anchor="start" x="328.149" y="-70.5" font-family="Helvetica,sans-Serif" font-size="10.00" fill="#000000">VehicleControl::IO</text>
<text text-anchor="middle" x="378.444" y="-58.5" font-family="Helvetica,sans-Serif" font-size="10.00" fill="#000000">::Output::cancelToggle</text>
</a>
</g>
</g>
<!-- Node59&#45;&gt;Node63 -->
<g id="edge15" class="edge">
<title>Node59&#45;&gt;Node63</title>
<path fill="none" stroke="#191970" d="M267.6562,-67.5C284.6574,-67.5 303.1897,-67.5 320.1468,-67.5"/>
<polygon fill="#191970" stroke="#191970" points="267.2962,-64.0001 257.2962,-67.5 267.2961,-71.0001 267.2962,-64.0001"/>
</g>
<!-- Node61&#45;&gt;Node60 -->
<g id="edge13" class="edge">
<title>Node61&#45;&gt;Node60</title>
<path fill="none" stroke="#191970" d="M436.3108,-35.946C451.5648,-41.0721 467.8498,-46.5446 482.5013,-51.4683"/>
<polygon fill="#191970" stroke="#191970" points="437.0571,-32.5045 426.4631,-32.6367 434.8272,-39.1399 437.0571,-32.5045"/>
</g>
<!-- Node62 -->
<g id="node12" class="node">
<title>Node62</title>
<g id="a_node12"><a xlink:href="classVehicleControl_1_1IO_1_1Output.html#a08adbcc38e67222f17a35847e72f6ba7" target="_top" xlink:title="toggleOutput method toggles the output every using the time arguement. ">
<polygon fill="#ffffff" stroke="#000000" points="473.019,-.5 473.019,-32.5 587.397,-32.5 587.397,-.5 473.019,-.5"/>
<text text-anchor="start" x="481.019" y="-19.5" font-family="Helvetica,sans-Serif" font-size="10.00" fill="#000000">VehicleControl::IO</text>
<text text-anchor="middle" x="530.208" y="-7.5" font-family="Helvetica,sans-Serif" font-size="10.00" fill="#000000">::Output::toggleOutput</text>
</a>
</g>
</g>
<!-- Node61&#45;&gt;Node62 -->
<g id="edge14" class="edge">
<title>Node61&#45;&gt;Node62</title>
<path fill="none" stroke="#191970" d="M445.9276,-16.5C454.9657,-16.5 464.1647,-16.5 473.0032,-16.5"/>
<polygon fill="#191970" stroke="#191970" points="445.8195,-13.0001 435.8195,-16.5 445.8194,-20.0001 445.8195,-13.0001"/>
</g>
<!-- Node63&#45;&gt;Node60 -->
<g id="edge16" class="edge">
<title>Node63&#45;&gt;Node60</title>
<path fill="none" stroke="#191970" d="M447.3617,-67.5C455.8291,-67.5 464.413,-67.5 472.6872,-67.5"/>
<polygon fill="#191970" stroke="#191970" points="447.12,-64.0001 437.1199,-67.5 447.1199,-71.0001 447.12,-64.0001"/>
</g>
</g>
</svg>
