<?xml version="1.0" encoding="UTF-8" standalone="no"?>
<!DOCTYPE svg PUBLIC "-//W3C//DTD SVG 1.1//EN"
 "http://www.w3.org/Graphics/SVG/1.1/DTD/svg11.dtd">
<!-- Generated by graphviz version 2.40.1 (20161225.0304)
 -->
<!-- Title: LibBBB::ThreadHelper::startDetachedThread Pages: 1 -->
<svg width="591pt" height="296pt"
 viewBox="0.00 0.00 591.18 296.00" xmlns="http://www.w3.org/2000/svg" xmlns:xlink="http://www.w3.org/1999/xlink">
<g id="graph0" class="graph" transform="scale(1 1) rotate(0) translate(4 292)">
<title>LibBBB::ThreadHelper::startDetachedThread</title>
<polygon fill="#ffffff" stroke="transparent" points="-4,4 -4,-292 587.176,-292 587.176,4 -4,4"/>
<!-- Node1 -->
<g id="node1" class="node">
<title>Node1</title>
<polygon fill="#bfbfbf" stroke="#000000" points="0,-153.5 0,-185.5 116.02,-185.5 116.02,-153.5 0,-153.5"/>
<text text-anchor="start" x="8" y="-172.5" font-family="Helvetica,sans-Serif" font-size="10.00" fill="#000000">LibBBB::ThreadHelper</text>
<text text-anchor="middle" x="58.01" y="-160.5" font-family="Helvetica,sans-Serif" font-size="10.00" fill="#000000">::startDetachedThread</text>
</g>
<!-- Node2 -->
<g id="node2" class="node">
<title>Node2</title>
<g id="a_node2"><a xlink:href="classLibBBB_1_1Bluetooth_1_1Manager.html#ae004b4701f383a22e0b9cb1093f579bb" target="_top" xlink:title="Manager creates an instance of the Bluetooth manager. ">
<polygon fill="#ffffff" stroke="#000000" points="165.0675,-255.5 165.0675,-287.5 267.7685,-287.5 267.7685,-255.5 165.0675,-255.5"/>
<text text-anchor="start" x="173.0675" y="-274.5" font-family="Helvetica,sans-Serif" font-size="10.00" fill="#000000">LibBBB::Bluetooth::</text>
<text text-anchor="middle" x="216.418" y="-262.5" font-family="Helvetica,sans-Serif" font-size="10.00" fill="#000000">Manager::Manager</text>
</a>
</g>
</g>
<!-- Node1&#45;&gt;Node2 -->
<g id="edge1" class="edge">
<title>Node1&#45;&gt;Node2</title>
<path fill="none" stroke="#191970" d="M82.19,-192.9538C100.2896,-209.5613 126.2643,-231.4688 152.02,-246.5 157.6134,-249.7644 163.7125,-252.7639 169.855,-255.4652"/>
<polygon fill="#191970" stroke="#191970" points="84.1569,-190.0021 74.4572,-185.7399 79.3819,-195.1207 84.1569,-190.0021"/>
</g>
<!-- Node3 -->
<g id="node3" class="node">
<title>Node3</title>
<g id="a_node3"><a xlink:href="classLibBBB_1_1Bluetooth_1_1Manager.html#aba77bfc05cca940e709d9c0bb1106127" target="_top" xlink:title="isConnected getter ">
<polygon fill="#ffffff" stroke="#000000" points="158.127,-204.5 158.127,-236.5 274.709,-236.5 274.709,-204.5 158.127,-204.5"/>
<text text-anchor="start" x="166.127" y="-223.5" font-family="Helvetica,sans-Serif" font-size="10.00" fill="#000000">LibBBB::Bluetooth::</text>
<text text-anchor="middle" x="216.418" y="-211.5" font-family="Helvetica,sans-Serif" font-size="10.00" fill="#000000">Manager::isConnected</text>
</a>
</g>
</g>
<!-- Node1&#45;&gt;Node3 -->
<g id="edge2" class="edge">
<title>Node1&#45;&gt;Node3</title>
<path fill="none" stroke="#191970" d="M117.9555,-188.7997C134.008,-193.9678 151.1842,-199.4977 166.6228,-204.4683"/>
<polygon fill="#191970" stroke="#191970" points="118.7228,-185.3698 108.1313,-185.6367 116.5775,-192.033 118.7228,-185.3698"/>
</g>
<!-- Node6 -->
<g id="node6" class="node">
<title>Node6</title>
<g id="a_node6"><a xlink:href="classLibBBB_1_1IO_1_1Input.html#a3a448ebc4e13f3813b6b80566af3fe79" target="_top" xlink:title="waitForEdgeThreaded does the same thing as waitForEdge(), but does so in a threaded manner...">
<polygon fill="#ffffff" stroke="#000000" points="158.9625,-153.5 158.9625,-185.5 273.8735,-185.5 273.8735,-153.5 158.9625,-153.5"/>
<text text-anchor="start" x="166.9625" y="-172.5" font-family="Helvetica,sans-Serif" font-size="10.00" fill="#000000">LibBBB::IO::Input::</text>
<text text-anchor="middle" x="216.418" y="-160.5" font-family="Helvetica,sans-Serif" font-size="10.00" fill="#000000">waitForEdgeThreaded</text>
</a>
</g>
</g>
<!-- Node1&#45;&gt;Node6 -->
<g id="edge5" class="edge">
<title>Node1&#45;&gt;Node6</title>
<path fill="none" stroke="#191970" d="M126.3712,-169.5C137.2049,-169.5 148.3146,-169.5 158.8685,-169.5"/>
<polygon fill="#191970" stroke="#191970" points="126.0958,-166.0001 116.0958,-169.5 126.0958,-173.0001 126.0958,-166.0001"/>
</g>
<!-- Node9 -->
<g id="node9" class="node">
<title>Node9</title>
<g id="a_node9"><a xlink:href="classLibBBB_1_1IO_1_1MotorControl.html#a55cb5ace57f63ba73e679b5f79c3459a" target="_top" xlink:title="MotorControl ServoControl constructor creates the class, and spawns the frequency control thread...">
<polygon fill="#ffffff" stroke="#000000" points="152.02,-102.5 152.02,-134.5 280.816,-134.5 280.816,-102.5 152.02,-102.5"/>
<text text-anchor="start" x="160.02" y="-121.5" font-family="Helvetica,sans-Serif" font-size="10.00" fill="#000000">LibBBB::IO::MotorControl</text>
<text text-anchor="middle" x="216.418" y="-109.5" font-family="Helvetica,sans-Serif" font-size="10.00" fill="#000000">::MotorControl</text>
</a>
</g>
</g>
<!-- Node1&#45;&gt;Node9 -->
<g id="edge9" class="edge">
<title>Node1&#45;&gt;Node9</title>
<path fill="none" stroke="#191970" d="M117.9555,-150.2003C134.008,-145.0322 151.1842,-139.5023 166.6228,-134.5317"/>
<polygon fill="#191970" stroke="#191970" points="116.5775,-146.967 108.1313,-153.3633 118.7228,-153.6302 116.5775,-146.967"/>
</g>
<!-- Node10 -->
<g id="node10" class="node">
<title>Node10</title>
<g id="a_node10"><a xlink:href="classLibBBB_1_1IO_1_1UserLED.html#a5d6714d1ddc854308c1d4cc5448ded07" target="_top" xlink:title="setState method sets the state of the LED ">
<polygon fill="#ffffff" stroke="#000000" points="160.632,-41.5 160.632,-73.5 272.204,-73.5 272.204,-41.5 160.632,-41.5"/>
<text text-anchor="start" x="168.632" y="-60.5" font-family="Helvetica,sans-Serif" font-size="10.00" fill="#000000">LibBBB::IO::UserLED</text>
<text text-anchor="middle" x="216.418" y="-48.5" font-family="Helvetica,sans-Serif" font-size="10.00" fill="#000000">::setState</text>
</a>
</g>
</g>
<!-- Node1&#45;&gt;Node10 -->
<g id="edge10" class="edge">
<title>Node1&#45;&gt;Node10</title>
<path fill="none" stroke="#191970" d="M83.929,-146.5445C102.3106,-130.7723 127.901,-109.8173 152.02,-93.5 162.4167,-86.4663 174.2906,-79.5422 184.9872,-73.6745"/>
<polygon fill="#191970" stroke="#191970" points="81.2905,-144.1994 76.0218,-153.3913 85.8727,-149.4912 81.2905,-144.1994"/>
</g>
<!-- Node4 -->
<g id="node4" class="node">
<title>Node4</title>
<g id="a_node4"><a xlink:href="classVehicleControl_1_1Control.html#af677fb9565407041290bbf7b681802e5" target="_top" xlink:title="update method that controls the vehicle ">
<polygon fill="#ffffff" stroke="#000000" points="316.816,-214.5 316.816,-246.5 435.604,-246.5 435.604,-214.5 316.816,-214.5"/>
<text text-anchor="start" x="324.816" y="-233.5" font-family="Helvetica,sans-Serif" font-size="10.00" fill="#000000">VehicleControl::Control</text>
<text text-anchor="middle" x="376.21" y="-221.5" font-family="Helvetica,sans-Serif" font-size="10.00" fill="#000000">::update</text>
</a>
</g>
</g>
<!-- Node3&#45;&gt;Node4 -->
<g id="edge3" class="edge">
<title>Node3&#45;&gt;Node4</title>
<path fill="none" stroke="#191970" d="M285.3037,-224.811C295.7076,-225.462 306.3654,-226.129 316.5532,-226.7666"/>
<polygon fill="#191970" stroke="#191970" points="285.2104,-221.2984 275.0113,-224.1668 284.7731,-228.2847 285.2104,-221.2984"/>
</g>
<!-- Node5 -->
<g id="node5" class="node">
<title>Node5</title>
<g id="a_node5"><a xlink:href="main_8cpp.html#ae66f6b31b5ad750f1fe042a706a4e3d4" target="_top" xlink:title="main">
<polygon fill="#ffffff" stroke="#000000" points="508.557,-220.5 508.557,-240.5 546.223,-240.5 546.223,-220.5 508.557,-220.5"/>
<text text-anchor="middle" x="527.39" y="-227.5" font-family="Helvetica,sans-Serif" font-size="10.00" fill="#000000">main</text>
</a>
</g>
</g>
<!-- Node4&#45;&gt;Node5 -->
<g id="edge4" class="edge">
<title>Node4&#45;&gt;Node5</title>
<path fill="none" stroke="#191970" d="M446.0194,-230.5C468.8435,-230.5 492.3747,-230.5 508.2238,-230.5"/>
<polygon fill="#191970" stroke="#191970" points="445.9604,-227.0001 435.9603,-230.5 445.9603,-234.0001 445.9604,-227.0001"/>
</g>
<!-- Node7 -->
<g id="node7" class="node">
<title>Node7</title>
<g id="a_node7"><a xlink:href="classLibBBB_1_1IO_1_1Input.html#a4e59f6e2c64f7a85adff569daf35b3d3" target="_top" xlink:title="Input constructs an input based on the given setup. The constructor will automatically export the pin...">
<polygon fill="#ffffff" stroke="#000000" points="326.8045,-163.5 326.8045,-195.5 425.6155,-195.5 425.6155,-163.5 326.8045,-163.5"/>
<text text-anchor="start" x="334.8045" y="-182.5" font-family="Helvetica,sans-Serif" font-size="10.00" fill="#000000">LibBBB::IO::Input::</text>
<text text-anchor="middle" x="376.21" y="-170.5" font-family="Helvetica,sans-Serif" font-size="10.00" fill="#000000">Input</text>
</a>
</g>
</g>
<!-- Node6&#45;&gt;Node7 -->
<g id="edge6" class="edge">
<title>Node6&#45;&gt;Node7</title>
<path fill="none" stroke="#191970" d="M284.361,-173.752C298.6063,-174.6435 313.3703,-175.5674 326.786,-176.407"/>
<polygon fill="#191970" stroke="#191970" points="284.3057,-170.2417 274.1066,-173.1102 283.8684,-177.2281 284.3057,-170.2417"/>
</g>
<!-- Node8 -->
<g id="node8" class="node">
<title>Node8</title>
<g id="a_node8"><a xlink:href="structLibBBB_1_1IO_1_1Input_1_1Setup.html#a1ad926b46c1818dd934b0b99ddb63386" target="_top" xlink:title="LibBBB::IO::Input::\lSetup::Setup">
<polygon fill="#ffffff" stroke="#000000" points="477.9845,-140.5 477.9845,-172.5 576.7955,-172.5 576.7955,-140.5 477.9845,-140.5"/>
<text text-anchor="start" x="485.9845" y="-159.5" font-family="Helvetica,sans-Serif" font-size="10.00" fill="#000000">LibBBB::IO::Input::</text>
<text text-anchor="middle" x="527.39" y="-147.5" font-family="Helvetica,sans-Serif" font-size="10.00" fill="#000000">Setup::Setup</text>
</a>
</g>
</g>
<!-- Node6&#45;&gt;Node8 -->
<g id="edge8" class="edge">
<title>Node6&#45;&gt;Node8</title>
<path fill="none" stroke="#191970" d="M284.0495,-157.9982C294.9742,-156.5436 306.1857,-155.2897 316.816,-154.5 369.4656,-150.5886 382.8125,-153.9249 435.604,-154.5 449.3106,-154.6493 464.1665,-154.924 477.8527,-155.223"/>
<polygon fill="#191970" stroke="#191970" points="283.5426,-154.535 274.1221,-159.383 284.5098,-161.4678 283.5426,-154.535"/>
</g>
<!-- Node7&#45;&gt;Node8 -->
<g id="edge7" class="edge">
<title>Node7&#45;&gt;Node8</title>
<path fill="none" stroke="#191970" d="M435.6937,-170.4504C449.6273,-168.3305 464.3267,-166.0942 477.7768,-164.048"/>
<polygon fill="#191970" stroke="#191970" points="435.0718,-167.0046 425.712,-171.9689 436.1247,-173.925 435.0718,-167.0046"/>
</g>
<!-- Node11 -->
<g id="node11" class="node">
<title>Node11</title>
<g id="a_node11"><a xlink:href="classVehicleControl_1_1Control.html#aaaa31c5094e42f0f9795187d59ed10c4" target="_top" xlink:title="VehicleControl::Control\l::~Control">
<polygon fill="#ffffff" stroke="#000000" points="316.816,-73.5 316.816,-105.5 435.604,-105.5 435.604,-73.5 316.816,-73.5"/>
<text text-anchor="start" x="324.816" y="-92.5" font-family="Helvetica,sans-Serif" font-size="10.00" fill="#000000">VehicleControl::Control</text>
<text text-anchor="middle" x="376.21" y="-80.5" font-family="Helvetica,sans-Serif" font-size="10.00" fill="#000000">::~Control</text>
</a>
</g>
</g>
<!-- Node10&#45;&gt;Node11 -->
<g id="edge11" class="edge">
<title>Node10&#45;&gt;Node11</title>
<path fill="none" stroke="#191970" d="M282.1819,-70.6699C293.5639,-72.9493 305.3411,-75.3078 316.5496,-77.5524"/>
<polygon fill="#191970" stroke="#191970" points="282.7981,-67.2239 272.3055,-68.692 281.4235,-74.0876 282.7981,-67.2239"/>
</g>
<!-- Node12 -->
<g id="node12" class="node">
<title>Node12</title>
<g id="a_node12"><a xlink:href="classLibBBB_1_1IO_1_1UserLED.html#a3ae6a5944f06980dee85eb4504ec9eb0" target="_top" xlink:title="changeBlinkTime method changes the time of the blink ">
<polygon fill="#ffffff" stroke="#000000" points="320.424,-22.5 320.424,-54.5 431.996,-54.5 431.996,-22.5 320.424,-22.5"/>
<text text-anchor="start" x="328.424" y="-41.5" font-family="Helvetica,sans-Serif" font-size="10.00" fill="#000000">LibBBB::IO::UserLED</text>
<text text-anchor="middle" x="376.21" y="-29.5" font-family="Helvetica,sans-Serif" font-size="10.00" fill="#000000">::changeBlinkTime</text>
</a>
</g>
</g>
<!-- Node10&#45;&gt;Node12 -->
<g id="edge12" class="edge">
<title>Node10&#45;&gt;Node12</title>
<path fill="none" stroke="#191970" d="M282.3121,-49.6649C294.9498,-48.1622 308.07,-46.6022 320.3541,-45.1415"/>
<polygon fill="#191970" stroke="#191970" points="281.8223,-46.1984 272.3055,-50.8547 282.6488,-53.1494 281.8223,-46.1984"/>
</g>
<!-- Node13 -->
<g id="node13" class="node">
<title>Node13</title>
<g id="a_node13"><a xlink:href="structLibBBB_1_1IO_1_1UserLED_1_1Setup.html#a25c259e98aa65d6594d0031eb0463b01" target="_top" xlink:title="LibBBB::IO::UserLED\l::Setup::Setup">
<polygon fill="#ffffff" stroke="#000000" points="471.604,-.5 471.604,-32.5 583.176,-32.5 583.176,-.5 471.604,-.5"/>
<text text-anchor="start" x="479.604" y="-19.5" font-family="Helvetica,sans-Serif" font-size="10.00" fill="#000000">LibBBB::IO::UserLED</text>
<text text-anchor="middle" x="527.39" y="-7.5" font-family="Helvetica,sans-Serif" font-size="10.00" fill="#000000">::Setup::Setup</text>
</a>
</g>
</g>
<!-- Node10&#45;&gt;Node13 -->
<g id="edge14" class="edge">
<title>Node10&#45;&gt;Node13</title>
<path fill="none" stroke="#191970" d="M252.8473,-36.6937C271.3667,-27.2962 294.6052,-17.25 316.816,-12.5 368.3047,-1.4887 428.4956,-4.1307 471.3073,-8.5502"/>
<polygon fill="#191970" stroke="#191970" points="251.1347,-33.6395 243.8925,-41.3726 254.3765,-39.8436 251.1347,-33.6395"/>
</g>
<!-- Node12&#45;&gt;Node13 -->
<g id="edge13" class="edge">
<title>Node12&#45;&gt;Node13</title>
<path fill="none" stroke="#191970" d="M442.1633,-28.9024C451.9476,-27.4785 461.951,-26.0228 471.503,-24.6328"/>
<polygon fill="#191970" stroke="#191970" points="441.466,-25.4669 432.0743,-30.3705 442.4741,-32.3939 441.466,-25.4669"/>
</g>
</g>
</svg>
