<?xml version="1.0" encoding="UTF-8" standalone="no"?>
<!DOCTYPE svg PUBLIC "-//W3C//DTD SVG 1.1//EN"
 "http://www.w3.org/Graphics/SVG/1.1/DTD/svg11.dtd">
<!-- Generated by graphviz version 2.40.1 (20161225.0304)
 -->
<!-- Title: Math::LinearConverter::convertXtoY Pages: 1 -->
<svg width="277pt" height="92pt"
 viewBox="0.00 0.00 277.14 92.00" xmlns="http://www.w3.org/2000/svg" xmlns:xlink="http://www.w3.org/1999/xlink">
<g id="graph0" class="graph" transform="scale(1 1) rotate(0) translate(4 88)">
<title>Math::LinearConverter::convertXtoY</title>
<polygon fill="#ffffff" stroke="transparent" points="-4,4 -4,-88 273.139,-88 273.139,4 -4,4"/>
<!-- Node3 -->
<g id="node1" class="node">
<title>Node3</title>
<polygon fill="#bfbfbf" stroke="#000000" points="0,-25.5 0,-57.5 115.46,-57.5 115.46,-25.5 0,-25.5"/>
<text text-anchor="start" x="8" y="-44.5" font-family="Helvetica,sans-Serif" font-size="10.00" fill="#000000">Math::LinearConverter</text>
<text text-anchor="middle" x="57.73" y="-32.5" font-family="Helvetica,sans-Serif" font-size="10.00" fill="#000000">::convertXtoY</text>
</g>
<!-- Node4 -->
<g id="node2" class="node">
<title>Node4</title>
<g id="a_node2"><a xlink:href="classCore_1_1IO_1_1MotorControl.html#add4eb4918f1c99f95b10237e6b76741e" target="_top" xlink:title="setDutyCycle setter ">
<polygon fill="#ffffff" stroke="#000000" points="151.7405,-51.5 151.7405,-83.5 268.8585,-83.5 268.8585,-51.5 151.7405,-51.5"/>
<text text-anchor="start" x="159.7405" y="-70.5" font-family="Helvetica,sans-Serif" font-size="10.00" fill="#000000">Core::IO::MotorControl</text>
<text text-anchor="middle" x="210.2995" y="-58.5" font-family="Helvetica,sans-Serif" font-size="10.00" fill="#000000">::setDutyCycle</text>
</a>
</g>
</g>
<!-- Node3&#45;&gt;Node4 -->
<g id="edge1" class="edge">
<title>Node3&#45;&gt;Node4</title>
<path fill="none" stroke="#191970" d="M125.8389,-53.1067C134.4294,-54.5707 143.1597,-56.0584 151.5875,-57.4946"/>
<polygon fill="#191970" stroke="#191970" points="126.2911,-49.6334 115.8452,-51.4037 125.1151,-56.5339 126.2911,-49.6334"/>
</g>
<!-- Node5 -->
<g id="node3" class="node">
<title>Node5</title>
<g id="a_node3"><a xlink:href="classCore_1_1IO_1_1ServoControl.html#a69fb6f10774add593d7f37be10ec8b6a" target="_top" xlink:title="setDesiredDegree method sets the desired servo position in degrees ">
<polygon fill="#ffffff" stroke="#000000" points="151.46,-.5 151.46,-32.5 269.139,-32.5 269.139,-.5 151.46,-.5"/>
<text text-anchor="start" x="159.46" y="-19.5" font-family="Helvetica,sans-Serif" font-size="10.00" fill="#000000">Core::IO::ServoControl</text>
<text text-anchor="middle" x="210.2995" y="-7.5" font-family="Helvetica,sans-Serif" font-size="10.00" fill="#000000">::setDesiredDegree</text>
</a>
</g>
</g>
<!-- Node3&#45;&gt;Node5 -->
<g id="edge2" class="edge">
<title>Node3&#45;&gt;Node5</title>
<path fill="none" stroke="#191970" d="M125.7663,-30.3516C134.2942,-28.9542 142.9612,-27.534 151.3343,-26.162"/>
<polygon fill="#191970" stroke="#191970" points="125.1476,-26.9062 115.8452,-31.9773 126.2796,-33.8141 125.1476,-26.9062"/>
</g>
</g>
</svg>
