<?xml version="1.0" encoding="UTF-8" standalone="no"?>
<!DOCTYPE svg PUBLIC "-//W3C//DTD SVG 1.1//EN"
 "http://www.w3.org/Graphics/SVG/1.1/DTD/svg11.dtd">
<!-- Generated by graphviz version 2.40.1 (20161225.0304)
 -->
<!-- Title: LibBBB::Bluetooth::Manager::receiveData Pages: 1 -->
<svg width="544pt" height="53pt"
 viewBox="0.00 0.00 543.93 53.00" xmlns="http://www.w3.org/2000/svg" xmlns:xlink="http://www.w3.org/1999/xlink">
<g id="graph0" class="graph" transform="scale(1 1) rotate(0) translate(4 49)">
<title>LibBBB::Bluetooth::Manager::receiveData</title>
<polygon fill="#ffffff" stroke="transparent" points="-4,4 -4,-49 539.93,-49 539.93,4 -4,4"/>
<!-- Node11 -->
<g id="node1" class="node">
<title>Node11</title>
<polygon fill="#bfbfbf" stroke="#000000" points="0,-6.5 0,-38.5 114.352,-38.5 114.352,-6.5 0,-6.5"/>
<text text-anchor="start" x="8" y="-25.5" font-family="Helvetica,sans-Serif" font-size="10.00" fill="#000000">LibBBB::Bluetooth::</text>
<text text-anchor="middle" x="57.176" y="-13.5" font-family="Helvetica,sans-Serif" font-size="10.00" fill="#000000">Manager::receiveData</text>
</g>
<!-- Node12 -->
<g id="node2" class="node">
<title>Node12</title>
<g id="a_node2"><a xlink:href="classVehicleControl_1_1Control_1_1CommunicationProtocolParser.html#a518b7eda37805934071cbc4c3dbc4328" target="_top" xlink:title="parseIncomingPackets method gets and parses the incoming Bluetooth packets. This method calls the Blu...">
<polygon fill="#ffffff" stroke="#000000" points="150.352,-.5 150.352,-44.5 307.476,-44.5 307.476,-.5 150.352,-.5"/>
<text text-anchor="start" x="158.352" y="-31.5" font-family="Helvetica,sans-Serif" font-size="10.00" fill="#000000">VehicleControl::Control</text>
<text text-anchor="start" x="158.352" y="-19.5" font-family="Helvetica,sans-Serif" font-size="10.00" fill="#000000">::CommunicationProtocolParser</text>
<text text-anchor="middle" x="228.914" y="-7.5" font-family="Helvetica,sans-Serif" font-size="10.00" fill="#000000">::parseIncomingPackets</text>
</a>
</g>
</g>
<!-- Node11&#45;&gt;Node12 -->
<g id="edge1" class="edge">
<title>Node11&#45;&gt;Node12</title>
<path fill="none" stroke="#191970" d="M124.5184,-22.5C132.966,-22.5 141.6647,-22.5 150.2661,-22.5"/>
<polygon fill="#191970" stroke="#191970" points="124.3623,-19.0001 114.3623,-22.5 124.3622,-26.0001 124.3623,-19.0001"/>
</g>
<!-- Node13 -->
<g id="node3" class="node">
<title>Node13</title>
<g id="a_node3"><a xlink:href="classVehicleControl_1_1Control.html#af677fb9565407041290bbf7b681802e5" target="_top" xlink:title="update method that controls the vehicle ">
<polygon fill="#ffffff" stroke="#000000" points="343.476,-6.5 343.476,-38.5 462.264,-38.5 462.264,-6.5 343.476,-6.5"/>
<text text-anchor="start" x="351.476" y="-25.5" font-family="Helvetica,sans-Serif" font-size="10.00" fill="#000000">VehicleControl::Control</text>
<text text-anchor="middle" x="402.87" y="-13.5" font-family="Helvetica,sans-Serif" font-size="10.00" fill="#000000">::update</text>
</a>
</g>
</g>
<!-- Node12&#45;&gt;Node13 -->
<g id="edge2" class="edge">
<title>Node12&#45;&gt;Node13</title>
<path fill="none" stroke="#191970" d="M317.7053,-22.5C326.4116,-22.5 335.0937,-22.5 343.4024,-22.5"/>
<polygon fill="#191970" stroke="#191970" points="317.4947,-19.0001 307.4946,-22.5 317.4946,-26.0001 317.4947,-19.0001"/>
</g>
<!-- Node14 -->
<g id="node4" class="node">
<title>Node14</title>
<g id="a_node4"><a xlink:href="main_8cpp.html#ae66f6b31b5ad750f1fe042a706a4e3d4" target="_top" xlink:title="main">
<polygon fill="#ffffff" stroke="#000000" points="498.264,-12.5 498.264,-32.5 535.93,-32.5 535.93,-12.5 498.264,-12.5"/>
<text text-anchor="middle" x="517.097" y="-19.5" font-family="Helvetica,sans-Serif" font-size="10.00" fill="#000000">main</text>
</a>
</g>
</g>
<!-- Node13&#45;&gt;Node14 -->
<g id="edge3" class="edge">
<title>Node13&#45;&gt;Node14</title>
<path fill="none" stroke="#191970" d="M472.6079,-22.5C481.9587,-22.5 490.8343,-22.5 498.1626,-22.5"/>
<polygon fill="#191970" stroke="#191970" points="472.3255,-19.0001 462.3255,-22.5 472.3254,-26.0001 472.3255,-19.0001"/>
</g>
</g>
</svg>
