<?xml version="1.0" encoding="UTF-8" standalone="no"?>
<!DOCTYPE svg PUBLIC "-//W3C//DTD SVG 1.1//EN"
 "http://www.w3.org/Graphics/SVG/1.1/DTD/svg11.dtd">
<!-- Generated by graphviz version 2.40.1 (20161225.0304)
 -->
<!-- Title: VehicleControl::Control::CommunicationProtocolParser::parseIncomingPackets Pages: 1 -->
<svg width="315pt" height="53pt"
 viewBox="0.00 0.00 315.48 53.00" xmlns="http://www.w3.org/2000/svg" xmlns:xlink="http://www.w3.org/1999/xlink">
<g id="graph0" class="graph" transform="scale(1 1) rotate(0) translate(4 49)">
<title>VehicleControl::Control::CommunicationProtocolParser::parseIncomingPackets</title>
<polygon fill="#ffffff" stroke="transparent" points="-4,4 -4,-49 311.476,-49 311.476,4 -4,4"/>
<!-- Node4 -->
<g id="node1" class="node">
<title>Node4</title>
<polygon fill="#bfbfbf" stroke="#000000" points="0,-.5 0,-44.5 157.124,-44.5 157.124,-.5 0,-.5"/>
<text text-anchor="start" x="8" y="-31.5" font-family="Helvetica,sans-Serif" font-size="10.00" fill="#000000">VehicleControl::Control</text>
<text text-anchor="start" x="8" y="-19.5" font-family="Helvetica,sans-Serif" font-size="10.00" fill="#000000">::CommunicationProtocolParser</text>
<text text-anchor="middle" x="78.562" y="-7.5" font-family="Helvetica,sans-Serif" font-size="10.00" fill="#000000">::parseIncomingPackets</text>
</g>
<!-- Node5 -->
<g id="node2" class="node">
<title>Node5</title>
<g id="a_node2"><a xlink:href="classLibBBB_1_1Bluetooth_1_1Manager.html#ae579e5664c1fa9a5cb4ed5e067f80e33" target="_top" xlink:title="receiveData method that receives the data ">
<polygon fill="#ffffff" stroke="#000000" points="193.124,-6.5 193.124,-38.5 307.476,-38.5 307.476,-6.5 193.124,-6.5"/>
<text text-anchor="start" x="201.124" y="-25.5" font-family="Helvetica,sans-Serif" font-size="10.00" fill="#000000">LibBBB::Bluetooth::</text>
<text text-anchor="middle" x="250.3" y="-13.5" font-family="Helvetica,sans-Serif" font-size="10.00" fill="#000000">Manager::receiveData</text>
</a>
</g>
</g>
<!-- Node4&#45;&gt;Node5 -->
<g id="edge1" class="edge">
<title>Node4&#45;&gt;Node5</title>
<path fill="none" stroke="#191970" d="M157.1433,-22.5C165.7457,-22.5 174.4464,-22.5 182.8966,-22.5"/>
<polygon fill="#191970" stroke="#191970" points="183.0564,-26.0001 193.0564,-22.5 183.0564,-19.0001 183.0564,-26.0001"/>
</g>
</g>
</svg>
