<?xml version="1.0" encoding="UTF-8" standalone="no"?>
<!DOCTYPE svg PUBLIC "-//W3C//DTD SVG 1.1//EN"
 "http://www.w3.org/Graphics/SVG/1.1/DTD/svg11.dtd">
<!-- Generated by graphviz version 2.40.1 (20161225.0304)
 -->
<!-- Title: CommunicationProtocolParser.h Pages: 1 -->
<svg width="452pt" height="257pt"
 viewBox="0.00 0.00 452.24 257.00" xmlns="http://www.w3.org/2000/svg" xmlns:xlink="http://www.w3.org/1999/xlink">
<g id="graph0" class="graph" transform="scale(1 1) rotate(0) translate(4 253)">
<title>CommunicationProtocolParser.h</title>
<polygon fill="#ffffff" stroke="transparent" points="-4,4 -4,-253 448.2375,-253 448.2375,4 -4,4"/>
<!-- Node0 -->
<g id="node1" class="node">
<title>Node0</title>
<polygon fill="#bfbfbf" stroke="#000000" points="234.661,-228.5 234.661,-248.5 394.565,-248.5 394.565,-228.5 234.661,-228.5"/>
<text text-anchor="middle" x="314.613" y="-235.5" font-family="Helvetica,sans-Serif" font-size="10.00" fill="#000000">CommunicationProtocolParser.h</text>
</g>
<!-- Node1 -->
<g id="node2" class="node">
<title>Node1</title>
<g id="a_node2"><a xlink:href="BoeingSurfaceVehicleControl_8h.html" target="_top" xlink:title="BoeingSurfaceVehicleControl.h">
<polygon fill="#ffffff" stroke="#000000" points="76.1515,-171.5 76.1515,-191.5 231.0745,-191.5 231.0745,-171.5 76.1515,-171.5"/>
<text text-anchor="middle" x="153.613" y="-178.5" font-family="Helvetica,sans-Serif" font-size="10.00" fill="#000000">BoeingSurfaceVehicleControl.h</text>
</a>
</g>
</g>
<!-- Node0&#45;&gt;Node1 -->
<g id="edge1" class="edge">
<title>Node0&#45;&gt;Node1</title>
<path fill="none" stroke="#191970" d="M286.2,-228.4408C259.9556,-219.1492 220.7669,-205.275 191.7957,-195.0181"/>
<polygon fill="#191970" stroke="#191970" points="192.607,-191.5925 182.0122,-191.5544 190.2708,-198.1912 192.607,-191.5925"/>
</g>
<!-- Node9 -->
<g id="node10" class="node">
<title>Node9</title>
<g id="a_node10"><a xlink:href="LinearConverter_8h.html" target="_top" xlink:title="LinearConverter.h">
<polygon fill="#ffffff" stroke="#000000" points="266.606,-171.5 266.606,-191.5 362.62,-191.5 362.62,-171.5 266.606,-171.5"/>
<text text-anchor="middle" x="314.613" y="-178.5" font-family="Helvetica,sans-Serif" font-size="10.00" fill="#000000">LinearConverter.h</text>
</a>
</g>
</g>
<!-- Node0&#45;&gt;Node9 -->
<g id="edge10" class="edge">
<title>Node0&#45;&gt;Node9</title>
<path fill="none" stroke="#191970" d="M314.613,-228.3095C314.613,-220.9335 314.613,-210.72 314.613,-201.715"/>
<polygon fill="#191970" stroke="#191970" points="318.1131,-201.6022 314.613,-191.6022 311.1131,-201.6023 318.1131,-201.6022"/>
</g>
<!-- Node12 -->
<g id="node13" class="node">
<title>Node12</title>
<g id="a_node13"><a xlink:href="BluetoothDefinitions_8h.html" target="_top" xlink:title="BluetoothDefinitions.h">
<polygon fill="#ffffff" stroke="#000000" points="330.9885,-57.5 330.9885,-77.5 444.2375,-77.5 444.2375,-57.5 330.9885,-57.5"/>
<text text-anchor="middle" x="387.613" y="-64.5" font-family="Helvetica,sans-Serif" font-size="10.00" fill="#000000">BluetoothDefinitions.h</text>
</a>
</g>
</g>
<!-- Node0&#45;&gt;Node12 -->
<g id="edge13" class="edge">
<title>Node0&#45;&gt;Node12</title>
<path fill="none" stroke="#191970" d="M331.0779,-228.4827C343.6665,-220.0962 360.6668,-207.0945 371.613,-192 392.7585,-162.841 395.9225,-149.9451 393.613,-114 393.0604,-105.3997 391.9387,-95.9596 390.813,-87.8453"/>
<polygon fill="#191970" stroke="#191970" points="394.2537,-87.1862 389.3287,-77.8057 387.329,-88.2101 394.2537,-87.1862"/>
</g>
<!-- Node2 -->
<g id="node3" class="node">
<title>Node2</title>
<polygon fill="#ffffff" stroke="#bfbfbf" points="0,-114.5 0,-134.5 43.226,-134.5 43.226,-114.5 0,-114.5"/>
<text text-anchor="middle" x="21.613" y="-121.5" font-family="Helvetica,sans-Serif" font-size="10.00" fill="#000000">vector</text>
</g>
<!-- Node1&#45;&gt;Node2 -->
<g id="edge2" class="edge">
<title>Node1&#45;&gt;Node2</title>
<path fill="none" stroke="#191970" d="M130.3179,-171.4408C108.7212,-162.1149 76.4333,-148.1724 52.6551,-137.9045"/>
<polygon fill="#191970" stroke="#191970" points="53.9298,-134.6426 43.3616,-133.8914 51.1547,-141.0691 53.9298,-134.6426"/>
</g>
<!-- Node3 -->
<g id="node4" class="node">
<title>Node3</title>
<g id="a_node4"><a xlink:href="BluetoothInterface_8h.html" target="_top" xlink:title="BluetoothInterface.h">
<polygon fill="#ffffff" stroke="#000000" points="60.8725,-114.5 60.8725,-134.5 166.3535,-134.5 166.3535,-114.5 60.8725,-114.5"/>
<text text-anchor="middle" x="113.613" y="-121.5" font-family="Helvetica,sans-Serif" font-size="10.00" fill="#000000">BluetoothInterface.h</text>
</a>
</g>
</g>
<!-- Node1&#45;&gt;Node3 -->
<g id="edge3" class="edge">
<title>Node1&#45;&gt;Node3</title>
<path fill="none" stroke="#191970" d="M146.4618,-171.3095C140.9443,-163.4472 133.1644,-152.3608 126.5609,-142.9507"/>
<polygon fill="#191970" stroke="#191970" points="129.3115,-140.7773 120.7023,-134.6022 123.5816,-144.7983 129.3115,-140.7773"/>
</g>
<!-- Node7 -->
<g id="node8" class="node">
<title>Node7</title>
<g id="a_node8"><a xlink:href="UserLED_8h.html" target="_top" xlink:title="UserLED.h">
<polygon fill="#ffffff" stroke="#000000" points="184.167,-114.5 184.167,-134.5 249.059,-134.5 249.059,-114.5 184.167,-114.5"/>
<text text-anchor="middle" x="216.613" y="-121.5" font-family="Helvetica,sans-Serif" font-size="10.00" fill="#000000">UserLED.h</text>
</a>
</g>
</g>
<!-- Node1&#45;&gt;Node7 -->
<g id="edge7" class="edge">
<title>Node1&#45;&gt;Node7</title>
<path fill="none" stroke="#191970" d="M164.8761,-171.3095C174.0141,-163.0419 187.0922,-151.2093 197.813,-141.5096"/>
<polygon fill="#191970" stroke="#191970" points="200.3802,-143.9068 205.4474,-134.6022 195.6838,-138.716 200.3802,-143.9068"/>
</g>
<!-- Node4 -->
<g id="node5" class="node">
<title>Node4</title>
<g id="a_node5"><a xlink:href="BluetoothManager_8h.html" target="_top" xlink:title="BluetoothManager.h">
<polygon fill="#ffffff" stroke="#000000" points="71.597,-57.5 71.597,-77.5 177.629,-77.5 177.629,-57.5 71.597,-57.5"/>
<text text-anchor="middle" x="124.613" y="-64.5" font-family="Helvetica,sans-Serif" font-size="10.00" fill="#000000">BluetoothManager.h</text>
</a>
</g>
</g>
<!-- Node3&#45;&gt;Node4 -->
<g id="edge4" class="edge">
<title>Node3&#45;&gt;Node4</title>
<path fill="none" stroke="#191970" d="M115.5796,-114.3095C117.003,-106.9335 118.9741,-96.72 120.7119,-87.715"/>
<polygon fill="#191970" stroke="#191970" points="124.2051,-88.0843 122.6634,-77.6022 117.3319,-86.7578 124.2051,-88.0843"/>
</g>
<!-- Node5 -->
<g id="node6" class="node">
<title>Node5</title>
<polygon fill="#ffffff" stroke="#bfbfbf" points="190.3905,-.5 190.3905,-20.5 230.8355,-20.5 230.8355,-.5 190.3905,-.5"/>
<text text-anchor="middle" x="210.613" y="-7.5" font-family="Helvetica,sans-Serif" font-size="10.00" fill="#000000">string</text>
</g>
<!-- Node4&#45;&gt;Node5 -->
<g id="edge5" class="edge">
<title>Node4&#45;&gt;Node5</title>
<path fill="none" stroke="#191970" d="M139.9881,-57.3095C152.9513,-48.7177 171.7232,-36.2758 186.6558,-26.3786"/>
<polygon fill="#191970" stroke="#191970" points="188.9693,-29.0443 195.371,-20.6022 185.102,-23.2095 188.9693,-29.0443"/>
</g>
<!-- Node6 -->
<g id="node7" class="node">
<title>Node6</title>
<polygon fill="#ffffff" stroke="#bfbfbf" points="103.001,-.5 103.001,-20.5 146.225,-20.5 146.225,-.5 103.001,-.5"/>
<text text-anchor="middle" x="124.613" y="-7.5" font-family="Helvetica,sans-Serif" font-size="10.00" fill="#000000">time.h</text>
</g>
<!-- Node4&#45;&gt;Node6 -->
<g id="edge6" class="edge">
<title>Node4&#45;&gt;Node6</title>
<path fill="none" stroke="#191970" d="M124.613,-57.3095C124.613,-49.9335 124.613,-39.72 124.613,-30.715"/>
<polygon fill="#191970" stroke="#191970" points="128.1131,-30.6022 124.613,-20.6022 121.1131,-30.6023 128.1131,-30.6022"/>
</g>
<!-- Node7&#45;&gt;Node5 -->
<g id="edge8" class="edge">
<title>Node7&#45;&gt;Node5</title>
<path fill="none" stroke="#191970" d="M216.0805,-114.3833C215.0956,-95.6703 212.9723,-55.3266 211.6807,-30.7866"/>
<polygon fill="#191970" stroke="#191970" points="215.1737,-30.5601 211.1529,-20.7579 208.1834,-30.9281 215.1737,-30.5601"/>
</g>
<!-- Node8 -->
<g id="node9" class="node">
<title>Node8</title>
<polygon fill="#ffffff" stroke="#bfbfbf" points="238.946,-57.5 238.946,-77.5 288.28,-77.5 288.28,-57.5 238.946,-57.5"/>
<text text-anchor="middle" x="263.613" y="-64.5" font-family="Helvetica,sans-Serif" font-size="10.00" fill="#000000">fstream</text>
</g>
<!-- Node7&#45;&gt;Node8 -->
<g id="edge9" class="edge">
<title>Node7&#45;&gt;Node8</title>
<path fill="none" stroke="#191970" d="M225.0157,-114.3095C231.6323,-106.2851 241.0182,-94.9022 248.8774,-85.3708"/>
<polygon fill="#191970" stroke="#191970" points="251.6216,-87.5443 255.2831,-77.6022 246.2208,-83.091 251.6216,-87.5443"/>
</g>
<!-- Node10 -->
<g id="node11" class="node">
<title>Node10</title>
<g id="a_node11"><a xlink:href="Range_8h.html" target="_top" xlink:title="Range.h">
<polygon fill="#ffffff" stroke="#000000" points="266.7165,-114.5 266.7165,-134.5 320.5095,-134.5 320.5095,-114.5 266.7165,-114.5"/>
<text text-anchor="middle" x="293.613" y="-121.5" font-family="Helvetica,sans-Serif" font-size="10.00" fill="#000000">Range.h</text>
</a>
</g>
</g>
<!-- Node9&#45;&gt;Node10 -->
<g id="edge11" class="edge">
<title>Node9&#45;&gt;Node10</title>
<path fill="none" stroke="#191970" d="M310.8586,-171.3095C308.0814,-163.7714 304.2123,-153.2696 300.8425,-144.123"/>
<polygon fill="#191970" stroke="#191970" points="304.0762,-142.7757 297.3349,-134.6022 297.5078,-145.1957 304.0762,-142.7757"/>
</g>
<!-- Node11 -->
<g id="node12" class="node">
<title>Node11</title>
<polygon fill="#ffffff" stroke="#bfbfbf" points="338.886,-114.5 338.886,-134.5 384.34,-134.5 384.34,-114.5 338.886,-114.5"/>
<text text-anchor="middle" x="361.613" y="-121.5" font-family="Helvetica,sans-Serif" font-size="10.00" fill="#000000">stdio.h</text>
</g>
<!-- Node9&#45;&gt;Node11 -->
<g id="edge12" class="edge">
<title>Node9&#45;&gt;Node11</title>
<path fill="none" stroke="#191970" d="M323.0157,-171.3095C329.6323,-163.2851 339.0182,-151.9022 346.8774,-142.3708"/>
<polygon fill="#191970" stroke="#191970" points="349.6216,-144.5443 353.2831,-134.6022 344.2208,-140.091 349.6216,-144.5443"/>
</g>
<!-- Node12&#45;&gt;Node5 -->
<g id="edge14" class="edge">
<title>Node12&#45;&gt;Node5</title>
<path fill="none" stroke="#191970" d="M356.3764,-57.4408C323.7792,-46.9434 273.0181,-30.5966 240.8127,-20.2253"/>
<polygon fill="#191970" stroke="#191970" points="241.6464,-16.8169 231.0549,-17.083 239.5006,-23.4799 241.6464,-16.8169"/>
</g>
</g>
</svg>
