<?xml version="1.0" encoding="UTF-8" standalone="no"?>
<!DOCTYPE svg PUBLIC "-//W3C//DTD SVG 1.1//EN"
 "http://www.w3.org/Graphics/SVG/1.1/DTD/svg11.dtd">
<!-- Generated by graphviz version 2.40.1 (20161225.0304)
 -->
<!-- Title: CommunicationProtocolParser.h Pages: 1 -->
<svg width="365pt" height="257pt"
 viewBox="0.00 0.00 365.28 257.00" xmlns="http://www.w3.org/2000/svg" xmlns:xlink="http://www.w3.org/1999/xlink">
<g id="graph0" class="graph" transform="scale(1 1) rotate(0) translate(4 253)">
<title>CommunicationProtocolParser.h</title>
<polygon fill="#ffffff" stroke="transparent" points="-4,4 -4,-253 361.28,-253 361.28,4 -4,4"/>
<!-- Node0 -->
<g id="node1" class="node">
<title>Node0</title>
<polygon fill="#bfbfbf" stroke="#000000" points="73.661,-228.5 73.661,-248.5 233.565,-248.5 233.565,-228.5 73.661,-228.5"/>
<text text-anchor="middle" x="153.613" y="-235.5" font-family="Helvetica,sans-Serif" font-size="10.00" fill="#000000">CommunicationProtocolParser.h</text>
</g>
<!-- Node1 -->
<g id="node2" class="node">
<title>Node1</title>
<g id="a_node2"><a xlink:href="BoeingSurfaceVehicleControl_8h.html" target="_top" xlink:title="BoeingSurfaceVehicleControl.h">
<polygon fill="#ffffff" stroke="#000000" points="76.1515,-171.5 76.1515,-191.5 231.0745,-191.5 231.0745,-171.5 76.1515,-171.5"/>
<text text-anchor="middle" x="153.613" y="-178.5" font-family="Helvetica,sans-Serif" font-size="10.00" fill="#000000">BoeingSurfaceVehicleControl.h</text>
</a>
</g>
</g>
<!-- Node0&#45;&gt;Node1 -->
<g id="edge1" class="edge">
<title>Node0&#45;&gt;Node1</title>
<path fill="none" stroke="#191970" d="M153.613,-228.3095C153.613,-220.9335 153.613,-210.72 153.613,-201.715"/>
<polygon fill="#191970" stroke="#191970" points="157.1131,-201.6022 153.613,-191.6022 150.1131,-201.6023 157.1131,-201.6022"/>
</g>
<!-- Node2 -->
<g id="node3" class="node">
<title>Node2</title>
<polygon fill="#ffffff" stroke="#bfbfbf" points="0,-114.5 0,-134.5 43.226,-134.5 43.226,-114.5 0,-114.5"/>
<text text-anchor="middle" x="21.613" y="-121.5" font-family="Helvetica,sans-Serif" font-size="10.00" fill="#000000">vector</text>
</g>
<!-- Node1&#45;&gt;Node2 -->
<g id="edge2" class="edge">
<title>Node1&#45;&gt;Node2</title>
<path fill="none" stroke="#191970" d="M130.3179,-171.4408C108.7212,-162.1149 76.4333,-148.1724 52.6551,-137.9045"/>
<polygon fill="#191970" stroke="#191970" points="53.9298,-134.6426 43.3616,-133.8914 51.1547,-141.0691 53.9298,-134.6426"/>
</g>
<!-- Node3 -->
<g id="node4" class="node">
<title>Node3</title>
<g id="a_node4"><a xlink:href="BluetoothInterface_8h.html" target="_top" xlink:title="BluetoothInterface.h">
<polygon fill="#ffffff" stroke="#000000" points="60.8725,-114.5 60.8725,-134.5 166.3535,-134.5 166.3535,-114.5 60.8725,-114.5"/>
<text text-anchor="middle" x="113.613" y="-121.5" font-family="Helvetica,sans-Serif" font-size="10.00" fill="#000000">BluetoothInterface.h</text>
</a>
</g>
</g>
<!-- Node1&#45;&gt;Node3 -->
<g id="edge3" class="edge">
<title>Node1&#45;&gt;Node3</title>
<path fill="none" stroke="#191970" d="M146.4618,-171.3095C140.9443,-163.4472 133.1644,-152.3608 126.5609,-142.9507"/>
<polygon fill="#191970" stroke="#191970" points="129.3115,-140.7773 120.7023,-134.6022 123.5816,-144.7983 129.3115,-140.7773"/>
</g>
<!-- Node6 -->
<g id="node7" class="node">
<title>Node6</title>
<g id="a_node7"><a xlink:href="BluetoothDefinitions_8h.html" target="_top" xlink:title="BluetoothDefinitions.h">
<polygon fill="#ffffff" stroke="#000000" points="137.9885,-57.5 137.9885,-77.5 251.2375,-77.5 251.2375,-57.5 137.9885,-57.5"/>
<text text-anchor="middle" x="194.613" y="-64.5" font-family="Helvetica,sans-Serif" font-size="10.00" fill="#000000">BluetoothDefinitions.h</text>
</a>
</g>
</g>
<!-- Node1&#45;&gt;Node6 -->
<g id="edge6" class="edge">
<title>Node1&#45;&gt;Node6</title>
<path fill="none" stroke="#191970" d="M159.0114,-171.3711C163.8098,-162.0917 170.7919,-147.8808 175.613,-135 181.4722,-119.3459 186.5117,-101.0675 189.9254,-87.4824"/>
<polygon fill="#191970" stroke="#191970" points="193.334,-88.2776 192.2992,-77.7334 186.5327,-86.6215 193.334,-88.2776"/>
</g>
<!-- Node7 -->
<g id="node8" class="node">
<title>Node7</title>
<g id="a_node8"><a xlink:href="UserLED_8h.html" target="_top" xlink:title="UserLED.h">
<polygon fill="#ffffff" stroke="#000000" points="247.167,-114.5 247.167,-134.5 312.059,-134.5 312.059,-114.5 247.167,-114.5"/>
<text text-anchor="middle" x="279.613" y="-121.5" font-family="Helvetica,sans-Serif" font-size="10.00" fill="#000000">UserLED.h</text>
</a>
</g>
</g>
<!-- Node1&#45;&gt;Node7 -->
<g id="edge8" class="edge">
<title>Node1&#45;&gt;Node7</title>
<path fill="none" stroke="#191970" d="M175.8492,-171.4408C195.8781,-162.3801 225.5401,-148.9615 248.0265,-138.7891"/>
<polygon fill="#191970" stroke="#191970" points="249.5068,-141.961 257.1752,-134.6504 246.6215,-135.5833 249.5068,-141.961"/>
</g>
<!-- Node4 -->
<g id="node5" class="node">
<title>Node4</title>
<g id="a_node5"><a xlink:href="BluetoothManager_8h.html" target="_top" xlink:title="BluetoothManager.h">
<polygon fill="#ffffff" stroke="#000000" points="13.597,-57.5 13.597,-77.5 119.629,-77.5 119.629,-57.5 13.597,-57.5"/>
<text text-anchor="middle" x="66.613" y="-64.5" font-family="Helvetica,sans-Serif" font-size="10.00" fill="#000000">BluetoothManager.h</text>
</a>
</g>
</g>
<!-- Node3&#45;&gt;Node4 -->
<g id="edge4" class="edge">
<title>Node3&#45;&gt;Node4</title>
<path fill="none" stroke="#191970" d="M105.2103,-114.3095C98.5937,-106.2851 89.2078,-94.9022 81.3486,-85.3708"/>
<polygon fill="#191970" stroke="#191970" points="84.0052,-83.091 74.9429,-77.6022 78.6044,-87.5443 84.0052,-83.091"/>
</g>
<!-- Node5 -->
<g id="node6" class="node">
<title>Node5</title>
<polygon fill="#ffffff" stroke="#bfbfbf" points="174.3905,-.5 174.3905,-20.5 214.8355,-20.5 214.8355,-.5 174.3905,-.5"/>
<text text-anchor="middle" x="194.613" y="-7.5" font-family="Helvetica,sans-Serif" font-size="10.00" fill="#000000">string</text>
</g>
<!-- Node4&#45;&gt;Node5 -->
<g id="edge5" class="edge">
<title>Node4&#45;&gt;Node5</title>
<path fill="none" stroke="#191970" d="M89.2022,-57.4408C110.3026,-48.0445 141.9273,-33.9616 165.0324,-23.6726"/>
<polygon fill="#191970" stroke="#191970" points="166.6462,-26.7854 174.3575,-19.52 163.7985,-20.3908 166.6462,-26.7854"/>
</g>
<!-- Node6&#45;&gt;Node5 -->
<g id="edge7" class="edge">
<title>Node6&#45;&gt;Node5</title>
<path fill="none" stroke="#191970" d="M194.613,-57.3095C194.613,-49.9335 194.613,-39.72 194.613,-30.715"/>
<polygon fill="#191970" stroke="#191970" points="198.1131,-30.6022 194.613,-20.6022 191.1131,-30.6023 198.1131,-30.6022"/>
</g>
<!-- Node7&#45;&gt;Node5 -->
<g id="edge9" class="edge">
<title>Node7&#45;&gt;Node5</title>
<path fill="none" stroke="#191970" d="M278.8818,-114.4465C277.4251,-100.4138 273.1281,-74.6907 260.613,-57 251.298,-43.8329 237.0221,-33.1077 224.1272,-25.2896"/>
<polygon fill="#191970" stroke="#191970" points="225.4917,-22.0383 215.0724,-20.1173 222.0196,-28.1165 225.4917,-22.0383"/>
</g>
<!-- Node8 -->
<g id="node9" class="node">
<title>Node8</title>
<polygon fill="#ffffff" stroke="#bfbfbf" points="307.946,-57.5 307.946,-77.5 357.28,-77.5 357.28,-57.5 307.946,-57.5"/>
<text text-anchor="middle" x="332.613" y="-64.5" font-family="Helvetica,sans-Serif" font-size="10.00" fill="#000000">fstream</text>
</g>
<!-- Node7&#45;&gt;Node8 -->
<g id="edge10" class="edge">
<title>Node7&#45;&gt;Node8</title>
<path fill="none" stroke="#191970" d="M289.0883,-114.3095C296.6251,-106.204 307.3479,-94.672 316.2643,-85.0826"/>
<polygon fill="#191970" stroke="#191970" points="318.9734,-87.3089 323.2197,-77.6022 313.847,-82.5423 318.9734,-87.3089"/>
</g>
</g>
</svg>
