<?xml version="1.0" encoding="UTF-8" standalone="no"?>
<!DOCTYPE svg PUBLIC "-//W3C//DTD SVG 1.1//EN"
 "http://www.w3.org/Graphics/SVG/1.1/DTD/svg11.dtd">
<!-- Generated by graphviz version 2.40.1 (20161225.0304)
 -->
<!-- Title: CommunicationProtocolParser.h Pages: 1 -->
<svg width="362pt" height="86pt"
 viewBox="0.00 0.00 361.97 86.00" xmlns="http://www.w3.org/2000/svg" xmlns:xlink="http://www.w3.org/1999/xlink">
<g id="graph0" class="graph" transform="scale(1 1) rotate(0) translate(4 82)">
<title>CommunicationProtocolParser.h</title>
<polygon fill="#ffffff" stroke="transparent" points="-4,4 -4,-82 357.9725,-82 357.9725,4 -4,4"/>
<!-- Node13 -->
<g id="node1" class="node">
<title>Node13</title>
<polygon fill="#bfbfbf" stroke="#000000" points="95.789,-57.5 95.789,-77.5 255.693,-77.5 255.693,-57.5 95.789,-57.5"/>
<text text-anchor="middle" x="175.741" y="-64.5" font-family="Helvetica,sans-Serif" font-size="10.00" fill="#000000">CommunicationProtocolParser.h</text>
</g>
<!-- Node14 -->
<g id="node2" class="node">
<title>Node14</title>
<g id="a_node2"><a xlink:href="BoeingSurfaceVehicleControl_8cpp.html" target="_top" xlink:title="BoeingSurfaceVehicleControl.cpp">
<polygon fill="#ffffff" stroke="#000000" points="0,-.5 0,-20.5 165.482,-20.5 165.482,-.5 0,-.5"/>
<text text-anchor="middle" x="82.741" y="-7.5" font-family="Helvetica,sans-Serif" font-size="10.00" fill="#000000">BoeingSurfaceVehicleControl.cpp</text>
</a>
</g>
</g>
<!-- Node13&#45;&gt;Node14 -->
<g id="edge1" class="edge">
<title>Node13&#45;&gt;Node14</title>
<path fill="none" stroke="#191970" d="M150.5788,-52.078C134.2592,-42.0757 113.4624,-29.3293 99.2236,-20.6022"/>
<polygon fill="#191970" stroke="#191970" points="148.7595,-55.068 159.1145,-57.3095 152.4174,-49.0998 148.7595,-55.068"/>
</g>
<!-- Node15 -->
<g id="node3" class="node">
<title>Node15</title>
<g id="a_node3"><a xlink:href="CommunicationProtocolParser_8cpp.html" target="_top" xlink:title="CommunicationProtocolParser.cpp">
<polygon fill="#ffffff" stroke="#000000" points="183.5095,-.5 183.5095,-20.5 353.9725,-20.5 353.9725,-.5 183.5095,-.5"/>
<text text-anchor="middle" x="268.741" y="-7.5" font-family="Helvetica,sans-Serif" font-size="10.00" fill="#000000">CommunicationProtocolParser.cpp</text>
</a>
</g>
</g>
<!-- Node13&#45;&gt;Node15 -->
<g id="edge2" class="edge">
<title>Node13&#45;&gt;Node15</title>
<path fill="none" stroke="#191970" d="M200.9032,-52.078C217.2228,-42.0757 238.0196,-29.3293 252.2584,-20.6022"/>
<polygon fill="#191970" stroke="#191970" points="199.0646,-49.0998 192.3675,-57.3095 202.7225,-55.068 199.0646,-49.0998"/>
</g>
</g>
</svg>
