<?xml version="1.0" encoding="UTF-8" standalone="no"?>
<!DOCTYPE svg PUBLIC "-//W3C//DTD SVG 1.1//EN"
 "http://www.w3.org/Graphics/SVG/1.1/DTD/svg11.dtd">
<!-- Generated by graphviz version 2.40.1 (20161225.0304)
 -->
<!-- Title: CommunicationProtocolParser.cpp Pages: 1 -->
<svg width="824pt" height="314pt"
 viewBox="0.00 0.00 823.62 314.00" xmlns="http://www.w3.org/2000/svg" xmlns:xlink="http://www.w3.org/1999/xlink">
<g id="graph0" class="graph" transform="scale(1 1) rotate(0) translate(4 310)">
<title>CommunicationProtocolParser.cpp</title>
<polygon fill="#ffffff" stroke="transparent" points="-4,4 -4,-310 819.6185,-310 819.6185,4 -4,4"/>
<!-- Node0 -->
<g id="node1" class="node">
<title>Node0</title>
<polygon fill="#bfbfbf" stroke="#000000" points="393.3815,-285.5 393.3815,-305.5 563.8445,-305.5 563.8445,-285.5 393.3815,-285.5"/>
<text text-anchor="middle" x="478.613" y="-292.5" font-family="Helvetica,sans-Serif" font-size="10.00" fill="#000000">CommunicationProtocolParser.cpp</text>
</g>
<!-- Node1 -->
<g id="node2" class="node">
<title>Node1</title>
<g id="a_node2"><a xlink:href="CommunicationProtocolParser_8h.html" target="_top" xlink:title="CommunicationProtocolParser.h">
<polygon fill="#ffffff" stroke="#000000" points="99.661,-228.5 99.661,-248.5 259.565,-248.5 259.565,-228.5 99.661,-228.5"/>
<text text-anchor="middle" x="179.613" y="-235.5" font-family="Helvetica,sans-Serif" font-size="10.00" fill="#000000">CommunicationProtocolParser.h</text>
</a>
</g>
</g>
<!-- Node0&#45;&gt;Node1 -->
<g id="edge1" class="edge">
<title>Node0&#45;&gt;Node1</title>
<path fill="none" stroke="#191970" d="M425.8461,-285.4408C374.4734,-275.6473 296.3941,-260.7626 241.977,-250.3888"/>
<polygon fill="#191970" stroke="#191970" points="242.5818,-246.9411 232.1032,-248.5065 241.2709,-253.8173 242.5818,-246.9411"/>
</g>
<!-- Node10 -->
<g id="node11" class="node">
<title>Node10</title>
<polygon fill="#ffffff" stroke="#bfbfbf" points="277.2215,-228.5 277.2215,-248.5 326.0045,-248.5 326.0045,-228.5 277.2215,-228.5"/>
<text text-anchor="middle" x="301.613" y="-235.5" font-family="Helvetica,sans-Serif" font-size="10.00" fill="#000000">string.h</text>
</g>
<!-- Node0&#45;&gt;Node10 -->
<g id="edge12" class="edge">
<title>Node0&#45;&gt;Node10</title>
<path fill="none" stroke="#191970" d="M447.3764,-285.4408C416.2121,-275.4048 368.4455,-260.0223 336.164,-249.6266"/>
<polygon fill="#191970" stroke="#191970" points="336.8592,-246.1735 326.2677,-246.4397 334.7135,-252.8366 336.8592,-246.1735"/>
</g>
<!-- Node11 -->
<g id="node12" class="node">
<title>Node11</title>
<g id="a_node12"><a xlink:href="Input_8h.html" target="_top" xlink:title="Input.h">
<polygon fill="#ffffff" stroke="#000000" points="344.3265,-228.5 344.3265,-248.5 390.8995,-248.5 390.8995,-228.5 344.3265,-228.5"/>
<text text-anchor="middle" x="367.613" y="-235.5" font-family="Helvetica,sans-Serif" font-size="10.00" fill="#000000">Input.h</text>
</a>
</g>
</g>
<!-- Node0&#45;&gt;Node11 -->
<g id="edge13" class="edge">
<title>Node0&#45;&gt;Node11</title>
<path fill="none" stroke="#191970" d="M459.0239,-285.4408C441.6945,-276.5419 416.1792,-263.4394 396.5064,-253.3371"/>
<polygon fill="#191970" stroke="#191970" points="397.8741,-250.105 387.3796,-248.6504 394.6764,-256.332 397.8741,-250.105"/>
</g>
<!-- Node13 -->
<g id="node14" class="node">
<title>Node13</title>
<g id="a_node14"><a xlink:href="Output_8h.html" target="_top" xlink:title="Output.h">
<polygon fill="#ffffff" stroke="#000000" points="408.437,-228.5 408.437,-248.5 462.789,-248.5 462.789,-228.5 408.437,-228.5"/>
<text text-anchor="middle" x="435.613" y="-235.5" font-family="Helvetica,sans-Serif" font-size="10.00" fill="#000000">Output.h</text>
</a>
</g>
</g>
<!-- Node0&#45;&gt;Node13 -->
<g id="edge17" class="edge">
<title>Node0&#45;&gt;Node13</title>
<path fill="none" stroke="#191970" d="M470.9255,-285.3095C464.933,-277.3661 456.4581,-266.1319 449.3128,-256.6602"/>
<polygon fill="#191970" stroke="#191970" points="452.0505,-254.4776 443.234,-248.6022 446.4623,-258.6933 452.0505,-254.4776"/>
</g>
<!-- Node14 -->
<g id="node15" class="node">
<title>Node14</title>
<g id="a_node15"><a xlink:href="ServoControl_8h.html" target="_top" xlink:title="ServoControl.h">
<polygon fill="#ffffff" stroke="#000000" points="481.2745,-228.5 481.2745,-248.5 563.9515,-248.5 563.9515,-228.5 481.2745,-228.5"/>
<text text-anchor="middle" x="522.613" y="-235.5" font-family="Helvetica,sans-Serif" font-size="10.00" fill="#000000">ServoControl.h</text>
</a>
</g>
</g>
<!-- Node0&#45;&gt;Node14 -->
<g id="edge19" class="edge">
<title>Node0&#45;&gt;Node14</title>
<path fill="none" stroke="#191970" d="M486.4793,-285.3095C492.6111,-277.3661 501.2831,-266.1319 508.5946,-256.6602"/>
<polygon fill="#191970" stroke="#191970" points="511.4748,-258.6569 514.8148,-248.6022 505.9337,-254.3795 511.4748,-258.6569"/>
</g>
<!-- Node20 -->
<g id="node21" class="node">
<title>Node20</title>
<g id="a_node21"><a xlink:href="InputList_8h.html" target="_top" xlink:title="InputList.h">
<polygon fill="#ffffff" stroke="#000000" points="581.548,-228.5 581.548,-248.5 643.678,-248.5 643.678,-228.5 581.548,-228.5"/>
<text text-anchor="middle" x="612.613" y="-235.5" font-family="Helvetica,sans-Serif" font-size="10.00" fill="#000000">InputList.h</text>
</a>
</g>
</g>
<!-- Node0&#45;&gt;Node20 -->
<g id="edge25" class="edge">
<title>Node0&#45;&gt;Node20</title>
<path fill="none" stroke="#191970" d="M502.2611,-285.4408C523.6567,-276.3396 555.3888,-262.8416 579.3409,-252.6531"/>
<polygon fill="#191970" stroke="#191970" points="580.9186,-255.7855 588.7506,-248.6504 578.1785,-249.3441 580.9186,-255.7855"/>
</g>
<!-- Node21 -->
<g id="node22" class="node">
<title>Node21</title>
<g id="a_node22"><a xlink:href="OutputList_8h.html" target="_top" xlink:title="OutputList.h">
<polygon fill="#ffffff" stroke="#000000" points="661.6585,-228.5 661.6585,-248.5 731.5675,-248.5 731.5675,-228.5 661.6585,-228.5"/>
<text text-anchor="middle" x="696.613" y="-235.5" font-family="Helvetica,sans-Serif" font-size="10.00" fill="#000000">OutputList.h</text>
</a>
</g>
</g>
<!-- Node0&#45;&gt;Node21 -->
<g id="edge26" class="edge">
<title>Node0&#45;&gt;Node21</title>
<path fill="none" stroke="#191970" d="M517.0852,-285.4408C554.7216,-275.6 612.018,-260.6189 651.7167,-250.2389"/>
<polygon fill="#191970" stroke="#191970" points="652.6184,-253.6209 661.4078,-247.705 650.8476,-246.8486 652.6184,-253.6209"/>
</g>
<!-- Node22 -->
<g id="node23" class="node">
<title>Node22</title>
<g id="a_node23"><a xlink:href="ServoList_8h.html" target="_top" xlink:title="ServoList.h">
<polygon fill="#ffffff" stroke="#000000" points="749.6075,-228.5 749.6075,-248.5 815.6185,-248.5 815.6185,-228.5 749.6075,-228.5"/>
<text text-anchor="middle" x="782.613" y="-235.5" font-family="Helvetica,sans-Serif" font-size="10.00" fill="#000000">ServoList.h</text>
</a>
</g>
</g>
<!-- Node0&#45;&gt;Node22 -->
<g id="edge27" class="edge">
<title>Node0&#45;&gt;Node22</title>
<path fill="none" stroke="#191970" d="M542.1161,-285.4954C593.0381,-277.1831 666.5378,-264.5385 739.385,-249.1646"/>
<polygon fill="#191970" stroke="#191970" points="740.1387,-252.5826 749.191,-247.0775 738.6814,-245.736 740.1387,-252.5826"/>
</g>
<!-- Node2 -->
<g id="node3" class="node">
<title>Node2</title>
<g id="a_node3"><a xlink:href="BoeingSurfaceVehicleControl_8h.html" target="_top" xlink:title="BoeingSurfaceVehicleControl.h">
<polygon fill="#ffffff" stroke="#000000" points="102.1515,-171.5 102.1515,-191.5 257.0745,-191.5 257.0745,-171.5 102.1515,-171.5"/>
<text text-anchor="middle" x="179.613" y="-178.5" font-family="Helvetica,sans-Serif" font-size="10.00" fill="#000000">BoeingSurfaceVehicleControl.h</text>
</a>
</g>
</g>
<!-- Node1&#45;&gt;Node2 -->
<g id="edge2" class="edge">
<title>Node1&#45;&gt;Node2</title>
<path fill="none" stroke="#191970" d="M179.613,-228.3095C179.613,-220.9335 179.613,-210.72 179.613,-201.715"/>
<polygon fill="#191970" stroke="#191970" points="183.1131,-201.6022 179.613,-191.6022 176.1131,-201.6023 183.1131,-201.6022"/>
</g>
<!-- Node3 -->
<g id="node4" class="node">
<title>Node3</title>
<polygon fill="#ffffff" stroke="#bfbfbf" points="0,-114.5 0,-134.5 43.226,-134.5 43.226,-114.5 0,-114.5"/>
<text text-anchor="middle" x="21.613" y="-121.5" font-family="Helvetica,sans-Serif" font-size="10.00" fill="#000000">vector</text>
</g>
<!-- Node2&#45;&gt;Node3 -->
<g id="edge3" class="edge">
<title>Node2&#45;&gt;Node3</title>
<path fill="none" stroke="#191970" d="M151.7295,-171.4408C124.1513,-161.4917 82.0087,-146.2883 53.2067,-135.8977"/>
<polygon fill="#191970" stroke="#191970" points="54.2155,-132.5409 43.6212,-132.4397 51.84,-139.1256 54.2155,-132.5409"/>
</g>
<!-- Node4 -->
<g id="node5" class="node">
<title>Node4</title>
<g id="a_node5"><a xlink:href="BluetoothInterface_8h.html" target="_top" xlink:title="BluetoothInterface.h">
<polygon fill="#ffffff" stroke="#000000" points="60.8725,-114.5 60.8725,-134.5 166.3535,-134.5 166.3535,-114.5 60.8725,-114.5"/>
<text text-anchor="middle" x="113.613" y="-121.5" font-family="Helvetica,sans-Serif" font-size="10.00" fill="#000000">BluetoothInterface.h</text>
</a>
</g>
</g>
<!-- Node2&#45;&gt;Node4 -->
<g id="edge4" class="edge">
<title>Node2&#45;&gt;Node4</title>
<path fill="none" stroke="#191970" d="M167.8135,-171.3095C158.1466,-162.9608 144.2705,-150.9769 132.9787,-141.2249"/>
<polygon fill="#191970" stroke="#191970" points="135.1663,-138.4896 125.3103,-134.6022 130.5909,-143.7874 135.1663,-138.4896"/>
</g>
<!-- Node7 -->
<g id="node8" class="node">
<title>Node7</title>
<g id="a_node8"><a xlink:href="BluetoothDefinitions_8h.html" target="_top" xlink:title="BluetoothDefinitions.h">
<polygon fill="#ffffff" stroke="#000000" points="137.9885,-57.5 137.9885,-77.5 251.2375,-77.5 251.2375,-57.5 137.9885,-57.5"/>
<text text-anchor="middle" x="194.613" y="-64.5" font-family="Helvetica,sans-Serif" font-size="10.00" fill="#000000">BluetoothDefinitions.h</text>
</a>
</g>
</g>
<!-- Node2&#45;&gt;Node7 -->
<g id="edge7" class="edge">
<title>Node2&#45;&gt;Node7</title>
<path fill="none" stroke="#191970" d="M180.9441,-171.3833C183.4064,-152.6703 188.7148,-112.3266 191.9437,-87.7866"/>
<polygon fill="#191970" stroke="#191970" points="195.4287,-88.1291 193.2633,-77.7579 188.4885,-87.2159 195.4287,-88.1291"/>
</g>
<!-- Node8 -->
<g id="node9" class="node">
<title>Node8</title>
<g id="a_node9"><a xlink:href="UserLED_8h.html" target="_top" xlink:title="UserLED.h">
<polygon fill="#ffffff" stroke="#000000" points="247.167,-114.5 247.167,-134.5 312.059,-134.5 312.059,-114.5 247.167,-114.5"/>
<text text-anchor="middle" x="279.613" y="-121.5" font-family="Helvetica,sans-Serif" font-size="10.00" fill="#000000">UserLED.h</text>
</a>
</g>
</g>
<!-- Node2&#45;&gt;Node8 -->
<g id="edge9" class="edge">
<title>Node2&#45;&gt;Node8</title>
<path fill="none" stroke="#191970" d="M197.491,-171.3095C212.8489,-162.5556 235.2184,-149.8049 252.7338,-139.8211"/>
<polygon fill="#191970" stroke="#191970" points="254.9352,-142.595 261.8898,-134.6022 251.4688,-136.5136 254.9352,-142.595"/>
</g>
<!-- Node5 -->
<g id="node6" class="node">
<title>Node5</title>
<g id="a_node6"><a xlink:href="BluetoothManager_8h.html" target="_top" xlink:title="BluetoothManager.h">
<polygon fill="#ffffff" stroke="#000000" points="13.597,-57.5 13.597,-77.5 119.629,-77.5 119.629,-57.5 13.597,-57.5"/>
<text text-anchor="middle" x="66.613" y="-64.5" font-family="Helvetica,sans-Serif" font-size="10.00" fill="#000000">BluetoothManager.h</text>
</a>
</g>
</g>
<!-- Node4&#45;&gt;Node5 -->
<g id="edge5" class="edge">
<title>Node4&#45;&gt;Node5</title>
<path fill="none" stroke="#191970" d="M105.2103,-114.3095C98.5937,-106.2851 89.2078,-94.9022 81.3486,-85.3708"/>
<polygon fill="#191970" stroke="#191970" points="84.0052,-83.091 74.9429,-77.6022 78.6044,-87.5443 84.0052,-83.091"/>
</g>
<!-- Node6 -->
<g id="node7" class="node">
<title>Node6</title>
<polygon fill="#ffffff" stroke="#bfbfbf" points="216.3905,-.5 216.3905,-20.5 256.8355,-20.5 256.8355,-.5 216.3905,-.5"/>
<text text-anchor="middle" x="236.613" y="-7.5" font-family="Helvetica,sans-Serif" font-size="10.00" fill="#000000">string</text>
</g>
<!-- Node5&#45;&gt;Node6 -->
<g id="edge6" class="edge">
<title>Node5&#45;&gt;Node6</title>
<path fill="none" stroke="#191970" d="M96.6143,-57.4408C127.4442,-47.1037 175.191,-31.0944 206.1783,-20.7046"/>
<polygon fill="#191970" stroke="#191970" points="207.6273,-23.9103 215.9959,-17.4128 205.402,-17.2734 207.6273,-23.9103"/>
</g>
<!-- Node7&#45;&gt;Node6 -->
<g id="edge8" class="edge">
<title>Node7&#45;&gt;Node6</title>
<path fill="none" stroke="#191970" d="M202.1218,-57.3095C207.9748,-49.3661 216.2527,-38.1319 223.2318,-28.6602"/>
<polygon fill="#191970" stroke="#191970" points="226.0549,-30.729 229.1692,-20.6022 220.4195,-26.5766 226.0549,-30.729"/>
</g>
<!-- Node8&#45;&gt;Node6 -->
<g id="edge10" class="edge">
<title>Node8&#45;&gt;Node6</title>
<path fill="none" stroke="#191970" d="M277.4044,-114.2262C274.3663,-100.8085 268.3801,-76.7077 260.613,-57 256.9259,-47.6447 251.9405,-37.6863 247.4688,-29.3953"/>
<polygon fill="#191970" stroke="#191970" points="250.4792,-27.607 242.5639,-20.5644 244.3597,-31.006 250.4792,-27.607"/>
</g>
<!-- Node9 -->
<g id="node10" class="node">
<title>Node9</title>
<polygon fill="#ffffff" stroke="#bfbfbf" points="307.946,-57.5 307.946,-77.5 357.28,-77.5 357.28,-57.5 307.946,-57.5"/>
<text text-anchor="middle" x="332.613" y="-64.5" font-family="Helvetica,sans-Serif" font-size="10.00" fill="#000000">fstream</text>
</g>
<!-- Node8&#45;&gt;Node9 -->
<g id="edge11" class="edge">
<title>Node8&#45;&gt;Node9</title>
<path fill="none" stroke="#191970" d="M289.0883,-114.3095C296.6251,-106.204 307.3479,-94.672 316.2643,-85.0826"/>
<polygon fill="#191970" stroke="#191970" points="318.9734,-87.3089 323.2197,-77.6022 313.847,-82.5423 318.9734,-87.3089"/>
</g>
<!-- Node12 -->
<g id="node13" class="node">
<title>Node12</title>
<g id="a_node13"><a xlink:href="IOBase_8h.html" target="_top" xlink:title="IOBase.h">
<polygon fill="#ffffff" stroke="#000000" points="347.7715,-171.5 347.7715,-191.5 405.4545,-191.5 405.4545,-171.5 347.7715,-171.5"/>
<text text-anchor="middle" x="376.613" y="-178.5" font-family="Helvetica,sans-Serif" font-size="10.00" fill="#000000">IOBase.h</text>
</a>
</g>
</g>
<!-- Node11&#45;&gt;Node12 -->
<g id="edge14" class="edge">
<title>Node11&#45;&gt;Node12</title>
<path fill="none" stroke="#191970" d="M369.222,-228.3095C370.3867,-220.9335 371.9993,-210.72 373.4212,-201.715"/>
<polygon fill="#191970" stroke="#191970" points="376.9154,-202.0258 375.0179,-191.6022 370.001,-200.934 376.9154,-202.0258"/>
</g>
<!-- Node12&#45;&gt;Node6 -->
<g id="edge15" class="edge">
<title>Node12&#45;&gt;Node6</title>
<path fill="none" stroke="#191970" d="M379.1729,-171.176C384.2552,-148.0506 392.9871,-91.4271 366.613,-57 354.2612,-40.8768 301.2934,-25.7227 266.897,-17.3203"/>
<polygon fill="#191970" stroke="#191970" points="267.4228,-13.8477 256.884,-14.9359 265.8011,-20.6573 267.4228,-13.8477"/>
</g>
<!-- Node12&#45;&gt;Node9 -->
<g id="edge16" class="edge">
<title>Node12&#45;&gt;Node9</title>
<path fill="none" stroke="#191970" d="M372.7083,-171.3833C365.4207,-152.5017 349.6333,-111.598 340.1884,-87.1272"/>
<polygon fill="#191970" stroke="#191970" points="343.4383,-85.8269 336.5722,-77.7579 336.9078,-88.3475 343.4383,-85.8269"/>
</g>
<!-- Node13&#45;&gt;Node12 -->
<g id="edge18" class="edge">
<title>Node13&#45;&gt;Node12</title>
<path fill="none" stroke="#191970" d="M425.065,-228.3095C416.5911,-220.1229 404.4993,-208.441 394.5153,-198.7955"/>
<polygon fill="#191970" stroke="#191970" points="396.6935,-196.0332 387.0697,-191.6022 391.8298,-201.0676 396.6935,-196.0332"/>
</g>
<!-- Node15 -->
<g id="node16" class="node">
<title>Node15</title>
<g id="a_node16"><a xlink:href="MotorControl_8h.html" target="_top" xlink:title="MotorControl.h">
<polygon fill="#ffffff" stroke="#000000" points="481.555,-171.5 481.555,-191.5 563.671,-191.5 563.671,-171.5 481.555,-171.5"/>
<text text-anchor="middle" x="522.613" y="-178.5" font-family="Helvetica,sans-Serif" font-size="10.00" fill="#000000">MotorControl.h</text>
</a>
</g>
</g>
<!-- Node14&#45;&gt;Node15 -->
<g id="edge20" class="edge">
<title>Node14&#45;&gt;Node15</title>
<path fill="none" stroke="#191970" d="M522.613,-228.3095C522.613,-220.9335 522.613,-210.72 522.613,-201.715"/>
<polygon fill="#191970" stroke="#191970" points="526.1131,-201.6022 522.613,-191.6022 519.1131,-201.6023 526.1131,-201.6022"/>
</g>
<!-- Node16 -->
<g id="node17" class="node">
<title>Node16</title>
<polygon fill="#ffffff" stroke="#bfbfbf" points="427.4965,-114.5 427.4965,-134.5 475.7295,-134.5 475.7295,-114.5 427.4965,-114.5"/>
<text text-anchor="middle" x="451.613" y="-121.5" font-family="Helvetica,sans-Serif" font-size="10.00" fill="#000000">stdint.h</text>
</g>
<!-- Node15&#45;&gt;Node16 -->
<g id="edge21" class="edge">
<title>Node15&#45;&gt;Node16</title>
<path fill="none" stroke="#191970" d="M509.9196,-171.3095C499.4194,-162.8798 484.3028,-150.7439 472.0928,-140.9415"/>
<polygon fill="#191970" stroke="#191970" points="474.1856,-138.1333 464.1965,-134.6022 469.8033,-143.5919 474.1856,-138.1333"/>
</g>
<!-- Node17 -->
<g id="node18" class="node">
<title>Node17</title>
<polygon fill="#ffffff" stroke="#bfbfbf" points="493.4925,-114.5 493.4925,-134.5 551.7335,-134.5 551.7335,-114.5 493.4925,-114.5"/>
<text text-anchor="middle" x="522.613" y="-121.5" font-family="Helvetica,sans-Serif" font-size="10.00" fill="#000000">pthread.h</text>
</g>
<!-- Node15&#45;&gt;Node17 -->
<g id="edge22" class="edge">
<title>Node15&#45;&gt;Node17</title>
<path fill="none" stroke="#191970" d="M522.613,-171.3095C522.613,-163.9335 522.613,-153.72 522.613,-144.715"/>
<polygon fill="#191970" stroke="#191970" points="526.1131,-144.6022 522.613,-134.6022 519.1131,-144.6023 526.1131,-144.6022"/>
</g>
<!-- Node18 -->
<g id="node19" class="node">
<title>Node18</title>
<g id="a_node19"><a xlink:href="LinearConverter_8h.html" target="_top" xlink:title="LinearConverter.h">
<polygon fill="#ffffff" stroke="#000000" points="569.606,-114.5 569.606,-134.5 665.62,-134.5 665.62,-114.5 569.606,-114.5"/>
<text text-anchor="middle" x="617.613" y="-121.5" font-family="Helvetica,sans-Serif" font-size="10.00" fill="#000000">LinearConverter.h</text>
</a>
</g>
</g>
<!-- Node15&#45;&gt;Node18 -->
<g id="edge23" class="edge">
<title>Node15&#45;&gt;Node18</title>
<path fill="none" stroke="#191970" d="M539.5971,-171.3095C554.1871,-162.5556 575.4382,-149.8049 592.0778,-139.8211"/>
<polygon fill="#191970" stroke="#191970" points="594.0018,-142.7485 600.7759,-134.6022 590.4002,-136.746 594.0018,-142.7485"/>
</g>
<!-- Node19 -->
<g id="node20" class="node">
<title>Node19</title>
<g id="a_node20"><a xlink:href="Range_8h.html" target="_top" xlink:title="Range.h">
<polygon fill="#ffffff" stroke="#000000" points="590.7165,-57.5 590.7165,-77.5 644.5095,-77.5 644.5095,-57.5 590.7165,-57.5"/>
<text text-anchor="middle" x="617.613" y="-64.5" font-family="Helvetica,sans-Serif" font-size="10.00" fill="#000000">Range.h</text>
</a>
</g>
</g>
<!-- Node18&#45;&gt;Node19 -->
<g id="edge24" class="edge">
<title>Node18&#45;&gt;Node19</title>
<path fill="none" stroke="#191970" d="M617.613,-114.3095C617.613,-106.9335 617.613,-96.72 617.613,-87.715"/>
<polygon fill="#191970" stroke="#191970" points="621.1131,-87.6022 617.613,-77.6022 614.1131,-87.6023 621.1131,-87.6022"/>
</g>
</g>
</svg>
