<?xml version="1.0" encoding="UTF-8" standalone="no"?>
<!DOCTYPE svg PUBLIC "-//W3C//DTD SVG 1.1//EN"
 "http://www.w3.org/Graphics/SVG/1.1/DTD/svg11.dtd">
<!-- Generated by graphviz version 2.40.1 (20161225.0304)
 -->
<!-- Title: CommunicationProtocolParser.cpp Pages: 1 -->
<svg width="1077pt" height="314pt"
 viewBox="0.00 0.00 1076.73 314.00" xmlns="http://www.w3.org/2000/svg" xmlns:xlink="http://www.w3.org/1999/xlink">
<g id="graph0" class="graph" transform="scale(1 1) rotate(0) translate(4 310)">
<title>CommunicationProtocolParser.cpp</title>
<polygon fill="#ffffff" stroke="transparent" points="-4,4 -4,-310 1072.7295,-310 1072.7295,4 -4,4"/>
<!-- Node0 -->
<g id="node1" class="node">
<title>Node0</title>
<polygon fill="#bfbfbf" stroke="#000000" points="551.3815,-285.5 551.3815,-305.5 721.8445,-305.5 721.8445,-285.5 551.3815,-285.5"/>
<text text-anchor="middle" x="636.613" y="-292.5" font-family="Helvetica,sans-Serif" font-size="10.00" fill="#000000">CommunicationProtocolParser.cpp</text>
</g>
<!-- Node1 -->
<g id="node2" class="node">
<title>Node1</title>
<g id="a_node2"><a xlink:href="CommunicationProtocolParser_8h.html" target="_top" xlink:title="CommunicationProtocolParser.h">
<polygon fill="#ffffff" stroke="#000000" points="193.661,-228.5 193.661,-248.5 353.565,-248.5 353.565,-228.5 193.661,-228.5"/>
<text text-anchor="middle" x="273.613" y="-235.5" font-family="Helvetica,sans-Serif" font-size="10.00" fill="#000000">CommunicationProtocolParser.h</text>
</a>
</g>
</g>
<!-- Node0&#45;&gt;Node1 -->
<g id="edge1" class="edge">
<title>Node0&#45;&gt;Node1</title>
<path fill="none" stroke="#191970" d="M572.5515,-285.4408C509.5356,-275.5457 413.4207,-260.4533 347.2792,-250.0674"/>
<polygon fill="#191970" stroke="#191970" points="347.7605,-246.6002 337.3386,-248.5065 346.6746,-253.5155 347.7605,-246.6002"/>
</g>
<!-- Node14 -->
<g id="node15" class="node">
<title>Node14</title>
<polygon fill="#ffffff" stroke="#bfbfbf" points="612.2215,-228.5 612.2215,-248.5 661.0045,-248.5 661.0045,-228.5 612.2215,-228.5"/>
<text text-anchor="middle" x="636.613" y="-235.5" font-family="Helvetica,sans-Serif" font-size="10.00" fill="#000000">string.h</text>
</g>
<!-- Node0&#45;&gt;Node14 -->
<g id="edge16" class="edge">
<title>Node0&#45;&gt;Node14</title>
<path fill="none" stroke="#191970" d="M636.613,-285.3095C636.613,-277.9335 636.613,-267.72 636.613,-258.715"/>
<polygon fill="#191970" stroke="#191970" points="640.1131,-258.6022 636.613,-248.6022 633.1131,-258.6023 640.1131,-258.6022"/>
</g>
<!-- Node15 -->
<g id="node16" class="node">
<title>Node15</title>
<g id="a_node16"><a xlink:href="Input_8h.html" target="_top" xlink:title="Input.h">
<polygon fill="#ffffff" stroke="#000000" points="446.3265,-228.5 446.3265,-248.5 492.8995,-248.5 492.8995,-228.5 446.3265,-228.5"/>
<text text-anchor="middle" x="469.613" y="-235.5" font-family="Helvetica,sans-Serif" font-size="10.00" fill="#000000">Input.h</text>
</a>
</g>
</g>
<!-- Node0&#45;&gt;Node15 -->
<g id="edge17" class="edge">
<title>Node0&#45;&gt;Node15</title>
<path fill="none" stroke="#191970" d="M607.1412,-285.4408C577.949,-275.4769 533.317,-260.2433 502.8712,-249.8516"/>
<polygon fill="#191970" stroke="#191970" points="503.7272,-246.4456 493.1327,-246.5277 501.4661,-253.0703 503.7272,-246.4456"/>
</g>
<!-- Node17 -->
<g id="node18" class="node">
<title>Node17</title>
<g id="a_node18"><a xlink:href="Output_8h.html" target="_top" xlink:title="Output.h">
<polygon fill="#ffffff" stroke="#000000" points="374.437,-228.5 374.437,-248.5 428.789,-248.5 428.789,-228.5 374.437,-228.5"/>
<text text-anchor="middle" x="401.613" y="-235.5" font-family="Helvetica,sans-Serif" font-size="10.00" fill="#000000">Output.h</text>
</a>
</g>
</g>
<!-- Node0&#45;&gt;Node17 -->
<g id="edge21" class="edge">
<title>Node0&#45;&gt;Node17</title>
<path fill="none" stroke="#191970" d="M590.5956,-285.4908C552.3616,-277.0073 496.3187,-264.1882 439.0382,-249.2866"/>
<polygon fill="#191970" stroke="#191970" points="439.6483,-245.8284 429.0877,-246.6799 437.8743,-252.5999 439.6483,-245.8284"/>
</g>
<!-- Node18 -->
<g id="node19" class="node">
<title>Node18</title>
<g id="a_node19"><a xlink:href="ServoControl_8h.html" target="_top" xlink:title="ServoControl.h">
<polygon fill="#ffffff" stroke="#000000" points="511.2745,-228.5 511.2745,-248.5 593.9515,-248.5 593.9515,-228.5 511.2745,-228.5"/>
<text text-anchor="middle" x="552.613" y="-235.5" font-family="Helvetica,sans-Serif" font-size="10.00" fill="#000000">ServoControl.h</text>
</a>
</g>
</g>
<!-- Node0&#45;&gt;Node18 -->
<g id="edge23" class="edge">
<title>Node0&#45;&gt;Node18</title>
<path fill="none" stroke="#191970" d="M621.5955,-285.3095C608.9338,-276.7177 590.5983,-264.2758 576.013,-254.3786"/>
<polygon fill="#191970" stroke="#191970" points="577.7405,-251.3211 567.5005,-248.6022 573.81,-257.1135 577.7405,-251.3211"/>
</g>
<!-- Node22 -->
<g id="node23" class="node">
<title>Node22</title>
<g id="a_node23"><a xlink:href="InputList_8h.html" target="_top" xlink:title="InputList.h">
<polygon fill="#ffffff" stroke="#000000" points="678.548,-228.5 678.548,-248.5 740.678,-248.5 740.678,-228.5 678.548,-228.5"/>
<text text-anchor="middle" x="709.613" y="-235.5" font-family="Helvetica,sans-Serif" font-size="10.00" fill="#000000">InputList.h</text>
</a>
</g>
</g>
<!-- Node0&#45;&gt;Node22 -->
<g id="edge28" class="edge">
<title>Node0&#45;&gt;Node22</title>
<path fill="none" stroke="#191970" d="M649.6639,-285.3095C660.46,-276.8798 676.0024,-264.7439 688.5563,-254.9415"/>
<polygon fill="#191970" stroke="#191970" points="690.9472,-257.5153 696.6751,-248.6022 686.6391,-251.998 690.9472,-257.5153"/>
</g>
<!-- Node23 -->
<g id="node24" class="node">
<title>Node23</title>
<g id="a_node24"><a xlink:href="OutputList_8h.html" target="_top" xlink:title="OutputList.h">
<polygon fill="#ffffff" stroke="#000000" points="758.6585,-228.5 758.6585,-248.5 828.5675,-248.5 828.5675,-228.5 758.6585,-228.5"/>
<text text-anchor="middle" x="793.613" y="-235.5" font-family="Helvetica,sans-Serif" font-size="10.00" fill="#000000">OutputList.h</text>
</a>
</g>
</g>
<!-- Node0&#45;&gt;Node23 -->
<g id="edge29" class="edge">
<title>Node0&#45;&gt;Node23</title>
<path fill="none" stroke="#191970" d="M664.32,-285.4408C689.9125,-276.1492 728.1275,-262.275 756.379,-252.0181"/>
<polygon fill="#191970" stroke="#191970" points="757.7141,-255.257 765.9193,-248.5544 755.3252,-248.6772 757.7141,-255.257"/>
</g>
<!-- Node24 -->
<g id="node25" class="node">
<title>Node24</title>
<g id="a_node25"><a xlink:href="ServoList_8h.html" target="_top" xlink:title="ServoList.h">
<polygon fill="#ffffff" stroke="#000000" points="846.6075,-228.5 846.6075,-248.5 912.6185,-248.5 912.6185,-228.5 846.6075,-228.5"/>
<text text-anchor="middle" x="879.613" y="-235.5" font-family="Helvetica,sans-Serif" font-size="10.00" fill="#000000">ServoList.h</text>
</a>
</g>
</g>
<!-- Node0&#45;&gt;Node24 -->
<g id="edge30" class="edge">
<title>Node0&#45;&gt;Node24</title>
<path fill="none" stroke="#191970" d="M680.9759,-285.4731C719.5896,-276.6926 777.3236,-263.4373 836.2977,-249.2911"/>
<polygon fill="#191970" stroke="#191970" points="837.2508,-252.6618 846.1554,-246.9209 835.6143,-245.8557 837.2508,-252.6618"/>
</g>
<!-- Node25 -->
<g id="node26" class="node">
<title>Node25</title>
<g id="a_node26"><a xlink:href="AnalogToDigitalController_8h.html" target="_top" xlink:title="AnalogToDigitalController.h">
<polygon fill="#ffffff" stroke="#000000" points="930.4965,-228.5 930.4965,-248.5 1068.7295,-248.5 1068.7295,-228.5 930.4965,-228.5"/>
<text text-anchor="middle" x="999.613" y="-235.5" font-family="Helvetica,sans-Serif" font-size="10.00" fill="#000000">AnalogToDigitalController.h</text>
</a>
</g>
</g>
<!-- Node0&#45;&gt;Node25 -->
<g id="edge31" class="edge">
<title>Node0&#45;&gt;Node25</title>
<path fill="none" stroke="#191970" d="M700.6745,-285.4408C763.6904,-275.5457 859.8053,-260.4533 925.9468,-250.0674"/>
<polygon fill="#191970" stroke="#191970" points="926.5514,-253.5155 935.8874,-248.5065 925.4655,-246.6002 926.5514,-253.5155"/>
</g>
<!-- Node2 -->
<g id="node3" class="node">
<title>Node2</title>
<g id="a_node3"><a xlink:href="BoeingSurfaceVehicleControl_8h.html" target="_top" xlink:title="BoeingSurfaceVehicleControl.h">
<polygon fill="#ffffff" stroke="#000000" points="37.1515,-171.5 37.1515,-191.5 192.0745,-191.5 192.0745,-171.5 37.1515,-171.5"/>
<text text-anchor="middle" x="114.613" y="-178.5" font-family="Helvetica,sans-Serif" font-size="10.00" fill="#000000">BoeingSurfaceVehicleControl.h</text>
</a>
</g>
</g>
<!-- Node1&#45;&gt;Node2 -->
<g id="edge2" class="edge">
<title>Node1&#45;&gt;Node2</title>
<path fill="none" stroke="#191970" d="M245.553,-228.4408C219.6345,-219.1492 180.9327,-205.275 152.3213,-195.0181"/>
<polygon fill="#191970" stroke="#191970" points="153.254,-191.6344 142.6595,-191.5544 150.8917,-198.2238 153.254,-191.6344"/>
</g>
<!-- Node10 -->
<g id="node11" class="node">
<title>Node10</title>
<g id="a_node11"><a xlink:href="LinearConverter_8h.html" target="_top" xlink:title="LinearConverter.h">
<polygon fill="#ffffff" stroke="#000000" points="410.606,-114.5 410.606,-134.5 506.62,-134.5 506.62,-114.5 410.606,-114.5"/>
<text text-anchor="middle" x="458.613" y="-121.5" font-family="Helvetica,sans-Serif" font-size="10.00" fill="#000000">LinearConverter.h</text>
</a>
</g>
</g>
<!-- Node1&#45;&gt;Node10 -->
<g id="edge11" class="edge">
<title>Node1&#45;&gt;Node10</title>
<path fill="none" stroke="#191970" d="M287.2444,-228.3851C305.8835,-214.7243 340.5583,-189.912 371.613,-171 390.3725,-159.5757 412.1709,-147.9275 429.2552,-139.1471"/>
<polygon fill="#191970" stroke="#191970" points="430.8908,-142.2419 438.2122,-134.5837 427.7131,-136.0047 430.8908,-142.2419"/>
</g>
<!-- Node13 -->
<g id="node14" class="node">
<title>Node13</title>
<g id="a_node14"><a xlink:href="BluetoothDefinitions_8h.html" target="_top" xlink:title="BluetoothDefinitions.h">
<polygon fill="#ffffff" stroke="#000000" points="210.9885,-171.5 210.9885,-191.5 324.2375,-191.5 324.2375,-171.5 210.9885,-171.5"/>
<text text-anchor="middle" x="267.613" y="-178.5" font-family="Helvetica,sans-Serif" font-size="10.00" fill="#000000">BluetoothDefinitions.h</text>
</a>
</g>
</g>
<!-- Node1&#45;&gt;Node13 -->
<g id="edge14" class="edge">
<title>Node1&#45;&gt;Node13</title>
<path fill="none" stroke="#191970" d="M272.5403,-228.3095C271.7639,-220.9335 270.6888,-210.72 269.7409,-201.715"/>
<polygon fill="#191970" stroke="#191970" points="273.2041,-201.1809 268.6764,-191.6022 266.2426,-201.9137 273.2041,-201.1809"/>
</g>
<!-- Node3 -->
<g id="node4" class="node">
<title>Node3</title>
<polygon fill="#ffffff" stroke="#bfbfbf" points="0,-114.5 0,-134.5 43.226,-134.5 43.226,-114.5 0,-114.5"/>
<text text-anchor="middle" x="21.613" y="-121.5" font-family="Helvetica,sans-Serif" font-size="10.00" fill="#000000">vector</text>
</g>
<!-- Node2&#45;&gt;Node3 -->
<g id="edge3" class="edge">
<title>Node2&#45;&gt;Node3</title>
<path fill="none" stroke="#191970" d="M97.9865,-171.3095C83.8359,-162.6366 63.2846,-150.0407 47.0643,-140.0992"/>
<polygon fill="#191970" stroke="#191970" points="48.4506,-136.8438 38.0956,-134.6022 44.7926,-142.812 48.4506,-136.8438"/>
</g>
<!-- Node4 -->
<g id="node5" class="node">
<title>Node4</title>
<g id="a_node5"><a xlink:href="BluetoothInterface_8h.html" target="_top" xlink:title="BluetoothInterface.h">
<polygon fill="#ffffff" stroke="#000000" points="60.8725,-114.5 60.8725,-134.5 166.3535,-134.5 166.3535,-114.5 60.8725,-114.5"/>
<text text-anchor="middle" x="113.613" y="-121.5" font-family="Helvetica,sans-Serif" font-size="10.00" fill="#000000">BluetoothInterface.h</text>
</a>
</g>
</g>
<!-- Node2&#45;&gt;Node4 -->
<g id="edge4" class="edge">
<title>Node2&#45;&gt;Node4</title>
<path fill="none" stroke="#191970" d="M114.4342,-171.3095C114.3048,-163.9335 114.1256,-153.72 113.9676,-144.715"/>
<polygon fill="#191970" stroke="#191970" points="117.4652,-144.5393 113.7902,-134.6022 110.4663,-144.6621 117.4652,-144.5393"/>
</g>
<!-- Node8 -->
<g id="node9" class="node">
<title>Node8</title>
<g id="a_node9"><a xlink:href="UserLED_8h.html" target="_top" xlink:title="UserLED.h">
<polygon fill="#ffffff" stroke="#000000" points="184.167,-114.5 184.167,-134.5 249.059,-134.5 249.059,-114.5 184.167,-114.5"/>
<text text-anchor="middle" x="216.613" y="-121.5" font-family="Helvetica,sans-Serif" font-size="10.00" fill="#000000">UserLED.h</text>
</a>
</g>
</g>
<!-- Node2&#45;&gt;Node8 -->
<g id="edge8" class="edge">
<title>Node2&#45;&gt;Node8</title>
<path fill="none" stroke="#191970" d="M132.8486,-171.3095C148.6586,-162.4745 171.7537,-149.5684 189.6912,-139.5445"/>
<polygon fill="#191970" stroke="#191970" points="191.5133,-142.5358 198.5353,-134.6022 188.0985,-136.4252 191.5133,-142.5358"/>
</g>
<!-- Node5 -->
<g id="node6" class="node">
<title>Node5</title>
<g id="a_node6"><a xlink:href="BluetoothManager_8h.html" target="_top" xlink:title="BluetoothManager.h">
<polygon fill="#ffffff" stroke="#000000" points="82.597,-57.5 82.597,-77.5 188.629,-77.5 188.629,-57.5 82.597,-57.5"/>
<text text-anchor="middle" x="135.613" y="-64.5" font-family="Helvetica,sans-Serif" font-size="10.00" fill="#000000">BluetoothManager.h</text>
</a>
</g>
</g>
<!-- Node4&#45;&gt;Node5 -->
<g id="edge5" class="edge">
<title>Node4&#45;&gt;Node5</title>
<path fill="none" stroke="#191970" d="M117.5462,-114.3095C120.4556,-106.7714 124.5089,-96.2696 128.0392,-87.123"/>
<polygon fill="#191970" stroke="#191970" points="131.3783,-88.1918 131.7139,-77.6022 124.8478,-85.6712 131.3783,-88.1918"/>
</g>
<!-- Node6 -->
<g id="node7" class="node">
<title>Node6</title>
<polygon fill="#ffffff" stroke="#bfbfbf" points="237.3905,-.5 237.3905,-20.5 277.8355,-20.5 277.8355,-.5 237.3905,-.5"/>
<text text-anchor="middle" x="257.613" y="-7.5" font-family="Helvetica,sans-Serif" font-size="10.00" fill="#000000">string</text>
</g>
<!-- Node5&#45;&gt;Node6 -->
<g id="edge6" class="edge">
<title>Node5&#45;&gt;Node6</title>
<path fill="none" stroke="#191970" d="M157.1433,-57.4408C176.8073,-48.2535 206.0611,-34.5857 227.9378,-24.3647"/>
<polygon fill="#191970" stroke="#191970" points="229.5318,-27.4831 237.1102,-20.0792 226.5687,-21.1412 229.5318,-27.4831"/>
</g>
<!-- Node7 -->
<g id="node8" class="node">
<title>Node7</title>
<polygon fill="#ffffff" stroke="#bfbfbf" points="114.001,-.5 114.001,-20.5 157.225,-20.5 157.225,-.5 114.001,-.5"/>
<text text-anchor="middle" x="135.613" y="-7.5" font-family="Helvetica,sans-Serif" font-size="10.00" fill="#000000">time.h</text>
</g>
<!-- Node5&#45;&gt;Node7 -->
<g id="edge7" class="edge">
<title>Node5&#45;&gt;Node7</title>
<path fill="none" stroke="#191970" d="M135.613,-57.3095C135.613,-49.9335 135.613,-39.72 135.613,-30.715"/>
<polygon fill="#191970" stroke="#191970" points="139.1131,-30.6022 135.613,-20.6022 132.1131,-30.6023 139.1131,-30.6022"/>
</g>
<!-- Node8&#45;&gt;Node6 -->
<g id="edge9" class="edge">
<title>Node8&#45;&gt;Node6</title>
<path fill="none" stroke="#191970" d="M220.2515,-114.3833C227.0119,-95.586 241.622,-54.9627 250.4359,-30.4559"/>
<polygon fill="#191970" stroke="#191970" points="253.8329,-31.3524 253.9237,-20.7579 247.2459,-28.9834 253.8329,-31.3524"/>
</g>
<!-- Node9 -->
<g id="node10" class="node">
<title>Node9</title>
<polygon fill="#ffffff" stroke="#bfbfbf" points="304.946,-57.5 304.946,-77.5 354.28,-77.5 354.28,-57.5 304.946,-57.5"/>
<text text-anchor="middle" x="329.613" y="-64.5" font-family="Helvetica,sans-Serif" font-size="10.00" fill="#000000">fstream</text>
</g>
<!-- Node8&#45;&gt;Node9 -->
<g id="edge10" class="edge">
<title>Node8&#45;&gt;Node9</title>
<path fill="none" stroke="#191970" d="M236.555,-114.4408C254.2769,-105.5014 280.4081,-92.3202 300.4718,-82.1996"/>
<polygon fill="#191970" stroke="#191970" points="302.1381,-85.2791 309.4902,-77.6504 298.9855,-79.0292 302.1381,-85.2791"/>
</g>
<!-- Node11 -->
<g id="node12" class="node">
<title>Node11</title>
<g id="a_node12"><a xlink:href="Range_8h.html" target="_top" xlink:title="Range.h">
<polygon fill="#ffffff" stroke="#000000" points="420.7165,-57.5 420.7165,-77.5 474.5095,-77.5 474.5095,-57.5 420.7165,-57.5"/>
<text text-anchor="middle" x="447.613" y="-64.5" font-family="Helvetica,sans-Serif" font-size="10.00" fill="#000000">Range.h</text>
</a>
</g>
</g>
<!-- Node10&#45;&gt;Node11 -->
<g id="edge12" class="edge">
<title>Node10&#45;&gt;Node11</title>
<path fill="none" stroke="#191970" d="M456.6464,-114.3095C455.223,-106.9335 453.2519,-96.72 451.5141,-87.715"/>
<polygon fill="#191970" stroke="#191970" points="454.8941,-86.7578 449.5626,-77.6022 448.0209,-88.0843 454.8941,-86.7578"/>
</g>
<!-- Node12 -->
<g id="node13" class="node">
<title>Node12</title>
<polygon fill="#ffffff" stroke="#bfbfbf" points="492.886,-57.5 492.886,-77.5 538.34,-77.5 538.34,-57.5 492.886,-57.5"/>
<text text-anchor="middle" x="515.613" y="-64.5" font-family="Helvetica,sans-Serif" font-size="10.00" fill="#000000">stdio.h</text>
</g>
<!-- Node10&#45;&gt;Node12 -->
<g id="edge13" class="edge">
<title>Node10&#45;&gt;Node12</title>
<path fill="none" stroke="#191970" d="M468.8035,-114.3095C476.9901,-106.1229 488.672,-94.441 498.3175,-84.7955"/>
<polygon fill="#191970" stroke="#191970" points="500.9146,-87.1482 505.5108,-77.6022 495.9648,-82.1984 500.9146,-87.1482"/>
</g>
<!-- Node13&#45;&gt;Node6 -->
<g id="edge15" class="edge">
<title>Node13&#45;&gt;Node6</title>
<path fill="none" stroke="#191970" d="M267.0174,-171.3153C265.4094,-143.8178 260.9566,-67.6748 258.8059,-30.8993"/>
<polygon fill="#191970" stroke="#191970" points="262.296,-30.6261 258.2181,-20.8476 255.308,-31.0349 262.296,-30.6261"/>
</g>
<!-- Node16 -->
<g id="node17" class="node">
<title>Node16</title>
<g id="a_node17"><a xlink:href="IOBase_8h.html" target="_top" xlink:title="IOBase.h">
<polygon fill="#ffffff" stroke="#000000" points="380.7715,-171.5 380.7715,-191.5 438.4545,-191.5 438.4545,-171.5 380.7715,-171.5"/>
<text text-anchor="middle" x="409.613" y="-178.5" font-family="Helvetica,sans-Serif" font-size="10.00" fill="#000000">IOBase.h</text>
</a>
</g>
</g>
<!-- Node15&#45;&gt;Node16 -->
<g id="edge18" class="edge">
<title>Node15&#45;&gt;Node16</title>
<path fill="none" stroke="#191970" d="M458.8862,-228.3095C450.1834,-220.0419 437.7281,-208.2093 427.5178,-198.5096"/>
<polygon fill="#191970" stroke="#191970" points="429.9076,-195.9523 420.2469,-191.6022 425.0863,-201.0273 429.9076,-195.9523"/>
</g>
<!-- Node16&#45;&gt;Node6 -->
<g id="edge19" class="edge">
<title>Node16&#45;&gt;Node6</title>
<path fill="none" stroke="#191970" d="M406.9999,-171.4702C399.9498,-145.0459 379.9681,-74.358 363.613,-57 343.3254,-35.4684 311.3176,-23.3234 287.7781,-16.8898"/>
<polygon fill="#191970" stroke="#191970" points="288.5032,-13.4629 277.9496,-14.3968 286.7821,-20.248 288.5032,-13.4629"/>
</g>
<!-- Node16&#45;&gt;Node9 -->
<g id="edge20" class="edge">
<title>Node16&#45;&gt;Node9</title>
<path fill="none" stroke="#191970" d="M399.5389,-171.2893C390.8256,-162.1859 378.162,-148.2835 368.613,-135 357.552,-119.6132 346.9239,-100.8657 339.564,-87.0365"/>
<polygon fill="#191970" stroke="#191970" points="342.5532,-85.1994 334.8229,-77.9543 336.3478,-88.4388 342.5532,-85.1994"/>
</g>
<!-- Node17&#45;&gt;Node16 -->
<g id="edge22" class="edge">
<title>Node17&#45;&gt;Node16</title>
<path fill="none" stroke="#191970" d="M403.0432,-228.3095C404.0785,-220.9335 405.512,-210.72 406.7758,-201.715"/>
<polygon fill="#191970" stroke="#191970" points="410.2712,-201.9917 408.1951,-191.6022 403.3391,-201.0187 410.2712,-201.9917"/>
</g>
<!-- Node19 -->
<g id="node20" class="node">
<title>Node19</title>
<g id="a_node20"><a xlink:href="MotorControl_8h.html" target="_top" xlink:title="MotorControl.h">
<polygon fill="#ffffff" stroke="#000000" points="511.555,-171.5 511.555,-191.5 593.671,-191.5 593.671,-171.5 511.555,-171.5"/>
<text text-anchor="middle" x="552.613" y="-178.5" font-family="Helvetica,sans-Serif" font-size="10.00" fill="#000000">MotorControl.h</text>
</a>
</g>
</g>
<!-- Node18&#45;&gt;Node19 -->
<g id="edge24" class="edge">
<title>Node18&#45;&gt;Node19</title>
<path fill="none" stroke="#191970" d="M552.613,-228.3095C552.613,-220.9335 552.613,-210.72 552.613,-201.715"/>
<polygon fill="#191970" stroke="#191970" points="556.1131,-201.6022 552.613,-191.6022 549.1131,-201.6023 556.1131,-201.6022"/>
</g>
<!-- Node19&#45;&gt;Node10 -->
<g id="edge27" class="edge">
<title>Node19&#45;&gt;Node10</title>
<path fill="none" stroke="#191970" d="M535.8077,-171.3095C521.3713,-162.5556 500.3439,-149.8049 483.8795,-139.8211"/>
<polygon fill="#191970" stroke="#191970" points="485.6384,-136.7945 475.2728,-134.6022 482.0088,-142.7801 485.6384,-136.7945"/>
</g>
<!-- Node20 -->
<g id="node21" class="node">
<title>Node20</title>
<polygon fill="#ffffff" stroke="#bfbfbf" points="600.4965,-114.5 600.4965,-134.5 648.7295,-134.5 648.7295,-114.5 600.4965,-114.5"/>
<text text-anchor="middle" x="624.613" y="-121.5" font-family="Helvetica,sans-Serif" font-size="10.00" fill="#000000">stdint.h</text>
</g>
<!-- Node19&#45;&gt;Node20 -->
<g id="edge25" class="edge">
<title>Node19&#45;&gt;Node20</title>
<path fill="none" stroke="#191970" d="M565.4852,-171.3095C576.1333,-162.8798 591.4628,-150.7439 603.8448,-140.9415"/>
<polygon fill="#191970" stroke="#191970" points="606.1843,-143.5535 611.8523,-134.6022 601.8393,-138.0651 606.1843,-143.5535"/>
</g>
<!-- Node21 -->
<g id="node22" class="node">
<title>Node21</title>
<polygon fill="#ffffff" stroke="#bfbfbf" points="524.4925,-114.5 524.4925,-134.5 582.7335,-134.5 582.7335,-114.5 524.4925,-114.5"/>
<text text-anchor="middle" x="553.613" y="-121.5" font-family="Helvetica,sans-Serif" font-size="10.00" fill="#000000">pthread.h</text>
</g>
<!-- Node19&#45;&gt;Node21 -->
<g id="edge26" class="edge">
<title>Node19&#45;&gt;Node21</title>
<path fill="none" stroke="#191970" d="M552.7918,-171.3095C552.9212,-163.9335 553.1004,-153.72 553.2584,-144.715"/>
<polygon fill="#191970" stroke="#191970" points="556.7597,-144.6621 553.4358,-134.6022 549.7608,-144.5393 556.7597,-144.6621"/>
</g>
</g>
</svg>
