<?xml version="1.0" encoding="UTF-8" standalone="no"?>
<!DOCTYPE svg PUBLIC "-//W3C//DTD SVG 1.1//EN"
 "http://www.w3.org/Graphics/SVG/1.1/DTD/svg11.dtd">
<!-- Generated by graphviz version 2.40.1 (20161225.0304)
 -->
<!-- Title: MainApplication Pages: 1 -->
<svg width="198pt" height="220pt"
 viewBox="0.00 0.00 198.00 220.00" xmlns="http://www.w3.org/2000/svg" xmlns:xlink="http://www.w3.org/1999/xlink">
<g id="graph0" class="graph" transform="scale(1 1) rotate(0) translate(4 216)">
<title>MainApplication</title>
<polygon fill="#ffffff" stroke="transparent" points="-4,4 -4,-216 194,-216 194,4 -4,4"/>
<g id="clust1" class="cluster">
<title>clusterdir_1b81b61ac01831e6061e0ad968e64f03</title>
<g id="a_clust1"><a xlink:href="dir_1b81b61ac01831e6061e0ad968e64f03.html" target="_top">
<polygon fill="#eeeeff" stroke="#000000" points="8,-8 8,-204 182,-204 182,-8 8,-8"/>
</a>
</g>
</g>
<!-- dir_1b81b61ac01831e6061e0ad968e64f03 -->
<g id="node1" class="node">
<title>dir_1b81b61ac01831e6061e0ad968e64f03</title>
<text text-anchor="middle" x="131" y="-175" font-family="Helvetica,sans-Serif" font-size="10.00" fill="#000000">MainApplication</text>
</g>
<!-- dir_987148c65bc53438ab99c2dd2af7d909 -->
<g id="node2" class="node">
<title>dir_987148c65bc53438ab99c2dd2af7d909</title>
<g id="a_node2"><a xlink:href="dir_987148c65bc53438ab99c2dd2af7d909.html" target="_top" xlink:title="BBBLibrary">
<polygon fill="#ffffff" stroke="#ff0000" points="95.0624,-52 28.9376,-52 28.9376,-16 95.0624,-16 95.0624,-52"/>
<text text-anchor="middle" x="62" y="-31" font-family="Helvetica,sans-Serif" font-size="10.00" fill="#000000">BBBLibrary</text>
</a>
</g>
</g>
<!-- dir_a54a9d1e3981ccde17cbf064713c5f47 -->
<g id="node3" class="node">
<title>dir_a54a9d1e3981ccde17cbf064713c5f47</title>
<g id="a_node3"><a xlink:href="dir_a54a9d1e3981ccde17cbf064713c5f47.html" target="_top" xlink:title="Headers">
<polygon fill="#ffffff" stroke="#ff0000" points="103,-124 49,-124 49,-88 103,-88 103,-124"/>
<text text-anchor="middle" x="76" y="-103" font-family="Helvetica,sans-Serif" font-size="10.00" fill="#000000">Headers</text>
</a>
</g>
</g>
<!-- dir_a54a9d1e3981ccde17cbf064713c5f47&#45;&gt;dir_987148c65bc53438ab99c2dd2af7d909 -->
<g id="edge1" class="edge">
<title>dir_a54a9d1e3981ccde17cbf064713c5f47&#45;&gt;dir_987148c65bc53438ab99c2dd2af7d909</title>
<path fill="none" stroke="#000000" d="M72.4672,-87.8314C70.9699,-80.131 69.1895,-70.9743 67.5255,-62.4166"/>
<polygon fill="#000000" stroke="#000000" points="70.9248,-61.5614 65.5804,-52.4133 64.0535,-62.8975 70.9248,-61.5614"/>
<g id="a_edge1&#45;headlabel"><a xlink:href="dir_000008_000001.html" target="_top" xlink:title="3">
<text text-anchor="middle" x="74.3979" y="-61.548" font-family="Helvetica,sans-Serif" font-size="10.00" fill="#000000">3</text>
</a>
</g>
</g>
<!-- dir_7edc4bcb12e6209d2b87ed142559dd16 -->
<g id="node4" class="node">
<title>dir_7edc4bcb12e6209d2b87ed142559dd16</title>
<g id="a_node4"><a xlink:href="dir_7edc4bcb12e6209d2b87ed142559dd16.html" target="_top" xlink:title="Sources">
<polygon fill="#ffffff" stroke="#ff0000" points="70,-196 16,-196 16,-160 70,-160 70,-196"/>
<text text-anchor="middle" x="43" y="-175" font-family="Helvetica,sans-Serif" font-size="10.00" fill="#000000">Sources</text>
</a>
</g>
</g>
<!-- dir_7edc4bcb12e6209d2b87ed142559dd16&#45;&gt;dir_987148c65bc53438ab99c2dd2af7d909 -->
<g id="edge3" class="edge">
<title>dir_7edc4bcb12e6209d2b87ed142559dd16&#45;&gt;dir_987148c65bc53438ab99c2dd2af7d909</title>
<path fill="none" stroke="#000000" d="M40.0222,-159.8794C37.5655,-141.5668 35.1915,-112.5474 40,-88 41.7344,-79.146 44.9276,-69.9119 48.3538,-61.6355"/>
<polygon fill="#000000" stroke="#000000" points="51.5764,-63.0018 52.4092,-52.4398 45.1716,-60.1772 51.5764,-63.0018"/>
<g id="a_edge3&#45;headlabel"><a xlink:href="dir_000006_000001.html" target="_top" xlink:title="10">
<text text-anchor="middle" x="52.7238" y="-64.4365" font-family="Helvetica,sans-Serif" font-size="10.00" fill="#000000">10</text>
</a>
</g>
</g>
<!-- dir_7edc4bcb12e6209d2b87ed142559dd16&#45;&gt;dir_a54a9d1e3981ccde17cbf064713c5f47 -->
<g id="edge2" class="edge">
<title>dir_7edc4bcb12e6209d2b87ed142559dd16&#45;&gt;dir_a54a9d1e3981ccde17cbf064713c5f47</title>
<path fill="none" stroke="#000000" d="M51.3273,-159.8314C54.973,-151.8771 59.3309,-142.369 63.3627,-133.5723"/>
<polygon fill="#000000" stroke="#000000" points="66.5757,-134.9622 67.5606,-124.4133 60.2123,-132.0456 66.5757,-134.9622"/>
<g id="a_edge2&#45;headlabel"><a xlink:href="dir_000006_000008.html" target="_top" xlink:title="9">
<text text-anchor="middle" x="67.6591" y="-136.4129" font-family="Helvetica,sans-Serif" font-size="10.00" fill="#000000">9</text>
</a>
</g>
</g>
</g>
</svg>
