<?xml version="1.0" encoding="UTF-8" standalone="no"?>
<!DOCTYPE svg PUBLIC "-//W3C//DTD SVG 1.1//EN"
 "http://www.w3.org/Graphics/SVG/1.1/DTD/svg11.dtd">
<!-- Generated by graphviz version 2.40.1 (20161225.0304)
 -->
<!-- Title: Sources Pages: 1 -->
<svg width="600pt" height="160pt"
 viewBox="0.00 0.00 600.00 160.00" xmlns="http://www.w3.org/2000/svg" xmlns:xlink="http://www.w3.org/1999/xlink">
<g id="graph0" class="graph" transform="scale(1 1) rotate(0) translate(4 156)">
<title>Sources</title>
<polygon fill="#ffffff" stroke="transparent" points="-4,4 -4,-156 596,-156 596,4 -4,4"/>
<g id="clust1" class="cluster">
<title>clusterdir_1b81b61ac01831e6061e0ad968e64f03</title>
<g id="a_clust1"><a xlink:href="dir_1b81b61ac01831e6061e0ad968e64f03.html" target="_top" xlink:title="MainApplication">
<polygon fill="#ddddee" stroke="#000000" points="8,-56 8,-144 584,-144 584,-56 8,-56"/>
<text text-anchor="middle" x="296" y="-131" font-family="Helvetica,sans-Serif" font-size="10.00" fill="#000000">MainApplication</text>
</a>
</g>
</g>
<g id="clust2" class="cluster">
<title>clusterdir_7edc4bcb12e6209d2b87ed142559dd16</title>
<g id="a_clust2"><a xlink:href="dir_7edc4bcb12e6209d2b87ed142559dd16.html" target="_top">
<polygon fill="#eeeeff" stroke="#000000" points="16,-64 16,-116 576,-116 576,-64 16,-64"/>
</a>
</g>
</g>
<!-- dir_7edc4bcb12e6209d2b87ed142559dd16 -->
<g id="node1" class="node">
<title>dir_7edc4bcb12e6209d2b87ed142559dd16</title>
<text text-anchor="middle" x="541" y="-87" font-family="Helvetica,sans-Serif" font-size="10.00" fill="#000000">Sources</text>
</g>
<!-- dir_e8a5e4ad2c79e00958e3fc8dbfdfd2dc -->
<g id="node2" class="node">
<title>dir_e8a5e4ad2c79e00958e3fc8dbfdfd2dc</title>
<g id="a_node2"><a xlink:href="dir_e8a5e4ad2c79e00958e3fc8dbfdfd2dc.html" target="_top" xlink:title="Bluetooth">
<polygon fill="#ffffff" stroke="#000000" points="496.2415,-108 437.7585,-108 437.7585,-72 496.2415,-72 496.2415,-108"/>
<text text-anchor="middle" x="467" y="-87" font-family="Helvetica,sans-Serif" font-size="10.00" fill="#000000">Bluetooth</text>
</a>
</g>
</g>
<!-- dir_a54a9d1e3981ccde17cbf064713c5f47 -->
<g id="node8" class="node">
<title>dir_a54a9d1e3981ccde17cbf064713c5f47</title>
<g id="a_node8"><a xlink:href="dir_a54a9d1e3981ccde17cbf064713c5f47.html" target="_top" xlink:title="Headers">
<polygon fill="#ffffff" stroke="#ff0000" points="278,-36 224,-36 224,0 278,0 278,-36"/>
<text text-anchor="middle" x="251" y="-15" font-family="Helvetica,sans-Serif" font-size="10.00" fill="#000000">Headers</text>
</a>
</g>
</g>
<!-- dir_e8a5e4ad2c79e00958e3fc8dbfdfd2dc&#45;&gt;dir_a54a9d1e3981ccde17cbf064713c5f47 -->
<g id="edge2" class="edge">
<title>dir_e8a5e4ad2c79e00958e3fc8dbfdfd2dc&#45;&gt;dir_a54a9d1e3981ccde17cbf064713c5f47</title>
<path fill="none" stroke="#000000" d="M450.657,-71.9781C444.4169,-66.0752 436.8921,-60.01 429,-56 384.0015,-33.1359 325.8582,-24.01 288.4924,-20.3797"/>
<polygon fill="#000000" stroke="#000000" points="288.3365,-16.8523 278.067,-19.4573 287.7196,-23.8251 288.3365,-16.8523"/>
<g id="a_edge2&#45;headlabel"><a xlink:href="dir_000002_000003.html" target="_top" xlink:title="6">
<text text-anchor="middle" x="292.1674" y="-11.3408" font-family="Helvetica,sans-Serif" font-size="10.00" fill="#000000">6</text>
</a>
</g>
</g>
<!-- dir_0276673a64573f5bdbf10069d50aa831 -->
<g id="node3" class="node">
<title>dir_0276673a64573f5bdbf10069d50aa831</title>
<g id="a_node3"><a xlink:href="dir_0276673a64573f5bdbf10069d50aa831.html" target="_top" xlink:title="ControlSoftware">
<polygon fill="#ffffff" stroke="#000000" points="419.6756,-108 332.3244,-108 332.3244,-72 419.6756,-72 419.6756,-108"/>
<text text-anchor="middle" x="376" y="-87" font-family="Helvetica,sans-Serif" font-size="10.00" fill="#000000">ControlSoftware</text>
</a>
</g>
</g>
<!-- dir_0276673a64573f5bdbf10069d50aa831&#45;&gt;dir_a54a9d1e3981ccde17cbf064713c5f47 -->
<g id="edge1" class="edge">
<title>dir_0276673a64573f5bdbf10069d50aa831&#45;&gt;dir_a54a9d1e3981ccde17cbf064713c5f47</title>
<path fill="none" stroke="#000000" d="M348.7665,-71.9048C340.5726,-66.6307 331.4989,-60.9569 323,-56 311.5357,-49.3136 298.7948,-42.4199 287.2562,-36.3705"/>
<polygon fill="#000000" stroke="#000000" points="288.7949,-33.2257 278.3076,-31.7201 285.567,-39.4371 288.7949,-33.2257"/>
<g id="a_edge1&#45;headlabel"><a xlink:href="dir_000005_000003.html" target="_top" xlink:title="10">
<text text-anchor="middle" x="293.2938" y="-29.3639" font-family="Helvetica,sans-Serif" font-size="10.00" fill="#000000">10</text>
</a>
</g>
</g>
<!-- dir_6128fcfee895fc4225f33af940001cbd -->
<g id="node4" class="node">
<title>dir_6128fcfee895fc4225f33af940001cbd</title>
<g id="a_node4"><a xlink:href="dir_6128fcfee895fc4225f33af940001cbd.html" target="_top" xlink:title="Core">
<polygon fill="#ffffff" stroke="#000000" points="314,-108 260,-108 260,-72 314,-72 314,-108"/>
<text text-anchor="middle" x="287" y="-87" font-family="Helvetica,sans-Serif" font-size="10.00" fill="#000000">Core</text>
</a>
</g>
</g>
<!-- dir_6128fcfee895fc4225f33af940001cbd&#45;&gt;dir_a54a9d1e3981ccde17cbf064713c5f47 -->
<g id="edge3" class="edge">
<title>dir_6128fcfee895fc4225f33af940001cbd&#45;&gt;dir_a54a9d1e3981ccde17cbf064713c5f47</title>
<path fill="none" stroke="#000000" d="M277.9157,-71.8314C273.9385,-63.8771 269.1845,-54.369 264.7861,-45.5723"/>
<polygon fill="#000000" stroke="#000000" points="267.8093,-43.7923 260.2066,-36.4133 261.5483,-46.9228 267.8093,-43.7923"/>
<g id="a_edge3&#45;headlabel"><a xlink:href="dir_000014_000003.html" target="_top" xlink:title="1">
<text text-anchor="middle" x="271.9563" y="-42.7377" font-family="Helvetica,sans-Serif" font-size="10.00" fill="#000000">1</text>
</a>
</g>
</g>
<!-- dir_1a2eb8c280f4fb4347a6ed2342e20462 -->
<g id="node5" class="node">
<title>dir_1a2eb8c280f4fb4347a6ed2342e20462</title>
<g id="a_node5"><a xlink:href="dir_1a2eb8c280f4fb4347a6ed2342e20462.html" target="_top" xlink:title="IO">
<polygon fill="#ffffff" stroke="#000000" points="242,-108 188,-108 188,-72 242,-72 242,-108"/>
<text text-anchor="middle" x="215" y="-87" font-family="Helvetica,sans-Serif" font-size="10.00" fill="#000000">IO</text>
</a>
</g>
</g>
<!-- dir_1a2eb8c280f4fb4347a6ed2342e20462&#45;&gt;dir_a54a9d1e3981ccde17cbf064713c5f47 -->
<g id="edge6" class="edge">
<title>dir_1a2eb8c280f4fb4347a6ed2342e20462&#45;&gt;dir_a54a9d1e3981ccde17cbf064713c5f47</title>
<path fill="none" stroke="#000000" d="M224.0843,-71.8314C228.0615,-63.8771 232.8155,-54.369 237.2139,-45.5723"/>
<polygon fill="#000000" stroke="#000000" points="240.4517,-46.9228 241.7934,-36.4133 234.1907,-43.7923 240.4517,-46.9228"/>
<g id="a_edge6&#45;headlabel"><a xlink:href="dir_000007_000003.html" target="_top" xlink:title="14">
<text text-anchor="middle" x="241.3837" y="-48.4077" font-family="Helvetica,sans-Serif" font-size="10.00" fill="#000000">14</text>
</a>
</g>
</g>
<!-- dir_42269834a0b0f2ea67bb47fa1e638c07 -->
<g id="node6" class="node">
<title>dir_42269834a0b0f2ea67bb47fa1e638c07</title>
<g id="a_node6"><a xlink:href="dir_42269834a0b0f2ea67bb47fa1e638c07.html" target="_top" xlink:title="MotorControl">
<polygon fill="#ffffff" stroke="#000000" points="169.7783,-108 96.2217,-108 96.2217,-72 169.7783,-72 169.7783,-108"/>
<text text-anchor="middle" x="133" y="-87" font-family="Helvetica,sans-Serif" font-size="10.00" fill="#000000">MotorControl</text>
</a>
</g>
</g>
<!-- dir_42269834a0b0f2ea67bb47fa1e638c07&#45;&gt;dir_a54a9d1e3981ccde17cbf064713c5f47 -->
<g id="edge4" class="edge">
<title>dir_42269834a0b0f2ea67bb47fa1e638c07&#45;&gt;dir_a54a9d1e3981ccde17cbf064713c5f47</title>
<path fill="none" stroke="#000000" d="M156.3956,-71.6509C163.5005,-66.3698 171.4325,-60.7557 179,-56 190.3314,-48.8789 203.1305,-41.827 214.7614,-35.7673"/>
<polygon fill="#000000" stroke="#000000" points="216.4874,-38.8156 223.7883,-31.1379 213.293,-32.587 216.4874,-38.8156"/>
<g id="a_edge4&#45;headlabel"><a xlink:href="dir_000012_000003.html" target="_top" xlink:title="4">
<text text-anchor="middle" x="214.5845" y="-39.9823" font-family="Helvetica,sans-Serif" font-size="10.00" fill="#000000">4</text>
</a>
</g>
</g>
<!-- dir_7378575ca4362717de5e28375c16fa48 -->
<g id="node7" class="node">
<title>dir_7378575ca4362717de5e28375c16fa48</title>
<g id="a_node7"><a xlink:href="dir_7378575ca4362717de5e28375c16fa48.html" target="_top" xlink:title="PRU">
<polygon fill="#ffffff" stroke="#000000" points="78,-108 24,-108 24,-72 78,-72 78,-108"/>
<text text-anchor="middle" x="51" y="-87" font-family="Helvetica,sans-Serif" font-size="10.00" fill="#000000">PRU</text>
</a>
</g>
</g>
<!-- dir_7378575ca4362717de5e28375c16fa48&#45;&gt;dir_a54a9d1e3981ccde17cbf064713c5f47 -->
<g id="edge5" class="edge">
<title>dir_7378575ca4362717de5e28375c16fa48&#45;&gt;dir_a54a9d1e3981ccde17cbf064713c5f47</title>
<path fill="none" stroke="#000000" d="M66.7278,-71.6831C72.5597,-65.8975 79.5754,-59.9818 87,-56 127.1477,-34.4689 179.2065,-25.0696 213.7868,-21.0108"/>
<polygon fill="#000000" stroke="#000000" points="214.359,-24.4694 223.925,-19.9151 213.6068,-17.5099 214.359,-24.4694"/>
<g id="a_edge5&#45;headlabel"><a xlink:href="dir_000010_000003.html" target="_top" xlink:title="2">
<text text-anchor="middle" x="211.0902" y="-24.6784" font-family="Helvetica,sans-Serif" font-size="10.00" fill="#000000">2</text>
</a>
</g>
</g>
</g>
</svg>
