<?xml version="1.0" encoding="UTF-8" standalone="no"?>
<!DOCTYPE svg PUBLIC "-//W3C//DTD SVG 1.1//EN"
 "http://www.w3.org/Graphics/SVG/1.1/DTD/svg11.dtd">
<!-- Generated by graphviz version 2.40.1 (20161225.0304)
 -->
<!-- Title: Sources Pages: 1 -->
<svg width="422pt" height="160pt"
 viewBox="0.00 0.00 422.00 160.00" xmlns="http://www.w3.org/2000/svg" xmlns:xlink="http://www.w3.org/1999/xlink">
<g id="graph0" class="graph" transform="scale(1 1) rotate(0) translate(4 156)">
<title>Sources</title>
<polygon fill="#ffffff" stroke="transparent" points="-4,4 -4,-156 418,-156 418,4 -4,4"/>
<g id="clust1" class="cluster">
<title>clusterdir_987148c65bc53438ab99c2dd2af7d909</title>
<g id="a_clust1"><a xlink:href="dir_987148c65bc53438ab99c2dd2af7d909.html" target="_top" xlink:title="BBBLibrary">
<polygon fill="#ddddee" stroke="#000000" points="8,-56 8,-144 406,-144 406,-56 8,-56"/>
<text text-anchor="middle" x="207" y="-131" font-family="Helvetica,sans-Serif" font-size="10.00" fill="#000000">BBBLibrary</text>
</a>
</g>
</g>
<g id="clust2" class="cluster">
<title>clusterdir_a6c9ded3a8c32d4dd70d8dd506687d1a</title>
<g id="a_clust2"><a xlink:href="dir_a6c9ded3a8c32d4dd70d8dd506687d1a.html" target="_top">
<polygon fill="#eeeeff" stroke="#000000" points="16,-64 16,-116 398,-116 398,-64 16,-64"/>
</a>
</g>
</g>
<!-- dir_a6c9ded3a8c32d4dd70d8dd506687d1a -->
<g id="node1" class="node">
<title>dir_a6c9ded3a8c32d4dd70d8dd506687d1a</title>
<text text-anchor="middle" x="363" y="-87" font-family="Helvetica,sans-Serif" font-size="10.00" fill="#000000">Sources</text>
</g>
<!-- dir_15cc412ee401f5411d3bd073c95ecc82 -->
<g id="node2" class="node">
<title>dir_15cc412ee401f5411d3bd073c95ecc82</title>
<g id="a_node2"><a xlink:href="dir_15cc412ee401f5411d3bd073c95ecc82.html" target="_top" xlink:title="Bluetooth">
<polygon fill="#ffffff" stroke="#000000" points="318.2415,-108 259.7585,-108 259.7585,-72 318.2415,-72 318.2415,-108"/>
<text text-anchor="middle" x="289" y="-87" font-family="Helvetica,sans-Serif" font-size="10.00" fill="#000000">Bluetooth</text>
</a>
</g>
</g>
<!-- dir_586f5b2a9f6dd58bc54f17b6475358e1 -->
<g id="node6" class="node">
<title>dir_586f5b2a9f6dd58bc54f17b6475358e1</title>
<g id="a_node6"><a xlink:href="dir_586f5b2a9f6dd58bc54f17b6475358e1.html" target="_top" xlink:title="Headers">
<polygon fill="#ffffff" stroke="#ff0000" points="201,-36 147,-36 147,0 201,0 201,-36"/>
<text text-anchor="middle" x="174" y="-15" font-family="Helvetica,sans-Serif" font-size="10.00" fill="#000000">Headers</text>
</a>
</g>
</g>
<!-- dir_15cc412ee401f5411d3bd073c95ecc82&#45;&gt;dir_586f5b2a9f6dd58bc54f17b6475358e1 -->
<g id="edge3" class="edge">
<title>dir_15cc412ee401f5411d3bd073c95ecc82&#45;&gt;dir_586f5b2a9f6dd58bc54f17b6475358e1</title>
<path fill="none" stroke="#000000" d="M270.8913,-71.9823C264.8501,-66.48 257.8952,-60.6584 251,-56 238.3764,-47.4714 223.5607,-39.6963 210.3148,-33.4322"/>
<polygon fill="#000000" stroke="#000000" points="211.5486,-30.1473 201.0009,-29.1489 208.6239,-36.507 211.5486,-30.1473"/>
<g id="a_edge3&#45;headlabel"><a xlink:href="dir_000009_000002.html" target="_top" xlink:title="3">
<text text-anchor="middle" x="216.0007" y="-26.0696" font-family="Helvetica,sans-Serif" font-size="10.00" fill="#000000">3</text>
</a>
</g>
</g>
<!-- dir_709c3b1c8cd0802944b462eaf9e0a691 -->
<g id="node3" class="node">
<title>dir_709c3b1c8cd0802944b462eaf9e0a691</title>
<g id="a_node3"><a xlink:href="dir_709c3b1c8cd0802944b462eaf9e0a691.html" target="_top" xlink:title="IO">
<polygon fill="#ffffff" stroke="#000000" points="242,-108 188,-108 188,-72 242,-72 242,-108"/>
<text text-anchor="middle" x="215" y="-87" font-family="Helvetica,sans-Serif" font-size="10.00" fill="#000000">IO</text>
</a>
</g>
</g>
<!-- dir_709c3b1c8cd0802944b462eaf9e0a691&#45;&gt;dir_586f5b2a9f6dd58bc54f17b6475358e1 -->
<g id="edge1" class="edge">
<title>dir_709c3b1c8cd0802944b462eaf9e0a691&#45;&gt;dir_586f5b2a9f6dd58bc54f17b6475358e1</title>
<path fill="none" stroke="#000000" d="M204.654,-71.8314C200.0763,-63.7925 194.5948,-54.1666 189.5412,-45.2918"/>
<polygon fill="#000000" stroke="#000000" points="192.4752,-43.3712 184.4853,-36.4133 186.3923,-46.8351 192.4752,-43.3712"/>
<g id="a_edge1&#45;headlabel"><a xlink:href="dir_000005_000002.html" target="_top" xlink:title="8">
<text text-anchor="middle" x="196.7212" y="-42.0899" font-family="Helvetica,sans-Serif" font-size="10.00" fill="#000000">8</text>
</a>
</g>
</g>
<!-- dir_bcf65df53ac205153f2de2859652c7e7 -->
<g id="node4" class="node">
<title>dir_bcf65df53ac205153f2de2859652c7e7</title>
<g id="a_node4"><a xlink:href="dir_bcf65df53ac205153f2de2859652c7e7.html" target="_top" xlink:title="MotorControl">
<polygon fill="#ffffff" stroke="#000000" points="169.7783,-108 96.2217,-108 96.2217,-72 169.7783,-72 169.7783,-108"/>
<text text-anchor="middle" x="133" y="-87" font-family="Helvetica,sans-Serif" font-size="10.00" fill="#000000">MotorControl</text>
</a>
</g>
</g>
<!-- dir_bcf65df53ac205153f2de2859652c7e7&#45;&gt;dir_586f5b2a9f6dd58bc54f17b6475358e1 -->
<g id="edge4" class="edge">
<title>dir_bcf65df53ac205153f2de2859652c7e7&#45;&gt;dir_586f5b2a9f6dd58bc54f17b6475358e1</title>
<path fill="none" stroke="#000000" d="M143.346,-71.8314C147.9237,-63.7925 153.4052,-54.1666 158.4588,-45.2918"/>
<polygon fill="#000000" stroke="#000000" points="161.6077,-46.8351 163.5147,-36.4133 155.5248,-43.3712 161.6077,-46.8351"/>
<g id="a_edge4&#45;headlabel"><a xlink:href="dir_000017_000002.html" target="_top" xlink:title="4">
<text text-anchor="middle" x="162.2963" y="-48.3637" font-family="Helvetica,sans-Serif" font-size="10.00" fill="#000000">4</text>
</a>
</g>
</g>
<!-- dir_ebbe56053340aadf35d11b8675685a89 -->
<g id="node5" class="node">
<title>dir_ebbe56053340aadf35d11b8675685a89</title>
<g id="a_node5"><a xlink:href="dir_ebbe56053340aadf35d11b8675685a89.html" target="_top" xlink:title="PRU">
<polygon fill="#ffffff" stroke="#000000" points="78,-108 24,-108 24,-72 78,-72 78,-108"/>
<text text-anchor="middle" x="51" y="-87" font-family="Helvetica,sans-Serif" font-size="10.00" fill="#000000">PRU</text>
</a>
</g>
</g>
<!-- dir_ebbe56053340aadf35d11b8675685a89&#45;&gt;dir_586f5b2a9f6dd58bc54f17b6475358e1 -->
<g id="edge2" class="edge">
<title>dir_ebbe56053340aadf35d11b8675685a89&#45;&gt;dir_586f5b2a9f6dd58bc54f17b6475358e1</title>
<path fill="none" stroke="#000000" d="M67.9058,-71.7412C73.6156,-66.2259 80.2597,-60.4578 87,-56 102.4831,-45.7601 121.1816,-37.1752 137.2696,-30.7711"/>
<polygon fill="#000000" stroke="#000000" points="138.819,-33.9253 146.8972,-27.0702 136.3073,-27.3914 138.819,-33.9253"/>
<g id="a_edge2&#45;headlabel"><a xlink:href="dir_000015_000002.html" target="_top" xlink:title="2">
<text text-anchor="middle" x="136.4825" y="-34.8652" font-family="Helvetica,sans-Serif" font-size="10.00" fill="#000000">2</text>
</a>
</g>
</g>
</g>
</svg>
