<?xml version="1.0" encoding="UTF-8" standalone="no"?>
<!DOCTYPE svg PUBLIC "-//W3C//DTD SVG 1.1//EN"
 "http://www.w3.org/Graphics/SVG/1.1/DTD/svg11.dtd">
<!-- Generated by graphviz version 2.40.1 (20161225.0304)
 -->
<!-- Title: Core Pages: 1 -->
<svg width="346pt" height="112pt"
 viewBox="0.00 0.00 346.00 112.00" xmlns="http://www.w3.org/2000/svg" xmlns:xlink="http://www.w3.org/1999/xlink">
<g id="graph0" class="graph" transform="scale(1 1) rotate(0) translate(4 108)">
<title>Core</title>
<polygon fill="#ffffff" stroke="transparent" points="-4,4 -4,-108 342,-108 342,4 -4,4"/>
<g id="clust1" class="cluster">
<title>clusterdir_a54a9d1e3981ccde17cbf064713c5f47</title>
<g id="a_clust1"><a xlink:href="dir_a54a9d1e3981ccde17cbf064713c5f47.html" target="_top" xlink:title="Headers">
<polygon fill="#ddddee" stroke="#000000" points="8,-8 8,-96 330,-96 330,-8 8,-8"/>
<text text-anchor="middle" x="169" y="-83" font-family="Helvetica,sans-Serif" font-size="10.00" fill="#000000">Headers</text>
</a>
</g>
</g>
<g id="clust2" class="cluster">
<title>clusterdir_587822e9450c57c1a0a775b467122bbe</title>
<g id="a_clust2"><a xlink:href="dir_587822e9450c57c1a0a775b467122bbe.html" target="_top">
<polygon fill="#eeeeff" stroke="#000000" points="16,-16 16,-68 322,-68 322,-16 16,-16"/>
</a>
</g>
</g>
<!-- dir_587822e9450c57c1a0a775b467122bbe -->
<g id="node1" class="node">
<title>dir_587822e9450c57c1a0a775b467122bbe</title>
<text text-anchor="middle" x="287" y="-39" font-family="Helvetica,sans-Serif" font-size="10.00" fill="#000000">Core</text>
</g>
<!-- dir_603d4fcf0b1278ffc5d1fb3e6da40016 -->
<g id="node2" class="node">
<title>dir_603d4fcf0b1278ffc5d1fb3e6da40016</title>
<g id="a_node2"><a xlink:href="dir_603d4fcf0b1278ffc5d1fb3e6da40016.html" target="_top" xlink:title="IO">
<polygon fill="#ffffff" stroke="#000000" points="242,-60 188,-60 188,-24 242,-24 242,-60"/>
<text text-anchor="middle" x="215" y="-39" font-family="Helvetica,sans-Serif" font-size="10.00" fill="#000000">IO</text>
</a>
</g>
</g>
<!-- dir_6ec1f722903a26acfafbac2be9adc1a0 -->
<g id="node3" class="node">
<title>dir_6ec1f722903a26acfafbac2be9adc1a0</title>
<g id="a_node3"><a xlink:href="dir_6ec1f722903a26acfafbac2be9adc1a0.html" target="_top" xlink:title="MotorControl">
<polygon fill="#ffffff" stroke="#000000" points="169.7783,-60 96.2217,-60 96.2217,-24 169.7783,-24 169.7783,-60"/>
<text text-anchor="middle" x="133" y="-39" font-family="Helvetica,sans-Serif" font-size="10.00" fill="#000000">MotorControl</text>
</a>
</g>
</g>
<!-- dir_4dfcee691f0d8595eb1292d94a595afa -->
<g id="node4" class="node">
<title>dir_4dfcee691f0d8595eb1292d94a595afa</title>
<g id="a_node4"><a xlink:href="dir_4dfcee691f0d8595eb1292d94a595afa.html" target="_top" xlink:title="PRU">
<polygon fill="#ffffff" stroke="#000000" points="78,-60 24,-60 24,-24 78,-24 78,-60"/>
<text text-anchor="middle" x="51" y="-39" font-family="Helvetica,sans-Serif" font-size="10.00" fill="#000000">PRU</text>
</a>
</g>
</g>
</g>
</svg>
