<?xml version="1.0" encoding="UTF-8" standalone="no"?>
<!DOCTYPE svg PUBLIC "-//W3C//DTD SVG 1.1//EN"
 "http://www.w3.org/Graphics/SVG/1.1/DTD/svg11.dtd">
<!-- Generated by graphviz version 2.40.1 (20161225.0304)
 -->
<!-- Title: ControlSoftware Pages: 1 -->
<svg width="138pt" height="152pt"
 viewBox="0.00 0.00 138.12 152.00" xmlns="http://www.w3.org/2000/svg" xmlns:xlink="http://www.w3.org/1999/xlink">
<g id="graph0" class="graph" transform="scale(1 1) rotate(0) translate(4 148)">
<title>ControlSoftware</title>
<polygon fill="#ffffff" stroke="transparent" points="-4,4 -4,-148 134.1205,-148 134.1205,4 -4,4"/>
<g id="clust1" class="cluster">
<title>clusterdir_a54a9d1e3981ccde17cbf064713c5f47</title>
<g id="a_clust1"><a xlink:href="dir_a54a9d1e3981ccde17cbf064713c5f47.html" target="_top" xlink:title="Headers">
<polygon fill="#ddddee" stroke="#000000" points="14.1205,-64 14.1205,-136 118.1205,-136 118.1205,-64 14.1205,-64"/>
<text text-anchor="middle" x="66.1205" y="-123" font-family="Helvetica,sans-Serif" font-size="10.00" fill="#000000">Headers</text>
</a>
</g>
</g>
<!-- dir_32365f48e56c6fbaa7801f2e325370ae -->
<g id="node1" class="node">
<title>dir_32365f48e56c6fbaa7801f2e325370ae</title>
<g id="a_node1"><a xlink:href="dir_32365f48e56c6fbaa7801f2e325370ae.html" target="_top" xlink:title="ControlSoftware">
<polygon fill="#eeeeff" stroke="#000000" points="109.7961,-108 22.4449,-108 22.4449,-72 109.7961,-72 109.7961,-108"/>
<text text-anchor="middle" x="66.1205" y="-87" font-family="Helvetica,sans-Serif" font-size="10.00" fill="#000000">ControlSoftware</text>
</a>
</g>
</g>
<!-- dir_a30652010790e59a7ce655b01968a707 -->
<g id="node2" class="node">
<title>dir_a30652010790e59a7ce655b01968a707</title>
<g id="a_node2"><a xlink:href="dir_a30652010790e59a7ce655b01968a707.html" target="_top" xlink:title="Bluetooth">
<polygon fill="none" stroke="#000000" points="58.362,-36 -.121,-36 -.121,0 58.362,0 58.362,-36"/>
<text text-anchor="middle" x="29.1205" y="-15" font-family="Helvetica,sans-Serif" font-size="10.00" fill="#000000">Bluetooth</text>
</a>
</g>
</g>
<!-- dir_32365f48e56c6fbaa7801f2e325370ae&#45;&gt;dir_a30652010790e59a7ce655b01968a707 -->
<g id="edge1" class="edge">
<title>dir_32365f48e56c6fbaa7801f2e325370ae&#45;&gt;dir_a30652010790e59a7ce655b01968a707</title>
<path fill="none" stroke="#000000" d="M56.7838,-71.8314C52.6962,-63.8771 47.8101,-54.369 43.2896,-45.5723"/>
<polygon fill="#000000" stroke="#000000" points="46.2666,-43.7078 38.5829,-36.4133 40.0406,-46.9074 46.2666,-43.7078"/>
<g id="a_edge1&#45;headlabel"><a xlink:href="dir_000006_000004.html" target="_top" xlink:title="2">
<text text-anchor="middle" x="50.4349" y="-42.6073" font-family="Helvetica,sans-Serif" font-size="10.00" fill="#000000">2</text>
</a>
</g>
</g>
<!-- dir_587822e9450c57c1a0a775b467122bbe -->
<g id="node3" class="node">
<title>dir_587822e9450c57c1a0a775b467122bbe</title>
<g id="a_node3"><a xlink:href="dir_587822e9450c57c1a0a775b467122bbe.html" target="_top" xlink:title="Core">
<polygon fill="#ffffff" stroke="#ff0000" points="130.1205,-36 76.1205,-36 76.1205,0 130.1205,0 130.1205,-36"/>
<text text-anchor="middle" x="103.1205" y="-15" font-family="Helvetica,sans-Serif" font-size="10.00" fill="#000000">Core</text>
</a>
</g>
</g>
<!-- dir_32365f48e56c6fbaa7801f2e325370ae&#45;&gt;dir_587822e9450c57c1a0a775b467122bbe -->
<g id="edge2" class="edge">
<title>dir_32365f48e56c6fbaa7801f2e325370ae&#45;&gt;dir_587822e9450c57c1a0a775b467122bbe</title>
<path fill="none" stroke="#000000" d="M75.4572,-71.8314C79.5448,-63.8771 84.4309,-54.369 88.9514,-45.5723"/>
<polygon fill="#000000" stroke="#000000" points="92.2004,-46.9074 93.6581,-36.4133 85.9744,-43.7078 92.2004,-46.9074"/>
<g id="a_edge2&#45;headlabel"><a xlink:href="dir_000006_000009.html" target="_top" xlink:title="1">
<text text-anchor="middle" x="93.0828" y="-48.4022" font-family="Helvetica,sans-Serif" font-size="10.00" fill="#000000">1</text>
</a>
</g>
</g>
</g>
</svg>
