<?xml version="1.0" encoding="UTF-8" standalone="no"?>
<!DOCTYPE svg PUBLIC "-//W3C//DTD SVG 1.1//EN"
 "http://www.w3.org/Graphics/SVG/1.1/DTD/svg11.dtd">
<!-- Generated by graphviz version 2.40.1 (20161225.0304)
 -->
<!-- Title: Sources Pages: 1 -->
<svg width="436pt" height="160pt"
 viewBox="0.00 0.00 436.00 160.00" xmlns="http://www.w3.org/2000/svg" xmlns:xlink="http://www.w3.org/1999/xlink">
<g id="graph0" class="graph" transform="scale(1 1) rotate(0) translate(4 156)">
<title>Sources</title>
<polygon fill="#ffffff" stroke="transparent" points="-4,4 -4,-156 432,-156 432,4 -4,4"/>
<g id="clust1" class="cluster">
<title>clusterdir_1b81b61ac01831e6061e0ad968e64f03</title>
<g id="a_clust1"><a xlink:href="dir_1b81b61ac01831e6061e0ad968e64f03.html" target="_top" xlink:title="MainApplication">
<polygon fill="#ddddee" stroke="#000000" points="8,-56 8,-144 420,-144 420,-56 8,-56"/>
<text text-anchor="middle" x="214" y="-131" font-family="Helvetica,sans-Serif" font-size="10.00" fill="#000000">MainApplication</text>
</a>
</g>
</g>
<g id="clust2" class="cluster">
<title>clusterdir_7edc4bcb12e6209d2b87ed142559dd16</title>
<g id="a_clust2"><a xlink:href="dir_7edc4bcb12e6209d2b87ed142559dd16.html" target="_top">
<polygon fill="#eeeeff" stroke="#000000" points="16,-64 16,-116 412,-116 412,-64 16,-64"/>
</a>
</g>
</g>
<!-- dir_7edc4bcb12e6209d2b87ed142559dd16 -->
<g id="node1" class="node">
<title>dir_7edc4bcb12e6209d2b87ed142559dd16</title>
<text text-anchor="middle" x="377" y="-87" font-family="Helvetica,sans-Serif" font-size="10.00" fill="#000000">Sources</text>
</g>
<!-- dir_e8a5e4ad2c79e00958e3fc8dbfdfd2dc -->
<g id="node2" class="node">
<title>dir_e8a5e4ad2c79e00958e3fc8dbfdfd2dc</title>
<g id="a_node2"><a xlink:href="dir_e8a5e4ad2c79e00958e3fc8dbfdfd2dc.html" target="_top" xlink:title="Bluetooth">
<polygon fill="#ffffff" stroke="#000000" points="332.2415,-108 273.7585,-108 273.7585,-72 332.2415,-72 332.2415,-108"/>
<text text-anchor="middle" x="303" y="-87" font-family="Helvetica,sans-Serif" font-size="10.00" fill="#000000">Bluetooth</text>
</a>
</g>
</g>
<!-- dir_a54a9d1e3981ccde17cbf064713c5f47 -->
<g id="node6" class="node">
<title>dir_a54a9d1e3981ccde17cbf064713c5f47</title>
<g id="a_node6"><a xlink:href="dir_a54a9d1e3981ccde17cbf064713c5f47.html" target="_top" xlink:title="Headers">
<polygon fill="#ffffff" stroke="#ff0000" points="194,-36 140,-36 140,0 194,0 194,-36"/>
<text text-anchor="middle" x="167" y="-15" font-family="Helvetica,sans-Serif" font-size="10.00" fill="#000000">Headers</text>
</a>
</g>
</g>
<!-- dir_e8a5e4ad2c79e00958e3fc8dbfdfd2dc&#45;&gt;dir_a54a9d1e3981ccde17cbf064713c5f47 -->
<g id="edge2" class="edge">
<title>dir_e8a5e4ad2c79e00958e3fc8dbfdfd2dc&#45;&gt;dir_a54a9d1e3981ccde17cbf064713c5f47</title>
<path fill="none" stroke="#000000" d="M285.5143,-71.9624C279.4006,-66.3329 272.2455,-60.4413 265,-56 246.0546,-44.387 222.9586,-35.2238 203.9475,-28.8075"/>
<polygon fill="#000000" stroke="#000000" points="205.0142,-25.4741 194.4219,-25.7042 202.8458,-32.1298 205.0142,-25.4741"/>
<g id="a_edge2&#45;headlabel"><a xlink:href="dir_000002_000003.html" target="_top" xlink:title="6">
<text text-anchor="middle" x="209.3115" y="-20.8879" font-family="Helvetica,sans-Serif" font-size="10.00" fill="#000000">6</text>
</a>
</g>
</g>
<!-- dir_0276673a64573f5bdbf10069d50aa831 -->
<g id="node3" class="node">
<title>dir_0276673a64573f5bdbf10069d50aa831</title>
<g id="a_node3"><a xlink:href="dir_0276673a64573f5bdbf10069d50aa831.html" target="_top" xlink:title="ControlSoftware">
<polygon fill="#ffffff" stroke="#000000" points="255.6756,-108 168.3244,-108 168.3244,-72 255.6756,-72 255.6756,-108"/>
<text text-anchor="middle" x="212" y="-87" font-family="Helvetica,sans-Serif" font-size="10.00" fill="#000000">ControlSoftware</text>
</a>
</g>
</g>
<!-- dir_0276673a64573f5bdbf10069d50aa831&#45;&gt;dir_a54a9d1e3981ccde17cbf064713c5f47 -->
<g id="edge1" class="edge">
<title>dir_0276673a64573f5bdbf10069d50aa831&#45;&gt;dir_a54a9d1e3981ccde17cbf064713c5f47</title>
<path fill="none" stroke="#000000" d="M200.6446,-71.8314C195.5674,-63.7079 189.4773,-53.9637 183.8824,-45.0118"/>
<polygon fill="#000000" stroke="#000000" points="186.7763,-43.0383 178.5083,-36.4133 180.8403,-46.7483 186.7763,-43.0383"/>
<g id="a_edge1&#45;headlabel"><a xlink:href="dir_000005_000003.html" target="_top" xlink:title="10">
<text text-anchor="middle" x="191.0891" y="-41.5817" font-family="Helvetica,sans-Serif" font-size="10.00" fill="#000000">10</text>
</a>
</g>
</g>
<!-- dir_6128fcfee895fc4225f33af940001cbd -->
<g id="node4" class="node">
<title>dir_6128fcfee895fc4225f33af940001cbd</title>
<g id="a_node4"><a xlink:href="dir_6128fcfee895fc4225f33af940001cbd.html" target="_top" xlink:title="Core">
<polygon fill="#ffffff" stroke="#ff0000" points="150,-108 96,-108 96,-72 150,-72 150,-108"/>
<text text-anchor="middle" x="123" y="-87" font-family="Helvetica,sans-Serif" font-size="10.00" fill="#000000">Core</text>
</a>
</g>
</g>
<!-- dir_6128fcfee895fc4225f33af940001cbd&#45;&gt;dir_a54a9d1e3981ccde17cbf064713c5f47 -->
<g id="edge3" class="edge">
<title>dir_6128fcfee895fc4225f33af940001cbd&#45;&gt;dir_a54a9d1e3981ccde17cbf064713c5f47</title>
<path fill="none" stroke="#000000" d="M134.1031,-71.8314C139.0674,-63.7079 145.0222,-53.9637 150.4928,-45.0118"/>
<polygon fill="#000000" stroke="#000000" points="153.5194,-46.7712 155.7474,-36.4133 147.5464,-43.121 153.5194,-46.7712"/>
<g id="a_edge3&#45;headlabel"><a xlink:href="dir_000007_000003.html" target="_top" xlink:title="13">
<text text-anchor="middle" x="154.0677" y="-48.3189" font-family="Helvetica,sans-Serif" font-size="10.00" fill="#000000">13</text>
</a>
</g>
</g>
<!-- dir_1a2eb8c280f4fb4347a6ed2342e20462 -->
<g id="node5" class="node">
<title>dir_1a2eb8c280f4fb4347a6ed2342e20462</title>
<g id="a_node5"><a xlink:href="dir_1a2eb8c280f4fb4347a6ed2342e20462.html" target="_top" xlink:title="IO">
<polygon fill="#ffffff" stroke="#000000" points="78,-108 24,-108 24,-72 78,-72 78,-108"/>
<text text-anchor="middle" x="51" y="-87" font-family="Helvetica,sans-Serif" font-size="10.00" fill="#000000">IO</text>
</a>
</g>
</g>
<!-- dir_1a2eb8c280f4fb4347a6ed2342e20462&#45;&gt;dir_a54a9d1e3981ccde17cbf064713c5f47 -->
<g id="edge4" class="edge">
<title>dir_1a2eb8c280f4fb4347a6ed2342e20462&#45;&gt;dir_a54a9d1e3981ccde17cbf064713c5f47</title>
<path fill="none" stroke="#000000" d="M67.9915,-71.8686C73.7059,-66.3602 80.3311,-60.5638 87,-56 100.403,-46.8277 116.3648,-38.7554 130.4923,-32.4368"/>
<polygon fill="#000000" stroke="#000000" points="132.1408,-35.537 139.9258,-28.3505 129.3585,-29.1137 132.1408,-35.537"/>
<g id="a_edge4&#45;headlabel"><a xlink:href="dir_000012_000003.html" target="_top" xlink:title="8">
<text text-anchor="middle" x="129.9709" y="-36.571" font-family="Helvetica,sans-Serif" font-size="10.00" fill="#000000">8</text>
</a>
</g>
</g>
</g>
</svg>
