<?xml version="1.0" encoding="UTF-8" standalone="no"?>
<!DOCTYPE svg PUBLIC "-//W3C//DTD SVG 1.1//EN"
 "http://www.w3.org/Graphics/SVG/1.1/DTD/svg11.dtd">
<!-- Generated by graphviz version 2.40.1 (20161225.0304)
 -->
<!-- Title: BBBLibrary Pages: 1 -->
<svg width="194pt" height="184pt"
 viewBox="0.00 0.00 194.00 184.00" xmlns="http://www.w3.org/2000/svg" xmlns:xlink="http://www.w3.org/1999/xlink">
<g id="graph0" class="graph" transform="scale(1 1) rotate(0) translate(4 180)">
<title>BBBLibrary</title>
<polygon fill="#ffffff" stroke="transparent" points="-4,4 -4,-180 190,-180 190,4 -4,4"/>
<g id="clust1" class="cluster">
<title>clusterdir_1b81b61ac01831e6061e0ad968e64f03</title>
<g id="a_clust1"><a xlink:href="dir_1b81b61ac01831e6061e0ad968e64f03.html" target="_top" xlink:title="MainApplication">
<polygon fill="#ddddee" stroke="#000000" points="8,-8 8,-168 178,-168 178,-8 8,-8"/>
<text text-anchor="middle" x="93" y="-155" font-family="Helvetica,sans-Serif" font-size="10.00" fill="#000000">MainApplication</text>
</a>
</g>
</g>
<g id="clust2" class="cluster">
<title>clusterdir_987148c65bc53438ab99c2dd2af7d909</title>
<g id="a_clust2"><a xlink:href="dir_987148c65bc53438ab99c2dd2af7d909.html" target="_top">
<polygon fill="#eeeeff" stroke="#000000" points="16,-16 16,-140 170,-140 170,-16 16,-16"/>
</a>
</g>
</g>
<!-- dir_987148c65bc53438ab99c2dd2af7d909 -->
<g id="node1" class="node">
<title>dir_987148c65bc53438ab99c2dd2af7d909</title>
<text text-anchor="middle" x="129" y="-111" font-family="Helvetica,sans-Serif" font-size="10.00" fill="#000000">BBBLibrary</text>
</g>
<!-- dir_586f5b2a9f6dd58bc54f17b6475358e1 -->
<g id="node2" class="node">
<title>dir_586f5b2a9f6dd58bc54f17b6475358e1</title>
<g id="a_node2"><a xlink:href="dir_586f5b2a9f6dd58bc54f17b6475358e1.html" target="_top" xlink:title="Headers">
<polygon fill="#ffffff" stroke="#ff0000" points="78,-60 24,-60 24,-24 78,-24 78,-60"/>
<text text-anchor="middle" x="51" y="-39" font-family="Helvetica,sans-Serif" font-size="10.00" fill="#000000">Headers</text>
</a>
</g>
</g>
<!-- dir_a6c9ded3a8c32d4dd70d8dd506687d1a -->
<g id="node3" class="node">
<title>dir_a6c9ded3a8c32d4dd70d8dd506687d1a</title>
<g id="a_node3"><a xlink:href="dir_a6c9ded3a8c32d4dd70d8dd506687d1a.html" target="_top" xlink:title="Sources">
<polygon fill="#ffffff" stroke="#ff0000" points="78,-132 24,-132 24,-96 78,-96 78,-132"/>
<text text-anchor="middle" x="51" y="-111" font-family="Helvetica,sans-Serif" font-size="10.00" fill="#000000">Sources</text>
</a>
</g>
</g>
<!-- dir_a6c9ded3a8c32d4dd70d8dd506687d1a&#45;&gt;dir_586f5b2a9f6dd58bc54f17b6475358e1 -->
<g id="edge1" class="edge">
<title>dir_a6c9ded3a8c32d4dd70d8dd506687d1a&#45;&gt;dir_586f5b2a9f6dd58bc54f17b6475358e1</title>
<path fill="none" stroke="#000000" d="M51,-95.8314C51,-88.131 51,-78.9743 51,-70.4166"/>
<polygon fill="#000000" stroke="#000000" points="54.5001,-70.4132 51,-60.4133 47.5001,-70.4133 54.5001,-70.4132"/>
<g id="a_edge1&#45;headlabel"><a xlink:href="dir_000006_000004.html" target="_top" xlink:title="16">
<text text-anchor="middle" x="57.3393" y="-71.0079" font-family="Helvetica,sans-Serif" font-size="10.00" fill="#000000">16</text>
</a>
</g>
</g>
</g>
</svg>
