<?xml version="1.0" encoding="UTF-8" standalone="no"?>
<!DOCTYPE svg PUBLIC "-//W3C//DTD SVG 1.1//EN"
 "http://www.w3.org/Graphics/SVG/1.1/DTD/svg11.dtd">
<!-- Generated by graphviz version 2.40.1 (20161225.0304)
 -->
<!-- Title: Headers Pages: 1 -->
<svg width="422pt" height="184pt"
 viewBox="0.00 0.00 422.00 184.00" xmlns="http://www.w3.org/2000/svg" xmlns:xlink="http://www.w3.org/1999/xlink">
<g id="graph0" class="graph" transform="scale(1 1) rotate(0) translate(4 180)">
<title>Headers</title>
<polygon fill="#ffffff" stroke="transparent" points="-4,4 -4,-180 418,-180 418,4 -4,4"/>
<g id="clust1" class="cluster">
<title>clusterdir_987148c65bc53438ab99c2dd2af7d909</title>
<g id="a_clust1"><a xlink:href="dir_987148c65bc53438ab99c2dd2af7d909.html" target="_top" xlink:title="BBBLibrary">
<polygon fill="#ddddee" stroke="#000000" points="8,-8 8,-168 406,-168 406,-8 8,-8"/>
<text text-anchor="middle" x="207" y="-155" font-family="Helvetica,sans-Serif" font-size="10.00" fill="#000000">BBBLibrary</text>
</a>
</g>
</g>
<g id="clust2" class="cluster">
<title>clusterdir_586f5b2a9f6dd58bc54f17b6475358e1</title>
<g id="a_clust2"><a xlink:href="dir_586f5b2a9f6dd58bc54f17b6475358e1.html" target="_top">
<polygon fill="#eeeeff" stroke="#000000" points="16,-16 16,-140 398,-140 398,-16 16,-16"/>
</a>
</g>
</g>
<!-- dir_586f5b2a9f6dd58bc54f17b6475358e1 -->
<g id="node1" class="node">
<title>dir_586f5b2a9f6dd58bc54f17b6475358e1</title>
<text text-anchor="middle" x="363" y="-111" font-family="Helvetica,sans-Serif" font-size="10.00" fill="#000000">Headers</text>
</g>
<!-- dir_7cde47fe9d4dae81a7a0e9dccddcc452 -->
<g id="node2" class="node">
<title>dir_7cde47fe9d4dae81a7a0e9dccddcc452</title>
<g id="a_node2"><a xlink:href="dir_7cde47fe9d4dae81a7a0e9dccddcc452.html" target="_top" xlink:title="Bluetooth">
<polygon fill="#ffffff" stroke="#000000" points="318.2415,-132 259.7585,-132 259.7585,-96 318.2415,-96 318.2415,-132"/>
<text text-anchor="middle" x="289" y="-111" font-family="Helvetica,sans-Serif" font-size="10.00" fill="#000000">Bluetooth</text>
</a>
</g>
</g>
<!-- dir_5b9f316a7023f874b09d502e0bf491b2 -->
<g id="node3" class="node">
<title>dir_5b9f316a7023f874b09d502e0bf491b2</title>
<g id="a_node3"><a xlink:href="dir_5b9f316a7023f874b09d502e0bf491b2.html" target="_top" xlink:title="IO">
<polygon fill="#ffffff" stroke="#000000" points="242,-132 188,-132 188,-96 242,-96 242,-132"/>
<text text-anchor="middle" x="215" y="-111" font-family="Helvetica,sans-Serif" font-size="10.00" fill="#000000">IO</text>
</a>
</g>
</g>
<!-- dir_981cc690abed88e2ba08f48fe0cebaac -->
<g id="node4" class="node">
<title>dir_981cc690abed88e2ba08f48fe0cebaac</title>
<g id="a_node4"><a xlink:href="dir_981cc690abed88e2ba08f48fe0cebaac.html" target="_top" xlink:title="Math">
<polygon fill="#ffffff" stroke="#000000" points="160,-60 106,-60 106,-24 160,-24 160,-60"/>
<text text-anchor="middle" x="133" y="-39" font-family="Helvetica,sans-Serif" font-size="10.00" fill="#000000">Math</text>
</a>
</g>
</g>
<!-- dir_e5f035c35842e46b6c0754c39077328c -->
<g id="node5" class="node">
<title>dir_e5f035c35842e46b6c0754c39077328c</title>
<g id="a_node5"><a xlink:href="dir_e5f035c35842e46b6c0754c39077328c.html" target="_top" xlink:title="MotorControl">
<polygon fill="#ffffff" stroke="#000000" points="169.7783,-132 96.2217,-132 96.2217,-96 169.7783,-96 169.7783,-132"/>
<text text-anchor="middle" x="133" y="-111" font-family="Helvetica,sans-Serif" font-size="10.00" fill="#000000">MotorControl</text>
</a>
</g>
</g>
<!-- dir_e5f035c35842e46b6c0754c39077328c&#45;&gt;dir_981cc690abed88e2ba08f48fe0cebaac -->
<g id="edge1" class="edge">
<title>dir_e5f035c35842e46b6c0754c39077328c&#45;&gt;dir_981cc690abed88e2ba08f48fe0cebaac</title>
<path fill="none" stroke="#000000" d="M133,-95.8314C133,-88.131 133,-78.9743 133,-70.4166"/>
<polygon fill="#000000" stroke="#000000" points="136.5001,-70.4132 133,-60.4133 129.5001,-70.4133 136.5001,-70.4132"/>
<g id="a_edge1&#45;headlabel"><a xlink:href="dir_000018_000014.html" target="_top" xlink:title="1">
<text text-anchor="middle" x="139.3393" y="-71.0079" font-family="Helvetica,sans-Serif" font-size="10.00" fill="#000000">1</text>
</a>
</g>
</g>
<!-- dir_b97c1e1b3fa3e021e9d6ea7307adc416 -->
<g id="node6" class="node">
<title>dir_b97c1e1b3fa3e021e9d6ea7307adc416</title>
<g id="a_node6"><a xlink:href="dir_b97c1e1b3fa3e021e9d6ea7307adc416.html" target="_top" xlink:title="PRU">
<polygon fill="#ffffff" stroke="#000000" points="78,-132 24,-132 24,-96 78,-96 78,-132"/>
<text text-anchor="middle" x="51" y="-111" font-family="Helvetica,sans-Serif" font-size="10.00" fill="#000000">PRU</text>
</a>
</g>
</g>
</g>
</svg>
