<?xml version="1.0" encoding="UTF-8" standalone="no"?>
<!DOCTYPE svg PUBLIC "-//W3C//DTD SVG 1.1//EN"
 "http://www.w3.org/Graphics/SVG/1.1/DTD/svg11.dtd">
<!-- Generated by graphviz version 2.40.1 (20161225.0304)
 -->
<!-- Title: MainApplication Pages: 1 -->
<svg width="198pt" height="148pt"
 viewBox="0.00 0.00 198.00 148.00" xmlns="http://www.w3.org/2000/svg" xmlns:xlink="http://www.w3.org/1999/xlink">
<g id="graph0" class="graph" transform="scale(1 1) rotate(0) translate(4 144)">
<title>MainApplication</title>
<polygon fill="#ffffff" stroke="transparent" points="-4,4 -4,-144 194,-144 194,4 -4,4"/>
<g id="clust1" class="cluster">
<title>clusterdir_1b81b61ac01831e6061e0ad968e64f03</title>
<g id="a_clust1"><a xlink:href="dir_1b81b61ac01831e6061e0ad968e64f03.html" target="_top">
<polygon fill="#eeeeff" stroke="#000000" points="8,-8 8,-132 182,-132 182,-8 8,-8"/>
</a>
</g>
</g>
<!-- dir_1b81b61ac01831e6061e0ad968e64f03 -->
<g id="node1" class="node">
<title>dir_1b81b61ac01831e6061e0ad968e64f03</title>
<text text-anchor="middle" x="131" y="-103" font-family="Helvetica,sans-Serif" font-size="10.00" fill="#000000">MainApplication</text>
</g>
<!-- dir_a54a9d1e3981ccde17cbf064713c5f47 -->
<g id="node2" class="node">
<title>dir_a54a9d1e3981ccde17cbf064713c5f47</title>
<g id="a_node2"><a xlink:href="dir_a54a9d1e3981ccde17cbf064713c5f47.html" target="_top" xlink:title="Headers">
<polygon fill="#ffffff" stroke="#ff0000" points="70,-52 16,-52 16,-16 70,-16 70,-52"/>
<text text-anchor="middle" x="43" y="-31" font-family="Helvetica,sans-Serif" font-size="10.00" fill="#000000">Headers</text>
</a>
</g>
</g>
<!-- dir_7edc4bcb12e6209d2b87ed142559dd16 -->
<g id="node3" class="node">
<title>dir_7edc4bcb12e6209d2b87ed142559dd16</title>
<g id="a_node3"><a xlink:href="dir_7edc4bcb12e6209d2b87ed142559dd16.html" target="_top" xlink:title="Sources">
<polygon fill="#ffffff" stroke="#ff0000" points="70,-124 16,-124 16,-88 70,-88 70,-124"/>
<text text-anchor="middle" x="43" y="-103" font-family="Helvetica,sans-Serif" font-size="10.00" fill="#000000">Sources</text>
</a>
</g>
</g>
<!-- dir_7edc4bcb12e6209d2b87ed142559dd16&#45;&gt;dir_a54a9d1e3981ccde17cbf064713c5f47 -->
<g id="edge1" class="edge">
<title>dir_7edc4bcb12e6209d2b87ed142559dd16&#45;&gt;dir_a54a9d1e3981ccde17cbf064713c5f47</title>
<path fill="none" stroke="#000000" d="M43,-87.8314C43,-80.131 43,-70.9743 43,-62.4166"/>
<polygon fill="#000000" stroke="#000000" points="46.5001,-62.4132 43,-52.4133 39.5001,-62.4133 46.5001,-62.4132"/>
<g id="a_edge1&#45;headlabel"><a xlink:href="dir_000001_000003.html" target="_top" xlink:title="35">
<text text-anchor="middle" x="49.3393" y="-63.0079" font-family="Helvetica,sans-Serif" font-size="10.00" fill="#000000">35</text>
</a>
</g>
</g>
</g>
</svg>
