<?xml version="1.0" encoding="UTF-8" standalone="no"?>
<!DOCTYPE svg PUBLIC "-//W3C//DTD SVG 1.1//EN"
 "http://www.w3.org/Graphics/SVG/1.1/DTD/svg11.dtd">
<!-- Generated by graphviz version 2.40.1 (20161225.0304)
 -->
<!-- Title: IO Pages: 1 -->
<svg width="96pt" height="152pt"
 viewBox="0.00 0.00 95.67 152.00" xmlns="http://www.w3.org/2000/svg" xmlns:xlink="http://www.w3.org/1999/xlink">
<g id="graph0" class="graph" transform="scale(1 1) rotate(0) translate(4 148)">
<title>IO</title>
<polygon fill="#ffffff" stroke="transparent" points="-4,4 -4,-148 91.675,-148 91.675,4 -4,4"/>
<g id="clust1" class="cluster">
<title>clusterdir_a54a9d1e3981ccde17cbf064713c5f47</title>
<g id="a_clust1"><a xlink:href="dir_a54a9d1e3981ccde17cbf064713c5f47.html" target="_top" xlink:title="Headers">
<polygon fill="#ddddee" stroke="#000000" points="8.8375,-64 8.8375,-136 78.8375,-136 78.8375,-64 8.8375,-64"/>
<text text-anchor="middle" x="43.8375" y="-123" font-family="Helvetica,sans-Serif" font-size="10.00" fill="#000000">Headers</text>
</a>
</g>
</g>
<!-- dir_5f8edfeb0261162cf6bebeb269e395b3 -->
<g id="node1" class="node">
<title>dir_5f8edfeb0261162cf6bebeb269e395b3</title>
<g id="a_node1"><a xlink:href="dir_5f8edfeb0261162cf6bebeb269e395b3.html" target="_top" xlink:title="IO">
<polygon fill="#eeeeff" stroke="#000000" points="70.8375,-108 16.8375,-108 16.8375,-72 70.8375,-72 70.8375,-108"/>
<text text-anchor="middle" x="43.8375" y="-87" font-family="Helvetica,sans-Serif" font-size="10.00" fill="#000000">IO</text>
</a>
</g>
</g>
<!-- dir_32365f48e56c6fbaa7801f2e325370ae -->
<g id="node2" class="node">
<title>dir_32365f48e56c6fbaa7801f2e325370ae</title>
<g id="a_node2"><a xlink:href="dir_32365f48e56c6fbaa7801f2e325370ae.html" target="_top" xlink:title="ControlSoftware">
<polygon fill="none" stroke="#000000" points="87.5131,-36 .1619,-36 .1619,0 87.5131,0 87.5131,-36"/>
<text text-anchor="middle" x="43.8375" y="-15" font-family="Helvetica,sans-Serif" font-size="10.00" fill="#000000">ControlSoftware</text>
</a>
</g>
</g>
<!-- dir_5f8edfeb0261162cf6bebeb269e395b3&#45;&gt;dir_32365f48e56c6fbaa7801f2e325370ae -->
<g id="edge1" class="edge">
<title>dir_5f8edfeb0261162cf6bebeb269e395b3&#45;&gt;dir_32365f48e56c6fbaa7801f2e325370ae</title>
<path fill="none" stroke="#000000" d="M43.8375,-71.8314C43.8375,-64.131 43.8375,-54.9743 43.8375,-46.4166"/>
<polygon fill="#000000" stroke="#000000" points="47.3376,-46.4132 43.8375,-36.4133 40.3376,-46.4133 47.3376,-46.4132"/>
<g id="a_edge1&#45;headlabel"><a xlink:href="dir_000012_000009.html" target="_top" xlink:title="1">
<text text-anchor="middle" x="50.1768" y="-47.0079" font-family="Helvetica,sans-Serif" font-size="10.00" fill="#000000">1</text>
</a>
</g>
</g>
</g>
</svg>
