<?xml version="1.0" encoding="UTF-8" standalone="no"?>
<!DOCTYPE svg PUBLIC "-//W3C//DTD SVG 1.1//EN"
 "http://www.w3.org/Graphics/SVG/1.1/DTD/svg11.dtd">
<!-- Generated by graphviz version 2.40.1 (20161225.0304)
 -->
<!-- Title: ControlSoftware Pages: 1 -->
<svg width="138pt" height="152pt"
 viewBox="0.00 0.00 138.12 152.00" xmlns="http://www.w3.org/2000/svg" xmlns:xlink="http://www.w3.org/1999/xlink">
<g id="graph0" class="graph" transform="scale(1 1) rotate(0) translate(4 148)">
<title>ControlSoftware</title>
<polygon fill="#ffffff" stroke="transparent" points="-4,4 -4,-148 134.1205,-148 134.1205,4 -4,4"/>
<g id="clust1" class="cluster">
<title>clusterdir_a54a9d1e3981ccde17cbf064713c5f47</title>
<g id="a_clust1"><a xlink:href="dir_a54a9d1e3981ccde17cbf064713c5f47.html" target="_top" xlink:title="Headers">
<polygon fill="#ddddee" stroke="#000000" points="12,-64 12,-136 116,-136 116,-64 12,-64"/>
<text text-anchor="middle" x="64" y="-123" font-family="Helvetica,sans-Serif" font-size="10.00" fill="#000000">Headers</text>
</a>
</g>
</g>
<!-- dir_32365f48e56c6fbaa7801f2e325370ae -->
<g id="node1" class="node">
<title>dir_32365f48e56c6fbaa7801f2e325370ae</title>
<g id="a_node1"><a xlink:href="dir_32365f48e56c6fbaa7801f2e325370ae.html" target="_top" xlink:title="ControlSoftware">
<polygon fill="#eeeeff" stroke="#000000" points="107.6756,-108 20.3244,-108 20.3244,-72 107.6756,-72 107.6756,-108"/>
<text text-anchor="middle" x="64" y="-87" font-family="Helvetica,sans-Serif" font-size="10.00" fill="#000000">ControlSoftware</text>
</a>
</g>
</g>
<!-- dir_5f8edfeb0261162cf6bebeb269e395b3 -->
<g id="node2" class="node">
<title>dir_5f8edfeb0261162cf6bebeb269e395b3</title>
<g id="a_node2"><a xlink:href="dir_5f8edfeb0261162cf6bebeb269e395b3.html" target="_top" xlink:title="IO">
<polygon fill="none" stroke="#000000" points="54,-36 0,-36 0,0 54,0 54,-36"/>
<text text-anchor="middle" x="27" y="-15" font-family="Helvetica,sans-Serif" font-size="10.00" fill="#000000">IO</text>
</a>
</g>
</g>
<!-- dir_32365f48e56c6fbaa7801f2e325370ae&#45;&gt;dir_5f8edfeb0261162cf6bebeb269e395b3 -->
<g id="edge2" class="edge">
<title>dir_32365f48e56c6fbaa7801f2e325370ae&#45;&gt;dir_5f8edfeb0261162cf6bebeb269e395b3</title>
<path fill="none" stroke="#000000" d="M48.7109,-71.8314C43.8482,-63.8771 38.7519,-54.369 34.5863,-45.5723"/>
<polygon fill="#000000" stroke="#000000" points="37.7667,-44.1105 30.4864,-36.4133 31.3776,-46.9706 37.7667,-44.1105"/>
<g id="a_edge2&#45;headlabel"><a xlink:href="dir_000006_000008.html" target="_top" xlink:title="1">
<text text-anchor="middle" x="41.8267" y="-43.2314" font-family="Helvetica,sans-Serif" font-size="10.00" fill="#000000">1</text>
</a>
</g>
</g>
<!-- dir_a30652010790e59a7ce655b01968a707 -->
<g id="node3" class="node">
<title>dir_a30652010790e59a7ce655b01968a707</title>
<g id="a_node3"><a xlink:href="dir_a30652010790e59a7ce655b01968a707.html" target="_top" xlink:title="Bluetooth">
<polygon fill="none" stroke="#000000" points="130.2415,-36 71.7585,-36 71.7585,0 130.2415,0 130.2415,-36"/>
<text text-anchor="middle" x="101" y="-15" font-family="Helvetica,sans-Serif" font-size="10.00" fill="#000000">Bluetooth</text>
</a>
</g>
</g>
<!-- dir_32365f48e56c6fbaa7801f2e325370ae&#45;&gt;dir_a30652010790e59a7ce655b01968a707 -->
<g id="edge3" class="edge">
<title>dir_32365f48e56c6fbaa7801f2e325370ae&#45;&gt;dir_a30652010790e59a7ce655b01968a707</title>
<path fill="none" stroke="#000000" d="M73.3367,-71.8314C77.4243,-63.8771 82.3104,-54.369 86.8309,-45.5723"/>
<polygon fill="#000000" stroke="#000000" points="90.0799,-46.9074 91.5376,-36.4133 83.8539,-43.7078 90.0799,-46.9074"/>
<g id="a_edge3&#45;headlabel"><a xlink:href="dir_000006_000004.html" target="_top" xlink:title="2">
<text text-anchor="middle" x="90.9623" y="-48.4022" font-family="Helvetica,sans-Serif" font-size="10.00" fill="#000000">2</text>
</a>
</g>
</g>
<!-- dir_5f8edfeb0261162cf6bebeb269e395b3&#45;&gt;dir_32365f48e56c6fbaa7801f2e325370ae -->
<g id="edge1" class="edge">
<title>dir_5f8edfeb0261162cf6bebeb269e395b3&#45;&gt;dir_32365f48e56c6fbaa7801f2e325370ae</title>
<path fill="none" stroke="#000000" d="M42.4384,-36.4133C47.3058,-44.3991 52.3948,-53.9155 56.5413,-62.6975"/>
<polygon fill="#000000" stroke="#000000" points="53.3454,-64.1246 60.6157,-71.8314 59.7382,-61.2729 53.3454,-64.1246"/>
<g id="a_edge1&#45;headlabel"><a xlink:href="dir_000008_000006.html" target="_top" xlink:title="1">
<text text-anchor="middle" x="49.2881" y="-58.9985" font-family="Helvetica,sans-Serif" font-size="10.00" fill="#000000">1</text>
</a>
</g>
</g>
</g>
</svg>
