<?xml version="1.0" encoding="UTF-8" standalone="no"?>
<!DOCTYPE svg PUBLIC "-//W3C//DTD SVG 1.1//EN"
 "http://www.w3.org/Graphics/SVG/1.1/DTD/svg11.dtd">
<!-- Generated by graphviz version 2.40.1 (20161225.0304)
 -->
<!-- Title: ControlSoftware Pages: 1 -->
<svg width="128pt" height="224pt"
 viewBox="0.00 0.00 128.00 224.00" xmlns="http://www.w3.org/2000/svg" xmlns:xlink="http://www.w3.org/1999/xlink">
<g id="graph0" class="graph" transform="scale(1 1) rotate(0) translate(4 220)">
<title>ControlSoftware</title>
<polygon fill="#ffffff" stroke="transparent" points="-4,4 -4,-220 124,-220 124,4 -4,4"/>
<g id="clust1" class="cluster">
<title>clusterdir_7edc4bcb12e6209d2b87ed142559dd16</title>
<g id="a_clust1"><a xlink:href="dir_7edc4bcb12e6209d2b87ed142559dd16.html" target="_top" xlink:title="Sources">
<polygon fill="#ddddee" stroke="#000000" points="8,-136 8,-208 112,-208 112,-136 8,-136"/>
<text text-anchor="middle" x="60" y="-195" font-family="Helvetica,sans-Serif" font-size="10.00" fill="#000000">Sources</text>
</a>
</g>
</g>
<!-- dir_0276673a64573f5bdbf10069d50aa831 -->
<g id="node1" class="node">
<title>dir_0276673a64573f5bdbf10069d50aa831</title>
<g id="a_node1"><a xlink:href="dir_0276673a64573f5bdbf10069d50aa831.html" target="_top" xlink:title="ControlSoftware">
<polygon fill="#eeeeff" stroke="#000000" points="103.6756,-180 16.3244,-180 16.3244,-144 103.6756,-144 103.6756,-180"/>
<text text-anchor="middle" x="60" y="-159" font-family="Helvetica,sans-Serif" font-size="10.00" fill="#000000">ControlSoftware</text>
</a>
</g>
</g>
<!-- dir_a54a9d1e3981ccde17cbf064713c5f47 -->
<g id="node2" class="node">
<title>dir_a54a9d1e3981ccde17cbf064713c5f47</title>
<g id="a_node2"><a xlink:href="dir_a54a9d1e3981ccde17cbf064713c5f47.html" target="_top" xlink:title="Headers">
<polygon fill="#ffffff" stroke="#ff0000" points="59,-108 5,-108 5,-72 59,-72 59,-108"/>
<text text-anchor="middle" x="32" y="-87" font-family="Helvetica,sans-Serif" font-size="10.00" fill="#000000">Headers</text>
</a>
</g>
</g>
<!-- dir_0276673a64573f5bdbf10069d50aa831&#45;&gt;dir_a54a9d1e3981ccde17cbf064713c5f47 -->
<g id="edge2" class="edge">
<title>dir_0276673a64573f5bdbf10069d50aa831&#45;&gt;dir_a54a9d1e3981ccde17cbf064713c5f47</title>
<path fill="none" stroke="#000000" d="M52.9344,-143.8314C49.874,-135.9617 46.2221,-126.5712 42.8318,-117.8533"/>
<polygon fill="#000000" stroke="#000000" points="46.0473,-116.4647 39.1607,-108.4133 39.5232,-119.0019 46.0473,-116.4647"/>
<g id="a_edge2&#45;headlabel"><a xlink:href="dir_000009_000001.html" target="_top" xlink:title="11">
<text text-anchor="middle" x="49.9963" y="-115.7859" font-family="Helvetica,sans-Serif" font-size="10.00" fill="#000000">11</text>
</a>
</g>
</g>
<!-- dir_987148c65bc53438ab99c2dd2af7d909 -->
<g id="node3" class="node">
<title>dir_987148c65bc53438ab99c2dd2af7d909</title>
<g id="a_node3"><a xlink:href="dir_987148c65bc53438ab99c2dd2af7d909.html" target="_top" xlink:title="BBBLibrary">
<polygon fill="#ffffff" stroke="#ff0000" points="92.0624,-36 25.9376,-36 25.9376,0 92.0624,0 92.0624,-36"/>
<text text-anchor="middle" x="59" y="-15" font-family="Helvetica,sans-Serif" font-size="10.00" fill="#000000">BBBLibrary</text>
</a>
</g>
</g>
<!-- dir_0276673a64573f5bdbf10069d50aa831&#45;&gt;dir_987148c65bc53438ab99c2dd2af7d909 -->
<g id="edge3" class="edge">
<title>dir_0276673a64573f5bdbf10069d50aa831&#45;&gt;dir_987148c65bc53438ab99c2dd2af7d909</title>
<path fill="none" stroke="#000000" d="M63.415,-143.5804C65.1709,-133.1767 67.1226,-119.9092 68,-108 69.1756,-92.0432 69.3197,-87.9455 68,-72 67.3055,-63.6085 66.0138,-54.5578 64.6214,-46.3092"/>
<polygon fill="#000000" stroke="#000000" points="68.0544,-45.6235 62.8413,-36.3999 61.1647,-46.8612 68.0544,-45.6235"/>
<g id="a_edge3&#45;headlabel"><a xlink:href="dir_000009_000003.html" target="_top" xlink:title="8">
<text text-anchor="middle" x="71.4844" y="-45.6595" font-family="Helvetica,sans-Serif" font-size="10.00" fill="#000000">8</text>
</a>
</g>
</g>
<!-- dir_a54a9d1e3981ccde17cbf064713c5f47&#45;&gt;dir_987148c65bc53438ab99c2dd2af7d909 -->
<g id="edge1" class="edge">
<title>dir_a54a9d1e3981ccde17cbf064713c5f47&#45;&gt;dir_987148c65bc53438ab99c2dd2af7d909</title>
<path fill="none" stroke="#000000" d="M38.8132,-71.8314C41.7644,-63.9617 45.2858,-54.5712 48.555,-45.8533"/>
<polygon fill="#000000" stroke="#000000" points="51.8609,-47.0055 52.095,-36.4133 45.3066,-44.5476 51.8609,-47.0055"/>
<g id="a_edge1&#45;headlabel"><a xlink:href="dir_000001_000003.html" target="_top" xlink:title="2">
<text text-anchor="middle" x="53.2573" y="-48.3682" font-family="Helvetica,sans-Serif" font-size="10.00" fill="#000000">2</text>
</a>
</g>
</g>
</g>
</svg>
