<?xml version="1.0" encoding="UTF-8" standalone="no"?>
<!DOCTYPE svg PUBLIC "-//W3C//DTD SVG 1.1//EN"
 "http://www.w3.org/Graphics/SVG/1.1/DTD/svg11.dtd">
<!-- Generated by graphviz version 2.40.1 (20161225.0304)
 -->
<!-- Title: Headers Pages: 1 -->
<svg width="182pt" height="232pt"
 viewBox="0.00 0.00 182.00 232.00" xmlns="http://www.w3.org/2000/svg" xmlns:xlink="http://www.w3.org/1999/xlink">
<g id="graph0" class="graph" transform="scale(1 1) rotate(0) translate(4 228)">
<title>Headers</title>
<polygon fill="#ffffff" stroke="transparent" points="-4,4 -4,-228 178,-228 178,4 -4,4"/>
<g id="clust1" class="cluster">
<title>clusterdir_1b81b61ac01831e6061e0ad968e64f03</title>
<g id="a_clust1"><a xlink:href="dir_1b81b61ac01831e6061e0ad968e64f03.html" target="_top" xlink:title="MainApplication">
<polygon fill="#ddddee" stroke="#000000" points="8,-56 8,-216 166,-216 166,-56 8,-56"/>
<text text-anchor="middle" x="87" y="-203" font-family="Helvetica,sans-Serif" font-size="10.00" fill="#000000">MainApplication</text>
</a>
</g>
</g>
<g id="clust2" class="cluster">
<title>clusterdir_a54a9d1e3981ccde17cbf064713c5f47</title>
<g id="a_clust2"><a xlink:href="dir_a54a9d1e3981ccde17cbf064713c5f47.html" target="_top">
<polygon fill="#eeeeff" stroke="#000000" points="16,-64 16,-188 158,-188 158,-64 16,-64"/>
</a>
</g>
</g>
<!-- dir_a54a9d1e3981ccde17cbf064713c5f47 -->
<g id="node1" class="node">
<title>dir_a54a9d1e3981ccde17cbf064713c5f47</title>
<text text-anchor="middle" x="123" y="-159" font-family="Helvetica,sans-Serif" font-size="10.00" fill="#000000">Headers</text>
</g>
<!-- dir_32365f48e56c6fbaa7801f2e325370ae -->
<g id="node2" class="node">
<title>dir_32365f48e56c6fbaa7801f2e325370ae</title>
<g id="a_node2"><a xlink:href="dir_32365f48e56c6fbaa7801f2e325370ae.html" target="_top" xlink:title="ControlSoftware">
<polygon fill="#ffffff" stroke="#000000" points="111.6756,-108 24.3244,-108 24.3244,-72 111.6756,-72 111.6756,-108"/>
<text text-anchor="middle" x="68" y="-87" font-family="Helvetica,sans-Serif" font-size="10.00" fill="#000000">ControlSoftware</text>
</a>
</g>
</g>
<!-- dir_987148c65bc53438ab99c2dd2af7d909 -->
<g id="node4" class="node">
<title>dir_987148c65bc53438ab99c2dd2af7d909</title>
<g id="a_node4"><a xlink:href="dir_987148c65bc53438ab99c2dd2af7d909.html" target="_top" xlink:title="BBBLibrary">
<polygon fill="#ffffff" stroke="#ff0000" points="101.0624,-36 34.9376,-36 34.9376,0 101.0624,0 101.0624,-36"/>
<text text-anchor="middle" x="68" y="-15" font-family="Helvetica,sans-Serif" font-size="10.00" fill="#000000">BBBLibrary</text>
</a>
</g>
</g>
<!-- dir_32365f48e56c6fbaa7801f2e325370ae&#45;&gt;dir_987148c65bc53438ab99c2dd2af7d909 -->
<g id="edge2" class="edge">
<title>dir_32365f48e56c6fbaa7801f2e325370ae&#45;&gt;dir_987148c65bc53438ab99c2dd2af7d909</title>
<path fill="none" stroke="#000000" d="M68,-71.8314C68,-64.131 68,-54.9743 68,-46.4166"/>
<polygon fill="#000000" stroke="#000000" points="71.5001,-46.4132 68,-36.4133 64.5001,-46.4133 71.5001,-46.4132"/>
<g id="a_edge2&#45;headlabel"><a xlink:href="dir_000009_000001.html" target="_top" xlink:title="3">
<text text-anchor="middle" x="74.3393" y="-47.0079" font-family="Helvetica,sans-Serif" font-size="10.00" fill="#000000">3</text>
</a>
</g>
</g>
<!-- dir_5f8edfeb0261162cf6bebeb269e395b3 -->
<g id="node3" class="node">
<title>dir_5f8edfeb0261162cf6bebeb269e395b3</title>
<g id="a_node3"><a xlink:href="dir_5f8edfeb0261162cf6bebeb269e395b3.html" target="_top" xlink:title="IO">
<polygon fill="#ffffff" stroke="#000000" points="78,-180 24,-180 24,-144 78,-144 78,-180"/>
<text text-anchor="middle" x="51" y="-159" font-family="Helvetica,sans-Serif" font-size="10.00" fill="#000000">IO</text>
</a>
</g>
</g>
<!-- dir_5f8edfeb0261162cf6bebeb269e395b3&#45;&gt;dir_32365f48e56c6fbaa7801f2e325370ae -->
<g id="edge1" class="edge">
<title>dir_5f8edfeb0261162cf6bebeb269e395b3&#45;&gt;dir_32365f48e56c6fbaa7801f2e325370ae</title>
<path fill="none" stroke="#000000" d="M55.2898,-143.8314C57.108,-136.131 59.2699,-126.9743 61.2905,-118.4166"/>
<polygon fill="#000000" stroke="#000000" points="64.7608,-118.95 63.6524,-108.4133 57.9481,-117.3414 64.7608,-118.95"/>
<g id="a_edge1&#45;headlabel"><a xlink:href="dir_000012_000009.html" target="_top" xlink:title="1">
<text text-anchor="middle" x="66.6981" y="-120.1008" font-family="Helvetica,sans-Serif" font-size="10.00" fill="#000000">1</text>
</a>
</g>
</g>
</g>
</svg>
