<?xml version="1.0" encoding="UTF-8" standalone="no"?>
<!DOCTYPE svg PUBLIC "-//W3C//DTD SVG 1.1//EN"
 "http://www.w3.org/Graphics/SVG/1.1/DTD/svg11.dtd">
<!-- Generated by graphviz version 2.40.1 (20161225.0304)
 -->
<!-- Title: ControlSoftware Pages: 1 -->
<svg width="128pt" height="152pt"
 viewBox="0.00 0.00 128.00 152.00" xmlns="http://www.w3.org/2000/svg" xmlns:xlink="http://www.w3.org/1999/xlink">
<g id="graph0" class="graph" transform="scale(1 1) rotate(0) translate(4 148)">
<title>ControlSoftware</title>
<polygon fill="#ffffff" stroke="transparent" points="-4,4 -4,-148 124,-148 124,4 -4,4"/>
<g id="clust1" class="cluster">
<title>clusterdir_7edc4bcb12e6209d2b87ed142559dd16</title>
<g id="a_clust1"><a xlink:href="dir_7edc4bcb12e6209d2b87ed142559dd16.html" target="_top" xlink:title="Sources">
<polygon fill="#ddddee" stroke="#000000" points="8,-64 8,-136 112,-136 112,-64 8,-64"/>
<text text-anchor="middle" x="60" y="-123" font-family="Helvetica,sans-Serif" font-size="10.00" fill="#000000">Sources</text>
</a>
</g>
</g>
<!-- dir_0276673a64573f5bdbf10069d50aa831 -->
<g id="node1" class="node">
<title>dir_0276673a64573f5bdbf10069d50aa831</title>
<g id="a_node1"><a xlink:href="dir_0276673a64573f5bdbf10069d50aa831.html" target="_top" xlink:title="ControlSoftware">
<polygon fill="#eeeeff" stroke="#000000" points="103.6756,-108 16.3244,-108 16.3244,-72 103.6756,-72 103.6756,-108"/>
<text text-anchor="middle" x="60" y="-87" font-family="Helvetica,sans-Serif" font-size="10.00" fill="#000000">ControlSoftware</text>
</a>
</g>
</g>
<!-- dir_a54a9d1e3981ccde17cbf064713c5f47 -->
<g id="node2" class="node">
<title>dir_a54a9d1e3981ccde17cbf064713c5f47</title>
<g id="a_node2"><a xlink:href="dir_a54a9d1e3981ccde17cbf064713c5f47.html" target="_top" xlink:title="Headers">
<polygon fill="#ffffff" stroke="#ff0000" points="87,-36 33,-36 33,0 87,0 87,-36"/>
<text text-anchor="middle" x="60" y="-15" font-family="Helvetica,sans-Serif" font-size="10.00" fill="#000000">Headers</text>
</a>
</g>
</g>
<!-- dir_0276673a64573f5bdbf10069d50aa831&#45;&gt;dir_a54a9d1e3981ccde17cbf064713c5f47 -->
<g id="edge1" class="edge">
<title>dir_0276673a64573f5bdbf10069d50aa831&#45;&gt;dir_a54a9d1e3981ccde17cbf064713c5f47</title>
<path fill="none" stroke="#000000" d="M60,-71.8314C60,-64.131 60,-54.9743 60,-46.4166"/>
<polygon fill="#000000" stroke="#000000" points="63.5001,-46.4132 60,-36.4133 56.5001,-46.4133 63.5001,-46.4132"/>
<g id="a_edge1&#45;headlabel"><a xlink:href="dir_000005_000003.html" target="_top" xlink:title="10">
<text text-anchor="middle" x="66.3393" y="-47.0079" font-family="Helvetica,sans-Serif" font-size="10.00" fill="#000000">10</text>
</a>
</g>
</g>
</g>
</svg>
