<?xml version="1.0" encoding="UTF-8" standalone="no"?>
<!DOCTYPE svg PUBLIC "-//W3C//DTD SVG 1.1//EN"
 "http://www.w3.org/Graphics/SVG/1.1/DTD/svg11.dtd">
<!-- Generated by graphviz version 2.40.1 (20161225.0304)
 -->
<!-- Title: Headers Pages: 1 -->
<svg width="186pt" height="256pt"
 viewBox="0.00 0.00 186.00 256.00" xmlns="http://www.w3.org/2000/svg" xmlns:xlink="http://www.w3.org/1999/xlink">
<g id="graph0" class="graph" transform="scale(1 1) rotate(0) translate(4 252)">
<title>Headers</title>
<polygon fill="#ffffff" stroke="transparent" points="-4,4 -4,-252 182,-252 182,4 -4,4"/>
<g id="clust1" class="cluster">
<title>clusterdir_1b81b61ac01831e6061e0ad968e64f03</title>
<g id="a_clust1"><a xlink:href="dir_1b81b61ac01831e6061e0ad968e64f03.html" target="_top" xlink:title="MainApplication">
<polygon fill="#ddddee" stroke="#000000" points="8,-8 8,-240 170,-240 170,-8 8,-8"/>
<text text-anchor="middle" x="89" y="-227" font-family="Helvetica,sans-Serif" font-size="10.00" fill="#000000">MainApplication</text>
</a>
</g>
</g>
<g id="clust2" class="cluster">
<title>clusterdir_a54a9d1e3981ccde17cbf064713c5f47</title>
<g id="a_clust2"><a xlink:href="dir_a54a9d1e3981ccde17cbf064713c5f47.html" target="_top">
<polygon fill="#eeeeff" stroke="#000000" points="16,-16 16,-212 162,-212 162,-16 16,-16"/>
</a>
</g>
</g>
<!-- dir_a54a9d1e3981ccde17cbf064713c5f47 -->
<g id="node1" class="node">
<title>dir_a54a9d1e3981ccde17cbf064713c5f47</title>
<text text-anchor="middle" x="127" y="-183" font-family="Helvetica,sans-Serif" font-size="10.00" fill="#000000">Headers</text>
</g>
<!-- dir_a30652010790e59a7ce655b01968a707 -->
<g id="node2" class="node">
<title>dir_a30652010790e59a7ce655b01968a707</title>
<g id="a_node2"><a xlink:href="dir_a30652010790e59a7ce655b01968a707.html" target="_top" xlink:title="Bluetooth">
<polygon fill="#ffffff" stroke="#000000" points="82.2415,-60 23.7585,-60 23.7585,-24 82.2415,-24 82.2415,-60"/>
<text text-anchor="middle" x="53" y="-39" font-family="Helvetica,sans-Serif" font-size="10.00" fill="#000000">Bluetooth</text>
</a>
</g>
</g>
<!-- dir_32365f48e56c6fbaa7801f2e325370ae -->
<g id="node3" class="node">
<title>dir_32365f48e56c6fbaa7801f2e325370ae</title>
<g id="a_node3"><a xlink:href="dir_32365f48e56c6fbaa7801f2e325370ae.html" target="_top" xlink:title="ControlSoftware">
<polygon fill="#ffffff" stroke="#000000" points="111.6756,-132 24.3244,-132 24.3244,-96 111.6756,-96 111.6756,-132"/>
<text text-anchor="middle" x="68" y="-111" font-family="Helvetica,sans-Serif" font-size="10.00" fill="#000000">ControlSoftware</text>
</a>
</g>
</g>
<!-- dir_32365f48e56c6fbaa7801f2e325370ae&#45;&gt;dir_a30652010790e59a7ce655b01968a707 -->
<g id="edge2" class="edge">
<title>dir_32365f48e56c6fbaa7801f2e325370ae&#45;&gt;dir_a30652010790e59a7ce655b01968a707</title>
<path fill="none" stroke="#000000" d="M64.2149,-95.8314C62.6106,-88.131 60.703,-78.9743 58.9201,-70.4166"/>
<polygon fill="#000000" stroke="#000000" points="62.3021,-69.4892 56.8361,-60.4133 55.4493,-70.9169 62.3021,-69.4892"/>
<g id="a_edge2&#45;headlabel"><a xlink:href="dir_000006_000004.html" target="_top" xlink:title="2">
<text text-anchor="middle" x="65.8148" y="-69.4292" font-family="Helvetica,sans-Serif" font-size="10.00" fill="#000000">2</text>
</a>
</g>
</g>
<!-- dir_587822e9450c57c1a0a775b467122bbe -->
<g id="node4" class="node">
<title>dir_587822e9450c57c1a0a775b467122bbe</title>
<g id="a_node4"><a xlink:href="dir_587822e9450c57c1a0a775b467122bbe.html" target="_top" xlink:title="Core">
<polygon fill="#ffffff" stroke="#ff0000" points="154,-60 100,-60 100,-24 154,-24 154,-60"/>
<text text-anchor="middle" x="127" y="-39" font-family="Helvetica,sans-Serif" font-size="10.00" fill="#000000">Core</text>
</a>
</g>
</g>
<!-- dir_32365f48e56c6fbaa7801f2e325370ae&#45;&gt;dir_587822e9450c57c1a0a775b467122bbe -->
<g id="edge3" class="edge">
<title>dir_32365f48e56c6fbaa7801f2e325370ae&#45;&gt;dir_587822e9450c57c1a0a775b467122bbe</title>
<path fill="none" stroke="#000000" d="M82.8882,-95.8314C89.753,-87.454 98.0301,-77.3531 105.5511,-68.1749"/>
<polygon fill="#000000" stroke="#000000" points="108.2803,-70.3665 111.9114,-60.4133 102.8659,-65.9297 108.2803,-70.3665"/>
<g id="a_edge3&#45;headlabel"><a xlink:href="dir_000006_000009.html" target="_top" xlink:title="1">
<text text-anchor="middle" x="108.1981" y="-71.9464" font-family="Helvetica,sans-Serif" font-size="10.00" fill="#000000">1</text>
</a>
</g>
</g>
<!-- dir_5f8edfeb0261162cf6bebeb269e395b3 -->
<g id="node5" class="node">
<title>dir_5f8edfeb0261162cf6bebeb269e395b3</title>
<g id="a_node5"><a xlink:href="dir_5f8edfeb0261162cf6bebeb269e395b3.html" target="_top" xlink:title="IO">
<polygon fill="#ffffff" stroke="#000000" points="82,-204 28,-204 28,-168 82,-168 82,-204"/>
<text text-anchor="middle" x="55" y="-183" font-family="Helvetica,sans-Serif" font-size="10.00" fill="#000000">IO</text>
</a>
</g>
</g>
<!-- dir_5f8edfeb0261162cf6bebeb269e395b3&#45;&gt;dir_32365f48e56c6fbaa7801f2e325370ae -->
<g id="edge1" class="edge">
<title>dir_5f8edfeb0261162cf6bebeb269e395b3&#45;&gt;dir_32365f48e56c6fbaa7801f2e325370ae</title>
<path fill="none" stroke="#000000" d="M58.2804,-167.8314C59.6708,-160.131 61.3241,-150.9743 62.8692,-142.4166"/>
<polygon fill="#000000" stroke="#000000" points="66.3428,-142.8761 64.6754,-132.4133 59.4542,-141.6322 66.3428,-142.8761"/>
<g id="a_edge1&#45;headlabel"><a xlink:href="dir_000011_000006.html" target="_top" xlink:title="1">
<text text-anchor="middle" x="68.4983" y="-143.9179" font-family="Helvetica,sans-Serif" font-size="10.00" fill="#000000">1</text>
</a>
</g>
</g>
</g>
</svg>
