<?xml version="1.0" encoding="UTF-8" standalone="no"?>
<!DOCTYPE svg PUBLIC "-//W3C//DTD SVG 1.1//EN"
 "http://www.w3.org/Graphics/SVG/1.1/DTD/svg11.dtd">
<!-- Generated by graphviz version 2.40.1 (20161225.0304)
 -->
<!-- Title: Headers Pages: 1 -->
<svg width="380pt" height="184pt"
 viewBox="0.00 0.00 380.00 184.00" xmlns="http://www.w3.org/2000/svg" xmlns:xlink="http://www.w3.org/1999/xlink">
<g id="graph0" class="graph" transform="scale(1 1) rotate(0) translate(4 180)">
<title>Headers</title>
<polygon fill="#ffffff" stroke="transparent" points="-4,4 -4,-180 376,-180 376,4 -4,4"/>
<g id="clust1" class="cluster">
<title>clusterdir_1b81b61ac01831e6061e0ad968e64f03</title>
<g id="a_clust1"><a xlink:href="dir_1b81b61ac01831e6061e0ad968e64f03.html" target="_top" xlink:title="MainApplication">
<polygon fill="#ddddee" stroke="#000000" points="8,-8 8,-168 364,-168 364,-8 8,-8"/>
<text text-anchor="middle" x="186" y="-155" font-family="Helvetica,sans-Serif" font-size="10.00" fill="#000000">MainApplication</text>
</a>
</g>
</g>
<g id="clust2" class="cluster">
<title>clusterdir_a54a9d1e3981ccde17cbf064713c5f47</title>
<g id="a_clust2"><a xlink:href="dir_a54a9d1e3981ccde17cbf064713c5f47.html" target="_top">
<polygon fill="#eeeeff" stroke="#000000" points="16,-16 16,-140 356,-140 356,-16 16,-16"/>
</a>
</g>
</g>
<!-- dir_a54a9d1e3981ccde17cbf064713c5f47 -->
<g id="node1" class="node">
<title>dir_a54a9d1e3981ccde17cbf064713c5f47</title>
<text text-anchor="middle" x="321" y="-111" font-family="Helvetica,sans-Serif" font-size="10.00" fill="#000000">Headers</text>
</g>
<!-- dir_a30652010790e59a7ce655b01968a707 -->
<g id="node2" class="node">
<title>dir_a30652010790e59a7ce655b01968a707</title>
<g id="a_node2"><a xlink:href="dir_a30652010790e59a7ce655b01968a707.html" target="_top" xlink:title="Bluetooth">
<polygon fill="#ffffff" stroke="#000000" points="211.2415,-60 152.7585,-60 152.7585,-24 211.2415,-24 211.2415,-60"/>
<text text-anchor="middle" x="182" y="-39" font-family="Helvetica,sans-Serif" font-size="10.00" fill="#000000">Bluetooth</text>
</a>
</g>
</g>
<!-- dir_32365f48e56c6fbaa7801f2e325370ae -->
<g id="node3" class="node">
<title>dir_32365f48e56c6fbaa7801f2e325370ae</title>
<g id="a_node3"><a xlink:href="dir_32365f48e56c6fbaa7801f2e325370ae.html" target="_top" xlink:title="ControlSoftware">
<polygon fill="#ffffff" stroke="#000000" points="275.6756,-132 188.3244,-132 188.3244,-96 275.6756,-96 275.6756,-132"/>
<text text-anchor="middle" x="232" y="-111" font-family="Helvetica,sans-Serif" font-size="10.00" fill="#000000">ControlSoftware</text>
</a>
</g>
</g>
<!-- dir_32365f48e56c6fbaa7801f2e325370ae&#45;&gt;dir_a30652010790e59a7ce655b01968a707 -->
<g id="edge4" class="edge">
<title>dir_32365f48e56c6fbaa7801f2e325370ae&#45;&gt;dir_a30652010790e59a7ce655b01968a707</title>
<path fill="none" stroke="#000000" d="M219.3829,-95.8314C213.6828,-87.6232 206.8337,-77.7606 200.5641,-68.7323"/>
<polygon fill="#000000" stroke="#000000" points="203.3658,-66.6306 194.787,-60.4133 197.6162,-70.6234 203.3658,-66.6306"/>
<g id="a_edge4&#45;headlabel"><a xlink:href="dir_000006_000004.html" target="_top" xlink:title="2">
<text text-anchor="middle" x="207.7482" y="-64.9636" font-family="Helvetica,sans-Serif" font-size="10.00" fill="#000000">2</text>
</a>
</g>
</g>
<!-- dir_5f8edfeb0261162cf6bebeb269e395b3 -->
<g id="node5" class="node">
<title>dir_5f8edfeb0261162cf6bebeb269e395b3</title>
<g id="a_node5"><a xlink:href="dir_5f8edfeb0261162cf6bebeb269e395b3.html" target="_top" xlink:title="IO">
<polygon fill="#ffffff" stroke="#000000" points="283,-60 229,-60 229,-24 283,-24 283,-60"/>
<text text-anchor="middle" x="256" y="-39" font-family="Helvetica,sans-Serif" font-size="10.00" fill="#000000">IO</text>
</a>
</g>
</g>
<!-- dir_32365f48e56c6fbaa7801f2e325370ae&#45;&gt;dir_5f8edfeb0261162cf6bebeb269e395b3 -->
<g id="edge3" class="edge">
<title>dir_32365f48e56c6fbaa7801f2e325370ae&#45;&gt;dir_5f8edfeb0261162cf6bebeb269e395b3</title>
<path fill="none" stroke="#000000" d="M232.1038,-95.8314C233.9601,-87.9617 236.8764,-78.5712 240.1216,-69.8533"/>
<polygon fill="#000000" stroke="#000000" points="243.4329,-70.9984 243.8862,-60.4133 236.9309,-68.4054 243.4329,-70.9984"/>
<g id="a_edge3&#45;headlabel"><a xlink:href="dir_000006_000008.html" target="_top" xlink:title="1">
<text text-anchor="middle" x="244.7387" y="-72.389" font-family="Helvetica,sans-Serif" font-size="10.00" fill="#000000">1</text>
</a>
</g>
</g>
<!-- dir_587822e9450c57c1a0a775b467122bbe -->
<g id="node4" class="node">
<title>dir_587822e9450c57c1a0a775b467122bbe</title>
<g id="a_node4"><a xlink:href="dir_587822e9450c57c1a0a775b467122bbe.html" target="_top" xlink:title="Core">
<polygon fill="#ffffff" stroke="#000000" points="135,-60 81,-60 81,-24 135,-24 135,-60"/>
<text text-anchor="middle" x="108" y="-39" font-family="Helvetica,sans-Serif" font-size="10.00" fill="#000000">Core</text>
</a>
</g>
</g>
<!-- dir_5f8edfeb0261162cf6bebeb269e395b3&#45;&gt;dir_32365f48e56c6fbaa7801f2e325370ae -->
<g id="edge2" class="edge">
<title>dir_5f8edfeb0261162cf6bebeb269e395b3&#45;&gt;dir_32365f48e56c6fbaa7801f2e325370ae</title>
<path fill="none" stroke="#000000" d="M255.8383,-60.4133C253.9601,-68.3141 251.0295,-77.7132 247.7776,-86.417"/>
<polygon fill="#000000" stroke="#000000" points="244.4761,-85.2468 244.0086,-95.8314 250.9746,-87.8485 244.4761,-85.2468"/>
<g id="a_edge2&#45;headlabel"><a xlink:href="dir_000008_000006.html" target="_top" xlink:title="1">
<text text-anchor="middle" x="243.1761" y="-77.8545" font-family="Helvetica,sans-Serif" font-size="10.00" fill="#000000">1</text>
</a>
</g>
</g>
<!-- dir_1a2cd6617c39cfd598bdf9007a5467b7 -->
<g id="node6" class="node">
<title>dir_1a2cd6617c39cfd598bdf9007a5467b7</title>
<g id="a_node6"><a xlink:href="dir_1a2cd6617c39cfd598bdf9007a5467b7.html" target="_top" xlink:title="MotorControl">
<polygon fill="#ffffff" stroke="#000000" points="169.7783,-132 96.2217,-132 96.2217,-96 169.7783,-96 169.7783,-132"/>
<text text-anchor="middle" x="133" y="-111" font-family="Helvetica,sans-Serif" font-size="10.00" fill="#000000">MotorControl</text>
</a>
</g>
</g>
<!-- dir_1a2cd6617c39cfd598bdf9007a5467b7&#45;&gt;dir_587822e9450c57c1a0a775b467122bbe -->
<g id="edge1" class="edge">
<title>dir_1a2cd6617c39cfd598bdf9007a5467b7&#45;&gt;dir_587822e9450c57c1a0a775b467122bbe</title>
<path fill="none" stroke="#000000" d="M126.6914,-95.8314C123.9883,-88.0463 120.7684,-78.7729 117.769,-70.1347"/>
<polygon fill="#000000" stroke="#000000" points="120.98,-68.7119 114.3935,-60.4133 114.3673,-71.0081 120.98,-68.7119"/>
<g id="a_edge1&#45;headlabel"><a xlink:href="dir_000013_000009.html" target="_top" xlink:title="1">
<text text-anchor="middle" x="124.8412" y="-68.1764" font-family="Helvetica,sans-Serif" font-size="10.00" fill="#000000">1</text>
</a>
</g>
</g>
<!-- dir_35546983061f61db99432fd33b2419b0 -->
<g id="node7" class="node">
<title>dir_35546983061f61db99432fd33b2419b0</title>
<g id="a_node7"><a xlink:href="dir_35546983061f61db99432fd33b2419b0.html" target="_top" xlink:title="PRU">
<polygon fill="#ffffff" stroke="#000000" points="78,-132 24,-132 24,-96 78,-96 78,-132"/>
<text text-anchor="middle" x="51" y="-111" font-family="Helvetica,sans-Serif" font-size="10.00" fill="#000000">PRU</text>
</a>
</g>
</g>
</g>
</svg>
