<?xml version="1.0" encoding="UTF-8" standalone="no"?>
<!DOCTYPE svg PUBLIC "-//W3C//DTD SVG 1.1//EN"
 "http://www.w3.org/Graphics/SVG/1.1/DTD/svg11.dtd">
<!-- Generated by graphviz version 2.40.1 (20161225.0304)
 -->
<!-- Title: Sources Pages: 1 -->
<svg width="288pt" height="232pt"
 viewBox="0.00 0.00 288.00 232.00" xmlns="http://www.w3.org/2000/svg" xmlns:xlink="http://www.w3.org/1999/xlink">
<g id="graph0" class="graph" transform="scale(1 1) rotate(0) translate(4 228)">
<title>Sources</title>
<polygon fill="#ffffff" stroke="transparent" points="-4,4 -4,-228 284,-228 284,4 -4,4"/>
<g id="clust1" class="cluster">
<title>clusterdir_1b81b61ac01831e6061e0ad968e64f03</title>
<g id="a_clust1"><a xlink:href="dir_1b81b61ac01831e6061e0ad968e64f03.html" target="_top" xlink:title="MainApplication">
<polygon fill="#ddddee" stroke="#000000" points="8,-128 8,-216 272,-216 272,-128 8,-128"/>
<text text-anchor="middle" x="140" y="-203" font-family="Helvetica,sans-Serif" font-size="10.00" fill="#000000">MainApplication</text>
</a>
</g>
</g>
<g id="clust2" class="cluster">
<title>clusterdir_7edc4bcb12e6209d2b87ed142559dd16</title>
<g id="a_clust2"><a xlink:href="dir_7edc4bcb12e6209d2b87ed142559dd16.html" target="_top">
<polygon fill="#eeeeff" stroke="#000000" points="16,-136 16,-188 264,-188 264,-136 16,-136"/>
</a>
</g>
</g>
<!-- dir_7edc4bcb12e6209d2b87ed142559dd16 -->
<g id="node1" class="node">
<title>dir_7edc4bcb12e6209d2b87ed142559dd16</title>
<text text-anchor="middle" x="229" y="-159" font-family="Helvetica,sans-Serif" font-size="10.00" fill="#000000">Sources</text>
</g>
<!-- dir_0276673a64573f5bdbf10069d50aa831 -->
<g id="node2" class="node">
<title>dir_0276673a64573f5bdbf10069d50aa831</title>
<g id="a_node2"><a xlink:href="dir_0276673a64573f5bdbf10069d50aa831.html" target="_top" xlink:title="ControlSoftware">
<polygon fill="#ffffff" stroke="#000000" points="111.6756,-180 24.3244,-180 24.3244,-144 111.6756,-144 111.6756,-180"/>
<text text-anchor="middle" x="68" y="-159" font-family="Helvetica,sans-Serif" font-size="10.00" fill="#000000">ControlSoftware</text>
</a>
</g>
</g>
<!-- dir_a54a9d1e3981ccde17cbf064713c5f47 -->
<g id="node4" class="node">
<title>dir_a54a9d1e3981ccde17cbf064713c5f47</title>
<g id="a_node4"><a xlink:href="dir_a54a9d1e3981ccde17cbf064713c5f47.html" target="_top" xlink:title="Headers">
<polygon fill="#ffffff" stroke="#ff0000" points="139,-108 85,-108 85,-72 139,-72 139,-108"/>
<text text-anchor="middle" x="112" y="-87" font-family="Helvetica,sans-Serif" font-size="10.00" fill="#000000">Headers</text>
</a>
</g>
</g>
<!-- dir_0276673a64573f5bdbf10069d50aa831&#45;&gt;dir_a54a9d1e3981ccde17cbf064713c5f47 -->
<g id="edge2" class="edge">
<title>dir_0276673a64573f5bdbf10069d50aa831&#45;&gt;dir_a54a9d1e3981ccde17cbf064713c5f47</title>
<path fill="none" stroke="#000000" d="M79.1031,-143.8314C84.0674,-135.7079 90.0222,-125.9637 95.4928,-117.0118"/>
<polygon fill="#000000" stroke="#000000" points="98.5194,-118.7712 100.7474,-108.4133 92.5464,-115.121 98.5194,-118.7712"/>
<g id="a_edge2&#45;headlabel"><a xlink:href="dir_000011_000006.html" target="_top" xlink:title="11">
<text text-anchor="middle" x="99.0677" y="-120.3189" font-family="Helvetica,sans-Serif" font-size="10.00" fill="#000000">11</text>
</a>
</g>
</g>
<!-- dir_987148c65bc53438ab99c2dd2af7d909 -->
<g id="node5" class="node">
<title>dir_987148c65bc53438ab99c2dd2af7d909</title>
<g id="a_node5"><a xlink:href="dir_987148c65bc53438ab99c2dd2af7d909.html" target="_top" xlink:title="BBBLibrary">
<polygon fill="#ffffff" stroke="#ff0000" points="145.0624,-36 78.9376,-36 78.9376,0 145.0624,0 145.0624,-36"/>
<text text-anchor="middle" x="112" y="-15" font-family="Helvetica,sans-Serif" font-size="10.00" fill="#000000">BBBLibrary</text>
</a>
</g>
</g>
<!-- dir_0276673a64573f5bdbf10069d50aa831&#45;&gt;dir_987148c65bc53438ab99c2dd2af7d909 -->
<g id="edge3" class="edge">
<title>dir_0276673a64573f5bdbf10069d50aa831&#45;&gt;dir_987148c65bc53438ab99c2dd2af7d909</title>
<path fill="none" stroke="#000000" d="M67.0243,-143.8591C66.6144,-125.2787 67.6174,-95.8237 76,-72 79.3862,-62.3761 84.8808,-52.8046 90.5685,-44.4524"/>
<polygon fill="#000000" stroke="#000000" points="93.4802,-46.3984 96.4855,-36.2388 87.8005,-42.3068 93.4802,-46.3984"/>
<g id="a_edge3&#45;headlabel"><a xlink:href="dir_000011_000001.html" target="_top" xlink:title="9">
<text text-anchor="middle" x="93.6829" y="-47.9746" font-family="Helvetica,sans-Serif" font-size="10.00" fill="#000000">9</text>
</a>
</g>
</g>
<!-- dir_1a2eb8c280f4fb4347a6ed2342e20462 -->
<g id="node3" class="node">
<title>dir_1a2eb8c280f4fb4347a6ed2342e20462</title>
<g id="a_node3"><a xlink:href="dir_1a2eb8c280f4fb4347a6ed2342e20462.html" target="_top" xlink:title="IO">
<polygon fill="#ffffff" stroke="#000000" points="184,-180 130,-180 130,-144 184,-144 184,-180"/>
<text text-anchor="middle" x="157" y="-159" font-family="Helvetica,sans-Serif" font-size="10.00" fill="#000000">IO</text>
</a>
</g>
</g>
<!-- dir_1a2eb8c280f4fb4347a6ed2342e20462&#45;&gt;dir_a54a9d1e3981ccde17cbf064713c5f47 -->
<g id="edge4" class="edge">
<title>dir_1a2eb8c280f4fb4347a6ed2342e20462&#45;&gt;dir_a54a9d1e3981ccde17cbf064713c5f47</title>
<path fill="none" stroke="#000000" d="M145.6446,-143.8314C140.5674,-135.7079 134.4773,-125.9637 128.8824,-117.0118"/>
<polygon fill="#000000" stroke="#000000" points="131.7763,-115.0383 123.5083,-108.4133 125.8403,-118.7483 131.7763,-115.0383"/>
<g id="a_edge4&#45;headlabel"><a xlink:href="dir_000013_000006.html" target="_top" xlink:title="4">
<text text-anchor="middle" x="136.0891" y="-113.5817" font-family="Helvetica,sans-Serif" font-size="10.00" fill="#000000">4</text>
</a>
</g>
</g>
<!-- dir_1a2eb8c280f4fb4347a6ed2342e20462&#45;&gt;dir_987148c65bc53438ab99c2dd2af7d909 -->
<g id="edge5" class="edge">
<title>dir_1a2eb8c280f4fb4347a6ed2342e20462&#45;&gt;dir_987148c65bc53438ab99c2dd2af7d909</title>
<path fill="none" stroke="#000000" d="M157.7226,-143.8501C157.885,-125.2626 156.5225,-95.8019 148,-72 144.5608,-62.3949 139.0508,-52.8289 133.3651,-44.4759"/>
<polygon fill="#000000" stroke="#000000" points="136.1362,-42.3344 127.4559,-36.2596 130.4533,-46.4216 136.1362,-42.3344"/>
<g id="a_edge5&#45;headlabel"><a xlink:href="dir_000013_000001.html" target="_top" xlink:title="4">
<text text-anchor="middle" x="140.54" y="-40.5949" font-family="Helvetica,sans-Serif" font-size="10.00" fill="#000000">4</text>
</a>
</g>
</g>
<!-- dir_a54a9d1e3981ccde17cbf064713c5f47&#45;&gt;dir_987148c65bc53438ab99c2dd2af7d909 -->
<g id="edge1" class="edge">
<title>dir_a54a9d1e3981ccde17cbf064713c5f47&#45;&gt;dir_987148c65bc53438ab99c2dd2af7d909</title>
<path fill="none" stroke="#000000" d="M112,-71.8314C112,-64.131 112,-54.9743 112,-46.4166"/>
<polygon fill="#000000" stroke="#000000" points="115.5001,-46.4132 112,-36.4133 108.5001,-46.4133 115.5001,-46.4132"/>
<g id="a_edge1&#45;headlabel"><a xlink:href="dir_000006_000001.html" target="_top" xlink:title="3">
<text text-anchor="middle" x="118.3393" y="-47.0079" font-family="Helvetica,sans-Serif" font-size="10.00" fill="#000000">3</text>
</a>
</g>
</g>
</g>
</svg>
