<?xml version="1.0" encoding="UTF-8" standalone="no"?>
<!DOCTYPE svg PUBLIC "-//W3C//DTD SVG 1.1//EN"
 "http://www.w3.org/Graphics/SVG/1.1/DTD/svg11.dtd">
<!-- Generated by graphviz version 2.40.1 (20161225.0304)
 -->
<!-- Title: Core Pages: 1 -->
<svg width="346pt" height="160pt"
 viewBox="0.00 0.00 346.00 160.00" xmlns="http://www.w3.org/2000/svg" xmlns:xlink="http://www.w3.org/1999/xlink">
<g id="graph0" class="graph" transform="scale(1 1) rotate(0) translate(4 156)">
<title>Core</title>
<polygon fill="#ffffff" stroke="transparent" points="-4,4 -4,-156 342,-156 342,4 -4,4"/>
<g id="clust1" class="cluster">
<title>clusterdir_7edc4bcb12e6209d2b87ed142559dd16</title>
<g id="a_clust1"><a xlink:href="dir_7edc4bcb12e6209d2b87ed142559dd16.html" target="_top" xlink:title="Sources">
<polygon fill="#ddddee" stroke="#000000" points="8,-56 8,-144 330,-144 330,-56 8,-56"/>
<text text-anchor="middle" x="169" y="-131" font-family="Helvetica,sans-Serif" font-size="10.00" fill="#000000">Sources</text>
</a>
</g>
</g>
<g id="clust2" class="cluster">
<title>clusterdir_6128fcfee895fc4225f33af940001cbd</title>
<g id="a_clust2"><a xlink:href="dir_6128fcfee895fc4225f33af940001cbd.html" target="_top">
<polygon fill="#eeeeff" stroke="#000000" points="16,-64 16,-116 322,-116 322,-64 16,-64"/>
</a>
</g>
</g>
<!-- dir_6128fcfee895fc4225f33af940001cbd -->
<g id="node1" class="node">
<title>dir_6128fcfee895fc4225f33af940001cbd</title>
<text text-anchor="middle" x="287" y="-87" font-family="Helvetica,sans-Serif" font-size="10.00" fill="#000000">Core</text>
</g>
<!-- dir_a54a9d1e3981ccde17cbf064713c5f47 -->
<g id="node5" class="node">
<title>dir_a54a9d1e3981ccde17cbf064713c5f47</title>
<g id="a_node5"><a xlink:href="dir_a54a9d1e3981ccde17cbf064713c5f47.html" target="_top" xlink:title="Headers">
<polygon fill="#ffffff" stroke="#ff0000" points="201,-36 147,-36 147,0 201,0 201,-36"/>
<text text-anchor="middle" x="174" y="-15" font-family="Helvetica,sans-Serif" font-size="10.00" fill="#000000">Headers</text>
</a>
</g>
</g>
<!-- dir_6128fcfee895fc4225f33af940001cbd&#45;&gt;dir_a54a9d1e3981ccde17cbf064713c5f47 -->
<g id="edge3" class="edge">
<title>dir_6128fcfee895fc4225f33af940001cbd&#45;&gt;dir_a54a9d1e3981ccde17cbf064713c5f47</title>
<path fill="none" stroke="#000000" d="M269.9672,-71.9285C264.2506,-66.4233 257.6345,-60.6137 251,-56 238.4924,-47.3021 223.7001,-39.4929 210.4404,-33.249"/>
<polygon fill="#000000" stroke="#000000" points="211.6611,-29.9588 201.1107,-28.9887 208.7534,-36.3263 211.6611,-29.9588"/>
<g id="a_edge3&#45;headlabel"><a xlink:href="dir_000007_000003.html" target="_top" xlink:title="13">
<text text-anchor="middle" x="216.1103" y="-25.8691" font-family="Helvetica,sans-Serif" font-size="10.00" fill="#000000">13</text>
</a>
</g>
</g>
<!-- dir_0b746b38c9cf4b3ccf6b0d0c6cb94a35 -->
<g id="node2" class="node">
<title>dir_0b746b38c9cf4b3ccf6b0d0c6cb94a35</title>
<g id="a_node2"><a xlink:href="dir_0b746b38c9cf4b3ccf6b0d0c6cb94a35.html" target="_top" xlink:title="IO">
<polygon fill="#ffffff" stroke="#000000" points="242,-108 188,-108 188,-72 242,-72 242,-108"/>
<text text-anchor="middle" x="215" y="-87" font-family="Helvetica,sans-Serif" font-size="10.00" fill="#000000">IO</text>
</a>
</g>
</g>
<!-- dir_0b746b38c9cf4b3ccf6b0d0c6cb94a35&#45;&gt;dir_a54a9d1e3981ccde17cbf064713c5f47 -->
<g id="edge2" class="edge">
<title>dir_0b746b38c9cf4b3ccf6b0d0c6cb94a35&#45;&gt;dir_a54a9d1e3981ccde17cbf064713c5f47</title>
<path fill="none" stroke="#000000" d="M204.654,-71.8314C200.0763,-63.7925 194.5948,-54.1666 189.5412,-45.2918"/>
<polygon fill="#000000" stroke="#000000" points="192.4752,-43.3712 184.4853,-36.4133 186.3923,-46.8351 192.4752,-43.3712"/>
<g id="a_edge2&#45;headlabel"><a xlink:href="dir_000008_000003.html" target="_top" xlink:title="6">
<text text-anchor="middle" x="196.7212" y="-42.0899" font-family="Helvetica,sans-Serif" font-size="10.00" fill="#000000">6</text>
</a>
</g>
</g>
<!-- dir_4119c0cd5bacdb5d6b5b9ca75c22efa2 -->
<g id="node3" class="node">
<title>dir_4119c0cd5bacdb5d6b5b9ca75c22efa2</title>
<g id="a_node3"><a xlink:href="dir_4119c0cd5bacdb5d6b5b9ca75c22efa2.html" target="_top" xlink:title="MotorControl">
<polygon fill="#ffffff" stroke="#000000" points="169.7783,-108 96.2217,-108 96.2217,-72 169.7783,-72 169.7783,-108"/>
<text text-anchor="middle" x="133" y="-87" font-family="Helvetica,sans-Serif" font-size="10.00" fill="#000000">MotorControl</text>
</a>
</g>
</g>
<!-- dir_4119c0cd5bacdb5d6b5b9ca75c22efa2&#45;&gt;dir_a54a9d1e3981ccde17cbf064713c5f47 -->
<g id="edge4" class="edge">
<title>dir_4119c0cd5bacdb5d6b5b9ca75c22efa2&#45;&gt;dir_a54a9d1e3981ccde17cbf064713c5f47</title>
<path fill="none" stroke="#000000" d="M143.346,-71.8314C147.9237,-63.7925 153.4052,-54.1666 158.4588,-45.2918"/>
<polygon fill="#000000" stroke="#000000" points="161.6077,-46.8351 163.5147,-36.4133 155.5248,-43.3712 161.6077,-46.8351"/>
<g id="a_edge4&#45;headlabel"><a xlink:href="dir_000015_000003.html" target="_top" xlink:title="4">
<text text-anchor="middle" x="162.2963" y="-48.3637" font-family="Helvetica,sans-Serif" font-size="10.00" fill="#000000">4</text>
</a>
</g>
</g>
<!-- dir_29b3cdf2ace9b471d46f94fc6def7890 -->
<g id="node4" class="node">
<title>dir_29b3cdf2ace9b471d46f94fc6def7890</title>
<g id="a_node4"><a xlink:href="dir_29b3cdf2ace9b471d46f94fc6def7890.html" target="_top" xlink:title="PRU">
<polygon fill="#ffffff" stroke="#000000" points="78,-108 24,-108 24,-72 78,-72 78,-108"/>
<text text-anchor="middle" x="51" y="-87" font-family="Helvetica,sans-Serif" font-size="10.00" fill="#000000">PRU</text>
</a>
</g>
</g>
<!-- dir_29b3cdf2ace9b471d46f94fc6def7890&#45;&gt;dir_a54a9d1e3981ccde17cbf064713c5f47 -->
<g id="edge1" class="edge">
<title>dir_29b3cdf2ace9b471d46f94fc6def7890&#45;&gt;dir_a54a9d1e3981ccde17cbf064713c5f47</title>
<path fill="none" stroke="#000000" d="M67.9058,-71.7412C73.6156,-66.2259 80.2597,-60.4578 87,-56 102.4831,-45.7601 121.1816,-37.1752 137.2696,-30.7711"/>
<polygon fill="#000000" stroke="#000000" points="138.819,-33.9253 146.8972,-27.0702 136.3073,-27.3914 138.819,-33.9253"/>
<g id="a_edge1&#45;headlabel"><a xlink:href="dir_000013_000003.html" target="_top" xlink:title="2">
<text text-anchor="middle" x="136.4825" y="-34.8652" font-family="Helvetica,sans-Serif" font-size="10.00" fill="#000000">2</text>
</a>
</g>
</g>
</g>
</svg>
