<?xml version="1.0" encoding="UTF-8" standalone="no"?>
<!DOCTYPE svg PUBLIC "-//W3C//DTD SVG 1.1//EN"
 "http://www.w3.org/Graphics/SVG/1.1/DTD/svg11.dtd">
<!-- Generated by graphviz version 2.40.1 (20161225.0304)
 -->
<!-- Title: Graphical Class Hierarchy Pages: 1 -->
<svg width="302pt" height="92pt"
 viewBox="0.00 0.00 301.61 92.00" xmlns="http://www.w3.org/2000/svg" xmlns:xlink="http://www.w3.org/1999/xlink">
<g id="graph0" class="graph" transform="scale(1 1) rotate(0) translate(4 88)">
<title>Graphical Class Hierarchy</title>
<polygon fill="#ffffff" stroke="transparent" points="-4,4 -4,-88 297.612,-88 297.612,4 -4,4"/>
<!-- Node0 -->
<g id="node1" class="node">
<title>Node0</title>
<g id="a_node1"><a xlink:href="classVehicleControl_1_1Bluetooth_1_1Base.html" target="_top" xlink:title="The Base class is the base class for the bluetooth client and server. This class contains helper meth...">
<polygon fill="#ffffff" stroke="#000000" points="0,-25.5 0,-57.5 128.806,-57.5 128.806,-25.5 0,-25.5"/>
<text text-anchor="start" x="8" y="-44.5" font-family="Helvetica,sans-Serif" font-size="10.00" fill="#000000">VehicleControl::Bluetooth</text>
<text text-anchor="middle" x="64.403" y="-32.5" font-family="Helvetica,sans-Serif" font-size="10.00" fill="#000000">::Base</text>
</a>
</g>
</g>
<!-- Node1 -->
<g id="node2" class="node">
<title>Node1</title>
<g id="a_node2"><a xlink:href="classVehicleControl_1_1Bluetooth_1_1Client.html" target="_top" xlink:title="The Client class. ">
<polygon fill="#ffffff" stroke="#000000" points="164.806,-51.5 164.806,-83.5 293.612,-83.5 293.612,-51.5 164.806,-51.5"/>
<text text-anchor="start" x="172.806" y="-70.5" font-family="Helvetica,sans-Serif" font-size="10.00" fill="#000000">VehicleControl::Bluetooth</text>
<text text-anchor="middle" x="229.209" y="-58.5" font-family="Helvetica,sans-Serif" font-size="10.00" fill="#000000">::Client</text>
</a>
</g>
</g>
<!-- Node0&#45;&gt;Node1 -->
<g id="edge1" class="edge">
<title>Node0&#45;&gt;Node1</title>
<path fill="none" stroke="#191970" d="M139.054,-53.277C147.6258,-54.6293 156.3106,-55.9995 164.7328,-57.3282"/>
<polygon fill="#191970" stroke="#191970" points="139.489,-49.8024 129.0657,-51.7013 138.3981,-56.7169 139.489,-49.8024"/>
</g>
<!-- Node2 -->
<g id="node3" class="node">
<title>Node2</title>
<g id="a_node3"><a xlink:href="classVehicleControl_1_1Bluetooth_1_1Server.html" target="_top" xlink:title="VehicleControl::Bluetooth\l::Server">
<polygon fill="#ffffff" stroke="#000000" points="164.806,-.5 164.806,-32.5 293.612,-32.5 293.612,-.5 164.806,-.5"/>
<text text-anchor="start" x="172.806" y="-19.5" font-family="Helvetica,sans-Serif" font-size="10.00" fill="#000000">VehicleControl::Bluetooth</text>
<text text-anchor="middle" x="229.209" y="-7.5" font-family="Helvetica,sans-Serif" font-size="10.00" fill="#000000">::Server</text>
</a>
</g>
</g>
<!-- Node0&#45;&gt;Node2 -->
<g id="edge2" class="edge">
<title>Node0&#45;&gt;Node2</title>
<path fill="none" stroke="#191970" d="M139.054,-30.1759C147.6258,-28.8756 156.3106,-27.5582 164.7328,-26.2806"/>
<polygon fill="#191970" stroke="#191970" points="138.4276,-26.7308 129.0657,-31.6911 139.4775,-33.6516 138.4276,-26.7308"/>
</g>
</g>
</svg>
