<?xml version="1.0" encoding="UTF-8" standalone="no"?>
<!DOCTYPE svg PUBLIC "-//W3C//DTD SVG 1.1//EN"
 "http://www.w3.org/Graphics/SVG/1.1/DTD/svg11.dtd">
<!-- Generated by graphviz version 2.40.1 (20161225.0304)
 -->
<!-- Title: Graphical Class Hierarchy Pages: 1 -->
<svg width="238pt" height="92pt"
 viewBox="0.00 0.00 238.25 92.00" xmlns="http://www.w3.org/2000/svg" xmlns:xlink="http://www.w3.org/1999/xlink">
<g id="graph0" class="graph" transform="scale(1 1) rotate(0) translate(4 88)">
<title>Graphical Class Hierarchy</title>
<polygon fill="#ffffff" stroke="transparent" points="-4,4 -4,-88 234.246,-88 234.246,4 -4,4"/>
<!-- Node0 -->
<g id="node1" class="node">
<title>Node0</title>
<g id="a_node1"><a xlink:href="classVehicleControl_1_1IO_1_1IOBase.html" target="_top" xlink:title="The IOBase class is the base class for all GPIO. This class contains all of the methods to call into ...">
<polygon fill="#ffffff" stroke="#000000" points="0,-25.5 0,-57.5 97.123,-57.5 97.123,-25.5 0,-25.5"/>
<text text-anchor="start" x="8" y="-44.5" font-family="Helvetica,sans-Serif" font-size="10.00" fill="#000000">VehicleControl::IO</text>
<text text-anchor="middle" x="48.5615" y="-32.5" font-family="Helvetica,sans-Serif" font-size="10.00" fill="#000000">::IOBase</text>
</a>
</g>
</g>
<!-- Node1 -->
<g id="node2" class="node">
<title>Node1</title>
<g id="a_node2"><a xlink:href="classVehicleControl_1_1IO_1_1Input.html" target="_top" xlink:title="The Input class represents a GPIO pin that is set up as an input. This class allows the user to add a...">
<polygon fill="#ffffff" stroke="#000000" points="133.123,-51.5 133.123,-83.5 230.246,-83.5 230.246,-51.5 133.123,-51.5"/>
<text text-anchor="start" x="141.123" y="-70.5" font-family="Helvetica,sans-Serif" font-size="10.00" fill="#000000">VehicleControl::IO</text>
<text text-anchor="middle" x="181.6845" y="-58.5" font-family="Helvetica,sans-Serif" font-size="10.00" fill="#000000">::Input</text>
</a>
</g>
</g>
<!-- Node0&#45;&gt;Node1 -->
<g id="edge1" class="edge">
<title>Node0&#45;&gt;Node1</title>
<path fill="none" stroke="#191970" d="M107.2919,-52.9705C115.8367,-54.6394 124.5561,-56.3424 132.8762,-57.9673"/>
<polygon fill="#191970" stroke="#191970" points="107.8612,-49.5157 97.3757,-51.0338 106.5193,-56.3858 107.8612,-49.5157"/>
</g>
<!-- Node2 -->
<g id="node3" class="node">
<title>Node2</title>
<g id="a_node3"><a xlink:href="classVehicleControl_1_1IO_1_1Output.html" target="_top" xlink:title="The Output class represents a GPIO pin that is set up as an output. This class has the ability to tog...">
<polygon fill="#ffffff" stroke="#000000" points="133.123,-.5 133.123,-32.5 230.246,-32.5 230.246,-.5 133.123,-.5"/>
<text text-anchor="start" x="141.123" y="-19.5" font-family="Helvetica,sans-Serif" font-size="10.00" fill="#000000">VehicleControl::IO</text>
<text text-anchor="middle" x="181.6845" y="-7.5" font-family="Helvetica,sans-Serif" font-size="10.00" fill="#000000">::Output</text>
</a>
</g>
</g>
<!-- Node0&#45;&gt;Node2 -->
<g id="edge2" class="edge">
<title>Node0&#45;&gt;Node2</title>
<path fill="none" stroke="#191970" d="M107.2919,-30.4706C115.8367,-28.866 124.5561,-27.2285 132.8762,-25.666"/>
<polygon fill="#191970" stroke="#191970" points="106.5579,-27.0472 97.3757,-32.3329 107.8499,-33.927 106.5579,-27.0472"/>
</g>
</g>
</svg>
