<?xml version="1.0" encoding="UTF-8" standalone="no"?>
<!DOCTYPE svg PUBLIC "-//W3C//DTD SVG 1.1//EN"
 "http://www.w3.org/Graphics/SVG/1.1/DTD/svg11.dtd">
<!-- Generated by graphviz version 2.40.1 (20161225.0304)
 -->
<!-- Title: Graphical Class Hierarchy Pages: 1 -->
<svg width="238pt" height="41pt"
 viewBox="0.00 0.00 238.25 41.00" xmlns="http://www.w3.org/2000/svg" xmlns:xlink="http://www.w3.org/1999/xlink">
<g id="graph0" class="graph" transform="scale(1 1) rotate(0) translate(4 37)">
<title>Graphical Class Hierarchy</title>
<polygon fill="#ffffff" stroke="transparent" points="-4,4 -4,-37 234.246,-37 234.246,4 -4,4"/>
<!-- Node0 -->
<g id="node1" class="node">
<title>Node0</title>
<g id="a_node1"><a xlink:href="classVehicleControl_1_1IO_1_1MotorControl.html" target="_top" xlink:title="The MotorControl class controls a PRU controlled servo. It handles all control of the servo via this ...">
<polygon fill="#ffffff" stroke="#000000" points="0,-.5 0,-32.5 97.123,-32.5 97.123,-.5 0,-.5"/>
<text text-anchor="start" x="8" y="-19.5" font-family="Helvetica,sans-Serif" font-size="10.00" fill="#000000">VehicleControl::IO</text>
<text text-anchor="middle" x="48.5615" y="-7.5" font-family="Helvetica,sans-Serif" font-size="10.00" fill="#000000">::MotorControl</text>
</a>
</g>
</g>
<!-- Node1 -->
<g id="node2" class="node">
<title>Node1</title>
<g id="a_node2"><a xlink:href="classVehicleControl_1_1IO_1_1ServoControl.html" target="_top" xlink:title="The ServoControl class controls a servo motor. For convenience, this class adds API to control the se...">
<polygon fill="#ffffff" stroke="#000000" points="133.123,-.5 133.123,-32.5 230.246,-32.5 230.246,-.5 133.123,-.5"/>
<text text-anchor="start" x="141.123" y="-19.5" font-family="Helvetica,sans-Serif" font-size="10.00" fill="#000000">VehicleControl::IO</text>
<text text-anchor="middle" x="181.6845" y="-7.5" font-family="Helvetica,sans-Serif" font-size="10.00" fill="#000000">::ServoControl</text>
</a>
</g>
</g>
<!-- Node0&#45;&gt;Node1 -->
<g id="edge1" class="edge">
<title>Node0&#45;&gt;Node1</title>
<path fill="none" stroke="#191970" d="M107.5706,-16.5C116.0262,-16.5 124.6465,-16.5 132.8762,-16.5"/>
<polygon fill="#191970" stroke="#191970" points="107.3757,-13.0001 97.3757,-16.5 107.3756,-20.0001 107.3757,-13.0001"/>
</g>
</g>
</svg>
