<?xml version="1.0" encoding="UTF-8" standalone="no"?>
<!DOCTYPE svg PUBLIC "-//W3C//DTD SVG 1.1//EN"
 "http://www.w3.org/Graphics/SVG/1.1/DTD/svg11.dtd">
<!-- Generated by graphviz version 2.40.1 (20161225.0304)
 -->
<!-- Title: /home/jc/Documents/School/SeniorDesign/ControlCode/MainApplication/Headers/IO/Input.h Pages: 1 -->
<svg width="156pt" height="179pt"
 viewBox="0.00 0.00 156.24 179.00" xmlns="http://www.w3.org/2000/svg" xmlns:xlink="http://www.w3.org/1999/xlink">
<g id="graph0" class="graph" transform="scale(1 1) rotate(0) translate(4 175)">
<title>/home/jc/Documents/School/SeniorDesign/ControlCode/MainApplication/Headers/IO/Input.h</title>
<polygon fill="#ffffff" stroke="transparent" points="-4,4 -4,-175 152.243,-175 152.243,4 -4,4"/>
<!-- Node0 -->
<g id="node1" class="node">
<title>Node0</title>
<polygon fill="#bfbfbf" stroke="#000000" points="0,-114.5 0,-170.5 148.243,-170.5 148.243,-114.5 0,-114.5"/>
<text text-anchor="start" x="8" y="-157.5" font-family="Helvetica,sans-Serif" font-size="10.00" fill="#000000">/home/jc/Documents</text>
<text text-anchor="start" x="8" y="-145.5" font-family="Helvetica,sans-Serif" font-size="10.00" fill="#000000">/School/SeniorDesign</text>
<text text-anchor="start" x="8" y="-133.5" font-family="Helvetica,sans-Serif" font-size="10.00" fill="#000000">/ControlCode/MainApplication</text>
<text text-anchor="middle" x="74.1215" y="-121.5" font-family="Helvetica,sans-Serif" font-size="10.00" fill="#000000">/Headers/IO/Input.h</text>
</g>
<!-- Node1 -->
<g id="node2" class="node">
<title>Node1</title>
<g id="a_node2"><a xlink:href="IOBase_8h.html" target="_top" xlink:title="IOBase.h">
<polygon fill="#ffffff" stroke="#000000" points="45.28,-57.5 45.28,-77.5 102.963,-77.5 102.963,-57.5 45.28,-57.5"/>
<text text-anchor="middle" x="74.1215" y="-64.5" font-family="Helvetica,sans-Serif" font-size="10.00" fill="#000000">IOBase.h</text>
</a>
</g>
</g>
<!-- Node0&#45;&gt;Node1 -->
<g id="edge1" class="edge">
<title>Node0&#45;&gt;Node1</title>
<path fill="none" stroke="#191970" d="M74.1215,-114.1457C74.1215,-105.3619 74.1215,-95.8652 74.1215,-87.7476"/>
<polygon fill="#191970" stroke="#191970" points="77.6216,-87.7295 74.1215,-77.7296 70.6216,-87.7296 77.6216,-87.7295"/>
</g>
<!-- Node2 -->
<g id="node3" class="node">
<title>Node2</title>
<polygon fill="#ffffff" stroke="#bfbfbf" points="22.899,-.5 22.899,-20.5 63.344,-20.5 63.344,-.5 22.899,-.5"/>
<text text-anchor="middle" x="43.1215" y="-7.5" font-family="Helvetica,sans-Serif" font-size="10.00" fill="#000000">string</text>
</g>
<!-- Node1&#45;&gt;Node2 -->
<g id="edge2" class="edge">
<title>Node1&#45;&gt;Node2</title>
<path fill="none" stroke="#191970" d="M68.5793,-57.3095C64.3915,-49.6093 58.5218,-38.8166 53.4738,-29.5349"/>
<polygon fill="#191970" stroke="#191970" points="56.4682,-27.7149 48.6157,-20.6022 50.3188,-31.0593 56.4682,-27.7149"/>
</g>
<!-- Node3 -->
<g id="node4" class="node">
<title>Node3</title>
<polygon fill="#ffffff" stroke="#bfbfbf" points="81.4545,-.5 81.4545,-20.5 130.7885,-20.5 130.7885,-.5 81.4545,-.5"/>
<text text-anchor="middle" x="106.1215" y="-7.5" font-family="Helvetica,sans-Serif" font-size="10.00" fill="#000000">fstream</text>
</g>
<!-- Node1&#45;&gt;Node3 -->
<g id="edge3" class="edge">
<title>Node1&#45;&gt;Node3</title>
<path fill="none" stroke="#191970" d="M79.8425,-57.3095C84.1654,-49.6093 90.2245,-38.8166 95.4353,-29.5349"/>
<polygon fill="#191970" stroke="#191970" points="98.6066,-31.0355 100.4501,-20.6022 92.5027,-27.6087 98.6066,-31.0355"/>
</g>
</g>
</svg>
