<?xml version="1.0" encoding="UTF-8" standalone="no"?>
<!DOCTYPE svg PUBLIC "-//W3C//DTD SVG 1.1//EN"
 "http://www.w3.org/Graphics/SVG/1.1/DTD/svg11.dtd">
<!-- Generated by graphviz version 2.40.1 (20161225.0304)
 -->
<!-- Title: Input.h Pages: 1 -->
<svg width="420pt" height="86pt"
 viewBox="0.00 0.00 419.96 86.00" xmlns="http://www.w3.org/2000/svg" xmlns:xlink="http://www.w3.org/1999/xlink">
<g id="graph0" class="graph" transform="scale(1 1) rotate(0) translate(4 82)">
<title>Input.h</title>
<polygon fill="#ffffff" stroke="transparent" points="-4,4 -4,-82 415.961,-82 415.961,4 -4,4"/>
<!-- Node4 -->
<g id="node1" class="node">
<title>Node4</title>
<polygon fill="#bfbfbf" stroke="#000000" points="144.2795,-57.5 144.2795,-77.5 190.8525,-77.5 190.8525,-57.5 144.2795,-57.5"/>
<text text-anchor="middle" x="167.566" y="-64.5" font-family="Helvetica,sans-Serif" font-size="10.00" fill="#000000">Input.h</text>
</g>
<!-- Node5 -->
<g id="node2" class="node">
<title>Node5</title>
<g id="a_node2"><a xlink:href="Input_8cpp.html" target="_top" xlink:title="Input.cpp">
<polygon fill="#ffffff" stroke="#000000" points="0,-.5 0,-20.5 57.132,-20.5 57.132,-.5 0,-.5"/>
<text text-anchor="middle" x="28.566" y="-7.5" font-family="Helvetica,sans-Serif" font-size="10.00" fill="#000000">Input.cpp</text>
</a>
</g>
</g>
<!-- Node4&#45;&gt;Node5 -->
<g id="edge1" class="edge">
<title>Node4&#45;&gt;Node5</title>
<path fill="none" stroke="#191970" d="M134.5528,-53.9622C109.5827,-43.7227 75.842,-29.8865 53.1988,-20.6012"/>
<polygon fill="#191970" stroke="#191970" points="133.4063,-57.2749 143.9865,-57.8307 136.0622,-50.7983 133.4063,-57.2749"/>
</g>
<!-- Node6 -->
<g id="node3" class="node">
<title>Node6</title>
<g id="a_node3"><a xlink:href="main_8cpp.html" target="_top" xlink:title="main.cpp">
<polygon fill="#ffffff" stroke="#000000" points="75.2845,-.5 75.2845,-20.5 131.8475,-20.5 131.8475,-.5 75.2845,-.5"/>
<text text-anchor="middle" x="103.566" y="-7.5" font-family="Helvetica,sans-Serif" font-size="10.00" fill="#000000">main.cpp</text>
</a>
</g>
</g>
<!-- Node4&#45;&gt;Node6 -->
<g id="edge2" class="edge">
<title>Node4&#45;&gt;Node6</title>
<path fill="none" stroke="#191970" d="M148.3511,-50.3867C137.4431,-40.6718 124.1632,-28.8444 114.9089,-20.6022"/>
<polygon fill="#191970" stroke="#191970" points="146.3286,-53.2723 156.1241,-57.3095 150.9842,-48.0449 146.3286,-53.2723"/>
</g>
<!-- Node7 -->
<g id="node4" class="node">
<title>Node7</title>
<g id="a_node4"><a xlink:href="BoeingSurfaceVehicleControl_8cpp.html" target="_top" xlink:title="BoeingSurfaceVehicleControl.cpp">
<polygon fill="#ffffff" stroke="#000000" points="149.825,-.5 149.825,-20.5 315.307,-20.5 315.307,-.5 149.825,-.5"/>
<text text-anchor="middle" x="232.566" y="-7.5" font-family="Helvetica,sans-Serif" font-size="10.00" fill="#000000">BoeingSurfaceVehicleControl.cpp</text>
</a>
</g>
</g>
<!-- Node4&#45;&gt;Node7 -->
<g id="edge3" class="edge">
<title>Node4&#45;&gt;Node7</title>
<path fill="none" stroke="#191970" d="M186.756,-50.6718C197.8947,-40.9041 211.5548,-28.9252 221.0459,-20.6022"/>
<polygon fill="#191970" stroke="#191970" points="184.3977,-48.0848 179.1867,-57.3095 189.013,-53.3478 184.3977,-48.0848"/>
</g>
<!-- Node8 -->
<g id="node5" class="node">
<title>Node8</title>
<g id="a_node5"><a xlink:href="IOFactory_8cpp.html" target="_top" xlink:title="IOFactory.cpp">
<polygon fill="#ffffff" stroke="#000000" points="333.171,-.5 333.171,-20.5 411.961,-20.5 411.961,-.5 333.171,-.5"/>
<text text-anchor="middle" x="372.566" y="-7.5" font-family="Helvetica,sans-Serif" font-size="10.00" fill="#000000">IOFactory.cpp</text>
</a>
</g>
</g>
<!-- Node4&#45;&gt;Node8 -->
<g id="edge4" class="edge">
<title>Node4&#45;&gt;Node8</title>
<path fill="none" stroke="#191970" d="M200.9224,-58.2253C238.0759,-47.8948 297.9369,-31.2505 336.2481,-20.5981"/>
<polygon fill="#191970" stroke="#191970" points="199.779,-54.9104 191.0821,-60.9614 201.6542,-61.6545 199.779,-54.9104"/>
</g>
</g>
</svg>
