<?xml version="1.0" encoding="UTF-8" standalone="no"?>
<!DOCTYPE svg PUBLIC "-//W3C//DTD SVG 1.1//EN"
 "http://www.w3.org/Graphics/SVG/1.1/DTD/svg11.dtd">
<!-- Generated by graphviz version 2.40.1 (20161225.0304)
 -->
<!-- Title: /home/jc/Documents/School/SeniorDesign/ControlCode/MainApplication/Sources/IO/Input.cpp Pages: 1 -->
<svg width="419pt" height="236pt"
 viewBox="0.00 0.00 418.57 236.00" xmlns="http://www.w3.org/2000/svg" xmlns:xlink="http://www.w3.org/1999/xlink">
<g id="graph0" class="graph" transform="scale(1 1) rotate(0) translate(4 232)">
<title>/home/jc/Documents/School/SeniorDesign/ControlCode/MainApplication/Sources/IO/Input.cpp</title>
<polygon fill="#ffffff" stroke="transparent" points="-4,4 -4,-232 414.5695,-232 414.5695,4 -4,4"/>
<!-- Node0 -->
<g id="node1" class="node">
<title>Node0</title>
<polygon fill="#bfbfbf" stroke="#000000" points="108.72,-171.5 108.72,-227.5 256.963,-227.5 256.963,-171.5 108.72,-171.5"/>
<text text-anchor="start" x="116.72" y="-214.5" font-family="Helvetica,sans-Serif" font-size="10.00" fill="#000000">/home/jc/Documents</text>
<text text-anchor="start" x="116.72" y="-202.5" font-family="Helvetica,sans-Serif" font-size="10.00" fill="#000000">/School/SeniorDesign</text>
<text text-anchor="start" x="116.72" y="-190.5" font-family="Helvetica,sans-Serif" font-size="10.00" fill="#000000">/ControlCode/MainApplication</text>
<text text-anchor="middle" x="182.8415" y="-178.5" font-family="Helvetica,sans-Serif" font-size="10.00" fill="#000000">/Sources/IO/Input.cpp</text>
</g>
<!-- Node1 -->
<g id="node2" class="node">
<title>Node1</title>
<g id="a_node2"><a xlink:href="Input_8h.html" target="_top" xlink:title="Input.h">
<polygon fill="#ffffff" stroke="#000000" points="8.555,-114.5 8.555,-134.5 55.128,-134.5 55.128,-114.5 8.555,-114.5"/>
<text text-anchor="middle" x="31.8415" y="-121.5" font-family="Helvetica,sans-Serif" font-size="10.00" fill="#000000">Input.h</text>
</a>
</g>
</g>
<!-- Node0&#45;&gt;Node1 -->
<g id="edge1" class="edge">
<title>Node0&#45;&gt;Node1</title>
<path fill="none" stroke="#191970" d="M126.1851,-171.3594C104.0935,-160.3867 79.7024,-148.272 61.2558,-139.1098"/>
<polygon fill="#191970" stroke="#191970" points="62.7081,-135.9232 52.195,-134.6094 59.5942,-142.1924 62.7081,-135.9232"/>
</g>
<!-- Node4 -->
<g id="node5" class="node">
<title>Node4</title>
<polygon fill="#ffffff" stroke="#bfbfbf" points="61.1745,-.5 61.1745,-20.5 110.5085,-20.5 110.5085,-.5 61.1745,-.5"/>
<text text-anchor="middle" x="85.8415" y="-7.5" font-family="Helvetica,sans-Serif" font-size="10.00" fill="#000000">fstream</text>
</g>
<!-- Node0&#45;&gt;Node4 -->
<g id="edge8" class="edge">
<title>Node0&#45;&gt;Node4</title>
<path fill="none" stroke="#191970" d="M137.6367,-171.319C125.1287,-161.3498 112.813,-149.0641 104.8415,-135 86.152,-102.0261 84.0615,-56.6226 84.6597,-30.7418"/>
<polygon fill="#191970" stroke="#191970" points="88.1613,-30.768 85.0569,-20.6382 81.1667,-30.4929 88.1613,-30.768"/>
</g>
<!-- Node5 -->
<g id="node6" class="node">
<title>Node5</title>
<polygon fill="#ffffff" stroke="#bfbfbf" points="114.2255,-114.5 114.2255,-134.5 177.4575,-134.5 177.4575,-114.5 114.2255,-114.5"/>
<text text-anchor="middle" x="145.8415" y="-121.5" font-family="Helvetica,sans-Serif" font-size="10.00" fill="#000000">sys/epoll.h</text>
</g>
<!-- Node0&#45;&gt;Node5 -->
<g id="edge5" class="edge">
<title>Node0&#45;&gt;Node5</title>
<path fill="none" stroke="#191970" d="M168.8534,-171.1457C164.3723,-162.0625 159.5152,-152.2169 155.4232,-143.9223"/>
<polygon fill="#191970" stroke="#191970" points="158.4512,-142.1491 150.8881,-134.7296 152.1736,-145.2461 158.4512,-142.1491"/>
</g>
<!-- Node6 -->
<g id="node7" class="node">
<title>Node6</title>
<polygon fill="#ffffff" stroke="#bfbfbf" points="195.335,-114.5 195.335,-134.5 246.348,-134.5 246.348,-114.5 195.335,-114.5"/>
<text text-anchor="middle" x="220.8415" y="-121.5" font-family="Helvetica,sans-Serif" font-size="10.00" fill="#000000">unistd.h</text>
</g>
<!-- Node0&#45;&gt;Node6 -->
<g id="edge6" class="edge">
<title>Node0&#45;&gt;Node6</title>
<path fill="none" stroke="#191970" d="M197.2077,-171.1457C201.8098,-162.0625 206.7983,-152.2169 211.0009,-143.9223"/>
<polygon fill="#191970" stroke="#191970" points="214.261,-145.2318 215.6585,-134.7296 208.0167,-142.068 214.261,-145.2318"/>
</g>
<!-- Node7 -->
<g id="node8" class="node">
<title>Node7</title>
<polygon fill="#ffffff" stroke="#bfbfbf" points="264.5045,-114.5 264.5045,-134.5 307.1785,-134.5 307.1785,-114.5 264.5045,-114.5"/>
<text text-anchor="middle" x="285.8415" y="-121.5" font-family="Helvetica,sans-Serif" font-size="10.00" fill="#000000">fcntl.h</text>
</g>
<!-- Node0&#45;&gt;Node7 -->
<g id="edge7" class="edge">
<title>Node0&#45;&gt;Node7</title>
<path fill="none" stroke="#191970" d="M221.4879,-171.3594C235.6357,-161.0576 251.166,-149.7492 263.4252,-140.8225"/>
<polygon fill="#191970" stroke="#191970" points="265.6834,-143.5078 271.7071,-134.792 261.5629,-137.849 265.6834,-143.5078"/>
</g>
<!-- Node8 -->
<g id="node9" class="node">
<title>Node8</title>
<g id="a_node9"><a xlink:href="ThreadHelper_8h.html" target="_top" xlink:title="ThreadHelper.h">
<polygon fill="#ffffff" stroke="#000000" points="325.1135,-114.5 325.1135,-134.5 410.5695,-134.5 410.5695,-114.5 325.1135,-114.5"/>
<text text-anchor="middle" x="367.8415" y="-121.5" font-family="Helvetica,sans-Serif" font-size="10.00" fill="#000000">ThreadHelper.h</text>
</a>
</g>
</g>
<!-- Node0&#45;&gt;Node8 -->
<g id="edge9" class="edge">
<title>Node0&#45;&gt;Node8</title>
<path fill="none" stroke="#191970" d="M251.9918,-171.4661C279.8301,-160.1803 310.6876,-147.6705 333.5518,-138.4012"/>
<polygon fill="#191970" stroke="#191970" points="334.8768,-141.6408 342.8292,-134.6401 332.2468,-135.1536 334.8768,-141.6408"/>
</g>
<!-- Node2 -->
<g id="node3" class="node">
<title>Node2</title>
<g id="a_node3"><a xlink:href="IOBase_8h.html" target="_top" xlink:title="IOBase.h">
<polygon fill="#ffffff" stroke="#000000" points="0,-57.5 0,-77.5 57.683,-77.5 57.683,-57.5 0,-57.5"/>
<text text-anchor="middle" x="28.8415" y="-64.5" font-family="Helvetica,sans-Serif" font-size="10.00" fill="#000000">IOBase.h</text>
</a>
</g>
</g>
<!-- Node1&#45;&gt;Node2 -->
<g id="edge2" class="edge">
<title>Node1&#45;&gt;Node2</title>
<path fill="none" stroke="#191970" d="M31.3052,-114.3095C30.9169,-106.9335 30.3794,-96.72 29.9054,-87.715"/>
<polygon fill="#191970" stroke="#191970" points="33.394,-87.4044 29.3732,-77.6022 26.4037,-87.7724 33.394,-87.4044"/>
</g>
<!-- Node3 -->
<g id="node4" class="node">
<title>Node3</title>
<polygon fill="#ffffff" stroke="#bfbfbf" points="2.619,-.5 2.619,-20.5 43.064,-20.5 43.064,-.5 2.619,-.5"/>
<text text-anchor="middle" x="22.8415" y="-7.5" font-family="Helvetica,sans-Serif" font-size="10.00" fill="#000000">string</text>
</g>
<!-- Node2&#45;&gt;Node3 -->
<g id="edge3" class="edge">
<title>Node2&#45;&gt;Node3</title>
<path fill="none" stroke="#191970" d="M27.7688,-57.3095C26.9924,-49.9335 25.9173,-39.72 24.9694,-30.715"/>
<polygon fill="#191970" stroke="#191970" points="28.4326,-30.1809 23.9049,-20.6022 21.4711,-30.9137 28.4326,-30.1809"/>
</g>
<!-- Node2&#45;&gt;Node4 -->
<g id="edge4" class="edge">
<title>Node2&#45;&gt;Node4</title>
<path fill="none" stroke="#191970" d="M39.032,-57.3095C47.2186,-49.1229 58.9005,-37.441 68.546,-27.7955"/>
<polygon fill="#191970" stroke="#191970" points="71.1431,-30.1482 75.7393,-20.6022 66.1933,-25.1984 71.1431,-30.1482"/>
</g>
<!-- Node9 -->
<g id="node10" class="node">
<title>Node9</title>
<polygon fill="#ffffff" stroke="#bfbfbf" points="338.721,-57.5 338.721,-77.5 396.962,-77.5 396.962,-57.5 338.721,-57.5"/>
<text text-anchor="middle" x="367.8415" y="-64.5" font-family="Helvetica,sans-Serif" font-size="10.00" fill="#000000">pthread.h</text>
</g>
<!-- Node8&#45;&gt;Node9 -->
<g id="edge10" class="edge">
<title>Node8&#45;&gt;Node9</title>
<path fill="none" stroke="#191970" d="M367.8415,-114.3095C367.8415,-106.9335 367.8415,-96.72 367.8415,-87.715"/>
<polygon fill="#191970" stroke="#191970" points="371.3416,-87.6022 367.8415,-77.6022 364.3416,-87.6023 371.3416,-87.6022"/>
</g>
</g>
</svg>
