<?xml version="1.0" encoding="UTF-8" standalone="no"?>
<!DOCTYPE svg PUBLIC "-//W3C//DTD SVG 1.1//EN"
 "http://www.w3.org/Graphics/SVG/1.1/DTD/svg11.dtd">
<!-- Generated by graphviz version 2.40.1 (20161225.0304)
 -->
<!-- Title: /home/jc/Documents/School/SeniorDesign/ControlCode/MainApplication/Headers/IO/Input.h Pages: 1 -->
<svg width="704pt" height="170pt"
 viewBox="0.00 0.00 704.24 170.00" xmlns="http://www.w3.org/2000/svg" xmlns:xlink="http://www.w3.org/1999/xlink">
<g id="graph0" class="graph" transform="scale(1 1) rotate(0) translate(4 166)">
<title>/home/jc/Documents/School/SeniorDesign/ControlCode/MainApplication/Headers/IO/Input.h</title>
<polygon fill="#ffffff" stroke="transparent" points="-4,4 -4,-166 700.243,-166 700.243,4 -4,4"/>
<!-- Node4 -->
<g id="node1" class="node">
<title>Node4</title>
<polygon fill="#bfbfbf" stroke="#000000" points="286,-105.5 286,-161.5 434.243,-161.5 434.243,-105.5 286,-105.5"/>
<text text-anchor="start" x="294" y="-148.5" font-family="Helvetica,sans-Serif" font-size="10.00" fill="#000000">/home/jc/Documents</text>
<text text-anchor="start" x="294" y="-136.5" font-family="Helvetica,sans-Serif" font-size="10.00" fill="#000000">/School/SeniorDesign</text>
<text text-anchor="start" x="294" y="-124.5" font-family="Helvetica,sans-Serif" font-size="10.00" fill="#000000">/ControlCode/MainApplication</text>
<text text-anchor="middle" x="360.1215" y="-112.5" font-family="Helvetica,sans-Serif" font-size="10.00" fill="#000000">/Headers/IO/Input.h</text>
</g>
<!-- Node5 -->
<g id="node2" class="node">
<title>Node5</title>
<g id="a_node2"><a xlink:href="main_8cpp.html" target="_top" xlink:title="/home/jc/Documents\l/School/SeniorDesign\l/ControlCode/MainApplication\l/main.cpp">
<polygon fill="#ffffff" stroke="#000000" points="0,-6.5 0,-62.5 148.243,-62.5 148.243,-6.5 0,-6.5"/>
<text text-anchor="start" x="8" y="-49.5" font-family="Helvetica,sans-Serif" font-size="10.00" fill="#000000">/home/jc/Documents</text>
<text text-anchor="start" x="8" y="-37.5" font-family="Helvetica,sans-Serif" font-size="10.00" fill="#000000">/School/SeniorDesign</text>
<text text-anchor="start" x="8" y="-25.5" font-family="Helvetica,sans-Serif" font-size="10.00" fill="#000000">/ControlCode/MainApplication</text>
<text text-anchor="middle" x="74.1215" y="-13.5" font-family="Helvetica,sans-Serif" font-size="10.00" fill="#000000">/main.cpp</text>
</a>
</g>
</g>
<!-- Node4&#45;&gt;Node5 -->
<g id="edge1" class="edge">
<title>Node4&#45;&gt;Node5</title>
<path fill="none" stroke="#191970" d="M276.1474,-108.6018C239.369,-97.2395 195.8539,-83.1732 157.1215,-69 151.5527,-66.9622 145.8084,-64.7693 140.0633,-62.5121"/>
<polygon fill="#191970" stroke="#191970" points="275.2505,-111.9877 285.8375,-111.5813 277.3078,-105.2968 275.2505,-111.9877"/>
</g>
<!-- Node6 -->
<g id="node3" class="node">
<title>Node6</title>
<g id="a_node3"><a xlink:href="BoeingSurfaceVehicleControl_8cpp.html" target="_top" xlink:title="/home/jc/Documents\l/School/SeniorDesign\l/ControlCode/MainApplication\l/Sources/ControlSoftware/BoeingSurface\lVehicleControl.cpp">
<polygon fill="#ffffff" stroke="#000000" points="165.989,-.5 165.989,-68.5 364.254,-68.5 364.254,-.5 165.989,-.5"/>
<text text-anchor="start" x="173.989" y="-55.5" font-family="Helvetica,sans-Serif" font-size="10.00" fill="#000000">/home/jc/Documents</text>
<text text-anchor="start" x="173.989" y="-43.5" font-family="Helvetica,sans-Serif" font-size="10.00" fill="#000000">/School/SeniorDesign</text>
<text text-anchor="start" x="173.989" y="-31.5" font-family="Helvetica,sans-Serif" font-size="10.00" fill="#000000">/ControlCode/MainApplication</text>
<text text-anchor="start" x="173.989" y="-19.5" font-family="Helvetica,sans-Serif" font-size="10.00" fill="#000000">/Sources/ControlSoftware/BoeingSurface</text>
<text text-anchor="middle" x="265.1215" y="-7.5" font-family="Helvetica,sans-Serif" font-size="10.00" fill="#000000">VehicleControl.cpp</text>
</a>
</g>
</g>
<!-- Node4&#45;&gt;Node6 -->
<g id="edge2" class="edge">
<title>Node4&#45;&gt;Node6</title>
<path fill="none" stroke="#191970" d="M325.9972,-97.9389C316.8463,-88.4027 306.9743,-78.1151 297.8982,-68.6568"/>
<polygon fill="#191970" stroke="#191970" points="323.7032,-100.6034 333.1524,-105.3954 328.754,-95.7567 323.7032,-100.6034"/>
</g>
<!-- Node7 -->
<g id="node4" class="node">
<title>Node7</title>
<g id="a_node4"><a xlink:href="Input_8cpp.html" target="_top" xlink:title="/home/jc/Documents\l/School/SeniorDesign\l/ControlCode/MainApplication\l/Sources/IO/Input.cpp">
<polygon fill="#ffffff" stroke="#000000" points="382,-6.5 382,-62.5 530.243,-62.5 530.243,-6.5 382,-6.5"/>
<text text-anchor="start" x="390" y="-49.5" font-family="Helvetica,sans-Serif" font-size="10.00" fill="#000000">/home/jc/Documents</text>
<text text-anchor="start" x="390" y="-37.5" font-family="Helvetica,sans-Serif" font-size="10.00" fill="#000000">/School/SeniorDesign</text>
<text text-anchor="start" x="390" y="-25.5" font-family="Helvetica,sans-Serif" font-size="10.00" fill="#000000">/ControlCode/MainApplication</text>
<text text-anchor="middle" x="456.1215" y="-13.5" font-family="Helvetica,sans-Serif" font-size="10.00" fill="#000000">/Sources/IO/Input.cpp</text>
</a>
</g>
</g>
<!-- Node4&#45;&gt;Node7 -->
<g id="edge3" class="edge">
<title>Node4&#45;&gt;Node7</title>
<path fill="none" stroke="#191970" d="M394.5803,-97.9644C405.8264,-86.3668 418.1526,-73.6554 428.8004,-62.6749"/>
<polygon fill="#191970" stroke="#191970" points="391.8233,-95.7798 387.3745,-105.3954 396.8486,-100.6529 391.8233,-95.7798"/>
</g>
<!-- Node8 -->
<g id="node5" class="node">
<title>Node8</title>
<g id="a_node5"><a xlink:href="IOFactory_8cpp.html" target="_top" xlink:title="/home/jc/Documents\l/School/SeniorDesign\l/ControlCode/MainApplication\l/Sources/IO/IOFactory.cpp">
<polygon fill="#ffffff" stroke="#000000" points="548,-6.5 548,-62.5 696.243,-62.5 696.243,-6.5 548,-6.5"/>
<text text-anchor="start" x="556" y="-49.5" font-family="Helvetica,sans-Serif" font-size="10.00" fill="#000000">/home/jc/Documents</text>
<text text-anchor="start" x="556" y="-37.5" font-family="Helvetica,sans-Serif" font-size="10.00" fill="#000000">/School/SeniorDesign</text>
<text text-anchor="start" x="556" y="-25.5" font-family="Helvetica,sans-Serif" font-size="10.00" fill="#000000">/ControlCode/MainApplication</text>
<text text-anchor="middle" x="622.1215" y="-13.5" font-family="Helvetica,sans-Serif" font-size="10.00" fill="#000000">/Sources/IO/IOFactory.cpp</text>
</a>
</g>
</g>
<!-- Node4&#45;&gt;Node8 -->
<g id="edge4" class="edge">
<title>Node4&#45;&gt;Node8</title>
<path fill="none" stroke="#191970" d="M444.0662,-104.1916C474.1639,-93.4358 508.274,-80.9609 539.1215,-69 544.3593,-66.9691 549.7654,-64.8271 555.1888,-62.6455"/>
<polygon fill="#191970" stroke="#191970" points="442.6893,-100.9666 434.4445,-107.6205 445.0391,-107.5605 442.6893,-100.9666"/>
</g>
</g>
</svg>
