<?xml version="1.0" encoding="UTF-8" standalone="no"?>
<!DOCTYPE svg PUBLIC "-//W3C//DTD SVG 1.1//EN"
 "http://www.w3.org/Graphics/SVG/1.1/DTD/svg11.dtd">
<!-- Generated by graphviz version 2.40.1 (20161225.0304)
 -->
<!-- Title: Input.h Pages: 1 -->
<svg width="420pt" height="86pt"
 viewBox="0.00 0.00 419.68 86.00" xmlns="http://www.w3.org/2000/svg" xmlns:xlink="http://www.w3.org/1999/xlink">
<g id="graph0" class="graph" transform="scale(1 1) rotate(0) translate(4 82)">
<title>Input.h</title>
<polygon fill="#ffffff" stroke="transparent" points="-4,4 -4,-82 415.6765,-82 415.6765,4 -4,4"/>
<!-- Node4 -->
<g id="node1" class="node">
<title>Node4</title>
<polygon fill="#bfbfbf" stroke="#000000" points="197.995,-57.5 197.995,-77.5 244.568,-77.5 244.568,-57.5 197.995,-57.5"/>
<text text-anchor="middle" x="221.2815" y="-64.5" font-family="Helvetica,sans-Serif" font-size="10.00" fill="#000000">Input.h</text>
</g>
<!-- Node5 -->
<g id="node2" class="node">
<title>Node5</title>
<g id="a_node2"><a xlink:href="main_8cpp.html" target="_top" xlink:title="main.cpp">
<polygon fill="#ffffff" stroke="#000000" points="0,-.5 0,-20.5 56.563,-20.5 56.563,-.5 0,-.5"/>
<text text-anchor="middle" x="28.2815" y="-7.5" font-family="Helvetica,sans-Serif" font-size="10.00" fill="#000000">main.cpp</text>
</a>
</g>
</g>
<!-- Node4&#45;&gt;Node5 -->
<g id="edge1" class="edge">
<title>Node4&#45;&gt;Node5</title>
<path fill="none" stroke="#191970" d="M187.7958,-57.6104C150.7761,-46.6772 91.7716,-29.251 56.8502,-18.9374"/>
<polygon fill="#191970" stroke="#191970" points="187.0341,-61.0349 197.6159,-60.5107 189.0168,-54.3215 187.0341,-61.0349"/>
</g>
<!-- Node6 -->
<g id="node3" class="node">
<title>Node6</title>
<g id="a_node3"><a xlink:href="BoeingSurfaceVehicleControl_8cpp.html" target="_top" xlink:title="BoeingSurfaceVehicleControl.cpp">
<polygon fill="#ffffff" stroke="#000000" points="74.5405,-.5 74.5405,-20.5 240.0225,-20.5 240.0225,-.5 74.5405,-.5"/>
<text text-anchor="middle" x="157.2815" y="-7.5" font-family="Helvetica,sans-Serif" font-size="10.00" fill="#000000">BoeingSurfaceVehicleControl.cpp</text>
</a>
</g>
</g>
<!-- Node4&#45;&gt;Node6 -->
<g id="edge2" class="edge">
<title>Node4&#45;&gt;Node6</title>
<path fill="none" stroke="#191970" d="M202.0666,-50.3867C191.1586,-40.6718 177.8787,-28.8444 168.6244,-20.6022"/>
<polygon fill="#191970" stroke="#191970" points="200.0441,-53.2723 209.8396,-57.3095 204.6997,-48.0449 200.0441,-53.2723"/>
</g>
<!-- Node7 -->
<g id="node4" class="node">
<title>Node7</title>
<g id="a_node4"><a xlink:href="Input_8cpp.html" target="_top" xlink:title="Input.cpp">
<polygon fill="#ffffff" stroke="#000000" points="257.7155,-.5 257.7155,-20.5 314.8475,-20.5 314.8475,-.5 257.7155,-.5"/>
<text text-anchor="middle" x="286.2815" y="-7.5" font-family="Helvetica,sans-Serif" font-size="10.00" fill="#000000">Input.cpp</text>
</a>
</g>
</g>
<!-- Node4&#45;&gt;Node7 -->
<g id="edge3" class="edge">
<title>Node4&#45;&gt;Node7</title>
<path fill="none" stroke="#191970" d="M240.4715,-50.6718C251.6102,-40.9041 265.2703,-28.9252 274.7614,-20.6022"/>
<polygon fill="#191970" stroke="#191970" points="238.1132,-48.0848 232.9022,-57.3095 242.7285,-53.3478 238.1132,-48.0848"/>
</g>
<!-- Node8 -->
<g id="node5" class="node">
<title>Node8</title>
<g id="a_node5"><a xlink:href="IOFactory_8cpp.html" target="_top" xlink:title="IOFactory.cpp">
<polygon fill="#ffffff" stroke="#000000" points="332.8865,-.5 332.8865,-20.5 411.6765,-20.5 411.6765,-.5 332.8865,-.5"/>
<text text-anchor="middle" x="372.2815" y="-7.5" font-family="Helvetica,sans-Serif" font-size="10.00" fill="#000000">IOFactory.cpp</text>
</a>
</g>
</g>
<!-- Node4&#45;&gt;Node8 -->
<g id="edge4" class="edge">
<title>Node4&#45;&gt;Node8</title>
<path fill="none" stroke="#191970" d="M254.4147,-54.9928C281.7756,-44.6645 320.1132,-30.1927 345.5466,-20.592"/>
<polygon fill="#191970" stroke="#191970" points="252.9948,-51.7876 244.8753,-58.5938 255.467,-58.3366 252.9948,-51.7876"/>
</g>
</g>
</svg>
