<?xml version="1.0" encoding="UTF-8" standalone="no"?>
<!DOCTYPE svg PUBLIC "-//W3C//DTD SVG 1.1//EN"
 "http://www.w3.org/Graphics/SVG/1.1/DTD/svg11.dtd">
<!-- Generated by graphviz version 2.40.1 (20161225.0304)
 -->
<!-- Title: Input.h Pages: 1 -->
<svg width="609pt" height="86pt"
 viewBox="0.00 0.00 608.96 86.00" xmlns="http://www.w3.org/2000/svg" xmlns:xlink="http://www.w3.org/1999/xlink">
<g id="graph0" class="graph" transform="scale(1 1) rotate(0) translate(4 82)">
<title>Input.h</title>
<polygon fill="#ffffff" stroke="transparent" points="-4,4 -4,-82 604.961,-82 604.961,4 -4,4"/>
<!-- Node4 -->
<g id="node1" class="node">
<title>Node4</title>
<polygon fill="#bfbfbf" stroke="#000000" points="209.2795,-57.5 209.2795,-77.5 255.8525,-77.5 255.8525,-57.5 209.2795,-57.5"/>
<text text-anchor="middle" x="232.566" y="-64.5" font-family="Helvetica,sans-Serif" font-size="10.00" fill="#000000">Input.h</text>
</g>
<!-- Node5 -->
<g id="node2" class="node">
<title>Node5</title>
<g id="a_node2"><a xlink:href="Input_8cpp.html" target="_top" xlink:title="Input.cpp">
<polygon fill="#ffffff" stroke="#000000" points="0,-.5 0,-20.5 57.132,-20.5 57.132,-.5 0,-.5"/>
<text text-anchor="middle" x="28.566" y="-7.5" font-family="Helvetica,sans-Serif" font-size="10.00" fill="#000000">Input.cpp</text>
</a>
</g>
</g>
<!-- Node4&#45;&gt;Node5 -->
<g id="edge1" class="edge">
<title>Node4&#45;&gt;Node5</title>
<path fill="none" stroke="#191970" d="M199.4796,-58.2553C160.0053,-47.2257 94.6625,-28.9681 57.2437,-18.5129"/>
<polygon fill="#191970" stroke="#191970" points="198.5916,-61.6411 209.1646,-60.9614 200.4754,-54.8994 198.5916,-61.6411"/>
</g>
<!-- Node6 -->
<g id="node3" class="node">
<title>Node6</title>
<g id="a_node3"><a xlink:href="main_8cpp.html" target="_top" xlink:title="main.cpp">
<polygon fill="#ffffff" stroke="#000000" points="75.2845,-.5 75.2845,-20.5 131.8475,-20.5 131.8475,-.5 75.2845,-.5"/>
<text text-anchor="middle" x="103.566" y="-7.5" font-family="Helvetica,sans-Serif" font-size="10.00" fill="#000000">main.cpp</text>
</a>
</g>
</g>
<!-- Node4&#45;&gt;Node6 -->
<g id="edge2" class="edge">
<title>Node4&#45;&gt;Node6</title>
<path fill="none" stroke="#191970" d="M200.4585,-53.313C177.4861,-43.1624 147.1096,-29.7402 126.538,-20.6504"/>
<polygon fill="#191970" stroke="#191970" points="199.2389,-56.6005 209.8003,-57.4408 202.0681,-50.1977 199.2389,-56.6005"/>
</g>
<!-- Node7 -->
<g id="node4" class="node">
<title>Node7</title>
<g id="a_node4"><a xlink:href="BoeingSurfaceVehicleControl_8cpp.html" target="_top" xlink:title="BoeingSurfaceVehicleControl.cpp">
<polygon fill="#ffffff" stroke="#000000" points="149.825,-.5 149.825,-20.5 315.307,-20.5 315.307,-.5 149.825,-.5"/>
<text text-anchor="middle" x="232.566" y="-7.5" font-family="Helvetica,sans-Serif" font-size="10.00" fill="#000000">BoeingSurfaceVehicleControl.cpp</text>
</a>
</g>
</g>
<!-- Node4&#45;&gt;Node7 -->
<g id="edge3" class="edge">
<title>Node4&#45;&gt;Node7</title>
<path fill="none" stroke="#191970" d="M232.566,-47.1771C232.566,-38.1625 232.566,-27.9556 232.566,-20.6022"/>
<polygon fill="#191970" stroke="#191970" points="229.0661,-47.3095 232.566,-57.3095 236.0661,-47.3096 229.0661,-47.3095"/>
</g>
<!-- Node8 -->
<g id="node5" class="node">
<title>Node8</title>
<g id="a_node5"><a xlink:href="CommunicationProtocolParser_8cpp.html" target="_top" xlink:title="CommunicationProtocolParser.cpp">
<polygon fill="#ffffff" stroke="#000000" points="333.3345,-.5 333.3345,-20.5 503.7975,-20.5 503.7975,-.5 333.3345,-.5"/>
<text text-anchor="middle" x="418.566" y="-7.5" font-family="Helvetica,sans-Serif" font-size="10.00" fill="#000000">CommunicationProtocolParser.cpp</text>
</a>
</g>
</g>
<!-- Node4&#45;&gt;Node8 -->
<g id="edge4" class="edge">
<title>Node4&#45;&gt;Node8</title>
<path fill="none" stroke="#191970" d="M266.028,-57.2455C299.9629,-46.8461 352.1462,-30.8545 385.8212,-20.5347"/>
<polygon fill="#191970" stroke="#191970" points="264.6586,-54.0044 256.123,-60.2809 266.7097,-60.6972 264.6586,-54.0044"/>
</g>
<!-- Node9 -->
<g id="node6" class="node">
<title>Node9</title>
<g id="a_node6"><a xlink:href="IOFactory_8cpp.html" target="_top" xlink:title="IOFactory.cpp">
<polygon fill="#ffffff" stroke="#000000" points="522.171,-.5 522.171,-20.5 600.961,-20.5 600.961,-.5 522.171,-.5"/>
<text text-anchor="middle" x="561.566" y="-7.5" font-family="Helvetica,sans-Serif" font-size="10.00" fill="#000000">IOFactory.cpp</text>
</a>
</g>
</g>
<!-- Node4&#45;&gt;Node9 -->
<g id="edge5" class="edge">
<title>Node4&#45;&gt;Node9</title>
<path fill="none" stroke="#191970" d="M265.9575,-62.4691C318.5397,-54.4312 423.7976,-37.8724 512.566,-21 515.6429,-20.4152 518.8235,-19.7872 522.0176,-19.1397"/>
<polygon fill="#191970" stroke="#191970" points="265.2215,-59.0408 255.8624,-64.0064 266.2754,-65.961 265.2215,-59.0408"/>
</g>
</g>
</svg>
