<?xml version="1.0" encoding="UTF-8" standalone="no"?>
<!DOCTYPE svg PUBLIC "-//W3C//DTD SVG 1.1//EN"
 "http://www.w3.org/Graphics/SVG/1.1/DTD/svg11.dtd">
<!-- Generated by graphviz version 2.40.1 (20161225.0304)
 -->
<!-- Title: IOBase.h Pages: 1 -->
<svg width="503pt" height="143pt"
 viewBox="0.00 0.00 503.02 143.00" xmlns="http://www.w3.org/2000/svg" xmlns:xlink="http://www.w3.org/1999/xlink">
<g id="graph0" class="graph" transform="scale(1 1) rotate(0) translate(4 139)">
<title>IOBase.h</title>
<polygon fill="#ffffff" stroke="transparent" points="-4,4 -4,-139 499.0215,-139 499.0215,4 -4,4"/>
<!-- Node3 -->
<g id="node1" class="node">
<title>Node3</title>
<polygon fill="#bfbfbf" stroke="#000000" points="264.7245,-114.5 264.7245,-134.5 322.4075,-134.5 322.4075,-114.5 264.7245,-114.5"/>
<text text-anchor="middle" x="293.566" y="-121.5" font-family="Helvetica,sans-Serif" font-size="10.00" fill="#000000">IOBase.h</text>
</g>
<!-- Node4 -->
<g id="node2" class="node">
<title>Node4</title>
<g id="a_node2"><a xlink:href="Input_8h.html" target="_top" xlink:title="Input.h">
<polygon fill="#ffffff" stroke="#000000" points="166.2795,-57.5 166.2795,-77.5 212.8525,-77.5 212.8525,-57.5 166.2795,-57.5"/>
<text text-anchor="middle" x="189.566" y="-64.5" font-family="Helvetica,sans-Serif" font-size="10.00" fill="#000000">Input.h</text>
</a>
</g>
</g>
<!-- Node3&#45;&gt;Node4 -->
<g id="edge1" class="edge">
<title>Node3&#45;&gt;Node4</title>
<path fill="none" stroke="#191970" d="M266.1851,-109.4931C247.8252,-99.4305 224.1423,-86.4505 207.9981,-77.6022"/>
<polygon fill="#191970" stroke="#191970" points="264.5214,-112.5725 274.9729,-114.3095 267.8858,-106.434 264.5214,-112.5725"/>
</g>
<!-- Node9 -->
<g id="node7" class="node">
<title>Node9</title>
<g id="a_node7"><a xlink:href="Output_8h.html" target="_top" xlink:title="Output.h">
<polygon fill="#ffffff" stroke="#000000" points="266.39,-57.5 266.39,-77.5 320.742,-77.5 320.742,-57.5 266.39,-57.5"/>
<text text-anchor="middle" x="293.566" y="-64.5" font-family="Helvetica,sans-Serif" font-size="10.00" fill="#000000">Output.h</text>
</a>
</g>
</g>
<!-- Node3&#45;&gt;Node9 -->
<g id="edge6" class="edge">
<title>Node3&#45;&gt;Node9</title>
<path fill="none" stroke="#191970" d="M293.566,-104.1771C293.566,-95.1625 293.566,-84.9556 293.566,-77.6022"/>
<polygon fill="#191970" stroke="#191970" points="290.0661,-104.3095 293.566,-114.3095 297.0661,-104.3096 290.0661,-104.3095"/>
</g>
<!-- Node11 -->
<g id="node9" class="node">
<title>Node11</title>
<g id="a_node9"><a xlink:href="IOBase_8cpp.html" target="_top" xlink:title="IOBase.cpp">
<polygon fill="#ffffff" stroke="#000000" points="338.445,-57.5 338.445,-77.5 406.687,-77.5 406.687,-57.5 338.445,-57.5"/>
<text text-anchor="middle" x="372.566" y="-64.5" font-family="Helvetica,sans-Serif" font-size="10.00" fill="#000000">IOBase.cpp</text>
</a>
</g>
</g>
<!-- Node3&#45;&gt;Node11 -->
<g id="edge10" class="edge">
<title>Node3&#45;&gt;Node11</title>
<path fill="none" stroke="#191970" d="M316.1042,-108.2383C329.7803,-98.3707 346.8053,-86.0868 358.5647,-77.6022"/>
<polygon fill="#191970" stroke="#191970" points="313.7512,-105.62 307.6896,-114.3095 317.8471,-111.2967 313.7512,-105.62"/>
</g>
<!-- Node5 -->
<g id="node3" class="node">
<title>Node5</title>
<g id="a_node3"><a xlink:href="main_8cpp.html" target="_top" xlink:title="main.cpp">
<polygon fill="#ffffff" stroke="#000000" points="75.2845,-.5 75.2845,-20.5 131.8475,-20.5 131.8475,-.5 75.2845,-.5"/>
<text text-anchor="middle" x="103.566" y="-7.5" font-family="Helvetica,sans-Serif" font-size="10.00" fill="#000000">main.cpp</text>
</a>
</g>
</g>
<!-- Node4&#45;&gt;Node5 -->
<g id="edge2" class="edge">
<title>Node4&#45;&gt;Node5</title>
<path fill="none" stroke="#191970" d="M165.4551,-51.5195C150.4963,-41.605 131.7312,-29.1676 118.808,-20.6022"/>
<polygon fill="#191970" stroke="#191970" points="163.9219,-54.7023 174.1909,-57.3095 167.7892,-48.8675 163.9219,-54.7023"/>
</g>
<!-- Node6 -->
<g id="node4" class="node">
<title>Node6</title>
<g id="a_node4"><a xlink:href="BoeingSurfaceVehicleControl_8cpp.html" target="_top" xlink:title="BoeingSurfaceVehicleControl.cpp">
<polygon fill="#ffffff" stroke="#000000" points="246.825,-.5 246.825,-20.5 412.307,-20.5 412.307,-.5 246.825,-.5"/>
<text text-anchor="middle" x="329.566" y="-7.5" font-family="Helvetica,sans-Serif" font-size="10.00" fill="#000000">BoeingSurfaceVehicleControl.cpp</text>
</a>
</g>
</g>
<!-- Node4&#45;&gt;Node6 -->
<g id="edge3" class="edge">
<title>Node4&#45;&gt;Node6</title>
<path fill="none" stroke="#191970" d="M222.4886,-54.0958C247.6273,-43.8607 281.7342,-29.9744 304.6389,-20.6489"/>
<polygon fill="#191970" stroke="#191970" points="220.9408,-50.9469 212.9989,-57.9595 223.5805,-57.4302 220.9408,-50.9469"/>
</g>
<!-- Node7 -->
<g id="node5" class="node">
<title>Node7</title>
<g id="a_node5"><a xlink:href="Input_8cpp.html" target="_top" xlink:title="Input.cpp">
<polygon fill="#ffffff" stroke="#000000" points="0,-.5 0,-20.5 57.132,-20.5 57.132,-.5 0,-.5"/>
<text text-anchor="middle" x="28.566" y="-7.5" font-family="Helvetica,sans-Serif" font-size="10.00" fill="#000000">Input.cpp</text>
</a>
</g>
</g>
<!-- Node4&#45;&gt;Node7 -->
<g id="edge4" class="edge">
<title>Node4&#45;&gt;Node7</title>
<path fill="none" stroke="#191970" d="M156.3615,-55.7444C127.013,-45.3539 84.6689,-30.3625 56.8895,-20.5276"/>
<polygon fill="#191970" stroke="#191970" points="155.5604,-59.1736 166.1552,-59.2117 157.8967,-52.5749 155.5604,-59.1736"/>
</g>
<!-- Node8 -->
<g id="node6" class="node">
<title>Node8</title>
<g id="a_node6"><a xlink:href="IOFactory_8cpp.html" target="_top" xlink:title="IOFactory.cpp">
<polygon fill="#ffffff" stroke="#000000" points="150.171,-.5 150.171,-20.5 228.961,-20.5 228.961,-.5 150.171,-.5"/>
<text text-anchor="middle" x="189.566" y="-7.5" font-family="Helvetica,sans-Serif" font-size="10.00" fill="#000000">IOFactory.cpp</text>
</a>
</g>
</g>
<!-- Node4&#45;&gt;Node8 -->
<g id="edge5" class="edge">
<title>Node4&#45;&gt;Node8</title>
<path fill="none" stroke="#191970" d="M189.566,-47.1771C189.566,-38.1625 189.566,-27.9556 189.566,-20.6022"/>
<polygon fill="#191970" stroke="#191970" points="186.0661,-47.3095 189.566,-57.3095 193.0661,-47.3096 186.0661,-47.3095"/>
</g>
<!-- Node9&#45;&gt;Node6 -->
<g id="edge7" class="edge">
<title>Node9&#45;&gt;Node6</title>
<path fill="none" stroke="#191970" d="M305.4703,-48.6515C311.3811,-39.2928 318.2863,-28.3596 323.1856,-20.6022"/>
<polygon fill="#191970" stroke="#191970" points="302.3828,-46.9856 300.0021,-57.3095 308.3013,-50.7236 302.3828,-46.9856"/>
</g>
<!-- Node9&#45;&gt;Node8 -->
<g id="edge8" class="edge">
<title>Node9&#45;&gt;Node8</title>
<path fill="none" stroke="#191970" d="M266.1851,-52.4931C247.8252,-42.4305 224.1423,-29.4505 207.9981,-20.6022"/>
<polygon fill="#191970" stroke="#191970" points="264.5214,-55.5725 274.9729,-57.3095 267.8858,-49.434 264.5214,-55.5725"/>
</g>
<!-- Node10 -->
<g id="node8" class="node">
<title>Node10</title>
<g id="a_node8"><a xlink:href="Output_8cpp.html" target="_top" xlink:title="Output.cpp">
<polygon fill="#ffffff" stroke="#000000" points="430.1105,-.5 430.1105,-20.5 495.0215,-20.5 495.0215,-.5 430.1105,-.5"/>
<text text-anchor="middle" x="462.566" y="-7.5" font-family="Helvetica,sans-Serif" font-size="10.00" fill="#000000">Output.cpp</text>
</a>
</g>
</g>
<!-- Node9&#45;&gt;Node10 -->
<g id="edge9" class="edge">
<title>Node9&#45;&gt;Node10</title>
<path fill="none" stroke="#191970" d="M330.5851,-55.0143C361.2575,-44.6692 404.2874,-30.1561 432.7715,-20.549"/>
<polygon fill="#191970" stroke="#191970" points="329.4519,-51.7027 321.0949,-58.2151 331.6891,-58.3356 329.4519,-51.7027"/>
</g>
</g>
</svg>
