<?xml version="1.0" encoding="UTF-8" standalone="no"?>
<!DOCTYPE svg PUBLIC "-//W3C//DTD SVG 1.1//EN"
 "http://www.w3.org/Graphics/SVG/1.1/DTD/svg11.dtd">
<!-- Generated by graphviz version 2.40.1 (20161225.0304)
 -->
<!-- Title: /home/jc/Documents/School/SeniorDesign/ControlCode/MainApplication/Headers/IO/IOBase.h Pages: 1 -->
<svg width="870pt" height="263pt"
 viewBox="0.00 0.00 870.24 263.00" xmlns="http://www.w3.org/2000/svg" xmlns:xlink="http://www.w3.org/1999/xlink">
<g id="graph0" class="graph" transform="scale(1 1) rotate(0) translate(4 259)">
<title>/home/jc/Documents/School/SeniorDesign/ControlCode/MainApplication/Headers/IO/IOBase.h</title>
<polygon fill="#ffffff" stroke="transparent" points="-4,4 -4,-259 866.243,-259 866.243,4 -4,4"/>
<!-- Node3 -->
<g id="node1" class="node">
<title>Node3</title>
<polygon fill="#bfbfbf" stroke="#000000" points="510,-198.5 510,-254.5 658.243,-254.5 658.243,-198.5 510,-198.5"/>
<text text-anchor="start" x="518" y="-241.5" font-family="Helvetica,sans-Serif" font-size="10.00" fill="#000000">/home/jc/Documents</text>
<text text-anchor="start" x="518" y="-229.5" font-family="Helvetica,sans-Serif" font-size="10.00" fill="#000000">/School/SeniorDesign</text>
<text text-anchor="start" x="518" y="-217.5" font-family="Helvetica,sans-Serif" font-size="10.00" fill="#000000">/ControlCode/MainApplication</text>
<text text-anchor="middle" x="584.1215" y="-205.5" font-family="Helvetica,sans-Serif" font-size="10.00" fill="#000000">/Headers/IO/IOBase.h</text>
</g>
<!-- Node4 -->
<g id="node2" class="node">
<title>Node4</title>
<g id="a_node2"><a xlink:href="Input_8h.html" target="_top" xlink:title="/home/jc/Documents\l/School/SeniorDesign\l/ControlCode/MainApplication\l/Headers/IO/Input.h">
<polygon fill="#ffffff" stroke="#000000" points="332,-105.5 332,-161.5 480.243,-161.5 480.243,-105.5 332,-105.5"/>
<text text-anchor="start" x="340" y="-148.5" font-family="Helvetica,sans-Serif" font-size="10.00" fill="#000000">/home/jc/Documents</text>
<text text-anchor="start" x="340" y="-136.5" font-family="Helvetica,sans-Serif" font-size="10.00" fill="#000000">/School/SeniorDesign</text>
<text text-anchor="start" x="340" y="-124.5" font-family="Helvetica,sans-Serif" font-size="10.00" fill="#000000">/ControlCode/MainApplication</text>
<text text-anchor="middle" x="406.1215" y="-112.5" font-family="Helvetica,sans-Serif" font-size="10.00" fill="#000000">/Headers/IO/Input.h</text>
</a>
</g>
</g>
<!-- Node3&#45;&gt;Node4 -->
<g id="edge1" class="edge">
<title>Node3&#45;&gt;Node4</title>
<path fill="none" stroke="#191970" d="M521.1758,-193.6126C501.132,-183.1403 479.1546,-171.6578 459.8273,-161.5597"/>
<polygon fill="#191970" stroke="#191970" points="519.7486,-196.8159 530.2326,-198.3446 522.9902,-190.6116 519.7486,-196.8159"/>
</g>
<!-- Node9 -->
<g id="node7" class="node">
<title>Node9</title>
<g id="a_node7"><a xlink:href="Output_8h.html" target="_top" xlink:title="/home/jc/Documents\l/School/SeniorDesign\l/ControlCode/MainApplication\l/Headers/IO/Output.h">
<polygon fill="#ffffff" stroke="#000000" points="510,-105.5 510,-161.5 658.243,-161.5 658.243,-105.5 510,-105.5"/>
<text text-anchor="start" x="518" y="-148.5" font-family="Helvetica,sans-Serif" font-size="10.00" fill="#000000">/home/jc/Documents</text>
<text text-anchor="start" x="518" y="-136.5" font-family="Helvetica,sans-Serif" font-size="10.00" fill="#000000">/School/SeniorDesign</text>
<text text-anchor="start" x="518" y="-124.5" font-family="Helvetica,sans-Serif" font-size="10.00" fill="#000000">/ControlCode/MainApplication</text>
<text text-anchor="middle" x="584.1215" y="-112.5" font-family="Helvetica,sans-Serif" font-size="10.00" fill="#000000">/Headers/IO/Output.h</text>
</a>
</g>
</g>
<!-- Node3&#45;&gt;Node9 -->
<g id="edge6" class="edge">
<title>Node3&#45;&gt;Node9</title>
<path fill="none" stroke="#191970" d="M584.1215,-188.1582C584.1215,-179.2499 584.1215,-169.9293 584.1215,-161.5597"/>
<polygon fill="#191970" stroke="#191970" points="580.6216,-188.3445 584.1215,-198.3446 587.6216,-188.3446 580.6216,-188.3445"/>
</g>
<!-- Node11 -->
<g id="node9" class="node">
<title>Node11</title>
<g id="a_node9"><a xlink:href="IOBase_8cpp.html" target="_top" xlink:title="/home/jc/Documents\l/School/SeniorDesign\l/ControlCode/MainApplication\l/Sources/IO/IOBase.cpp">
<polygon fill="#ffffff" stroke="#000000" points="676,-105.5 676,-161.5 824.243,-161.5 824.243,-105.5 676,-105.5"/>
<text text-anchor="start" x="684" y="-148.5" font-family="Helvetica,sans-Serif" font-size="10.00" fill="#000000">/home/jc/Documents</text>
<text text-anchor="start" x="684" y="-136.5" font-family="Helvetica,sans-Serif" font-size="10.00" fill="#000000">/School/SeniorDesign</text>
<text text-anchor="start" x="684" y="-124.5" font-family="Helvetica,sans-Serif" font-size="10.00" fill="#000000">/ControlCode/MainApplication</text>
<text text-anchor="middle" x="750.1215" y="-112.5" font-family="Helvetica,sans-Serif" font-size="10.00" fill="#000000">/Sources/IO/IOBase.cpp</text>
</a>
</g>
</g>
<!-- Node3&#45;&gt;Node11 -->
<g id="edge10" class="edge">
<title>Node3&#45;&gt;Node11</title>
<path fill="none" stroke="#191970" d="M643.3293,-193.3293C661.8853,-182.9335 682.1743,-171.5668 700.0364,-161.5597"/>
<polygon fill="#191970" stroke="#191970" points="641.3909,-190.4034 634.3775,-198.3446 644.8123,-196.5103 641.3909,-190.4034"/>
</g>
<!-- Node5 -->
<g id="node3" class="node">
<title>Node5</title>
<g id="a_node3"><a xlink:href="main_8cpp.html" target="_top" xlink:title="/home/jc/Documents\l/School/SeniorDesign\l/ControlCode/MainApplication\l/main.cpp">
<polygon fill="#ffffff" stroke="#000000" points="166,-6.5 166,-62.5 314.243,-62.5 314.243,-6.5 166,-6.5"/>
<text text-anchor="start" x="174" y="-49.5" font-family="Helvetica,sans-Serif" font-size="10.00" fill="#000000">/home/jc/Documents</text>
<text text-anchor="start" x="174" y="-37.5" font-family="Helvetica,sans-Serif" font-size="10.00" fill="#000000">/School/SeniorDesign</text>
<text text-anchor="start" x="174" y="-25.5" font-family="Helvetica,sans-Serif" font-size="10.00" fill="#000000">/ControlCode/MainApplication</text>
<text text-anchor="middle" x="240.1215" y="-13.5" font-family="Helvetica,sans-Serif" font-size="10.00" fill="#000000">/main.cpp</text>
</a>
</g>
</g>
<!-- Node4&#45;&gt;Node5 -->
<g id="edge2" class="edge">
<title>Node4&#45;&gt;Node5</title>
<path fill="none" stroke="#191970" d="M350.362,-100.2458C329.8169,-87.9931 306.7673,-74.2466 287.0767,-62.5034"/>
<polygon fill="#191970" stroke="#191970" points="348.6152,-103.2792 358.9966,-105.3954 352.2007,-97.2672 348.6152,-103.2792"/>
</g>
<!-- Node6 -->
<g id="node4" class="node">
<title>Node6</title>
<g id="a_node4"><a xlink:href="BoeingSurfaceVehicleControl_8cpp.html" target="_top" xlink:title="/home/jc/Documents\l/School/SeniorDesign\l/ControlCode/MainApplication\l/Sources/ControlSoftware/BoeingSurface\lVehicleControl.cpp">
<polygon fill="#ffffff" stroke="#000000" points="497.989,-.5 497.989,-68.5 696.254,-68.5 696.254,-.5 497.989,-.5"/>
<text text-anchor="start" x="505.989" y="-55.5" font-family="Helvetica,sans-Serif" font-size="10.00" fill="#000000">/home/jc/Documents</text>
<text text-anchor="start" x="505.989" y="-43.5" font-family="Helvetica,sans-Serif" font-size="10.00" fill="#000000">/School/SeniorDesign</text>
<text text-anchor="start" x="505.989" y="-31.5" font-family="Helvetica,sans-Serif" font-size="10.00" fill="#000000">/ControlCode/MainApplication</text>
<text text-anchor="start" x="505.989" y="-19.5" font-family="Helvetica,sans-Serif" font-size="10.00" fill="#000000">/Sources/ControlSoftware/BoeingSurface</text>
<text text-anchor="middle" x="597.1215" y="-7.5" font-family="Helvetica,sans-Serif" font-size="10.00" fill="#000000">VehicleControl.cpp</text>
</a>
</g>
</g>
<!-- Node4&#45;&gt;Node6 -->
<g id="edge3" class="edge">
<title>Node4&#45;&gt;Node6</title>
<path fill="none" stroke="#191970" d="M469.3102,-100.7478C489.1815,-90.448 511.1685,-79.0515 531.223,-68.6568"/>
<polygon fill="#191970" stroke="#191970" points="467.6111,-97.6861 460.3435,-105.3954 470.8324,-103.9009 467.6111,-97.6861"/>
</g>
<!-- Node7 -->
<g id="node5" class="node">
<title>Node7</title>
<g id="a_node5"><a xlink:href="Input_8cpp.html" target="_top" xlink:title="/home/jc/Documents\l/School/SeniorDesign\l/ControlCode/MainApplication\l/Sources/IO/Input.cpp">
<polygon fill="#ffffff" stroke="#000000" points="0,-6.5 0,-62.5 148.243,-62.5 148.243,-6.5 0,-6.5"/>
<text text-anchor="start" x="8" y="-49.5" font-family="Helvetica,sans-Serif" font-size="10.00" fill="#000000">/home/jc/Documents</text>
<text text-anchor="start" x="8" y="-37.5" font-family="Helvetica,sans-Serif" font-size="10.00" fill="#000000">/School/SeniorDesign</text>
<text text-anchor="start" x="8" y="-25.5" font-family="Helvetica,sans-Serif" font-size="10.00" fill="#000000">/ControlCode/MainApplication</text>
<text text-anchor="middle" x="74.1215" y="-13.5" font-family="Helvetica,sans-Serif" font-size="10.00" fill="#000000">/Sources/IO/Input.cpp</text>
</a>
</g>
</g>
<!-- Node4&#45;&gt;Node7 -->
<g id="edge4" class="edge">
<title>Node4&#45;&gt;Node7</title>
<path fill="none" stroke="#191970" d="M321.9246,-114.8049C273.2729,-103.2311 211.1864,-87.1388 157.1215,-69 151.3516,-67.0642 145.4135,-64.9175 139.4922,-62.6691"/>
<polygon fill="#191970" stroke="#191970" points="321.245,-118.2406 331.7816,-117.1319 322.8533,-111.4279 321.245,-118.2406"/>
</g>
<!-- Node8 -->
<g id="node6" class="node">
<title>Node8</title>
<g id="a_node6"><a xlink:href="IOFactory_8cpp.html" target="_top" xlink:title="/home/jc/Documents\l/School/SeniorDesign\l/ControlCode/MainApplication\l/Sources/IO/IOFactory.cpp">
<polygon fill="#ffffff" stroke="#000000" points="332,-6.5 332,-62.5 480.243,-62.5 480.243,-6.5 332,-6.5"/>
<text text-anchor="start" x="340" y="-49.5" font-family="Helvetica,sans-Serif" font-size="10.00" fill="#000000">/home/jc/Documents</text>
<text text-anchor="start" x="340" y="-37.5" font-family="Helvetica,sans-Serif" font-size="10.00" fill="#000000">/School/SeniorDesign</text>
<text text-anchor="start" x="340" y="-25.5" font-family="Helvetica,sans-Serif" font-size="10.00" fill="#000000">/ControlCode/MainApplication</text>
<text text-anchor="middle" x="406.1215" y="-13.5" font-family="Helvetica,sans-Serif" font-size="10.00" fill="#000000">/Sources/IO/IOFactory.cpp</text>
</a>
</g>
</g>
<!-- Node4&#45;&gt;Node8 -->
<g id="edge5" class="edge">
<title>Node4&#45;&gt;Node8</title>
<path fill="none" stroke="#191970" d="M406.1215,-95.2953C406.1215,-84.4399 406.1215,-72.8188 406.1215,-62.6749"/>
<polygon fill="#191970" stroke="#191970" points="402.6216,-95.3954 406.1215,-105.3954 409.6216,-95.3954 402.6216,-95.3954"/>
</g>
<!-- Node9&#45;&gt;Node6 -->
<g id="edge7" class="edge">
<title>Node9&#45;&gt;Node6</title>
<path fill="none" stroke="#191970" d="M589.1281,-95.3728C590.2833,-86.5758 591.5049,-77.2723 592.6363,-68.6568"/>
<polygon fill="#191970" stroke="#191970" points="585.6438,-95.0248 587.812,-105.3954 592.5843,-95.9362 585.6438,-95.0248"/>
</g>
<!-- Node9&#45;&gt;Node8 -->
<g id="edge8" class="edge">
<title>Node9&#45;&gt;Node8</title>
<path fill="none" stroke="#191970" d="M524.6261,-100.4098C502.5217,-88.1158 477.6793,-74.299 456.4711,-62.5034"/>
<polygon fill="#191970" stroke="#191970" points="523.1495,-103.5935 533.59,-105.3954 526.5519,-97.476 523.1495,-103.5935"/>
</g>
<!-- Node10 -->
<g id="node8" class="node">
<title>Node10</title>
<g id="a_node8"><a xlink:href="Output_8cpp.html" target="_top" xlink:title="/home/jc/Documents\l/School/SeniorDesign\l/ControlCode/MainApplication\l/Sources/IO/Output.cpp">
<polygon fill="#ffffff" stroke="#000000" points="714,-6.5 714,-62.5 862.243,-62.5 862.243,-6.5 714,-6.5"/>
<text text-anchor="start" x="722" y="-49.5" font-family="Helvetica,sans-Serif" font-size="10.00" fill="#000000">/home/jc/Documents</text>
<text text-anchor="start" x="722" y="-37.5" font-family="Helvetica,sans-Serif" font-size="10.00" fill="#000000">/School/SeniorDesign</text>
<text text-anchor="start" x="722" y="-25.5" font-family="Helvetica,sans-Serif" font-size="10.00" fill="#000000">/ControlCode/MainApplication</text>
<text text-anchor="middle" x="788.1215" y="-13.5" font-family="Helvetica,sans-Serif" font-size="10.00" fill="#000000">/Sources/IO/Output.cpp</text>
</a>
</g>
</g>
<!-- Node9&#45;&gt;Node10 -->
<g id="edge9" class="edge">
<title>Node9&#45;&gt;Node10</title>
<path fill="none" stroke="#191970" d="M651.2956,-100.9008C676.8804,-88.4846 705.7873,-74.4563 730.4175,-62.5034"/>
<polygon fill="#191970" stroke="#191970" points="649.5025,-97.8805 642.034,-105.3954 652.5587,-104.1782 649.5025,-97.8805"/>
</g>
</g>
</svg>
