<?xml version="1.0" encoding="UTF-8" standalone="no"?>
<!DOCTYPE svg PUBLIC "-//W3C//DTD SVG 1.1//EN"
 "http://www.w3.org/Graphics/SVG/1.1/DTD/svg11.dtd">
<!-- Generated by graphviz version 2.40.1 (20161225.0304)
 -->
<!-- Title: /home/jc/Documents/School/SeniorDesign/ControlCode/MainApplication/Sources/IO/IOBase.cpp Pages: 1 -->
<svg width="227pt" height="179pt"
 viewBox="0.00 0.00 226.73 179.00" xmlns="http://www.w3.org/2000/svg" xmlns:xlink="http://www.w3.org/1999/xlink">
<g id="graph0" class="graph" transform="scale(1 1) rotate(0) translate(4 175)">
<title>/home/jc/Documents/School/SeniorDesign/ControlCode/MainApplication/Sources/IO/IOBase.cpp</title>
<polygon fill="#ffffff" stroke="transparent" points="-4,4 -4,-175 222.729,-175 222.729,4 -4,4"/>
<!-- Node0 -->
<g id="node1" class="node">
<title>Node0</title>
<polygon fill="#bfbfbf" stroke="#000000" points="50.101,-114.5 50.101,-170.5 198.344,-170.5 198.344,-114.5 50.101,-114.5"/>
<text text-anchor="start" x="58.101" y="-157.5" font-family="Helvetica,sans-Serif" font-size="10.00" fill="#000000">/home/jc/Documents</text>
<text text-anchor="start" x="58.101" y="-145.5" font-family="Helvetica,sans-Serif" font-size="10.00" fill="#000000">/School/SeniorDesign</text>
<text text-anchor="start" x="58.101" y="-133.5" font-family="Helvetica,sans-Serif" font-size="10.00" fill="#000000">/ControlCode/MainApplication</text>
<text text-anchor="middle" x="124.2225" y="-121.5" font-family="Helvetica,sans-Serif" font-size="10.00" fill="#000000">/Sources/IO/IOBase.cpp</text>
</g>
<!-- Node1 -->
<g id="node2" class="node">
<title>Node1</title>
<g id="a_node2"><a xlink:href="IOBase_8h.html" target="_top" xlink:title="IOBase.h">
<polygon fill="#ffffff" stroke="#000000" points="22.381,-57.5 22.381,-77.5 80.064,-77.5 80.064,-57.5 22.381,-57.5"/>
<text text-anchor="middle" x="51.2225" y="-64.5" font-family="Helvetica,sans-Serif" font-size="10.00" fill="#000000">IOBase.h</text>
</a>
</g>
</g>
<!-- Node0&#45;&gt;Node1 -->
<g id="edge1" class="edge">
<title>Node0&#45;&gt;Node1</title>
<path fill="none" stroke="#191970" d="M96.6243,-114.1457C87.1033,-104.3638 76.7215,-93.6976 68.2916,-85.0368"/>
<polygon fill="#191970" stroke="#191970" points="70.6623,-82.4543 61.1793,-77.7296 65.6461,-87.3368 70.6623,-82.4543"/>
</g>
<!-- Node4 -->
<g id="node5" class="node">
<title>Node4</title>
<polygon fill="#ffffff" stroke="#bfbfbf" points="98.445,-57.5 98.445,-77.5 150,-77.5 150,-57.5 98.445,-57.5"/>
<text text-anchor="middle" x="124.2225" y="-64.5" font-family="Helvetica,sans-Serif" font-size="10.00" fill="#000000">sstream</text>
</g>
<!-- Node0&#45;&gt;Node4 -->
<g id="edge4" class="edge">
<title>Node0&#45;&gt;Node4</title>
<path fill="none" stroke="#191970" d="M124.2225,-114.1457C124.2225,-105.3619 124.2225,-95.8652 124.2225,-87.7476"/>
<polygon fill="#191970" stroke="#191970" points="127.7226,-87.7295 124.2225,-77.7296 120.7226,-87.7296 127.7226,-87.7295"/>
</g>
<!-- Node5 -->
<g id="node6" class="node">
<title>Node5</title>
<polygon fill="#ffffff" stroke="#bfbfbf" points="167.716,-57.5 167.716,-77.5 218.729,-77.5 218.729,-57.5 167.716,-57.5"/>
<text text-anchor="middle" x="193.2225" y="-64.5" font-family="Helvetica,sans-Serif" font-size="10.00" fill="#000000">unistd.h</text>
</g>
<!-- Node0&#45;&gt;Node5 -->
<g id="edge5" class="edge">
<title>Node0&#45;&gt;Node5</title>
<path fill="none" stroke="#191970" d="M150.3084,-114.1457C159.216,-104.4636 168.9205,-93.9152 176.8442,-85.3025"/>
<polygon fill="#191970" stroke="#191970" points="179.6165,-87.4586 183.8113,-77.7296 174.4649,-82.7192 179.6165,-87.4586"/>
</g>
<!-- Node2 -->
<g id="node3" class="node">
<title>Node2</title>
<polygon fill="#ffffff" stroke="#bfbfbf" points="0,-.5 0,-20.5 40.445,-20.5 40.445,-.5 0,-.5"/>
<text text-anchor="middle" x="20.2225" y="-7.5" font-family="Helvetica,sans-Serif" font-size="10.00" fill="#000000">string</text>
</g>
<!-- Node1&#45;&gt;Node2 -->
<g id="edge2" class="edge">
<title>Node1&#45;&gt;Node2</title>
<path fill="none" stroke="#191970" d="M45.6803,-57.3095C41.4925,-49.6093 35.6228,-38.8166 30.5748,-29.5349"/>
<polygon fill="#191970" stroke="#191970" points="33.5692,-27.7149 25.7167,-20.6022 27.4198,-31.0593 33.5692,-27.7149"/>
</g>
<!-- Node3 -->
<g id="node4" class="node">
<title>Node3</title>
<polygon fill="#ffffff" stroke="#bfbfbf" points="58.5555,-.5 58.5555,-20.5 107.8895,-20.5 107.8895,-.5 58.5555,-.5"/>
<text text-anchor="middle" x="83.2225" y="-7.5" font-family="Helvetica,sans-Serif" font-size="10.00" fill="#000000">fstream</text>
</g>
<!-- Node1&#45;&gt;Node3 -->
<g id="edge3" class="edge">
<title>Node1&#45;&gt;Node3</title>
<path fill="none" stroke="#191970" d="M56.9435,-57.3095C61.2664,-49.6093 67.3255,-38.8166 72.5363,-29.5349"/>
<polygon fill="#191970" stroke="#191970" points="75.7076,-31.0355 77.5511,-20.6022 69.6037,-27.6087 75.7076,-31.0355"/>
</g>
</g>
</svg>
