<?xml version="1.0" encoding="UTF-8" standalone="no"?>
<!DOCTYPE svg PUBLIC "-//W3C//DTD SVG 1.1//EN"
 "http://www.w3.org/Graphics/SVG/1.1/DTD/svg11.dtd">
<!-- Generated by graphviz version 2.40.1 (20161225.0304)
 -->
<!-- Title: /home/jc/Documents/School/SeniorDesign/ControlCode/MainApplication/Headers/IO/IOBase.h Pages: 1 -->
<svg width="156pt" height="122pt"
 viewBox="0.00 0.00 156.24 122.00" xmlns="http://www.w3.org/2000/svg" xmlns:xlink="http://www.w3.org/1999/xlink">
<g id="graph0" class="graph" transform="scale(1 1) rotate(0) translate(4 118)">
<title>/home/jc/Documents/School/SeniorDesign/ControlCode/MainApplication/Headers/IO/IOBase.h</title>
<polygon fill="#ffffff" stroke="transparent" points="-4,4 -4,-118 152.243,-118 152.243,4 -4,4"/>
<!-- Node0 -->
<g id="node1" class="node">
<title>Node0</title>
<polygon fill="#bfbfbf" stroke="#000000" points="0,-57.5 0,-113.5 148.243,-113.5 148.243,-57.5 0,-57.5"/>
<text text-anchor="start" x="8" y="-100.5" font-family="Helvetica,sans-Serif" font-size="10.00" fill="#000000">/home/jc/Documents</text>
<text text-anchor="start" x="8" y="-88.5" font-family="Helvetica,sans-Serif" font-size="10.00" fill="#000000">/School/SeniorDesign</text>
<text text-anchor="start" x="8" y="-76.5" font-family="Helvetica,sans-Serif" font-size="10.00" fill="#000000">/ControlCode/MainApplication</text>
<text text-anchor="middle" x="74.1215" y="-64.5" font-family="Helvetica,sans-Serif" font-size="10.00" fill="#000000">/Headers/IO/IOBase.h</text>
</g>
<!-- Node1 -->
<g id="node2" class="node">
<title>Node1</title>
<polygon fill="#ffffff" stroke="#bfbfbf" points="22.899,-.5 22.899,-20.5 63.344,-20.5 63.344,-.5 22.899,-.5"/>
<text text-anchor="middle" x="43.1215" y="-7.5" font-family="Helvetica,sans-Serif" font-size="10.00" fill="#000000">string</text>
</g>
<!-- Node0&#45;&gt;Node1 -->
<g id="edge1" class="edge">
<title>Node0&#45;&gt;Node1</title>
<path fill="none" stroke="#191970" d="M62.4017,-57.1457C58.6886,-48.1623 54.6672,-38.4332 51.2626,-30.1963"/>
<polygon fill="#191970" stroke="#191970" points="54.4043,-28.6342 47.3497,-20.7296 47.9351,-31.3082 54.4043,-28.6342"/>
</g>
<!-- Node2 -->
<g id="node3" class="node">
<title>Node2</title>
<polygon fill="#ffffff" stroke="#bfbfbf" points="81.4545,-.5 81.4545,-20.5 130.7885,-20.5 130.7885,-.5 81.4545,-.5"/>
<text text-anchor="middle" x="106.1215" y="-7.5" font-family="Helvetica,sans-Serif" font-size="10.00" fill="#000000">fstream</text>
</g>
<!-- Node0&#45;&gt;Node2 -->
<g id="edge2" class="edge">
<title>Node0&#45;&gt;Node2</title>
<path fill="none" stroke="#191970" d="M86.2193,-57.1457C90.0522,-48.1623 94.2034,-38.4332 97.7177,-30.1963"/>
<polygon fill="#191970" stroke="#191970" points="101.0517,-31.3009 101.7569,-20.7296 94.6132,-28.5538 101.0517,-31.3009"/>
</g>
</g>
</svg>
