<?xml version="1.0" encoding="UTF-8" standalone="no"?>
<!DOCTYPE svg PUBLIC "-//W3C//DTD SVG 1.1//EN"
 "http://www.w3.org/Graphics/SVG/1.1/DTD/svg11.dtd">
<!-- Generated by graphviz version 2.40.1 (20161225.0304)
 -->
<!-- Title: IOBase.h Pages: 1 -->
<svg width="503pt" height="143pt"
 viewBox="0.00 0.00 502.74 143.00" xmlns="http://www.w3.org/2000/svg" xmlns:xlink="http://www.w3.org/1999/xlink">
<g id="graph0" class="graph" transform="scale(1 1) rotate(0) translate(4 139)">
<title>IOBase.h</title>
<polygon fill="#ffffff" stroke="transparent" points="-4,4 -4,-139 498.737,-139 498.737,4 -4,4"/>
<!-- Node3 -->
<g id="node1" class="node">
<title>Node3</title>
<polygon fill="#bfbfbf" stroke="#000000" points="264.44,-114.5 264.44,-134.5 322.123,-134.5 322.123,-114.5 264.44,-114.5"/>
<text text-anchor="middle" x="293.2815" y="-121.5" font-family="Helvetica,sans-Serif" font-size="10.00" fill="#000000">IOBase.h</text>
</g>
<!-- Node4 -->
<g id="node2" class="node">
<title>Node4</title>
<g id="a_node2"><a xlink:href="Input_8h.html" target="_top" xlink:title="Input.h">
<polygon fill="#ffffff" stroke="#000000" points="165.995,-57.5 165.995,-77.5 212.568,-77.5 212.568,-57.5 165.995,-57.5"/>
<text text-anchor="middle" x="189.2815" y="-64.5" font-family="Helvetica,sans-Serif" font-size="10.00" fill="#000000">Input.h</text>
</a>
</g>
</g>
<!-- Node3&#45;&gt;Node4 -->
<g id="edge1" class="edge">
<title>Node3&#45;&gt;Node4</title>
<path fill="none" stroke="#191970" d="M265.9006,-109.4931C247.5407,-99.4305 223.8578,-86.4505 207.7136,-77.6022"/>
<polygon fill="#191970" stroke="#191970" points="264.2369,-112.5725 274.6884,-114.3095 267.6013,-106.434 264.2369,-112.5725"/>
</g>
<!-- Node9 -->
<g id="node7" class="node">
<title>Node9</title>
<g id="a_node7"><a xlink:href="Output_8h.html" target="_top" xlink:title="Output.h">
<polygon fill="#ffffff" stroke="#000000" points="266.1055,-57.5 266.1055,-77.5 320.4575,-77.5 320.4575,-57.5 266.1055,-57.5"/>
<text text-anchor="middle" x="293.2815" y="-64.5" font-family="Helvetica,sans-Serif" font-size="10.00" fill="#000000">Output.h</text>
</a>
</g>
</g>
<!-- Node3&#45;&gt;Node9 -->
<g id="edge6" class="edge">
<title>Node3&#45;&gt;Node9</title>
<path fill="none" stroke="#191970" d="M293.2815,-104.1771C293.2815,-95.1625 293.2815,-84.9556 293.2815,-77.6022"/>
<polygon fill="#191970" stroke="#191970" points="289.7816,-104.3095 293.2815,-114.3095 296.7816,-104.3096 289.7816,-104.3095"/>
</g>
<!-- Node11 -->
<g id="node9" class="node">
<title>Node11</title>
<g id="a_node9"><a xlink:href="IOBase_8cpp.html" target="_top" xlink:title="IOBase.cpp">
<polygon fill="#ffffff" stroke="#000000" points="338.1605,-57.5 338.1605,-77.5 406.4025,-77.5 406.4025,-57.5 338.1605,-57.5"/>
<text text-anchor="middle" x="372.2815" y="-64.5" font-family="Helvetica,sans-Serif" font-size="10.00" fill="#000000">IOBase.cpp</text>
</a>
</g>
</g>
<!-- Node3&#45;&gt;Node11 -->
<g id="edge10" class="edge">
<title>Node3&#45;&gt;Node11</title>
<path fill="none" stroke="#191970" d="M315.8197,-108.2383C329.4958,-98.3707 346.5208,-86.0868 358.2802,-77.6022"/>
<polygon fill="#191970" stroke="#191970" points="313.4667,-105.62 307.4051,-114.3095 317.5626,-111.2967 313.4667,-105.62"/>
</g>
<!-- Node5 -->
<g id="node3" class="node">
<title>Node5</title>
<g id="a_node3"><a xlink:href="Input_8cpp.html" target="_top" xlink:title="Input.cpp">
<polygon fill="#ffffff" stroke="#000000" points="74.7155,-.5 74.7155,-20.5 131.8475,-20.5 131.8475,-.5 74.7155,-.5"/>
<text text-anchor="middle" x="103.2815" y="-7.5" font-family="Helvetica,sans-Serif" font-size="10.00" fill="#000000">Input.cpp</text>
</a>
</g>
</g>
<!-- Node4&#45;&gt;Node5 -->
<g id="edge2" class="edge">
<title>Node4&#45;&gt;Node5</title>
<path fill="none" stroke="#191970" d="M165.1706,-51.5195C150.2118,-41.605 131.4467,-29.1676 118.5235,-20.6022"/>
<polygon fill="#191970" stroke="#191970" points="163.6374,-54.7023 173.9064,-57.3095 167.5047,-48.8675 163.6374,-54.7023"/>
</g>
<!-- Node6 -->
<g id="node4" class="node">
<title>Node6</title>
<g id="a_node4"><a xlink:href="main_8cpp.html" target="_top" xlink:title="main.cpp">
<polygon fill="#ffffff" stroke="#000000" points="0,-.5 0,-20.5 56.563,-20.5 56.563,-.5 0,-.5"/>
<text text-anchor="middle" x="28.2815" y="-7.5" font-family="Helvetica,sans-Serif" font-size="10.00" fill="#000000">main.cpp</text>
</a>
</g>
</g>
<!-- Node4&#45;&gt;Node6 -->
<g id="edge3" class="edge">
<title>Node4&#45;&gt;Node6</title>
<path fill="none" stroke="#191970" d="M156.077,-55.7444C126.7285,-45.3539 84.3844,-30.3625 56.605,-20.5276"/>
<polygon fill="#191970" stroke="#191970" points="155.2759,-59.1736 165.8707,-59.2117 157.6122,-52.5749 155.2759,-59.1736"/>
</g>
<!-- Node7 -->
<g id="node5" class="node">
<title>Node7</title>
<g id="a_node5"><a xlink:href="BoeingSurfaceVehicleControl_8cpp.html" target="_top" xlink:title="BoeingSurfaceVehicleControl.cpp">
<polygon fill="#ffffff" stroke="#000000" points="246.5405,-.5 246.5405,-20.5 412.0225,-20.5 412.0225,-.5 246.5405,-.5"/>
<text text-anchor="middle" x="329.2815" y="-7.5" font-family="Helvetica,sans-Serif" font-size="10.00" fill="#000000">BoeingSurfaceVehicleControl.cpp</text>
</a>
</g>
</g>
<!-- Node4&#45;&gt;Node7 -->
<g id="edge4" class="edge">
<title>Node4&#45;&gt;Node7</title>
<path fill="none" stroke="#191970" d="M222.2041,-54.0958C247.3428,-43.8607 281.4497,-29.9744 304.3544,-20.6489"/>
<polygon fill="#191970" stroke="#191970" points="220.6563,-50.9469 212.7144,-57.9595 223.296,-57.4302 220.6563,-50.9469"/>
</g>
<!-- Node8 -->
<g id="node6" class="node">
<title>Node8</title>
<g id="a_node6"><a xlink:href="IOFactory_8cpp.html" target="_top" xlink:title="IOFactory.cpp">
<polygon fill="#ffffff" stroke="#000000" points="149.8865,-.5 149.8865,-20.5 228.6765,-20.5 228.6765,-.5 149.8865,-.5"/>
<text text-anchor="middle" x="189.2815" y="-7.5" font-family="Helvetica,sans-Serif" font-size="10.00" fill="#000000">IOFactory.cpp</text>
</a>
</g>
</g>
<!-- Node4&#45;&gt;Node8 -->
<g id="edge5" class="edge">
<title>Node4&#45;&gt;Node8</title>
<path fill="none" stroke="#191970" d="M189.2815,-47.1771C189.2815,-38.1625 189.2815,-27.9556 189.2815,-20.6022"/>
<polygon fill="#191970" stroke="#191970" points="185.7816,-47.3095 189.2815,-57.3095 192.7816,-47.3096 185.7816,-47.3095"/>
</g>
<!-- Node9&#45;&gt;Node7 -->
<g id="edge8" class="edge">
<title>Node9&#45;&gt;Node7</title>
<path fill="none" stroke="#191970" d="M305.1858,-48.6515C311.0966,-39.2928 318.0018,-28.3596 322.9011,-20.6022"/>
<polygon fill="#191970" stroke="#191970" points="302.0983,-46.9856 299.7176,-57.3095 308.0168,-50.7236 302.0983,-46.9856"/>
</g>
<!-- Node9&#45;&gt;Node8 -->
<g id="edge9" class="edge">
<title>Node9&#45;&gt;Node8</title>
<path fill="none" stroke="#191970" d="M265.9006,-52.4931C247.5407,-42.4305 223.8578,-29.4505 207.7136,-20.6022"/>
<polygon fill="#191970" stroke="#191970" points="264.2369,-55.5725 274.6884,-57.3095 267.6013,-49.434 264.2369,-55.5725"/>
</g>
<!-- Node10 -->
<g id="node8" class="node">
<title>Node10</title>
<g id="a_node8"><a xlink:href="Output_8cpp.html" target="_top" xlink:title="Output.cpp">
<polygon fill="#ffffff" stroke="#000000" points="429.826,-.5 429.826,-20.5 494.737,-20.5 494.737,-.5 429.826,-.5"/>
<text text-anchor="middle" x="462.2815" y="-7.5" font-family="Helvetica,sans-Serif" font-size="10.00" fill="#000000">Output.cpp</text>
</a>
</g>
</g>
<!-- Node9&#45;&gt;Node10 -->
<g id="edge7" class="edge">
<title>Node9&#45;&gt;Node10</title>
<path fill="none" stroke="#191970" d="M330.3006,-55.0143C360.973,-44.6692 404.0029,-30.1561 432.487,-20.549"/>
<polygon fill="#191970" stroke="#191970" points="329.1674,-51.7027 320.8104,-58.2151 331.4046,-58.3356 329.1674,-51.7027"/>
</g>
</g>
</svg>
