<?xml version="1.0" encoding="UTF-8" standalone="no"?>
<!DOCTYPE svg PUBLIC "-//W3C//DTD SVG 1.1//EN"
 "http://www.w3.org/Graphics/SVG/1.1/DTD/svg11.dtd">
<!-- Generated by graphviz version 2.40.1 (20161225.0304)
 -->
<!-- Title: IOBase.h Pages: 1 -->
<svg width="692pt" height="143pt"
 viewBox="0.00 0.00 692.02 143.00" xmlns="http://www.w3.org/2000/svg" xmlns:xlink="http://www.w3.org/1999/xlink">
<g id="graph0" class="graph" transform="scale(1 1) rotate(0) translate(4 139)">
<title>IOBase.h</title>
<polygon fill="#ffffff" stroke="transparent" points="-4,4 -4,-139 688.0215,-139 688.0215,4 -4,4"/>
<!-- Node3 -->
<g id="node1" class="node">
<title>Node3</title>
<polygon fill="#bfbfbf" stroke="#000000" points="389.7245,-114.5 389.7245,-134.5 447.4075,-134.5 447.4075,-114.5 389.7245,-114.5"/>
<text text-anchor="middle" x="418.566" y="-121.5" font-family="Helvetica,sans-Serif" font-size="10.00" fill="#000000">IOBase.h</text>
</g>
<!-- Node4 -->
<g id="node2" class="node">
<title>Node4</title>
<g id="a_node2"><a xlink:href="Input_8h.html" target="_top" xlink:title="Input.h">
<polygon fill="#ffffff" stroke="#000000" points="268.2795,-57.5 268.2795,-77.5 314.8525,-77.5 314.8525,-57.5 268.2795,-57.5"/>
<text text-anchor="middle" x="291.566" y="-64.5" font-family="Helvetica,sans-Serif" font-size="10.00" fill="#000000">Input.h</text>
</a>
</g>
</g>
<!-- Node3&#45;&gt;Node4 -->
<g id="edge1" class="edge">
<title>Node3&#45;&gt;Node4</title>
<path fill="none" stroke="#191970" d="M386.9563,-110.313C364.34,-100.1624 334.4345,-86.7402 314.1818,-77.6504"/>
<polygon fill="#191970" stroke="#191970" points="385.5969,-113.5391 396.1533,-114.4408 388.4632,-107.1529 385.5969,-113.5391"/>
</g>
<!-- Node10 -->
<g id="node8" class="node">
<title>Node10</title>
<g id="a_node8"><a xlink:href="Output_8h.html" target="_top" xlink:title="Output.h">
<polygon fill="#ffffff" stroke="#000000" points="391.39,-57.5 391.39,-77.5 445.742,-77.5 445.742,-57.5 391.39,-57.5"/>
<text text-anchor="middle" x="418.566" y="-64.5" font-family="Helvetica,sans-Serif" font-size="10.00" fill="#000000">Output.h</text>
</a>
</g>
</g>
<!-- Node3&#45;&gt;Node10 -->
<g id="edge7" class="edge">
<title>Node3&#45;&gt;Node10</title>
<path fill="none" stroke="#191970" d="M418.566,-104.1771C418.566,-95.1625 418.566,-84.9556 418.566,-77.6022"/>
<polygon fill="#191970" stroke="#191970" points="415.0661,-104.3095 418.566,-114.3095 422.0661,-104.3096 415.0661,-104.3095"/>
</g>
<!-- Node12 -->
<g id="node10" class="node">
<title>Node12</title>
<g id="a_node10"><a xlink:href="IOBase_8cpp.html" target="_top" xlink:title="IOBase.cpp">
<polygon fill="#ffffff" stroke="#000000" points="463.445,-57.5 463.445,-77.5 531.687,-77.5 531.687,-57.5 463.445,-57.5"/>
<text text-anchor="middle" x="497.566" y="-64.5" font-family="Helvetica,sans-Serif" font-size="10.00" fill="#000000">IOBase.cpp</text>
</a>
</g>
</g>
<!-- Node3&#45;&gt;Node12 -->
<g id="edge12" class="edge">
<title>Node3&#45;&gt;Node12</title>
<path fill="none" stroke="#191970" d="M441.1042,-108.2383C454.7803,-98.3707 471.8053,-86.0868 483.5647,-77.6022"/>
<polygon fill="#191970" stroke="#191970" points="438.7512,-105.62 432.6896,-114.3095 442.8471,-111.2967 438.7512,-105.62"/>
</g>
<!-- Node5 -->
<g id="node3" class="node">
<title>Node5</title>
<g id="a_node3"><a xlink:href="Input_8cpp.html" target="_top" xlink:title="Input.cpp">
<polygon fill="#ffffff" stroke="#000000" points="0,-.5 0,-20.5 57.132,-20.5 57.132,-.5 0,-.5"/>
<text text-anchor="middle" x="28.566" y="-7.5" font-family="Helvetica,sans-Serif" font-size="10.00" fill="#000000">Input.cpp</text>
</a>
</g>
</g>
<!-- Node4&#45;&gt;Node5 -->
<g id="edge2" class="edge">
<title>Node4&#45;&gt;Node5</title>
<path fill="none" stroke="#191970" d="M258.254,-61.3262C214.2004,-52.9995 134.2336,-37.3224 66.566,-21 63.5053,-20.2617 60.3177,-19.4497 57.1475,-18.6144"/>
<polygon fill="#191970" stroke="#191970" points="257.6573,-64.7752 268.1319,-63.1836 258.951,-57.8958 257.6573,-64.7752"/>
</g>
<!-- Node6 -->
<g id="node4" class="node">
<title>Node6</title>
<g id="a_node4"><a xlink:href="main_8cpp.html" target="_top" xlink:title="main.cpp">
<polygon fill="#ffffff" stroke="#000000" points="75.2845,-.5 75.2845,-20.5 131.8475,-20.5 131.8475,-.5 75.2845,-.5"/>
<text text-anchor="middle" x="103.566" y="-7.5" font-family="Helvetica,sans-Serif" font-size="10.00" fill="#000000">main.cpp</text>
</a>
</g>
</g>
<!-- Node4&#45;&gt;Node6 -->
<g id="edge3" class="edge">
<title>Node4&#45;&gt;Node6</title>
<path fill="none" stroke="#191970" d="M258.1394,-57.3653C222.2134,-46.4729 165.7251,-29.3461 131.9015,-19.0911"/>
<polygon fill="#191970" stroke="#191970" points="257.5504,-60.844 268.1358,-60.3962 259.5815,-54.1452 257.5504,-60.844"/>
</g>
<!-- Node7 -->
<g id="node5" class="node">
<title>Node7</title>
<g id="a_node5"><a xlink:href="BoeingSurfaceVehicleControl_8cpp.html" target="_top" xlink:title="BoeingSurfaceVehicleControl.cpp">
<polygon fill="#ffffff" stroke="#000000" points="149.825,-.5 149.825,-20.5 315.307,-20.5 315.307,-.5 149.825,-.5"/>
<text text-anchor="middle" x="232.566" y="-7.5" font-family="Helvetica,sans-Serif" font-size="10.00" fill="#000000">BoeingSurfaceVehicleControl.cpp</text>
</a>
</g>
</g>
<!-- Node4&#45;&gt;Node7 -->
<g id="edge4" class="edge">
<title>Node4&#45;&gt;Node7</title>
<path fill="none" stroke="#191970" d="M273.5558,-50.1004C263.5568,-40.4403 251.4704,-28.7636 243.0227,-20.6022"/>
<polygon fill="#191970" stroke="#191970" points="271.3942,-52.8786 281.018,-57.3095 276.2579,-47.8442 271.3942,-52.8786"/>
</g>
<!-- Node8 -->
<g id="node6" class="node">
<title>Node8</title>
<g id="a_node6"><a xlink:href="CommunicationProtocolParser_8cpp.html" target="_top" xlink:title="CommunicationProtocolParser.cpp">
<polygon fill="#ffffff" stroke="#000000" points="333.3345,-.5 333.3345,-20.5 503.7975,-20.5 503.7975,-.5 333.3345,-.5"/>
<text text-anchor="middle" x="418.566" y="-7.5" font-family="Helvetica,sans-Serif" font-size="10.00" fill="#000000">CommunicationProtocolParser.cpp</text>
</a>
</g>
</g>
<!-- Node4&#45;&gt;Node8 -->
<g id="edge5" class="edge">
<title>Node4&#45;&gt;Node8</title>
<path fill="none" stroke="#191970" d="M323.1757,-53.313C345.792,-43.1624 375.6975,-29.7402 395.9502,-20.6504"/>
<polygon fill="#191970" stroke="#191970" points="321.6688,-50.1529 313.9787,-57.4408 324.5351,-56.5391 321.6688,-50.1529"/>
</g>
<!-- Node9 -->
<g id="node7" class="node">
<title>Node9</title>
<g id="a_node7"><a xlink:href="IOFactory_8cpp.html" target="_top" xlink:title="IOFactory.cpp">
<polygon fill="#ffffff" stroke="#000000" points="522.171,-.5 522.171,-20.5 600.961,-20.5 600.961,-.5 522.171,-.5"/>
<text text-anchor="middle" x="561.566" y="-7.5" font-family="Helvetica,sans-Serif" font-size="10.00" fill="#000000">IOFactory.cpp</text>
</a>
</g>
</g>
<!-- Node4&#45;&gt;Node9 -->
<g id="edge6" class="edge">
<title>Node4&#45;&gt;Node9</title>
<path fill="none" stroke="#191970" d="M325.1078,-60.483C368.42,-51.4127 446.1318,-35.107 512.566,-21 515.6297,-20.3494 518.8007,-19.6742 521.9883,-18.9941"/>
<polygon fill="#191970" stroke="#191970" points="324.1919,-57.0987 315.1214,-62.5737 325.6264,-63.9502 324.1919,-57.0987"/>
</g>
<!-- Node10&#45;&gt;Node7 -->
<g id="edge9" class="edge">
<title>Node10&#45;&gt;Node7</title>
<path fill="none" stroke="#191970" d="M381.1428,-56.0316C347.2671,-45.6503 297.8541,-30.5076 265.461,-20.5807"/>
<polygon fill="#191970" stroke="#191970" points="380.5344,-59.5058 391.1211,-59.0895 382.5855,-52.813 380.5344,-59.5058"/>
</g>
<!-- Node10&#45;&gt;Node8 -->
<g id="edge10" class="edge">
<title>Node10&#45;&gt;Node8</title>
<path fill="none" stroke="#191970" d="M418.566,-47.1771C418.566,-38.1625 418.566,-27.9556 418.566,-20.6022"/>
<polygon fill="#191970" stroke="#191970" points="415.0661,-47.3095 418.566,-57.3095 422.0661,-47.3096 415.0661,-47.3095"/>
</g>
<!-- Node10&#45;&gt;Node9 -->
<g id="edge11" class="edge">
<title>Node10&#45;&gt;Node9</title>
<path fill="none" stroke="#191970" d="M453.1393,-53.719C478.7197,-43.5227 512.9913,-29.8619 536.1009,-20.6504"/>
<polygon fill="#191970" stroke="#191970" points="451.7956,-50.4867 443.8024,-57.4408 454.3876,-56.9892 451.7956,-50.4867"/>
</g>
<!-- Node11 -->
<g id="node9" class="node">
<title>Node11</title>
<g id="a_node9"><a xlink:href="Output_8cpp.html" target="_top" xlink:title="Output.cpp">
<polygon fill="#ffffff" stroke="#000000" points="619.1105,-.5 619.1105,-20.5 684.0215,-20.5 684.0215,-.5 619.1105,-.5"/>
<text text-anchor="middle" x="651.566" y="-7.5" font-family="Helvetica,sans-Serif" font-size="10.00" fill="#000000">Output.cpp</text>
</a>
</g>
</g>
<!-- Node10&#45;&gt;Node11 -->
<g id="edge8" class="edge">
<title>Node10&#45;&gt;Node11</title>
<path fill="none" stroke="#191970" d="M456.0612,-56.7009C524.6884,-38.9254 543.9021,-36.8323 609.566,-21 612.6348,-20.2601 615.8272,-19.4803 619.0199,-18.6937"/>
<polygon fill="#191970" stroke="#191970" points="454.8318,-53.4044 446.0397,-59.3162 456.5995,-60.1776 454.8318,-53.4044"/>
</g>
</g>
</svg>
