<?xml version="1.0" encoding="UTF-8" standalone="no"?>
<!DOCTYPE svg PUBLIC "-//W3C//DTD SVG 1.1//EN"
 "http://www.w3.org/Graphics/SVG/1.1/DTD/svg11.dtd">
<!-- Generated by graphviz version 2.40.1 (20161225.0304)
 -->
<!-- Title: /home/jc/Documents/School/SeniorDesign/ControlCode/MainApplication/Headers/IO/IOFactory.h Pages: 1 -->
<svg width="364pt" height="293pt"
 viewBox="0.00 0.00 364.28 293.00" xmlns="http://www.w3.org/2000/svg" xmlns:xlink="http://www.w3.org/1999/xlink">
<g id="graph0" class="graph" transform="scale(1 1) rotate(0) translate(4 289)">
<title>/home/jc/Documents/School/SeniorDesign/ControlCode/MainApplication/Headers/IO/IOFactory.h</title>
<polygon fill="#ffffff" stroke="transparent" points="-4,4 -4,-289 360.28,-289 360.28,4 -4,4"/>
<!-- Node0 -->
<g id="node1" class="node">
<title>Node0</title>
<polygon fill="#bfbfbf" stroke="#000000" points="89.4915,-228.5 89.4915,-284.5 237.7345,-284.5 237.7345,-228.5 89.4915,-228.5"/>
<text text-anchor="start" x="97.4915" y="-271.5" font-family="Helvetica,sans-Serif" font-size="10.00" fill="#000000">/home/jc/Documents</text>
<text text-anchor="start" x="97.4915" y="-259.5" font-family="Helvetica,sans-Serif" font-size="10.00" fill="#000000">/School/SeniorDesign</text>
<text text-anchor="start" x="97.4915" y="-247.5" font-family="Helvetica,sans-Serif" font-size="10.00" fill="#000000">/ControlCode/MainApplication</text>
<text text-anchor="middle" x="163.613" y="-235.5" font-family="Helvetica,sans-Serif" font-size="10.00" fill="#000000">/Headers/IO/IOFactory.h</text>
</g>
<!-- Node1 -->
<g id="node2" class="node">
<title>Node1</title>
<g id="a_node2"><a xlink:href="BoeingSurfaceVehicleControl_8h.html" target="_top" xlink:title="BoeingSurfaceVehicleControl.h">
<polygon fill="#ffffff" stroke="#000000" points="86.1515,-171.5 86.1515,-191.5 241.0745,-191.5 241.0745,-171.5 86.1515,-171.5"/>
<text text-anchor="middle" x="163.613" y="-178.5" font-family="Helvetica,sans-Serif" font-size="10.00" fill="#000000">BoeingSurfaceVehicleControl.h</text>
</a>
</g>
</g>
<!-- Node0&#45;&gt;Node1 -->
<g id="edge1" class="edge">
<title>Node0&#45;&gt;Node1</title>
<path fill="none" stroke="#191970" d="M163.613,-228.1457C163.613,-219.3619 163.613,-209.8652 163.613,-201.7476"/>
<polygon fill="#191970" stroke="#191970" points="167.1131,-201.7295 163.613,-191.7296 160.1131,-201.7296 167.1131,-201.7295"/>
</g>
<!-- Node2 -->
<g id="node3" class="node">
<title>Node2</title>
<polygon fill="#ffffff" stroke="#bfbfbf" points="0,-114.5 0,-134.5 43.226,-134.5 43.226,-114.5 0,-114.5"/>
<text text-anchor="middle" x="21.613" y="-121.5" font-family="Helvetica,sans-Serif" font-size="10.00" fill="#000000">vector</text>
</g>
<!-- Node1&#45;&gt;Node2 -->
<g id="edge2" class="edge">
<title>Node1&#45;&gt;Node2</title>
<path fill="none" stroke="#191970" d="M138.5531,-171.4408C114.6902,-161.862 78.6938,-147.4127 52.9461,-137.0774"/>
<polygon fill="#191970" stroke="#191970" points="54.2106,-133.8135 43.6265,-133.3364 51.6029,-140.3097 54.2106,-133.8135"/>
</g>
<!-- Node3 -->
<g id="node4" class="node">
<title>Node3</title>
<g id="a_node4"><a xlink:href="BluetoothClient_8h.html" target="_top" xlink:title="BluetoothClient.h">
<polygon fill="#ffffff" stroke="#000000" points="61.5465,-114.5 61.5465,-134.5 153.6795,-134.5 153.6795,-114.5 61.5465,-114.5"/>
<text text-anchor="middle" x="107.613" y="-121.5" font-family="Helvetica,sans-Serif" font-size="10.00" fill="#000000">BluetoothClient.h</text>
</a>
</g>
</g>
<!-- Node1&#45;&gt;Node3 -->
<g id="edge3" class="edge">
<title>Node1&#45;&gt;Node3</title>
<path fill="none" stroke="#191970" d="M153.6013,-171.3095C145.5583,-163.1229 134.0813,-151.441 124.605,-141.7955"/>
<polygon fill="#191970" stroke="#191970" points="127.0429,-139.2827 117.538,-134.6022 122.0496,-144.1885 127.0429,-139.2827"/>
</g>
<!-- Node6 -->
<g id="node7" class="node">
<title>Node6</title>
<g id="a_node7"><a xlink:href="BluetoothServer_8h.html" target="_top" xlink:title="BluetoothServer.h">
<polygon fill="#ffffff" stroke="#000000" points="171.601,-114.5 171.601,-134.5 267.625,-134.5 267.625,-114.5 171.601,-114.5"/>
<text text-anchor="middle" x="219.613" y="-121.5" font-family="Helvetica,sans-Serif" font-size="10.00" fill="#000000">BluetoothServer.h</text>
</a>
</g>
</g>
<!-- Node1&#45;&gt;Node6 -->
<g id="edge6" class="edge">
<title>Node1&#45;&gt;Node6</title>
<path fill="none" stroke="#191970" d="M173.6247,-171.3095C181.6677,-163.1229 193.1447,-151.441 202.621,-141.7955"/>
<polygon fill="#191970" stroke="#191970" points="205.1764,-144.1885 209.688,-134.6022 200.1831,-139.2827 205.1764,-144.1885"/>
</g>
<!-- Node7 -->
<g id="node8" class="node">
<title>Node7</title>
<g id="a_node8"><a xlink:href="UserLED_8h.html" target="_top" xlink:title="UserLED.h">
<polygon fill="#ffffff" stroke="#000000" points="285.167,-114.5 285.167,-134.5 350.059,-134.5 350.059,-114.5 285.167,-114.5"/>
<text text-anchor="middle" x="317.613" y="-121.5" font-family="Helvetica,sans-Serif" font-size="10.00" fill="#000000">UserLED.h</text>
</a>
</g>
</g>
<!-- Node1&#45;&gt;Node7 -->
<g id="edge8" class="edge">
<title>Node1&#45;&gt;Node7</title>
<path fill="none" stroke="#191970" d="M190.7906,-171.4408C215.7844,-162.1898 253.0517,-148.3961 280.7269,-138.1527"/>
<polygon fill="#191970" stroke="#191970" points="282.2852,-141.308 290.4485,-134.5544 279.8554,-134.7432 282.2852,-141.308"/>
</g>
<!-- Node4 -->
<g id="node5" class="node">
<title>Node4</title>
<g id="a_node5"><a xlink:href="BluetoothBase_8h.html" target="_top" xlink:title="BluetoothBase.h">
<polygon fill="#ffffff" stroke="#000000" points="160.93,-57.5 160.93,-77.5 250.296,-77.5 250.296,-57.5 160.93,-57.5"/>
<text text-anchor="middle" x="205.613" y="-64.5" font-family="Helvetica,sans-Serif" font-size="10.00" fill="#000000">BluetoothBase.h</text>
</a>
</g>
</g>
<!-- Node3&#45;&gt;Node4 -->
<g id="edge4" class="edge">
<title>Node3&#45;&gt;Node4</title>
<path fill="none" stroke="#191970" d="M125.1334,-114.3095C140.1842,-105.5556 162.1063,-92.8049 179.2714,-82.8211"/>
<polygon fill="#191970" stroke="#191970" points="181.3598,-85.6555 188.2442,-77.6022 177.8403,-79.6046 181.3598,-85.6555"/>
</g>
<!-- Node5 -->
<g id="node6" class="node">
<title>Node5</title>
<polygon fill="#ffffff" stroke="#bfbfbf" points="221.3905,-.5 221.3905,-20.5 261.8355,-20.5 261.8355,-.5 221.3905,-.5"/>
<text text-anchor="middle" x="241.613" y="-7.5" font-family="Helvetica,sans-Serif" font-size="10.00" fill="#000000">string</text>
</g>
<!-- Node4&#45;&gt;Node5 -->
<g id="edge5" class="edge">
<title>Node4&#45;&gt;Node5</title>
<path fill="none" stroke="#191970" d="M212.0491,-57.3095C216.9636,-49.5282 223.8726,-38.589 229.7758,-29.2423"/>
<polygon fill="#191970" stroke="#191970" points="232.8519,-30.9261 235.2326,-20.6022 226.9334,-27.1881 232.8519,-30.9261"/>
</g>
<!-- Node6&#45;&gt;Node4 -->
<g id="edge7" class="edge">
<title>Node6&#45;&gt;Node4</title>
<path fill="none" stroke="#191970" d="M217.1101,-114.3095C215.2785,-106.8524 212.7346,-96.4951 210.5053,-87.4186"/>
<polygon fill="#191970" stroke="#191970" points="213.8786,-86.4787 208.0943,-77.6022 207.0806,-88.1485 213.8786,-86.4787"/>
</g>
<!-- Node7&#45;&gt;Node5 -->
<g id="edge9" class="edge">
<title>Node7&#45;&gt;Node5</title>
<path fill="none" stroke="#191970" d="M310.8685,-114.3833C298.1122,-95.2488 270.2786,-53.4984 254.0483,-29.1529"/>
<polygon fill="#191970" stroke="#191970" points="256.9109,-27.137 248.4516,-20.7579 251.0865,-31.0199 256.9109,-27.137"/>
</g>
<!-- Node8 -->
<g id="node9" class="node">
<title>Node8</title>
<polygon fill="#ffffff" stroke="#bfbfbf" points="306.946,-57.5 306.946,-77.5 356.28,-77.5 356.28,-57.5 306.946,-57.5"/>
<text text-anchor="middle" x="331.613" y="-64.5" font-family="Helvetica,sans-Serif" font-size="10.00" fill="#000000">fstream</text>
</g>
<!-- Node7&#45;&gt;Node8 -->
<g id="edge10" class="edge">
<title>Node7&#45;&gt;Node8</title>
<path fill="none" stroke="#191970" d="M320.1159,-114.3095C321.9475,-106.8524 324.4914,-96.4951 326.7207,-87.4186"/>
<polygon fill="#191970" stroke="#191970" points="330.1454,-88.1485 329.1317,-77.6022 323.3474,-86.4787 330.1454,-88.1485"/>
</g>
</g>
</svg>
