<?xml version="1.0" encoding="UTF-8" standalone="no"?>
<!DOCTYPE svg PUBLIC "-//W3C//DTD SVG 1.1//EN"
 "http://www.w3.org/Graphics/SVG/1.1/DTD/svg11.dtd">
<!-- Generated by graphviz version 2.40.1 (20161225.0304)
 -->
<!-- Title: IOFactory.cpp Pages: 1 -->
<svg width="708pt" height="314pt"
 viewBox="0.00 0.00 707.62 314.00" xmlns="http://www.w3.org/2000/svg" xmlns:xlink="http://www.w3.org/1999/xlink">
<g id="graph0" class="graph" transform="scale(1 1) rotate(0) translate(4 310)">
<title>IOFactory.cpp</title>
<polygon fill="#ffffff" stroke="transparent" points="-4,4 -4,-310 703.62,-310 703.62,4 -4,4"/>
<!-- Node0 -->
<g id="node1" class="node">
<title>Node0</title>
<polygon fill="#bfbfbf" stroke="#000000" points="345.218,-285.5 345.218,-305.5 424.008,-305.5 424.008,-285.5 345.218,-285.5"/>
<text text-anchor="middle" x="384.613" y="-292.5" font-family="Helvetica,sans-Serif" font-size="10.00" fill="#000000">IOFactory.cpp</text>
</g>
<!-- Node1 -->
<g id="node2" class="node">
<title>Node1</title>
<g id="a_node2"><a xlink:href="IOFactory_8h.html" target="_top" xlink:title="IOFactory.h">
<polygon fill="#ffffff" stroke="#000000" points="60.4975,-228.5 60.4975,-248.5 128.7285,-248.5 128.7285,-228.5 60.4975,-228.5"/>
<text text-anchor="middle" x="94.613" y="-235.5" font-family="Helvetica,sans-Serif" font-size="10.00" fill="#000000">IOFactory.h</text>
</a>
</g>
</g>
<!-- Node0&#45;&gt;Node1 -->
<g id="edge1" class="edge">
<title>Node0&#45;&gt;Node1</title>
<path fill="none" stroke="#191970" d="M345.1259,-288.7368C298.2569,-280.5615 217.5149,-266.0141 138.9133,-249.2022"/>
<polygon fill="#191970" stroke="#191970" points="139.3553,-245.7172 128.8425,-247.033 137.8813,-252.5603 139.3553,-245.7172"/>
</g>
<!-- Node10 -->
<g id="node11" class="node">
<title>Node10</title>
<g id="a_node11"><a xlink:href="InputList_8h.html" target="_top" xlink:title="InputList.h">
<polygon fill="#ffffff" stroke="#000000" points="146.548,-228.5 146.548,-248.5 208.678,-248.5 208.678,-228.5 146.548,-228.5"/>
<text text-anchor="middle" x="177.613" y="-235.5" font-family="Helvetica,sans-Serif" font-size="10.00" fill="#000000">InputList.h</text>
</a>
</g>
</g>
<!-- Node0&#45;&gt;Node10 -->
<g id="edge12" class="edge">
<title>Node0&#45;&gt;Node10</title>
<path fill="none" stroke="#191970" d="M348.0821,-285.4408C311.7503,-275.4364 256.1245,-260.1191 218.3771,-249.7249"/>
<polygon fill="#191970" stroke="#191970" points="219.2827,-246.3441 208.7124,-247.0636 217.4243,-253.0929 219.2827,-246.3441"/>
</g>
<!-- Node11 -->
<g id="node12" class="node">
<title>Node11</title>
<g id="a_node12"><a xlink:href="OutputList_8h.html" target="_top" xlink:title="OutputList.h">
<polygon fill="#ffffff" stroke="#000000" points="226.6585,-228.5 226.6585,-248.5 296.5675,-248.5 296.5675,-228.5 226.6585,-228.5"/>
<text text-anchor="middle" x="261.613" y="-235.5" font-family="Helvetica,sans-Serif" font-size="10.00" fill="#000000">OutputList.h</text>
</a>
</g>
</g>
<!-- Node0&#45;&gt;Node11 -->
<g id="edge13" class="edge">
<title>Node0&#45;&gt;Node11</title>
<path fill="none" stroke="#191970" d="M362.9062,-285.4408C343.4415,-276.4205 314.6568,-263.0813 292.7418,-252.9255"/>
<polygon fill="#191970" stroke="#191970" points="294.0613,-249.6795 283.5165,-248.6504 291.118,-256.0307 294.0613,-249.6795"/>
</g>
<!-- Node12 -->
<g id="node13" class="node">
<title>Node12</title>
<g id="a_node13"><a xlink:href="ServoList_8h.html" target="_top" xlink:title="ServoList.h">
<polygon fill="#ffffff" stroke="#000000" points="314.6075,-228.5 314.6075,-248.5 380.6185,-248.5 380.6185,-228.5 314.6075,-228.5"/>
<text text-anchor="middle" x="347.613" y="-235.5" font-family="Helvetica,sans-Serif" font-size="10.00" fill="#000000">ServoList.h</text>
</a>
</g>
</g>
<!-- Node0&#45;&gt;Node12 -->
<g id="edge14" class="edge">
<title>Node0&#45;&gt;Node12</title>
<path fill="none" stroke="#191970" d="M377.9981,-285.3095C372.9471,-277.5282 365.8462,-266.589 359.779,-257.2423"/>
<polygon fill="#191970" stroke="#191970" points="362.5511,-255.0844 354.1706,-248.6022 356.6796,-258.8957 362.5511,-255.0844"/>
</g>
<!-- Node13 -->
<g id="node14" class="node">
<title>Node13</title>
<g id="a_node14"><a xlink:href="Input_8h.html" target="_top" xlink:title="Input.h">
<polygon fill="#ffffff" stroke="#000000" points="398.3265,-228.5 398.3265,-248.5 444.8995,-248.5 444.8995,-228.5 398.3265,-228.5"/>
<text text-anchor="middle" x="421.613" y="-235.5" font-family="Helvetica,sans-Serif" font-size="10.00" fill="#000000">Input.h</text>
</a>
</g>
</g>
<!-- Node0&#45;&gt;Node13 -->
<g id="edge15" class="edge">
<title>Node0&#45;&gt;Node13</title>
<path fill="none" stroke="#191970" d="M391.2279,-285.3095C396.2789,-277.5282 403.3798,-266.589 409.447,-257.2423"/>
<polygon fill="#191970" stroke="#191970" points="412.5464,-258.8957 415.0554,-248.6022 406.6749,-255.0844 412.5464,-258.8957"/>
</g>
<!-- Node15 -->
<g id="node16" class="node">
<title>Node15</title>
<g id="a_node16"><a xlink:href="Output_8h.html" target="_top" xlink:title="Output.h">
<polygon fill="#ffffff" stroke="#000000" points="462.437,-228.5 462.437,-248.5 516.789,-248.5 516.789,-228.5 462.437,-228.5"/>
<text text-anchor="middle" x="489.613" y="-235.5" font-family="Helvetica,sans-Serif" font-size="10.00" fill="#000000">Output.h</text>
</a>
</g>
</g>
<!-- Node0&#45;&gt;Node15 -->
<g id="edge19" class="edge">
<title>Node0&#45;&gt;Node15</title>
<path fill="none" stroke="#191970" d="M403.3849,-285.3095C419.7346,-276.434 443.6526,-263.4499 462.1531,-253.4068"/>
<polygon fill="#191970" stroke="#191970" points="463.8849,-256.4492 471.0036,-248.6022 460.5452,-250.2972 463.8849,-256.4492"/>
</g>
<!-- Node16 -->
<g id="node17" class="node">
<title>Node16</title>
<g id="a_node17"><a xlink:href="MotorControl_8h.html" target="_top" xlink:title="MotorControl.h">
<polygon fill="#ffffff" stroke="#000000" points="503.555,-171.5 503.555,-191.5 585.671,-191.5 585.671,-171.5 503.555,-171.5"/>
<text text-anchor="middle" x="544.613" y="-178.5" font-family="Helvetica,sans-Serif" font-size="10.00" fill="#000000">MotorControl.h</text>
</a>
</g>
</g>
<!-- Node0&#45;&gt;Node16 -->
<g id="edge21" class="edge">
<title>Node0&#45;&gt;Node16</title>
<path fill="none" stroke="#191970" d="M424.2464,-286.8257C460.8059,-278.068 511.4911,-263.7599 525.613,-249 537.685,-236.3826 542.1939,-216.7134 543.8251,-201.8558"/>
<polygon fill="#191970" stroke="#191970" points="547.3343,-201.8615 544.5891,-191.6285 540.3538,-201.34 547.3343,-201.8615"/>
</g>
<!-- Node19 -->
<g id="node20" class="node">
<title>Node19</title>
<g id="a_node20"><a xlink:href="ServoControl_8h.html" target="_top" xlink:title="ServoControl.h">
<polygon fill="#ffffff" stroke="#000000" points="572.2745,-228.5 572.2745,-248.5 654.9515,-248.5 654.9515,-228.5 572.2745,-228.5"/>
<text text-anchor="middle" x="613.613" y="-235.5" font-family="Helvetica,sans-Serif" font-size="10.00" fill="#000000">ServoControl.h</text>
</a>
</g>
</g>
<!-- Node0&#45;&gt;Node19 -->
<g id="edge24" class="edge">
<title>Node0&#45;&gt;Node19</title>
<path fill="none" stroke="#191970" d="M424.2403,-285.6364C462.8753,-276.0199 521.7631,-261.3622 563.6028,-250.948"/>
<polygon fill="#191970" stroke="#191970" points="564.4591,-254.3417 573.3176,-248.5299 562.7683,-247.5489 564.4591,-254.3417"/>
</g>
<!-- Node2 -->
<g id="node3" class="node">
<title>Node2</title>
<g id="a_node3"><a xlink:href="BoeingSurfaceVehicleControl_8h.html" target="_top" xlink:title="BoeingSurfaceVehicleControl.h">
<polygon fill="#ffffff" stroke="#000000" points="30.1515,-171.5 30.1515,-191.5 185.0745,-191.5 185.0745,-171.5 30.1515,-171.5"/>
<text text-anchor="middle" x="107.613" y="-178.5" font-family="Helvetica,sans-Serif" font-size="10.00" fill="#000000">BoeingSurfaceVehicleControl.h</text>
</a>
</g>
</g>
<!-- Node1&#45;&gt;Node2 -->
<g id="edge2" class="edge">
<title>Node1&#45;&gt;Node2</title>
<path fill="none" stroke="#191970" d="M96.9371,-228.3095C98.6379,-220.8524 101.0001,-210.4951 103.0702,-201.4186"/>
<polygon fill="#191970" stroke="#191970" points="106.4977,-202.1302 105.309,-191.6022 99.6729,-200.5736 106.4977,-202.1302"/>
</g>
<!-- Node3 -->
<g id="node4" class="node">
<title>Node3</title>
<polygon fill="#ffffff" stroke="#bfbfbf" points="0,-114.5 0,-134.5 43.226,-134.5 43.226,-114.5 0,-114.5"/>
<text text-anchor="middle" x="21.613" y="-121.5" font-family="Helvetica,sans-Serif" font-size="10.00" fill="#000000">vector</text>
</g>
<!-- Node2&#45;&gt;Node3 -->
<g id="edge3" class="edge">
<title>Node2&#45;&gt;Node3</title>
<path fill="none" stroke="#191970" d="M92.2379,-171.3095C79.2747,-162.7177 60.5028,-150.2758 45.5702,-140.3786"/>
<polygon fill="#191970" stroke="#191970" points="47.124,-137.2095 36.855,-134.6022 43.2567,-143.0443 47.124,-137.2095"/>
</g>
<!-- Node4 -->
<g id="node5" class="node">
<title>Node4</title>
<g id="a_node5"><a xlink:href="BluetoothClient_8h.html" target="_top" xlink:title="BluetoothClient.h">
<polygon fill="#ffffff" stroke="#000000" points="61.5465,-114.5 61.5465,-134.5 153.6795,-134.5 153.6795,-114.5 61.5465,-114.5"/>
<text text-anchor="middle" x="107.613" y="-121.5" font-family="Helvetica,sans-Serif" font-size="10.00" fill="#000000">BluetoothClient.h</text>
</a>
</g>
</g>
<!-- Node2&#45;&gt;Node4 -->
<g id="edge4" class="edge">
<title>Node2&#45;&gt;Node4</title>
<path fill="none" stroke="#191970" d="M107.613,-171.3095C107.613,-163.9335 107.613,-153.72 107.613,-144.715"/>
<polygon fill="#191970" stroke="#191970" points="111.1131,-144.6022 107.613,-134.6022 104.1131,-144.6023 111.1131,-144.6022"/>
</g>
<!-- Node7 -->
<g id="node8" class="node">
<title>Node7</title>
<g id="a_node8"><a xlink:href="BluetoothServer_8h.html" target="_top" xlink:title="BluetoothServer.h">
<polygon fill="#ffffff" stroke="#000000" points="171.601,-114.5 171.601,-134.5 267.625,-134.5 267.625,-114.5 171.601,-114.5"/>
<text text-anchor="middle" x="219.613" y="-121.5" font-family="Helvetica,sans-Serif" font-size="10.00" fill="#000000">BluetoothServer.h</text>
</a>
</g>
</g>
<!-- Node2&#45;&gt;Node7 -->
<g id="edge7" class="edge">
<title>Node2&#45;&gt;Node7</title>
<path fill="none" stroke="#191970" d="M127.3785,-171.4408C144.9436,-162.5014 170.8435,-149.3202 190.7297,-139.1996"/>
<polygon fill="#191970" stroke="#191970" points="192.3436,-142.3054 199.6683,-134.6504 189.1686,-136.0669 192.3436,-142.3054"/>
</g>
<!-- Node8 -->
<g id="node9" class="node">
<title>Node8</title>
<g id="a_node9"><a xlink:href="UserLED_8h.html" target="_top" xlink:title="UserLED.h">
<polygon fill="#ffffff" stroke="#000000" points="285.167,-114.5 285.167,-134.5 350.059,-134.5 350.059,-114.5 285.167,-114.5"/>
<text text-anchor="middle" x="317.613" y="-121.5" font-family="Helvetica,sans-Serif" font-size="10.00" fill="#000000">UserLED.h</text>
</a>
</g>
</g>
<!-- Node2&#45;&gt;Node8 -->
<g id="edge9" class="edge">
<title>Node2&#45;&gt;Node8</title>
<path fill="none" stroke="#191970" d="M144.6734,-171.4408C181.2074,-161.5244 236.9722,-146.3882 275.2433,-136.0004"/>
<polygon fill="#191970" stroke="#191970" points="276.3239,-139.3338 285.0579,-133.3364 274.4902,-132.5782 276.3239,-139.3338"/>
</g>
<!-- Node5 -->
<g id="node6" class="node">
<title>Node5</title>
<g id="a_node6"><a xlink:href="BluetoothBase_8h.html" target="_top" xlink:title="BluetoothBase.h">
<polygon fill="#ffffff" stroke="#000000" points="174.93,-57.5 174.93,-77.5 264.296,-77.5 264.296,-57.5 174.93,-57.5"/>
<text text-anchor="middle" x="219.613" y="-64.5" font-family="Helvetica,sans-Serif" font-size="10.00" fill="#000000">BluetoothBase.h</text>
</a>
</g>
</g>
<!-- Node4&#45;&gt;Node5 -->
<g id="edge5" class="edge">
<title>Node4&#45;&gt;Node5</title>
<path fill="none" stroke="#191970" d="M127.3785,-114.4408C144.9436,-105.5014 170.8435,-92.3202 190.7297,-82.1996"/>
<polygon fill="#191970" stroke="#191970" points="192.3436,-85.3054 199.6683,-77.6504 189.1686,-79.0669 192.3436,-85.3054"/>
</g>
<!-- Node6 -->
<g id="node7" class="node">
<title>Node6</title>
<polygon fill="#ffffff" stroke="#bfbfbf" points="295.3905,-.5 295.3905,-20.5 335.8355,-20.5 335.8355,-.5 295.3905,-.5"/>
<text text-anchor="middle" x="315.613" y="-7.5" font-family="Helvetica,sans-Serif" font-size="10.00" fill="#000000">string</text>
</g>
<!-- Node5&#45;&gt;Node6 -->
<g id="edge6" class="edge">
<title>Node5&#45;&gt;Node6</title>
<path fill="none" stroke="#191970" d="M236.7759,-57.3095C251.5194,-48.5556 272.9942,-35.8049 289.809,-25.8211"/>
<polygon fill="#191970" stroke="#191970" points="291.7871,-28.7172 298.5987,-20.6022 288.2132,-22.6982 291.7871,-28.7172"/>
</g>
<!-- Node7&#45;&gt;Node5 -->
<g id="edge8" class="edge">
<title>Node7&#45;&gt;Node5</title>
<path fill="none" stroke="#191970" d="M219.613,-114.3095C219.613,-106.9335 219.613,-96.72 219.613,-87.715"/>
<polygon fill="#191970" stroke="#191970" points="223.1131,-87.6022 219.613,-77.6022 216.1131,-87.6023 223.1131,-87.6022"/>
</g>
<!-- Node8&#45;&gt;Node6 -->
<g id="edge10" class="edge">
<title>Node8&#45;&gt;Node6</title>
<path fill="none" stroke="#191970" d="M317.4355,-114.3833C317.1072,-95.6703 316.3994,-55.3266 315.9689,-30.7866"/>
<polygon fill="#191970" stroke="#191970" points="319.4679,-30.695 315.793,-20.7579 312.469,-30.8178 319.4679,-30.695"/>
</g>
<!-- Node9 -->
<g id="node10" class="node">
<title>Node9</title>
<polygon fill="#ffffff" stroke="#bfbfbf" points="343.946,-57.5 343.946,-77.5 393.28,-77.5 393.28,-57.5 343.946,-57.5"/>
<text text-anchor="middle" x="368.613" y="-64.5" font-family="Helvetica,sans-Serif" font-size="10.00" fill="#000000">fstream</text>
</g>
<!-- Node8&#45;&gt;Node9 -->
<g id="edge11" class="edge">
<title>Node8&#45;&gt;Node9</title>
<path fill="none" stroke="#191970" d="M326.7308,-114.3095C333.9831,-106.204 344.3013,-94.672 352.8812,-85.0826"/>
<polygon fill="#191970" stroke="#191970" points="355.5145,-87.3885 359.5742,-77.6022 350.2978,-82.7209 355.5145,-87.3885"/>
</g>
<!-- Node14 -->
<g id="node15" class="node">
<title>Node14</title>
<g id="a_node15"><a xlink:href="IOBase_8h.html" target="_top" xlink:title="IOBase.h">
<polygon fill="#ffffff" stroke="#000000" points="392.7715,-171.5 392.7715,-191.5 450.4545,-191.5 450.4545,-171.5 392.7715,-171.5"/>
<text text-anchor="middle" x="421.613" y="-178.5" font-family="Helvetica,sans-Serif" font-size="10.00" fill="#000000">IOBase.h</text>
</a>
</g>
</g>
<!-- Node13&#45;&gt;Node14 -->
<g id="edge16" class="edge">
<title>Node13&#45;&gt;Node14</title>
<path fill="none" stroke="#191970" d="M421.613,-228.3095C421.613,-220.9335 421.613,-210.72 421.613,-201.715"/>
<polygon fill="#191970" stroke="#191970" points="425.1131,-201.6022 421.613,-191.6022 418.1131,-201.6023 425.1131,-201.6022"/>
</g>
<!-- Node14&#45;&gt;Node6 -->
<g id="edge17" class="edge">
<title>Node14&#45;&gt;Node6</title>
<path fill="none" stroke="#191970" d="M422.9087,-171.3587C425.2587,-148.6074 427.868,-92.6997 402.613,-57 389.0525,-37.8313 365.0637,-25.8573 345.7057,-18.8696"/>
<polygon fill="#191970" stroke="#191970" points="346.6784,-15.5045 336.0846,-15.6584 344.4621,-22.1444 346.6784,-15.5045"/>
</g>
<!-- Node14&#45;&gt;Node9 -->
<g id="edge18" class="edge">
<title>Node14&#45;&gt;Node9</title>
<path fill="none" stroke="#191970" d="M416.9096,-171.3833C408.1313,-152.5017 389.1147,-111.598 377.7379,-87.1272"/>
<polygon fill="#191970" stroke="#191970" points="380.7717,-85.3503 373.382,-77.7579 374.4241,-88.3014 380.7717,-85.3503"/>
</g>
<!-- Node15&#45;&gt;Node14 -->
<g id="edge20" class="edge">
<title>Node15&#45;&gt;Node14</title>
<path fill="none" stroke="#191970" d="M477.456,-228.3095C467.4961,-219.9608 453.1995,-207.9769 441.5655,-198.2249"/>
<polygon fill="#191970" stroke="#191970" points="443.5769,-195.344 433.6648,-191.6022 439.0801,-200.7086 443.5769,-195.344"/>
</g>
<!-- Node17 -->
<g id="node18" class="node">
<title>Node17</title>
<polygon fill="#ffffff" stroke="#bfbfbf" points="466.4965,-114.5 466.4965,-134.5 514.7295,-134.5 514.7295,-114.5 466.4965,-114.5"/>
<text text-anchor="middle" x="490.613" y="-121.5" font-family="Helvetica,sans-Serif" font-size="10.00" fill="#000000">stdint.h</text>
</g>
<!-- Node16&#45;&gt;Node17 -->
<g id="edge22" class="edge">
<title>Node16&#45;&gt;Node17</title>
<path fill="none" stroke="#191970" d="M534.9589,-171.3095C527.2799,-163.204 516.3548,-151.672 507.2702,-142.0826"/>
<polygon fill="#191970" stroke="#191970" points="509.6019,-139.4547 500.1835,-134.6022 504.5202,-144.2689 509.6019,-139.4547"/>
</g>
<!-- Node18 -->
<g id="node19" class="node">
<title>Node18</title>
<polygon fill="#ffffff" stroke="#bfbfbf" points="532.4925,-114.5 532.4925,-134.5 590.7335,-134.5 590.7335,-114.5 532.4925,-114.5"/>
<text text-anchor="middle" x="561.613" y="-121.5" font-family="Helvetica,sans-Serif" font-size="10.00" fill="#000000">pthread.h</text>
</g>
<!-- Node16&#45;&gt;Node18 -->
<g id="edge23" class="edge">
<title>Node16&#45;&gt;Node18</title>
<path fill="none" stroke="#191970" d="M547.6523,-171.3095C549.8763,-163.8524 552.9653,-153.4951 555.6724,-144.4186"/>
<polygon fill="#191970" stroke="#191970" points="559.0959,-145.1855 558.6001,-134.6022 552.3879,-143.1848 559.0959,-145.1855"/>
</g>
<!-- Node19&#45;&gt;Node16 -->
<g id="edge25" class="edge">
<title>Node19&#45;&gt;Node16</title>
<path fill="none" stroke="#191970" d="M601.2772,-228.3095C591.1708,-219.9608 576.664,-207.9769 564.8589,-198.2249"/>
<polygon fill="#191970" stroke="#191970" points="566.7808,-195.2727 556.842,-191.6022 562.3226,-200.6695 566.7808,-195.2727"/>
</g>
<!-- Node20 -->
<g id="node21" class="node">
<title>Node20</title>
<g id="a_node21"><a xlink:href="LinearConverter_8h.html" target="_top" xlink:title="LinearConverter.h">
<polygon fill="#ffffff" stroke="#000000" points="603.606,-171.5 603.606,-191.5 699.62,-191.5 699.62,-171.5 603.606,-171.5"/>
<text text-anchor="middle" x="651.613" y="-178.5" font-family="Helvetica,sans-Serif" font-size="10.00" fill="#000000">LinearConverter.h</text>
</a>
</g>
</g>
<!-- Node19&#45;&gt;Node20 -->
<g id="edge26" class="edge">
<title>Node19&#45;&gt;Node20</title>
<path fill="none" stroke="#191970" d="M620.4066,-228.3095C625.6482,-220.4472 633.0391,-209.3608 639.3125,-199.9507"/>
<polygon fill="#191970" stroke="#191970" points="642.2433,-201.8642 644.8782,-191.6022 636.4189,-197.9813 642.2433,-201.8642"/>
</g>
<!-- Node21 -->
<g id="node22" class="node">
<title>Node21</title>
<g id="a_node22"><a xlink:href="Range_8h.html" target="_top" xlink:title="Range.h">
<polygon fill="#ffffff" stroke="#000000" points="624.7165,-114.5 624.7165,-134.5 678.5095,-134.5 678.5095,-114.5 624.7165,-114.5"/>
<text text-anchor="middle" x="651.613" y="-121.5" font-family="Helvetica,sans-Serif" font-size="10.00" fill="#000000">Range.h</text>
</a>
</g>
</g>
<!-- Node20&#45;&gt;Node21 -->
<g id="edge27" class="edge">
<title>Node20&#45;&gt;Node21</title>
<path fill="none" stroke="#191970" d="M651.613,-171.3095C651.613,-163.9335 651.613,-153.72 651.613,-144.715"/>
<polygon fill="#191970" stroke="#191970" points="655.1131,-144.6022 651.613,-134.6022 648.1131,-144.6023 655.1131,-144.6022"/>
</g>
</g>
</svg>
