<?xml version="1.0" encoding="UTF-8" standalone="no"?>
<!DOCTYPE svg PUBLIC "-//W3C//DTD SVG 1.1//EN"
 "http://www.w3.org/Graphics/SVG/1.1/DTD/svg11.dtd">
<!-- Generated by graphviz version 2.40.1 (20161225.0304)
 -->
<!-- Title: IOFactory.cpp Pages: 1 -->
<svg width="729pt" height="314pt"
 viewBox="0.00 0.00 728.62 314.00" xmlns="http://www.w3.org/2000/svg" xmlns:xlink="http://www.w3.org/1999/xlink">
<g id="graph0" class="graph" transform="scale(1 1) rotate(0) translate(4 310)">
<title>IOFactory.cpp</title>
<polygon fill="#ffffff" stroke="transparent" points="-4,4 -4,-310 724.62,-310 724.62,4 -4,4"/>
<!-- Node0 -->
<g id="node1" class="node">
<title>Node0</title>
<polygon fill="#bfbfbf" stroke="#000000" points="344.218,-285.5 344.218,-305.5 423.008,-305.5 423.008,-285.5 344.218,-285.5"/>
<text text-anchor="middle" x="383.613" y="-292.5" font-family="Helvetica,sans-Serif" font-size="10.00" fill="#000000">IOFactory.cpp</text>
</g>
<!-- Node1 -->
<g id="node2" class="node">
<title>Node1</title>
<g id="a_node2"><a xlink:href="IOFactory_8h.html" target="_top" xlink:title="IOFactory.h">
<polygon fill="#ffffff" stroke="#000000" points="59.4975,-228.5 59.4975,-248.5 127.7285,-248.5 127.7285,-228.5 59.4975,-228.5"/>
<text text-anchor="middle" x="93.613" y="-235.5" font-family="Helvetica,sans-Serif" font-size="10.00" fill="#000000">IOFactory.h</text>
</a>
</g>
</g>
<!-- Node0&#45;&gt;Node1 -->
<g id="edge1" class="edge">
<title>Node0&#45;&gt;Node1</title>
<path fill="none" stroke="#191970" d="M344.1259,-288.7368C297.2569,-280.5615 216.5149,-266.0141 137.9133,-249.2022"/>
<polygon fill="#191970" stroke="#191970" points="138.3553,-245.7172 127.8425,-247.033 136.8813,-252.5603 138.3553,-245.7172"/>
</g>
<!-- Node11 -->
<g id="node12" class="node">
<title>Node11</title>
<g id="a_node12"><a xlink:href="InputList_8h.html" target="_top" xlink:title="InputList.h">
<polygon fill="#ffffff" stroke="#000000" points="145.548,-228.5 145.548,-248.5 207.678,-248.5 207.678,-228.5 145.548,-228.5"/>
<text text-anchor="middle" x="176.613" y="-235.5" font-family="Helvetica,sans-Serif" font-size="10.00" fill="#000000">InputList.h</text>
</a>
</g>
</g>
<!-- Node0&#45;&gt;Node11 -->
<g id="edge13" class="edge">
<title>Node0&#45;&gt;Node11</title>
<path fill="none" stroke="#191970" d="M347.0821,-285.4408C310.7503,-275.4364 255.1245,-260.1191 217.3771,-249.7249"/>
<polygon fill="#191970" stroke="#191970" points="218.2827,-246.3441 207.7124,-247.0636 216.4243,-253.0929 218.2827,-246.3441"/>
</g>
<!-- Node12 -->
<g id="node13" class="node">
<title>Node12</title>
<g id="a_node13"><a xlink:href="OutputList_8h.html" target="_top" xlink:title="OutputList.h">
<polygon fill="#ffffff" stroke="#000000" points="225.6585,-228.5 225.6585,-248.5 295.5675,-248.5 295.5675,-228.5 225.6585,-228.5"/>
<text text-anchor="middle" x="260.613" y="-235.5" font-family="Helvetica,sans-Serif" font-size="10.00" fill="#000000">OutputList.h</text>
</a>
</g>
</g>
<!-- Node0&#45;&gt;Node12 -->
<g id="edge14" class="edge">
<title>Node0&#45;&gt;Node12</title>
<path fill="none" stroke="#191970" d="M361.9062,-285.4408C342.4415,-276.4205 313.6568,-263.0813 291.7418,-252.9255"/>
<polygon fill="#191970" stroke="#191970" points="293.0613,-249.6795 282.5165,-248.6504 290.118,-256.0307 293.0613,-249.6795"/>
</g>
<!-- Node13 -->
<g id="node14" class="node">
<title>Node13</title>
<g id="a_node14"><a xlink:href="ServoList_8h.html" target="_top" xlink:title="ServoList.h">
<polygon fill="#ffffff" stroke="#000000" points="313.6075,-228.5 313.6075,-248.5 379.6185,-248.5 379.6185,-228.5 313.6075,-228.5"/>
<text text-anchor="middle" x="346.613" y="-235.5" font-family="Helvetica,sans-Serif" font-size="10.00" fill="#000000">ServoList.h</text>
</a>
</g>
</g>
<!-- Node0&#45;&gt;Node13 -->
<g id="edge15" class="edge">
<title>Node0&#45;&gt;Node13</title>
<path fill="none" stroke="#191970" d="M376.9981,-285.3095C371.9471,-277.5282 364.8462,-266.589 358.779,-257.2423"/>
<polygon fill="#191970" stroke="#191970" points="361.5511,-255.0844 353.1706,-248.6022 355.6796,-258.8957 361.5511,-255.0844"/>
</g>
<!-- Node14 -->
<g id="node15" class="node">
<title>Node14</title>
<g id="a_node15"><a xlink:href="Input_8h.html" target="_top" xlink:title="Input.h">
<polygon fill="#ffffff" stroke="#000000" points="397.3265,-228.5 397.3265,-248.5 443.8995,-248.5 443.8995,-228.5 397.3265,-228.5"/>
<text text-anchor="middle" x="420.613" y="-235.5" font-family="Helvetica,sans-Serif" font-size="10.00" fill="#000000">Input.h</text>
</a>
</g>
</g>
<!-- Node0&#45;&gt;Node14 -->
<g id="edge16" class="edge">
<title>Node0&#45;&gt;Node14</title>
<path fill="none" stroke="#191970" d="M390.2279,-285.3095C395.2789,-277.5282 402.3798,-266.589 408.447,-257.2423"/>
<polygon fill="#191970" stroke="#191970" points="411.5464,-258.8957 414.0554,-248.6022 405.6749,-255.0844 411.5464,-258.8957"/>
</g>
<!-- Node16 -->
<g id="node17" class="node">
<title>Node16</title>
<g id="a_node17"><a xlink:href="Output_8h.html" target="_top" xlink:title="Output.h">
<polygon fill="#ffffff" stroke="#000000" points="461.437,-228.5 461.437,-248.5 515.789,-248.5 515.789,-228.5 461.437,-228.5"/>
<text text-anchor="middle" x="488.613" y="-235.5" font-family="Helvetica,sans-Serif" font-size="10.00" fill="#000000">Output.h</text>
</a>
</g>
</g>
<!-- Node0&#45;&gt;Node16 -->
<g id="edge20" class="edge">
<title>Node0&#45;&gt;Node16</title>
<path fill="none" stroke="#191970" d="M402.3849,-285.3095C418.7346,-276.434 442.6526,-263.4499 461.1531,-253.4068"/>
<polygon fill="#191970" stroke="#191970" points="462.8849,-256.4492 470.0036,-248.6022 459.5452,-250.2972 462.8849,-256.4492"/>
</g>
<!-- Node17 -->
<g id="node18" class="node">
<title>Node17</title>
<g id="a_node18"><a xlink:href="MotorControl_8h.html" target="_top" xlink:title="MotorControl.h">
<polygon fill="#ffffff" stroke="#000000" points="536.555,-171.5 536.555,-191.5 618.671,-191.5 618.671,-171.5 536.555,-171.5"/>
<text text-anchor="middle" x="577.613" y="-178.5" font-family="Helvetica,sans-Serif" font-size="10.00" fill="#000000">MotorControl.h</text>
</a>
</g>
</g>
<!-- Node0&#45;&gt;Node17 -->
<g id="edge22" class="edge">
<title>Node0&#45;&gt;Node17</title>
<path fill="none" stroke="#191970" d="M423.2052,-288.896C453.1304,-282.4512 494.1238,-270.3938 524.613,-249 542.6219,-236.3635 557.4883,-215.8482 566.8461,-200.7468"/>
<polygon fill="#191970" stroke="#191970" points="570.0946,-202.13 572.1777,-191.742 564.0712,-198.5636 570.0946,-202.13"/>
</g>
<!-- Node22 -->
<g id="node23" class="node">
<title>Node22</title>
<g id="a_node23"><a xlink:href="ServoControl_8h.html" target="_top" xlink:title="ServoControl.h">
<polygon fill="#ffffff" stroke="#000000" points="571.2745,-228.5 571.2745,-248.5 653.9515,-248.5 653.9515,-228.5 571.2745,-228.5"/>
<text text-anchor="middle" x="612.613" y="-235.5" font-family="Helvetica,sans-Serif" font-size="10.00" fill="#000000">ServoControl.h</text>
</a>
</g>
</g>
<!-- Node0&#45;&gt;Node22 -->
<g id="edge27" class="edge">
<title>Node0&#45;&gt;Node22</title>
<path fill="none" stroke="#191970" d="M423.2403,-285.6364C461.8753,-276.0199 520.7631,-261.3622 562.6028,-250.948"/>
<polygon fill="#191970" stroke="#191970" points="563.4591,-254.3417 572.3176,-248.5299 561.7683,-247.5489 563.4591,-254.3417"/>
</g>
<!-- Node2 -->
<g id="node3" class="node">
<title>Node2</title>
<g id="a_node3"><a xlink:href="BoeingSurfaceVehicleControl_8h.html" target="_top" xlink:title="BoeingSurfaceVehicleControl.h">
<polygon fill="#ffffff" stroke="#000000" points="36.1515,-171.5 36.1515,-191.5 191.0745,-191.5 191.0745,-171.5 36.1515,-171.5"/>
<text text-anchor="middle" x="113.613" y="-178.5" font-family="Helvetica,sans-Serif" font-size="10.00" fill="#000000">BoeingSurfaceVehicleControl.h</text>
</a>
</g>
</g>
<!-- Node1&#45;&gt;Node2 -->
<g id="edge2" class="edge">
<title>Node1&#45;&gt;Node2</title>
<path fill="none" stroke="#191970" d="M97.1886,-228.3095C99.8336,-220.7714 103.5184,-210.2696 106.7277,-201.123"/>
<polygon fill="#191970" stroke="#191970" points="110.06,-202.1971 110.0684,-191.6022 103.4548,-199.8794 110.06,-202.1971"/>
</g>
<!-- Node3 -->
<g id="node4" class="node">
<title>Node3</title>
<polygon fill="#ffffff" stroke="#bfbfbf" points="0,-114.5 0,-134.5 43.226,-134.5 43.226,-114.5 0,-114.5"/>
<text text-anchor="middle" x="21.613" y="-121.5" font-family="Helvetica,sans-Serif" font-size="10.00" fill="#000000">vector</text>
</g>
<!-- Node2&#45;&gt;Node3 -->
<g id="edge3" class="edge">
<title>Node2&#45;&gt;Node3</title>
<path fill="none" stroke="#191970" d="M97.1652,-171.3095C83.1668,-162.6366 62.8365,-150.0407 46.7906,-140.0992"/>
<polygon fill="#191970" stroke="#191970" points="48.2624,-136.8938 37.9184,-134.6022 44.5757,-142.8442 48.2624,-136.8938"/>
</g>
<!-- Node4 -->
<g id="node5" class="node">
<title>Node4</title>
<g id="a_node5"><a xlink:href="BluetoothInterface_8h.html" target="_top" xlink:title="BluetoothInterface.h">
<polygon fill="#ffffff" stroke="#000000" points="60.8725,-114.5 60.8725,-134.5 166.3535,-134.5 166.3535,-114.5 60.8725,-114.5"/>
<text text-anchor="middle" x="113.613" y="-121.5" font-family="Helvetica,sans-Serif" font-size="10.00" fill="#000000">BluetoothInterface.h</text>
</a>
</g>
</g>
<!-- Node2&#45;&gt;Node4 -->
<g id="edge4" class="edge">
<title>Node2&#45;&gt;Node4</title>
<path fill="none" stroke="#191970" d="M113.613,-171.3095C113.613,-163.9335 113.613,-153.72 113.613,-144.715"/>
<polygon fill="#191970" stroke="#191970" points="117.1131,-144.6022 113.613,-134.6022 110.1131,-144.6023 117.1131,-144.6022"/>
</g>
<!-- Node8 -->
<g id="node9" class="node">
<title>Node8</title>
<g id="a_node9"><a xlink:href="BluetoothDefinitions_8h.html" target="_top" xlink:title="BluetoothDefinitions.h">
<polygon fill="#ffffff" stroke="#000000" points="172.9885,-57.5 172.9885,-77.5 286.2375,-77.5 286.2375,-57.5 172.9885,-57.5"/>
<text text-anchor="middle" x="229.613" y="-64.5" font-family="Helvetica,sans-Serif" font-size="10.00" fill="#000000">BluetoothDefinitions.h</text>
</a>
</g>
</g>
<!-- Node2&#45;&gt;Node8 -->
<g id="edge8" class="edge">
<title>Node2&#45;&gt;Node8</title>
<path fill="none" stroke="#191970" d="M129.2455,-171.4098C142.3256,-162.5967 161.1208,-149.0464 175.613,-135 191.1712,-119.9204 206.3559,-100.3807 216.64,-86.2078"/>
<polygon fill="#191970" stroke="#191970" points="219.6983,-87.9467 222.6451,-77.77 213.9951,-83.8879 219.6983,-87.9467"/>
</g>
<!-- Node9 -->
<g id="node10" class="node">
<title>Node9</title>
<g id="a_node10"><a xlink:href="UserLED_8h.html" target="_top" xlink:title="UserLED.h">
<polygon fill="#ffffff" stroke="#000000" points="282.167,-114.5 282.167,-134.5 347.059,-134.5 347.059,-114.5 282.167,-114.5"/>
<text text-anchor="middle" x="314.613" y="-121.5" font-family="Helvetica,sans-Serif" font-size="10.00" fill="#000000">UserLED.h</text>
</a>
</g>
</g>
<!-- Node2&#45;&gt;Node9 -->
<g id="edge10" class="edge">
<title>Node2&#45;&gt;Node9</title>
<path fill="none" stroke="#191970" d="M149.0851,-171.4408C183.4925,-161.6834 235.7208,-146.8724 272.2837,-136.5038"/>
<polygon fill="#191970" stroke="#191970" points="273.4874,-139.8006 282.1531,-133.705 271.5776,-133.0661 273.4874,-139.8006"/>
</g>
<!-- Node5 -->
<g id="node6" class="node">
<title>Node5</title>
<g id="a_node6"><a xlink:href="BluetoothManager_8h.html" target="_top" xlink:title="BluetoothManager.h">
<polygon fill="#ffffff" stroke="#000000" points="48.597,-57.5 48.597,-77.5 154.629,-77.5 154.629,-57.5 48.597,-57.5"/>
<text text-anchor="middle" x="101.613" y="-64.5" font-family="Helvetica,sans-Serif" font-size="10.00" fill="#000000">BluetoothManager.h</text>
</a>
</g>
</g>
<!-- Node4&#45;&gt;Node5 -->
<g id="edge5" class="edge">
<title>Node4&#45;&gt;Node5</title>
<path fill="none" stroke="#191970" d="M111.4676,-114.3095C109.8977,-106.8524 107.7172,-96.4951 105.8064,-87.4186"/>
<polygon fill="#191970" stroke="#191970" points="109.2249,-86.6667 103.7398,-77.6022 102.375,-88.1088 109.2249,-86.6667"/>
</g>
<!-- Node6 -->
<g id="node7" class="node">
<title>Node6</title>
<polygon fill="#ffffff" stroke="#bfbfbf" points="251.3905,-.5 251.3905,-20.5 291.8355,-20.5 291.8355,-.5 251.3905,-.5"/>
<text text-anchor="middle" x="271.613" y="-7.5" font-family="Helvetica,sans-Serif" font-size="10.00" fill="#000000">string</text>
</g>
<!-- Node5&#45;&gt;Node6 -->
<g id="edge6" class="edge">
<title>Node5&#45;&gt;Node6</title>
<path fill="none" stroke="#191970" d="M131.6143,-57.4408C162.4442,-47.1037 210.191,-31.0944 241.1783,-20.7046"/>
<polygon fill="#191970" stroke="#191970" points="242.6273,-23.9103 250.9959,-17.4128 240.402,-17.2734 242.6273,-23.9103"/>
</g>
<!-- Node7 -->
<g id="node8" class="node">
<title>Node7</title>
<polygon fill="#ffffff" stroke="#bfbfbf" points="80.001,-.5 80.001,-20.5 123.225,-20.5 123.225,-.5 80.001,-.5"/>
<text text-anchor="middle" x="101.613" y="-7.5" font-family="Helvetica,sans-Serif" font-size="10.00" fill="#000000">time.h</text>
</g>
<!-- Node5&#45;&gt;Node7 -->
<g id="edge7" class="edge">
<title>Node5&#45;&gt;Node7</title>
<path fill="none" stroke="#191970" d="M101.613,-57.3095C101.613,-49.9335 101.613,-39.72 101.613,-30.715"/>
<polygon fill="#191970" stroke="#191970" points="105.1131,-30.6022 101.613,-20.6022 98.1131,-30.6023 105.1131,-30.6022"/>
</g>
<!-- Node8&#45;&gt;Node6 -->
<g id="edge9" class="edge">
<title>Node8&#45;&gt;Node6</title>
<path fill="none" stroke="#191970" d="M237.1218,-57.3095C242.9748,-49.3661 251.2527,-38.1319 258.2318,-28.6602"/>
<polygon fill="#191970" stroke="#191970" points="261.0549,-30.729 264.1692,-20.6022 255.4195,-26.5766 261.0549,-30.729"/>
</g>
<!-- Node9&#45;&gt;Node6 -->
<g id="edge11" class="edge">
<title>Node9&#45;&gt;Node6</title>
<path fill="none" stroke="#191970" d="M312.4044,-114.2262C309.3663,-100.8085 303.3801,-76.7077 295.613,-57 291.9259,-47.6447 286.9405,-37.6863 282.4688,-29.3953"/>
<polygon fill="#191970" stroke="#191970" points="285.4792,-27.607 277.5639,-20.5644 279.3597,-31.006 285.4792,-27.607"/>
</g>
<!-- Node10 -->
<g id="node11" class="node">
<title>Node10</title>
<polygon fill="#ffffff" stroke="#bfbfbf" points="342.946,-57.5 342.946,-77.5 392.28,-77.5 392.28,-57.5 342.946,-57.5"/>
<text text-anchor="middle" x="367.613" y="-64.5" font-family="Helvetica,sans-Serif" font-size="10.00" fill="#000000">fstream</text>
</g>
<!-- Node9&#45;&gt;Node10 -->
<g id="edge12" class="edge">
<title>Node9&#45;&gt;Node10</title>
<path fill="none" stroke="#191970" d="M324.0883,-114.3095C331.6251,-106.204 342.3479,-94.672 351.2643,-85.0826"/>
<polygon fill="#191970" stroke="#191970" points="353.9734,-87.3089 358.2197,-77.6022 348.847,-82.5423 353.9734,-87.3089"/>
</g>
<!-- Node15 -->
<g id="node16" class="node">
<title>Node15</title>
<g id="a_node16"><a xlink:href="IOBase_8h.html" target="_top" xlink:title="IOBase.h">
<polygon fill="#ffffff" stroke="#000000" points="391.7715,-171.5 391.7715,-191.5 449.4545,-191.5 449.4545,-171.5 391.7715,-171.5"/>
<text text-anchor="middle" x="420.613" y="-178.5" font-family="Helvetica,sans-Serif" font-size="10.00" fill="#000000">IOBase.h</text>
</a>
</g>
</g>
<!-- Node14&#45;&gt;Node15 -->
<g id="edge17" class="edge">
<title>Node14&#45;&gt;Node15</title>
<path fill="none" stroke="#191970" d="M420.613,-228.3095C420.613,-220.9335 420.613,-210.72 420.613,-201.715"/>
<polygon fill="#191970" stroke="#191970" points="424.1131,-201.6022 420.613,-191.6022 417.1131,-201.6023 424.1131,-201.6022"/>
</g>
<!-- Node15&#45;&gt;Node6 -->
<g id="edge18" class="edge">
<title>Node15&#45;&gt;Node6</title>
<path fill="none" stroke="#191970" d="M422.2296,-171.4253C425.3371,-148.3224 429.5662,-90.9128 401.613,-57 388.729,-41.3692 336.1922,-26.1091 301.9775,-17.5435"/>
<polygon fill="#191970" stroke="#191970" points="302.5567,-14.0821 292.0115,-15.1071 300.8943,-20.8818 302.5567,-14.0821"/>
</g>
<!-- Node15&#45;&gt;Node10 -->
<g id="edge19" class="edge">
<title>Node15&#45;&gt;Node10</title>
<path fill="none" stroke="#191970" d="M415.9096,-171.3833C407.1313,-152.5017 388.1147,-111.598 376.7379,-87.1272"/>
<polygon fill="#191970" stroke="#191970" points="379.7717,-85.3503 372.382,-77.7579 373.4241,-88.3014 379.7717,-85.3503"/>
</g>
<!-- Node16&#45;&gt;Node15 -->
<g id="edge21" class="edge">
<title>Node16&#45;&gt;Node15</title>
<path fill="none" stroke="#191970" d="M476.456,-228.3095C466.4961,-219.9608 452.1995,-207.9769 440.5655,-198.2249"/>
<polygon fill="#191970" stroke="#191970" points="442.5769,-195.344 432.6648,-191.6022 438.0801,-200.7086 442.5769,-195.344"/>
</g>
<!-- Node18 -->
<g id="node19" class="node">
<title>Node18</title>
<polygon fill="#ffffff" stroke="#bfbfbf" points="482.4965,-114.5 482.4965,-134.5 530.7295,-134.5 530.7295,-114.5 482.4965,-114.5"/>
<text text-anchor="middle" x="506.613" y="-121.5" font-family="Helvetica,sans-Serif" font-size="10.00" fill="#000000">stdint.h</text>
</g>
<!-- Node17&#45;&gt;Node18 -->
<g id="edge23" class="edge">
<title>Node17&#45;&gt;Node18</title>
<path fill="none" stroke="#191970" d="M564.9196,-171.3095C554.4194,-162.8798 539.3028,-150.7439 527.0928,-140.9415"/>
<polygon fill="#191970" stroke="#191970" points="529.1856,-138.1333 519.1965,-134.6022 524.8033,-143.5919 529.1856,-138.1333"/>
</g>
<!-- Node19 -->
<g id="node20" class="node">
<title>Node19</title>
<polygon fill="#ffffff" stroke="#bfbfbf" points="548.4925,-114.5 548.4925,-134.5 606.7335,-134.5 606.7335,-114.5 548.4925,-114.5"/>
<text text-anchor="middle" x="577.613" y="-121.5" font-family="Helvetica,sans-Serif" font-size="10.00" fill="#000000">pthread.h</text>
</g>
<!-- Node17&#45;&gt;Node19 -->
<g id="edge24" class="edge">
<title>Node17&#45;&gt;Node19</title>
<path fill="none" stroke="#191970" d="M577.613,-171.3095C577.613,-163.9335 577.613,-153.72 577.613,-144.715"/>
<polygon fill="#191970" stroke="#191970" points="581.1131,-144.6022 577.613,-134.6022 574.1131,-144.6023 581.1131,-144.6022"/>
</g>
<!-- Node20 -->
<g id="node21" class="node">
<title>Node20</title>
<g id="a_node21"><a xlink:href="LinearConverter_8h.html" target="_top" xlink:title="LinearConverter.h">
<polygon fill="#ffffff" stroke="#000000" points="624.606,-114.5 624.606,-134.5 720.62,-134.5 720.62,-114.5 624.606,-114.5"/>
<text text-anchor="middle" x="672.613" y="-121.5" font-family="Helvetica,sans-Serif" font-size="10.00" fill="#000000">LinearConverter.h</text>
</a>
</g>
</g>
<!-- Node17&#45;&gt;Node20 -->
<g id="edge25" class="edge">
<title>Node17&#45;&gt;Node20</title>
<path fill="none" stroke="#191970" d="M594.5971,-171.3095C609.1871,-162.5556 630.4382,-149.8049 647.0778,-139.8211"/>
<polygon fill="#191970" stroke="#191970" points="649.0018,-142.7485 655.7759,-134.6022 645.4002,-136.746 649.0018,-142.7485"/>
</g>
<!-- Node21 -->
<g id="node22" class="node">
<title>Node21</title>
<g id="a_node22"><a xlink:href="Range_8h.html" target="_top" xlink:title="Range.h">
<polygon fill="#ffffff" stroke="#000000" points="645.7165,-57.5 645.7165,-77.5 699.5095,-77.5 699.5095,-57.5 645.7165,-57.5"/>
<text text-anchor="middle" x="672.613" y="-64.5" font-family="Helvetica,sans-Serif" font-size="10.00" fill="#000000">Range.h</text>
</a>
</g>
</g>
<!-- Node20&#45;&gt;Node21 -->
<g id="edge26" class="edge">
<title>Node20&#45;&gt;Node21</title>
<path fill="none" stroke="#191970" d="M672.613,-114.3095C672.613,-106.9335 672.613,-96.72 672.613,-87.715"/>
<polygon fill="#191970" stroke="#191970" points="676.1131,-87.6022 672.613,-77.6022 669.1131,-87.6023 676.1131,-87.6022"/>
</g>
<!-- Node22&#45;&gt;Node17 -->
<g id="edge28" class="edge">
<title>Node22&#45;&gt;Node17</title>
<path fill="none" stroke="#191970" d="M606.3557,-228.3095C601.5777,-220.5282 594.8607,-209.589 589.1214,-200.2423"/>
<polygon fill="#191970" stroke="#191970" points="592.0314,-198.2925 583.8161,-191.6022 586.0662,-201.9554 592.0314,-198.2925"/>
</g>
</g>
</svg>
