<?xml version="1.0" encoding="UTF-8" standalone="no"?>
<!DOCTYPE svg PUBLIC "-//W3C//DTD SVG 1.1//EN"
 "http://www.w3.org/Graphics/SVG/1.1/DTD/svg11.dtd">
<!-- Generated by graphviz version 2.40.1 (20161225.0304)
 -->
<!-- Title: IOFactory.cpp Pages: 1 -->
<svg width="678pt" height="314pt"
 viewBox="0.00 0.00 677.84 314.00" xmlns="http://www.w3.org/2000/svg" xmlns:xlink="http://www.w3.org/1999/xlink">
<g id="graph0" class="graph" transform="scale(1 1) rotate(0) translate(4 310)">
<title>IOFactory.cpp</title>
<polygon fill="#ffffff" stroke="transparent" points="-4,4 -4,-310 673.8425,-310 673.8425,4 -4,4"/>
<!-- Node0 -->
<g id="node1" class="node">
<title>Node0</title>
<polygon fill="#bfbfbf" stroke="#000000" points="284.7205,-285.5 284.7205,-305.5 363.5105,-305.5 363.5105,-285.5 284.7205,-285.5"/>
<text text-anchor="middle" x="324.1155" y="-292.5" font-family="Helvetica,sans-Serif" font-size="10.00" fill="#000000">IOFactory.cpp</text>
</g>
<!-- Node1 -->
<g id="node2" class="node">
<title>Node1</title>
<g id="a_node2"><a xlink:href="IOFactory_8h.html" target="_top" xlink:title="IOFactory.h">
<polygon fill="#ffffff" stroke="#000000" points="0,-228.5 0,-248.5 68.231,-248.5 68.231,-228.5 0,-228.5"/>
<text text-anchor="middle" x="34.1155" y="-235.5" font-family="Helvetica,sans-Serif" font-size="10.00" fill="#000000">IOFactory.h</text>
</a>
</g>
</g>
<!-- Node0&#45;&gt;Node1 -->
<g id="edge1" class="edge">
<title>Node0&#45;&gt;Node1</title>
<path fill="none" stroke="#191970" d="M284.6284,-288.7368C237.7594,-280.5615 157.0174,-266.0141 78.4158,-249.2022"/>
<polygon fill="#191970" stroke="#191970" points="78.8578,-245.7172 68.345,-247.033 77.3838,-252.5603 78.8578,-245.7172"/>
</g>
<!-- Node10 -->
<g id="node11" class="node">
<title>Node10</title>
<g id="a_node11"><a xlink:href="InputList_8h.html" target="_top" xlink:title="InputList.h">
<polygon fill="#ffffff" stroke="#000000" points="86.0505,-228.5 86.0505,-248.5 148.1805,-248.5 148.1805,-228.5 86.0505,-228.5"/>
<text text-anchor="middle" x="117.1155" y="-235.5" font-family="Helvetica,sans-Serif" font-size="10.00" fill="#000000">InputList.h</text>
</a>
</g>
</g>
<!-- Node0&#45;&gt;Node10 -->
<g id="edge11" class="edge">
<title>Node0&#45;&gt;Node10</title>
<path fill="none" stroke="#191970" d="M287.5846,-285.4408C251.2528,-275.4364 195.627,-260.1191 157.8796,-249.7249"/>
<polygon fill="#191970" stroke="#191970" points="158.7852,-246.3441 148.2149,-247.0636 156.9268,-253.0929 158.7852,-246.3441"/>
</g>
<!-- Node11 -->
<g id="node12" class="node">
<title>Node11</title>
<g id="a_node12"><a xlink:href="OutputList_8h.html" target="_top" xlink:title="OutputList.h">
<polygon fill="#ffffff" stroke="#000000" points="166.161,-228.5 166.161,-248.5 236.07,-248.5 236.07,-228.5 166.161,-228.5"/>
<text text-anchor="middle" x="201.1155" y="-235.5" font-family="Helvetica,sans-Serif" font-size="10.00" fill="#000000">OutputList.h</text>
</a>
</g>
</g>
<!-- Node0&#45;&gt;Node11 -->
<g id="edge12" class="edge">
<title>Node0&#45;&gt;Node11</title>
<path fill="none" stroke="#191970" d="M302.4087,-285.4408C282.944,-276.4205 254.1593,-263.0813 232.2443,-252.9255"/>
<polygon fill="#191970" stroke="#191970" points="233.5638,-249.6795 223.019,-248.6504 230.6205,-256.0307 233.5638,-249.6795"/>
</g>
<!-- Node12 -->
<g id="node13" class="node">
<title>Node12</title>
<g id="a_node13"><a xlink:href="ServoList_8h.html" target="_top" xlink:title="ServoList.h">
<polygon fill="#ffffff" stroke="#000000" points="254.11,-228.5 254.11,-248.5 320.121,-248.5 320.121,-228.5 254.11,-228.5"/>
<text text-anchor="middle" x="287.1155" y="-235.5" font-family="Helvetica,sans-Serif" font-size="10.00" fill="#000000">ServoList.h</text>
</a>
</g>
</g>
<!-- Node0&#45;&gt;Node12 -->
<g id="edge13" class="edge">
<title>Node0&#45;&gt;Node12</title>
<path fill="none" stroke="#191970" d="M317.5006,-285.3095C312.4496,-277.5282 305.3487,-266.589 299.2815,-257.2423"/>
<polygon fill="#191970" stroke="#191970" points="302.0536,-255.0844 293.6731,-248.6022 296.1821,-258.8957 302.0536,-255.0844"/>
</g>
<!-- Node13 -->
<g id="node14" class="node">
<title>Node13</title>
<g id="a_node14"><a xlink:href="Input_8h.html" target="_top" xlink:title="Input.h">
<polygon fill="#ffffff" stroke="#000000" points="337.829,-228.5 337.829,-248.5 384.402,-248.5 384.402,-228.5 337.829,-228.5"/>
<text text-anchor="middle" x="361.1155" y="-235.5" font-family="Helvetica,sans-Serif" font-size="10.00" fill="#000000">Input.h</text>
</a>
</g>
</g>
<!-- Node0&#45;&gt;Node13 -->
<g id="edge14" class="edge">
<title>Node0&#45;&gt;Node13</title>
<path fill="none" stroke="#191970" d="M330.7304,-285.3095C335.7814,-277.5282 342.8823,-266.589 348.9495,-257.2423"/>
<polygon fill="#191970" stroke="#191970" points="352.0489,-258.8957 354.5579,-248.6022 346.1774,-255.0844 352.0489,-258.8957"/>
</g>
<!-- Node15 -->
<g id="node16" class="node">
<title>Node15</title>
<g id="a_node16"><a xlink:href="Output_8h.html" target="_top" xlink:title="Output.h">
<polygon fill="#ffffff" stroke="#000000" points="401.9395,-228.5 401.9395,-248.5 456.2915,-248.5 456.2915,-228.5 401.9395,-228.5"/>
<text text-anchor="middle" x="429.1155" y="-235.5" font-family="Helvetica,sans-Serif" font-size="10.00" fill="#000000">Output.h</text>
</a>
</g>
</g>
<!-- Node0&#45;&gt;Node15 -->
<g id="edge18" class="edge">
<title>Node0&#45;&gt;Node15</title>
<path fill="none" stroke="#191970" d="M342.8874,-285.3095C359.2371,-276.434 383.1551,-263.4499 401.6556,-253.4068"/>
<polygon fill="#191970" stroke="#191970" points="403.3874,-256.4492 410.5061,-248.6022 400.0477,-250.2972 403.3874,-256.4492"/>
</g>
<!-- Node16 -->
<g id="node17" class="node">
<title>Node16</title>
<g id="a_node17"><a xlink:href="MotorControl_8h.html" target="_top" xlink:title="MotorControl.h">
<polygon fill="#ffffff" stroke="#000000" points="477.0575,-171.5 477.0575,-191.5 559.1735,-191.5 559.1735,-171.5 477.0575,-171.5"/>
<text text-anchor="middle" x="518.1155" y="-178.5" font-family="Helvetica,sans-Serif" font-size="10.00" fill="#000000">MotorControl.h</text>
</a>
</g>
</g>
<!-- Node0&#45;&gt;Node16 -->
<g id="edge20" class="edge">
<title>Node0&#45;&gt;Node16</title>
<path fill="none" stroke="#191970" d="M363.7077,-288.896C393.6329,-282.4512 434.6263,-270.3938 465.1155,-249 483.1244,-236.3635 497.9908,-215.8482 507.3486,-200.7468"/>
<polygon fill="#191970" stroke="#191970" points="510.5971,-202.13 512.6802,-191.742 504.5737,-198.5636 510.5971,-202.13"/>
</g>
<!-- Node22 -->
<g id="node23" class="node">
<title>Node22</title>
<g id="a_node23"><a xlink:href="ServoControl_8h.html" target="_top" xlink:title="ServoControl.h">
<polygon fill="#ffffff" stroke="#000000" points="511.777,-228.5 511.777,-248.5 594.454,-248.5 594.454,-228.5 511.777,-228.5"/>
<text text-anchor="middle" x="553.1155" y="-235.5" font-family="Helvetica,sans-Serif" font-size="10.00" fill="#000000">ServoControl.h</text>
</a>
</g>
</g>
<!-- Node0&#45;&gt;Node22 -->
<g id="edge26" class="edge">
<title>Node0&#45;&gt;Node22</title>
<path fill="none" stroke="#191970" d="M363.7428,-285.6364C402.3778,-276.0199 461.2656,-261.3622 503.1053,-250.948"/>
<polygon fill="#191970" stroke="#191970" points="503.9616,-254.3417 512.8201,-248.5299 502.2708,-247.5489 503.9616,-254.3417"/>
</g>
<!-- Node2 -->
<g id="node3" class="node">
<title>Node2</title>
<g id="a_node3"><a xlink:href="BoeingSurfaceVehicleControl_8h.html" target="_top" xlink:title="BoeingSurfaceVehicleControl.h">
<polygon fill="#ffffff" stroke="#000000" points="30.654,-171.5 30.654,-191.5 185.577,-191.5 185.577,-171.5 30.654,-171.5"/>
<text text-anchor="middle" x="108.1155" y="-178.5" font-family="Helvetica,sans-Serif" font-size="10.00" fill="#000000">BoeingSurfaceVehicleControl.h</text>
</a>
</g>
</g>
<!-- Node1&#45;&gt;Node2 -->
<g id="edge2" class="edge">
<title>Node1&#45;&gt;Node2</title>
<path fill="none" stroke="#191970" d="M47.3452,-228.3095C58.2891,-219.8798 74.0445,-207.7439 86.7704,-197.9415"/>
<polygon fill="#191970" stroke="#191970" points="89.2139,-200.4773 95.0003,-191.6022 84.9422,-194.9318 89.2139,-200.4773"/>
</g>
<!-- Node3 -->
<g id="node4" class="node">
<title>Node3</title>
<polygon fill="#ffffff" stroke="#bfbfbf" points="40.5025,-114.5 40.5025,-134.5 83.7285,-134.5 83.7285,-114.5 40.5025,-114.5"/>
<text text-anchor="middle" x="62.1155" y="-121.5" font-family="Helvetica,sans-Serif" font-size="10.00" fill="#000000">vector</text>
</g>
<!-- Node2&#45;&gt;Node3 -->
<g id="edge3" class="edge">
<title>Node2&#45;&gt;Node3</title>
<path fill="none" stroke="#191970" d="M99.8916,-171.3095C93.4811,-163.3661 84.4149,-152.1319 76.7711,-142.6602"/>
<polygon fill="#191970" stroke="#191970" points="79.2721,-140.1862 70.2682,-134.6022 73.8247,-144.5823 79.2721,-140.1862"/>
</g>
<!-- Node4 -->
<g id="node5" class="node">
<title>Node4</title>
<g id="a_node5"><a xlink:href="BluetoothInterface_8h.html" target="_top" xlink:title="BluetoothInterface.h">
<polygon fill="#ffffff" stroke="#000000" points="101.375,-114.5 101.375,-134.5 206.856,-134.5 206.856,-114.5 101.375,-114.5"/>
<text text-anchor="middle" x="154.1155" y="-121.5" font-family="Helvetica,sans-Serif" font-size="10.00" fill="#000000">BluetoothInterface.h</text>
</a>
</g>
</g>
<!-- Node2&#45;&gt;Node4 -->
<g id="edge4" class="edge">
<title>Node2&#45;&gt;Node4</title>
<path fill="none" stroke="#191970" d="M116.3394,-171.3095C122.7499,-163.3661 131.8161,-152.1319 139.4599,-142.6602"/>
<polygon fill="#191970" stroke="#191970" points="142.4063,-144.5823 145.9628,-134.6022 136.9589,-140.1862 142.4063,-144.5823"/>
</g>
<!-- Node8 -->
<g id="node9" class="node">
<title>Node8</title>
<g id="a_node9"><a xlink:href="UserLED_8h.html" target="_top" xlink:title="UserLED.h">
<polygon fill="#ffffff" stroke="#000000" points="224.6695,-114.5 224.6695,-134.5 289.5615,-134.5 289.5615,-114.5 224.6695,-114.5"/>
<text text-anchor="middle" x="257.1155" y="-121.5" font-family="Helvetica,sans-Serif" font-size="10.00" fill="#000000">UserLED.h</text>
</a>
</g>
</g>
<!-- Node2&#45;&gt;Node8 -->
<g id="edge8" class="edge">
<title>Node2&#45;&gt;Node8</title>
<path fill="none" stroke="#191970" d="M134.4107,-171.4408C158.593,-162.1898 194.6503,-148.3961 221.427,-138.1527"/>
<polygon fill="#191970" stroke="#191970" points="222.7436,-141.3964 230.833,-134.5544 220.2425,-134.8585 222.7436,-141.3964"/>
</g>
<!-- Node5 -->
<g id="node6" class="node">
<title>Node5</title>
<g id="a_node6"><a xlink:href="BluetoothManager_8h.html" target="_top" xlink:title="BluetoothManager.h">
<polygon fill="#ffffff" stroke="#000000" points="114.0995,-57.5 114.0995,-77.5 220.1315,-77.5 220.1315,-57.5 114.0995,-57.5"/>
<text text-anchor="middle" x="167.1155" y="-64.5" font-family="Helvetica,sans-Serif" font-size="10.00" fill="#000000">BluetoothManager.h</text>
</a>
</g>
</g>
<!-- Node4&#45;&gt;Node5 -->
<g id="edge5" class="edge">
<title>Node4&#45;&gt;Node5</title>
<path fill="none" stroke="#191970" d="M156.4396,-114.3095C158.1404,-106.8524 160.5026,-96.4951 162.5727,-87.4186"/>
<polygon fill="#191970" stroke="#191970" points="166.0002,-88.1302 164.8115,-77.6022 159.1754,-86.5736 166.0002,-88.1302"/>
</g>
<!-- Node6 -->
<g id="node7" class="node">
<title>Node6</title>
<polygon fill="#ffffff" stroke="#bfbfbf" points="234.893,-.5 234.893,-20.5 275.338,-20.5 275.338,-.5 234.893,-.5"/>
<text text-anchor="middle" x="255.1155" y="-7.5" font-family="Helvetica,sans-Serif" font-size="10.00" fill="#000000">string</text>
</g>
<!-- Node5&#45;&gt;Node6 -->
<g id="edge6" class="edge">
<title>Node5&#45;&gt;Node6</title>
<path fill="none" stroke="#191970" d="M182.8481,-57.3095C196.2379,-48.6366 215.6843,-36.0407 231.0326,-26.0992"/>
<polygon fill="#191970" stroke="#191970" points="233.0287,-28.9764 239.5191,-20.6022 229.2231,-23.1011 233.0287,-28.9764"/>
</g>
<!-- Node7 -->
<g id="node8" class="node">
<title>Node7</title>
<polygon fill="#ffffff" stroke="#bfbfbf" points="145.5035,-.5 145.5035,-20.5 188.7275,-20.5 188.7275,-.5 145.5035,-.5"/>
<text text-anchor="middle" x="167.1155" y="-7.5" font-family="Helvetica,sans-Serif" font-size="10.00" fill="#000000">time.h</text>
</g>
<!-- Node5&#45;&gt;Node7 -->
<g id="edge7" class="edge">
<title>Node5&#45;&gt;Node7</title>
<path fill="none" stroke="#191970" d="M167.1155,-57.3095C167.1155,-49.9335 167.1155,-39.72 167.1155,-30.715"/>
<polygon fill="#191970" stroke="#191970" points="170.6156,-30.6022 167.1155,-20.6022 163.6156,-30.6023 170.6156,-30.6022"/>
</g>
<!-- Node8&#45;&gt;Node6 -->
<g id="edge9" class="edge">
<title>Node8&#45;&gt;Node6</title>
<path fill="none" stroke="#191970" d="M256.938,-114.3833C256.6097,-95.6703 255.9019,-55.3266 255.4714,-30.7866"/>
<polygon fill="#191970" stroke="#191970" points="258.9704,-30.695 255.2955,-20.7579 251.9715,-30.8178 258.9704,-30.695"/>
</g>
<!-- Node9 -->
<g id="node10" class="node">
<title>Node9</title>
<polygon fill="#ffffff" stroke="#bfbfbf" points="283.4485,-57.5 283.4485,-77.5 332.7825,-77.5 332.7825,-57.5 283.4485,-57.5"/>
<text text-anchor="middle" x="308.1155" y="-64.5" font-family="Helvetica,sans-Serif" font-size="10.00" fill="#000000">fstream</text>
</g>
<!-- Node8&#45;&gt;Node9 -->
<g id="edge10" class="edge">
<title>Node8&#45;&gt;Node9</title>
<path fill="none" stroke="#191970" d="M266.2333,-114.3095C273.4856,-106.204 283.8038,-94.672 292.3837,-85.0826"/>
<polygon fill="#191970" stroke="#191970" points="295.017,-87.3885 299.0767,-77.6022 289.8003,-82.7209 295.017,-87.3885"/>
</g>
<!-- Node14 -->
<g id="node15" class="node">
<title>Node14</title>
<g id="a_node15"><a xlink:href="IOBase_8h.html" target="_top" xlink:title="IOBase.h">
<polygon fill="#ffffff" stroke="#000000" points="332.274,-171.5 332.274,-191.5 389.957,-191.5 389.957,-171.5 332.274,-171.5"/>
<text text-anchor="middle" x="361.1155" y="-178.5" font-family="Helvetica,sans-Serif" font-size="10.00" fill="#000000">IOBase.h</text>
</a>
</g>
</g>
<!-- Node13&#45;&gt;Node14 -->
<g id="edge15" class="edge">
<title>Node13&#45;&gt;Node14</title>
<path fill="none" stroke="#191970" d="M361.1155,-228.3095C361.1155,-220.9335 361.1155,-210.72 361.1155,-201.715"/>
<polygon fill="#191970" stroke="#191970" points="364.6156,-201.6022 361.1155,-191.6022 357.6156,-201.6023 364.6156,-201.6022"/>
</g>
<!-- Node14&#45;&gt;Node6 -->
<g id="edge16" class="edge">
<title>Node14&#45;&gt;Node6</title>
<path fill="none" stroke="#191970" d="M362.4112,-171.3587C364.7612,-148.6074 367.3705,-92.6997 342.1155,-57 328.555,-37.8313 304.5662,-25.8573 285.2082,-18.8696"/>
<polygon fill="#191970" stroke="#191970" points="286.1809,-15.5045 275.5871,-15.6584 283.9646,-22.1444 286.1809,-15.5045"/>
</g>
<!-- Node14&#45;&gt;Node9 -->
<g id="edge17" class="edge">
<title>Node14&#45;&gt;Node9</title>
<path fill="none" stroke="#191970" d="M356.4121,-171.3833C347.6338,-152.5017 328.6172,-111.598 317.2404,-87.1272"/>
<polygon fill="#191970" stroke="#191970" points="320.2742,-85.3503 312.8845,-77.7579 313.9266,-88.3014 320.2742,-85.3503"/>
</g>
<!-- Node15&#45;&gt;Node14 -->
<g id="edge19" class="edge">
<title>Node15&#45;&gt;Node14</title>
<path fill="none" stroke="#191970" d="M416.9585,-228.3095C406.9986,-219.9608 392.702,-207.9769 381.068,-198.2249"/>
<polygon fill="#191970" stroke="#191970" points="383.0794,-195.344 373.1673,-191.6022 378.5826,-200.7086 383.0794,-195.344"/>
</g>
<!-- Node17 -->
<g id="node18" class="node">
<title>Node17</title>
<polygon fill="#ffffff" stroke="#bfbfbf" points="422.999,-114.5 422.999,-134.5 471.232,-134.5 471.232,-114.5 422.999,-114.5"/>
<text text-anchor="middle" x="447.1155" y="-121.5" font-family="Helvetica,sans-Serif" font-size="10.00" fill="#000000">stdint.h</text>
</g>
<!-- Node16&#45;&gt;Node17 -->
<g id="edge21" class="edge">
<title>Node16&#45;&gt;Node17</title>
<path fill="none" stroke="#191970" d="M505.4221,-171.3095C494.9219,-162.8798 479.8053,-150.7439 467.5953,-140.9415"/>
<polygon fill="#191970" stroke="#191970" points="469.6881,-138.1333 459.699,-134.6022 465.3058,-143.5919 469.6881,-138.1333"/>
</g>
<!-- Node18 -->
<g id="node19" class="node">
<title>Node18</title>
<polygon fill="#ffffff" stroke="#bfbfbf" points="488.995,-114.5 488.995,-134.5 547.236,-134.5 547.236,-114.5 488.995,-114.5"/>
<text text-anchor="middle" x="518.1155" y="-121.5" font-family="Helvetica,sans-Serif" font-size="10.00" fill="#000000">pthread.h</text>
</g>
<!-- Node16&#45;&gt;Node18 -->
<g id="edge22" class="edge">
<title>Node16&#45;&gt;Node18</title>
<path fill="none" stroke="#191970" d="M518.1155,-171.3095C518.1155,-163.9335 518.1155,-153.72 518.1155,-144.715"/>
<polygon fill="#191970" stroke="#191970" points="521.6156,-144.6022 518.1155,-134.6022 514.6156,-144.6023 521.6156,-144.6022"/>
</g>
<!-- Node19 -->
<g id="node20" class="node">
<title>Node19</title>
<g id="a_node20"><a xlink:href="LinearConverter_8h.html" target="_top" xlink:title="LinearConverter.h">
<polygon fill="#ffffff" stroke="#000000" points="565.1085,-114.5 565.1085,-134.5 661.1225,-134.5 661.1225,-114.5 565.1085,-114.5"/>
<text text-anchor="middle" x="613.1155" y="-121.5" font-family="Helvetica,sans-Serif" font-size="10.00" fill="#000000">LinearConverter.h</text>
</a>
</g>
</g>
<!-- Node16&#45;&gt;Node19 -->
<g id="edge23" class="edge">
<title>Node16&#45;&gt;Node19</title>
<path fill="none" stroke="#191970" d="M535.0996,-171.3095C549.6896,-162.5556 570.9407,-149.8049 587.5803,-139.8211"/>
<polygon fill="#191970" stroke="#191970" points="589.5043,-142.7485 596.2784,-134.6022 585.9027,-136.746 589.5043,-142.7485"/>
</g>
<!-- Node20 -->
<g id="node21" class="node">
<title>Node20</title>
<g id="a_node21"><a xlink:href="Range_8h.html" target="_top" xlink:title="Range.h">
<polygon fill="#ffffff" stroke="#000000" points="552.219,-57.5 552.219,-77.5 606.012,-77.5 606.012,-57.5 552.219,-57.5"/>
<text text-anchor="middle" x="579.1155" y="-64.5" font-family="Helvetica,sans-Serif" font-size="10.00" fill="#000000">Range.h</text>
</a>
</g>
</g>
<!-- Node19&#45;&gt;Node20 -->
<g id="edge24" class="edge">
<title>Node19&#45;&gt;Node20</title>
<path fill="none" stroke="#191970" d="M607.037,-114.3095C602.3955,-106.5282 595.8704,-95.589 590.2951,-86.2423"/>
<polygon fill="#191970" stroke="#191970" points="593.2701,-84.3975 585.1414,-77.6022 587.2584,-87.9834 593.2701,-84.3975"/>
</g>
<!-- Node21 -->
<g id="node22" class="node">
<title>Node21</title>
<polygon fill="#ffffff" stroke="#bfbfbf" points="624.3885,-57.5 624.3885,-77.5 669.8425,-77.5 669.8425,-57.5 624.3885,-57.5"/>
<text text-anchor="middle" x="647.1155" y="-64.5" font-family="Helvetica,sans-Serif" font-size="10.00" fill="#000000">stdio.h</text>
</g>
<!-- Node19&#45;&gt;Node21 -->
<g id="edge25" class="edge">
<title>Node19&#45;&gt;Node21</title>
<path fill="none" stroke="#191970" d="M619.194,-114.3095C623.8355,-106.5282 630.3606,-95.589 635.9359,-86.2423"/>
<polygon fill="#191970" stroke="#191970" points="638.9726,-87.9834 641.0896,-77.6022 632.9609,-84.3975 638.9726,-87.9834"/>
</g>
<!-- Node22&#45;&gt;Node16 -->
<g id="edge27" class="edge">
<title>Node22&#45;&gt;Node16</title>
<path fill="none" stroke="#191970" d="M546.8582,-228.3095C542.0802,-220.5282 535.3632,-209.589 529.6239,-200.2423"/>
<polygon fill="#191970" stroke="#191970" points="532.5339,-198.2925 524.3186,-191.6022 526.5687,-201.9554 532.5339,-198.2925"/>
</g>
</g>
</svg>
