<?xml version="1.0" encoding="UTF-8" standalone="no"?>
<!DOCTYPE svg PUBLIC "-//W3C//DTD SVG 1.1//EN"
 "http://www.w3.org/Graphics/SVG/1.1/DTD/svg11.dtd">
<!-- Generated by graphviz version 2.40.1 (20161225.0304)
 -->
<!-- Title: main Pages: 1 -->
<svg width="1010pt" height="395pt"
 viewBox="0.00 0.00 1009.64 395.00" xmlns="http://www.w3.org/2000/svg" xmlns:xlink="http://www.w3.org/1999/xlink">
<g id="graph0" class="graph" transform="scale(1 1) rotate(0) translate(4 391)">
<title>main</title>
<polygon fill="#ffffff" stroke="transparent" points="-4,4 -4,-391 1005.643,-391 1005.643,4 -4,4"/>
<!-- Node0 -->
<g id="node1" class="node">
<title>Node0</title>
<polygon fill="#bfbfbf" stroke="#000000" points="0,-283.5 0,-303.5 37.666,-303.5 37.666,-283.5 0,-283.5"/>
<text text-anchor="middle" x="18.833" y="-290.5" font-family="Helvetica,sans-Serif" font-size="10.00" fill="#000000">main</text>
</g>
<!-- Node1 -->
<g id="node2" class="node">
<title>Node1</title>
<g id="a_node2"><a xlink:href="classLibBBB_1_1ManagerPRUs.html#a11fbfc8917c5e0bc56112c31a2b736ab" target="_top" xlink:title="instance method is the Singleton method of creating and accessing this class. This ensures there can ...">
<polygon fill="#ffffff" stroke="#000000" points="73.666,-354.5 73.666,-386.5 194.128,-386.5 194.128,-354.5 73.666,-354.5"/>
<text text-anchor="start" x="81.666" y="-373.5" font-family="Helvetica,sans-Serif" font-size="10.00" fill="#000000">LibBBB::ManagerPRUs</text>
<text text-anchor="middle" x="133.897" y="-361.5" font-family="Helvetica,sans-Serif" font-size="10.00" fill="#000000">::instance</text>
</a>
</g>
</g>
<!-- Node0&#45;&gt;Node1 -->
<g id="edge1" class="edge">
<title>Node0&#45;&gt;Node1</title>
<path fill="none" stroke="#191970" d="M27.6277,-303.8626C37.7694,-315.2929 55.4033,-333.6349 73.666,-345.5 75.946,-346.9813 78.3284,-348.4047 80.7737,-349.768"/>
<polygon fill="#191970" stroke="#191970" points="79.3416,-352.9674 89.8339,-354.4378 82.5486,-346.7453 79.3416,-352.9674"/>
</g>
<!-- Node2 -->
<g id="node3" class="node">
<title>Node2</title>
<g id="a_node3"><a xlink:href="classVehicleControl_1_1Control.html#aa050ea7668adf370680b812948b07a9e" target="_top" xlink:title="instance method is the Singleton method of creating and accessing this class. This ensures there can ...">
<polygon fill="#ffffff" stroke="#000000" points="74.503,-303.5 74.503,-335.5 193.291,-335.5 193.291,-303.5 74.503,-303.5"/>
<text text-anchor="start" x="82.503" y="-322.5" font-family="Helvetica,sans-Serif" font-size="10.00" fill="#000000">VehicleControl::Control</text>
<text text-anchor="middle" x="133.897" y="-310.5" font-family="Helvetica,sans-Serif" font-size="10.00" fill="#000000">::instance</text>
</a>
</g>
</g>
<!-- Node0&#45;&gt;Node2 -->
<g id="edge2" class="edge">
<title>Node0&#45;&gt;Node2</title>
<path fill="none" stroke="#191970" d="M37.8335,-297.7934C45.3974,-299.5025 54.6059,-301.5833 64.2926,-303.7721"/>
<polygon fill="#191970" stroke="#191970" points="63.5698,-307.197 74.0954,-305.9871 65.1127,-300.3691 63.5698,-307.197"/>
</g>
<!-- Node3 -->
<g id="node4" class="node">
<title>Node3</title>
<g id="a_node4"><a xlink:href="classVehicleControl_1_1Control.html#a8242c18c2d4eb8cede01197068794ee4" target="_top" xlink:title="isRunning getter ">
<polygon fill="#ffffff" stroke="#000000" points="74.503,-252.5 74.503,-284.5 193.291,-284.5 193.291,-252.5 74.503,-252.5"/>
<text text-anchor="start" x="82.503" y="-271.5" font-family="Helvetica,sans-Serif" font-size="10.00" fill="#000000">VehicleControl::Control</text>
<text text-anchor="middle" x="133.897" y="-259.5" font-family="Helvetica,sans-Serif" font-size="10.00" fill="#000000">::isRunning</text>
</a>
</g>
</g>
<!-- Node0&#45;&gt;Node3 -->
<g id="edge3" class="edge">
<title>Node0&#45;&gt;Node3</title>
<path fill="none" stroke="#191970" d="M37.8335,-289.3718C45.3974,-287.7283 54.6059,-285.7276 64.2926,-283.623"/>
<polygon fill="#191970" stroke="#191970" points="65.0665,-287.0366 74.0954,-281.4931 63.5802,-280.1962 65.0665,-287.0366"/>
</g>
<!-- Node4 -->
<g id="node5" class="node">
<title>Node4</title>
<g id="a_node5"><a xlink:href="classVehicleControl_1_1Control.html#af677fb9565407041290bbf7b681802e5" target="_top" xlink:title="update method that controls the vehicle ">
<polygon fill="#ffffff" stroke="#000000" points="74.503,-201.5 74.503,-233.5 193.291,-233.5 193.291,-201.5 74.503,-201.5"/>
<text text-anchor="start" x="82.503" y="-220.5" font-family="Helvetica,sans-Serif" font-size="10.00" fill="#000000">VehicleControl::Control</text>
<text text-anchor="middle" x="133.897" y="-208.5" font-family="Helvetica,sans-Serif" font-size="10.00" fill="#000000">::update</text>
</a>
</g>
</g>
<!-- Node0&#45;&gt;Node4 -->
<g id="edge4" class="edge">
<title>Node0&#45;&gt;Node4</title>
<path fill="none" stroke="#191970" d="M28.1113,-283.2099C38.4055,-272.2585 55.9171,-254.9623 73.666,-243.5 76.5767,-241.6203 79.6461,-239.8201 82.7956,-238.1072"/>
<polygon fill="#191970" stroke="#191970" points="84.4918,-241.1712 91.8175,-233.5171 81.3176,-234.9323 84.4918,-241.1712"/>
</g>
<!-- Node5 -->
<g id="node6" class="node">
<title>Node5</title>
<g id="a_node6"><a xlink:href="classLibBBB_1_1Bluetooth_1_1Manager.html#aba77bfc05cca940e709d9c0bb1106127" target="_top" xlink:title="isConnected getter ">
<polygon fill="#ffffff" stroke="#000000" points="250.399,-258.5 250.399,-290.5 366.981,-290.5 366.981,-258.5 250.399,-258.5"/>
<text text-anchor="start" x="258.399" y="-277.5" font-family="Helvetica,sans-Serif" font-size="10.00" fill="#000000">LibBBB::Bluetooth::</text>
<text text-anchor="middle" x="308.69" y="-265.5" font-family="Helvetica,sans-Serif" font-size="10.00" fill="#000000">Manager::isConnected</text>
</a>
</g>
</g>
<!-- Node4&#45;&gt;Node5 -->
<g id="edge5" class="edge">
<title>Node4&#45;&gt;Node5</title>
<path fill="none" stroke="#191970" d="M181.8259,-233.5735C197.2353,-238.7049 214.3902,-244.3795 230.128,-249.5 236.0232,-251.4181 242.1724,-253.4027 248.321,-255.3766"/>
<polygon fill="#191970" stroke="#191970" points="247.3548,-258.7422 257.9458,-258.4582 249.4894,-252.0755 247.3548,-258.7422"/>
</g>
<!-- Node7 -->
<g id="node8" class="node">
<title>Node7</title>
<g id="a_node8"><a xlink:href="classVehicleControl_1_1Control_1_1CommunicationProtocolParser.html#a518b7eda37805934071cbc4c3dbc4328" target="_top" xlink:title="parseIncomingPackets method gets and parses the incoming Bluetooth packets. This method calls the Blu...">
<polygon fill="#ffffff" stroke="#000000" points="230.128,-195.5 230.128,-239.5 387.252,-239.5 387.252,-195.5 230.128,-195.5"/>
<text text-anchor="start" x="238.128" y="-226.5" font-family="Helvetica,sans-Serif" font-size="10.00" fill="#000000">VehicleControl::Control</text>
<text text-anchor="start" x="238.128" y="-214.5" font-family="Helvetica,sans-Serif" font-size="10.00" fill="#000000">::CommunicationProtocolParser</text>
<text text-anchor="middle" x="308.69" y="-202.5" font-family="Helvetica,sans-Serif" font-size="10.00" fill="#000000">::parseIncomingPackets</text>
</a>
</g>
</g>
<!-- Node4&#45;&gt;Node7 -->
<g id="edge7" class="edge">
<title>Node4&#45;&gt;Node7</title>
<path fill="none" stroke="#191970" d="M193.562,-217.5C202.041,-217.5 210.9085,-217.5 219.7967,-217.5"/>
<polygon fill="#191970" stroke="#191970" points="219.8209,-221.0001 229.8209,-217.5 219.8209,-214.0001 219.8209,-221.0001"/>
</g>
<!-- Node9 -->
<g id="node10" class="node">
<title>Node9</title>
<g id="a_node10"><a xlink:href="classVehicleControl_1_1Control_1_1CommunicationProtocolParser.html#abdbab1c6376e364c7064e5c5b04f0168" target="_top" xlink:title="sendOutgoingPackets packs and send outgoing data. This method takes care of packing bools into a sing...">
<polygon fill="#ffffff" stroke="#000000" points="230.128,-96.5 230.128,-140.5 387.252,-140.5 387.252,-96.5 230.128,-96.5"/>
<text text-anchor="start" x="238.128" y="-127.5" font-family="Helvetica,sans-Serif" font-size="10.00" fill="#000000">VehicleControl::Control</text>
<text text-anchor="start" x="238.128" y="-115.5" font-family="Helvetica,sans-Serif" font-size="10.00" fill="#000000">::CommunicationProtocolParser</text>
<text text-anchor="middle" x="308.69" y="-103.5" font-family="Helvetica,sans-Serif" font-size="10.00" fill="#000000">::sendOutgoingPackets</text>
</a>
</g>
</g>
<!-- Node4&#45;&gt;Node9 -->
<g id="edge9" class="edge">
<title>Node4&#45;&gt;Node9</title>
<path fill="none" stroke="#191970" d="M162.3695,-201.3736C188.9595,-186.3134 229.1706,-163.5386 260.7143,-145.6727"/>
<polygon fill="#191970" stroke="#191970" points="262.8044,-148.5114 269.7807,-140.5376 259.3546,-142.4205 262.8044,-148.5114"/>
</g>
<!-- Node6 -->
<g id="node7" class="node">
<title>Node6</title>
<g id="a_node7"><a xlink:href="classLibBBB_1_1ThreadHelper.html#a068eff4b68a89c09c63d8780621b431a" target="_top" xlink:title="startJoinableThread ">
<polygon fill="#ffffff" stroke="#000000" points="449.6405,-258.5 449.6405,-290.5 565.6605,-290.5 565.6605,-258.5 449.6405,-258.5"/>
<text text-anchor="start" x="457.6405" y="-277.5" font-family="Helvetica,sans-Serif" font-size="10.00" fill="#000000">LibBBB::ThreadHelper</text>
<text text-anchor="middle" x="507.6505" y="-265.5" font-family="Helvetica,sans-Serif" font-size="10.00" fill="#000000">::startJoinableThread</text>
</a>
</g>
</g>
<!-- Node5&#45;&gt;Node6 -->
<g id="edge6" class="edge">
<title>Node5&#45;&gt;Node6</title>
<path fill="none" stroke="#191970" d="M367.0404,-274.5C389.6138,-274.5 415.6165,-274.5 439.0739,-274.5"/>
<polygon fill="#191970" stroke="#191970" points="439.3012,-278.0001 449.3012,-274.5 439.3011,-271.0001 439.3012,-278.0001"/>
</g>
<!-- Node8 -->
<g id="node9" class="node">
<title>Node8</title>
<g id="a_node9"><a xlink:href="classLibBBB_1_1Bluetooth_1_1Manager.html#ae579e5664c1fa9a5cb4ed5e067f80e33" target="_top" xlink:title="receiveData method that receives the data ">
<polygon fill="#ffffff" stroke="#000000" points="450.4745,-204.5 450.4745,-236.5 564.8265,-236.5 564.8265,-204.5 450.4745,-204.5"/>
<text text-anchor="start" x="458.4745" y="-223.5" font-family="Helvetica,sans-Serif" font-size="10.00" fill="#000000">LibBBB::Bluetooth::</text>
<text text-anchor="middle" x="507.6505" y="-211.5" font-family="Helvetica,sans-Serif" font-size="10.00" fill="#000000">Manager::receiveData</text>
</a>
</g>
</g>
<!-- Node7&#45;&gt;Node8 -->
<g id="edge8" class="edge">
<title>Node7&#45;&gt;Node8</title>
<path fill="none" stroke="#191970" d="M387.3245,-218.6857C404.7748,-218.9488 423.1211,-219.2254 440.0829,-219.4812"/>
<polygon fill="#191970" stroke="#191970" points="440.3932,-222.9862 450.4448,-219.6374 440.4988,-215.987 440.3932,-222.9862"/>
</g>
<!-- Node10 -->
<g id="node11" class="node">
<title>Node10</title>
<g id="a_node11"><a xlink:href="classLibBBB_1_1Math_1_1LinearConverter_3_01float_01_4.html#a3d04d3d46e57718648da2a1073be15e8" target="_top" xlink:title="LibBBB::Math::LinearConverter\l\&lt; float \&gt;::convertXtoY">
<polygon fill="#ffffff" stroke="#000000" points="430.4695,-153.5 430.4695,-185.5 584.8315,-185.5 584.8315,-153.5 430.4695,-153.5"/>
<text text-anchor="start" x="438.4695" y="-172.5" font-family="Helvetica,sans-Serif" font-size="10.00" fill="#000000">LibBBB::Math::LinearConverter</text>
<text text-anchor="middle" x="507.6505" y="-160.5" font-family="Helvetica,sans-Serif" font-size="10.00" fill="#000000">&lt; float &gt;::convertXtoY</text>
</a>
</g>
</g>
<!-- Node9&#45;&gt;Node10 -->
<g id="edge10" class="edge">
<title>Node9&#45;&gt;Node10</title>
<path fill="none" stroke="#191970" d="M387.3245,-138.6566C403.0954,-142.6992 419.5982,-146.9294 435.1495,-150.9156"/>
<polygon fill="#191970" stroke="#191970" points="434.6583,-154.4028 445.2142,-153.4956 436.3965,-147.6221 434.6583,-154.4028"/>
</g>
<!-- Node11 -->
<g id="node12" class="node">
<title>Node11</title>
<g id="a_node12"><a xlink:href="classLibBBB_1_1AnalogToDigitalController.html#ac91d1341aaf8567024edfebac7db546e" target="_top" xlink:title="instance method is the Singleton method of creating and accessing this class. This ensures there can ...">
<polygon fill="#ffffff" stroke="#000000" points="423.252,-102.5 423.252,-134.5 592.049,-134.5 592.049,-102.5 423.252,-102.5"/>
<text text-anchor="start" x="431.252" y="-121.5" font-family="Helvetica,sans-Serif" font-size="10.00" fill="#000000">LibBBB::AnalogToDigitalController</text>
<text text-anchor="middle" x="507.6505" y="-109.5" font-family="Helvetica,sans-Serif" font-size="10.00" fill="#000000">::instance</text>
</a>
</g>
</g>
<!-- Node9&#45;&gt;Node11 -->
<g id="edge11" class="edge">
<title>Node9&#45;&gt;Node11</title>
<path fill="none" stroke="#191970" d="M387.3245,-118.5C395.756,-118.5 404.3967,-118.5 412.9894,-118.5"/>
<polygon fill="#191970" stroke="#191970" points="413.039,-122.0001 423.0389,-118.5 413.0389,-115.0001 413.039,-122.0001"/>
</g>
<!-- Node12 -->
<g id="node13" class="node">
<title>Node12</title>
<g id="a_node13"><a xlink:href="classLibBBB_1_1AnalogToDigitalController.html#a44f86e094ef5abaa24e6342ba51ba0c2" target="_top" xlink:title="batteryVoltage gets the LiPo battery&#39;s voltage ">
<polygon fill="#ffffff" stroke="#000000" points="423.252,-51.5 423.252,-83.5 592.049,-83.5 592.049,-51.5 423.252,-51.5"/>
<text text-anchor="start" x="431.252" y="-70.5" font-family="Helvetica,sans-Serif" font-size="10.00" fill="#000000">LibBBB::AnalogToDigitalController</text>
<text text-anchor="middle" x="507.6505" y="-58.5" font-family="Helvetica,sans-Serif" font-size="10.00" fill="#000000">::batteryVoltage</text>
</a>
</g>
</g>
<!-- Node9&#45;&gt;Node12 -->
<g id="edge12" class="edge">
<title>Node9&#45;&gt;Node12</title>
<path fill="none" stroke="#191970" d="M387.3245,-98.3434C403.0954,-94.3008 419.5982,-90.0706 435.1495,-86.0844"/>
<polygon fill="#191970" stroke="#191970" points="436.3965,-89.3779 445.2142,-83.5044 434.6583,-82.5972 436.3965,-89.3779"/>
</g>
<!-- Node15 -->
<g id="node16" class="node">
<title>Node15</title>
<g id="a_node16"><a xlink:href="classLibBBB_1_1Bluetooth_1_1Manager.html#a2f93bbcf746ab55eaf46ad12451e24fa" target="_top" xlink:title="sendData method that sends the data over the Bluetooth connection ">
<polygon fill="#ffffff" stroke="#000000" points="455.7485,-.5 455.7485,-32.5 559.5525,-32.5 559.5525,-.5 455.7485,-.5"/>
<text text-anchor="start" x="463.7485" y="-19.5" font-family="Helvetica,sans-Serif" font-size="10.00" fill="#000000">LibBBB::Bluetooth::</text>
<text text-anchor="middle" x="507.6505" y="-7.5" font-family="Helvetica,sans-Serif" font-size="10.00" fill="#000000">Manager::sendData</text>
</a>
</g>
</g>
<!-- Node9&#45;&gt;Node15 -->
<g id="edge15" class="edge">
<title>Node9&#45;&gt;Node15</title>
<path fill="none" stroke="#191970" d="M336.9854,-96.3803C359.3746,-79.7273 391.9738,-57.3126 423.252,-42.5 430.3644,-39.1317 438.0176,-36.0689 445.7088,-33.3245"/>
<polygon fill="#191970" stroke="#191970" points="447.0915,-36.5513 455.4334,-30.0195 444.839,-29.9236 447.0915,-36.5513"/>
</g>
<!-- Node13 -->
<g id="node14" class="node">
<title>Node13</title>
<g id="a_node14"><a xlink:href="classLibBBB_1_1AnalogToDigitalController.html#ae9099e54e15ebdf0213db4b7b87e3db4" target="_top" xlink:title="adcVoltage gets the ADC channel&#39;s unscaled value ">
<polygon fill="#ffffff" stroke="#000000" points="628.049,-51.5 628.049,-83.5 796.846,-83.5 796.846,-51.5 628.049,-51.5"/>
<text text-anchor="start" x="636.049" y="-70.5" font-family="Helvetica,sans-Serif" font-size="10.00" fill="#000000">LibBBB::AnalogToDigitalController</text>
<text text-anchor="middle" x="712.4475" y="-58.5" font-family="Helvetica,sans-Serif" font-size="10.00" fill="#000000">::adcVoltage</text>
</a>
</g>
</g>
<!-- Node12&#45;&gt;Node13 -->
<g id="edge13" class="edge">
<title>Node12&#45;&gt;Node13</title>
<path fill="none" stroke="#191970" d="M592.1317,-67.5C600.6054,-67.5 609.2481,-67.5 617.8179,-67.5"/>
<polygon fill="#191970" stroke="#191970" points="617.83,-71.0001 627.8299,-67.5 617.8299,-64.0001 617.83,-71.0001"/>
</g>
<!-- Node14 -->
<g id="node15" class="node">
<title>Node14</title>
<g id="a_node15"><a xlink:href="classLibBBB_1_1AnalogToDigitalController.html#a70fd232420c8ad366bd456e9db580369" target="_top" xlink:title="rawADCValue gets the raw (unscaled) ADC value ">
<polygon fill="#ffffff" stroke="#000000" points="832.846,-51.5 832.846,-83.5 1001.643,-83.5 1001.643,-51.5 832.846,-51.5"/>
<text text-anchor="start" x="840.846" y="-70.5" font-family="Helvetica,sans-Serif" font-size="10.00" fill="#000000">LibBBB::AnalogToDigitalController</text>
<text text-anchor="middle" x="917.2445" y="-58.5" font-family="Helvetica,sans-Serif" font-size="10.00" fill="#000000">::rawADCValue</text>
</a>
</g>
</g>
<!-- Node13&#45;&gt;Node14 -->
<g id="edge14" class="edge">
<title>Node13&#45;&gt;Node14</title>
<path fill="none" stroke="#191970" d="M796.9287,-67.5C805.4024,-67.5 814.0451,-67.5 822.6149,-67.5"/>
<polygon fill="#191970" stroke="#191970" points="822.627,-71.0001 832.6269,-67.5 822.6269,-64.0001 822.627,-71.0001"/>
</g>
</g>
</svg>
