<?xml version="1.0" encoding="UTF-8" standalone="no"?>
<!DOCTYPE svg PUBLIC "-//W3C//DTD SVG 1.1//EN"
 "http://www.w3.org/Graphics/SVG/1.1/DTD/svg11.dtd">
<!-- Generated by graphviz version 2.40.1 (20161225.0304)
 -->
<!-- Title: main.cpp Pages: 1 -->
<svg width="636pt" height="257pt"
 viewBox="0.00 0.00 635.84 257.00" xmlns="http://www.w3.org/2000/svg" xmlns:xlink="http://www.w3.org/1999/xlink">
<g id="graph0" class="graph" transform="scale(1 1) rotate(0) translate(4 253)">
<title>main.cpp</title>
<polygon fill="#ffffff" stroke="transparent" points="-4,4 -4,-253 631.8435,-253 631.8435,4 -4,4"/>
<!-- Node0 -->
<g id="node1" class="node">
<title>Node0</title>
<polygon fill="#bfbfbf" stroke="#000000" points="180.4455,-228.5 180.4455,-248.5 237.0085,-248.5 237.0085,-228.5 180.4455,-228.5"/>
<text text-anchor="middle" x="208.727" y="-235.5" font-family="Helvetica,sans-Serif" font-size="10.00" fill="#000000">main.cpp</text>
</g>
<!-- Node1 -->
<g id="node2" class="node">
<title>Node1</title>
<polygon fill="#ffffff" stroke="#bfbfbf" points="0,-171.5 0,-191.5 45.454,-191.5 45.454,-171.5 0,-171.5"/>
<text text-anchor="middle" x="22.727" y="-178.5" font-family="Helvetica,sans-Serif" font-size="10.00" fill="#000000">stdio.h</text>
</g>
<!-- Node0&#45;&gt;Node1 -->
<g id="edge1" class="edge">
<title>Node0&#45;&gt;Node1</title>
<path fill="none" stroke="#191970" d="M180.2812,-230.1316C151.2629,-221.5465 104.6999,-207.6387 55.6225,-192.2356"/>
<polygon fill="#191970" stroke="#191970" points="56.3674,-188.8008 45.7779,-189.1362 54.2653,-195.4777 56.3674,-188.8008"/>
</g>
<!-- Node2 -->
<g id="node3" class="node">
<title>Node2</title>
<polygon fill="#ffffff" stroke="#bfbfbf" points="63.8905,-171.5 63.8905,-191.5 111.5635,-191.5 111.5635,-171.5 63.8905,-171.5"/>
<text text-anchor="middle" x="87.727" y="-178.5" font-family="Helvetica,sans-Serif" font-size="10.00" fill="#000000">stdlib.h</text>
</g>
<!-- Node0&#45;&gt;Node2 -->
<g id="edge2" class="edge">
<title>Node0&#45;&gt;Node2</title>
<path fill="none" stroke="#191970" d="M187.3732,-228.4408C168.2249,-219.4205 139.9083,-206.0813 118.3497,-195.9255"/>
<polygon fill="#191970" stroke="#191970" points="119.8124,-192.7458 109.2744,-191.6504 116.8293,-199.0783 119.8124,-192.7458"/>
</g>
<!-- Node3 -->
<g id="node4" class="node">
<title>Node3</title>
<polygon fill="#ffffff" stroke="#bfbfbf" points="129.2205,-171.5 129.2205,-191.5 180.2335,-191.5 180.2335,-171.5 129.2205,-171.5"/>
<text text-anchor="middle" x="154.727" y="-178.5" font-family="Helvetica,sans-Serif" font-size="10.00" fill="#000000">unistd.h</text>
</g>
<!-- Node0&#45;&gt;Node3 -->
<g id="edge3" class="edge">
<title>Node0&#45;&gt;Node3</title>
<path fill="none" stroke="#191970" d="M199.0729,-228.3095C191.3939,-220.204 180.4688,-208.672 171.3842,-199.0826"/>
<polygon fill="#191970" stroke="#191970" points="173.7159,-196.4547 164.2975,-191.6022 168.6342,-201.2689 173.7159,-196.4547"/>
</g>
<!-- Node4 -->
<g id="node5" class="node">
<title>Node4</title>
<g id="a_node5"><a xlink:href="Input_8h.html" target="_top" xlink:title="Input.h">
<polygon fill="#ffffff" stroke="#000000" points="239.4405,-171.5 239.4405,-191.5 286.0135,-191.5 286.0135,-171.5 239.4405,-171.5"/>
<text text-anchor="middle" x="262.727" y="-178.5" font-family="Helvetica,sans-Serif" font-size="10.00" fill="#000000">Input.h</text>
</a>
</g>
</g>
<!-- Node0&#45;&gt;Node4 -->
<g id="edge4" class="edge">
<title>Node0&#45;&gt;Node4</title>
<path fill="none" stroke="#191970" d="M218.3811,-228.3095C226.0601,-220.204 236.9852,-208.672 246.0698,-199.0826"/>
<polygon fill="#191970" stroke="#191970" points="248.8198,-201.2689 253.1565,-191.6022 243.7381,-196.4547 248.8198,-201.2689"/>
</g>
<!-- Node8 -->
<g id="node9" class="node">
<title>Node8</title>
<g id="a_node9"><a xlink:href="BoeingSurfaceVehicleControl_8h.html" target="_top" xlink:title="BoeingSurfaceVehicleControl.h">
<polygon fill="#ffffff" stroke="#000000" points="322.2655,-171.5 322.2655,-191.5 477.1885,-191.5 477.1885,-171.5 322.2655,-171.5"/>
<text text-anchor="middle" x="399.727" y="-178.5" font-family="Helvetica,sans-Serif" font-size="10.00" fill="#000000">BoeingSurfaceVehicleControl.h</text>
</a>
</g>
</g>
<!-- Node0&#45;&gt;Node8 -->
<g id="edge8" class="edge">
<title>Node0&#45;&gt;Node8</title>
<path fill="none" stroke="#191970" d="M237.3216,-229.9665C268.8078,-220.5701 319.793,-205.3546 356.2374,-194.4786"/>
<polygon fill="#191970" stroke="#191970" points="357.5213,-197.748 366.1028,-191.5345 355.5195,-191.0404 357.5213,-197.748"/>
</g>
<!-- Node14 -->
<g id="node15" class="node">
<title>Node14</title>
<g id="a_node15"><a xlink:href="ManagerPRUs_8h.html" target="_top" xlink:title="ManagerPRUs.h">
<polygon fill="#ffffff" stroke="#000000" points="535.778,-171.5 535.778,-191.5 625.676,-191.5 625.676,-171.5 535.778,-171.5"/>
<text text-anchor="middle" x="580.727" y="-178.5" font-family="Helvetica,sans-Serif" font-size="10.00" fill="#000000">ManagerPRUs.h</text>
</a>
</g>
</g>
<!-- Node0&#45;&gt;Node14 -->
<g id="edge17" class="edge">
<title>Node0&#45;&gt;Node14</title>
<path fill="none" stroke="#191970" d="M237.2995,-234.122C298.9723,-224.6721 445.4643,-202.2257 525.7572,-189.9228"/>
<polygon fill="#191970" stroke="#191970" points="526.3299,-193.376 535.6844,-188.4017 525.2696,-186.4567 526.3299,-193.376"/>
</g>
<!-- Node16 -->
<g id="node17" class="node">
<title>Node16</title>
<g id="a_node17"><a xlink:href="BluetoothDefinitions_8h.html" target="_top" xlink:title="BluetoothDefinitions.h">
<polygon fill="#ffffff" stroke="#000000" points="137.1025,-57.5 137.1025,-77.5 250.3515,-77.5 250.3515,-57.5 137.1025,-57.5"/>
<text text-anchor="middle" x="193.727" y="-64.5" font-family="Helvetica,sans-Serif" font-size="10.00" fill="#000000">BluetoothDefinitions.h</text>
</a>
</g>
</g>
<!-- Node0&#45;&gt;Node16 -->
<g id="edge19" class="edge">
<title>Node0&#45;&gt;Node16</title>
<path fill="none" stroke="#191970" d="M207.8336,-228.3153C205.4215,-200.8178 198.7423,-124.6748 195.5164,-87.8993"/>
<polygon fill="#191970" stroke="#191970" points="198.9952,-87.5034 194.6347,-77.8476 192.022,-88.1152 198.9952,-87.5034"/>
</g>
<!-- Node5 -->
<g id="node6" class="node">
<title>Node5</title>
<g id="a_node6"><a xlink:href="IOBase_8h.html" target="_top" xlink:title="IOBase.h">
<polygon fill="#ffffff" stroke="#000000" points="236.8855,-114.5 236.8855,-134.5 294.5685,-134.5 294.5685,-114.5 236.8855,-114.5"/>
<text text-anchor="middle" x="265.727" y="-121.5" font-family="Helvetica,sans-Serif" font-size="10.00" fill="#000000">IOBase.h</text>
</a>
</g>
</g>
<!-- Node4&#45;&gt;Node5 -->
<g id="edge5" class="edge">
<title>Node4&#45;&gt;Node5</title>
<path fill="none" stroke="#191970" d="M263.2633,-171.3095C263.6516,-163.9335 264.1891,-153.72 264.6631,-144.715"/>
<polygon fill="#191970" stroke="#191970" points="268.1648,-144.7724 265.1953,-134.6022 261.1745,-144.4044 268.1648,-144.7724"/>
</g>
<!-- Node6 -->
<g id="node7" class="node">
<title>Node6</title>
<polygon fill="#ffffff" stroke="#bfbfbf" points="311.5045,-.5 311.5045,-20.5 351.9495,-20.5 351.9495,-.5 311.5045,-.5"/>
<text text-anchor="middle" x="331.727" y="-7.5" font-family="Helvetica,sans-Serif" font-size="10.00" fill="#000000">string</text>
</g>
<!-- Node5&#45;&gt;Node6 -->
<g id="edge6" class="edge">
<title>Node5&#45;&gt;Node6</title>
<path fill="none" stroke="#191970" d="M269.92,-114.1282C275.5483,-100.6047 286.1827,-76.3895 297.727,-57 303.4987,-47.306 310.7861,-37.1258 317.1325,-28.7704"/>
<polygon fill="#191970" stroke="#191970" points="319.9362,-30.8665 323.3025,-20.8207 314.4063,-26.5745 319.9362,-30.8665"/>
</g>
<!-- Node7 -->
<g id="node8" class="node">
<title>Node7</title>
<polygon fill="#ffffff" stroke="#bfbfbf" points="307.06,-57.5 307.06,-77.5 356.394,-77.5 356.394,-57.5 307.06,-57.5"/>
<text text-anchor="middle" x="331.727" y="-64.5" font-family="Helvetica,sans-Serif" font-size="10.00" fill="#000000">fstream</text>
</g>
<!-- Node5&#45;&gt;Node7 -->
<g id="edge7" class="edge">
<title>Node5&#45;&gt;Node7</title>
<path fill="none" stroke="#191970" d="M277.5265,-114.3095C287.1934,-105.9608 301.0695,-93.9769 312.3613,-84.2249"/>
<polygon fill="#191970" stroke="#191970" points="314.7491,-86.7874 320.0297,-77.6022 310.1737,-81.4896 314.7491,-86.7874"/>
</g>
<!-- Node9 -->
<g id="node10" class="node">
<title>Node9</title>
<polygon fill="#ffffff" stroke="#bfbfbf" points="395.114,-114.5 395.114,-134.5 438.34,-134.5 438.34,-114.5 395.114,-114.5"/>
<text text-anchor="middle" x="416.727" y="-121.5" font-family="Helvetica,sans-Serif" font-size="10.00" fill="#000000">vector</text>
</g>
<!-- Node8&#45;&gt;Node9 -->
<g id="edge9" class="edge">
<title>Node8&#45;&gt;Node9</title>
<path fill="none" stroke="#191970" d="M402.7663,-171.3095C404.9903,-163.8524 408.0793,-153.4951 410.7864,-144.4186"/>
<polygon fill="#191970" stroke="#191970" points="414.2099,-145.1855 413.7141,-134.6022 407.5019,-143.1848 414.2099,-145.1855"/>
</g>
<!-- Node10 -->
<g id="node11" class="node">
<title>Node10</title>
<g id="a_node11"><a xlink:href="BluetoothInterface_8h.html" target="_top" xlink:title="BluetoothInterface.h">
<polygon fill="#ffffff" stroke="#000000" points="455.9865,-114.5 455.9865,-134.5 561.4675,-134.5 561.4675,-114.5 455.9865,-114.5"/>
<text text-anchor="middle" x="508.727" y="-121.5" font-family="Helvetica,sans-Serif" font-size="10.00" fill="#000000">BluetoothInterface.h</text>
</a>
</g>
</g>
<!-- Node8&#45;&gt;Node10 -->
<g id="edge10" class="edge">
<title>Node8&#45;&gt;Node10</title>
<path fill="none" stroke="#191970" d="M418.9631,-171.4408C435.9803,-162.5419 461.0359,-149.4394 480.3542,-139.3371"/>
<polygon fill="#191970" stroke="#191970" points="482.077,-142.386 489.3166,-134.6504 478.8331,-136.1829 482.077,-142.386"/>
</g>
<!-- Node13 -->
<g id="node14" class="node">
<title>Node13</title>
<g id="a_node14"><a xlink:href="UserLED_8h.html" target="_top" xlink:title="UserLED.h">
<polygon fill="#ffffff" stroke="#000000" points="312.281,-114.5 312.281,-134.5 377.173,-134.5 377.173,-114.5 312.281,-114.5"/>
<text text-anchor="middle" x="344.727" y="-121.5" font-family="Helvetica,sans-Serif" font-size="10.00" fill="#000000">UserLED.h</text>
</a>
</g>
</g>
<!-- Node8&#45;&gt;Node13 -->
<g id="edge14" class="edge">
<title>Node8&#45;&gt;Node13</title>
<path fill="none" stroke="#191970" d="M389.8941,-171.3095C382.073,-163.204 370.9455,-151.672 361.6926,-142.0826"/>
<polygon fill="#191970" stroke="#191970" points="363.9372,-139.3681 354.4748,-134.6022 358.8998,-144.2288 363.9372,-139.3681"/>
</g>
<!-- Node11 -->
<g id="node12" class="node">
<title>Node11</title>
<g id="a_node12"><a xlink:href="BluetoothManager_8h.html" target="_top" xlink:title="BluetoothManager.h">
<polygon fill="#ffffff" stroke="#000000" points="427.711,-57.5 427.711,-77.5 533.743,-77.5 533.743,-57.5 427.711,-57.5"/>
<text text-anchor="middle" x="480.727" y="-64.5" font-family="Helvetica,sans-Serif" font-size="10.00" fill="#000000">BluetoothManager.h</text>
</a>
</g>
</g>
<!-- Node10&#45;&gt;Node11 -->
<g id="edge11" class="edge">
<title>Node10&#45;&gt;Node11</title>
<path fill="none" stroke="#191970" d="M503.7212,-114.3095C499.9784,-106.6903 494.7483,-96.0435 490.2217,-86.8285"/>
<polygon fill="#191970" stroke="#191970" points="493.24,-85.0346 485.6895,-77.6022 486.9572,-88.121 493.24,-85.0346"/>
</g>
<!-- Node11&#45;&gt;Node6 -->
<g id="edge12" class="edge">
<title>Node11&#45;&gt;Node6</title>
<path fill="none" stroke="#191970" d="M454.4318,-57.4408C428.3893,-47.4782 388.5747,-32.2471 361.4107,-21.8555"/>
<polygon fill="#191970" stroke="#191970" points="362.6147,-18.5688 352.0242,-18.2647 360.1136,-25.1067 362.6147,-18.5688"/>
</g>
<!-- Node12 -->
<g id="node13" class="node">
<title>Node12</title>
<polygon fill="#ffffff" stroke="#bfbfbf" points="459.115,-.5 459.115,-20.5 502.339,-20.5 502.339,-.5 459.115,-.5"/>
<text text-anchor="middle" x="480.727" y="-7.5" font-family="Helvetica,sans-Serif" font-size="10.00" fill="#000000">time.h</text>
</g>
<!-- Node11&#45;&gt;Node12 -->
<g id="edge13" class="edge">
<title>Node11&#45;&gt;Node12</title>
<path fill="none" stroke="#191970" d="M480.727,-57.3095C480.727,-49.9335 480.727,-39.72 480.727,-30.715"/>
<polygon fill="#191970" stroke="#191970" points="484.2271,-30.6022 480.727,-20.6022 477.2271,-30.6023 484.2271,-30.6022"/>
</g>
<!-- Node13&#45;&gt;Node6 -->
<g id="edge15" class="edge">
<title>Node13&#45;&gt;Node6</title>
<path fill="none" stroke="#191970" d="M351.8511,-114.4083C360.2727,-101.1877 372.3567,-77.2994 365.727,-57 362.3166,-46.5576 355.5732,-36.5154 348.9849,-28.4525"/>
<polygon fill="#191970" stroke="#191970" points="351.5391,-26.0565 342.3216,-20.8328 346.2697,-30.6645 351.5391,-26.0565"/>
</g>
<!-- Node13&#45;&gt;Node7 -->
<g id="edge16" class="edge">
<title>Node13&#45;&gt;Node7</title>
<path fill="none" stroke="#191970" d="M342.4029,-114.3095C340.7021,-106.8524 338.3399,-96.4951 336.2698,-87.4186"/>
<polygon fill="#191970" stroke="#191970" points="339.6671,-86.5736 334.031,-77.6022 332.8423,-88.1302 339.6671,-86.5736"/>
</g>
<!-- Node15 -->
<g id="node16" class="node">
<title>Node15</title>
<polygon fill="#ffffff" stroke="#bfbfbf" points="579.6105,-114.5 579.6105,-134.5 627.8435,-134.5 627.8435,-114.5 579.6105,-114.5"/>
<text text-anchor="middle" x="603.727" y="-121.5" font-family="Helvetica,sans-Serif" font-size="10.00" fill="#000000">stdint.h</text>
</g>
<!-- Node14&#45;&gt;Node15 -->
<g id="edge18" class="edge">
<title>Node14&#45;&gt;Node15</title>
<path fill="none" stroke="#191970" d="M584.8389,-171.3095C587.8807,-163.7714 592.1182,-153.2696 595.8089,-144.123"/>
<polygon fill="#191970" stroke="#191970" points="599.1544,-145.1854 599.6507,-134.6022 592.6629,-142.566 599.1544,-145.1854"/>
</g>
<!-- Node16&#45;&gt;Node6 -->
<g id="edge20" class="edge">
<title>Node16&#45;&gt;Node6</title>
<path fill="none" stroke="#191970" d="M218.081,-57.4408C241.4428,-47.7913 276.7709,-33.1993 301.8287,-22.8493"/>
<polygon fill="#191970" stroke="#191970" points="303.3061,-26.0259 311.2125,-18.9734 300.6337,-19.5561 303.3061,-26.0259"/>
</g>
</g>
</svg>
