<?xml version="1.0" encoding="UTF-8" standalone="no"?>
<!DOCTYPE svg PUBLIC "-//W3C//DTD SVG 1.1//EN"
 "http://www.w3.org/Graphics/SVG/1.1/DTD/svg11.dtd">
<!-- Generated by graphviz version 2.40.1 (20161225.0304)
 -->
<!-- Title: main.cpp Pages: 1 -->
<svg width="595pt" height="257pt"
 viewBox="0.00 0.00 594.68 257.00" xmlns="http://www.w3.org/2000/svg" xmlns:xlink="http://www.w3.org/1999/xlink">
<g id="graph0" class="graph" transform="scale(1 1) rotate(0) translate(4 253)">
<title>main.cpp</title>
<polygon fill="#ffffff" stroke="transparent" points="-4,4 -4,-253 590.676,-253 590.676,4 -4,4"/>
<!-- Node0 -->
<g id="node1" class="node">
<title>Node0</title>
<polygon fill="#bfbfbf" stroke="#000000" points="159.4455,-228.5 159.4455,-248.5 216.0085,-248.5 216.0085,-228.5 159.4455,-228.5"/>
<text text-anchor="middle" x="187.727" y="-235.5" font-family="Helvetica,sans-Serif" font-size="10.00" fill="#000000">main.cpp</text>
</g>
<!-- Node1 -->
<g id="node2" class="node">
<title>Node1</title>
<polygon fill="#ffffff" stroke="#bfbfbf" points="0,-171.5 0,-191.5 45.454,-191.5 45.454,-171.5 0,-171.5"/>
<text text-anchor="middle" x="22.727" y="-178.5" font-family="Helvetica,sans-Serif" font-size="10.00" fill="#000000">stdio.h</text>
</g>
<!-- Node0&#45;&gt;Node1 -->
<g id="edge1" class="edge">
<title>Node0&#45;&gt;Node1</title>
<path fill="none" stroke="#191970" d="M159.3625,-228.7014C130.4714,-218.7208 85.7219,-203.2619 55.3733,-192.7778"/>
<polygon fill="#191970" stroke="#191970" points="56.2717,-189.3853 45.677,-189.4282 53.9861,-196.0016 56.2717,-189.3853"/>
</g>
<!-- Node2 -->
<g id="node3" class="node">
<title>Node2</title>
<polygon fill="#ffffff" stroke="#bfbfbf" points="63.8905,-171.5 63.8905,-191.5 111.5635,-191.5 111.5635,-171.5 63.8905,-171.5"/>
<text text-anchor="middle" x="87.727" y="-178.5" font-family="Helvetica,sans-Serif" font-size="10.00" fill="#000000">stdlib.h</text>
</g>
<!-- Node0&#45;&gt;Node2 -->
<g id="edge2" class="edge">
<title>Node0&#45;&gt;Node2</title>
<path fill="none" stroke="#191970" d="M169.849,-228.3095C154.4911,-219.5556 132.1216,-206.8049 114.6062,-196.8211"/>
<polygon fill="#191970" stroke="#191970" points="115.8712,-193.5136 105.4502,-191.6022 112.4048,-199.595 115.8712,-193.5136"/>
</g>
<!-- Node3 -->
<g id="node4" class="node">
<title>Node3</title>
<polygon fill="#ffffff" stroke="#bfbfbf" points="129.2205,-171.5 129.2205,-191.5 180.2335,-191.5 180.2335,-171.5 129.2205,-171.5"/>
<text text-anchor="middle" x="154.727" y="-178.5" font-family="Helvetica,sans-Serif" font-size="10.00" fill="#000000">unistd.h</text>
</g>
<!-- Node0&#45;&gt;Node3 -->
<g id="edge3" class="edge">
<title>Node0&#45;&gt;Node3</title>
<path fill="none" stroke="#191970" d="M181.8273,-228.3095C177.3692,-220.6093 171.1208,-209.8166 165.7472,-200.5349"/>
<polygon fill="#191970" stroke="#191970" points="168.6151,-198.5029 160.5757,-191.6022 162.5571,-202.0102 168.6151,-198.5029"/>
</g>
<!-- Node4 -->
<g id="node5" class="node">
<title>Node4</title>
<g id="a_node5"><a xlink:href="Input_8h.html" target="_top" xlink:title="Input.h">
<polygon fill="#ffffff" stroke="#000000" points="198.4405,-171.5 198.4405,-191.5 245.0135,-191.5 245.0135,-171.5 198.4405,-171.5"/>
<text text-anchor="middle" x="221.727" y="-178.5" font-family="Helvetica,sans-Serif" font-size="10.00" fill="#000000">Input.h</text>
</a>
</g>
</g>
<!-- Node0&#45;&gt;Node4 -->
<g id="edge4" class="edge">
<title>Node0&#45;&gt;Node4</title>
<path fill="none" stroke="#191970" d="M193.8055,-228.3095C198.447,-220.5282 204.9721,-209.589 210.5474,-200.2423"/>
<polygon fill="#191970" stroke="#191970" points="213.5841,-201.9834 215.7011,-191.6022 207.5724,-198.3975 213.5841,-201.9834"/>
</g>
<!-- Node8 -->
<g id="node9" class="node">
<title>Node8</title>
<g id="a_node9"><a xlink:href="BoeingSurfaceVehicleControl_8h.html" target="_top" xlink:title="BoeingSurfaceVehicleControl.h">
<polygon fill="#ffffff" stroke="#000000" points="263.2655,-171.5 263.2655,-191.5 418.1885,-191.5 418.1885,-171.5 263.2655,-171.5"/>
<text text-anchor="middle" x="340.727" y="-178.5" font-family="Helvetica,sans-Serif" font-size="10.00" fill="#000000">BoeingSurfaceVehicleControl.h</text>
</a>
</g>
</g>
<!-- Node0&#45;&gt;Node8 -->
<g id="edge8" class="edge">
<title>Node0&#45;&gt;Node8</title>
<path fill="none" stroke="#191970" d="M214.7281,-228.4408C239.5596,-219.1898 276.5849,-205.3961 304.0804,-195.1527"/>
<polygon fill="#191970" stroke="#191970" points="305.59,-198.3253 313.7389,-191.5544 303.1462,-191.7658 305.59,-198.3253"/>
</g>
<!-- Node14 -->
<g id="node15" class="node">
<title>Node14</title>
<g id="a_node15"><a xlink:href="ManagerPRUs_8h.html" target="_top" xlink:title="ManagerPRUs.h">
<polygon fill="#ffffff" stroke="#000000" points="496.778,-171.5 496.778,-191.5 586.676,-191.5 586.676,-171.5 496.778,-171.5"/>
<text text-anchor="middle" x="541.727" y="-178.5" font-family="Helvetica,sans-Serif" font-size="10.00" fill="#000000">ManagerPRUs.h</text>
</a>
</g>
</g>
<!-- Node0&#45;&gt;Node14 -->
<g id="edge18" class="edge">
<title>Node0&#45;&gt;Node14</title>
<path fill="none" stroke="#191970" d="M216.0979,-233.9318C274.7442,-224.4887 410.2176,-202.6752 486.6602,-190.3667"/>
<polygon fill="#191970" stroke="#191970" points="487.2708,-193.8135 496.5872,-188.7683 486.158,-186.9026 487.2708,-193.8135"/>
</g>
<!-- Node5 -->
<g id="node6" class="node">
<title>Node5</title>
<g id="a_node6"><a xlink:href="IOBase_8h.html" target="_top" xlink:title="IOBase.h">
<polygon fill="#ffffff" stroke="#000000" points="90.8855,-114.5 90.8855,-134.5 148.5685,-134.5 148.5685,-114.5 90.8855,-114.5"/>
<text text-anchor="middle" x="119.727" y="-121.5" font-family="Helvetica,sans-Serif" font-size="10.00" fill="#000000">IOBase.h</text>
</a>
</g>
</g>
<!-- Node4&#45;&gt;Node5 -->
<g id="edge5" class="edge">
<title>Node4&#45;&gt;Node5</title>
<path fill="none" stroke="#191970" d="M203.4914,-171.3095C187.6814,-162.4745 164.5863,-149.5684 146.6488,-139.5445"/>
<polygon fill="#191970" stroke="#191970" points="148.2415,-136.4252 137.8047,-134.6022 144.8267,-142.5358 148.2415,-136.4252"/>
</g>
<!-- Node6 -->
<g id="node7" class="node">
<title>Node6</title>
<polygon fill="#ffffff" stroke="#bfbfbf" points="204.5045,-.5 204.5045,-20.5 244.9495,-20.5 244.9495,-.5 204.5045,-.5"/>
<text text-anchor="middle" x="224.727" y="-7.5" font-family="Helvetica,sans-Serif" font-size="10.00" fill="#000000">string</text>
</g>
<!-- Node5&#45;&gt;Node6 -->
<g id="edge6" class="edge">
<title>Node5&#45;&gt;Node6</title>
<path fill="none" stroke="#191970" d="M119.9869,-114.2312C120.8526,-99.9427 124.3163,-73.9177 137.727,-57 152.2224,-38.7139 175.9322,-26.7207 194.942,-19.5016"/>
<polygon fill="#191970" stroke="#191970" points="196.1262,-22.7953 204.3809,-16.1537 193.7861,-16.1981 196.1262,-22.7953"/>
</g>
<!-- Node7 -->
<g id="node8" class="node">
<title>Node7</title>
<polygon fill="#ffffff" stroke="#bfbfbf" points="147.06,-57.5 147.06,-77.5 196.394,-77.5 196.394,-57.5 147.06,-57.5"/>
<text text-anchor="middle" x="171.727" y="-64.5" font-family="Helvetica,sans-Serif" font-size="10.00" fill="#000000">fstream</text>
</g>
<!-- Node5&#45;&gt;Node7 -->
<g id="edge7" class="edge">
<title>Node5&#45;&gt;Node7</title>
<path fill="none" stroke="#191970" d="M129.0236,-114.3095C136.4181,-106.204 146.9386,-94.672 155.6868,-85.0826"/>
<polygon fill="#191970" stroke="#191970" points="158.357,-87.3488 162.5109,-77.6022 153.1856,-82.631 158.357,-87.3488"/>
</g>
<!-- Node9 -->
<g id="node10" class="node">
<title>Node9</title>
<polygon fill="#ffffff" stroke="#bfbfbf" points="363.114,-114.5 363.114,-134.5 406.34,-134.5 406.34,-114.5 363.114,-114.5"/>
<text text-anchor="middle" x="384.727" y="-121.5" font-family="Helvetica,sans-Serif" font-size="10.00" fill="#000000">vector</text>
</g>
<!-- Node8&#45;&gt;Node9 -->
<g id="edge9" class="edge">
<title>Node8&#45;&gt;Node9</title>
<path fill="none" stroke="#191970" d="M348.5933,-171.3095C354.7251,-163.3661 363.3971,-152.1319 370.7086,-142.6602"/>
<polygon fill="#191970" stroke="#191970" points="373.5888,-144.6569 376.9288,-134.6022 368.0477,-140.3795 373.5888,-144.6569"/>
</g>
<!-- Node10 -->
<g id="node11" class="node">
<title>Node10</title>
<g id="a_node11"><a xlink:href="BluetoothClient_8h.html" target="_top" xlink:title="BluetoothClient.h">
<polygon fill="#ffffff" stroke="#000000" points="424.6605,-114.5 424.6605,-134.5 516.7935,-134.5 516.7935,-114.5 424.6605,-114.5"/>
<text text-anchor="middle" x="470.727" y="-121.5" font-family="Helvetica,sans-Serif" font-size="10.00" fill="#000000">BluetoothClient.h</text>
</a>
</g>
</g>
<!-- Node8&#45;&gt;Node10 -->
<g id="edge10" class="edge">
<title>Node8&#45;&gt;Node10</title>
<path fill="none" stroke="#191970" d="M363.6691,-171.4408C384.3339,-162.3801 414.9375,-148.9615 438.1378,-138.7891"/>
<polygon fill="#191970" stroke="#191970" points="439.8241,-141.8715 447.5769,-134.6504 437.0131,-135.4606 439.8241,-141.8715"/>
</g>
<!-- Node12 -->
<g id="node13" class="node">
<title>Node12</title>
<g id="a_node13"><a xlink:href="BluetoothServer_8h.html" target="_top" xlink:title="BluetoothServer.h">
<polygon fill="#ffffff" stroke="#000000" points="248.715,-114.5 248.715,-134.5 344.739,-134.5 344.739,-114.5 248.715,-114.5"/>
<text text-anchor="middle" x="296.727" y="-121.5" font-family="Helvetica,sans-Serif" font-size="10.00" fill="#000000">BluetoothServer.h</text>
</a>
</g>
</g>
<!-- Node8&#45;&gt;Node12 -->
<g id="edge13" class="edge">
<title>Node8&#45;&gt;Node12</title>
<path fill="none" stroke="#191970" d="M332.8607,-171.3095C326.7289,-163.3661 318.0569,-152.1319 310.7454,-142.6602"/>
<polygon fill="#191970" stroke="#191970" points="313.4063,-140.3795 304.5252,-134.6022 307.8652,-144.6569 313.4063,-140.3795"/>
</g>
<!-- Node13 -->
<g id="node14" class="node">
<title>Node13</title>
<g id="a_node14"><a xlink:href="UserLED_8h.html" target="_top" xlink:title="UserLED.h">
<polygon fill="#ffffff" stroke="#000000" points="166.281,-114.5 166.281,-134.5 231.173,-134.5 231.173,-114.5 166.281,-114.5"/>
<text text-anchor="middle" x="198.727" y="-121.5" font-family="Helvetica,sans-Serif" font-size="10.00" fill="#000000">UserLED.h</text>
</a>
</g>
</g>
<!-- Node8&#45;&gt;Node13 -->
<g id="edge15" class="edge">
<title>Node8&#45;&gt;Node13</title>
<path fill="none" stroke="#191970" d="M315.6671,-171.4408C292.7926,-162.2587 258.7689,-148.6013 233.3106,-138.3822"/>
<polygon fill="#191970" stroke="#191970" points="234.5981,-135.1276 224.014,-134.6504 231.9904,-141.6237 234.5981,-135.1276"/>
</g>
<!-- Node11 -->
<g id="node12" class="node">
<title>Node11</title>
<g id="a_node12"><a xlink:href="BluetoothBase_8h.html" target="_top" xlink:title="BluetoothBase.h">
<polygon fill="#ffffff" stroke="#000000" points="253.044,-57.5 253.044,-77.5 342.41,-77.5 342.41,-57.5 253.044,-57.5"/>
<text text-anchor="middle" x="297.727" y="-64.5" font-family="Helvetica,sans-Serif" font-size="10.00" fill="#000000">BluetoothBase.h</text>
</a>
</g>
</g>
<!-- Node10&#45;&gt;Node11 -->
<g id="edge11" class="edge">
<title>Node10&#45;&gt;Node11</title>
<path fill="none" stroke="#191970" d="M440.1963,-114.4408C411.7494,-105.0681 369.1496,-91.0323 337.9424,-80.7502"/>
<polygon fill="#191970" stroke="#191970" points="338.836,-77.3596 328.243,-77.5544 336.6454,-84.008 338.836,-77.3596"/>
</g>
<!-- Node11&#45;&gt;Node6 -->
<g id="edge12" class="edge">
<title>Node11&#45;&gt;Node6</title>
<path fill="none" stroke="#191970" d="M284.6761,-57.3095C273.88,-48.8798 258.3376,-36.7439 245.7837,-26.9415"/>
<polygon fill="#191970" stroke="#191970" points="247.7009,-23.998 237.6649,-20.6022 243.3928,-29.5153 247.7009,-23.998"/>
</g>
<!-- Node12&#45;&gt;Node11 -->
<g id="edge14" class="edge">
<title>Node12&#45;&gt;Node11</title>
<path fill="none" stroke="#191970" d="M296.9058,-114.3095C297.0352,-106.9335 297.2144,-96.72 297.3724,-87.715"/>
<polygon fill="#191970" stroke="#191970" points="300.8737,-87.6621 297.5498,-77.6022 293.8748,-87.5393 300.8737,-87.6621"/>
</g>
<!-- Node13&#45;&gt;Node6 -->
<g id="edge16" class="edge">
<title>Node13&#45;&gt;Node6</title>
<path fill="none" stroke="#191970" d="M201.0343,-114.3833C205.3022,-95.6703 214.5034,-55.3266 220.1002,-30.7866"/>
<polygon fill="#191970" stroke="#191970" points="223.5762,-31.2859 222.3875,-20.7579 216.7514,-29.7293 223.5762,-31.2859"/>
</g>
<!-- Node13&#45;&gt;Node7 -->
<g id="edge17" class="edge">
<title>Node13&#45;&gt;Node7</title>
<path fill="none" stroke="#191970" d="M193.8999,-114.3095C190.2908,-106.6903 185.2476,-96.0435 180.8826,-86.8285"/>
<polygon fill="#191970" stroke="#191970" points="183.9563,-85.1413 176.5123,-77.6022 177.6301,-88.1379 183.9563,-85.1413"/>
</g>
<!-- Node15 -->
<g id="node16" class="node">
<title>Node15</title>
<polygon fill="#ffffff" stroke="#bfbfbf" points="534.6105,-114.5 534.6105,-134.5 582.8435,-134.5 582.8435,-114.5 534.6105,-114.5"/>
<text text-anchor="middle" x="558.727" y="-121.5" font-family="Helvetica,sans-Serif" font-size="10.00" fill="#000000">stdint.h</text>
</g>
<!-- Node14&#45;&gt;Node15 -->
<g id="edge19" class="edge">
<title>Node14&#45;&gt;Node15</title>
<path fill="none" stroke="#191970" d="M544.7663,-171.3095C546.9903,-163.8524 550.0793,-153.4951 552.7864,-144.4186"/>
<polygon fill="#191970" stroke="#191970" points="556.2099,-145.1855 555.7141,-134.6022 549.5019,-143.1848 556.2099,-145.1855"/>
</g>
</g>
</svg>
