<?xml version="1.0" encoding="UTF-8" standalone="no"?>
<!DOCTYPE svg PUBLIC "-//W3C//DTD SVG 1.1//EN"
 "http://www.w3.org/Graphics/SVG/1.1/DTD/svg11.dtd">
<!-- Generated by graphviz version 2.40.1 (20161225.0304)
 -->
<!-- Title: main Pages: 1 -->
<svg width="507pt" height="219pt"
 viewBox="0.00 0.00 506.73 219.00" xmlns="http://www.w3.org/2000/svg" xmlns:xlink="http://www.w3.org/1999/xlink">
<g id="graph0" class="graph" transform="scale(1 1) rotate(0) translate(4 215)">
<title>main</title>
<polygon fill="#ffffff" stroke="transparent" points="-4,4 -4,-215 502.73,-215 502.73,4 -4,4"/>
<!-- Node0 -->
<g id="node1" class="node">
<title>Node0</title>
<polygon fill="#bfbfbf" stroke="#000000" points="0,-107.5 0,-127.5 37.666,-127.5 37.666,-107.5 0,-107.5"/>
<text text-anchor="middle" x="18.833" y="-114.5" font-family="Helvetica,sans-Serif" font-size="10.00" fill="#000000">main</text>
</g>
<!-- Node1 -->
<g id="node2" class="node">
<title>Node1</title>
<g id="a_node2"><a xlink:href="classLibBBB_1_1ManagerPRUs.html#a11fbfc8917c5e0bc56112c31a2b736ab" target="_top" xlink:title="instance method is the Singleton method of creating and accessing this class. This ensures there can ...">
<polygon fill="#ffffff" stroke="#000000" points="73.666,-178.5 73.666,-210.5 194.128,-210.5 194.128,-178.5 73.666,-178.5"/>
<text text-anchor="start" x="81.666" y="-197.5" font-family="Helvetica,sans-Serif" font-size="10.00" fill="#000000">LibBBB::ManagerPRUs</text>
<text text-anchor="middle" x="133.897" y="-185.5" font-family="Helvetica,sans-Serif" font-size="10.00" fill="#000000">::instance</text>
</a>
</g>
</g>
<!-- Node0&#45;&gt;Node1 -->
<g id="edge1" class="edge">
<title>Node0&#45;&gt;Node1</title>
<path fill="none" stroke="#191970" d="M27.6277,-127.8626C37.7694,-139.2929 55.4033,-157.6349 73.666,-169.5 75.946,-170.9813 78.3284,-172.4047 80.7737,-173.768"/>
<polygon fill="#191970" stroke="#191970" points="79.3416,-176.9674 89.8339,-178.4378 82.5486,-170.7453 79.3416,-176.9674"/>
</g>
<!-- Node2 -->
<g id="node3" class="node">
<title>Node2</title>
<g id="a_node3"><a xlink:href="classVehicleControl_1_1Control.html#aa050ea7668adf370680b812948b07a9e" target="_top" xlink:title="instance method is the Singleton method of creating and accessing this class. This ensures there can ...">
<polygon fill="#ffffff" stroke="#000000" points="74.503,-127.5 74.503,-159.5 193.291,-159.5 193.291,-127.5 74.503,-127.5"/>
<text text-anchor="start" x="82.503" y="-146.5" font-family="Helvetica,sans-Serif" font-size="10.00" fill="#000000">VehicleControl::Control</text>
<text text-anchor="middle" x="133.897" y="-134.5" font-family="Helvetica,sans-Serif" font-size="10.00" fill="#000000">::instance</text>
</a>
</g>
</g>
<!-- Node0&#45;&gt;Node2 -->
<g id="edge2" class="edge">
<title>Node0&#45;&gt;Node2</title>
<path fill="none" stroke="#191970" d="M37.8335,-121.7934C45.3974,-123.5025 54.6059,-125.5833 64.2926,-127.7721"/>
<polygon fill="#191970" stroke="#191970" points="63.5698,-131.197 74.0954,-129.9871 65.1127,-124.3691 63.5698,-131.197"/>
</g>
<!-- Node3 -->
<g id="node4" class="node">
<title>Node3</title>
<g id="a_node4"><a xlink:href="classVehicleControl_1_1Control.html#a8242c18c2d4eb8cede01197068794ee4" target="_top" xlink:title="isRunning getter ">
<polygon fill="#ffffff" stroke="#000000" points="74.503,-76.5 74.503,-108.5 193.291,-108.5 193.291,-76.5 74.503,-76.5"/>
<text text-anchor="start" x="82.503" y="-95.5" font-family="Helvetica,sans-Serif" font-size="10.00" fill="#000000">VehicleControl::Control</text>
<text text-anchor="middle" x="133.897" y="-83.5" font-family="Helvetica,sans-Serif" font-size="10.00" fill="#000000">::isRunning</text>
</a>
</g>
</g>
<!-- Node0&#45;&gt;Node3 -->
<g id="edge3" class="edge">
<title>Node0&#45;&gt;Node3</title>
<path fill="none" stroke="#191970" d="M37.8335,-113.3718C45.3974,-111.7283 54.6059,-109.7276 64.2926,-107.623"/>
<polygon fill="#191970" stroke="#191970" points="65.0665,-111.0366 74.0954,-105.4931 63.5802,-104.1962 65.0665,-111.0366"/>
</g>
<!-- Node4 -->
<g id="node5" class="node">
<title>Node4</title>
<g id="a_node5"><a xlink:href="classVehicleControl_1_1Control.html#af677fb9565407041290bbf7b681802e5" target="_top" xlink:title="update method that controls the vehicle ">
<polygon fill="#ffffff" stroke="#000000" points="74.503,-25.5 74.503,-57.5 193.291,-57.5 193.291,-25.5 74.503,-25.5"/>
<text text-anchor="start" x="82.503" y="-44.5" font-family="Helvetica,sans-Serif" font-size="10.00" fill="#000000">VehicleControl::Control</text>
<text text-anchor="middle" x="133.897" y="-32.5" font-family="Helvetica,sans-Serif" font-size="10.00" fill="#000000">::update</text>
</a>
</g>
</g>
<!-- Node0&#45;&gt;Node4 -->
<g id="edge4" class="edge">
<title>Node0&#45;&gt;Node4</title>
<path fill="none" stroke="#191970" d="M28.1113,-107.2099C38.4055,-96.2585 55.9171,-78.9623 73.666,-67.5 76.5767,-65.6203 79.6461,-63.8201 82.7956,-62.1072"/>
<polygon fill="#191970" stroke="#191970" points="84.4918,-65.1712 91.8175,-57.5171 81.3176,-58.9323 84.4918,-65.1712"/>
</g>
<!-- Node5 -->
<g id="node6" class="node">
<title>Node5</title>
<g id="a_node6"><a xlink:href="classLibBBB_1_1Bluetooth_1_1Manager.html#aba77bfc05cca940e709d9c0bb1106127" target="_top" xlink:title="LibBBB::Bluetooth::\lManager::isConnected">
<polygon fill="#ffffff" stroke="#000000" points="230.128,-51.5 230.128,-83.5 346.71,-83.5 346.71,-51.5 230.128,-51.5"/>
<text text-anchor="start" x="238.128" y="-70.5" font-family="Helvetica,sans-Serif" font-size="10.00" fill="#000000">LibBBB::Bluetooth::</text>
<text text-anchor="middle" x="288.419" y="-58.5" font-family="Helvetica,sans-Serif" font-size="10.00" fill="#000000">Manager::isConnected</text>
</a>
</g>
</g>
<!-- Node4&#45;&gt;Node5 -->
<g id="edge5" class="edge">
<title>Node4&#45;&gt;Node5</title>
<path fill="none" stroke="#191970" d="M193.6392,-51.5523C202.3396,-53.0162 211.3528,-54.5328 220.2053,-56.0223"/>
<polygon fill="#191970" stroke="#191970" points="219.6645,-59.4804 230.1067,-57.6883 220.8261,-52.5775 219.6645,-59.4804"/>
</g>
<!-- Node7 -->
<g id="node8" class="node">
<title>Node7</title>
<g id="a_node8"><a xlink:href="classLibBBB_1_1Bluetooth_1_1Manager.html#a060493f898621db59bfda9b7077d759c" target="_top" xlink:title="LibBBB::Bluetooth::\lManager::receiveData">
<polygon fill="#ffffff" stroke="#000000" points="231.243,-.5 231.243,-32.5 345.595,-32.5 345.595,-.5 231.243,-.5"/>
<text text-anchor="start" x="239.243" y="-19.5" font-family="Helvetica,sans-Serif" font-size="10.00" fill="#000000">LibBBB::Bluetooth::</text>
<text text-anchor="middle" x="288.419" y="-7.5" font-family="Helvetica,sans-Serif" font-size="10.00" fill="#000000">Manager::receiveData</text>
</a>
</g>
</g>
<!-- Node4&#45;&gt;Node7 -->
<g id="edge7" class="edge">
<title>Node4&#45;&gt;Node7</title>
<path fill="none" stroke="#191970" d="M193.6392,-31.8343C202.5864,-30.3868 211.8644,-28.8857 220.9584,-27.4144"/>
<polygon fill="#191970" stroke="#191970" points="221.8074,-30.8226 231.12,-25.7704 220.6894,-23.9125 221.8074,-30.8226"/>
</g>
<!-- Node6 -->
<g id="node7" class="node">
<title>Node6</title>
<g id="a_node7"><a xlink:href="classLibBBB_1_1ThreadHelper.html#a6999e18135496ef252b1c43c374c20f9" target="_top" xlink:title="startDetachedThread ">
<polygon fill="#ffffff" stroke="#000000" points="382.71,-51.5 382.71,-83.5 498.73,-83.5 498.73,-51.5 382.71,-51.5"/>
<text text-anchor="start" x="390.71" y="-70.5" font-family="Helvetica,sans-Serif" font-size="10.00" fill="#000000">LibBBB::ThreadHelper</text>
<text text-anchor="middle" x="440.72" y="-58.5" font-family="Helvetica,sans-Serif" font-size="10.00" fill="#000000">::startDetachedThread</text>
</a>
</g>
</g>
<!-- Node5&#45;&gt;Node6 -->
<g id="edge6" class="edge">
<title>Node5&#45;&gt;Node6</title>
<path fill="none" stroke="#191970" d="M346.867,-67.5C355.308,-67.5 364.0563,-67.5 372.6649,-67.5"/>
<polygon fill="#191970" stroke="#191970" points="372.6799,-71.0001 382.6799,-67.5 372.6798,-64.0001 372.6799,-71.0001"/>
</g>
</g>
</svg>
