<?xml version="1.0" encoding="UTF-8" standalone="no"?>
<!DOCTYPE svg PUBLIC "-//W3C//DTD SVG 1.1//EN"
 "http://www.w3.org/Graphics/SVG/1.1/DTD/svg11.dtd">
<!-- Generated by graphviz version 2.40.1 (20161225.0304)
 -->
<!-- Title: main Pages: 1 -->
<svg width="547pt" height="228pt"
 viewBox="0.00 0.00 547.27 228.00" xmlns="http://www.w3.org/2000/svg" xmlns:xlink="http://www.w3.org/1999/xlink">
<g id="graph0" class="graph" transform="scale(1 1) rotate(0) translate(4 224)">
<title>main</title>
<polygon fill="#ffffff" stroke="transparent" points="-4,4 -4,-224 543.272,-224 543.272,4 -4,4"/>
<!-- Node0 -->
<g id="node1" class="node">
<title>Node0</title>
<polygon fill="#bfbfbf" stroke="#000000" points="0,-116.5 0,-136.5 37.666,-136.5 37.666,-116.5 0,-116.5"/>
<text text-anchor="middle" x="18.833" y="-123.5" font-family="Helvetica,sans-Serif" font-size="10.00" fill="#000000">main</text>
</g>
<!-- Node1 -->
<g id="node2" class="node">
<title>Node1</title>
<g id="a_node2"><a xlink:href="classLibBBB_1_1ManagerPRUs.html#a11fbfc8917c5e0bc56112c31a2b736ab" target="_top" xlink:title="instance method is the Singleton method of creating and accessing this class. This ensures there can ...">
<polygon fill="#ffffff" stroke="#000000" points="73.666,-187.5 73.666,-219.5 194.128,-219.5 194.128,-187.5 73.666,-187.5"/>
<text text-anchor="start" x="81.666" y="-206.5" font-family="Helvetica,sans-Serif" font-size="10.00" fill="#000000">LibBBB::ManagerPRUs</text>
<text text-anchor="middle" x="133.897" y="-194.5" font-family="Helvetica,sans-Serif" font-size="10.00" fill="#000000">::instance</text>
</a>
</g>
</g>
<!-- Node0&#45;&gt;Node1 -->
<g id="edge1" class="edge">
<title>Node0&#45;&gt;Node1</title>
<path fill="none" stroke="#191970" d="M27.6277,-136.8626C37.7694,-148.2929 55.4033,-166.6349 73.666,-178.5 75.946,-179.9813 78.3284,-181.4047 80.7737,-182.768"/>
<polygon fill="#191970" stroke="#191970" points="79.3416,-185.9674 89.8339,-187.4378 82.5486,-179.7453 79.3416,-185.9674"/>
</g>
<!-- Node2 -->
<g id="node3" class="node">
<title>Node2</title>
<g id="a_node3"><a xlink:href="classVehicleControl_1_1Control.html#aa050ea7668adf370680b812948b07a9e" target="_top" xlink:title="instance method is the Singleton method of creating and accessing this class. This ensures there can ...">
<polygon fill="#ffffff" stroke="#000000" points="74.503,-136.5 74.503,-168.5 193.291,-168.5 193.291,-136.5 74.503,-136.5"/>
<text text-anchor="start" x="82.503" y="-155.5" font-family="Helvetica,sans-Serif" font-size="10.00" fill="#000000">VehicleControl::Control</text>
<text text-anchor="middle" x="133.897" y="-143.5" font-family="Helvetica,sans-Serif" font-size="10.00" fill="#000000">::instance</text>
</a>
</g>
</g>
<!-- Node0&#45;&gt;Node2 -->
<g id="edge2" class="edge">
<title>Node0&#45;&gt;Node2</title>
<path fill="none" stroke="#191970" d="M37.8335,-130.7934C45.3974,-132.5025 54.6059,-134.5833 64.2926,-136.7721"/>
<polygon fill="#191970" stroke="#191970" points="63.5698,-140.197 74.0954,-138.9871 65.1127,-133.3691 63.5698,-140.197"/>
</g>
<!-- Node3 -->
<g id="node4" class="node">
<title>Node3</title>
<g id="a_node4"><a xlink:href="classVehicleControl_1_1Control.html#a8242c18c2d4eb8cede01197068794ee4" target="_top" xlink:title="isRunning getter ">
<polygon fill="#ffffff" stroke="#000000" points="74.503,-85.5 74.503,-117.5 193.291,-117.5 193.291,-85.5 74.503,-85.5"/>
<text text-anchor="start" x="82.503" y="-104.5" font-family="Helvetica,sans-Serif" font-size="10.00" fill="#000000">VehicleControl::Control</text>
<text text-anchor="middle" x="133.897" y="-92.5" font-family="Helvetica,sans-Serif" font-size="10.00" fill="#000000">::isRunning</text>
</a>
</g>
</g>
<!-- Node0&#45;&gt;Node3 -->
<g id="edge3" class="edge">
<title>Node0&#45;&gt;Node3</title>
<path fill="none" stroke="#191970" d="M37.8335,-122.3718C45.3974,-120.7283 54.6059,-118.7276 64.2926,-116.623"/>
<polygon fill="#191970" stroke="#191970" points="65.0665,-120.0366 74.0954,-114.4931 63.5802,-113.1962 65.0665,-120.0366"/>
</g>
<!-- Node4 -->
<g id="node5" class="node">
<title>Node4</title>
<g id="a_node5"><a xlink:href="classVehicleControl_1_1Control.html#af677fb9565407041290bbf7b681802e5" target="_top" xlink:title="update method that controls the vehicle ">
<polygon fill="#ffffff" stroke="#000000" points="74.503,-34.5 74.503,-66.5 193.291,-66.5 193.291,-34.5 74.503,-34.5"/>
<text text-anchor="start" x="82.503" y="-53.5" font-family="Helvetica,sans-Serif" font-size="10.00" fill="#000000">VehicleControl::Control</text>
<text text-anchor="middle" x="133.897" y="-41.5" font-family="Helvetica,sans-Serif" font-size="10.00" fill="#000000">::update</text>
</a>
</g>
</g>
<!-- Node0&#45;&gt;Node4 -->
<g id="edge4" class="edge">
<title>Node0&#45;&gt;Node4</title>
<path fill="none" stroke="#191970" d="M28.1113,-116.2099C38.4055,-105.2585 55.9171,-87.9623 73.666,-76.5 76.5767,-74.6203 79.6461,-72.8201 82.7956,-71.1072"/>
<polygon fill="#191970" stroke="#191970" points="84.4918,-74.1712 91.8175,-66.5171 81.3176,-67.9323 84.4918,-74.1712"/>
</g>
<!-- Node5 -->
<g id="node6" class="node">
<title>Node5</title>
<g id="a_node6"><a xlink:href="classLibBBB_1_1Bluetooth_1_1Manager.html#aba77bfc05cca940e709d9c0bb1106127" target="_top" xlink:title="isConnected getter ">
<polygon fill="#ffffff" stroke="#000000" points="250.399,-63.5 250.399,-95.5 366.981,-95.5 366.981,-63.5 250.399,-63.5"/>
<text text-anchor="start" x="258.399" y="-82.5" font-family="Helvetica,sans-Serif" font-size="10.00" fill="#000000">LibBBB::Bluetooth::</text>
<text text-anchor="middle" x="308.69" y="-70.5" font-family="Helvetica,sans-Serif" font-size="10.00" fill="#000000">Manager::isConnected</text>
</a>
</g>
</g>
<!-- Node4&#45;&gt;Node5 -->
<g id="edge5" class="edge">
<title>Node4&#45;&gt;Node5</title>
<path fill="none" stroke="#191970" d="M193.562,-60.399C208.5706,-62.8891 224.7966,-65.5812 240.1996,-68.1367"/>
<polygon fill="#191970" stroke="#191970" points="239.7437,-71.6088 250.1817,-69.7929 240.8894,-64.7032 239.7437,-71.6088"/>
</g>
<!-- Node7 -->
<g id="node8" class="node">
<title>Node7</title>
<g id="a_node8"><a xlink:href="classVehicleControl_1_1Control_1_1CommunicationProtocolParser.html#a518b7eda37805934071cbc4c3dbc4328" target="_top" xlink:title="parseIncomingPackets method gets and parses the incoming Bluetooth packets. This method calls the Blu...">
<polygon fill="#ffffff" stroke="#000000" points="230.128,-.5 230.128,-44.5 387.252,-44.5 387.252,-.5 230.128,-.5"/>
<text text-anchor="start" x="238.128" y="-31.5" font-family="Helvetica,sans-Serif" font-size="10.00" fill="#000000">VehicleControl::Control</text>
<text text-anchor="start" x="238.128" y="-19.5" font-family="Helvetica,sans-Serif" font-size="10.00" fill="#000000">::CommunicationProtocolParser</text>
<text text-anchor="middle" x="308.69" y="-7.5" font-family="Helvetica,sans-Serif" font-size="10.00" fill="#000000">::parseIncomingPackets</text>
</a>
</g>
</g>
<!-- Node4&#45;&gt;Node7 -->
<g id="edge7" class="edge">
<title>Node4&#45;&gt;Node7</title>
<path fill="none" stroke="#191970" d="M193.562,-40.9423C202.041,-39.5841 210.9085,-38.1636 219.7967,-36.7398"/>
<polygon fill="#191970" stroke="#191970" points="220.5004,-40.1718 229.8209,-35.134 219.3932,-33.2599 220.5004,-40.1718"/>
</g>
<!-- Node6 -->
<g id="node7" class="node">
<title>Node6</title>
<g id="a_node7"><a xlink:href="classLibBBB_1_1ThreadHelper.html#a6999e18135496ef252b1c43c374c20f9" target="_top" xlink:title="startDetachedThread ">
<polygon fill="#ffffff" stroke="#000000" points="423.252,-63.5 423.252,-95.5 539.272,-95.5 539.272,-63.5 423.252,-63.5"/>
<text text-anchor="start" x="431.252" y="-82.5" font-family="Helvetica,sans-Serif" font-size="10.00" fill="#000000">LibBBB::ThreadHelper</text>
<text text-anchor="middle" x="481.262" y="-70.5" font-family="Helvetica,sans-Serif" font-size="10.00" fill="#000000">::startDetachedThread</text>
</a>
</g>
</g>
<!-- Node5&#45;&gt;Node6 -->
<g id="edge6" class="edge">
<title>Node5&#45;&gt;Node6</title>
<path fill="none" stroke="#191970" d="M367.115,-79.5C381.8129,-79.5 397.719,-79.5 412.8571,-79.5"/>
<polygon fill="#191970" stroke="#191970" points="413.1903,-83.0001 423.1903,-79.5 413.1902,-76.0001 413.1903,-83.0001"/>
</g>
<!-- Node8 -->
<g id="node9" class="node">
<title>Node8</title>
<g id="a_node9"><a xlink:href="classLibBBB_1_1Bluetooth_1_1Manager.html#a060493f898621db59bfda9b7077d759c" target="_top" xlink:title="receiveData method that receives the data ">
<polygon fill="#ffffff" stroke="#000000" points="424.086,-6.5 424.086,-38.5 538.438,-38.5 538.438,-6.5 424.086,-6.5"/>
<text text-anchor="start" x="432.086" y="-25.5" font-family="Helvetica,sans-Serif" font-size="10.00" fill="#000000">LibBBB::Bluetooth::</text>
<text text-anchor="middle" x="481.262" y="-13.5" font-family="Helvetica,sans-Serif" font-size="10.00" fill="#000000">Manager::receiveData</text>
</a>
</g>
</g>
<!-- Node7&#45;&gt;Node8 -->
<g id="edge8" class="edge">
<title>Node7&#45;&gt;Node8</title>
<path fill="none" stroke="#191970" d="M387.4009,-22.5C396.2821,-22.5 405.2711,-22.5 413.9877,-22.5"/>
<polygon fill="#191970" stroke="#191970" points="414.0724,-26.0001 424.0724,-22.5 414.0723,-19.0001 414.0724,-26.0001"/>
</g>
</g>
</svg>
