<?xml version="1.0" encoding="UTF-8" standalone="no"?>
<!DOCTYPE svg PUBLIC "-//W3C//DTD SVG 1.1//EN"
 "http://www.w3.org/Graphics/SVG/1.1/DTD/svg11.dtd">
<!-- Generated by graphviz version 2.40.1 (20161225.0304)
 -->
<!-- Title: main Pages: 1 -->
<svg width="200pt" height="194pt"
 viewBox="0.00 0.00 200.45 194.00" xmlns="http://www.w3.org/2000/svg" xmlns:xlink="http://www.w3.org/1999/xlink">
<g id="graph0" class="graph" transform="scale(1 1) rotate(0) translate(4 190)">
<title>main</title>
<polygon fill="#ffffff" stroke="transparent" points="-4,4 -4,-190 196.454,-190 196.454,4 -4,4"/>
<!-- Node0 -->
<g id="node1" class="node">
<title>Node0</title>
<polygon fill="#bfbfbf" stroke="#000000" points="0,-82.5 0,-102.5 37.666,-102.5 37.666,-82.5 0,-82.5"/>
<text text-anchor="middle" x="18.833" y="-89.5" font-family="Helvetica,sans-Serif" font-size="10.00" fill="#000000">main</text>
</g>
<!-- Node1 -->
<g id="node2" class="node">
<title>Node1</title>
<g id="a_node2"><a xlink:href="classCore_1_1ManagerPRUs.html#a56b1e5d1556de238802d32a6e9316774" target="_top" xlink:title="instance method is the Singleton method of creating and accessing this class. This ensures there can ...">
<polygon fill="#ffffff" stroke="#000000" points="75.889,-153.5 75.889,-185.5 190.231,-185.5 190.231,-153.5 75.889,-153.5"/>
<text text-anchor="start" x="83.889" y="-172.5" font-family="Helvetica,sans-Serif" font-size="10.00" fill="#000000">Core::ManagerPRUs::</text>
<text text-anchor="middle" x="133.06" y="-160.5" font-family="Helvetica,sans-Serif" font-size="10.00" fill="#000000">instance</text>
</a>
</g>
</g>
<!-- Node0&#45;&gt;Node1 -->
<g id="edge1" class="edge">
<title>Node0&#45;&gt;Node1</title>
<path fill="none" stroke="#191970" d="M27.6387,-102.8457C37.7902,-114.2609 55.4329,-132.5895 73.666,-144.5 75.8378,-145.9187 78.1035,-147.2855 80.4282,-148.5982"/>
<polygon fill="#191970" stroke="#191970" points="79.1284,-151.8677 89.6135,-153.3881 82.3651,-145.6609 79.1284,-151.8677"/>
</g>
<!-- Node2 -->
<g id="node3" class="node">
<title>Node2</title>
<g id="a_node3"><a xlink:href="classVehicleControl_1_1Control.html#aa050ea7668adf370680b812948b07a9e" target="_top" xlink:title="instance method is the Singleton method of creating and accessing this class. This ensures there can ...">
<polygon fill="#ffffff" stroke="#000000" points="73.666,-102.5 73.666,-134.5 192.454,-134.5 192.454,-102.5 73.666,-102.5"/>
<text text-anchor="start" x="81.666" y="-121.5" font-family="Helvetica,sans-Serif" font-size="10.00" fill="#000000">VehicleControl::Control</text>
<text text-anchor="middle" x="133.06" y="-109.5" font-family="Helvetica,sans-Serif" font-size="10.00" fill="#000000">::instance</text>
</a>
</g>
</g>
<!-- Node0&#45;&gt;Node2 -->
<g id="edge2" class="edge">
<title>Node0&#45;&gt;Node2</title>
<path fill="none" stroke="#191970" d="M37.6953,-96.7934C45.0319,-98.4633 53.9271,-100.488 63.3008,-102.6216"/>
<polygon fill="#191970" stroke="#191970" points="62.6696,-106.0674 73.197,-104.8742 64.2233,-99.242 62.6696,-106.0674"/>
</g>
<!-- Node3 -->
<g id="node4" class="node">
<title>Node3</title>
<g id="a_node4"><a xlink:href="classVehicleControl_1_1Control.html#a8242c18c2d4eb8cede01197068794ee4" target="_top" xlink:title="isRunning getter ">
<polygon fill="#ffffff" stroke="#000000" points="73.666,-51.5 73.666,-83.5 192.454,-83.5 192.454,-51.5 73.666,-51.5"/>
<text text-anchor="start" x="81.666" y="-70.5" font-family="Helvetica,sans-Serif" font-size="10.00" fill="#000000">VehicleControl::Control</text>
<text text-anchor="middle" x="133.06" y="-58.5" font-family="Helvetica,sans-Serif" font-size="10.00" fill="#000000">::isRunning</text>
</a>
</g>
</g>
<!-- Node0&#45;&gt;Node3 -->
<g id="edge3" class="edge">
<title>Node0&#45;&gt;Node3</title>
<path fill="none" stroke="#191970" d="M37.6953,-88.3718C45.0319,-86.766 53.9271,-84.8192 63.3008,-82.7677"/>
<polygon fill="#191970" stroke="#191970" points="64.1766,-86.1589 73.197,-80.6018 62.6799,-79.3208 64.1766,-86.1589"/>
</g>
<!-- Node4 -->
<g id="node5" class="node">
<title>Node4</title>
<g id="a_node5"><a xlink:href="classVehicleControl_1_1Control.html#af677fb9565407041290bbf7b681802e5" target="_top" xlink:title="update method that controls the vehicle ">
<polygon fill="#ffffff" stroke="#000000" points="73.666,-.5 73.666,-32.5 192.454,-32.5 192.454,-.5 73.666,-.5"/>
<text text-anchor="start" x="81.666" y="-19.5" font-family="Helvetica,sans-Serif" font-size="10.00" fill="#000000">VehicleControl::Control</text>
<text text-anchor="middle" x="133.06" y="-7.5" font-family="Helvetica,sans-Serif" font-size="10.00" fill="#000000">::update</text>
</a>
</g>
</g>
<!-- Node0&#45;&gt;Node4 -->
<g id="edge4" class="edge">
<title>Node0&#45;&gt;Node4</title>
<path fill="none" stroke="#191970" d="M28.1227,-82.2274C38.4266,-71.2911 55.9465,-54.0076 73.666,-42.5 76.5379,-40.6349 79.5659,-38.8459 82.6725,-37.1413"/>
<polygon fill="#191970" stroke="#191970" points="84.277,-40.252 91.5708,-32.5676 81.0769,-34.0262 84.277,-40.252"/>
</g>
</g>
</svg>
