<?xml version="1.0" encoding="UTF-8" standalone="no"?>
<!DOCTYPE svg PUBLIC "-//W3C//DTD SVG 1.1//EN"
 "http://www.w3.org/Graphics/SVG/1.1/DTD/svg11.dtd">
<!-- Generated by graphviz version 2.40.1 (20161225.0304)
 -->
<!-- Title: main.cpp Pages: 1 -->
<svg width="585pt" height="257pt"
 viewBox="0.00 0.00 584.84 257.00" xmlns="http://www.w3.org/2000/svg" xmlns:xlink="http://www.w3.org/1999/xlink">
<g id="graph0" class="graph" transform="scale(1 1) rotate(0) translate(4 253)">
<title>main.cpp</title>
<polygon fill="#ffffff" stroke="transparent" points="-4,4 -4,-253 580.8435,-253 580.8435,4 -4,4"/>
<!-- Node0 -->
<g id="node1" class="node">
<title>Node0</title>
<polygon fill="#bfbfbf" stroke="#000000" points="159.4455,-228.5 159.4455,-248.5 216.0085,-248.5 216.0085,-228.5 159.4455,-228.5"/>
<text text-anchor="middle" x="187.727" y="-235.5" font-family="Helvetica,sans-Serif" font-size="10.00" fill="#000000">main.cpp</text>
</g>
<!-- Node1 -->
<g id="node2" class="node">
<title>Node1</title>
<polygon fill="#ffffff" stroke="#bfbfbf" points="0,-171.5 0,-191.5 45.454,-191.5 45.454,-171.5 0,-171.5"/>
<text text-anchor="middle" x="22.727" y="-178.5" font-family="Helvetica,sans-Serif" font-size="10.00" fill="#000000">stdio.h</text>
</g>
<!-- Node0&#45;&gt;Node1 -->
<g id="edge1" class="edge">
<title>Node0&#45;&gt;Node1</title>
<path fill="none" stroke="#191970" d="M159.3625,-228.7014C130.4714,-218.7208 85.7219,-203.2619 55.3733,-192.7778"/>
<polygon fill="#191970" stroke="#191970" points="56.2717,-189.3853 45.677,-189.4282 53.9861,-196.0016 56.2717,-189.3853"/>
</g>
<!-- Node2 -->
<g id="node3" class="node">
<title>Node2</title>
<polygon fill="#ffffff" stroke="#bfbfbf" points="63.8905,-171.5 63.8905,-191.5 111.5635,-191.5 111.5635,-171.5 63.8905,-171.5"/>
<text text-anchor="middle" x="87.727" y="-178.5" font-family="Helvetica,sans-Serif" font-size="10.00" fill="#000000">stdlib.h</text>
</g>
<!-- Node0&#45;&gt;Node2 -->
<g id="edge2" class="edge">
<title>Node0&#45;&gt;Node2</title>
<path fill="none" stroke="#191970" d="M169.849,-228.3095C154.4911,-219.5556 132.1216,-206.8049 114.6062,-196.8211"/>
<polygon fill="#191970" stroke="#191970" points="115.8712,-193.5136 105.4502,-191.6022 112.4048,-199.595 115.8712,-193.5136"/>
</g>
<!-- Node3 -->
<g id="node4" class="node">
<title>Node3</title>
<polygon fill="#ffffff" stroke="#bfbfbf" points="129.2205,-171.5 129.2205,-191.5 180.2335,-191.5 180.2335,-171.5 129.2205,-171.5"/>
<text text-anchor="middle" x="154.727" y="-178.5" font-family="Helvetica,sans-Serif" font-size="10.00" fill="#000000">unistd.h</text>
</g>
<!-- Node0&#45;&gt;Node3 -->
<g id="edge3" class="edge">
<title>Node0&#45;&gt;Node3</title>
<path fill="none" stroke="#191970" d="M181.8273,-228.3095C177.3692,-220.6093 171.1208,-209.8166 165.7472,-200.5349"/>
<polygon fill="#191970" stroke="#191970" points="168.6151,-198.5029 160.5757,-191.6022 162.5571,-202.0102 168.6151,-198.5029"/>
</g>
<!-- Node4 -->
<g id="node5" class="node">
<title>Node4</title>
<g id="a_node5"><a xlink:href="Input_8h.html" target="_top" xlink:title="Input.h">
<polygon fill="#ffffff" stroke="#000000" points="198.4405,-171.5 198.4405,-191.5 245.0135,-191.5 245.0135,-171.5 198.4405,-171.5"/>
<text text-anchor="middle" x="221.727" y="-178.5" font-family="Helvetica,sans-Serif" font-size="10.00" fill="#000000">Input.h</text>
</a>
</g>
</g>
<!-- Node0&#45;&gt;Node4 -->
<g id="edge4" class="edge">
<title>Node0&#45;&gt;Node4</title>
<path fill="none" stroke="#191970" d="M193.8055,-228.3095C198.447,-220.5282 204.9721,-209.589 210.5474,-200.2423"/>
<polygon fill="#191970" stroke="#191970" points="213.5841,-201.9834 215.7011,-191.6022 207.5724,-198.3975 213.5841,-201.9834"/>
</g>
<!-- Node8 -->
<g id="node9" class="node">
<title>Node8</title>
<g id="a_node9"><a xlink:href="BoeingSurfaceVehicleControl_8h.html" target="_top" xlink:title="BoeingSurfaceVehicleControl.h">
<polygon fill="#ffffff" stroke="#000000" points="263.2655,-171.5 263.2655,-191.5 418.1885,-191.5 418.1885,-171.5 263.2655,-171.5"/>
<text text-anchor="middle" x="340.727" y="-178.5" font-family="Helvetica,sans-Serif" font-size="10.00" fill="#000000">BoeingSurfaceVehicleControl.h</text>
</a>
</g>
</g>
<!-- Node0&#45;&gt;Node8 -->
<g id="edge8" class="edge">
<title>Node0&#45;&gt;Node8</title>
<path fill="none" stroke="#191970" d="M214.7281,-228.4408C239.5596,-219.1898 276.5849,-205.3961 304.0804,-195.1527"/>
<polygon fill="#191970" stroke="#191970" points="305.59,-198.3253 313.7389,-191.5544 303.1462,-191.7658 305.59,-198.3253"/>
</g>
<!-- Node14 -->
<g id="node15" class="node">
<title>Node14</title>
<g id="a_node15"><a xlink:href="ManagerPRUs_8h.html" target="_top" xlink:title="ManagerPRUs.h">
<polygon fill="#ffffff" stroke="#000000" points="484.778,-171.5 484.778,-191.5 574.676,-191.5 574.676,-171.5 484.778,-171.5"/>
<text text-anchor="middle" x="529.727" y="-178.5" font-family="Helvetica,sans-Serif" font-size="10.00" fill="#000000">ManagerPRUs.h</text>
</a>
</g>
</g>
<!-- Node0&#45;&gt;Node14 -->
<g id="edge18" class="edge">
<title>Node0&#45;&gt;Node14</title>
<path fill="none" stroke="#191970" d="M216.2975,-233.7383C273.1054,-224.2703 401.1017,-202.9376 474.7514,-190.6626"/>
<polygon fill="#191970" stroke="#191970" points="475.4815,-194.0893 484.77,-188.9928 474.3306,-187.1845 475.4815,-194.0893"/>
</g>
<!-- Node5 -->
<g id="node6" class="node">
<title>Node5</title>
<g id="a_node6"><a xlink:href="IOBase_8h.html" target="_top" xlink:title="IOBase.h">
<polygon fill="#ffffff" stroke="#000000" points="142.8855,-114.5 142.8855,-134.5 200.5685,-134.5 200.5685,-114.5 142.8855,-114.5"/>
<text text-anchor="middle" x="171.727" y="-121.5" font-family="Helvetica,sans-Serif" font-size="10.00" fill="#000000">IOBase.h</text>
</a>
</g>
</g>
<!-- Node4&#45;&gt;Node5 -->
<g id="edge5" class="edge">
<title>Node4&#45;&gt;Node5</title>
<path fill="none" stroke="#191970" d="M212.788,-171.3095C205.749,-163.2851 195.7641,-151.9022 187.4032,-142.3708"/>
<polygon fill="#191970" stroke="#191970" points="189.8142,-139.8118 180.5886,-134.6022 184.5519,-144.4279 189.8142,-139.8118"/>
</g>
<!-- Node6 -->
<g id="node7" class="node">
<title>Node6</title>
<polygon fill="#ffffff" stroke="#bfbfbf" points="269.5045,-.5 269.5045,-20.5 309.9495,-20.5 309.9495,-.5 269.5045,-.5"/>
<text text-anchor="middle" x="289.727" y="-7.5" font-family="Helvetica,sans-Serif" font-size="10.00" fill="#000000">string</text>
</g>
<!-- Node5&#45;&gt;Node6 -->
<g id="edge6" class="edge">
<title>Node5&#45;&gt;Node6</title>
<path fill="none" stroke="#191970" d="M165.9022,-114.3359C158.6417,-100.1718 148.5779,-74.2936 160.727,-57 172.3229,-40.4938 225.0974,-25.4638 259.4495,-17.1891"/>
<polygon fill="#191970" stroke="#191970" points="260.516,-20.534 269.453,-14.8438 258.9181,-13.7188 260.516,-20.534"/>
</g>
<!-- Node7 -->
<g id="node8" class="node">
<title>Node7</title>
<polygon fill="#ffffff" stroke="#bfbfbf" points="170.06,-57.5 170.06,-77.5 219.394,-77.5 219.394,-57.5 170.06,-57.5"/>
<text text-anchor="middle" x="194.727" y="-64.5" font-family="Helvetica,sans-Serif" font-size="10.00" fill="#000000">fstream</text>
</g>
<!-- Node5&#45;&gt;Node7 -->
<g id="edge7" class="edge">
<title>Node5&#45;&gt;Node7</title>
<path fill="none" stroke="#191970" d="M175.8389,-114.3095C178.8807,-106.7714 183.1182,-96.2696 186.8089,-87.123"/>
<polygon fill="#191970" stroke="#191970" points="190.1544,-88.1854 190.6507,-77.6022 183.6629,-85.566 190.1544,-88.1854"/>
</g>
<!-- Node9 -->
<g id="node10" class="node">
<title>Node9</title>
<polygon fill="#ffffff" stroke="#bfbfbf" points="344.114,-114.5 344.114,-134.5 387.34,-134.5 387.34,-114.5 344.114,-114.5"/>
<text text-anchor="middle" x="365.727" y="-121.5" font-family="Helvetica,sans-Serif" font-size="10.00" fill="#000000">vector</text>
</g>
<!-- Node8&#45;&gt;Node9 -->
<g id="edge9" class="edge">
<title>Node8&#45;&gt;Node9</title>
<path fill="none" stroke="#191970" d="M345.1965,-171.3095C348.5383,-163.6903 353.2079,-153.0435 357.2496,-143.8285"/>
<polygon fill="#191970" stroke="#191970" points="360.4848,-145.166 361.2962,-134.6022 354.0743,-142.3543 360.4848,-145.166"/>
</g>
<!-- Node10 -->
<g id="node11" class="node">
<title>Node10</title>
<g id="a_node11"><a xlink:href="BluetoothInterface_8h.html" target="_top" xlink:title="BluetoothInterface.h">
<polygon fill="#ffffff" stroke="#000000" points="404.9865,-114.5 404.9865,-134.5 510.4675,-134.5 510.4675,-114.5 404.9865,-114.5"/>
<text text-anchor="middle" x="457.727" y="-121.5" font-family="Helvetica,sans-Serif" font-size="10.00" fill="#000000">BluetoothInterface.h</text>
</a>
</g>
</g>
<!-- Node8&#45;&gt;Node10 -->
<g id="edge10" class="edge">
<title>Node8&#45;&gt;Node10</title>
<path fill="none" stroke="#191970" d="M361.3749,-171.4408C379.8071,-162.461 407.0253,-149.2008 427.8358,-139.0624"/>
<polygon fill="#191970" stroke="#191970" points="429.4349,-142.1766 436.8919,-134.6504 426.3691,-135.8837 429.4349,-142.1766"/>
</g>
<!-- Node12 -->
<g id="node13" class="node">
<title>Node12</title>
<g id="a_node13"><a xlink:href="BluetoothDefinitions_8h.html" target="_top" xlink:title="BluetoothDefinitions.h">
<polygon fill="#ffffff" stroke="#000000" points="276.1025,-57.5 276.1025,-77.5 389.3515,-77.5 389.3515,-57.5 276.1025,-57.5"/>
<text text-anchor="middle" x="332.727" y="-64.5" font-family="Helvetica,sans-Serif" font-size="10.00" fill="#000000">BluetoothDefinitions.h</text>
</a>
</g>
</g>
<!-- Node8&#45;&gt;Node12 -->
<g id="edge13" class="edge">
<title>Node8&#45;&gt;Node12</title>
<path fill="none" stroke="#191970" d="M339.0995,-171.188C337.6863,-161.7853 335.7159,-147.4963 334.727,-135 333.4697,-119.1125 332.9837,-101.0649 332.8045,-87.6311"/>
<polygon fill="#191970" stroke="#191970" points="336.304,-87.5491 332.7158,-77.5804 329.3042,-87.611 336.304,-87.5491"/>
</g>
<!-- Node13 -->
<g id="node14" class="node">
<title>Node13</title>
<g id="a_node14"><a xlink:href="UserLED_8h.html" target="_top" xlink:title="UserLED.h">
<polygon fill="#ffffff" stroke="#000000" points="218.281,-114.5 218.281,-134.5 283.173,-134.5 283.173,-114.5 218.281,-114.5"/>
<text text-anchor="middle" x="250.727" y="-121.5" font-family="Helvetica,sans-Serif" font-size="10.00" fill="#000000">UserLED.h</text>
</a>
</g>
</g>
<!-- Node8&#45;&gt;Node13 -->
<g id="edge15" class="edge">
<title>Node8&#45;&gt;Node13</title>
<path fill="none" stroke="#191970" d="M324.6368,-171.3095C310.9427,-162.6366 291.0544,-150.0407 275.3573,-140.0992"/>
<polygon fill="#191970" stroke="#191970" points="276.9988,-136.9959 266.6779,-134.6022 273.2534,-142.9097 276.9988,-136.9959"/>
</g>
<!-- Node11 -->
<g id="node12" class="node">
<title>Node11</title>
<g id="a_node12"><a xlink:href="BluetoothManager_8h.html" target="_top" xlink:title="BluetoothManager.h">
<polygon fill="#ffffff" stroke="#000000" points="407.711,-57.5 407.711,-77.5 513.743,-77.5 513.743,-57.5 407.711,-57.5"/>
<text text-anchor="middle" x="460.727" y="-64.5" font-family="Helvetica,sans-Serif" font-size="10.00" fill="#000000">BluetoothManager.h</text>
</a>
</g>
</g>
<!-- Node10&#45;&gt;Node11 -->
<g id="edge11" class="edge">
<title>Node10&#45;&gt;Node11</title>
<path fill="none" stroke="#191970" d="M458.2633,-114.3095C458.6516,-106.9335 459.1891,-96.72 459.6631,-87.715"/>
<polygon fill="#191970" stroke="#191970" points="463.1648,-87.7724 460.1953,-77.6022 456.1745,-87.4044 463.1648,-87.7724"/>
</g>
<!-- Node11&#45;&gt;Node6 -->
<g id="edge12" class="edge">
<title>Node11&#45;&gt;Node6</title>
<path fill="none" stroke="#191970" d="M430.5493,-57.4408C399.3657,-47.0462 350.9762,-30.9164 319.8228,-20.5319"/>
<polygon fill="#191970" stroke="#191970" points="320.5619,-17.089 309.9683,-17.2471 318.3483,-23.7298 320.5619,-17.089"/>
</g>
<!-- Node12&#45;&gt;Node6 -->
<g id="edge14" class="edge">
<title>Node12&#45;&gt;Node6</title>
<path fill="none" stroke="#191970" d="M325.0395,-57.3095C319.047,-49.3661 310.5721,-38.1319 303.4268,-28.6602"/>
<polygon fill="#191970" stroke="#191970" points="306.1645,-26.4776 297.348,-20.6022 300.5763,-30.6933 306.1645,-26.4776"/>
</g>
<!-- Node13&#45;&gt;Node6 -->
<g id="edge16" class="edge">
<title>Node13&#45;&gt;Node6</title>
<path fill="none" stroke="#191970" d="M252.4124,-114.2279C254.7821,-100.8123 259.6194,-76.7135 266.727,-57 270.1082,-47.6219 274.8653,-37.6605 279.1764,-29.3733"/>
<polygon fill="#191970" stroke="#191970" points="282.268,-31.0141 283.9232,-20.5493 276.1034,-27.6979 282.268,-31.0141"/>
</g>
<!-- Node13&#45;&gt;Node7 -->
<g id="edge17" class="edge">
<title>Node13&#45;&gt;Node7</title>
<path fill="none" stroke="#191970" d="M240.7153,-114.3095C232.6723,-106.1229 221.1953,-94.441 211.719,-84.7955"/>
<polygon fill="#191970" stroke="#191970" points="214.1569,-82.2827 204.652,-77.6022 209.1636,-87.1885 214.1569,-82.2827"/>
</g>
<!-- Node15 -->
<g id="node16" class="node">
<title>Node15</title>
<polygon fill="#ffffff" stroke="#bfbfbf" points="528.6105,-114.5 528.6105,-134.5 576.8435,-134.5 576.8435,-114.5 528.6105,-114.5"/>
<text text-anchor="middle" x="552.727" y="-121.5" font-family="Helvetica,sans-Serif" font-size="10.00" fill="#000000">stdint.h</text>
</g>
<!-- Node14&#45;&gt;Node15 -->
<g id="edge19" class="edge">
<title>Node14&#45;&gt;Node15</title>
<path fill="none" stroke="#191970" d="M533.8389,-171.3095C536.8807,-163.7714 541.1182,-153.2696 544.8089,-144.123"/>
<polygon fill="#191970" stroke="#191970" points="548.1544,-145.1854 548.6507,-134.6022 541.6629,-142.566 548.1544,-145.1854"/>
</g>
</g>
</svg>
