<?xml version="1.0" encoding="UTF-8" standalone="no"?>
<!DOCTYPE svg PUBLIC "-//W3C//DTD SVG 1.1//EN"
 "http://www.w3.org/Graphics/SVG/1.1/DTD/svg11.dtd">
<!-- Generated by graphviz version 2.40.1 (20161225.0304)
 -->
<!-- Title: main Pages: 1 -->
<svg width="547pt" height="263pt"
 viewBox="0.00 0.00 547.27 263.00" xmlns="http://www.w3.org/2000/svg" xmlns:xlink="http://www.w3.org/1999/xlink">
<g id="graph0" class="graph" transform="scale(1 1) rotate(0) translate(4 259)">
<title>main</title>
<polygon fill="#ffffff" stroke="transparent" points="-4,4 -4,-259 543.272,-259 543.272,4 -4,4"/>
<!-- Node0 -->
<g id="node1" class="node">
<title>Node0</title>
<polygon fill="#bfbfbf" stroke="#000000" points="0,-151.5 0,-171.5 37.666,-171.5 37.666,-151.5 0,-151.5"/>
<text text-anchor="middle" x="18.833" y="-158.5" font-family="Helvetica,sans-Serif" font-size="10.00" fill="#000000">main</text>
</g>
<!-- Node1 -->
<g id="node2" class="node">
<title>Node1</title>
<g id="a_node2"><a xlink:href="classLibBBB_1_1ManagerPRUs.html#a11fbfc8917c5e0bc56112c31a2b736ab" target="_top" xlink:title="instance method is the Singleton method of creating and accessing this class. This ensures there can ...">
<polygon fill="#ffffff" stroke="#000000" points="73.666,-222.5 73.666,-254.5 194.128,-254.5 194.128,-222.5 73.666,-222.5"/>
<text text-anchor="start" x="81.666" y="-241.5" font-family="Helvetica,sans-Serif" font-size="10.00" fill="#000000">LibBBB::ManagerPRUs</text>
<text text-anchor="middle" x="133.897" y="-229.5" font-family="Helvetica,sans-Serif" font-size="10.00" fill="#000000">::instance</text>
</a>
</g>
</g>
<!-- Node0&#45;&gt;Node1 -->
<g id="edge1" class="edge">
<title>Node0&#45;&gt;Node1</title>
<path fill="none" stroke="#191970" d="M27.6277,-171.8626C37.7694,-183.2929 55.4033,-201.6349 73.666,-213.5 75.946,-214.9813 78.3284,-216.4047 80.7737,-217.768"/>
<polygon fill="#191970" stroke="#191970" points="79.3416,-220.9674 89.8339,-222.4378 82.5486,-214.7453 79.3416,-220.9674"/>
</g>
<!-- Node2 -->
<g id="node3" class="node">
<title>Node2</title>
<g id="a_node3"><a xlink:href="classVehicleControl_1_1Control.html#aa050ea7668adf370680b812948b07a9e" target="_top" xlink:title="instance method is the Singleton method of creating and accessing this class. This ensures there can ...">
<polygon fill="#ffffff" stroke="#000000" points="74.503,-171.5 74.503,-203.5 193.291,-203.5 193.291,-171.5 74.503,-171.5"/>
<text text-anchor="start" x="82.503" y="-190.5" font-family="Helvetica,sans-Serif" font-size="10.00" fill="#000000">VehicleControl::Control</text>
<text text-anchor="middle" x="133.897" y="-178.5" font-family="Helvetica,sans-Serif" font-size="10.00" fill="#000000">::instance</text>
</a>
</g>
</g>
<!-- Node0&#45;&gt;Node2 -->
<g id="edge2" class="edge">
<title>Node0&#45;&gt;Node2</title>
<path fill="none" stroke="#191970" d="M37.8335,-165.7934C45.3974,-167.5025 54.6059,-169.5833 64.2926,-171.7721"/>
<polygon fill="#191970" stroke="#191970" points="63.5698,-175.197 74.0954,-173.9871 65.1127,-168.3691 63.5698,-175.197"/>
</g>
<!-- Node3 -->
<g id="node4" class="node">
<title>Node3</title>
<g id="a_node4"><a xlink:href="classVehicleControl_1_1Control.html#a8242c18c2d4eb8cede01197068794ee4" target="_top" xlink:title="isRunning getter ">
<polygon fill="#ffffff" stroke="#000000" points="74.503,-120.5 74.503,-152.5 193.291,-152.5 193.291,-120.5 74.503,-120.5"/>
<text text-anchor="start" x="82.503" y="-139.5" font-family="Helvetica,sans-Serif" font-size="10.00" fill="#000000">VehicleControl::Control</text>
<text text-anchor="middle" x="133.897" y="-127.5" font-family="Helvetica,sans-Serif" font-size="10.00" fill="#000000">::isRunning</text>
</a>
</g>
</g>
<!-- Node0&#45;&gt;Node3 -->
<g id="edge3" class="edge">
<title>Node0&#45;&gt;Node3</title>
<path fill="none" stroke="#191970" d="M37.8335,-157.3718C45.3974,-155.7283 54.6059,-153.7276 64.2926,-151.623"/>
<polygon fill="#191970" stroke="#191970" points="65.0665,-155.0366 74.0954,-149.4931 63.5802,-148.1962 65.0665,-155.0366"/>
</g>
<!-- Node4 -->
<g id="node5" class="node">
<title>Node4</title>
<g id="a_node5"><a xlink:href="classVehicleControl_1_1Control.html#af677fb9565407041290bbf7b681802e5" target="_top" xlink:title="update method that controls the vehicle ">
<polygon fill="#ffffff" stroke="#000000" points="74.503,-69.5 74.503,-101.5 193.291,-101.5 193.291,-69.5 74.503,-69.5"/>
<text text-anchor="start" x="82.503" y="-88.5" font-family="Helvetica,sans-Serif" font-size="10.00" fill="#000000">VehicleControl::Control</text>
<text text-anchor="middle" x="133.897" y="-76.5" font-family="Helvetica,sans-Serif" font-size="10.00" fill="#000000">::update</text>
</a>
</g>
</g>
<!-- Node0&#45;&gt;Node4 -->
<g id="edge4" class="edge">
<title>Node0&#45;&gt;Node4</title>
<path fill="none" stroke="#191970" d="M28.1113,-151.2099C38.4055,-140.2585 55.9171,-122.9623 73.666,-111.5 76.5767,-109.6203 79.6461,-107.8201 82.7956,-106.1072"/>
<polygon fill="#191970" stroke="#191970" points="84.4918,-109.1712 91.8175,-101.5171 81.3176,-102.9323 84.4918,-109.1712"/>
</g>
<!-- Node5 -->
<g id="node6" class="node">
<title>Node5</title>
<g id="a_node6"><a xlink:href="classLibBBB_1_1Bluetooth_1_1Manager.html#aba77bfc05cca940e709d9c0bb1106127" target="_top" xlink:title="isConnected getter ">
<polygon fill="#ffffff" stroke="#000000" points="250.399,-126.5 250.399,-158.5 366.981,-158.5 366.981,-126.5 250.399,-126.5"/>
<text text-anchor="start" x="258.399" y="-145.5" font-family="Helvetica,sans-Serif" font-size="10.00" fill="#000000">LibBBB::Bluetooth::</text>
<text text-anchor="middle" x="308.69" y="-133.5" font-family="Helvetica,sans-Serif" font-size="10.00" fill="#000000">Manager::isConnected</text>
</a>
</g>
</g>
<!-- Node4&#45;&gt;Node5 -->
<g id="edge5" class="edge">
<title>Node4&#45;&gt;Node5</title>
<path fill="none" stroke="#191970" d="M181.8259,-101.5735C197.2353,-106.7049 214.3902,-112.3795 230.128,-117.5 236.0232,-119.4181 242.1724,-121.4027 248.321,-123.3766"/>
<polygon fill="#191970" stroke="#191970" points="247.3548,-126.7422 257.9458,-126.4582 249.4894,-120.0755 247.3548,-126.7422"/>
</g>
<!-- Node7 -->
<g id="node8" class="node">
<title>Node7</title>
<g id="a_node8"><a xlink:href="classVehicleControl_1_1Control_1_1CommunicationProtocolParser.html#a518b7eda37805934071cbc4c3dbc4328" target="_top" xlink:title="parseIncomingPackets method gets and parses the incoming Bluetooth packets. This method calls the Blu...">
<polygon fill="#ffffff" stroke="#000000" points="230.128,-63.5 230.128,-107.5 387.252,-107.5 387.252,-63.5 230.128,-63.5"/>
<text text-anchor="start" x="238.128" y="-94.5" font-family="Helvetica,sans-Serif" font-size="10.00" fill="#000000">VehicleControl::Control</text>
<text text-anchor="start" x="238.128" y="-82.5" font-family="Helvetica,sans-Serif" font-size="10.00" fill="#000000">::CommunicationProtocolParser</text>
<text text-anchor="middle" x="308.69" y="-70.5" font-family="Helvetica,sans-Serif" font-size="10.00" fill="#000000">::parseIncomingPackets</text>
</a>
</g>
</g>
<!-- Node4&#45;&gt;Node7 -->
<g id="edge7" class="edge">
<title>Node4&#45;&gt;Node7</title>
<path fill="none" stroke="#191970" d="M193.562,-85.5C202.041,-85.5 210.9085,-85.5 219.7967,-85.5"/>
<polygon fill="#191970" stroke="#191970" points="219.8209,-89.0001 229.8209,-85.5 219.8209,-82.0001 219.8209,-89.0001"/>
</g>
<!-- Node9 -->
<g id="node10" class="node">
<title>Node9</title>
<g id="a_node10"><a xlink:href="classVehicleControl_1_1Control_1_1CommunicationProtocolParser.html#abdbab1c6376e364c7064e5c5b04f0168" target="_top" xlink:title="sendOutgoingPackets packs and send outgoing data. This method takes care of packing bools into a sing...">
<polygon fill="#ffffff" stroke="#000000" points="230.128,-.5 230.128,-44.5 387.252,-44.5 387.252,-.5 230.128,-.5"/>
<text text-anchor="start" x="238.128" y="-31.5" font-family="Helvetica,sans-Serif" font-size="10.00" fill="#000000">VehicleControl::Control</text>
<text text-anchor="start" x="238.128" y="-19.5" font-family="Helvetica,sans-Serif" font-size="10.00" fill="#000000">::CommunicationProtocolParser</text>
<text text-anchor="middle" x="308.69" y="-7.5" font-family="Helvetica,sans-Serif" font-size="10.00" fill="#000000">::sendOutgoingPackets</text>
</a>
</g>
</g>
<!-- Node4&#45;&gt;Node9 -->
<g id="edge9" class="edge">
<title>Node4&#45;&gt;Node9</title>
<path fill="none" stroke="#191970" d="M178.4569,-69.4394C196.5316,-62.9248 217.8539,-55.2397 237.955,-47.9947"/>
<polygon fill="#191970" stroke="#191970" points="239.1749,-51.2755 247.3957,-44.5921 236.8013,-44.6902 239.1749,-51.2755"/>
</g>
<!-- Node6 -->
<g id="node7" class="node">
<title>Node6</title>
<g id="a_node7"><a xlink:href="classLibBBB_1_1ThreadHelper.html#a6999e18135496ef252b1c43c374c20f9" target="_top" xlink:title="startDetachedThread ">
<polygon fill="#ffffff" stroke="#000000" points="423.252,-126.5 423.252,-158.5 539.272,-158.5 539.272,-126.5 423.252,-126.5"/>
<text text-anchor="start" x="431.252" y="-145.5" font-family="Helvetica,sans-Serif" font-size="10.00" fill="#000000">LibBBB::ThreadHelper</text>
<text text-anchor="middle" x="481.262" y="-133.5" font-family="Helvetica,sans-Serif" font-size="10.00" fill="#000000">::startDetachedThread</text>
</a>
</g>
</g>
<!-- Node5&#45;&gt;Node6 -->
<g id="edge6" class="edge">
<title>Node5&#45;&gt;Node6</title>
<path fill="none" stroke="#191970" d="M367.115,-142.5C381.8129,-142.5 397.719,-142.5 412.8571,-142.5"/>
<polygon fill="#191970" stroke="#191970" points="413.1903,-146.0001 423.1903,-142.5 413.1902,-139.0001 413.1903,-146.0001"/>
</g>
<!-- Node8 -->
<g id="node9" class="node">
<title>Node8</title>
<g id="a_node9"><a xlink:href="classLibBBB_1_1Bluetooth_1_1Manager.html#ae579e5664c1fa9a5cb4ed5e067f80e33" target="_top" xlink:title="receiveData method that receives the data ">
<polygon fill="#ffffff" stroke="#000000" points="424.086,-69.5 424.086,-101.5 538.438,-101.5 538.438,-69.5 424.086,-69.5"/>
<text text-anchor="start" x="432.086" y="-88.5" font-family="Helvetica,sans-Serif" font-size="10.00" fill="#000000">LibBBB::Bluetooth::</text>
<text text-anchor="middle" x="481.262" y="-76.5" font-family="Helvetica,sans-Serif" font-size="10.00" fill="#000000">Manager::receiveData</text>
</a>
</g>
</g>
<!-- Node7&#45;&gt;Node8 -->
<g id="edge8" class="edge">
<title>Node7&#45;&gt;Node8</title>
<path fill="none" stroke="#191970" d="M387.4009,-85.5C396.2821,-85.5 405.2711,-85.5 413.9877,-85.5"/>
<polygon fill="#191970" stroke="#191970" points="414.0724,-89.0001 424.0724,-85.5 414.0723,-82.0001 414.0724,-89.0001"/>
</g>
</g>
</svg>
