<?xml version="1.0" encoding="UTF-8" standalone="no"?>
<!DOCTYPE svg PUBLIC "-//W3C//DTD SVG 1.1//EN"
 "http://www.w3.org/Graphics/SVG/1.1/DTD/svg11.dtd">
<!-- Generated by graphviz version 2.40.1 (20161225.0304)
 -->
<!-- Title: main Pages: 1 -->
<svg width="234pt" height="194pt"
 viewBox="0.00 0.00 233.79 194.00" xmlns="http://www.w3.org/2000/svg" xmlns:xlink="http://www.w3.org/1999/xlink">
<g id="graph0" class="graph" transform="scale(1 1) rotate(0) translate(4 190)">
<title>main</title>
<polygon fill="#ffffff" stroke="transparent" points="-4,4 -4,-190 229.791,-190 229.791,4 -4,4"/>
<!-- Node0 -->
<g id="node1" class="node">
<title>Node0</title>
<polygon fill="#bfbfbf" stroke="#000000" points="0,-82.5 0,-102.5 37.666,-102.5 37.666,-82.5 0,-82.5"/>
<text text-anchor="middle" x="18.833" y="-89.5" font-family="Helvetica,sans-Serif" font-size="10.00" fill="#000000">main</text>
</g>
<!-- Node1 -->
<g id="node2" class="node">
<title>Node1</title>
<g id="a_node2"><a xlink:href="classVehicleControl_1_1ManagerPRUs.html#ad6c79e6ea84f08582f9ef743e604fd6b" target="_top" xlink:title="instance method is the Singleton method of creating and accessing this class. This ensures there can ...">
<polygon fill="#ffffff" stroke="#000000" points="73.666,-153.5 73.666,-185.5 225.791,-185.5 225.791,-153.5 73.666,-153.5"/>
<text text-anchor="start" x="81.666" y="-172.5" font-family="Helvetica,sans-Serif" font-size="10.00" fill="#000000">VehicleControl::ManagerPRUs</text>
<text text-anchor="middle" x="149.7285" y="-160.5" font-family="Helvetica,sans-Serif" font-size="10.00" fill="#000000">::instance</text>
</a>
</g>
</g>
<!-- Node0&#45;&gt;Node1 -->
<g id="edge1" class="edge">
<title>Node0&#45;&gt;Node1</title>
<path fill="none" stroke="#191970" d="M27.1077,-102.704C37.0406,-114.3378 54.7412,-133.2016 73.666,-144.5 76.4707,-146.1745 79.4015,-147.7522 82.4115,-149.2368"/>
<polygon fill="#191970" stroke="#191970" points="81.0794,-152.4757 91.6325,-153.415 83.9685,-146.0997 81.0794,-152.4757"/>
</g>
<!-- Node2 -->
<g id="node3" class="node">
<title>Node2</title>
<g id="a_node3"><a xlink:href="classVehicleControl_1_1Control.html#aa050ea7668adf370680b812948b07a9e" target="_top" xlink:title="instance method is the Singleton method of creating and accessing this class. This ensures there can ...">
<polygon fill="#ffffff" stroke="#000000" points="90.3345,-102.5 90.3345,-134.5 209.1225,-134.5 209.1225,-102.5 90.3345,-102.5"/>
<text text-anchor="start" x="98.3345" y="-121.5" font-family="Helvetica,sans-Serif" font-size="10.00" fill="#000000">VehicleControl::Control</text>
<text text-anchor="middle" x="149.7285" y="-109.5" font-family="Helvetica,sans-Serif" font-size="10.00" fill="#000000">::instance</text>
</a>
</g>
</g>
<!-- Node0&#45;&gt;Node2 -->
<g id="edge2" class="edge">
<title>Node0&#45;&gt;Node2</title>
<path fill="none" stroke="#191970" d="M37.8663,-96.2806C49.2084,-98.5335 64.3821,-101.5475 79.8862,-104.6271"/>
<polygon fill="#191970" stroke="#191970" points="79.5951,-108.1376 90.0854,-106.653 80.9589,-101.2717 79.5951,-108.1376"/>
</g>
<!-- Node3 -->
<g id="node4" class="node">
<title>Node3</title>
<g id="a_node4"><a xlink:href="classVehicleControl_1_1Control.html#a8242c18c2d4eb8cede01197068794ee4" target="_top" xlink:title="isRunning getter ">
<polygon fill="#ffffff" stroke="#000000" points="90.3345,-51.5 90.3345,-83.5 209.1225,-83.5 209.1225,-51.5 90.3345,-51.5"/>
<text text-anchor="start" x="98.3345" y="-70.5" font-family="Helvetica,sans-Serif" font-size="10.00" fill="#000000">VehicleControl::Control</text>
<text text-anchor="middle" x="149.7285" y="-58.5" font-family="Helvetica,sans-Serif" font-size="10.00" fill="#000000">::isRunning</text>
</a>
</g>
</g>
<!-- Node0&#45;&gt;Node3 -->
<g id="edge3" class="edge">
<title>Node0&#45;&gt;Node3</title>
<path fill="none" stroke="#191970" d="M37.8663,-88.8648C49.2084,-86.6985 64.3821,-83.8005 79.8862,-80.8393"/>
<polygon fill="#191970" stroke="#191970" points="80.9196,-84.2053 90.0854,-78.8914 79.6063,-77.3296 80.9196,-84.2053"/>
</g>
<!-- Node4 -->
<g id="node5" class="node">
<title>Node4</title>
<g id="a_node5"><a xlink:href="classVehicleControl_1_1Control.html#af677fb9565407041290bbf7b681802e5" target="_top" xlink:title="update method that controls the vehicle ">
<polygon fill="#ffffff" stroke="#000000" points="90.3345,-.5 90.3345,-32.5 209.1225,-32.5 209.1225,-.5 90.3345,-.5"/>
<text text-anchor="start" x="98.3345" y="-19.5" font-family="Helvetica,sans-Serif" font-size="10.00" fill="#000000">VehicleControl::Control</text>
<text text-anchor="middle" x="149.7285" y="-7.5" font-family="Helvetica,sans-Serif" font-size="10.00" fill="#000000">::update</text>
</a>
</g>
</g>
<!-- Node0&#45;&gt;Node4 -->
<g id="edge4" class="edge">
<title>Node0&#45;&gt;Node4</title>
<path fill="none" stroke="#191970" d="M27.575,-82.3442C37.6694,-71.1817 55.2612,-53.3915 73.666,-42.5 77.2465,-40.3811 81.0246,-38.4032 84.9057,-36.562"/>
<polygon fill="#191970" stroke="#191970" points="86.3622,-39.7451 94.1042,-32.5124 83.5416,-33.3385 86.3622,-39.7451"/>
</g>
</g>
</svg>
