<?xml version="1.0" encoding="UTF-8" standalone="no"?>
<!DOCTYPE svg PUBLIC "-//W3C//DTD SVG 1.1//EN"
 "http://www.w3.org/Graphics/SVG/1.1/DTD/svg11.dtd">
<!-- Generated by graphviz version 2.40.1 (20161225.0304)
 -->
<!-- Title: main Pages: 1 -->
<svg width="202pt" height="194pt"
 viewBox="0.00 0.00 202.13 194.00" xmlns="http://www.w3.org/2000/svg" xmlns:xlink="http://www.w3.org/1999/xlink">
<g id="graph0" class="graph" transform="scale(1 1) rotate(0) translate(4 190)">
<title>main</title>
<polygon fill="#ffffff" stroke="transparent" points="-4,4 -4,-190 198.128,-190 198.128,4 -4,4"/>
<!-- Node0 -->
<g id="node1" class="node">
<title>Node0</title>
<polygon fill="#bfbfbf" stroke="#000000" points="0,-82.5 0,-102.5 37.666,-102.5 37.666,-82.5 0,-82.5"/>
<text text-anchor="middle" x="18.833" y="-89.5" font-family="Helvetica,sans-Serif" font-size="10.00" fill="#000000">main</text>
</g>
<!-- Node1 -->
<g id="node2" class="node">
<title>Node1</title>
<g id="a_node2"><a xlink:href="classLibBBB_1_1ManagerPRUs.html#a11fbfc8917c5e0bc56112c31a2b736ab" target="_top" xlink:title="instance method is the Singleton method of creating and accessing this class. This ensures there can ...">
<polygon fill="#ffffff" stroke="#000000" points="73.666,-153.5 73.666,-185.5 194.128,-185.5 194.128,-153.5 73.666,-153.5"/>
<text text-anchor="start" x="81.666" y="-172.5" font-family="Helvetica,sans-Serif" font-size="10.00" fill="#000000">LibBBB::ManagerPRUs</text>
<text text-anchor="middle" x="133.897" y="-160.5" font-family="Helvetica,sans-Serif" font-size="10.00" fill="#000000">::instance</text>
</a>
</g>
</g>
<!-- Node0&#45;&gt;Node1 -->
<g id="edge1" class="edge">
<title>Node0&#45;&gt;Node1</title>
<path fill="none" stroke="#191970" d="M27.6277,-102.8626C37.7694,-114.2929 55.4033,-132.6349 73.666,-144.5 75.946,-145.9813 78.3284,-147.4047 80.7737,-148.768"/>
<polygon fill="#191970" stroke="#191970" points="79.3416,-151.9674 89.8339,-153.4378 82.5486,-145.7453 79.3416,-151.9674"/>
</g>
<!-- Node2 -->
<g id="node3" class="node">
<title>Node2</title>
<g id="a_node3"><a xlink:href="classVehicleControl_1_1Control.html#aa050ea7668adf370680b812948b07a9e" target="_top" xlink:title="instance method is the Singleton method of creating and accessing this class. This ensures there can ...">
<polygon fill="#ffffff" stroke="#000000" points="74.503,-102.5 74.503,-134.5 193.291,-134.5 193.291,-102.5 74.503,-102.5"/>
<text text-anchor="start" x="82.503" y="-121.5" font-family="Helvetica,sans-Serif" font-size="10.00" fill="#000000">VehicleControl::Control</text>
<text text-anchor="middle" x="133.897" y="-109.5" font-family="Helvetica,sans-Serif" font-size="10.00" fill="#000000">::instance</text>
</a>
</g>
</g>
<!-- Node0&#45;&gt;Node2 -->
<g id="edge2" class="edge">
<title>Node0&#45;&gt;Node2</title>
<path fill="none" stroke="#191970" d="M37.8335,-96.7934C45.3974,-98.5025 54.6059,-100.5833 64.2926,-102.7721"/>
<polygon fill="#191970" stroke="#191970" points="63.5698,-106.197 74.0954,-104.9871 65.1127,-99.3691 63.5698,-106.197"/>
</g>
<!-- Node3 -->
<g id="node4" class="node">
<title>Node3</title>
<g id="a_node4"><a xlink:href="classVehicleControl_1_1Control.html#a8242c18c2d4eb8cede01197068794ee4" target="_top" xlink:title="isRunning getter ">
<polygon fill="#ffffff" stroke="#000000" points="74.503,-51.5 74.503,-83.5 193.291,-83.5 193.291,-51.5 74.503,-51.5"/>
<text text-anchor="start" x="82.503" y="-70.5" font-family="Helvetica,sans-Serif" font-size="10.00" fill="#000000">VehicleControl::Control</text>
<text text-anchor="middle" x="133.897" y="-58.5" font-family="Helvetica,sans-Serif" font-size="10.00" fill="#000000">::isRunning</text>
</a>
</g>
</g>
<!-- Node0&#45;&gt;Node3 -->
<g id="edge3" class="edge">
<title>Node0&#45;&gt;Node3</title>
<path fill="none" stroke="#191970" d="M37.8335,-88.3718C45.3974,-86.7283 54.6059,-84.7276 64.2926,-82.623"/>
<polygon fill="#191970" stroke="#191970" points="65.0665,-86.0366 74.0954,-80.4931 63.5802,-79.1962 65.0665,-86.0366"/>
</g>
<!-- Node4 -->
<g id="node5" class="node">
<title>Node4</title>
<g id="a_node5"><a xlink:href="classVehicleControl_1_1Control.html#af677fb9565407041290bbf7b681802e5" target="_top" xlink:title="update method that controls the vehicle ">
<polygon fill="#ffffff" stroke="#000000" points="74.503,-.5 74.503,-32.5 193.291,-32.5 193.291,-.5 74.503,-.5"/>
<text text-anchor="start" x="82.503" y="-19.5" font-family="Helvetica,sans-Serif" font-size="10.00" fill="#000000">VehicleControl::Control</text>
<text text-anchor="middle" x="133.897" y="-7.5" font-family="Helvetica,sans-Serif" font-size="10.00" fill="#000000">::update</text>
</a>
</g>
</g>
<!-- Node0&#45;&gt;Node4 -->
<g id="edge4" class="edge">
<title>Node0&#45;&gt;Node4</title>
<path fill="none" stroke="#191970" d="M28.1113,-82.2099C38.4055,-71.2585 55.9171,-53.9623 73.666,-42.5 76.5767,-40.6203 79.6461,-38.8201 82.7956,-37.1072"/>
<polygon fill="#191970" stroke="#191970" points="84.4918,-40.1712 91.8175,-32.5171 81.3176,-33.9323 84.4918,-40.1712"/>
</g>
</g>
</svg>
