<?xml version="1.0" encoding="UTF-8" standalone="no"?>
<!DOCTYPE svg PUBLIC "-//W3C//DTD SVG 1.1//EN"
 "http://www.w3.org/Graphics/SVG/1.1/DTD/svg11.dtd">
<!-- Generated by graphviz version 2.40.1 (20161225.0304)
 -->
<!-- Title: /home/jc/Documents/School/SeniorDesign/ControlCode/MainApplication/Headers/PRU/ManagerPRUs.h Pages: 1 -->
<svg width="165pt" height="122pt"
 viewBox="0.00 0.00 165.13 122.00" xmlns="http://www.w3.org/2000/svg" xmlns:xlink="http://www.w3.org/1999/xlink">
<g id="graph0" class="graph" transform="scale(1 1) rotate(0) translate(4 118)">
<title>/home/jc/Documents/School/SeniorDesign/ControlCode/MainApplication/Headers/PRU/ManagerPRUs.h</title>
<polygon fill="#ffffff" stroke="transparent" points="-4,4 -4,-118 161.126,-118 161.126,4 -4,4"/>
<!-- Node0 -->
<g id="node1" class="node">
<title>Node0</title>
<polygon fill="#bfbfbf" stroke="#000000" points="0,-57.5 0,-113.5 157.126,-113.5 157.126,-57.5 0,-57.5"/>
<text text-anchor="start" x="8" y="-100.5" font-family="Helvetica,sans-Serif" font-size="10.00" fill="#000000">/home/jc/Documents</text>
<text text-anchor="start" x="8" y="-88.5" font-family="Helvetica,sans-Serif" font-size="10.00" fill="#000000">/School/SeniorDesign</text>
<text text-anchor="start" x="8" y="-76.5" font-family="Helvetica,sans-Serif" font-size="10.00" fill="#000000">/ControlCode/MainApplication</text>
<text text-anchor="middle" x="78.563" y="-64.5" font-family="Helvetica,sans-Serif" font-size="10.00" fill="#000000">/Headers/PRU/ManagerPRUs.h</text>
</g>
<!-- Node1 -->
<g id="node2" class="node">
<title>Node1</title>
<polygon fill="#ffffff" stroke="#bfbfbf" points="54.4465,-.5 54.4465,-20.5 102.6795,-20.5 102.6795,-.5 54.4465,-.5"/>
<text text-anchor="middle" x="78.563" y="-7.5" font-family="Helvetica,sans-Serif" font-size="10.00" fill="#000000">stdint.h</text>
</g>
<!-- Node0&#45;&gt;Node1 -->
<g id="edge1" class="edge">
<title>Node0&#45;&gt;Node1</title>
<path fill="none" stroke="#191970" d="M78.563,-57.1457C78.563,-48.3619 78.563,-38.8652 78.563,-30.7476"/>
<polygon fill="#191970" stroke="#191970" points="82.0631,-30.7295 78.563,-20.7296 75.0631,-30.7296 82.0631,-30.7295"/>
</g>
</g>
</svg>
