<?xml version="1.0" encoding="UTF-8" standalone="no"?>
<!DOCTYPE svg PUBLIC "-//W3C//DTD SVG 1.1//EN"
 "http://www.w3.org/Graphics/SVG/1.1/DTD/svg11.dtd">
<!-- Generated by graphviz version 2.40.1 (20161225.0304)
 -->
<!-- Title: ManagerPRUs.h Pages: 1 -->
<svg width="295pt" height="86pt"
 viewBox="0.00 0.00 294.51 86.00" xmlns="http://www.w3.org/2000/svg" xmlns:xlink="http://www.w3.org/1999/xlink">
<g id="graph0" class="graph" transform="scale(1 1) rotate(0) translate(4 82)">
<title>ManagerPRUs.h</title>
<polygon fill="#ffffff" stroke="transparent" points="-4,4 -4,-82 290.51,-82 290.51,4 -4,4"/>
<!-- Node2 -->
<g id="node1" class="node">
<title>Node2</title>
<polygon fill="#bfbfbf" stroke="#000000" points="76.3325,-57.5 76.3325,-77.5 166.2305,-77.5 166.2305,-57.5 76.3325,-57.5"/>
<text text-anchor="middle" x="121.2815" y="-64.5" font-family="Helvetica,sans-Serif" font-size="10.00" fill="#000000">ManagerPRUs.h</text>
</g>
<!-- Node3 -->
<g id="node2" class="node">
<title>Node3</title>
<g id="a_node2"><a xlink:href="main_8cpp.html" target="_top" xlink:title="main.cpp">
<polygon fill="#ffffff" stroke="#000000" points="0,-.5 0,-20.5 56.563,-20.5 56.563,-.5 0,-.5"/>
<text text-anchor="middle" x="28.2815" y="-7.5" font-family="Helvetica,sans-Serif" font-size="10.00" fill="#000000">main.cpp</text>
</a>
</g>
</g>
<!-- Node2&#45;&gt;Node3 -->
<g id="edge1" class="edge">
<title>Node2&#45;&gt;Node3</title>
<path fill="none" stroke="#191970" d="M96.1193,-52.078C79.7997,-42.0757 59.0029,-29.3293 44.7641,-20.6022"/>
<polygon fill="#191970" stroke="#191970" points="94.3,-55.068 104.655,-57.3095 97.9579,-49.0998 94.3,-55.068"/>
</g>
<!-- Node4 -->
<g id="node3" class="node">
<title>Node4</title>
<g id="a_node3"><a xlink:href="MotorControl_8cpp.html" target="_top" xlink:title="MotorControl.cpp">
<polygon fill="#ffffff" stroke="#000000" points="74.944,-.5 74.944,-20.5 167.619,-20.5 167.619,-.5 74.944,-.5"/>
<text text-anchor="middle" x="121.2815" y="-7.5" font-family="Helvetica,sans-Serif" font-size="10.00" fill="#000000">MotorControl.cpp</text>
</a>
</g>
</g>
<!-- Node2&#45;&gt;Node4 -->
<g id="edge2" class="edge">
<title>Node2&#45;&gt;Node4</title>
<path fill="none" stroke="#191970" d="M121.2815,-47.1771C121.2815,-38.1625 121.2815,-27.9556 121.2815,-20.6022"/>
<polygon fill="#191970" stroke="#191970" points="117.7816,-47.3095 121.2815,-57.3095 124.7816,-47.3096 117.7816,-47.3095"/>
</g>
<!-- Node5 -->
<g id="node4" class="node">
<title>Node5</title>
<g id="a_node4"><a xlink:href="ManagerPRUs_8cpp.html" target="_top" xlink:title="ManagerPRUs.cpp">
<polygon fill="#ffffff" stroke="#000000" points="186.053,-.5 186.053,-20.5 286.51,-20.5 286.51,-.5 186.053,-.5"/>
<text text-anchor="middle" x="236.2815" y="-7.5" font-family="Helvetica,sans-Serif" font-size="10.00" fill="#000000">ManagerPRUs.cpp</text>
</a>
</g>
</g>
<!-- Node2&#45;&gt;Node5 -->
<g id="edge3" class="edge">
<title>Node2&#45;&gt;Node5</title>
<path fill="none" stroke="#191970" d="M150.7308,-52.9034C171.1075,-42.8036 197.7092,-29.6185 215.8026,-20.6504"/>
<polygon fill="#191970" stroke="#191970" points="148.9819,-49.8638 141.5765,-57.4408 152.0906,-56.1357 148.9819,-49.8638"/>
</g>
</g>
</svg>
