<?xml version="1.0" encoding="UTF-8" standalone="no"?>
<!DOCTYPE svg PUBLIC "-//W3C//DTD SVG 1.1//EN"
 "http://www.w3.org/Graphics/SVG/1.1/DTD/svg11.dtd">
<!-- Generated by graphviz version 2.40.1 (20161225.0304)
 -->
<!-- Title: /home/jc/Documents/School/SeniorDesign/ControlCode/MainApplication/Sources/PRU/ManagerPRUs.cpp Pages: 1 -->
<svg width="632pt" height="179pt"
 viewBox="0.00 0.00 631.68 179.00" xmlns="http://www.w3.org/2000/svg" xmlns:xlink="http://www.w3.org/1999/xlink">
<g id="graph0" class="graph" transform="scale(1 1) rotate(0) translate(4 175)">
<title>/home/jc/Documents/School/SeniorDesign/ControlCode/MainApplication/Sources/PRU/ManagerPRUs.cpp</title>
<polygon fill="#ffffff" stroke="transparent" points="-4,4 -4,-175 627.676,-175 627.676,4 -4,4"/>
<!-- Node0 -->
<g id="node1" class="node">
<title>Node0</title>
<polygon fill="#bfbfbf" stroke="#000000" points="259.661,-114.5 259.661,-170.5 426.237,-170.5 426.237,-114.5 259.661,-114.5"/>
<text text-anchor="start" x="267.661" y="-157.5" font-family="Helvetica,sans-Serif" font-size="10.00" fill="#000000">/home/jc/Documents</text>
<text text-anchor="start" x="267.661" y="-145.5" font-family="Helvetica,sans-Serif" font-size="10.00" fill="#000000">/School/SeniorDesign</text>
<text text-anchor="start" x="267.661" y="-133.5" font-family="Helvetica,sans-Serif" font-size="10.00" fill="#000000">/ControlCode/MainApplication</text>
<text text-anchor="middle" x="342.949" y="-121.5" font-family="Helvetica,sans-Serif" font-size="10.00" fill="#000000">/Sources/PRU/ManagerPRUs.cpp</text>
</g>
<!-- Node1 -->
<g id="node2" class="node">
<title>Node1</title>
<g id="a_node2"><a xlink:href="ManagerPRUs_8h.html" target="_top" xlink:title="ManagerPRUs.h">
<polygon fill="#ffffff" stroke="#000000" points="0,-57.5 0,-77.5 89.898,-77.5 89.898,-57.5 0,-57.5"/>
<text text-anchor="middle" x="44.949" y="-64.5" font-family="Helvetica,sans-Serif" font-size="10.00" fill="#000000">ManagerPRUs.h</text>
</a>
</g>
</g>
<!-- Node0&#45;&gt;Node1 -->
<g id="edge1" class="edge">
<title>Node0&#45;&gt;Node1</title>
<path fill="none" stroke="#191970" d="M259.5431,-121.5086C206.5571,-108.1732 139.7443,-91.3579 94.8658,-80.063"/>
<polygon fill="#191970" stroke="#191970" points="95.627,-76.6454 85.0751,-77.5989 93.9184,-83.4338 95.627,-76.6454"/>
</g>
<!-- Node3 -->
<g id="node4" class="node">
<title>Node3</title>
<g id="a_node4"><a xlink:href="PRUDefinitions_8h.html" target="_top" xlink:title="PRUDefinitions.h">
<polygon fill="#ffffff" stroke="#000000" points="107.8915,-57.5 107.8915,-77.5 200.0065,-77.5 200.0065,-57.5 107.8915,-57.5"/>
<text text-anchor="middle" x="153.949" y="-64.5" font-family="Helvetica,sans-Serif" font-size="10.00" fill="#000000">PRUDefinitions.h</text>
</a>
</g>
</g>
<!-- Node0&#45;&gt;Node3 -->
<g id="edge3" class="edge">
<title>Node0&#45;&gt;Node3</title>
<path fill="none" stroke="#191970" d="M272.3036,-114.4661C243.8633,-103.1803 212.3386,-90.6705 188.9801,-81.4012"/>
<polygon fill="#191970" stroke="#191970" points="190.088,-78.0754 179.5021,-77.6401 187.506,-84.5819 190.088,-78.0754"/>
</g>
<!-- Node4 -->
<g id="node5" class="node">
<title>Node4</title>
<polygon fill="#ffffff" stroke="#bfbfbf" points="217.612,-57.5 217.612,-77.5 260.286,-77.5 260.286,-57.5 217.612,-57.5"/>
<text text-anchor="middle" x="238.949" y="-64.5" font-family="Helvetica,sans-Serif" font-size="10.00" fill="#000000">fcntl.h</text>
</g>
<!-- Node0&#45;&gt;Node4 -->
<g id="edge4" class="edge">
<title>Node0&#45;&gt;Node4</title>
<path fill="none" stroke="#191970" d="M303.9273,-114.3594C289.5495,-103.9907 273.7574,-92.6022 261.3422,-83.649"/>
<polygon fill="#191970" stroke="#191970" points="263.1255,-80.6198 252.9673,-77.6094 259.031,-86.2974 263.1255,-80.6198"/>
</g>
<!-- Node5 -->
<g id="node6" class="node">
<title>Node5</title>
<polygon fill="#ffffff" stroke="#bfbfbf" points="278.4425,-57.5 278.4425,-77.5 329.4555,-77.5 329.4555,-57.5 278.4425,-57.5"/>
<text text-anchor="middle" x="303.949" y="-64.5" font-family="Helvetica,sans-Serif" font-size="10.00" fill="#000000">unistd.h</text>
</g>
<!-- Node0&#45;&gt;Node5 -->
<g id="edge5" class="edge">
<title>Node0&#45;&gt;Node5</title>
<path fill="none" stroke="#191970" d="M328.2048,-114.1457C323.4296,-104.9627 318.2492,-95.0004 313.9067,-86.6494"/>
<polygon fill="#191970" stroke="#191970" points="316.9872,-84.987 309.2684,-77.7296 310.7767,-88.2165 316.9872,-84.987"/>
</g>
<!-- Node6 -->
<g id="node7" class="node">
<title>Node6</title>
<polygon fill="#ffffff" stroke="#bfbfbf" points="347.0025,-57.5 347.0025,-77.5 416.8955,-77.5 416.8955,-57.5 347.0025,-57.5"/>
<text text-anchor="middle" x="381.949" y="-64.5" font-family="Helvetica,sans-Serif" font-size="10.00" fill="#000000">sys/mman.h</text>
</g>
<!-- Node0&#45;&gt;Node6 -->
<g id="edge6" class="edge">
<title>Node0&#45;&gt;Node6</title>
<path fill="none" stroke="#191970" d="M357.6932,-114.1457C362.4684,-104.9627 367.6488,-95.0004 371.9913,-86.6494"/>
<polygon fill="#191970" stroke="#191970" points="375.1213,-88.2165 376.6296,-77.7296 368.9108,-84.987 375.1213,-88.2165"/>
</g>
<!-- Node7 -->
<g id="node8" class="node">
<title>Node7</title>
<polygon fill="#ffffff" stroke="#bfbfbf" points="434.5575,-57.5 434.5575,-77.5 483.3405,-77.5 483.3405,-57.5 434.5575,-57.5"/>
<text text-anchor="middle" x="458.949" y="-64.5" font-family="Helvetica,sans-Serif" font-size="10.00" fill="#000000">string.h</text>
</g>
<!-- Node0&#45;&gt;Node7 -->
<g id="edge7" class="edge">
<title>Node0&#45;&gt;Node7</title>
<path fill="none" stroke="#191970" d="M386.4731,-114.3594C402.8214,-103.7894 420.8088,-92.1596 434.7743,-83.1302"/>
<polygon fill="#191970" stroke="#191970" points="436.8159,-85.9781 443.3132,-77.6094 433.0152,-80.0997 436.8159,-85.9781"/>
</g>
<!-- Node8 -->
<g id="node9" class="node">
<title>Node8</title>
<polygon fill="#ffffff" stroke="#bfbfbf" points="501.552,-57.5 501.552,-77.5 560.346,-77.5 560.346,-57.5 501.552,-57.5"/>
<text text-anchor="middle" x="530.949" y="-64.5" font-family="Helvetica,sans-Serif" font-size="10.00" fill="#000000">stdexcept</text>
</g>
<!-- Node0&#45;&gt;Node8 -->
<g id="edge8" class="edge">
<title>Node0&#45;&gt;Node8</title>
<path fill="none" stroke="#191970" d="M413.2206,-114.4661C441.5104,-103.1803 472.8683,-90.6705 496.1032,-81.4012"/>
<polygon fill="#191970" stroke="#191970" points="497.5398,-84.5964 505.5311,-77.6401 494.946,-78.0947 497.5398,-84.5964"/>
</g>
<!-- Node9 -->
<g id="node10" class="node">
<title>Node9</title>
<polygon fill="#ffffff" stroke="#bfbfbf" points="578.222,-57.5 578.222,-77.5 623.676,-77.5 623.676,-57.5 578.222,-57.5"/>
<text text-anchor="middle" x="600.949" y="-64.5" font-family="Helvetica,sans-Serif" font-size="10.00" fill="#000000">stdio.h</text>
</g>
<!-- Node0&#45;&gt;Node9 -->
<g id="edge9" class="edge">
<title>Node0&#45;&gt;Node9</title>
<path fill="none" stroke="#191970" d="M426.3615,-119.5332C466.6097,-108.2514 515.7858,-94.1768 568.1066,-78.1862"/>
<polygon fill="#191970" stroke="#191970" points="569.3775,-81.4573 577.9112,-75.1783 567.3244,-74.7652 569.3775,-81.4573"/>
</g>
<!-- Node2 -->
<g id="node3" class="node">
<title>Node2</title>
<polygon fill="#ffffff" stroke="#bfbfbf" points="20.8325,-.5 20.8325,-20.5 69.0655,-20.5 69.0655,-.5 20.8325,-.5"/>
<text text-anchor="middle" x="44.949" y="-7.5" font-family="Helvetica,sans-Serif" font-size="10.00" fill="#000000">stdint.h</text>
</g>
<!-- Node1&#45;&gt;Node2 -->
<g id="edge2" class="edge">
<title>Node1&#45;&gt;Node2</title>
<path fill="none" stroke="#191970" d="M44.949,-57.3095C44.949,-49.9335 44.949,-39.72 44.949,-30.715"/>
<polygon fill="#191970" stroke="#191970" points="48.4491,-30.6022 44.949,-20.6022 41.4491,-30.6023 48.4491,-30.6022"/>
</g>
</g>
</svg>
