<?xml version="1.0" encoding="UTF-8" standalone="no"?>
<!DOCTYPE svg PUBLIC "-//W3C//DTD SVG 1.1//EN"
 "http://www.w3.org/Graphics/SVG/1.1/DTD/svg11.dtd">
<!-- Generated by graphviz version 2.40.1 (20161225.0304)
 -->
<!-- Title: ManagerPRUs.h Pages: 1 -->
<svg width="295pt" height="86pt"
 viewBox="0.00 0.00 294.62 86.00" xmlns="http://www.w3.org/2000/svg" xmlns:xlink="http://www.w3.org/1999/xlink">
<g id="graph0" class="graph" transform="scale(1 1) rotate(0) translate(4 82)">
<title>ManagerPRUs.h</title>
<polygon fill="#ffffff" stroke="transparent" points="-4,4 -4,-82 290.619,-82 290.619,4 -4,4"/>
<!-- Node2 -->
<g id="node1" class="node">
<title>Node2</title>
<polygon fill="#bfbfbf" stroke="#000000" points="116.3885,-57.5 116.3885,-77.5 206.2865,-77.5 206.2865,-57.5 116.3885,-57.5"/>
<text text-anchor="middle" x="161.3375" y="-64.5" font-family="Helvetica,sans-Serif" font-size="10.00" fill="#000000">ManagerPRUs.h</text>
</g>
<!-- Node3 -->
<g id="node2" class="node">
<title>Node3</title>
<g id="a_node2"><a xlink:href="MotorControl_8cpp.html" target="_top" xlink:title="MotorControl.cpp">
<polygon fill="#ffffff" stroke="#000000" points="0,-.5 0,-20.5 92.675,-20.5 92.675,-.5 0,-.5"/>
<text text-anchor="middle" x="46.3375" y="-7.5" font-family="Helvetica,sans-Serif" font-size="10.00" fill="#000000">MotorControl.cpp</text>
</a>
</g>
</g>
<!-- Node2&#45;&gt;Node3 -->
<g id="edge1" class="edge">
<title>Node2&#45;&gt;Node3</title>
<path fill="none" stroke="#191970" d="M131.8882,-52.9034C111.5115,-42.8036 84.9098,-29.6185 66.8164,-20.6504"/>
<polygon fill="#191970" stroke="#191970" points="130.5284,-56.1357 141.0425,-57.4408 133.6371,-49.8638 130.5284,-56.1357"/>
</g>
<!-- Node4 -->
<g id="node3" class="node">
<title>Node4</title>
<g id="a_node3"><a xlink:href="ManagerPRUs_8cpp.html" target="_top" xlink:title="ManagerPRUs.cpp">
<polygon fill="#ffffff" stroke="#000000" points="111.109,-.5 111.109,-20.5 211.566,-20.5 211.566,-.5 111.109,-.5"/>
<text text-anchor="middle" x="161.3375" y="-7.5" font-family="Helvetica,sans-Serif" font-size="10.00" fill="#000000">ManagerPRUs.cpp</text>
</a>
</g>
</g>
<!-- Node2&#45;&gt;Node4 -->
<g id="edge2" class="edge">
<title>Node2&#45;&gt;Node4</title>
<path fill="none" stroke="#191970" d="M161.3375,-47.1771C161.3375,-38.1625 161.3375,-27.9556 161.3375,-20.6022"/>
<polygon fill="#191970" stroke="#191970" points="157.8376,-47.3095 161.3375,-57.3095 164.8376,-47.3096 157.8376,-47.3095"/>
</g>
<!-- Node5 -->
<g id="node4" class="node">
<title>Node5</title>
<g id="a_node4"><a xlink:href="main_8cpp.html" target="_top" xlink:title="main.cpp">
<polygon fill="#ffffff" stroke="#000000" points="230.056,-.5 230.056,-20.5 286.619,-20.5 286.619,-.5 230.056,-.5"/>
<text text-anchor="middle" x="258.3375" y="-7.5" font-family="Helvetica,sans-Serif" font-size="10.00" fill="#000000">main.cpp</text>
</a>
</g>
</g>
<!-- Node2&#45;&gt;Node5 -->
<g id="edge3" class="edge">
<title>Node2&#45;&gt;Node5</title>
<path fill="none" stroke="#191970" d="M187.582,-52.078C204.6034,-42.0757 226.2947,-29.3293 241.146,-20.6022"/>
<polygon fill="#191970" stroke="#191970" points="185.5276,-49.2256 178.6792,-57.3095 189.074,-55.2608 185.5276,-49.2256"/>
</g>
</g>
</svg>
