<?xml version="1.0" encoding="UTF-8" standalone="no"?>
<!DOCTYPE svg PUBLIC "-//W3C//DTD SVG 1.1//EN"
 "http://www.w3.org/Graphics/SVG/1.1/DTD/svg11.dtd">
<!-- Generated by graphviz version 2.40.1 (20161225.0304)
 -->
<!-- Title: /home/jc/Documents/School/SeniorDesign/ControlCode/MainApplication/Headers/PRU/ManagerPRUs.h Pages: 1 -->
<svg width="554pt" height="158pt"
 viewBox="0.00 0.00 554.41 158.00" xmlns="http://www.w3.org/2000/svg" xmlns:xlink="http://www.w3.org/1999/xlink">
<g id="graph0" class="graph" transform="scale(1 1) rotate(0) translate(4 154)">
<title>/home/jc/Documents/School/SeniorDesign/ControlCode/MainApplication/Headers/PRU/ManagerPRUs.h</title>
<polygon fill="#ffffff" stroke="transparent" points="-4,4 -4,-154 550.4095,-154 550.4095,4 -4,4"/>
<!-- Node2 -->
<g id="node1" class="node">
<title>Node2</title>
<polygon fill="#bfbfbf" stroke="#000000" points="185.5585,-93.5 185.5585,-149.5 342.6845,-149.5 342.6845,-93.5 185.5585,-93.5"/>
<text text-anchor="start" x="193.5585" y="-136.5" font-family="Helvetica,sans-Serif" font-size="10.00" fill="#000000">/home/jc/Documents</text>
<text text-anchor="start" x="193.5585" y="-124.5" font-family="Helvetica,sans-Serif" font-size="10.00" fill="#000000">/School/SeniorDesign</text>
<text text-anchor="start" x="193.5585" y="-112.5" font-family="Helvetica,sans-Serif" font-size="10.00" fill="#000000">/ControlCode/MainApplication</text>
<text text-anchor="middle" x="264.1215" y="-100.5" font-family="Helvetica,sans-Serif" font-size="10.00" fill="#000000">/Headers/PRU/ManagerPRUs.h</text>
</g>
<!-- Node3 -->
<g id="node2" class="node">
<title>Node3</title>
<g id="a_node2"><a xlink:href="main_8cpp.html" target="_top" xlink:title="/home/jc/Documents\l/School/SeniorDesign\l/ControlCode/MainApplication\l/main.cpp">
<polygon fill="#ffffff" stroke="#000000" points="0,-.5 0,-56.5 148.243,-56.5 148.243,-.5 0,-.5"/>
<text text-anchor="start" x="8" y="-43.5" font-family="Helvetica,sans-Serif" font-size="10.00" fill="#000000">/home/jc/Documents</text>
<text text-anchor="start" x="8" y="-31.5" font-family="Helvetica,sans-Serif" font-size="10.00" fill="#000000">/School/SeniorDesign</text>
<text text-anchor="start" x="8" y="-19.5" font-family="Helvetica,sans-Serif" font-size="10.00" fill="#000000">/ControlCode/MainApplication</text>
<text text-anchor="middle" x="74.1215" y="-7.5" font-family="Helvetica,sans-Serif" font-size="10.00" fill="#000000">/main.cpp</text>
</a>
</g>
</g>
<!-- Node2&#45;&gt;Node3 -->
<g id="edge1" class="edge">
<title>Node2&#45;&gt;Node3</title>
<path fill="none" stroke="#191970" d="M197.7626,-89.0191C176.1965,-78.463 152.4579,-66.8436 131.596,-56.6323"/>
<polygon fill="#191970" stroke="#191970" points="196.3371,-92.218 206.8576,-93.4708 199.4145,-85.9308 196.3371,-92.218"/>
</g>
<!-- Node4 -->
<g id="node3" class="node">
<title>Node4</title>
<g id="a_node3"><a xlink:href="MotorControl_8cpp.html" target="_top" xlink:title="/home/jc/Documents\l/School/SeniorDesign\l/ControlCode/MainApplication\l/Sources/MotorControl/MotorControl.cpp">
<polygon fill="#ffffff" stroke="#000000" points="166.389,-.5 166.389,-56.5 361.854,-56.5 361.854,-.5 166.389,-.5"/>
<text text-anchor="start" x="174.389" y="-43.5" font-family="Helvetica,sans-Serif" font-size="10.00" fill="#000000">/home/jc/Documents</text>
<text text-anchor="start" x="174.389" y="-31.5" font-family="Helvetica,sans-Serif" font-size="10.00" fill="#000000">/School/SeniorDesign</text>
<text text-anchor="start" x="174.389" y="-19.5" font-family="Helvetica,sans-Serif" font-size="10.00" fill="#000000">/ControlCode/MainApplication</text>
<text text-anchor="middle" x="264.1215" y="-7.5" font-family="Helvetica,sans-Serif" font-size="10.00" fill="#000000">/Sources/MotorControl/MotorControl.cpp</text>
</a>
</g>
</g>
<!-- Node2&#45;&gt;Node4 -->
<g id="edge2" class="edge">
<title>Node2&#45;&gt;Node4</title>
<path fill="none" stroke="#191970" d="M264.1215,-83.1582C264.1215,-74.2499 264.1215,-64.9293 264.1215,-56.5597"/>
<polygon fill="#191970" stroke="#191970" points="260.6216,-83.3445 264.1215,-93.3446 267.6216,-83.3446 260.6216,-83.3445"/>
</g>
<!-- Node5 -->
<g id="node4" class="node">
<title>Node5</title>
<g id="a_node4"><a xlink:href="ManagerPRUs_8cpp.html" target="_top" xlink:title="/home/jc/Documents\l/School/SeniorDesign\l/ControlCode/MainApplication\l/Sources/PRU/ManagerPRUs.cpp">
<polygon fill="#ffffff" stroke="#000000" points="379.8335,-.5 379.8335,-56.5 546.4095,-56.5 546.4095,-.5 379.8335,-.5"/>
<text text-anchor="start" x="387.8335" y="-43.5" font-family="Helvetica,sans-Serif" font-size="10.00" fill="#000000">/home/jc/Documents</text>
<text text-anchor="start" x="387.8335" y="-31.5" font-family="Helvetica,sans-Serif" font-size="10.00" fill="#000000">/School/SeniorDesign</text>
<text text-anchor="start" x="387.8335" y="-19.5" font-family="Helvetica,sans-Serif" font-size="10.00" fill="#000000">/ControlCode/MainApplication</text>
<text text-anchor="middle" x="463.1215" y="-7.5" font-family="Helvetica,sans-Serif" font-size="10.00" fill="#000000">/Sources/PRU/ManagerPRUs.cpp</text>
</a>
</g>
</g>
<!-- Node2&#45;&gt;Node5 -->
<g id="edge3" class="edge">
<title>Node2&#45;&gt;Node5</title>
<path fill="none" stroke="#191970" d="M333.3213,-89.1604C355.9894,-78.5668 380.9769,-66.8892 402.9245,-56.6323"/>
<polygon fill="#191970" stroke="#191970" points="331.6756,-86.0661 324.0979,-93.4708 334.6393,-92.4078 331.6756,-86.0661"/>
</g>
</g>
</svg>
