<?xml version="1.0" encoding="UTF-8" standalone="no"?>
<!DOCTYPE svg PUBLIC "-//W3C//DTD SVG 1.1//EN"
 "http://www.w3.org/Graphics/SVG/1.1/DTD/svg11.dtd">
<!-- Generated by graphviz version 2.40.1 (20161225.0304)
 -->
<!-- Title: MotorControl.h Pages: 1 -->
<svg width="427pt" height="143pt"
 viewBox="0.00 0.00 427.08 143.00" xmlns="http://www.w3.org/2000/svg" xmlns:xlink="http://www.w3.org/1999/xlink">
<g id="graph0" class="graph" transform="scale(1 1) rotate(0) translate(4 139)">
<title>MotorControl.h</title>
<polygon fill="#ffffff" stroke="transparent" points="-4,4 -4,-139 423.0785,-139 423.0785,4 -4,4"/>
<!-- Node3 -->
<g id="node1" class="node">
<title>Node3</title>
<polygon fill="#bfbfbf" stroke="#000000" points="222.683,-114.5 222.683,-134.5 304.799,-134.5 304.799,-114.5 222.683,-114.5"/>
<text text-anchor="middle" x="263.741" y="-121.5" font-family="Helvetica,sans-Serif" font-size="10.00" fill="#000000">MotorControl.h</text>
</g>
<!-- Node4 -->
<g id="node2" class="node">
<title>Node4</title>
<g id="a_node2"><a xlink:href="ServoControl_8h.html" target="_top" xlink:title="ServoControl.h">
<polygon fill="#ffffff" stroke="#000000" points="188.4025,-57.5 188.4025,-77.5 271.0795,-77.5 271.0795,-57.5 188.4025,-57.5"/>
<text text-anchor="middle" x="229.741" y="-64.5" font-family="Helvetica,sans-Serif" font-size="10.00" fill="#000000">ServoControl.h</text>
</a>
</g>
</g>
<!-- Node3&#45;&gt;Node4 -->
<g id="edge1" class="edge">
<title>Node3&#45;&gt;Node4</title>
<path fill="none" stroke="#191970" d="M252.4981,-105.6515C246.9156,-96.2928 240.3941,-85.3596 235.7669,-77.6022"/>
<polygon fill="#191970" stroke="#191970" points="249.5338,-107.5143 257.6625,-114.3095 255.5455,-103.9283 249.5338,-107.5143"/>
</g>
<!-- Node5 -->
<g id="node3" class="node">
<title>Node5</title>
<g id="a_node3"><a xlink:href="BoeingSurfaceVehicleControl_8cpp.html" target="_top" xlink:title="BoeingSurfaceVehicleControl.cpp">
<polygon fill="#ffffff" stroke="#000000" points="0,-.5 0,-20.5 165.482,-20.5 165.482,-.5 0,-.5"/>
<text text-anchor="middle" x="82.741" y="-7.5" font-family="Helvetica,sans-Serif" font-size="10.00" fill="#000000">BoeingSurfaceVehicleControl.cpp</text>
</a>
</g>
</g>
<!-- Node3&#45;&gt;Node5 -->
<g id="edge5" class="edge">
<title>Node3&#45;&gt;Node5</title>
<path fill="none" stroke="#191970" d="M234.9635,-109.5122C218.5471,-100.7296 197.7219,-89.1923 179.741,-78 149.0857,-58.9184 114.7338,-34.1697 96.2575,-20.5652"/>
<polygon fill="#191970" stroke="#191970" points="233.5909,-112.746 244.065,-114.3415 236.872,-106.5626 233.5909,-112.746"/>
</g>
<!-- Node6 -->
<g id="node4" class="node">
<title>Node6</title>
<g id="a_node4"><a xlink:href="IOFactory_8cpp.html" target="_top" xlink:title="IOFactory.cpp">
<polygon fill="#ffffff" stroke="#000000" points="294.346,-.5 294.346,-20.5 373.136,-20.5 373.136,-.5 294.346,-.5"/>
<text text-anchor="middle" x="333.741" y="-7.5" font-family="Helvetica,sans-Serif" font-size="10.00" fill="#000000">IOFactory.cpp</text>
</a>
</g>
</g>
<!-- Node3&#45;&gt;Node6 -->
<g id="edge6" class="edge">
<title>Node3&#45;&gt;Node6</title>
<path fill="none" stroke="#191970" d="M275.2822,-105.7043C290.2068,-81.3986 315.6771,-39.9183 327.4423,-20.7579"/>
<polygon fill="#191970" stroke="#191970" points="272.2031,-104.0301 269.953,-114.3833 278.1683,-107.693 272.2031,-104.0301"/>
</g>
<!-- Node8 -->
<g id="node6" class="node">
<title>Node8</title>
<g id="a_node6"><a xlink:href="MotorControl_8cpp.html" target="_top" xlink:title="MotorControl.cpp">
<polygon fill="#ffffff" stroke="#000000" points="326.4035,-57.5 326.4035,-77.5 419.0785,-77.5 419.0785,-57.5 326.4035,-57.5"/>
<text text-anchor="middle" x="372.741" y="-64.5" font-family="Helvetica,sans-Serif" font-size="10.00" fill="#000000">MotorControl.cpp</text>
</a>
</g>
</g>
<!-- Node3&#45;&gt;Node8 -->
<g id="edge7" class="edge">
<title>Node3&#45;&gt;Node8</title>
<path fill="none" stroke="#191970" d="M291.9164,-109.7661C311.1954,-99.6844 336.2587,-86.5779 353.3306,-77.6504"/>
<polygon fill="#191970" stroke="#191970" points="290.2167,-106.7052 282.9771,-114.4408 293.4605,-112.9082 290.2167,-106.7052"/>
</g>
<!-- Node4&#45;&gt;Node5 -->
<g id="edge2" class="edge">
<title>Node4&#45;&gt;Node5</title>
<path fill="none" stroke="#191970" d="M194.2006,-53.719C167.9047,-43.5227 132.6744,-29.8619 108.9184,-20.6504"/>
<polygon fill="#191970" stroke="#191970" points="193.2097,-57.0887 203.7987,-57.4408 195.7405,-50.5621 193.2097,-57.0887"/>
</g>
<!-- Node4&#45;&gt;Node6 -->
<g id="edge3" class="edge">
<title>Node4&#45;&gt;Node6</title>
<path fill="none" stroke="#191970" d="M257.1219,-52.4931C275.4818,-42.4305 299.1647,-29.4505 315.3089,-20.6022"/>
<polygon fill="#191970" stroke="#191970" points="255.4212,-49.434 248.3341,-57.3095 258.7856,-55.5725 255.4212,-49.434"/>
</g>
<!-- Node7 -->
<g id="node5" class="node">
<title>Node7</title>
<g id="a_node5"><a xlink:href="ServoControl_8cpp.html" target="_top" xlink:title="ServoControl.cpp">
<polygon fill="#ffffff" stroke="#000000" points="183.123,-.5 183.123,-20.5 276.359,-20.5 276.359,-.5 183.123,-.5"/>
<text text-anchor="middle" x="229.741" y="-7.5" font-family="Helvetica,sans-Serif" font-size="10.00" fill="#000000">ServoControl.cpp</text>
</a>
</g>
</g>
<!-- Node4&#45;&gt;Node7 -->
<g id="edge4" class="edge">
<title>Node4&#45;&gt;Node7</title>
<path fill="none" stroke="#191970" d="M229.741,-47.1771C229.741,-38.1625 229.741,-27.9556 229.741,-20.6022"/>
<polygon fill="#191970" stroke="#191970" points="226.2411,-47.3095 229.741,-57.3095 233.2411,-47.3096 226.2411,-47.3095"/>
</g>
</g>
</svg>
