<?xml version="1.0" encoding="UTF-8" standalone="no"?>
<!DOCTYPE svg PUBLIC "-//W3C//DTD SVG 1.1//EN"
 "http://www.w3.org/Graphics/SVG/1.1/DTD/svg11.dtd">
<!-- Generated by graphviz version 2.40.1 (20161225.0304)
 -->
<!-- Title: MotorControl.h Pages: 1 -->
<svg width="132pt" height="86pt"
 viewBox="0.00 0.00 132.24 86.00" xmlns="http://www.w3.org/2000/svg" xmlns:xlink="http://www.w3.org/1999/xlink">
<g id="graph0" class="graph" transform="scale(1 1) rotate(0) translate(4 82)">
<title>MotorControl.h</title>
<polygon fill="#ffffff" stroke="transparent" points="-4,4 -4,-82 128.237,-82 128.237,4 -4,4"/>
<!-- Node0 -->
<g id="node1" class="node">
<title>Node0</title>
<polygon fill="#bfbfbf" stroke="#000000" points="18.0585,-57.5 18.0585,-77.5 100.1745,-77.5 100.1745,-57.5 18.0585,-57.5"/>
<text text-anchor="middle" x="59.1165" y="-64.5" font-family="Helvetica,sans-Serif" font-size="10.00" fill="#000000">MotorControl.h</text>
</g>
<!-- Node1 -->
<g id="node2" class="node">
<title>Node1</title>
<polygon fill="#ffffff" stroke="#bfbfbf" points="0,-.5 0,-20.5 48.233,-20.5 48.233,-.5 0,-.5"/>
<text text-anchor="middle" x="24.1165" y="-7.5" font-family="Helvetica,sans-Serif" font-size="10.00" fill="#000000">stdint.h</text>
</g>
<!-- Node0&#45;&gt;Node1 -->
<g id="edge1" class="edge">
<title>Node0&#45;&gt;Node1</title>
<path fill="none" stroke="#191970" d="M52.8592,-57.3095C48.0812,-49.5282 41.3642,-38.589 35.6249,-29.2423"/>
<polygon fill="#191970" stroke="#191970" points="38.5349,-27.2925 30.3196,-20.6022 32.5697,-30.9554 38.5349,-27.2925"/>
</g>
<!-- Node2 -->
<g id="node3" class="node">
<title>Node2</title>
<polygon fill="#ffffff" stroke="#bfbfbf" points="65.996,-.5 65.996,-20.5 124.237,-20.5 124.237,-.5 65.996,-.5"/>
<text text-anchor="middle" x="95.1165" y="-7.5" font-family="Helvetica,sans-Serif" font-size="10.00" fill="#000000">pthread.h</text>
</g>
<!-- Node0&#45;&gt;Node2 -->
<g id="edge2" class="edge">
<title>Node0&#45;&gt;Node2</title>
<path fill="none" stroke="#191970" d="M65.5526,-57.3095C70.4671,-49.5282 77.3761,-38.589 83.2793,-29.2423"/>
<polygon fill="#191970" stroke="#191970" points="86.3554,-30.9261 88.7361,-20.6022 80.4369,-27.1881 86.3554,-30.9261"/>
</g>
</g>
</svg>
