<?xml version="1.0" encoding="UTF-8" standalone="no"?>
<!DOCTYPE svg PUBLIC "-//W3C//DTD SVG 1.1//EN"
 "http://www.w3.org/Graphics/SVG/1.1/DTD/svg11.dtd">
<!-- Generated by graphviz version 2.40.1 (20161225.0304)
 -->
<!-- Title: /home/jc/Documents/School/SeniorDesign/ControlCode/MainApplication/Sources/MotorControl/MotorControl.cpp Pages: 1 -->
<svg width="561pt" height="179pt"
 viewBox="0.00 0.00 560.68 179.00" xmlns="http://www.w3.org/2000/svg" xmlns:xlink="http://www.w3.org/1999/xlink">
<g id="graph0" class="graph" transform="scale(1 1) rotate(0) translate(4 175)">
<title>/home/jc/Documents/School/SeniorDesign/ControlCode/MainApplication/Sources/MotorControl/MotorControl.cpp</title>
<polygon fill="#ffffff" stroke="transparent" points="-4,4 -4,-175 556.677,-175 556.677,4 -4,4"/>
<!-- Node0 -->
<g id="node1" class="node">
<title>Node0</title>
<polygon fill="#bfbfbf" stroke="#000000" points="159.2165,-114.5 159.2165,-170.5 354.6815,-170.5 354.6815,-114.5 159.2165,-114.5"/>
<text text-anchor="start" x="167.2165" y="-157.5" font-family="Helvetica,sans-Serif" font-size="10.00" fill="#000000">/home/jc/Documents</text>
<text text-anchor="start" x="167.2165" y="-145.5" font-family="Helvetica,sans-Serif" font-size="10.00" fill="#000000">/School/SeniorDesign</text>
<text text-anchor="start" x="167.2165" y="-133.5" font-family="Helvetica,sans-Serif" font-size="10.00" fill="#000000">/ControlCode/MainApplication</text>
<text text-anchor="middle" x="256.949" y="-121.5" font-family="Helvetica,sans-Serif" font-size="10.00" fill="#000000">/Sources/MotorControl/MotorControl.cpp</text>
</g>
<!-- Node1 -->
<g id="node2" class="node">
<title>Node1</title>
<g id="a_node2"><a xlink:href="MotorControl_8h.html" target="_top" xlink:title="MotorControl.h">
<polygon fill="#ffffff" stroke="#000000" points="366.891,-57.5 366.891,-77.5 449.007,-77.5 449.007,-57.5 366.891,-57.5"/>
<text text-anchor="middle" x="407.949" y="-64.5" font-family="Helvetica,sans-Serif" font-size="10.00" fill="#000000">MotorControl.h</text>
</a>
</g>
</g>
<!-- Node0&#45;&gt;Node1 -->
<g id="edge1" class="edge">
<title>Node0&#45;&gt;Node1</title>
<path fill="none" stroke="#191970" d="M313.6054,-114.3594C335.697,-103.3867 360.0881,-91.272 378.5347,-82.1098"/>
<polygon fill="#191970" stroke="#191970" points="380.1963,-85.1924 387.5955,-77.6094 377.0824,-78.9232 380.1963,-85.1924"/>
</g>
<!-- Node4 -->
<g id="node5" class="node">
<title>Node4</title>
<polygon fill="#ffffff" stroke="#bfbfbf" points="108.336,-57.5 108.336,-77.5 151.562,-77.5 151.562,-57.5 108.336,-57.5"/>
<text text-anchor="middle" x="129.949" y="-64.5" font-family="Helvetica,sans-Serif" font-size="10.00" fill="#000000">cmath</text>
</g>
<!-- Node0&#45;&gt;Node4 -->
<g id="edge4" class="edge">
<title>Node0&#45;&gt;Node4</title>
<path fill="none" stroke="#191970" d="M209.2976,-114.3594C191.2286,-103.6887 171.3306,-91.938 155.9805,-82.8729"/>
<polygon fill="#191970" stroke="#191970" points="157.4579,-79.6807 147.0675,-77.6094 153.8984,-85.7081 157.4579,-79.6807"/>
</g>
<!-- Node5 -->
<g id="node6" class="node">
<title>Node5</title>
<polygon fill="#ffffff" stroke="#bfbfbf" points="169.667,-57.5 169.667,-77.5 216.231,-77.5 216.231,-57.5 169.667,-57.5"/>
<text text-anchor="middle" x="192.949" y="-64.5" font-family="Helvetica,sans-Serif" font-size="10.00" fill="#000000">math.h</text>
</g>
<!-- Node0&#45;&gt;Node5 -->
<g id="edge5" class="edge">
<title>Node0&#45;&gt;Node5</title>
<path fill="none" stroke="#191970" d="M232.7533,-114.1457C224.5764,-104.5634 215.6755,-94.1326 208.3683,-85.5695"/>
<polygon fill="#191970" stroke="#191970" points="210.8319,-83.0645 201.6782,-77.7296 205.507,-87.6084 210.8319,-83.0645"/>
</g>
<!-- Node6 -->
<g id="node7" class="node">
<title>Node6</title>
<polygon fill="#ffffff" stroke="#bfbfbf" points="234.222,-57.5 234.222,-77.5 279.676,-77.5 279.676,-57.5 234.222,-57.5"/>
<text text-anchor="middle" x="256.949" y="-64.5" font-family="Helvetica,sans-Serif" font-size="10.00" fill="#000000">stdio.h</text>
</g>
<!-- Node0&#45;&gt;Node6 -->
<g id="edge6" class="edge">
<title>Node0&#45;&gt;Node6</title>
<path fill="none" stroke="#191970" d="M256.949,-114.1457C256.949,-105.3619 256.949,-95.8652 256.949,-87.7476"/>
<polygon fill="#191970" stroke="#191970" points="260.4491,-87.7295 256.949,-77.7296 253.4491,-87.7296 260.4491,-87.7295"/>
</g>
<!-- Node7 -->
<g id="node8" class="node">
<title>Node7</title>
<polygon fill="#ffffff" stroke="#bfbfbf" points="297.4425,-57.5 297.4425,-77.5 348.4555,-77.5 348.4555,-57.5 297.4425,-57.5"/>
<text text-anchor="middle" x="322.949" y="-64.5" font-family="Helvetica,sans-Serif" font-size="10.00" fill="#000000">unistd.h</text>
</g>
<!-- Node0&#45;&gt;Node7 -->
<g id="edge7" class="edge">
<title>Node0&#45;&gt;Node7</title>
<path fill="none" stroke="#191970" d="M281.9008,-114.1457C290.421,-104.4636 299.7036,-93.9152 307.2828,-85.3025"/>
<polygon fill="#191970" stroke="#191970" points="309.9682,-87.5489 313.947,-77.7296 304.7132,-82.9245 309.9682,-87.5489"/>
</g>
<!-- Node8 -->
<g id="node9" class="node">
<title>Node8</title>
<g id="a_node9"><a xlink:href="ManagerPRUs_8h.html" target="_top" xlink:title="ManagerPRUs.h">
<polygon fill="#ffffff" stroke="#000000" points="0,-57.5 0,-77.5 89.898,-77.5 89.898,-57.5 0,-57.5"/>
<text text-anchor="middle" x="44.949" y="-64.5" font-family="Helvetica,sans-Serif" font-size="10.00" fill="#000000">ManagerPRUs.h</text>
</a>
</g>
</g>
<!-- Node0&#45;&gt;Node8 -->
<g id="edge8" class="edge">
<title>Node0&#45;&gt;Node8</title>
<path fill="none" stroke="#191970" d="M177.7065,-114.4661C145.2737,-102.9922 109.2649,-90.2533 82.9412,-80.9406"/>
<polygon fill="#191970" stroke="#191970" points="83.949,-77.5846 73.3542,-77.549 81.6143,-84.1839 83.949,-77.5846"/>
</g>
<!-- Node9 -->
<g id="node10" class="node">
<title>Node9</title>
<g id="a_node10"><a xlink:href="ThreadHelper_8h.html" target="_top" xlink:title="ThreadHelper.h">
<polygon fill="#ffffff" stroke="#000000" points="467.221,-57.5 467.221,-77.5 552.677,-77.5 552.677,-57.5 467.221,-57.5"/>
<text text-anchor="middle" x="509.949" y="-64.5" font-family="Helvetica,sans-Serif" font-size="10.00" fill="#000000">ThreadHelper.h</text>
</a>
</g>
</g>
<!-- Node0&#45;&gt;Node9 -->
<g id="edge10" class="edge">
<title>Node0&#45;&gt;Node9</title>
<path fill="none" stroke="#191970" d="M351.5166,-114.4661C390.9039,-102.7901 434.7104,-89.8039 466.2591,-80.4515"/>
<polygon fill="#191970" stroke="#191970" points="467.4575,-83.7469 476.0504,-77.549 465.468,-77.0356 467.4575,-83.7469"/>
</g>
<!-- Node2 -->
<g id="node3" class="node">
<title>Node2</title>
<polygon fill="#ffffff" stroke="#bfbfbf" points="217.8325,-.5 217.8325,-20.5 266.0655,-20.5 266.0655,-.5 217.8325,-.5"/>
<text text-anchor="middle" x="241.949" y="-7.5" font-family="Helvetica,sans-Serif" font-size="10.00" fill="#000000">stdint.h</text>
</g>
<!-- Node1&#45;&gt;Node2 -->
<g id="edge2" class="edge">
<title>Node1&#45;&gt;Node2</title>
<path fill="none" stroke="#191970" d="M378.6536,-57.4408C349.8871,-47.5631 306.0375,-32.5063 275.7961,-22.1222"/>
<polygon fill="#191970" stroke="#191970" points="276.6981,-18.7314 266.1035,-18.794 274.4247,-25.352 276.6981,-18.7314"/>
</g>
<!-- Node3 -->
<g id="node4" class="node">
<title>Node3</title>
<polygon fill="#ffffff" stroke="#bfbfbf" points="429.8285,-.5 429.8285,-20.5 488.0695,-20.5 488.0695,-.5 429.8285,-.5"/>
<text text-anchor="middle" x="458.949" y="-7.5" font-family="Helvetica,sans-Serif" font-size="10.00" fill="#000000">pthread.h</text>
</g>
<!-- Node1&#45;&gt;Node3 -->
<g id="edge3" class="edge">
<title>Node1&#45;&gt;Node3</title>
<path fill="none" stroke="#191970" d="M417.0668,-57.3095C424.3191,-49.204 434.6373,-37.672 443.2172,-28.0826"/>
<polygon fill="#191970" stroke="#191970" points="445.8505,-30.3885 449.9102,-20.6022 440.6338,-25.7209 445.8505,-30.3885"/>
</g>
<!-- Node8&#45;&gt;Node2 -->
<g id="edge9" class="edge">
<title>Node8&#45;&gt;Node2</title>
<path fill="none" stroke="#191970" d="M79.7152,-57.4408C115.8071,-46.9979 171.9057,-30.7663 207.7764,-20.3875"/>
<polygon fill="#191970" stroke="#191970" points="209.1359,-23.6378 217.769,-17.4962 207.1902,-16.9136 209.1359,-23.6378"/>
</g>
<!-- Node9&#45;&gt;Node3 -->
<g id="edge11" class="edge">
<title>Node9&#45;&gt;Node3</title>
<path fill="none" stroke="#191970" d="M500.8312,-57.3095C493.5789,-49.204 483.2607,-37.672 474.6808,-28.0826"/>
<polygon fill="#191970" stroke="#191970" points="477.2642,-25.7209 467.9878,-20.6022 472.0475,-30.3885 477.2642,-25.7209"/>
</g>
</g>
</svg>
