<?xml version="1.0" encoding="UTF-8" standalone="no"?>
<!DOCTYPE svg PUBLIC "-//W3C//DTD SVG 1.1//EN"
 "http://www.w3.org/Graphics/SVG/1.1/DTD/svg11.dtd">
<!-- Generated by graphviz version 2.40.1 (20161225.0304)
 -->
<!-- Title: MotorControl.cpp Pages: 1 -->
<svg width="561pt" height="143pt"
 viewBox="0.00 0.00 560.68 143.00" xmlns="http://www.w3.org/2000/svg" xmlns:xlink="http://www.w3.org/1999/xlink">
<g id="graph0" class="graph" transform="scale(1 1) rotate(0) translate(4 139)">
<title>MotorControl.cpp</title>
<polygon fill="#ffffff" stroke="transparent" points="-4,4 -4,-139 556.677,-139 556.677,4 -4,4"/>
<!-- Node0 -->
<g id="node1" class="node">
<title>Node0</title>
<polygon fill="#bfbfbf" stroke="#000000" points="210.6115,-114.5 210.6115,-134.5 303.2865,-134.5 303.2865,-114.5 210.6115,-114.5"/>
<text text-anchor="middle" x="256.949" y="-121.5" font-family="Helvetica,sans-Serif" font-size="10.00" fill="#000000">MotorControl.cpp</text>
</g>
<!-- Node1 -->
<g id="node2" class="node">
<title>Node1</title>
<g id="a_node2"><a xlink:href="MotorControl_8h.html" target="_top" xlink:title="MotorControl.h">
<polygon fill="#ffffff" stroke="#000000" points="366.891,-57.5 366.891,-77.5 449.007,-77.5 449.007,-57.5 366.891,-57.5"/>
<text text-anchor="middle" x="407.949" y="-64.5" font-family="Helvetica,sans-Serif" font-size="10.00" fill="#000000">MotorControl.h</text>
</a>
</g>
</g>
<!-- Node0&#45;&gt;Node1 -->
<g id="edge1" class="edge">
<title>Node0&#45;&gt;Node1</title>
<path fill="none" stroke="#191970" d="M283.5972,-114.4408C308.1041,-105.1898 344.6454,-91.3961 371.7814,-81.1527"/>
<polygon fill="#191970" stroke="#191970" points="373.1941,-84.3605 381.3137,-77.5544 370.722,-77.8116 373.1941,-84.3605"/>
</g>
<!-- Node4 -->
<g id="node5" class="node">
<title>Node4</title>
<polygon fill="#ffffff" stroke="#bfbfbf" points="108.336,-57.5 108.336,-77.5 151.562,-77.5 151.562,-57.5 108.336,-57.5"/>
<text text-anchor="middle" x="129.949" y="-64.5" font-family="Helvetica,sans-Serif" font-size="10.00" fill="#000000">cmath</text>
</g>
<!-- Node0&#45;&gt;Node4 -->
<g id="edge4" class="edge">
<title>Node0&#45;&gt;Node4</title>
<path fill="none" stroke="#191970" d="M234.5363,-114.4408C214.0992,-105.2682 183.7113,-91.6296 160.9501,-81.4139"/>
<polygon fill="#191970" stroke="#191970" points="162.2698,-78.1699 151.7134,-77.2683 159.4035,-84.5562 162.2698,-78.1699"/>
</g>
<!-- Node5 -->
<g id="node6" class="node">
<title>Node5</title>
<polygon fill="#ffffff" stroke="#bfbfbf" points="169.667,-57.5 169.667,-77.5 216.231,-77.5 216.231,-57.5 169.667,-57.5"/>
<text text-anchor="middle" x="192.949" y="-64.5" font-family="Helvetica,sans-Serif" font-size="10.00" fill="#000000">math.h</text>
</g>
<!-- Node0&#45;&gt;Node5 -->
<g id="edge5" class="edge">
<title>Node0&#45;&gt;Node5</title>
<path fill="none" stroke="#191970" d="M245.5071,-114.3095C236.2241,-106.0419 222.9384,-94.2093 212.0475,-84.5096"/>
<polygon fill="#191970" stroke="#191970" points="214.0874,-81.6395 204.2919,-77.6022 209.4317,-86.8668 214.0874,-81.6395"/>
</g>
<!-- Node6 -->
<g id="node7" class="node">
<title>Node6</title>
<polygon fill="#ffffff" stroke="#bfbfbf" points="234.222,-57.5 234.222,-77.5 279.676,-77.5 279.676,-57.5 234.222,-57.5"/>
<text text-anchor="middle" x="256.949" y="-64.5" font-family="Helvetica,sans-Serif" font-size="10.00" fill="#000000">stdio.h</text>
</g>
<!-- Node0&#45;&gt;Node6 -->
<g id="edge6" class="edge">
<title>Node0&#45;&gt;Node6</title>
<path fill="none" stroke="#191970" d="M256.949,-114.3095C256.949,-106.9335 256.949,-96.72 256.949,-87.715"/>
<polygon fill="#191970" stroke="#191970" points="260.4491,-87.6022 256.949,-77.6022 253.4491,-87.6023 260.4491,-87.6022"/>
</g>
<!-- Node7 -->
<g id="node8" class="node">
<title>Node7</title>
<polygon fill="#ffffff" stroke="#bfbfbf" points="297.4425,-57.5 297.4425,-77.5 348.4555,-77.5 348.4555,-57.5 297.4425,-57.5"/>
<text text-anchor="middle" x="322.949" y="-64.5" font-family="Helvetica,sans-Serif" font-size="10.00" fill="#000000">unistd.h</text>
</g>
<!-- Node0&#45;&gt;Node7 -->
<g id="edge7" class="edge">
<title>Node0&#45;&gt;Node7</title>
<path fill="none" stroke="#191970" d="M268.7485,-114.3095C278.4154,-105.9608 292.2915,-93.9769 303.5833,-84.2249"/>
<polygon fill="#191970" stroke="#191970" points="305.9711,-86.7874 311.2517,-77.6022 301.3957,-81.4896 305.9711,-86.7874"/>
</g>
<!-- Node8 -->
<g id="node9" class="node">
<title>Node8</title>
<g id="a_node9"><a xlink:href="ManagerPRUs_8h.html" target="_top" xlink:title="ManagerPRUs.h">
<polygon fill="#ffffff" stroke="#000000" points="0,-57.5 0,-77.5 89.898,-77.5 89.898,-57.5 0,-57.5"/>
<text text-anchor="middle" x="44.949" y="-64.5" font-family="Helvetica,sans-Serif" font-size="10.00" fill="#000000">ManagerPRUs.h</text>
</a>
</g>
</g>
<!-- Node0&#45;&gt;Node8 -->
<g id="edge8" class="edge">
<title>Node0&#45;&gt;Node8</title>
<path fill="none" stroke="#191970" d="M219.5357,-114.4408C184.0723,-104.9058 130.6595,-90.5448 92.2565,-80.2195"/>
<polygon fill="#191970" stroke="#191970" points="92.9101,-76.771 82.3443,-77.5544 91.0925,-83.5309 92.9101,-76.771"/>
</g>
<!-- Node9 -->
<g id="node10" class="node">
<title>Node9</title>
<g id="a_node10"><a xlink:href="ThreadHelper_8h.html" target="_top" xlink:title="ThreadHelper.h">
<polygon fill="#ffffff" stroke="#000000" points="467.221,-57.5 467.221,-77.5 552.677,-77.5 552.677,-57.5 467.221,-57.5"/>
<text text-anchor="middle" x="509.949" y="-64.5" font-family="Helvetica,sans-Serif" font-size="10.00" fill="#000000">ThreadHelper.h</text>
</a>
</g>
</g>
<!-- Node0&#45;&gt;Node9 -->
<g id="edge10" class="edge">
<title>Node0&#45;&gt;Node9</title>
<path fill="none" stroke="#191970" d="M301.5979,-114.4408C345.0788,-104.6447 411.1696,-89.7547 457.2165,-79.3805"/>
<polygon fill="#191970" stroke="#191970" points="458.0258,-82.7859 467.012,-77.1736 456.4872,-75.9571 458.0258,-82.7859"/>
</g>
<!-- Node2 -->
<g id="node3" class="node">
<title>Node2</title>
<polygon fill="#ffffff" stroke="#bfbfbf" points="217.8325,-.5 217.8325,-20.5 266.0655,-20.5 266.0655,-.5 217.8325,-.5"/>
<text text-anchor="middle" x="241.949" y="-7.5" font-family="Helvetica,sans-Serif" font-size="10.00" fill="#000000">stdint.h</text>
</g>
<!-- Node1&#45;&gt;Node2 -->
<g id="edge2" class="edge">
<title>Node1&#45;&gt;Node2</title>
<path fill="none" stroke="#191970" d="M378.6536,-57.4408C349.8871,-47.5631 306.0375,-32.5063 275.7961,-22.1222"/>
<polygon fill="#191970" stroke="#191970" points="276.6981,-18.7314 266.1035,-18.794 274.4247,-25.352 276.6981,-18.7314"/>
</g>
<!-- Node3 -->
<g id="node4" class="node">
<title>Node3</title>
<polygon fill="#ffffff" stroke="#bfbfbf" points="429.8285,-.5 429.8285,-20.5 488.0695,-20.5 488.0695,-.5 429.8285,-.5"/>
<text text-anchor="middle" x="458.949" y="-7.5" font-family="Helvetica,sans-Serif" font-size="10.00" fill="#000000">pthread.h</text>
</g>
<!-- Node1&#45;&gt;Node3 -->
<g id="edge3" class="edge">
<title>Node1&#45;&gt;Node3</title>
<path fill="none" stroke="#191970" d="M417.0668,-57.3095C424.3191,-49.204 434.6373,-37.672 443.2172,-28.0826"/>
<polygon fill="#191970" stroke="#191970" points="445.8505,-30.3885 449.9102,-20.6022 440.6338,-25.7209 445.8505,-30.3885"/>
</g>
<!-- Node8&#45;&gt;Node2 -->
<g id="edge9" class="edge">
<title>Node8&#45;&gt;Node2</title>
<path fill="none" stroke="#191970" d="M79.7152,-57.4408C115.8071,-46.9979 171.9057,-30.7663 207.7764,-20.3875"/>
<polygon fill="#191970" stroke="#191970" points="209.1359,-23.6378 217.769,-17.4962 207.1902,-16.9136 209.1359,-23.6378"/>
</g>
<!-- Node9&#45;&gt;Node3 -->
<g id="edge11" class="edge">
<title>Node9&#45;&gt;Node3</title>
<path fill="none" stroke="#191970" d="M500.8312,-57.3095C493.5789,-49.204 483.2607,-37.672 474.6808,-28.0826"/>
<polygon fill="#191970" stroke="#191970" points="477.2642,-25.7209 467.9878,-20.6022 472.0475,-30.3885 477.2642,-25.7209"/>
</g>
</g>
</svg>
