<?xml version="1.0" encoding="UTF-8" standalone="no"?>
<!DOCTYPE svg PUBLIC "-//W3C//DTD SVG 1.1//EN"
 "http://www.w3.org/Graphics/SVG/1.1/DTD/svg11.dtd">
<!-- Generated by graphviz version 2.40.1 (20161225.0304)
 -->
<!-- Title: /home/jc/Documents/School/SeniorDesign/ControlCode/MainApplication/Headers/MotorControl/MotorControl.h Pages: 1 -->
<svg width="667pt" height="263pt"
 viewBox="0.00 0.00 666.87 263.00" xmlns="http://www.w3.org/2000/svg" xmlns:xlink="http://www.w3.org/1999/xlink">
<g id="graph0" class="graph" transform="scale(1 1) rotate(0) translate(4 259)">
<title>/home/jc/Documents/School/SeniorDesign/ControlCode/MainApplication/Headers/MotorControl/MotorControl.h</title>
<polygon fill="#ffffff" stroke="transparent" points="-4,4 -4,-259 662.865,-259 662.865,4 -4,4"/>
<!-- Node3 -->
<g id="node1" class="node">
<title>Node3</title>
<polygon fill="#bfbfbf" stroke="#000000" points="281.125,-198.5 281.125,-254.5 467.14,-254.5 467.14,-198.5 281.125,-198.5"/>
<text text-anchor="start" x="289.125" y="-241.5" font-family="Helvetica,sans-Serif" font-size="10.00" fill="#000000">/home/jc/Documents</text>
<text text-anchor="start" x="289.125" y="-229.5" font-family="Helvetica,sans-Serif" font-size="10.00" fill="#000000">/School/SeniorDesign</text>
<text text-anchor="start" x="289.125" y="-217.5" font-family="Helvetica,sans-Serif" font-size="10.00" fill="#000000">/ControlCode/MainApplication</text>
<text text-anchor="middle" x="374.1325" y="-205.5" font-family="Helvetica,sans-Serif" font-size="10.00" fill="#000000">/Headers/MotorControl/MotorControl.h</text>
</g>
<!-- Node4 -->
<g id="node2" class="node">
<title>Node4</title>
<g id="a_node2"><a xlink:href="ServoControl_8h.html" target="_top" xlink:title="/home/jc/Documents\l/School/SeniorDesign\l/ControlCode/MainApplication\l/Headers/MotorControl/ServoControl.h">
<polygon fill="#ffffff" stroke="#000000" points="220.8445,-105.5 220.8445,-161.5 407.4205,-161.5 407.4205,-105.5 220.8445,-105.5"/>
<text text-anchor="start" x="228.8445" y="-148.5" font-family="Helvetica,sans-Serif" font-size="10.00" fill="#000000">/home/jc/Documents</text>
<text text-anchor="start" x="228.8445" y="-136.5" font-family="Helvetica,sans-Serif" font-size="10.00" fill="#000000">/School/SeniorDesign</text>
<text text-anchor="start" x="228.8445" y="-124.5" font-family="Helvetica,sans-Serif" font-size="10.00" fill="#000000">/ControlCode/MainApplication</text>
<text text-anchor="middle" x="314.1325" y="-112.5" font-family="Helvetica,sans-Serif" font-size="10.00" fill="#000000">/Headers/MotorControl/ServoControl.h</text>
</a>
</g>
</g>
<!-- Node3&#45;&gt;Node4 -->
<g id="edge1" class="edge">
<title>Node3&#45;&gt;Node4</title>
<path fill="none" stroke="#191970" d="M350.5167,-189.8954C344.4355,-180.4697 337.9874,-170.4751 332.2356,-161.5597"/>
<polygon fill="#191970" stroke="#191970" points="347.6053,-191.839 355.9677,-198.3446 353.4874,-188.0441 347.6053,-191.839"/>
</g>
<!-- Node5 -->
<g id="node3" class="node">
<title>Node5</title>
<g id="a_node3"><a xlink:href="BoeingSurfaceVehicleControl_8cpp.html" target="_top" xlink:title="/home/jc/Documents\l/School/SeniorDesign\l/ControlCode/MainApplication\l/Sources/ControlSoftware/BoeingSurface\lVehicleControl.cpp">
<polygon fill="#ffffff" stroke="#000000" points="0,-.5 0,-68.5 198.265,-68.5 198.265,-.5 0,-.5"/>
<text text-anchor="start" x="8" y="-55.5" font-family="Helvetica,sans-Serif" font-size="10.00" fill="#000000">/home/jc/Documents</text>
<text text-anchor="start" x="8" y="-43.5" font-family="Helvetica,sans-Serif" font-size="10.00" fill="#000000">/School/SeniorDesign</text>
<text text-anchor="start" x="8" y="-31.5" font-family="Helvetica,sans-Serif" font-size="10.00" fill="#000000">/ControlCode/MainApplication</text>
<text text-anchor="start" x="8" y="-19.5" font-family="Helvetica,sans-Serif" font-size="10.00" fill="#000000">/Sources/ControlSoftware/BoeingSurface</text>
<text text-anchor="middle" x="99.1325" y="-7.5" font-family="Helvetica,sans-Serif" font-size="10.00" fill="#000000">VehicleControl.cpp</text>
</a>
</g>
</g>
<!-- Node3&#45;&gt;Node5 -->
<g id="edge5" class="edge">
<title>Node3&#45;&gt;Node5</title>
<path fill="none" stroke="#191970" d="M272.7493,-194.5897C251.7596,-185.708 230.4754,-174.8821 212.1325,-162 175.704,-136.4166 143.0529,-96.8477 122.3281,-68.5792"/>
<polygon fill="#191970" stroke="#191970" points="271.4578,-197.8429 282.0377,-198.4053 274.1177,-191.3679 271.4578,-197.8429"/>
</g>
<!-- Node6 -->
<g id="node4" class="node">
<title>Node6</title>
<g id="a_node4"><a xlink:href="IOFactory_8cpp.html" target="_top" xlink:title="/home/jc/Documents\l/School/SeniorDesign\l/ControlCode/MainApplication\l/Sources/IO/IOFactory.cpp">
<polygon fill="#ffffff" stroke="#000000" points="430.011,-6.5 430.011,-62.5 578.254,-62.5 578.254,-6.5 430.011,-6.5"/>
<text text-anchor="start" x="438.011" y="-49.5" font-family="Helvetica,sans-Serif" font-size="10.00" fill="#000000">/home/jc/Documents</text>
<text text-anchor="start" x="438.011" y="-37.5" font-family="Helvetica,sans-Serif" font-size="10.00" fill="#000000">/School/SeniorDesign</text>
<text text-anchor="start" x="438.011" y="-25.5" font-family="Helvetica,sans-Serif" font-size="10.00" fill="#000000">/ControlCode/MainApplication</text>
<text text-anchor="middle" x="504.1325" y="-13.5" font-family="Helvetica,sans-Serif" font-size="10.00" fill="#000000">/Sources/IO/IOFactory.cpp</text>
</a>
</g>
</g>
<!-- Node3&#45;&gt;Node6 -->
<g id="edge6" class="edge">
<title>Node3&#45;&gt;Node6</title>
<path fill="none" stroke="#191970" d="M398.0037,-189.9432C417.4431,-160.23 443.3663,-120.7509 454.1325,-105 463.7008,-91.0016 474.564,-75.625 483.7148,-62.8143"/>
<polygon fill="#191970" stroke="#191970" points="395.0011,-188.1398 392.4573,-198.4247 400.8596,-191.971 395.0011,-188.1398"/>
</g>
<!-- Node8 -->
<g id="node6" class="node">
<title>Node8</title>
<g id="a_node6"><a xlink:href="MotorControl_8cpp.html" target="_top" xlink:title="/home/jc/Documents\l/School/SeniorDesign\l/ControlCode/MainApplication\l/Sources/MotorControl/MotorControl.cpp">
<polygon fill="#ffffff" stroke="#000000" points="463.4,-105.5 463.4,-161.5 658.865,-161.5 658.865,-105.5 463.4,-105.5"/>
<text text-anchor="start" x="471.4" y="-148.5" font-family="Helvetica,sans-Serif" font-size="10.00" fill="#000000">/home/jc/Documents</text>
<text text-anchor="start" x="471.4" y="-136.5" font-family="Helvetica,sans-Serif" font-size="10.00" fill="#000000">/School/SeniorDesign</text>
<text text-anchor="start" x="471.4" y="-124.5" font-family="Helvetica,sans-Serif" font-size="10.00" fill="#000000">/ControlCode/MainApplication</text>
<text text-anchor="middle" x="561.1325" y="-112.5" font-family="Helvetica,sans-Serif" font-size="10.00" fill="#000000">/Sources/MotorControl/MotorControl.cpp</text>
</a>
</g>
</g>
<!-- Node3&#45;&gt;Node8 -->
<g id="edge7" class="edge">
<title>Node3&#45;&gt;Node8</title>
<path fill="none" stroke="#191970" d="M439.728,-193.8776C460.8778,-183.3593 484.1247,-171.798 504.5655,-161.6323"/>
<polygon fill="#191970" stroke="#191970" points="437.8875,-190.8839 430.4923,-198.4708 441.0047,-197.1516 437.8875,-190.8839"/>
</g>
<!-- Node4&#45;&gt;Node5 -->
<g id="edge2" class="edge">
<title>Node4&#45;&gt;Node5</title>
<path fill="none" stroke="#191970" d="M243.9094,-101.1647C221.305,-90.7562 196.1909,-79.192 173.3114,-68.6568"/>
<polygon fill="#191970" stroke="#191970" points="242.55,-104.3919 253.0972,-105.3954 245.4778,-98.0336 242.55,-104.3919"/>
</g>
<!-- Node4&#45;&gt;Node6 -->
<g id="edge3" class="edge">
<title>Node4&#45;&gt;Node6</title>
<path fill="none" stroke="#191970" d="M377.0104,-100.7373C400.7617,-88.3616 427.5493,-74.4039 450.3886,-62.5034"/>
<polygon fill="#191970" stroke="#191970" points="375.3217,-97.6705 368.0707,-105.3954 378.5563,-103.8784 375.3217,-97.6705"/>
</g>
<!-- Node7 -->
<g id="node5" class="node">
<title>Node7</title>
<g id="a_node5"><a xlink:href="ServoControl_8cpp.html" target="_top" xlink:title="/home/jc/Documents\l/School/SeniorDesign\l/ControlCode/MainApplication\l/Sources/MotorControl/ServoControl.cpp">
<polygon fill="#ffffff" stroke="#000000" points="216.1195,-6.5 216.1195,-62.5 412.1455,-62.5 412.1455,-6.5 216.1195,-6.5"/>
<text text-anchor="start" x="224.1195" y="-49.5" font-family="Helvetica,sans-Serif" font-size="10.00" fill="#000000">/home/jc/Documents</text>
<text text-anchor="start" x="224.1195" y="-37.5" font-family="Helvetica,sans-Serif" font-size="10.00" fill="#000000">/School/SeniorDesign</text>
<text text-anchor="start" x="224.1195" y="-25.5" font-family="Helvetica,sans-Serif" font-size="10.00" fill="#000000">/ControlCode/MainApplication</text>
<text text-anchor="middle" x="314.1325" y="-13.5" font-family="Helvetica,sans-Serif" font-size="10.00" fill="#000000">/Sources/MotorControl/ServoControl.cpp</text>
</a>
</g>
</g>
<!-- Node4&#45;&gt;Node7 -->
<g id="edge4" class="edge">
<title>Node4&#45;&gt;Node7</title>
<path fill="none" stroke="#191970" d="M314.1325,-95.2953C314.1325,-84.4399 314.1325,-72.8188 314.1325,-62.6749"/>
<polygon fill="#191970" stroke="#191970" points="310.6326,-95.3954 314.1325,-105.3954 317.6326,-95.3954 310.6326,-95.3954"/>
</g>
</g>
</svg>
