<?xml version="1.0" encoding="UTF-8" standalone="no"?>
<!DOCTYPE svg PUBLIC "-//W3C//DTD SVG 1.1//EN"
 "http://www.w3.org/Graphics/SVG/1.1/DTD/svg11.dtd">
<!-- Generated by graphviz version 2.40.1 (20161225.0304)
 -->
<!-- Title: /home/jc/Documents/School/SeniorDesign/ControlCode/MainApplication/Headers/MotorControl/MotorControl.h Pages: 1 -->
<svg width="194pt" height="122pt"
 viewBox="0.00 0.00 194.01 122.00" xmlns="http://www.w3.org/2000/svg" xmlns:xlink="http://www.w3.org/1999/xlink">
<g id="graph0" class="graph" transform="scale(1 1) rotate(0) translate(4 118)">
<title>/home/jc/Documents/School/SeniorDesign/ControlCode/MainApplication/Headers/MotorControl/MotorControl.h</title>
<polygon fill="#ffffff" stroke="transparent" points="-4,4 -4,-118 190.015,-118 190.015,4 -4,4"/>
<!-- Node0 -->
<g id="node1" class="node">
<title>Node0</title>
<polygon fill="#bfbfbf" stroke="#000000" points="0,-57.5 0,-113.5 186.015,-113.5 186.015,-57.5 0,-57.5"/>
<text text-anchor="start" x="8" y="-100.5" font-family="Helvetica,sans-Serif" font-size="10.00" fill="#000000">/home/jc/Documents</text>
<text text-anchor="start" x="8" y="-88.5" font-family="Helvetica,sans-Serif" font-size="10.00" fill="#000000">/School/SeniorDesign</text>
<text text-anchor="start" x="8" y="-76.5" font-family="Helvetica,sans-Serif" font-size="10.00" fill="#000000">/ControlCode/MainApplication</text>
<text text-anchor="middle" x="93.0075" y="-64.5" font-family="Helvetica,sans-Serif" font-size="10.00" fill="#000000">/Headers/MotorControl/MotorControl.h</text>
</g>
<!-- Node1 -->
<g id="node2" class="node">
<title>Node1</title>
<polygon fill="#ffffff" stroke="#bfbfbf" points="33.891,-.5 33.891,-20.5 82.124,-20.5 82.124,-.5 33.891,-.5"/>
<text text-anchor="middle" x="58.0075" y="-7.5" font-family="Helvetica,sans-Serif" font-size="10.00" fill="#000000">stdint.h</text>
</g>
<!-- Node0&#45;&gt;Node1 -->
<g id="edge1" class="edge">
<title>Node0&#45;&gt;Node1</title>
<path fill="none" stroke="#191970" d="M79.7755,-57.1457C75.5367,-48.0625 70.942,-38.2169 67.0712,-29.9223"/>
<polygon fill="#191970" stroke="#191970" points="70.1818,-28.3113 62.7813,-20.7296 63.8386,-31.2715 70.1818,-28.3113"/>
</g>
<!-- Node2 -->
<g id="node3" class="node">
<title>Node2</title>
<polygon fill="#ffffff" stroke="#bfbfbf" points="99.887,-.5 99.887,-20.5 158.128,-20.5 158.128,-.5 99.887,-.5"/>
<text text-anchor="middle" x="129.0075" y="-7.5" font-family="Helvetica,sans-Serif" font-size="10.00" fill="#000000">pthread.h</text>
</g>
<!-- Node0&#45;&gt;Node2 -->
<g id="edge2" class="edge">
<title>Node0&#45;&gt;Node2</title>
<path fill="none" stroke="#191970" d="M106.6176,-57.1457C110.9775,-48.0625 115.7034,-38.2169 119.6848,-29.9223"/>
<polygon fill="#191970" stroke="#191970" points="122.9253,-31.2594 124.0973,-20.7296 116.6146,-28.2302 122.9253,-31.2594"/>
</g>
</g>
</svg>
