<?xml version="1.0" encoding="UTF-8" standalone="no"?>
<!DOCTYPE svg PUBLIC "-//W3C//DTD SVG 1.1//EN"
 "http://www.w3.org/Graphics/SVG/1.1/DTD/svg11.dtd">
<!-- Generated by graphviz version 2.40.1 (20161225.0304)
 -->
<!-- Title: MotorControl.h Pages: 1 -->
<svg width="570pt" height="143pt"
 viewBox="0.00 0.00 570.14 143.00" xmlns="http://www.w3.org/2000/svg" xmlns:xlink="http://www.w3.org/1999/xlink">
<g id="graph0" class="graph" transform="scale(1 1) rotate(0) translate(4 139)">
<title>MotorControl.h</title>
<polygon fill="#ffffff" stroke="transparent" points="-4,4 -4,-139 566.136,-139 566.136,4 -4,4"/>
<!-- Node5 -->
<g id="node1" class="node">
<title>Node5</title>
<polygon fill="#bfbfbf" stroke="#000000" points="297.683,-114.5 297.683,-134.5 379.799,-134.5 379.799,-114.5 297.683,-114.5"/>
<text text-anchor="middle" x="338.741" y="-121.5" font-family="Helvetica,sans-Serif" font-size="10.00" fill="#000000">MotorControl.h</text>
</g>
<!-- Node6 -->
<g id="node2" class="node">
<title>Node6</title>
<g id="a_node2"><a xlink:href="ServoControl_8h.html" target="_top" xlink:title="ServoControl.h">
<polygon fill="#ffffff" stroke="#000000" points="263.4025,-57.5 263.4025,-77.5 346.0795,-77.5 346.0795,-57.5 263.4025,-57.5"/>
<text text-anchor="middle" x="304.741" y="-64.5" font-family="Helvetica,sans-Serif" font-size="10.00" fill="#000000">ServoControl.h</text>
</a>
</g>
</g>
<!-- Node5&#45;&gt;Node6 -->
<g id="edge1" class="edge">
<title>Node5&#45;&gt;Node6</title>
<path fill="none" stroke="#191970" d="M327.4981,-105.6515C321.9156,-96.2928 315.3941,-85.3596 310.7669,-77.6022"/>
<polygon fill="#191970" stroke="#191970" points="324.5338,-107.5143 332.6625,-114.3095 330.5455,-103.9283 324.5338,-107.5143"/>
</g>
<!-- Node8 -->
<g id="node4" class="node">
<title>Node8</title>
<g id="a_node4"><a xlink:href="BoeingSurfaceVehicleControl_8cpp.html" target="_top" xlink:title="BoeingSurfaceVehicleControl.cpp">
<polygon fill="#ffffff" stroke="#000000" points="0,-.5 0,-20.5 165.482,-20.5 165.482,-.5 0,-.5"/>
<text text-anchor="middle" x="82.741" y="-7.5" font-family="Helvetica,sans-Serif" font-size="10.00" fill="#000000">BoeingSurfaceVehicleControl.cpp</text>
</a>
</g>
</g>
<!-- Node5&#45;&gt;Node8 -->
<g id="edge7" class="edge">
<title>Node5&#45;&gt;Node8</title>
<path fill="none" stroke="#191970" d="M306.8407,-110.2944C254.3647,-86.9262 151.0995,-40.9409 105.4084,-20.5941"/>
<polygon fill="#191970" stroke="#191970" points="305.4637,-113.5125 316.0227,-114.3833 308.3114,-107.1179 305.4637,-113.5125"/>
</g>
<!-- Node10 -->
<g id="node6" class="node">
<title>Node10</title>
<g id="a_node6"><a xlink:href="IOFactory_8cpp.html" target="_top" xlink:title="IOFactory.cpp">
<polygon fill="#ffffff" stroke="#000000" points="483.346,-.5 483.346,-20.5 562.136,-20.5 562.136,-.5 483.346,-.5"/>
<text text-anchor="middle" x="522.741" y="-7.5" font-family="Helvetica,sans-Serif" font-size="10.00" fill="#000000">IOFactory.cpp</text>
</a>
</g>
</g>
<!-- Node5&#45;&gt;Node10 -->
<g id="edge8" class="edge">
<title>Node5&#45;&gt;Node10</title>
<path fill="none" stroke="#191970" d="M349.6045,-105.8073C359.2195,-90.7413 374.5315,-69.994 392.741,-57 419.862,-37.6469 455.8573,-25.6012 483.0942,-18.633"/>
<polygon fill="#191970" stroke="#191970" points="346.6202,-103.9786 344.3791,-114.3337 352.5886,-107.6364 346.6202,-103.9786"/>
</g>
<!-- Node11 -->
<g id="node7" class="node">
<title>Node11</title>
<g id="a_node7"><a xlink:href="MotorControl_8cpp.html" target="_top" xlink:title="MotorControl.cpp">
<polygon fill="#ffffff" stroke="#000000" points="401.4035,-57.5 401.4035,-77.5 494.0785,-77.5 494.0785,-57.5 401.4035,-57.5"/>
<text text-anchor="middle" x="447.741" y="-64.5" font-family="Helvetica,sans-Serif" font-size="10.00" fill="#000000">MotorControl.cpp</text>
</a>
</g>
</g>
<!-- Node5&#45;&gt;Node11 -->
<g id="edge6" class="edge">
<title>Node5&#45;&gt;Node11</title>
<path fill="none" stroke="#191970" d="M366.9164,-109.7661C386.1954,-99.6844 411.2587,-86.5779 428.3306,-77.6504"/>
<polygon fill="#191970" stroke="#191970" points="365.2167,-106.7052 357.9771,-114.4408 368.4605,-112.9082 365.2167,-106.7052"/>
</g>
<!-- Node7 -->
<g id="node3" class="node">
<title>Node7</title>
<g id="a_node3"><a xlink:href="ServoControl_8cpp.html" target="_top" xlink:title="ServoControl.cpp">
<polygon fill="#ffffff" stroke="#000000" points="183.123,-.5 183.123,-20.5 276.359,-20.5 276.359,-.5 183.123,-.5"/>
<text text-anchor="middle" x="229.741" y="-7.5" font-family="Helvetica,sans-Serif" font-size="10.00" fill="#000000">ServoControl.cpp</text>
</a>
</g>
</g>
<!-- Node6&#45;&gt;Node7 -->
<g id="edge2" class="edge">
<title>Node6&#45;&gt;Node7</title>
<path fill="none" stroke="#191970" d="M283.344,-51.2383C270.3603,-41.3707 254.1974,-29.0868 243.0334,-20.6022"/>
<polygon fill="#191970" stroke="#191970" points="281.2531,-54.0452 291.3325,-57.3095 285.4887,-48.4721 281.2531,-54.0452"/>
</g>
<!-- Node6&#45;&gt;Node8 -->
<g id="edge3" class="edge">
<title>Node6&#45;&gt;Node8</title>
<path fill="none" stroke="#191970" d="M255.6941,-54.9069C215.438,-44.5709 159.188,-30.1283 121.9002,-20.5544"/>
<polygon fill="#191970" stroke="#191970" points="255.0066,-58.3438 265.5629,-57.4408 256.7475,-51.5637 255.0066,-58.3438"/>
</g>
<!-- Node9 -->
<g id="node5" class="node">
<title>Node9</title>
<g id="a_node5"><a xlink:href="CommunicationProtocolParser_8cpp.html" target="_top" xlink:title="CommunicationProtocolParser.cpp">
<polygon fill="#ffffff" stroke="#000000" points="294.5095,-.5 294.5095,-20.5 464.9725,-20.5 464.9725,-.5 294.5095,-.5"/>
<text text-anchor="middle" x="379.741" y="-7.5" font-family="Helvetica,sans-Serif" font-size="10.00" fill="#000000">CommunicationProtocolParser.cpp</text>
</a>
</g>
</g>
<!-- Node6&#45;&gt;Node9 -->
<g id="edge4" class="edge">
<title>Node6&#45;&gt;Node9</title>
<path fill="none" stroke="#191970" d="M326.138,-51.2383C339.1217,-41.3707 355.2846,-29.0868 366.4486,-20.6022"/>
<polygon fill="#191970" stroke="#191970" points="323.9933,-48.4721 318.1495,-57.3095 328.2289,-54.0452 323.9933,-48.4721"/>
</g>
<!-- Node6&#45;&gt;Node10 -->
<g id="edge5" class="edge">
<title>Node6&#45;&gt;Node10</title>
<path fill="none" stroke="#191970" d="M352.9041,-54.9069C392.4349,-44.5709 447.6714,-30.1283 484.2874,-20.5544"/>
<polygon fill="#191970" stroke="#191970" points="352.0026,-51.5249 343.2132,-57.4408 353.7734,-58.2972 352.0026,-51.5249"/>
</g>
</g>
</svg>
