<?xml version="1.0" encoding="UTF-8" standalone="no"?>
<!DOCTYPE svg PUBLIC "-//W3C//DTD SVG 1.1//EN"
 "http://www.w3.org/Graphics/SVG/1.1/DTD/svg11.dtd">
<!-- Generated by graphviz version 2.40.1 (20161225.0304)
 -->
<!-- Title: VehicleControl::IO::enumToString Pages: 1 -->
<svg width="411pt" height="41pt"
 viewBox="0.00 0.00 410.82 41.00" xmlns="http://www.w3.org/2000/svg" xmlns:xlink="http://www.w3.org/1999/xlink">
<g id="graph0" class="graph" transform="scale(1 1) rotate(0) translate(4 37)">
<title>VehicleControl::IO::enumToString</title>
<polygon fill="#ffffff" stroke="transparent" points="-4,4 -4,-37 406.825,-37 406.825,4 -4,4"/>
<!-- Node1 -->
<g id="node1" class="node">
<title>Node1</title>
<polygon fill="#bfbfbf" stroke="#000000" points="0,-.5 0,-32.5 97.123,-32.5 97.123,-.5 0,-.5"/>
<text text-anchor="start" x="8" y="-19.5" font-family="Helvetica,sans-Serif" font-size="10.00" fill="#000000">VehicleControl::IO</text>
<text text-anchor="middle" x="48.5615" y="-7.5" font-family="Helvetica,sans-Serif" font-size="10.00" fill="#000000">::enumToString</text>
</g>
<!-- Node2 -->
<g id="node2" class="node">
<title>Node2</title>
<g id="a_node2"><a xlink:href="classVehicleControl_1_1IO_1_1UserLED.html#ab9098f8d1bfe2edebc509b6ffd39d9f6" target="_top" xlink:title="UserLED constructs an instance of a user led. ">
<polygon fill="#ffffff" stroke="#000000" points="133.123,-.5 133.123,-32.5 241.347,-32.5 241.347,-.5 133.123,-.5"/>
<text text-anchor="start" x="141.123" y="-19.5" font-family="Helvetica,sans-Serif" font-size="10.00" fill="#000000">VehicleControl::IO</text>
<text text-anchor="middle" x="187.235" y="-7.5" font-family="Helvetica,sans-Serif" font-size="10.00" fill="#000000">::UserLED::UserLED</text>
</a>
</g>
</g>
<!-- Node1&#45;&gt;Node2 -->
<g id="edge1" class="edge">
<title>Node1&#45;&gt;Node2</title>
<path fill="none" stroke="#191970" d="M107.6338,-16.5C116.0939,-16.5 124.7625,-16.5 133.1207,-16.5"/>
<polygon fill="#191970" stroke="#191970" points="107.4526,-13.0001 97.4526,-16.5 107.4526,-20.0001 107.4526,-13.0001"/>
</g>
<!-- Node3 -->
<g id="node3" class="node">
<title>Node3</title>
<g id="a_node3"><a xlink:href="structVehicleControl_1_1IO_1_1UserLED_1_1Setup.html#a0f7dc4714f6c82868c4d3bad8baaf4c6" target="_top" xlink:title="VehicleControl::IO\l::UserLED::Setup::Setup">
<polygon fill="#ffffff" stroke="#000000" points="277.347,-.5 277.347,-32.5 402.825,-32.5 402.825,-.5 277.347,-.5"/>
<text text-anchor="start" x="285.347" y="-19.5" font-family="Helvetica,sans-Serif" font-size="10.00" fill="#000000">VehicleControl::IO</text>
<text text-anchor="middle" x="340.086" y="-7.5" font-family="Helvetica,sans-Serif" font-size="10.00" fill="#000000">::UserLED::Setup::Setup</text>
</a>
</g>
</g>
<!-- Node2&#45;&gt;Node3 -->
<g id="edge2" class="edge">
<title>Node2&#45;&gt;Node3</title>
<path fill="none" stroke="#191970" d="M251.7575,-16.5C260.2267,-16.5 268.8958,-16.5 277.335,-16.5"/>
<polygon fill="#191970" stroke="#191970" points="251.555,-13.0001 241.5549,-16.5 251.5549,-20.0001 251.555,-13.0001"/>
</g>
</g>
</svg>
