<?xml version="1.0" encoding="UTF-8" standalone="no"?>
<!DOCTYPE svg PUBLIC "-//W3C//DTD SVG 1.1//EN"
 "http://www.w3.org/Graphics/SVG/1.1/DTD/svg11.dtd">
<!-- Generated by graphviz version 2.40.1 (20161225.0304)
 -->
<!-- Title: VehicleControl::callback Pages: 1 -->
<svg width="424pt" height="92pt"
 viewBox="0.00 0.00 423.60 92.00" xmlns="http://www.w3.org/2000/svg" xmlns:xlink="http://www.w3.org/1999/xlink">
<g id="graph0" class="graph" transform="scale(1 1) rotate(0) translate(4 88)">
<title>VehicleControl::callback</title>
<polygon fill="#ffffff" stroke="transparent" points="-4,4 -4,-88 419.603,-88 419.603,4 -4,4"/>
<!-- Node0 -->
<g id="node1" class="node">
<title>Node0</title>
<polygon fill="#bfbfbf" stroke="#000000" points="0,-34.5 0,-54.5 122.68,-54.5 122.68,-34.5 0,-34.5"/>
<text text-anchor="middle" x="61.34" y="-41.5" font-family="Helvetica,sans-Serif" font-size="10.00" fill="#000000">VehicleControl::callback</text>
</g>
<!-- Node1 -->
<g id="node2" class="node">
<title>Node1</title>
<g id="a_node2"><a xlink:href="classCore_1_1IO_1_1UserLED.html#a5d7887f070c9ce082f8be1d3aae448d2" target="_top" xlink:title="state getter ">
<polygon fill="#ffffff" stroke="#000000" points="305.1415,-51.5 305.1415,-83.5 410.5935,-83.5 410.5935,-51.5 305.1415,-51.5"/>
<text text-anchor="start" x="313.1415" y="-70.5" font-family="Helvetica,sans-Serif" font-size="10.00" fill="#000000">Core::IO::UserLED::</text>
<text text-anchor="middle" x="357.8675" y="-58.5" font-family="Helvetica,sans-Serif" font-size="10.00" fill="#000000">state</text>
</a>
</g>
</g>
<!-- Node0&#45;&gt;Node1 -->
<g id="edge1" class="edge">
<title>Node0&#45;&gt;Node1</title>
<path fill="none" stroke="#191970" d="M122.7807,-49.2656C173.09,-53.1678 243.9922,-58.6673 294.7516,-62.6045"/>
<polygon fill="#191970" stroke="#191970" points="294.7017,-66.111 304.9425,-63.3949 295.2431,-59.132 294.7017,-66.111"/>
</g>
<!-- Node2 -->
<g id="node3" class="node">
<title>Node2</title>
<g id="a_node3"><a xlink:href="classCore_1_1IO_1_1UserLED.html#ac39c3ed451b83046ff37ecb4ccff142c" target="_top" xlink:title="setState method sets the state of the LED ">
<polygon fill="#ffffff" stroke="#000000" points="158.68,-6.5 158.68,-38.5 264.132,-38.5 264.132,-6.5 158.68,-6.5"/>
<text text-anchor="start" x="166.68" y="-25.5" font-family="Helvetica,sans-Serif" font-size="10.00" fill="#000000">Core::IO::UserLED::</text>
<text text-anchor="middle" x="211.406" y="-13.5" font-family="Helvetica,sans-Serif" font-size="10.00" fill="#000000">setState</text>
</a>
</g>
</g>
<!-- Node0&#45;&gt;Node2 -->
<g id="edge2" class="edge">
<title>Node0&#45;&gt;Node2</title>
<path fill="none" stroke="#191970" d="M122.8106,-35.4883C131.2122,-34.2566 139.8485,-32.9905 148.279,-31.7546"/>
<polygon fill="#191970" stroke="#191970" points="149.0442,-35.1799 158.4307,-30.2663 148.0288,-28.2539 149.0442,-35.1799"/>
</g>
<!-- Node2&#45;&gt;Node1 -->
<g id="edge3" class="edge">
<title>Node2&#45;&gt;Node1</title>
<path fill="none" stroke="#191970" d="M263.8683,-38.6189C274.3003,-41.8241 285.3453,-45.2177 296.0561,-48.5086"/>
<polygon fill="#191970" stroke="#191970" points="295.1846,-51.9022 305.7715,-51.4936 297.2405,-45.2109 295.1846,-51.9022"/>
</g>
<!-- Node3 -->
<g id="node4" class="node">
<title>Node3</title>
<g id="a_node4"><a xlink:href="classCore_1_1ThreadHelper.html#a138066760eabf36c1681bbd177db0446" target="_top" xlink:title="startDetachedThread ">
<polygon fill="#ffffff" stroke="#000000" points="300.132,-.5 300.132,-32.5 415.603,-32.5 415.603,-.5 300.132,-.5"/>
<text text-anchor="start" x="308.132" y="-19.5" font-family="Helvetica,sans-Serif" font-size="10.00" fill="#000000">Core::ThreadHelper</text>
<text text-anchor="middle" x="357.8675" y="-7.5" font-family="Helvetica,sans-Serif" font-size="10.00" fill="#000000">::startDetachedThread</text>
</a>
</g>
</g>
<!-- Node2&#45;&gt;Node3 -->
<g id="edge4" class="edge">
<title>Node2&#45;&gt;Node3</title>
<path fill="none" stroke="#191970" d="M264.282,-20.3339C272.6447,-19.9913 281.3922,-19.6329 290.0387,-19.2787"/>
<polygon fill="#191970" stroke="#191970" points="290.2651,-22.7725 300.1135,-18.866 289.9785,-15.7783 290.2651,-22.7725"/>
</g>
</g>
</svg>
