<?xml version="1.0" encoding="UTF-8" standalone="no"?>
<!DOCTYPE svg PUBLIC "-//W3C//DTD SVG 1.1//EN"
 "http://www.w3.org/Graphics/SVG/1.1/DTD/svg11.dtd">
<!-- Generated by graphviz version 2.40.1 (20161225.0304)
 -->
<!-- Title: VehicleControl::callback Pages: 1 -->
<svg width="464pt" height="131pt"
 viewBox="0.00 0.00 463.59 131.00" xmlns="http://www.w3.org/2000/svg" xmlns:xlink="http://www.w3.org/1999/xlink">
<g id="graph0" class="graph" transform="scale(1 1) rotate(0) translate(4 127)">
<title>VehicleControl::callback</title>
<polygon fill="#ffffff" stroke="transparent" points="-4,4 -4,-127 459.593,-127 459.593,4 -4,4"/>
<!-- Node4 -->
<g id="node1" class="node">
<title>Node4</title>
<polygon fill="#bfbfbf" stroke="#000000" points="0,-51.5 0,-71.5 122.68,-71.5 122.68,-51.5 0,-51.5"/>
<text text-anchor="middle" x="61.34" y="-58.5" font-family="Helvetica,sans-Serif" font-size="10.00" fill="#000000">VehicleControl::callback</text>
</g>
<!-- Node5 -->
<g id="node2" class="node">
<title>Node5</title>
<g id="a_node2"><a xlink:href="classCore_1_1IO_1_1Input.html#af505f10ed01aa26257a8709ba7211ba6" target="_top" xlink:title="setEdgeCallback setter ">
<polygon fill="#ffffff" stroke="#000000" points="167.834,-90.5 167.834,-122.5 291.651,-122.5 291.651,-90.5 167.834,-90.5"/>
<text text-anchor="start" x="175.834" y="-109.5" font-family="Helvetica,sans-Serif" font-size="10.00" fill="#000000">Core::IO::Input::setEdge</text>
<text text-anchor="middle" x="229.7425" y="-97.5" font-family="Helvetica,sans-Serif" font-size="10.00" fill="#000000">Callback</text>
</a>
</g>
</g>
<!-- Node4&#45;&gt;Node5 -->
<g id="edge1" class="edge">
<title>Node4&#45;&gt;Node5</title>
<path fill="none" stroke="#191970" d="M108.9691,-74.2273C127.8114,-79.2623 149.6863,-85.1076 169.601,-90.4292"/>
<polygon fill="#191970" stroke="#191970" points="109.6974,-70.7992 99.1328,-71.5989 107.8903,-77.5619 109.6974,-70.7992"/>
</g>
<!-- Node6 -->
<g id="node3" class="node">
<title>Node6</title>
<g id="a_node3"><a xlink:href="structCore_1_1IO_1_1Input_1_1Setup.html#a493b98ee230283215bd55b7ba739f60a" target="_top" xlink:title="Core::IO::Input::Setup\l::Setup">
<polygon fill="#ffffff" stroke="#000000" points="339.57,-70.5 339.57,-102.5 452.828,-102.5 452.828,-70.5 339.57,-70.5"/>
<text text-anchor="start" x="347.57" y="-89.5" font-family="Helvetica,sans-Serif" font-size="10.00" fill="#000000">Core::IO::Input::Setup</text>
<text text-anchor="middle" x="396.199" y="-77.5" font-family="Helvetica,sans-Serif" font-size="10.00" fill="#000000">::Setup</text>
</a>
</g>
</g>
<!-- Node4&#45;&gt;Node6 -->
<g id="edge3" class="edge">
<title>Node4&#45;&gt;Node6</title>
<path fill="none" stroke="#191970" d="M132.8044,-66.8354C194.4761,-71.4397 282.3738,-78.002 339.3562,-82.2562"/>
<polygon fill="#191970" stroke="#191970" points="132.9912,-63.3397 122.7583,-66.0854 132.4699,-70.3203 132.9912,-63.3397"/>
</g>
<!-- Node7 -->
<g id="node4" class="node">
<title>Node7</title>
<g id="a_node4"><a xlink:href="namespaceVehicleControl.html#ab876bdb990021d96b1452a85b59f99d8" target="_top" xlink:title="VehicleControl::createRising\lEdgeThreadedInput">
<polygon fill="#ffffff" stroke="#000000" points="158.68,-.5 158.68,-32.5 300.805,-32.5 300.805,-.5 158.68,-.5"/>
<text text-anchor="start" x="166.68" y="-19.5" font-family="Helvetica,sans-Serif" font-size="10.00" fill="#000000">VehicleControl::createRising</text>
<text text-anchor="middle" x="229.7425" y="-7.5" font-family="Helvetica,sans-Serif" font-size="10.00" fill="#000000">EdgeThreadedInput</text>
</a>
</g>
</g>
<!-- Node4&#45;&gt;Node7 -->
<g id="edge4" class="edge">
<title>Node4&#45;&gt;Node7</title>
<path fill="none" stroke="#191970" d="M108.9691,-48.7727C127.8114,-43.7377 149.6863,-37.8924 169.601,-32.5708"/>
<polygon fill="#191970" stroke="#191970" points="107.8903,-45.4381 99.1328,-51.4011 109.6974,-52.2008 107.8903,-45.4381"/>
</g>
<!-- Node5&#45;&gt;Node6 -->
<g id="edge2" class="edge">
<title>Node5&#45;&gt;Node6</title>
<path fill="none" stroke="#191970" d="M301.7303,-97.8506C314.3282,-96.3369 327.276,-94.7812 339.3906,-93.3256"/>
<polygon fill="#191970" stroke="#191970" points="301.2358,-94.3847 291.7248,-99.0527 302.0709,-101.3347 301.2358,-94.3847"/>
</g>
<!-- Node8 -->
<g id="node5" class="node">
<title>Node8</title>
<g id="a_node5"><a xlink:href="classVehicleControl_1_1Control_1_1IOFactory.html#a4d4de0203bf577352199f49c67f49d98" target="_top" xlink:title="fillInputList method fills in all of the app&#39;s inputs ">
<polygon fill="#ffffff" stroke="#000000" points="336.805,-.5 336.805,-32.5 455.593,-32.5 455.593,-.5 336.805,-.5"/>
<text text-anchor="start" x="344.805" y="-19.5" font-family="Helvetica,sans-Serif" font-size="10.00" fill="#000000">VehicleControl::Control</text>
<text text-anchor="middle" x="396.199" y="-7.5" font-family="Helvetica,sans-Serif" font-size="10.00" fill="#000000">::IOFactory::fillInputList</text>
</a>
</g>
</g>
<!-- Node7&#45;&gt;Node8 -->
<g id="edge5" class="edge">
<title>Node7&#45;&gt;Node8</title>
<path fill="none" stroke="#191970" d="M310.9414,-16.5C319.5958,-16.5 328.2794,-16.5 336.6177,-16.5"/>
<polygon fill="#191970" stroke="#191970" points="310.8179,-13.0001 300.8179,-16.5 310.8178,-20.0001 310.8179,-13.0001"/>
</g>
</g>
</svg>
