<?xml version="1.0" encoding="UTF-8" standalone="no"?>
<!DOCTYPE svg PUBLIC "-//W3C//DTD SVG 1.1//EN"
 "http://www.w3.org/Graphics/SVG/1.1/DTD/svg11.dtd">
<!-- Generated by graphviz version 2.40.1 (20161225.0304)
 -->
<!-- Title: VehicleControl::createRisingEdgeThreadedInput Pages: 1 -->
<svg width="645pt" height="137pt"
 viewBox="0.00 0.00 644.51 137.00" xmlns="http://www.w3.org/2000/svg" xmlns:xlink="http://www.w3.org/1999/xlink">
<g id="graph0" class="graph" transform="scale(1 1) rotate(0) translate(4 133)">
<title>VehicleControl::createRisingEdgeThreadedInput</title>
<polygon fill="#ffffff" stroke="transparent" points="-4,4 -4,-133 640.508,-133 640.508,4 -4,4"/>
<!-- Node10 -->
<g id="node1" class="node">
<title>Node10</title>
<polygon fill="#bfbfbf" stroke="#000000" points="0,-51.5 0,-83.5 142.125,-83.5 142.125,-51.5 0,-51.5"/>
<text text-anchor="start" x="8" y="-70.5" font-family="Helvetica,sans-Serif" font-size="10.00" fill="#000000">VehicleControl::createRising</text>
<text text-anchor="middle" x="71.0625" y="-58.5" font-family="Helvetica,sans-Serif" font-size="10.00" fill="#000000">EdgeThreadedInput</text>
</g>
<!-- Node11 -->
<g id="node2" class="node">
<title>Node11</title>
<g id="a_node2"><a xlink:href="namespaceVehicleControl.html#af89cecf99aa4e7787af7433d8f3b6970" target="_top" xlink:title="VehicleControl::callback">
<polygon fill="#ffffff" stroke="#000000" points="178.125,-57.5 178.125,-77.5 300.805,-77.5 300.805,-57.5 178.125,-57.5"/>
<text text-anchor="middle" x="239.465" y="-64.5" font-family="Helvetica,sans-Serif" font-size="10.00" fill="#000000">VehicleControl::callback</text>
</a>
</g>
</g>
<!-- Node10&#45;&gt;Node11 -->
<g id="edge1" class="edge">
<title>Node10&#45;&gt;Node11</title>
<path fill="none" stroke="#191970" d="M142.4803,-67.5C150.8929,-67.5 159.4798,-67.5 167.8945,-67.5"/>
<polygon fill="#191970" stroke="#191970" points="168.0499,-71.0001 178.0499,-67.5 168.0499,-64.0001 168.0499,-71.0001"/>
</g>
<!-- Node12 -->
<g id="node3" class="node">
<title>Node12</title>
<g id="a_node3"><a xlink:href="classVehicleControl_1_1Control.html#aa050ea7668adf370680b812948b07a9e" target="_top" xlink:title="instance method is the Singleton method of creating and accessing this class. This ensures there can ...">
<polygon fill="#ffffff" stroke="#000000" points="336.805,-96.5 336.805,-128.5 455.593,-128.5 455.593,-96.5 336.805,-96.5"/>
<text text-anchor="start" x="344.805" y="-115.5" font-family="Helvetica,sans-Serif" font-size="10.00" fill="#000000">VehicleControl::Control</text>
<text text-anchor="middle" x="396.199" y="-103.5" font-family="Helvetica,sans-Serif" font-size="10.00" fill="#000000">::instance</text>
</a>
</g>
</g>
<!-- Node11&#45;&gt;Node12 -->
<g id="edge2" class="edge">
<title>Node11&#45;&gt;Node12</title>
<path fill="none" stroke="#191970" d="M274.6392,-77.5989C291.1621,-82.3428 311.4105,-88.1563 330.6077,-93.668"/>
<polygon fill="#191970" stroke="#191970" points="329.6471,-97.0336 340.2247,-96.4292 331.5789,-90.3054 329.6471,-97.0336"/>
</g>
<!-- Node13 -->
<g id="node4" class="node">
<title>Node13</title>
<g id="a_node4"><a xlink:href="classVehicleControl_1_1IO_1_1UserLED.html#a24318aac0770b5c67d10d8412fc5fda3" target="_top" xlink:title="state getter ">
<polygon fill="#ffffff" stroke="#000000" points="515.489,-51.5 515.489,-83.5 612.612,-83.5 612.612,-51.5 515.489,-51.5"/>
<text text-anchor="start" x="523.489" y="-70.5" font-family="Helvetica,sans-Serif" font-size="10.00" fill="#000000">VehicleControl::IO</text>
<text text-anchor="middle" x="564.0505" y="-58.5" font-family="Helvetica,sans-Serif" font-size="10.00" fill="#000000">::UserLED::state</text>
</a>
</g>
</g>
<!-- Node11&#45;&gt;Node13 -->
<g id="edge3" class="edge">
<title>Node11&#45;&gt;Node13</title>
<path fill="none" stroke="#191970" d="M300.8986,-67.5C359.5879,-67.5 447.4317,-67.5 505.2343,-67.5"/>
<polygon fill="#191970" stroke="#191970" points="505.3083,-71.0001 515.3083,-67.5 505.3082,-64.0001 505.3083,-71.0001"/>
</g>
<!-- Node14 -->
<g id="node5" class="node">
<title>Node14</title>
<g id="a_node5"><a xlink:href="classVehicleControl_1_1IO_1_1UserLED.html#a681c7658d0828edefed7028390adced0" target="_top" xlink:title="setState method sets the state of the LED ">
<polygon fill="#ffffff" stroke="#000000" points="344.0225,-6.5 344.0225,-38.5 448.3755,-38.5 448.3755,-6.5 344.0225,-6.5"/>
<text text-anchor="start" x="352.0225" y="-25.5" font-family="Helvetica,sans-Serif" font-size="10.00" fill="#000000">VehicleControl::IO</text>
<text text-anchor="middle" x="396.199" y="-13.5" font-family="Helvetica,sans-Serif" font-size="10.00" fill="#000000">::UserLED::setState</text>
</a>
</g>
</g>
<!-- Node11&#45;&gt;Node14 -->
<g id="edge4" class="edge">
<title>Node11&#45;&gt;Node14</title>
<path fill="none" stroke="#191970" d="M274.6392,-57.4011C292.1683,-52.3683 313.8904,-46.1317 334.102,-40.3287"/>
<polygon fill="#191970" stroke="#191970" points="335.232,-43.6458 343.8778,-37.522 333.3002,-36.9176 335.232,-43.6458"/>
</g>
<!-- Node14&#45;&gt;Node13 -->
<g id="edge5" class="edge">
<title>Node14&#45;&gt;Node13</title>
<path fill="none" stroke="#191970" d="M448.3882,-36.4916C466.498,-41.3467 486.9199,-46.8217 505.5079,-51.8051"/>
<polygon fill="#191970" stroke="#191970" points="504.763,-55.2289 515.3283,-54.4379 506.5757,-48.4677 504.763,-55.2289"/>
</g>
<!-- Node15 -->
<g id="node6" class="node">
<title>Node15</title>
<g id="a_node6"><a xlink:href="classThreadHelper.html#a4426e115e7858a4b6f6eedbc77302756" target="_top" xlink:title="startDetachedThread ">
<polygon fill="#ffffff" stroke="#000000" points="491.593,-.5 491.593,-32.5 636.508,-32.5 636.508,-.5 491.593,-.5"/>
<text text-anchor="start" x="499.593" y="-19.5" font-family="Helvetica,sans-Serif" font-size="10.00" fill="#000000">ThreadHelper::startDetached</text>
<text text-anchor="middle" x="564.0505" y="-7.5" font-family="Helvetica,sans-Serif" font-size="10.00" fill="#000000">Thread</text>
</a>
</g>
</g>
<!-- Node14&#45;&gt;Node15 -->
<g id="edge6" class="edge">
<title>Node14&#45;&gt;Node15</title>
<path fill="none" stroke="#191970" d="M448.3882,-20.6345C458.8509,-20.2605 470.0854,-19.8589 481.2921,-19.4583"/>
<polygon fill="#191970" stroke="#191970" points="481.6847,-22.9466 491.5532,-19.0915 481.4345,-15.951 481.6847,-22.9466"/>
</g>
</g>
</svg>
