<?xml version="1.0" encoding="UTF-8" standalone="no"?>
<!DOCTYPE svg PUBLIC "-//W3C//DTD SVG 1.1//EN"
 "http://www.w3.org/Graphics/SVG/1.1/DTD/svg11.dtd">
<!-- Generated by graphviz version 2.40.1 (20161225.0304)
 -->
<!-- Title: VehicleControl::callback Pages: 1 -->
<svg width="464pt" height="114pt"
 viewBox="0.00 0.00 463.59 114.00" xmlns="http://www.w3.org/2000/svg" xmlns:xlink="http://www.w3.org/1999/xlink">
<g id="graph0" class="graph" transform="scale(1 1) rotate(0) translate(4 110)">
<title>VehicleControl::callback</title>
<polygon fill="#ffffff" stroke="transparent" points="-4,4 -4,-110 459.593,-110 459.593,4 -4,4"/>
<!-- Node5 -->
<g id="node1" class="node">
<title>Node5</title>
<polygon fill="#bfbfbf" stroke="#000000" points="0,-57.5 0,-77.5 122.68,-77.5 122.68,-57.5 0,-57.5"/>
<text text-anchor="middle" x="61.34" y="-64.5" font-family="Helvetica,sans-Serif" font-size="10.00" fill="#000000">VehicleControl::callback</text>
</g>
<!-- Node6 -->
<g id="node2" class="node">
<title>Node6</title>
<g id="a_node2"><a xlink:href="structVehicleControl_1_1IO_1_1Input_1_1Setup.html#a09ce07a96559b6f63eaa51d8eccbc877" target="_top" xlink:title="VehicleControl::IO\l::Input::Setup::Setup">
<polygon fill="#ffffff" stroke="#000000" points="342.6195,-73.5 342.6195,-105.5 449.7785,-105.5 449.7785,-73.5 342.6195,-73.5"/>
<text text-anchor="start" x="350.6195" y="-92.5" font-family="Helvetica,sans-Serif" font-size="10.00" fill="#000000">VehicleControl::IO</text>
<text text-anchor="middle" x="396.199" y="-80.5" font-family="Helvetica,sans-Serif" font-size="10.00" fill="#000000">::Input::Setup::Setup</text>
</a>
</g>
</g>
<!-- Node5&#45;&gt;Node6 -->
<g id="edge1" class="edge">
<title>Node5&#45;&gt;Node6</title>
<path fill="none" stroke="#191970" d="M100.643,-80.5027C118.1904,-85.6538 139.2531,-90.9502 158.68,-93.5 221.2433,-101.7116 293.8641,-98.679 342.1733,-94.9094"/>
<polygon fill="#191970" stroke="#191970" points="101.3416,-77.0573 90.7564,-77.5084 99.3126,-83.7568 101.3416,-77.0573"/>
</g>
<!-- Node7 -->
<g id="node3" class="node">
<title>Node7</title>
<g id="a_node3"><a xlink:href="classVehicleControl_1_1IO_1_1Input.html#aa963e2cb77f82fb52ce77187494e54ea" target="_top" xlink:title="setEdgeCallback setter ">
<polygon fill="#ffffff" stroke="#000000" points="167.558,-51.5 167.558,-83.5 291.927,-83.5 291.927,-51.5 167.558,-51.5"/>
<text text-anchor="start" x="175.558" y="-70.5" font-family="Helvetica,sans-Serif" font-size="10.00" fill="#000000">VehicleControl::IO</text>
<text text-anchor="middle" x="229.7425" y="-58.5" font-family="Helvetica,sans-Serif" font-size="10.00" fill="#000000">::Input::setEdgeCallback</text>
</a>
</g>
</g>
<!-- Node5&#45;&gt;Node7 -->
<g id="edge2" class="edge">
<title>Node5&#45;&gt;Node7</title>
<path fill="none" stroke="#191970" d="M133.3879,-67.5C144.7186,-67.5 156.3492,-67.5 167.4356,-67.5"/>
<polygon fill="#191970" stroke="#191970" points="133.0907,-64.0001 123.0906,-67.5 133.0906,-71.0001 133.0907,-64.0001"/>
</g>
<!-- Node8 -->
<g id="node4" class="node">
<title>Node8</title>
<g id="a_node4"><a xlink:href="namespaceVehicleControl.html#a5756c96006fcbf65cf488b7e2297a73a" target="_top" xlink:title="VehicleControl::createRising\lEdgeThreadedInput">
<polygon fill="#ffffff" stroke="#000000" points="158.68,-.5 158.68,-32.5 300.805,-32.5 300.805,-.5 158.68,-.5"/>
<text text-anchor="start" x="166.68" y="-19.5" font-family="Helvetica,sans-Serif" font-size="10.00" fill="#000000">VehicleControl::createRising</text>
<text text-anchor="middle" x="229.7425" y="-7.5" font-family="Helvetica,sans-Serif" font-size="10.00" fill="#000000">EdgeThreadedInput</text>
</a>
</g>
</g>
<!-- Node5&#45;&gt;Node8 -->
<g id="edge4" class="edge">
<title>Node5&#45;&gt;Node8</title>
<path fill="none" stroke="#191970" d="M104.343,-54.4767C126.356,-47.8102 153.3542,-39.6339 176.6539,-32.5777"/>
<polygon fill="#191970" stroke="#191970" points="103.1672,-51.1758 94.6109,-57.424 105.1961,-57.8753 103.1672,-51.1758"/>
</g>
<!-- Node7&#45;&gt;Node6 -->
<g id="edge3" class="edge">
<title>Node7&#45;&gt;Node6</title>
<path fill="none" stroke="#191970" d="M302.3815,-77.1004C315.8244,-78.8772 329.642,-80.7034 342.4005,-82.3896"/>
<polygon fill="#191970" stroke="#191970" points="302.5708,-73.5951 292.1983,-75.7546 301.6535,-80.5348 302.5708,-73.5951"/>
</g>
<!-- Node9 -->
<g id="node5" class="node">
<title>Node9</title>
<g id="a_node5"><a xlink:href="classVehicleControl_1_1Control_1_1IOFactory.html#a4d4de0203bf577352199f49c67f49d98" target="_top" xlink:title="fillInputList method fills in all of the app&#39;s inputs ">
<polygon fill="#ffffff" stroke="#000000" points="336.805,-.5 336.805,-32.5 455.593,-32.5 455.593,-.5 336.805,-.5"/>
<text text-anchor="start" x="344.805" y="-19.5" font-family="Helvetica,sans-Serif" font-size="10.00" fill="#000000">VehicleControl::Control</text>
<text text-anchor="middle" x="396.199" y="-7.5" font-family="Helvetica,sans-Serif" font-size="10.00" fill="#000000">::IOFactory::fillInputList</text>
</a>
</g>
</g>
<!-- Node8&#45;&gt;Node9 -->
<g id="edge5" class="edge">
<title>Node8&#45;&gt;Node9</title>
<path fill="none" stroke="#191970" d="M310.9414,-16.5C319.5958,-16.5 328.2794,-16.5 336.6177,-16.5"/>
<polygon fill="#191970" stroke="#191970" points="310.8179,-13.0001 300.8179,-16.5 310.8178,-20.0001 310.8179,-13.0001"/>
</g>
</g>
</svg>
