<?xml version="1.0" encoding="UTF-8" standalone="no"?>
<!DOCTYPE svg PUBLIC "-//W3C//DTD SVG 1.1//EN"
 "http://www.w3.org/Graphics/SVG/1.1/DTD/svg11.dtd">
<!-- Generated by graphviz version 2.40.1 (20161225.0304)
 -->
<!-- Title: VehicleControl::callback Pages: 1 -->
<svg width="453pt" height="92pt"
 viewBox="0.00 0.00 453.05 92.00" xmlns="http://www.w3.org/2000/svg" xmlns:xlink="http://www.w3.org/1999/xlink">
<g id="graph0" class="graph" transform="scale(1 1) rotate(0) translate(4 88)">
<title>VehicleControl::callback</title>
<polygon fill="#ffffff" stroke="transparent" points="-4,4 -4,-88 449.047,-88 449.047,4 -4,4"/>
<!-- Node0 -->
<g id="node1" class="node">
<title>Node0</title>
<polygon fill="#bfbfbf" stroke="#000000" points="0,-34.5 0,-54.5 122.68,-54.5 122.68,-34.5 0,-34.5"/>
<text text-anchor="middle" x="61.34" y="-41.5" font-family="Helvetica,sans-Serif" font-size="10.00" fill="#000000">VehicleControl::callback</text>
</g>
<!-- Node1 -->
<g id="node2" class="node">
<title>Node1</title>
<g id="a_node2"><a xlink:href="classCore_1_1IO_1_1UserLED.html#a5d7887f070c9ce082f8be1d3aae448d2" target="_top" xlink:title="state getter ">
<polygon fill="#ffffff" stroke="#000000" points="319.8635,-51.5 319.8635,-83.5 425.3155,-83.5 425.3155,-51.5 319.8635,-51.5"/>
<text text-anchor="start" x="327.8635" y="-70.5" font-family="Helvetica,sans-Serif" font-size="10.00" fill="#000000">Core::IO::UserLED::</text>
<text text-anchor="middle" x="372.5895" y="-58.5" font-family="Helvetica,sans-Serif" font-size="10.00" fill="#000000">state</text>
</a>
</g>
</g>
<!-- Node0&#45;&gt;Node1 -->
<g id="edge1" class="edge">
<title>Node0&#45;&gt;Node1</title>
<path fill="none" stroke="#191970" d="M122.8329,-49.0441C176.8416,-53.0351 255.0786,-58.8164 309.545,-62.8413"/>
<polygon fill="#191970" stroke="#191970" points="309.5361,-66.3501 319.7669,-63.5966 310.052,-59.3691 309.5361,-66.3501"/>
</g>
<!-- Node2 -->
<g id="node3" class="node">
<title>Node2</title>
<g id="a_node3"><a xlink:href="classCore_1_1IO_1_1UserLED.html#ac39c3ed451b83046ff37ecb4ccff142c" target="_top" xlink:title="setState method sets the state of the LED ">
<polygon fill="#ffffff" stroke="#000000" points="158.68,-6.5 158.68,-38.5 264.132,-38.5 264.132,-6.5 158.68,-6.5"/>
<text text-anchor="start" x="166.68" y="-25.5" font-family="Helvetica,sans-Serif" font-size="10.00" fill="#000000">Core::IO::UserLED::</text>
<text text-anchor="middle" x="211.406" y="-13.5" font-family="Helvetica,sans-Serif" font-size="10.00" fill="#000000">setState</text>
</a>
</g>
</g>
<!-- Node0&#45;&gt;Node2 -->
<g id="edge2" class="edge">
<title>Node0&#45;&gt;Node2</title>
<path fill="none" stroke="#191970" d="M122.8106,-35.4883C131.2122,-34.2566 139.8485,-32.9905 148.279,-31.7546"/>
<polygon fill="#191970" stroke="#191970" points="149.0442,-35.1799 158.4307,-30.2663 148.0288,-28.2539 149.0442,-35.1799"/>
</g>
<!-- Node2&#45;&gt;Node1 -->
<g id="edge3" class="edge">
<title>Node2&#45;&gt;Node1</title>
<path fill="none" stroke="#191970" d="M264.1835,-37.2347C278.7946,-41.3139 294.7959,-45.7812 309.9116,-50.0013"/>
<polygon fill="#191970" stroke="#191970" points="309.1206,-53.4142 319.6934,-52.7322 311.0029,-46.672 309.1206,-53.4142"/>
</g>
<!-- Node3 -->
<g id="node4" class="node">
<title>Node3</title>
<g id="a_node4"><a xlink:href="classThreadHelper.html#a4426e115e7858a4b6f6eedbc77302756" target="_top" xlink:title="startDetachedThread ">
<polygon fill="#ffffff" stroke="#000000" points="300.132,-.5 300.132,-32.5 445.047,-32.5 445.047,-.5 300.132,-.5"/>
<text text-anchor="start" x="308.132" y="-19.5" font-family="Helvetica,sans-Serif" font-size="10.00" fill="#000000">ThreadHelper::startDetached</text>
<text text-anchor="middle" x="372.5895" y="-7.5" font-family="Helvetica,sans-Serif" font-size="10.00" fill="#000000">Thread</text>
</a>
</g>
</g>
<!-- Node2&#45;&gt;Node3 -->
<g id="edge4" class="edge">
<title>Node2&#45;&gt;Node3</title>
<path fill="none" stroke="#191970" d="M264.1835,-20.5354C272.4323,-20.2283 281.1241,-19.9048 289.8496,-19.58"/>
<polygon fill="#191970" stroke="#191970" points="290.2206,-23.0687 300.0834,-19.199 289.9601,-16.0735 290.2206,-23.0687"/>
</g>
</g>
</svg>
