<?xml version="1.0" encoding="UTF-8" standalone="no"?>
<!DOCTYPE svg PUBLIC "-//W3C//DTD SVG 1.1//EN"
 "http://www.w3.org/Graphics/SVG/1.1/DTD/svg11.dtd">
<!-- Generated by graphviz version 2.40.1 (20161225.0304)
 -->
<!-- Title: VehicleControl::callback Pages: 1 -->
<svg width="430pt" height="92pt"
 viewBox="0.00 0.00 430.27 92.00" xmlns="http://www.w3.org/2000/svg" xmlns:xlink="http://www.w3.org/1999/xlink">
<g id="graph0" class="graph" transform="scale(1 1) rotate(0) translate(4 88)">
<title>VehicleControl::callback</title>
<polygon fill="#ffffff" stroke="transparent" points="-4,4 -4,-88 426.272,-88 426.272,4 -4,4"/>
<!-- Node0 -->
<g id="node1" class="node">
<title>Node0</title>
<polygon fill="#bfbfbf" stroke="#000000" points="0,-34.5 0,-54.5 122.68,-54.5 122.68,-34.5 0,-34.5"/>
<text text-anchor="middle" x="61.34" y="-41.5" font-family="Helvetica,sans-Serif" font-size="10.00" fill="#000000">VehicleControl::callback</text>
</g>
<!-- Node1 -->
<g id="node2" class="node">
<title>Node1</title>
<g id="a_node2"><a xlink:href="classLibBBB_1_1IO_1_1UserLED.html#a98c0a865b590a4149e3b5a8d8c97d6cd" target="_top" xlink:title="state getter ">
<polygon fill="#ffffff" stroke="#000000" points="308.476,-51.5 308.476,-83.5 420.048,-83.5 420.048,-51.5 308.476,-51.5"/>
<text text-anchor="start" x="316.476" y="-70.5" font-family="Helvetica,sans-Serif" font-size="10.00" fill="#000000">LibBBB::IO::UserLED</text>
<text text-anchor="middle" x="364.262" y="-58.5" font-family="Helvetica,sans-Serif" font-size="10.00" fill="#000000">::state</text>
</a>
</g>
</g>
<!-- Node0&#45;&gt;Node1 -->
<g id="edge1" class="edge">
<title>Node0&#45;&gt;Node1</title>
<path fill="none" stroke="#191970" d="M123.0059,-49.1821C173.9293,-53.0486 246.0475,-58.5243 298.1549,-62.4807"/>
<polygon fill="#191970" stroke="#191970" points="298.061,-65.9835 308.2973,-63.2508 298.591,-59.0036 298.061,-65.9835"/>
</g>
<!-- Node2 -->
<g id="node3" class="node">
<title>Node2</title>
<g id="a_node3"><a xlink:href="classLibBBB_1_1IO_1_1UserLED.html#a5d6714d1ddc854308c1d4cc5448ded07" target="_top" xlink:title="setState method sets the state of the LED ">
<polygon fill="#ffffff" stroke="#000000" points="158.68,-6.5 158.68,-38.5 270.252,-38.5 270.252,-6.5 158.68,-6.5"/>
<text text-anchor="start" x="166.68" y="-25.5" font-family="Helvetica,sans-Serif" font-size="10.00" fill="#000000">LibBBB::IO::UserLED</text>
<text text-anchor="middle" x="214.466" y="-13.5" font-family="Helvetica,sans-Serif" font-size="10.00" fill="#000000">::setState</text>
</a>
</g>
</g>
<!-- Node0&#45;&gt;Node2 -->
<g id="edge2" class="edge">
<title>Node0&#45;&gt;Node2</title>
<path fill="none" stroke="#191970" d="M122.7399,-35.6785C131.232,-34.4584 139.9833,-33.2011 148.5531,-31.9699"/>
<polygon fill="#191970" stroke="#191970" points="149.1029,-35.4269 158.5035,-30.5403 148.1074,-28.4981 149.1029,-35.4269"/>
</g>
<!-- Node2&#45;&gt;Node1 -->
<g id="edge3" class="edge">
<title>Node2&#45;&gt;Node1</title>
<path fill="none" stroke="#191970" d="M268.1227,-38.6189C278.9011,-41.8568 290.3193,-45.287 301.3786,-48.6093"/>
<polygon fill="#191970" stroke="#191970" points="300.3957,-51.9685 310.9799,-51.4936 302.4097,-45.2645 300.3957,-51.9685"/>
</g>
<!-- Node3 -->
<g id="node4" class="node">
<title>Node3</title>
<g id="a_node4"><a xlink:href="classLibBBB_1_1ThreadHelper.html#a6999e18135496ef252b1c43c374c20f9" target="_top" xlink:title="startDetachedThread ">
<polygon fill="#ffffff" stroke="#000000" points="306.252,-.5 306.252,-32.5 422.272,-32.5 422.272,-.5 306.252,-.5"/>
<text text-anchor="start" x="314.252" y="-19.5" font-family="Helvetica,sans-Serif" font-size="10.00" fill="#000000">LibBBB::ThreadHelper</text>
<text text-anchor="middle" x="364.262" y="-7.5" font-family="Helvetica,sans-Serif" font-size="10.00" fill="#000000">::startDetachedThread</text>
</a>
</g>
</g>
<!-- Node2&#45;&gt;Node3 -->
<g id="edge4" class="edge">
<title>Node2&#45;&gt;Node3</title>
<path fill="none" stroke="#191970" d="M270.6707,-20.2488C278.9336,-19.9178 287.5207,-19.5738 295.9938,-19.2344"/>
<polygon fill="#191970" stroke="#191970" points="296.3912,-22.7214 306.2431,-18.8239 296.111,-15.727 296.3912,-22.7214"/>
</g>
</g>
</svg>
