<?xml version="1.0" encoding="UTF-8" standalone="no"?>
<!DOCTYPE svg PUBLIC "-//W3C//DTD SVG 1.1//EN"
 "http://www.w3.org/Graphics/SVG/1.1/DTD/svg11.dtd">
<!-- Generated by graphviz version 2.40.1 (20161225.0304)
 -->
<!-- Title: VehicleControl::createRisingEdgeThreadedInput Pages: 1 -->
<svg width="608pt" height="92pt"
 viewBox="0.00 0.00 608.40 92.00" xmlns="http://www.w3.org/2000/svg" xmlns:xlink="http://www.w3.org/1999/xlink">
<g id="graph0" class="graph" transform="scale(1 1) rotate(0) translate(4 88)">
<title>VehicleControl::createRisingEdgeThreadedInput</title>
<polygon fill="#ffffff" stroke="transparent" points="-4,4 -4,-88 604.397,-88 604.397,4 -4,4"/>
<!-- Node9 -->
<g id="node1" class="node">
<title>Node9</title>
<polygon fill="#bfbfbf" stroke="#000000" points="0,-28.5 0,-60.5 142.125,-60.5 142.125,-28.5 0,-28.5"/>
<text text-anchor="start" x="8" y="-47.5" font-family="Helvetica,sans-Serif" font-size="10.00" fill="#000000">VehicleControl::createRising</text>
<text text-anchor="middle" x="71.0625" y="-35.5" font-family="Helvetica,sans-Serif" font-size="10.00" fill="#000000">EdgeThreadedInput</text>
</g>
<!-- Node10 -->
<g id="node2" class="node">
<title>Node10</title>
<g id="a_node2"><a xlink:href="namespaceVehicleControl.html#af89cecf99aa4e7787af7433d8f3b6970" target="_top" xlink:title="VehicleControl::callback">
<polygon fill="#ffffff" stroke="#000000" points="178.125,-34.5 178.125,-54.5 300.805,-54.5 300.805,-34.5 178.125,-34.5"/>
<text text-anchor="middle" x="239.465" y="-41.5" font-family="Helvetica,sans-Serif" font-size="10.00" fill="#000000">VehicleControl::callback</text>
</a>
</g>
</g>
<!-- Node9&#45;&gt;Node10 -->
<g id="edge1" class="edge">
<title>Node9&#45;&gt;Node10</title>
<path fill="none" stroke="#191970" d="M142.4803,-44.5C150.8929,-44.5 159.4798,-44.5 167.8945,-44.5"/>
<polygon fill="#191970" stroke="#191970" points="168.0499,-48.0001 178.0499,-44.5 168.0499,-41.0001 168.0499,-48.0001"/>
</g>
<!-- Node11 -->
<g id="node3" class="node">
<title>Node11</title>
<g id="a_node3"><a xlink:href="classLibBBB_1_1IO_1_1UserLED.html#a98c0a865b590a4149e3b5a8d8c97d6cd" target="_top" xlink:title="state getter ">
<polygon fill="#ffffff" stroke="#000000" points="486.601,-51.5 486.601,-83.5 598.173,-83.5 598.173,-51.5 486.601,-51.5"/>
<text text-anchor="start" x="494.601" y="-70.5" font-family="Helvetica,sans-Serif" font-size="10.00" fill="#000000">LibBBB::IO::UserLED</text>
<text text-anchor="middle" x="542.387" y="-58.5" font-family="Helvetica,sans-Serif" font-size="10.00" fill="#000000">::state</text>
</a>
</g>
</g>
<!-- Node10&#45;&gt;Node11 -->
<g id="edge2" class="edge">
<title>Node10&#45;&gt;Node11</title>
<path fill="none" stroke="#191970" d="M301.1309,-49.1821C352.0543,-53.0486 424.1725,-58.5243 476.2799,-62.4807"/>
<polygon fill="#191970" stroke="#191970" points="476.186,-65.9835 486.4223,-63.2508 476.716,-59.0036 476.186,-65.9835"/>
</g>
<!-- Node12 -->
<g id="node4" class="node">
<title>Node12</title>
<g id="a_node4"><a xlink:href="classLibBBB_1_1IO_1_1UserLED.html#a5d6714d1ddc854308c1d4cc5448ded07" target="_top" xlink:title="setState method sets the state of the LED ">
<polygon fill="#ffffff" stroke="#000000" points="336.805,-6.5 336.805,-38.5 448.377,-38.5 448.377,-6.5 336.805,-6.5"/>
<text text-anchor="start" x="344.805" y="-25.5" font-family="Helvetica,sans-Serif" font-size="10.00" fill="#000000">LibBBB::IO::UserLED</text>
<text text-anchor="middle" x="392.591" y="-13.5" font-family="Helvetica,sans-Serif" font-size="10.00" fill="#000000">::setState</text>
</a>
</g>
</g>
<!-- Node10&#45;&gt;Node12 -->
<g id="edge3" class="edge">
<title>Node10&#45;&gt;Node12</title>
<path fill="none" stroke="#191970" d="M300.8649,-35.6785C309.357,-34.4584 318.1083,-33.2011 326.6781,-31.9699"/>
<polygon fill="#191970" stroke="#191970" points="327.2279,-35.4269 336.6285,-30.5403 326.2324,-28.4981 327.2279,-35.4269"/>
</g>
<!-- Node12&#45;&gt;Node11 -->
<g id="edge4" class="edge">
<title>Node12&#45;&gt;Node11</title>
<path fill="none" stroke="#191970" d="M446.2477,-38.6189C457.0261,-41.8568 468.4443,-45.287 479.5036,-48.6093"/>
<polygon fill="#191970" stroke="#191970" points="478.5207,-51.9685 489.1049,-51.4936 480.5347,-45.2645 478.5207,-51.9685"/>
</g>
<!-- Node13 -->
<g id="node5" class="node">
<title>Node13</title>
<g id="a_node5"><a xlink:href="classLibBBB_1_1ThreadHelper.html#a6999e18135496ef252b1c43c374c20f9" target="_top" xlink:title="startDetachedThread ">
<polygon fill="#ffffff" stroke="#000000" points="484.377,-.5 484.377,-32.5 600.397,-32.5 600.397,-.5 484.377,-.5"/>
<text text-anchor="start" x="492.377" y="-19.5" font-family="Helvetica,sans-Serif" font-size="10.00" fill="#000000">LibBBB::ThreadHelper</text>
<text text-anchor="middle" x="542.387" y="-7.5" font-family="Helvetica,sans-Serif" font-size="10.00" fill="#000000">::startDetachedThread</text>
</a>
</g>
</g>
<!-- Node12&#45;&gt;Node13 -->
<g id="edge5" class="edge">
<title>Node12&#45;&gt;Node13</title>
<path fill="none" stroke="#191970" d="M448.7957,-20.2488C457.0586,-19.9178 465.6457,-19.5738 474.1188,-19.2344"/>
<polygon fill="#191970" stroke="#191970" points="474.5162,-22.7214 484.3681,-18.8239 474.236,-15.727 474.5162,-22.7214"/>
</g>
</g>
</svg>
