<?xml version="1.0" encoding="UTF-8" standalone="no"?>
<!DOCTYPE svg PUBLIC "-//W3C//DTD SVG 1.1//EN"
 "http://www.w3.org/Graphics/SVG/1.1/DTD/svg11.dtd">
<!-- Generated by graphviz version 2.40.1 (20161225.0304)
 -->
<!-- Title: VehicleControl::callback Pages: 1 -->
<svg width="466pt" height="137pt"
 viewBox="0.00 0.00 466.38 137.00" xmlns="http://www.w3.org/2000/svg" xmlns:xlink="http://www.w3.org/1999/xlink">
<g id="graph0" class="graph" transform="scale(1 1) rotate(0) translate(4 133)">
<title>VehicleControl::callback</title>
<polygon fill="#ffffff" stroke="transparent" points="-4,4 -4,-133 462.383,-133 462.383,4 -4,4"/>
<!-- Node0 -->
<g id="node1" class="node">
<title>Node0</title>
<polygon fill="#bfbfbf" stroke="#000000" points="0,-57.5 0,-77.5 122.68,-77.5 122.68,-57.5 0,-57.5"/>
<text text-anchor="middle" x="61.34" y="-64.5" font-family="Helvetica,sans-Serif" font-size="10.00" fill="#000000">VehicleControl::callback</text>
</g>
<!-- Node1 -->
<g id="node2" class="node">
<title>Node1</title>
<g id="a_node2"><a xlink:href="classVehicleControl_1_1Control.html#aa050ea7668adf370680b812948b07a9e" target="_top" xlink:title="instance method is the Singleton method of creating and accessing this class. This ensures there can ...">
<polygon fill="#ffffff" stroke="#000000" points="158.68,-96.5 158.68,-128.5 277.468,-128.5 277.468,-96.5 158.68,-96.5"/>
<text text-anchor="start" x="166.68" y="-115.5" font-family="Helvetica,sans-Serif" font-size="10.00" fill="#000000">VehicleControl::Control</text>
<text text-anchor="middle" x="218.074" y="-103.5" font-family="Helvetica,sans-Serif" font-size="10.00" fill="#000000">::instance</text>
</a>
</g>
</g>
<!-- Node0&#45;&gt;Node1 -->
<g id="edge1" class="edge">
<title>Node0&#45;&gt;Node1</title>
<path fill="none" stroke="#191970" d="M96.5142,-77.5989C113.0371,-82.3428 133.2855,-88.1563 152.4827,-93.668"/>
<polygon fill="#191970" stroke="#191970" points="151.5221,-97.0336 162.0997,-96.4292 153.4539,-90.3054 151.5221,-97.0336"/>
</g>
<!-- Node2 -->
<g id="node3" class="node">
<title>Node2</title>
<g id="a_node3"><a xlink:href="classVehicleControl_1_1IO_1_1UserLED.html#a24318aac0770b5c67d10d8412fc5fda3" target="_top" xlink:title="state getter ">
<polygon fill="#ffffff" stroke="#000000" points="337.364,-51.5 337.364,-83.5 434.487,-83.5 434.487,-51.5 337.364,-51.5"/>
<text text-anchor="start" x="345.364" y="-70.5" font-family="Helvetica,sans-Serif" font-size="10.00" fill="#000000">VehicleControl::IO</text>
<text text-anchor="middle" x="385.9255" y="-58.5" font-family="Helvetica,sans-Serif" font-size="10.00" fill="#000000">::UserLED::state</text>
</a>
</g>
</g>
<!-- Node0&#45;&gt;Node2 -->
<g id="edge2" class="edge">
<title>Node0&#45;&gt;Node2</title>
<path fill="none" stroke="#191970" d="M122.7736,-67.5C181.4629,-67.5 269.3067,-67.5 327.1093,-67.5"/>
<polygon fill="#191970" stroke="#191970" points="327.1833,-71.0001 337.1833,-67.5 327.1832,-64.0001 327.1833,-71.0001"/>
</g>
<!-- Node3 -->
<g id="node4" class="node">
<title>Node3</title>
<g id="a_node4"><a xlink:href="classVehicleControl_1_1IO_1_1UserLED.html#a681c7658d0828edefed7028390adced0" target="_top" xlink:title="setState method sets the state of the LED ">
<polygon fill="#ffffff" stroke="#000000" points="165.8975,-6.5 165.8975,-38.5 270.2505,-38.5 270.2505,-6.5 165.8975,-6.5"/>
<text text-anchor="start" x="173.8975" y="-25.5" font-family="Helvetica,sans-Serif" font-size="10.00" fill="#000000">VehicleControl::IO</text>
<text text-anchor="middle" x="218.074" y="-13.5" font-family="Helvetica,sans-Serif" font-size="10.00" fill="#000000">::UserLED::setState</text>
</a>
</g>
</g>
<!-- Node0&#45;&gt;Node3 -->
<g id="edge3" class="edge">
<title>Node0&#45;&gt;Node3</title>
<path fill="none" stroke="#191970" d="M96.5142,-57.4011C114.0433,-52.3683 135.7654,-46.1317 155.977,-40.3287"/>
<polygon fill="#191970" stroke="#191970" points="157.107,-43.6458 165.7528,-37.522 155.1752,-36.9176 157.107,-43.6458"/>
</g>
<!-- Node3&#45;&gt;Node2 -->
<g id="edge4" class="edge">
<title>Node3&#45;&gt;Node2</title>
<path fill="none" stroke="#191970" d="M270.2632,-36.4916C288.373,-41.3467 308.7949,-46.8217 327.3829,-51.8051"/>
<polygon fill="#191970" stroke="#191970" points="326.638,-55.2289 337.2033,-54.4379 328.4507,-48.4677 326.638,-55.2289"/>
</g>
<!-- Node4 -->
<g id="node5" class="node">
<title>Node4</title>
<g id="a_node5"><a xlink:href="classThreadHelper.html#a4426e115e7858a4b6f6eedbc77302756" target="_top" xlink:title="startDetachedThread ">
<polygon fill="#ffffff" stroke="#000000" points="313.468,-.5 313.468,-32.5 458.383,-32.5 458.383,-.5 313.468,-.5"/>
<text text-anchor="start" x="321.468" y="-19.5" font-family="Helvetica,sans-Serif" font-size="10.00" fill="#000000">ThreadHelper::startDetached</text>
<text text-anchor="middle" x="385.9255" y="-7.5" font-family="Helvetica,sans-Serif" font-size="10.00" fill="#000000">Thread</text>
</a>
</g>
</g>
<!-- Node3&#45;&gt;Node4 -->
<g id="edge5" class="edge">
<title>Node3&#45;&gt;Node4</title>
<path fill="none" stroke="#191970" d="M270.2632,-20.6345C280.7259,-20.2605 291.9604,-19.8589 303.1671,-19.4583"/>
<polygon fill="#191970" stroke="#191970" points="303.5597,-22.9466 313.4282,-19.0915 303.3095,-15.951 303.5597,-22.9466"/>
</g>
</g>
</svg>
