<?xml version="1.0" encoding="UTF-8" standalone="no"?>
<!DOCTYPE svg PUBLIC "-//W3C//DTD SVG 1.1//EN"
 "http://www.w3.org/Graphics/SVG/1.1/DTD/svg11.dtd">
<!-- Generated by graphviz version 2.40.1 (20161225.0304)
 -->
<!-- Title: VehicleControl::createRisingEdgeThreadedInput Pages: 1 -->
<svg width="631pt" height="92pt"
 viewBox="0.00 0.00 631.17 92.00" xmlns="http://www.w3.org/2000/svg" xmlns:xlink="http://www.w3.org/1999/xlink">
<g id="graph0" class="graph" transform="scale(1 1) rotate(0) translate(4 88)">
<title>VehicleControl::createRisingEdgeThreadedInput</title>
<polygon fill="#ffffff" stroke="transparent" points="-4,4 -4,-88 627.172,-88 627.172,4 -4,4"/>
<!-- Node9 -->
<g id="node1" class="node">
<title>Node9</title>
<polygon fill="#bfbfbf" stroke="#000000" points="0,-28.5 0,-60.5 142.125,-60.5 142.125,-28.5 0,-28.5"/>
<text text-anchor="start" x="8" y="-47.5" font-family="Helvetica,sans-Serif" font-size="10.00" fill="#000000">VehicleControl::createRising</text>
<text text-anchor="middle" x="71.0625" y="-35.5" font-family="Helvetica,sans-Serif" font-size="10.00" fill="#000000">EdgeThreadedInput</text>
</g>
<!-- Node10 -->
<g id="node2" class="node">
<title>Node10</title>
<g id="a_node2"><a xlink:href="namespaceVehicleControl.html#af89cecf99aa4e7787af7433d8f3b6970" target="_top" xlink:title="VehicleControl::callback">
<polygon fill="#ffffff" stroke="#000000" points="178.125,-34.5 178.125,-54.5 300.805,-54.5 300.805,-34.5 178.125,-34.5"/>
<text text-anchor="middle" x="239.465" y="-41.5" font-family="Helvetica,sans-Serif" font-size="10.00" fill="#000000">VehicleControl::callback</text>
</a>
</g>
</g>
<!-- Node9&#45;&gt;Node10 -->
<g id="edge1" class="edge">
<title>Node9&#45;&gt;Node10</title>
<path fill="none" stroke="#191970" d="M142.4803,-44.5C150.8929,-44.5 159.4798,-44.5 167.8945,-44.5"/>
<polygon fill="#191970" stroke="#191970" points="168.0499,-48.0001 178.0499,-44.5 168.0499,-41.0001 168.0499,-48.0001"/>
</g>
<!-- Node11 -->
<g id="node3" class="node">
<title>Node11</title>
<g id="a_node3"><a xlink:href="classCore_1_1IO_1_1UserLED.html#a5d7887f070c9ce082f8be1d3aae448d2" target="_top" xlink:title="state getter ">
<polygon fill="#ffffff" stroke="#000000" points="497.9885,-51.5 497.9885,-83.5 603.4405,-83.5 603.4405,-51.5 497.9885,-51.5"/>
<text text-anchor="start" x="505.9885" y="-70.5" font-family="Helvetica,sans-Serif" font-size="10.00" fill="#000000">Core::IO::UserLED::</text>
<text text-anchor="middle" x="550.7145" y="-58.5" font-family="Helvetica,sans-Serif" font-size="10.00" fill="#000000">state</text>
</a>
</g>
</g>
<!-- Node10&#45;&gt;Node11 -->
<g id="edge2" class="edge">
<title>Node10&#45;&gt;Node11</title>
<path fill="none" stroke="#191970" d="M300.9579,-49.0441C354.9666,-53.0351 433.2036,-58.8164 487.67,-62.8413"/>
<polygon fill="#191970" stroke="#191970" points="487.6611,-66.3501 497.8919,-63.5966 488.177,-59.3691 487.6611,-66.3501"/>
</g>
<!-- Node12 -->
<g id="node4" class="node">
<title>Node12</title>
<g id="a_node4"><a xlink:href="classCore_1_1IO_1_1UserLED.html#ac39c3ed451b83046ff37ecb4ccff142c" target="_top" xlink:title="setState method sets the state of the LED ">
<polygon fill="#ffffff" stroke="#000000" points="336.805,-6.5 336.805,-38.5 442.257,-38.5 442.257,-6.5 336.805,-6.5"/>
<text text-anchor="start" x="344.805" y="-25.5" font-family="Helvetica,sans-Serif" font-size="10.00" fill="#000000">Core::IO::UserLED::</text>
<text text-anchor="middle" x="389.531" y="-13.5" font-family="Helvetica,sans-Serif" font-size="10.00" fill="#000000">setState</text>
</a>
</g>
</g>
<!-- Node10&#45;&gt;Node12 -->
<g id="edge3" class="edge">
<title>Node10&#45;&gt;Node12</title>
<path fill="none" stroke="#191970" d="M300.9356,-35.4883C309.3372,-34.2566 317.9735,-32.9905 326.404,-31.7546"/>
<polygon fill="#191970" stroke="#191970" points="327.1692,-35.1799 336.5557,-30.2663 326.1538,-28.2539 327.1692,-35.1799"/>
</g>
<!-- Node12&#45;&gt;Node11 -->
<g id="edge4" class="edge">
<title>Node12&#45;&gt;Node11</title>
<path fill="none" stroke="#191970" d="M442.3085,-37.2347C456.9196,-41.3139 472.9209,-45.7812 488.0366,-50.0013"/>
<polygon fill="#191970" stroke="#191970" points="487.2456,-53.4142 497.8184,-52.7322 489.1279,-46.672 487.2456,-53.4142"/>
</g>
<!-- Node13 -->
<g id="node5" class="node">
<title>Node13</title>
<g id="a_node5"><a xlink:href="classThreadHelper.html#a4426e115e7858a4b6f6eedbc77302756" target="_top" xlink:title="startDetachedThread ">
<polygon fill="#ffffff" stroke="#000000" points="478.257,-.5 478.257,-32.5 623.172,-32.5 623.172,-.5 478.257,-.5"/>
<text text-anchor="start" x="486.257" y="-19.5" font-family="Helvetica,sans-Serif" font-size="10.00" fill="#000000">ThreadHelper::startDetached</text>
<text text-anchor="middle" x="550.7145" y="-7.5" font-family="Helvetica,sans-Serif" font-size="10.00" fill="#000000">Thread</text>
</a>
</g>
</g>
<!-- Node12&#45;&gt;Node13 -->
<g id="edge5" class="edge">
<title>Node12&#45;&gt;Node13</title>
<path fill="none" stroke="#191970" d="M442.3085,-20.5354C450.5573,-20.2283 459.2491,-19.9048 467.9746,-19.58"/>
<polygon fill="#191970" stroke="#191970" points="468.3456,-23.0687 478.2084,-19.199 468.0851,-16.0735 468.3456,-23.0687"/>
</g>
</g>
</svg>
