<?xml version="1.0" encoding="UTF-8" standalone="no"?>
<!DOCTYPE svg PUBLIC "-//W3C//DTD SVG 1.1//EN"
 "http://www.w3.org/Graphics/SVG/1.1/DTD/svg11.dtd">
<!-- Generated by graphviz version 2.40.1 (20161225.0304)
 -->
<!-- Title: VehicleControl::callback Pages: 1 -->
<svg width="464pt" height="131pt"
 viewBox="0.00 0.00 463.59 131.00" xmlns="http://www.w3.org/2000/svg" xmlns:xlink="http://www.w3.org/1999/xlink">
<g id="graph0" class="graph" transform="scale(1 1) rotate(0) translate(4 127)">
<title>VehicleControl::callback</title>
<polygon fill="#ffffff" stroke="transparent" points="-4,4 -4,-127 459.593,-127 459.593,4 -4,4"/>
<!-- Node1 -->
<g id="node1" class="node">
<title>Node1</title>
<polygon fill="#bfbfbf" stroke="#000000" points="0,-51.5 0,-71.5 122.68,-71.5 122.68,-51.5 0,-51.5"/>
<text text-anchor="middle" x="61.34" y="-58.5" font-family="Helvetica,sans-Serif" font-size="10.00" fill="#000000">VehicleControl::callback</text>
</g>
<!-- Node2 -->
<g id="node2" class="node">
<title>Node2</title>
<g id="a_node2"><a xlink:href="classLibBBB_1_1IO_1_1Input.html#ab581bd59f9ca5bfb2e45ebdc81b5e3cc" target="_top" xlink:title="setEdgeCallback setter ">
<polygon fill="#ffffff" stroke="#000000" points="180.337,-90.5 180.337,-122.5 279.148,-122.5 279.148,-90.5 180.337,-90.5"/>
<text text-anchor="start" x="188.337" y="-109.5" font-family="Helvetica,sans-Serif" font-size="10.00" fill="#000000">LibBBB::IO::Input::</text>
<text text-anchor="middle" x="229.7425" y="-97.5" font-family="Helvetica,sans-Serif" font-size="10.00" fill="#000000">setEdgeCallback</text>
</a>
</g>
</g>
<!-- Node1&#45;&gt;Node2 -->
<g id="edge1" class="edge">
<title>Node1&#45;&gt;Node2</title>
<path fill="none" stroke="#191970" d="M109.0325,-74.2442C131.2894,-80.1917 157.7669,-87.2669 180.245,-93.2734"/>
<polygon fill="#191970" stroke="#191970" points="109.6974,-70.7992 99.1328,-71.5989 107.8903,-77.5619 109.6974,-70.7992"/>
</g>
<!-- Node3 -->
<g id="node3" class="node">
<title>Node3</title>
<g id="a_node3"><a xlink:href="structLibBBB_1_1IO_1_1Input_1_1Setup.html#a1ad926b46c1818dd934b0b99ddb63386" target="_top" xlink:title="LibBBB::IO::Input::\lSetup::Setup">
<polygon fill="#ffffff" stroke="#000000" points="346.7935,-70.5 346.7935,-102.5 445.6045,-102.5 445.6045,-70.5 346.7935,-70.5"/>
<text text-anchor="start" x="354.7935" y="-89.5" font-family="Helvetica,sans-Serif" font-size="10.00" fill="#000000">LibBBB::IO::Input::</text>
<text text-anchor="middle" x="396.199" y="-77.5" font-family="Helvetica,sans-Serif" font-size="10.00" fill="#000000">Setup::Setup</text>
</a>
</g>
</g>
<!-- Node1&#45;&gt;Node3 -->
<g id="edge3" class="edge">
<title>Node1&#45;&gt;Node3</title>
<path fill="none" stroke="#191970" d="M132.8318,-66.8375C197.1861,-71.642 290.0814,-78.5774 346.6149,-82.7981"/>
<polygon fill="#191970" stroke="#191970" points="132.9912,-63.3397 122.7583,-66.0854 132.4699,-70.3203 132.9912,-63.3397"/>
</g>
<!-- Node4 -->
<g id="node4" class="node">
<title>Node4</title>
<g id="a_node4"><a xlink:href="namespaceVehicleControl.html#ab876bdb990021d96b1452a85b59f99d8" target="_top" xlink:title="VehicleControl::createRising\lEdgeThreadedInput">
<polygon fill="#ffffff" stroke="#000000" points="158.68,-.5 158.68,-32.5 300.805,-32.5 300.805,-.5 158.68,-.5"/>
<text text-anchor="start" x="166.68" y="-19.5" font-family="Helvetica,sans-Serif" font-size="10.00" fill="#000000">VehicleControl::createRising</text>
<text text-anchor="middle" x="229.7425" y="-7.5" font-family="Helvetica,sans-Serif" font-size="10.00" fill="#000000">EdgeThreadedInput</text>
</a>
</g>
</g>
<!-- Node1&#45;&gt;Node4 -->
<g id="edge4" class="edge">
<title>Node1&#45;&gt;Node4</title>
<path fill="none" stroke="#191970" d="M108.9691,-48.7727C127.8114,-43.7377 149.6863,-37.8924 169.601,-32.5708"/>
<polygon fill="#191970" stroke="#191970" points="107.8903,-45.4381 99.1328,-51.4011 109.6974,-52.2008 107.8903,-45.4381"/>
</g>
<!-- Node2&#45;&gt;Node3 -->
<g id="edge2" class="edge">
<title>Node2&#45;&gt;Node3</title>
<path fill="none" stroke="#191970" d="M289.1791,-99.3586C307.9884,-97.0986 328.5675,-94.626 346.6105,-92.4581"/>
<polygon fill="#191970" stroke="#191970" points="288.7453,-95.8855 279.2343,-100.5535 289.5804,-102.8355 288.7453,-95.8855"/>
</g>
<!-- Node5 -->
<g id="node5" class="node">
<title>Node5</title>
<g id="a_node5"><a xlink:href="classVehicleControl_1_1Control_1_1IOFactory.html#a4d4de0203bf577352199f49c67f49d98" target="_top" xlink:title="fillInputList method fills in all of the app&#39;s inputs ">
<polygon fill="#ffffff" stroke="#000000" points="336.805,-.5 336.805,-32.5 455.593,-32.5 455.593,-.5 336.805,-.5"/>
<text text-anchor="start" x="344.805" y="-19.5" font-family="Helvetica,sans-Serif" font-size="10.00" fill="#000000">VehicleControl::Control</text>
<text text-anchor="middle" x="396.199" y="-7.5" font-family="Helvetica,sans-Serif" font-size="10.00" fill="#000000">::IOFactory::fillInputList</text>
</a>
</g>
</g>
<!-- Node4&#45;&gt;Node5 -->
<g id="edge5" class="edge">
<title>Node4&#45;&gt;Node5</title>
<path fill="none" stroke="#191970" d="M310.9414,-16.5C319.5958,-16.5 328.2794,-16.5 336.6177,-16.5"/>
<polygon fill="#191970" stroke="#191970" points="310.8179,-13.0001 300.8179,-16.5 310.8178,-20.0001 310.8179,-13.0001"/>
</g>
</g>
</svg>
