<?xml version="1.0" encoding="UTF-8" standalone="no"?>
<!DOCTYPE svg PUBLIC "-//W3C//DTD SVG 1.1//EN"
 "http://www.w3.org/Graphics/SVG/1.1/DTD/svg11.dtd">
<!-- Generated by graphviz version 2.40.1 (20161225.0304)
 -->
<!-- Title: Output.h Pages: 1 -->
<svg width="353pt" height="86pt"
 viewBox="0.00 0.00 353.20 86.00" xmlns="http://www.w3.org/2000/svg" xmlns:xlink="http://www.w3.org/1999/xlink">
<g id="graph0" class="graph" transform="scale(1 1) rotate(0) translate(4 82)">
<title>Output.h</title>
<polygon fill="#ffffff" stroke="transparent" points="-4,4 -4,-82 349.1965,-82 349.1965,4 -4,4"/>
<!-- Node4 -->
<g id="node1" class="node">
<title>Node4</title>
<polygon fill="#bfbfbf" stroke="#000000" points="195.565,-57.5 195.565,-77.5 249.917,-77.5 249.917,-57.5 195.565,-57.5"/>
<text text-anchor="middle" x="222.741" y="-64.5" font-family="Helvetica,sans-Serif" font-size="10.00" fill="#000000">Output.h</text>
</g>
<!-- Node5 -->
<g id="node2" class="node">
<title>Node5</title>
<g id="a_node2"><a xlink:href="BoeingSurfaceVehicleControl_8cpp.html" target="_top" xlink:title="BoeingSurfaceVehicleControl.cpp">
<polygon fill="#ffffff" stroke="#000000" points="0,-.5 0,-20.5 165.482,-20.5 165.482,-.5 0,-.5"/>
<text text-anchor="middle" x="82.741" y="-7.5" font-family="Helvetica,sans-Serif" font-size="10.00" fill="#000000">BoeingSurfaceVehicleControl.cpp</text>
</a>
</g>
</g>
<!-- Node4&#45;&gt;Node5 -->
<g id="edge1" class="edge">
<title>Node4&#45;&gt;Node5</title>
<path fill="none" stroke="#191970" d="M188.5615,-53.5841C163.5539,-43.4024 130.197,-29.8214 107.6718,-20.6504"/>
<polygon fill="#191970" stroke="#191970" points="187.4525,-56.9115 198.0341,-57.4408 190.0921,-50.4282 187.4525,-56.9115"/>
</g>
<!-- Node6 -->
<g id="node3" class="node">
<title>Node6</title>
<g id="a_node3"><a xlink:href="IOFactory_8cpp.html" target="_top" xlink:title="IOFactory.cpp">
<polygon fill="#ffffff" stroke="#000000" points="183.346,-.5 183.346,-20.5 262.136,-20.5 262.136,-.5 183.346,-.5"/>
<text text-anchor="middle" x="222.741" y="-7.5" font-family="Helvetica,sans-Serif" font-size="10.00" fill="#000000">IOFactory.cpp</text>
</a>
</g>
</g>
<!-- Node4&#45;&gt;Node6 -->
<g id="edge2" class="edge">
<title>Node4&#45;&gt;Node6</title>
<path fill="none" stroke="#191970" d="M222.741,-47.1771C222.741,-38.1625 222.741,-27.9556 222.741,-20.6022"/>
<polygon fill="#191970" stroke="#191970" points="219.2411,-47.3095 222.741,-57.3095 226.2411,-47.3096 219.2411,-47.3095"/>
</g>
<!-- Node7 -->
<g id="node4" class="node">
<title>Node7</title>
<g id="a_node4"><a xlink:href="Output_8cpp.html" target="_top" xlink:title="Output.cpp">
<polygon fill="#ffffff" stroke="#000000" points="280.2855,-.5 280.2855,-20.5 345.1965,-20.5 345.1965,-.5 280.2855,-.5"/>
<text text-anchor="middle" x="312.741" y="-7.5" font-family="Helvetica,sans-Serif" font-size="10.00" fill="#000000">Output.cpp</text>
</a>
</g>
</g>
<!-- Node4&#45;&gt;Node7 -->
<g id="edge3" class="edge">
<title>Node4&#45;&gt;Node7</title>
<path fill="none" stroke="#191970" d="M247.5313,-51.7994C263.2568,-41.84 283.1382,-29.2484 296.7901,-20.6022"/>
<polygon fill="#191970" stroke="#191970" points="245.4067,-49.0021 238.8312,-57.3095 249.1521,-54.9158 245.4067,-49.0021"/>
</g>
</g>
</svg>
