<?xml version="1.0" encoding="UTF-8" standalone="no"?>
<!DOCTYPE svg PUBLIC "-//W3C//DTD SVG 1.1//EN"
 "http://www.w3.org/Graphics/SVG/1.1/DTD/svg11.dtd">
<!-- Generated by graphviz version 2.40.1 (20161225.0304)
 -->
<!-- Title: /home/jc/Documents/School/SeniorDesign/ControlCode/MainApplication/Sources/IO/Output.cpp Pages: 1 -->
<svg width="168pt" height="236pt"
 viewBox="0.00 0.00 168.34 236.00" xmlns="http://www.w3.org/2000/svg" xmlns:xlink="http://www.w3.org/1999/xlink">
<g id="graph0" class="graph" transform="scale(1 1) rotate(0) translate(4 232)">
<title>/home/jc/Documents/School/SeniorDesign/ControlCode/MainApplication/Sources/IO/Output.cpp</title>
<polygon fill="#ffffff" stroke="transparent" points="-4,4 -4,-232 164.344,-232 164.344,4 -4,4"/>
<!-- Node0 -->
<g id="node1" class="node">
<title>Node0</title>
<polygon fill="#bfbfbf" stroke="#000000" points="12.101,-171.5 12.101,-227.5 160.344,-227.5 160.344,-171.5 12.101,-171.5"/>
<text text-anchor="start" x="20.101" y="-214.5" font-family="Helvetica,sans-Serif" font-size="10.00" fill="#000000">/home/jc/Documents</text>
<text text-anchor="start" x="20.101" y="-202.5" font-family="Helvetica,sans-Serif" font-size="10.00" fill="#000000">/School/SeniorDesign</text>
<text text-anchor="start" x="20.101" y="-190.5" font-family="Helvetica,sans-Serif" font-size="10.00" fill="#000000">/ControlCode/MainApplication</text>
<text text-anchor="middle" x="86.2225" y="-178.5" font-family="Helvetica,sans-Serif" font-size="10.00" fill="#000000">/Sources/IO/Output.cpp</text>
</g>
<!-- Node1 -->
<g id="node2" class="node">
<title>Node1</title>
<g id="a_node2"><a xlink:href="Output_8h.html" target="_top" xlink:title="Output.h">
<polygon fill="#ffffff" stroke="#000000" points="24.0465,-114.5 24.0465,-134.5 78.3985,-134.5 78.3985,-114.5 24.0465,-114.5"/>
<text text-anchor="middle" x="51.2225" y="-121.5" font-family="Helvetica,sans-Serif" font-size="10.00" fill="#000000">Output.h</text>
</a>
</g>
</g>
<!-- Node0&#45;&gt;Node1 -->
<g id="edge1" class="edge">
<title>Node0&#45;&gt;Node1</title>
<path fill="none" stroke="#191970" d="M72.9905,-171.1457C68.7517,-162.0625 64.157,-152.2169 60.2862,-143.9223"/>
<polygon fill="#191970" stroke="#191970" points="63.3968,-142.3113 55.9963,-134.7296 57.0536,-145.2715 63.3968,-142.3113"/>
</g>
<!-- Node5 -->
<g id="node6" class="node">
<title>Node5</title>
<polygon fill="#ffffff" stroke="#bfbfbf" points="96.716,-114.5 96.716,-134.5 147.729,-134.5 147.729,-114.5 96.716,-114.5"/>
<text text-anchor="middle" x="122.2225" y="-121.5" font-family="Helvetica,sans-Serif" font-size="10.00" fill="#000000">unistd.h</text>
</g>
<!-- Node0&#45;&gt;Node5 -->
<g id="edge5" class="edge">
<title>Node0&#45;&gt;Node5</title>
<path fill="none" stroke="#191970" d="M99.8326,-171.1457C104.1925,-162.0625 108.9184,-152.2169 112.8998,-143.9223"/>
<polygon fill="#191970" stroke="#191970" points="116.1403,-145.2594 117.3123,-134.7296 109.8296,-142.2302 116.1403,-145.2594"/>
</g>
<!-- Node2 -->
<g id="node3" class="node">
<title>Node2</title>
<g id="a_node3"><a xlink:href="IOBase_8h.html" target="_top" xlink:title="IOBase.h">
<polygon fill="#ffffff" stroke="#000000" points="22.381,-57.5 22.381,-77.5 80.064,-77.5 80.064,-57.5 22.381,-57.5"/>
<text text-anchor="middle" x="51.2225" y="-64.5" font-family="Helvetica,sans-Serif" font-size="10.00" fill="#000000">IOBase.h</text>
</a>
</g>
</g>
<!-- Node1&#45;&gt;Node2 -->
<g id="edge2" class="edge">
<title>Node1&#45;&gt;Node2</title>
<path fill="none" stroke="#191970" d="M51.2225,-114.3095C51.2225,-106.9335 51.2225,-96.72 51.2225,-87.715"/>
<polygon fill="#191970" stroke="#191970" points="54.7226,-87.6022 51.2225,-77.6022 47.7226,-87.6023 54.7226,-87.6022"/>
</g>
<!-- Node3 -->
<g id="node4" class="node">
<title>Node3</title>
<polygon fill="#ffffff" stroke="#bfbfbf" points="0,-.5 0,-20.5 40.445,-20.5 40.445,-.5 0,-.5"/>
<text text-anchor="middle" x="20.2225" y="-7.5" font-family="Helvetica,sans-Serif" font-size="10.00" fill="#000000">string</text>
</g>
<!-- Node2&#45;&gt;Node3 -->
<g id="edge3" class="edge">
<title>Node2&#45;&gt;Node3</title>
<path fill="none" stroke="#191970" d="M45.6803,-57.3095C41.4925,-49.6093 35.6228,-38.8166 30.5748,-29.5349"/>
<polygon fill="#191970" stroke="#191970" points="33.5692,-27.7149 25.7167,-20.6022 27.4198,-31.0593 33.5692,-27.7149"/>
</g>
<!-- Node4 -->
<g id="node5" class="node">
<title>Node4</title>
<polygon fill="#ffffff" stroke="#bfbfbf" points="58.5555,-.5 58.5555,-20.5 107.8895,-20.5 107.8895,-.5 58.5555,-.5"/>
<text text-anchor="middle" x="83.2225" y="-7.5" font-family="Helvetica,sans-Serif" font-size="10.00" fill="#000000">fstream</text>
</g>
<!-- Node2&#45;&gt;Node4 -->
<g id="edge4" class="edge">
<title>Node2&#45;&gt;Node4</title>
<path fill="none" stroke="#191970" d="M56.9435,-57.3095C61.2664,-49.6093 67.3255,-38.8166 72.5363,-29.5349"/>
<polygon fill="#191970" stroke="#191970" points="75.7076,-31.0355 77.5511,-20.6022 69.6037,-27.6087 75.7076,-31.0355"/>
</g>
</g>
</svg>
