<?xml version="1.0" encoding="UTF-8" standalone="no"?>
<!DOCTYPE svg PUBLIC "-//W3C//DTD SVG 1.1//EN"
 "http://www.w3.org/Graphics/SVG/1.1/DTD/svg11.dtd">
<!-- Generated by graphviz version 2.40.1 (20161225.0304)
 -->
<!-- Title: OutputList.h Pages: 1 -->
<svg width="270pt" height="86pt"
 viewBox="0.00 0.00 270.14 86.00" xmlns="http://www.w3.org/2000/svg" xmlns:xlink="http://www.w3.org/1999/xlink">
<g id="graph0" class="graph" transform="scale(1 1) rotate(0) translate(4 82)">
<title>OutputList.h</title>
<polygon fill="#ffffff" stroke="transparent" points="-4,4 -4,-82 266.136,-82 266.136,4 -4,4"/>
<!-- Node1 -->
<g id="node1" class="node">
<title>Node1</title>
<polygon fill="#bfbfbf" stroke="#000000" points="117.7865,-57.5 117.7865,-77.5 187.6955,-77.5 187.6955,-57.5 117.7865,-57.5"/>
<text text-anchor="middle" x="152.741" y="-64.5" font-family="Helvetica,sans-Serif" font-size="10.00" fill="#000000">OutputList.h</text>
</g>
<!-- Node2 -->
<g id="node2" class="node">
<title>Node2</title>
<g id="a_node2"><a xlink:href="BoeingSurfaceVehicleControl_8cpp.html" target="_top" xlink:title="BoeingSurfaceVehicleControl.cpp">
<polygon fill="#ffffff" stroke="#000000" points="0,-.5 0,-20.5 165.482,-20.5 165.482,-.5 0,-.5"/>
<text text-anchor="middle" x="82.741" y="-7.5" font-family="Helvetica,sans-Serif" font-size="10.00" fill="#000000">BoeingSurfaceVehicleControl.cpp</text>
</a>
</g>
</g>
<!-- Node1&#45;&gt;Node2 -->
<g id="edge1" class="edge">
<title>Node1&#45;&gt;Node2</title>
<path fill="none" stroke="#191970" d="M132.4234,-50.9557C120.3654,-41.137 105.4677,-29.006 95.1473,-20.6022"/>
<polygon fill="#191970" stroke="#191970" points="130.262,-53.7093 140.2264,-57.3095 134.682,-48.2812 130.262,-53.7093"/>
</g>
<!-- Node3 -->
<g id="node3" class="node">
<title>Node3</title>
<g id="a_node3"><a xlink:href="IOFactory_8cpp.html" target="_top" xlink:title="IOFactory.cpp">
<polygon fill="#ffffff" stroke="#000000" points="183.346,-.5 183.346,-20.5 262.136,-20.5 262.136,-.5 183.346,-.5"/>
<text text-anchor="middle" x="222.741" y="-7.5" font-family="Helvetica,sans-Serif" font-size="10.00" fill="#000000">IOFactory.cpp</text>
</a>
</g>
</g>
<!-- Node1&#45;&gt;Node3 -->
<g id="edge2" class="edge">
<title>Node1&#45;&gt;Node3</title>
<path fill="none" stroke="#191970" d="M173.0586,-50.9557C185.1166,-41.137 200.0143,-29.006 210.3347,-20.6022"/>
<polygon fill="#191970" stroke="#191970" points="170.8,-48.2812 165.2556,-57.3095 175.22,-53.7093 170.8,-48.2812"/>
</g>
</g>
</svg>
