<?xml version="1.0" encoding="UTF-8" standalone="no"?>
<!DOCTYPE svg PUBLIC "-//W3C//DTD SVG 1.1//EN"
 "http://www.w3.org/Graphics/SVG/1.1/DTD/svg11.dtd">
<!-- Generated by graphviz version 2.40.1 (20161225.0304)
 -->
<!-- Title: Output.h Pages: 1 -->
<svg width="353pt" height="86pt"
 viewBox="0.00 0.00 352.85 86.00" xmlns="http://www.w3.org/2000/svg" xmlns:xlink="http://www.w3.org/1999/xlink">
<g id="graph0" class="graph" transform="scale(1 1) rotate(0) translate(4 82)">
<title>Output.h</title>
<polygon fill="#ffffff" stroke="transparent" points="-4,4 -4,-82 348.8505,-82 348.8505,4 -4,4"/>
<!-- Node4 -->
<g id="node1" class="node">
<title>Node4</title>
<polygon fill="#bfbfbf" stroke="#000000" points="138.2795,-57.5 138.2795,-77.5 192.6315,-77.5 192.6315,-57.5 138.2795,-57.5"/>
<text text-anchor="middle" x="165.4555" y="-64.5" font-family="Helvetica,sans-Serif" font-size="10.00" fill="#000000">Output.h</text>
</g>
<!-- Node5 -->
<g id="node2" class="node">
<title>Node5</title>
<g id="a_node2"><a xlink:href="Output_8cpp.html" target="_top" xlink:title="Output.cpp">
<polygon fill="#ffffff" stroke="#000000" points="0,-.5 0,-20.5 64.911,-20.5 64.911,-.5 0,-.5"/>
<text text-anchor="middle" x="32.4555" y="-7.5" font-family="Helvetica,sans-Serif" font-size="10.00" fill="#000000">Output.cpp</text>
</a>
</g>
</g>
<!-- Node4&#45;&gt;Node5 -->
<g id="edge1" class="edge">
<title>Node4&#45;&gt;Node5</title>
<path fill="none" stroke="#191970" d="M132.6692,-53.4487C108.9475,-43.2823 77.444,-29.7808 56.1398,-20.6504"/>
<polygon fill="#191970" stroke="#191970" points="131.4137,-56.7185 141.9839,-57.4408 134.1712,-50.2845 131.4137,-56.7185"/>
</g>
<!-- Node6 -->
<g id="node3" class="node">
<title>Node6</title>
<g id="a_node3"><a xlink:href="BoeingSurfaceVehicleControl_8cpp.html" target="_top" xlink:title="BoeingSurfaceVehicleControl.cpp">
<polygon fill="#ffffff" stroke="#000000" points="82.7145,-.5 82.7145,-20.5 248.1965,-20.5 248.1965,-.5 82.7145,-.5"/>
<text text-anchor="middle" x="165.4555" y="-7.5" font-family="Helvetica,sans-Serif" font-size="10.00" fill="#000000">BoeingSurfaceVehicleControl.cpp</text>
</a>
</g>
</g>
<!-- Node4&#45;&gt;Node6 -->
<g id="edge2" class="edge">
<title>Node4&#45;&gt;Node6</title>
<path fill="none" stroke="#191970" d="M165.4555,-47.1771C165.4555,-38.1625 165.4555,-27.9556 165.4555,-20.6022"/>
<polygon fill="#191970" stroke="#191970" points="161.9556,-47.3095 165.4555,-57.3095 168.9556,-47.3096 161.9556,-47.3095"/>
</g>
<!-- Node7 -->
<g id="node4" class="node">
<title>Node7</title>
<g id="a_node4"><a xlink:href="IOFactory_8cpp.html" target="_top" xlink:title="IOFactory.cpp">
<polygon fill="#ffffff" stroke="#000000" points="266.0605,-.5 266.0605,-20.5 344.8505,-20.5 344.8505,-.5 266.0605,-.5"/>
<text text-anchor="middle" x="305.4555" y="-7.5" font-family="Helvetica,sans-Serif" font-size="10.00" fill="#000000">IOFactory.cpp</text>
</a>
</g>
</g>
<!-- Node4&#45;&gt;Node7 -->
<g id="edge3" class="edge">
<title>Node4&#45;&gt;Node7</title>
<path fill="none" stroke="#191970" d="M199.635,-53.5841C224.6426,-43.4024 257.9995,-29.8214 280.5247,-20.6504"/>
<polygon fill="#191970" stroke="#191970" points="198.1044,-50.4282 190.1624,-57.4408 200.744,-56.9115 198.1044,-50.4282"/>
</g>
</g>
</svg>
