<?xml version="1.0" encoding="UTF-8" standalone="no"?>
<!DOCTYPE svg PUBLIC "-//W3C//DTD SVG 1.1//EN"
 "http://www.w3.org/Graphics/SVG/1.1/DTD/svg11.dtd">
<!-- Generated by graphviz version 2.40.1 (20161225.0304)
 -->
<!-- Title: Output.h Pages: 1 -->
<svg width="542pt" height="86pt"
 viewBox="0.00 0.00 541.85 86.00" xmlns="http://www.w3.org/2000/svg" xmlns:xlink="http://www.w3.org/1999/xlink">
<g id="graph0" class="graph" transform="scale(1 1) rotate(0) translate(4 82)">
<title>Output.h</title>
<polygon fill="#ffffff" stroke="transparent" points="-4,4 -4,-82 537.8505,-82 537.8505,4 -4,4"/>
<!-- Node4 -->
<g id="node1" class="node">
<title>Node4</title>
<polygon fill="#bfbfbf" stroke="#000000" points="231.2795,-57.5 231.2795,-77.5 285.6315,-77.5 285.6315,-57.5 231.2795,-57.5"/>
<text text-anchor="middle" x="258.4555" y="-64.5" font-family="Helvetica,sans-Serif" font-size="10.00" fill="#000000">Output.h</text>
</g>
<!-- Node5 -->
<g id="node2" class="node">
<title>Node5</title>
<g id="a_node2"><a xlink:href="Output_8cpp.html" target="_top" xlink:title="Output.cpp">
<polygon fill="#ffffff" stroke="#000000" points="0,-.5 0,-20.5 64.911,-20.5 64.911,-.5 0,-.5"/>
<text text-anchor="middle" x="32.4555" y="-7.5" font-family="Helvetica,sans-Serif" font-size="10.00" fill="#000000">Output.cpp</text>
</a>
</g>
</g>
<!-- Node4&#45;&gt;Node5 -->
<g id="edge1" class="edge">
<title>Node4&#45;&gt;Node5</title>
<path fill="none" stroke="#191970" d="M221.2398,-58.1975C183.8727,-48.8451 124.6562,-33.9908 73.4555,-21 70.7491,-20.3133 67.9428,-19.5992 65.1258,-18.8808"/>
<polygon fill="#191970" stroke="#191970" points="220.6245,-61.6514 231.175,-60.6834 222.3236,-54.8608 220.6245,-61.6514"/>
</g>
<!-- Node6 -->
<g id="node3" class="node">
<title>Node6</title>
<g id="a_node3"><a xlink:href="BoeingSurfaceVehicleControl_8cpp.html" target="_top" xlink:title="BoeingSurfaceVehicleControl.cpp">
<polygon fill="#ffffff" stroke="#000000" points="82.7145,-.5 82.7145,-20.5 248.1965,-20.5 248.1965,-.5 82.7145,-.5"/>
<text text-anchor="middle" x="165.4555" y="-7.5" font-family="Helvetica,sans-Serif" font-size="10.00" fill="#000000">BoeingSurfaceVehicleControl.cpp</text>
</a>
</g>
</g>
<!-- Node4&#45;&gt;Node6 -->
<g id="edge2" class="edge">
<title>Node4&#45;&gt;Node6</title>
<path fill="none" stroke="#191970" d="M233.2933,-52.078C216.9737,-42.0757 196.1769,-29.3293 181.9381,-20.6022"/>
<polygon fill="#191970" stroke="#191970" points="231.474,-55.068 241.829,-57.3095 235.1319,-49.0998 231.474,-55.068"/>
</g>
<!-- Node7 -->
<g id="node4" class="node">
<title>Node7</title>
<g id="a_node4"><a xlink:href="CommunicationProtocolParser_8cpp.html" target="_top" xlink:title="CommunicationProtocolParser.cpp">
<polygon fill="#ffffff" stroke="#000000" points="266.224,-.5 266.224,-20.5 436.687,-20.5 436.687,-.5 266.224,-.5"/>
<text text-anchor="middle" x="351.4555" y="-7.5" font-family="Helvetica,sans-Serif" font-size="10.00" fill="#000000">CommunicationProtocolParser.cpp</text>
</a>
</g>
</g>
<!-- Node4&#45;&gt;Node7 -->
<g id="edge3" class="edge">
<title>Node4&#45;&gt;Node7</title>
<path fill="none" stroke="#191970" d="M283.6177,-52.078C299.9373,-42.0757 320.7341,-29.3293 334.9729,-20.6022"/>
<polygon fill="#191970" stroke="#191970" points="281.7791,-49.0998 275.082,-57.3095 285.437,-55.068 281.7791,-49.0998"/>
</g>
<!-- Node8 -->
<g id="node5" class="node">
<title>Node8</title>
<g id="a_node5"><a xlink:href="IOFactory_8cpp.html" target="_top" xlink:title="IOFactory.cpp">
<polygon fill="#ffffff" stroke="#000000" points="455.0605,-.5 455.0605,-20.5 533.8505,-20.5 533.8505,-.5 455.0605,-.5"/>
<text text-anchor="middle" x="494.4555" y="-7.5" font-family="Helvetica,sans-Serif" font-size="10.00" fill="#000000">IOFactory.cpp</text>
</a>
</g>
</g>
<!-- Node4&#45;&gt;Node8 -->
<g id="edge4" class="edge">
<title>Node4&#45;&gt;Node8</title>
<path fill="none" stroke="#191970" d="M295.8699,-58.4635C339.3051,-47.9728 410.6325,-30.7454 454.943,-20.0433"/>
<polygon fill="#191970" stroke="#191970" points="294.8883,-55.0998 285.9896,-60.8498 296.5318,-61.9042 294.8883,-55.0998"/>
</g>
</g>
</svg>
