<?xml version="1.0" encoding="UTF-8" standalone="no"?>
<!DOCTYPE svg PUBLIC "-//W3C//DTD SVG 1.1//EN"
 "http://www.w3.org/Graphics/SVG/1.1/DTD/svg11.dtd">
<!-- Generated by graphviz version 2.40.1 (20161225.0304)
 -->
<!-- Title: Range.h Pages: 1 -->
<svg width="570pt" height="257pt"
 viewBox="0.00 0.00 569.63 257.00" xmlns="http://www.w3.org/2000/svg" xmlns:xlink="http://www.w3.org/1999/xlink">
<g id="graph0" class="graph" transform="scale(1 1) rotate(0) translate(4 253)">
<title>Range.h</title>
<polygon fill="#ffffff" stroke="transparent" points="-4,4 -4,-253 565.6265,-253 565.6265,4 -4,4"/>
<!-- Node1 -->
<g id="node1" class="node">
<title>Node1</title>
<polygon fill="#bfbfbf" stroke="#000000" points="227.4985,-228.5 227.4985,-248.5 281.2915,-248.5 281.2915,-228.5 227.4985,-228.5"/>
<text text-anchor="middle" x="254.395" y="-235.5" font-family="Helvetica,sans-Serif" font-size="10.00" fill="#000000">Range.h</text>
</g>
<!-- Node2 -->
<g id="node2" class="node">
<title>Node2</title>
<g id="a_node2"><a xlink:href="LinearConverter_8h.html" target="_top" xlink:title="LinearConverter.h">
<polygon fill="#ffffff" stroke="#000000" points="206.388,-171.5 206.388,-191.5 302.402,-191.5 302.402,-171.5 206.388,-171.5"/>
<text text-anchor="middle" x="254.395" y="-178.5" font-family="Helvetica,sans-Serif" font-size="10.00" fill="#000000">LinearConverter.h</text>
</a>
</g>
</g>
<!-- Node1&#45;&gt;Node2 -->
<g id="edge1" class="edge">
<title>Node1&#45;&gt;Node2</title>
<path fill="none" stroke="#191970" d="M254.395,-218.1771C254.395,-209.1625 254.395,-198.9556 254.395,-191.6022"/>
<polygon fill="#191970" stroke="#191970" points="250.8951,-218.3095 254.395,-228.3095 257.8951,-218.3096 250.8951,-218.3095"/>
</g>
<!-- Node3 -->
<g id="node3" class="node">
<title>Node3</title>
<g id="a_node3"><a xlink:href="MotorControl_8h.html" target="_top" xlink:title="MotorControl.h">
<polygon fill="#ffffff" stroke="#000000" points="179.337,-114.5 179.337,-134.5 261.453,-134.5 261.453,-114.5 179.337,-114.5"/>
<text text-anchor="middle" x="220.395" y="-121.5" font-family="Helvetica,sans-Serif" font-size="10.00" fill="#000000">MotorControl.h</text>
</a>
</g>
</g>
<!-- Node2&#45;&gt;Node3 -->
<g id="edge2" class="edge">
<title>Node2&#45;&gt;Node3</title>
<path fill="none" stroke="#191970" d="M243.1521,-162.6515C237.5696,-153.2928 231.0481,-142.3596 226.4209,-134.6022"/>
<polygon fill="#191970" stroke="#191970" points="240.1878,-164.5143 248.3165,-171.3095 246.1995,-160.9283 240.1878,-164.5143"/>
</g>
<!-- Node10 -->
<g id="node10" class="node">
<title>Node10</title>
<g id="a_node10"><a xlink:href="CommunicationProtocolParser_8h.html" target="_top" xlink:title="CommunicationProtocolParser.h">
<polygon fill="#ffffff" stroke="#000000" points="317.443,-57.5 317.443,-77.5 477.347,-77.5 477.347,-57.5 317.443,-57.5"/>
<text text-anchor="middle" x="397.395" y="-64.5" font-family="Helvetica,sans-Serif" font-size="10.00" fill="#000000">CommunicationProtocolParser.h</text>
</a>
</g>
</g>
<!-- Node2&#45;&gt;Node10 -->
<g id="edge11" class="edge">
<title>Node2&#45;&gt;Node10</title>
<path fill="none" stroke="#191970" d="M275.2026,-164.9122C305.2108,-140.9895 359.7486,-97.5118 384.5276,-77.7579"/>
<polygon fill="#191970" stroke="#191970" points="272.7229,-162.4128 267.0853,-171.3833 277.0864,-167.8864 272.7229,-162.4128"/>
</g>
<!-- Node4 -->
<g id="node4" class="node">
<title>Node4</title>
<g id="a_node4"><a xlink:href="ServoControl_8h.html" target="_top" xlink:title="ServoControl.h">
<polygon fill="#ffffff" stroke="#000000" points="179.0565,-57.5 179.0565,-77.5 261.7335,-77.5 261.7335,-57.5 179.0565,-57.5"/>
<text text-anchor="middle" x="220.395" y="-64.5" font-family="Helvetica,sans-Serif" font-size="10.00" fill="#000000">ServoControl.h</text>
</a>
</g>
</g>
<!-- Node3&#45;&gt;Node4 -->
<g id="edge3" class="edge">
<title>Node3&#45;&gt;Node4</title>
<path fill="none" stroke="#191970" d="M220.395,-104.1771C220.395,-95.1625 220.395,-84.9556 220.395,-77.6022"/>
<polygon fill="#191970" stroke="#191970" points="216.8951,-104.3095 220.395,-114.3095 223.8951,-104.3096 216.8951,-104.3095"/>
</g>
<!-- Node6 -->
<g id="node6" class="node">
<title>Node6</title>
<g id="a_node6"><a xlink:href="BoeingSurfaceVehicleControl_8cpp.html" target="_top" xlink:title="BoeingSurfaceVehicleControl.cpp">
<polygon fill="#ffffff" stroke="#000000" points="207.654,-.5 207.654,-20.5 373.136,-20.5 373.136,-.5 207.654,-.5"/>
<text text-anchor="middle" x="290.395" y="-7.5" font-family="Helvetica,sans-Serif" font-size="10.00" fill="#000000">BoeingSurfaceVehicleControl.cpp</text>
</a>
</g>
</g>
<!-- Node3&#45;&gt;Node6 -->
<g id="edge9" class="edge">
<title>Node3&#45;&gt;Node6</title>
<path fill="none" stroke="#191970" d="M243.1835,-107.823C252.7837,-99.7657 263.343,-89.3779 270.395,-78 281.7276,-59.7159 286.931,-34.6681 289.0764,-20.7988"/>
<polygon fill="#191970" stroke="#191970" points="240.7384,-105.2965 235.106,-114.2702 245.1051,-110.7674 240.7384,-105.2965"/>
</g>
<!-- Node8 -->
<g id="node8" class="node">
<title>Node8</title>
<g id="a_node8"><a xlink:href="IOFactory_8cpp.html" target="_top" xlink:title="IOFactory.cpp">
<polygon fill="#ffffff" stroke="#000000" points="0,-.5 0,-20.5 78.79,-20.5 78.79,-.5 0,-.5"/>
<text text-anchor="middle" x="39.395" y="-7.5" font-family="Helvetica,sans-Serif" font-size="10.00" fill="#000000">IOFactory.cpp</text>
</a>
</g>
</g>
<!-- Node3&#45;&gt;Node8 -->
<g id="edge10" class="edge">
<title>Node3&#45;&gt;Node8</title>
<path fill="none" stroke="#191970" d="M169.262,-115.2686C128.2268,-106.8835 74.9853,-93.4833 59.395,-78 43.785,-62.4972 40.2389,-35.4242 39.5091,-20.716"/>
<polygon fill="#191970" stroke="#191970" points="168.6438,-118.7142 179.1354,-117.2388 170.0137,-111.8495 168.6438,-118.7142"/>
</g>
<!-- Node9 -->
<g id="node9" class="node">
<title>Node9</title>
<g id="a_node9"><a xlink:href="MotorControl_8cpp.html" target="_top" xlink:title="MotorControl.cpp">
<polygon fill="#ffffff" stroke="#000000" points="68.0575,-57.5 68.0575,-77.5 160.7325,-77.5 160.7325,-57.5 68.0575,-57.5"/>
<text text-anchor="middle" x="114.395" y="-64.5" font-family="Helvetica,sans-Serif" font-size="10.00" fill="#000000">MotorControl.cpp</text>
</a>
</g>
</g>
<!-- Node3&#45;&gt;Node9 -->
<g id="edge8" class="edge">
<title>Node3&#45;&gt;Node9</title>
<path fill="none" stroke="#191970" d="M192.4875,-109.4931C173.7746,-99.4305 149.6362,-86.4505 133.1816,-77.6022"/>
<polygon fill="#191970" stroke="#191970" points="190.9793,-112.656 201.4443,-114.3095 194.2946,-106.4909 190.9793,-112.656"/>
</g>
<!-- Node5 -->
<g id="node5" class="node">
<title>Node5</title>
<g id="a_node5"><a xlink:href="ServoControl_8cpp.html" target="_top" xlink:title="ServoControl.cpp">
<polygon fill="#ffffff" stroke="#000000" points="96.777,-.5 96.777,-20.5 190.013,-20.5 190.013,-.5 96.777,-.5"/>
<text text-anchor="middle" x="143.395" y="-7.5" font-family="Helvetica,sans-Serif" font-size="10.00" fill="#000000">ServoControl.cpp</text>
</a>
</g>
</g>
<!-- Node4&#45;&gt;Node5 -->
<g id="edge4" class="edge">
<title>Node4&#45;&gt;Node5</title>
<path fill="none" stroke="#191970" d="M198.4274,-51.2383C185.0975,-41.3707 168.5035,-29.0868 157.0419,-20.6022"/>
<polygon fill="#191970" stroke="#191970" points="196.5091,-54.1728 206.6289,-57.3095 200.6739,-48.5466 196.5091,-54.1728"/>
</g>
<!-- Node4&#45;&gt;Node6 -->
<g id="edge5" class="edge">
<title>Node4&#45;&gt;Node6</title>
<path fill="none" stroke="#191970" d="M240.7126,-50.9557C252.7706,-41.137 267.6683,-29.006 277.9887,-20.6022"/>
<polygon fill="#191970" stroke="#191970" points="238.454,-48.2812 232.9096,-57.3095 242.874,-53.7093 238.454,-48.2812"/>
</g>
<!-- Node7 -->
<g id="node7" class="node">
<title>Node7</title>
<g id="a_node7"><a xlink:href="CommunicationProtocolParser_8cpp.html" target="_top" xlink:title="CommunicationProtocolParser.cpp">
<polygon fill="#ffffff" stroke="#000000" points="391.1635,-.5 391.1635,-20.5 561.6265,-20.5 561.6265,-.5 391.1635,-.5"/>
<text text-anchor="middle" x="476.395" y="-7.5" font-family="Helvetica,sans-Serif" font-size="10.00" fill="#000000">CommunicationProtocolParser.cpp</text>
</a>
</g>
</g>
<!-- Node4&#45;&gt;Node7 -->
<g id="edge6" class="edge">
<title>Node4&#45;&gt;Node7</title>
<path fill="none" stroke="#191970" d="M271.7123,-56.0739C318.3547,-45.6886 386.5129,-30.5128 431.1569,-20.5725"/>
<polygon fill="#191970" stroke="#191970" points="270.8106,-52.6889 261.8103,-58.2786 272.332,-59.5215 270.8106,-52.6889"/>
</g>
<!-- Node4&#45;&gt;Node8 -->
<g id="edge7" class="edge">
<title>Node4&#45;&gt;Node8</title>
<path fill="none" stroke="#191970" d="M178.7264,-54.3778C146.0347,-44.0827 101.2081,-29.966 71.3221,-20.5544"/>
<polygon fill="#191970" stroke="#191970" points="177.8629,-57.7753 188.4525,-57.4408 179.9656,-51.0986 177.8629,-57.7753"/>
</g>
<!-- Node10&#45;&gt;Node6 -->
<g id="edge12" class="edge">
<title>Node10&#45;&gt;Node6</title>
<path fill="none" stroke="#191970" d="M369.2242,-52.4931C350.3348,-42.4305 325.9687,-29.4505 309.3588,-20.6022"/>
<polygon fill="#191970" stroke="#191970" points="367.7941,-55.6969 378.2655,-57.3095 371.0853,-49.5189 367.7941,-55.6969"/>
</g>
<!-- Node10&#45;&gt;Node7 -->
<g id="edge13" class="edge">
<title>Node10&#45;&gt;Node7</title>
<path fill="none" stroke="#191970" d="M419.9332,-51.2383C433.6093,-41.3707 450.6343,-29.0868 462.3937,-20.6022"/>
<polygon fill="#191970" stroke="#191970" points="417.5802,-48.62 411.5186,-57.3095 421.6761,-54.2967 417.5802,-48.62"/>
</g>
</g>
</svg>
