<?xml version="1.0" encoding="UTF-8" standalone="no"?>
<!DOCTYPE svg PUBLIC "-//W3C//DTD SVG 1.1//EN"
 "http://www.w3.org/Graphics/SVG/1.1/DTD/svg11.dtd">
<!-- Generated by graphviz version 2.40.1 (20161225.0304)
 -->
<!-- Title: Range.h Pages: 1 -->
<svg width="381pt" height="200pt"
 viewBox="0.00 0.00 381.36 200.00" xmlns="http://www.w3.org/2000/svg" xmlns:xlink="http://www.w3.org/1999/xlink">
<g id="graph0" class="graph" transform="scale(1 1) rotate(0) translate(4 196)">
<title>Range.h</title>
<polygon fill="#ffffff" stroke="transparent" points="-4,4 -4,-196 377.359,-196 377.359,4 -4,4"/>
<!-- Node1 -->
<g id="node1" class="node">
<title>Node1</title>
<polygon fill="#bfbfbf" stroke="#000000" points="195.8445,-171.5 195.8445,-191.5 249.6375,-191.5 249.6375,-171.5 195.8445,-171.5"/>
<text text-anchor="middle" x="222.741" y="-178.5" font-family="Helvetica,sans-Serif" font-size="10.00" fill="#000000">Range.h</text>
</g>
<!-- Node2 -->
<g id="node2" class="node">
<title>Node2</title>
<g id="a_node2"><a xlink:href="LinearConverter_8h.html" target="_top" xlink:title="LinearConverter.h">
<polygon fill="#ffffff" stroke="#000000" points="174.734,-114.5 174.734,-134.5 270.748,-134.5 270.748,-114.5 174.734,-114.5"/>
<text text-anchor="middle" x="222.741" y="-121.5" font-family="Helvetica,sans-Serif" font-size="10.00" fill="#000000">LinearConverter.h</text>
</a>
</g>
</g>
<!-- Node1&#45;&gt;Node2 -->
<g id="edge1" class="edge">
<title>Node1&#45;&gt;Node2</title>
<path fill="none" stroke="#191970" d="M222.741,-161.1771C222.741,-152.1625 222.741,-141.9556 222.741,-134.6022"/>
<polygon fill="#191970" stroke="#191970" points="219.2411,-161.3095 222.741,-171.3095 226.2411,-161.3096 219.2411,-161.3095"/>
</g>
<!-- Node3 -->
<g id="node3" class="node">
<title>Node3</title>
<g id="a_node3"><a xlink:href="ServoControl_8h.html" target="_top" xlink:title="ServoControl.h">
<polygon fill="#ffffff" stroke="#000000" points="181.4025,-57.5 181.4025,-77.5 264.0795,-77.5 264.0795,-57.5 181.4025,-57.5"/>
<text text-anchor="middle" x="222.741" y="-64.5" font-family="Helvetica,sans-Serif" font-size="10.00" fill="#000000">ServoControl.h</text>
</a>
</g>
</g>
<!-- Node2&#45;&gt;Node3 -->
<g id="edge2" class="edge">
<title>Node2&#45;&gt;Node3</title>
<path fill="none" stroke="#191970" d="M222.741,-104.1771C222.741,-95.1625 222.741,-84.9556 222.741,-77.6022"/>
<polygon fill="#191970" stroke="#191970" points="219.2411,-104.3095 222.741,-114.3095 226.2411,-104.3096 219.2411,-104.3095"/>
</g>
<!-- Node4 -->
<g id="node4" class="node">
<title>Node4</title>
<g id="a_node4"><a xlink:href="BoeingSurfaceVehicleControl_8cpp.html" target="_top" xlink:title="BoeingSurfaceVehicleControl.cpp">
<polygon fill="#ffffff" stroke="#000000" points="0,-.5 0,-20.5 165.482,-20.5 165.482,-.5 0,-.5"/>
<text text-anchor="middle" x="82.741" y="-7.5" font-family="Helvetica,sans-Serif" font-size="10.00" fill="#000000">BoeingSurfaceVehicleControl.cpp</text>
</a>
</g>
</g>
<!-- Node3&#45;&gt;Node4 -->
<g id="edge3" class="edge">
<title>Node3&#45;&gt;Node4</title>
<path fill="none" stroke="#191970" d="M188.5615,-53.5841C163.5539,-43.4024 130.197,-29.8214 107.6718,-20.6504"/>
<polygon fill="#191970" stroke="#191970" points="187.4525,-56.9115 198.0341,-57.4408 190.0921,-50.4282 187.4525,-56.9115"/>
</g>
<!-- Node5 -->
<g id="node5" class="node">
<title>Node5</title>
<g id="a_node5"><a xlink:href="IOFactory_8cpp.html" target="_top" xlink:title="IOFactory.cpp">
<polygon fill="#ffffff" stroke="#000000" points="183.346,-.5 183.346,-20.5 262.136,-20.5 262.136,-.5 183.346,-.5"/>
<text text-anchor="middle" x="222.741" y="-7.5" font-family="Helvetica,sans-Serif" font-size="10.00" fill="#000000">IOFactory.cpp</text>
</a>
</g>
</g>
<!-- Node3&#45;&gt;Node5 -->
<g id="edge4" class="edge">
<title>Node3&#45;&gt;Node5</title>
<path fill="none" stroke="#191970" d="M222.741,-47.1771C222.741,-38.1625 222.741,-27.9556 222.741,-20.6022"/>
<polygon fill="#191970" stroke="#191970" points="219.2411,-47.3095 222.741,-57.3095 226.2411,-47.3096 219.2411,-47.3095"/>
</g>
<!-- Node6 -->
<g id="node6" class="node">
<title>Node6</title>
<g id="a_node6"><a xlink:href="ServoControl_8cpp.html" target="_top" xlink:title="ServoControl.cpp">
<polygon fill="#ffffff" stroke="#000000" points="280.123,-.5 280.123,-20.5 373.359,-20.5 373.359,-.5 280.123,-.5"/>
<text text-anchor="middle" x="326.741" y="-7.5" font-family="Helvetica,sans-Serif" font-size="10.00" fill="#000000">ServoControl.cpp</text>
</a>
</g>
</g>
<!-- Node3&#45;&gt;Node6 -->
<g id="edge5" class="edge">
<title>Node3&#45;&gt;Node6</title>
<path fill="none" stroke="#191970" d="M250.1219,-52.4931C268.4818,-42.4305 292.1647,-29.4505 308.3089,-20.6022"/>
<polygon fill="#191970" stroke="#191970" points="248.4212,-49.434 241.3341,-57.3095 251.7856,-55.5725 248.4212,-49.434"/>
</g>
</g>
</svg>
