<?xml version="1.0" encoding="UTF-8" standalone="no"?>
<!DOCTYPE svg PUBLIC "-//W3C//DTD SVG 1.1//EN"
 "http://www.w3.org/Graphics/SVG/1.1/DTD/svg11.dtd">
<!-- Generated by graphviz version 2.40.1 (20161225.0304)
 -->
<!-- Title: ServoControl.h Pages: 1 -->
<svg width="381pt" height="86pt"
 viewBox="0.00 0.00 381.01 86.00" xmlns="http://www.w3.org/2000/svg" xmlns:xlink="http://www.w3.org/1999/xlink">
<g id="graph0" class="graph" transform="scale(1 1) rotate(0) translate(4 82)">
<title>ServoControl.h</title>
<polygon fill="#ffffff" stroke="transparent" points="-4,4 -4,-82 377.013,-82 377.013,4 -4,4"/>
<!-- Node6 -->
<g id="node1" class="node">
<title>Node6</title>
<polygon fill="#bfbfbf" stroke="#000000" points="152.2795,-57.5 152.2795,-77.5 234.9565,-77.5 234.9565,-57.5 152.2795,-57.5"/>
<text text-anchor="middle" x="193.618" y="-64.5" font-family="Helvetica,sans-Serif" font-size="10.00" fill="#000000">ServoControl.h</text>
</g>
<!-- Node7 -->
<g id="node2" class="node">
<title>Node7</title>
<g id="a_node2"><a xlink:href="ServoControl_8cpp.html" target="_top" xlink:title="ServoControl.cpp">
<polygon fill="#ffffff" stroke="#000000" points="0,-.5 0,-20.5 93.236,-20.5 93.236,-.5 0,-.5"/>
<text text-anchor="middle" x="46.618" y="-7.5" font-family="Helvetica,sans-Serif" font-size="10.00" fill="#000000">ServoControl.cpp</text>
</a>
</g>
</g>
<!-- Node6&#45;&gt;Node7 -->
<g id="edge1" class="edge">
<title>Node6&#45;&gt;Node7</title>
<path fill="none" stroke="#191970" d="M158.0776,-53.719C131.7817,-43.5227 96.5514,-29.8619 72.7954,-20.6504"/>
<polygon fill="#191970" stroke="#191970" points="157.0867,-57.0887 167.6757,-57.4408 159.6175,-50.5621 157.0867,-57.0887"/>
</g>
<!-- Node8 -->
<g id="node3" class="node">
<title>Node8</title>
<g id="a_node3"><a xlink:href="BoeingSurfaceVehicleControl_8cpp.html" target="_top" xlink:title="BoeingSurfaceVehicleControl.cpp">
<polygon fill="#ffffff" stroke="#000000" points="110.877,-.5 110.877,-20.5 276.359,-20.5 276.359,-.5 110.877,-.5"/>
<text text-anchor="middle" x="193.618" y="-7.5" font-family="Helvetica,sans-Serif" font-size="10.00" fill="#000000">BoeingSurfaceVehicleControl.cpp</text>
</a>
</g>
</g>
<!-- Node6&#45;&gt;Node8 -->
<g id="edge2" class="edge">
<title>Node6&#45;&gt;Node8</title>
<path fill="none" stroke="#191970" d="M193.618,-47.1771C193.618,-38.1625 193.618,-27.9556 193.618,-20.6022"/>
<polygon fill="#191970" stroke="#191970" points="190.1181,-47.3095 193.618,-57.3095 197.1181,-47.3096 190.1181,-47.3095"/>
</g>
<!-- Node9 -->
<g id="node4" class="node">
<title>Node9</title>
<g id="a_node4"><a xlink:href="IOFactory_8cpp.html" target="_top" xlink:title="IOFactory.cpp">
<polygon fill="#ffffff" stroke="#000000" points="294.223,-.5 294.223,-20.5 373.013,-20.5 373.013,-.5 294.223,-.5"/>
<text text-anchor="middle" x="333.618" y="-7.5" font-family="Helvetica,sans-Serif" font-size="10.00" fill="#000000">IOFactory.cpp</text>
</a>
</g>
</g>
<!-- Node6&#45;&gt;Node9 -->
<g id="edge3" class="edge">
<title>Node6&#45;&gt;Node9</title>
<path fill="none" stroke="#191970" d="M227.7975,-53.5841C252.8051,-43.4024 286.162,-29.8214 308.6872,-20.6504"/>
<polygon fill="#191970" stroke="#191970" points="226.2669,-50.4282 218.3249,-57.4408 228.9065,-56.9115 226.2669,-50.4282"/>
</g>
</g>
</svg>
