<?xml version="1.0" encoding="UTF-8" standalone="no"?>
<!DOCTYPE svg PUBLIC "-//W3C//DTD SVG 1.1//EN"
 "http://www.w3.org/Graphics/SVG/1.1/DTD/svg11.dtd">
<!-- Generated by graphviz version 2.40.1 (20161225.0304)
 -->
<!-- Title: ServoList.h Pages: 1 -->
<svg width="459pt" height="86pt"
 viewBox="0.00 0.00 459.14 86.00" xmlns="http://www.w3.org/2000/svg" xmlns:xlink="http://www.w3.org/1999/xlink">
<g id="graph0" class="graph" transform="scale(1 1) rotate(0) translate(4 82)">
<title>ServoList.h</title>
<polygon fill="#ffffff" stroke="transparent" points="-4,4 -4,-82 455.136,-82 455.136,4 -4,4"/>
<!-- Node1 -->
<g id="node1" class="node">
<title>Node1</title>
<polygon fill="#bfbfbf" stroke="#000000" points="235.7355,-57.5 235.7355,-77.5 301.7465,-77.5 301.7465,-57.5 235.7355,-57.5"/>
<text text-anchor="middle" x="268.741" y="-64.5" font-family="Helvetica,sans-Serif" font-size="10.00" fill="#000000">ServoList.h</text>
</g>
<!-- Node2 -->
<g id="node2" class="node">
<title>Node2</title>
<g id="a_node2"><a xlink:href="BoeingSurfaceVehicleControl_8cpp.html" target="_top" xlink:title="BoeingSurfaceVehicleControl.cpp">
<polygon fill="#ffffff" stroke="#000000" points="0,-.5 0,-20.5 165.482,-20.5 165.482,-.5 0,-.5"/>
<text text-anchor="middle" x="82.741" y="-7.5" font-family="Helvetica,sans-Serif" font-size="10.00" fill="#000000">BoeingSurfaceVehicleControl.cpp</text>
</a>
</g>
</g>
<!-- Node1&#45;&gt;Node2 -->
<g id="edge1" class="edge">
<title>Node1&#45;&gt;Node2</title>
<path fill="none" stroke="#191970" d="M225.9213,-54.3778C192.3266,-44.0827 146.2617,-29.966 115.5501,-20.5544"/>
<polygon fill="#191970" stroke="#191970" points="225.3294,-57.8571 235.9161,-57.4408 227.3805,-51.1643 225.3294,-57.8571"/>
</g>
<!-- Node3 -->
<g id="node3" class="node">
<title>Node3</title>
<g id="a_node3"><a xlink:href="CommunicationProtocolParser_8cpp.html" target="_top" xlink:title="CommunicationProtocolParser.cpp">
<polygon fill="#ffffff" stroke="#000000" points="183.5095,-.5 183.5095,-20.5 353.9725,-20.5 353.9725,-.5 183.5095,-.5"/>
<text text-anchor="middle" x="268.741" y="-7.5" font-family="Helvetica,sans-Serif" font-size="10.00" fill="#000000">CommunicationProtocolParser.cpp</text>
</a>
</g>
</g>
<!-- Node1&#45;&gt;Node3 -->
<g id="edge2" class="edge">
<title>Node1&#45;&gt;Node3</title>
<path fill="none" stroke="#191970" d="M268.741,-47.1771C268.741,-38.1625 268.741,-27.9556 268.741,-20.6022"/>
<polygon fill="#191970" stroke="#191970" points="265.2411,-47.3095 268.741,-57.3095 272.2411,-47.3096 265.2411,-47.3095"/>
</g>
<!-- Node4 -->
<g id="node4" class="node">
<title>Node4</title>
<g id="a_node4"><a xlink:href="IOFactory_8cpp.html" target="_top" xlink:title="IOFactory.cpp">
<polygon fill="#ffffff" stroke="#000000" points="372.346,-.5 372.346,-20.5 451.136,-20.5 451.136,-.5 372.346,-.5"/>
<text text-anchor="middle" x="411.741" y="-7.5" font-family="Helvetica,sans-Serif" font-size="10.00" fill="#000000">IOFactory.cpp</text>
</a>
</g>
</g>
<!-- Node1&#45;&gt;Node4 -->
<g id="edge3" class="edge">
<title>Node1&#45;&gt;Node4</title>
<path fill="none" stroke="#191970" d="M303.3143,-53.719C328.8947,-43.5227 363.1663,-29.8619 386.2759,-20.6504"/>
<polygon fill="#191970" stroke="#191970" points="301.9706,-50.4867 293.9774,-57.4408 304.5626,-56.9892 301.9706,-50.4867"/>
</g>
</g>
</svg>
