<?xml version="1.0" encoding="UTF-8" standalone="no"?>
<!DOCTYPE svg PUBLIC "-//W3C//DTD SVG 1.1//EN"
 "http://www.w3.org/Graphics/SVG/1.1/DTD/svg11.dtd">
<!-- Generated by graphviz version 2.40.1 (20161225.0304)
 -->
<!-- Title: ServoControl.h Pages: 1 -->
<svg width="570pt" height="86pt"
 viewBox="0.00 0.00 570.01 86.00" xmlns="http://www.w3.org/2000/svg" xmlns:xlink="http://www.w3.org/1999/xlink">
<g id="graph0" class="graph" transform="scale(1 1) rotate(0) translate(4 82)">
<title>ServoControl.h</title>
<polygon fill="#ffffff" stroke="transparent" points="-4,4 -4,-82 566.013,-82 566.013,4 -4,4"/>
<!-- Node6 -->
<g id="node1" class="node">
<title>Node6</title>
<polygon fill="#bfbfbf" stroke="#000000" points="245.2795,-57.5 245.2795,-77.5 327.9565,-77.5 327.9565,-57.5 245.2795,-57.5"/>
<text text-anchor="middle" x="286.618" y="-64.5" font-family="Helvetica,sans-Serif" font-size="10.00" fill="#000000">ServoControl.h</text>
</g>
<!-- Node7 -->
<g id="node2" class="node">
<title>Node7</title>
<g id="a_node2"><a xlink:href="ServoControl_8cpp.html" target="_top" xlink:title="ServoControl.cpp">
<polygon fill="#ffffff" stroke="#000000" points="0,-.5 0,-20.5 93.236,-20.5 93.236,-.5 0,-.5"/>
<text text-anchor="middle" x="46.618" y="-7.5" font-family="Helvetica,sans-Serif" font-size="10.00" fill="#000000">ServoControl.cpp</text>
</a>
</g>
</g>
<!-- Node6&#45;&gt;Node7 -->
<g id="edge1" class="edge">
<title>Node6&#45;&gt;Node7</title>
<path fill="none" stroke="#191970" d="M235.2358,-55.2967C191.5775,-44.9279 129.6684,-30.2245 88.849,-20.5299"/>
<polygon fill="#191970" stroke="#191970" points="234.549,-58.7309 245.0872,-57.6364 236.1666,-51.9204 234.549,-58.7309"/>
</g>
<!-- Node8 -->
<g id="node3" class="node">
<title>Node8</title>
<g id="a_node3"><a xlink:href="BoeingSurfaceVehicleControl_8cpp.html" target="_top" xlink:title="BoeingSurfaceVehicleControl.cpp">
<polygon fill="#ffffff" stroke="#000000" points="110.877,-.5 110.877,-20.5 276.359,-20.5 276.359,-.5 110.877,-.5"/>
<text text-anchor="middle" x="193.618" y="-7.5" font-family="Helvetica,sans-Serif" font-size="10.00" fill="#000000">BoeingSurfaceVehicleControl.cpp</text>
</a>
</g>
</g>
<!-- Node6&#45;&gt;Node8 -->
<g id="edge2" class="edge">
<title>Node6&#45;&gt;Node8</title>
<path fill="none" stroke="#191970" d="M261.4558,-52.078C245.1362,-42.0757 224.3394,-29.3293 210.1006,-20.6022"/>
<polygon fill="#191970" stroke="#191970" points="259.6365,-55.068 269.9915,-57.3095 263.2944,-49.0998 259.6365,-55.068"/>
</g>
<!-- Node9 -->
<g id="node4" class="node">
<title>Node9</title>
<g id="a_node4"><a xlink:href="CommunicationProtocolParser_8cpp.html" target="_top" xlink:title="CommunicationProtocolParser.cpp">
<polygon fill="#ffffff" stroke="#000000" points="294.3865,-.5 294.3865,-20.5 464.8495,-20.5 464.8495,-.5 294.3865,-.5"/>
<text text-anchor="middle" x="379.618" y="-7.5" font-family="Helvetica,sans-Serif" font-size="10.00" fill="#000000">CommunicationProtocolParser.cpp</text>
</a>
</g>
</g>
<!-- Node6&#45;&gt;Node9 -->
<g id="edge3" class="edge">
<title>Node6&#45;&gt;Node9</title>
<path fill="none" stroke="#191970" d="M311.7802,-52.078C328.0998,-42.0757 348.8966,-29.3293 363.1354,-20.6022"/>
<polygon fill="#191970" stroke="#191970" points="309.9416,-49.0998 303.2445,-57.3095 313.5995,-55.068 309.9416,-49.0998"/>
</g>
<!-- Node10 -->
<g id="node5" class="node">
<title>Node10</title>
<g id="a_node5"><a xlink:href="IOFactory_8cpp.html" target="_top" xlink:title="IOFactory.cpp">
<polygon fill="#ffffff" stroke="#000000" points="483.223,-.5 483.223,-20.5 562.013,-20.5 562.013,-.5 483.223,-.5"/>
<text text-anchor="middle" x="522.618" y="-7.5" font-family="Helvetica,sans-Serif" font-size="10.00" fill="#000000">IOFactory.cpp</text>
</a>
</g>
</g>
<!-- Node6&#45;&gt;Node10 -->
<g id="edge4" class="edge">
<title>Node6&#45;&gt;Node10</title>
<path fill="none" stroke="#191970" d="M337.8206,-55.1333C381.3514,-44.6195 442.9678,-29.7376 482.8621,-20.1021"/>
<polygon fill="#191970" stroke="#191970" points="336.8949,-51.7561 327.9961,-57.5061 338.5384,-58.5605 336.8949,-51.7561"/>
</g>
</g>
</svg>
