<?xml version="1.0" encoding="UTF-8" standalone="no"?>
<!DOCTYPE svg PUBLIC "-//W3C//DTD SVG 1.1//EN"
 "http://www.w3.org/Graphics/SVG/1.1/DTD/svg11.dtd">
<!-- Generated by graphviz version 2.40.1 (20161225.0304)
 -->
<!-- Title: ServoControl.h Pages: 1 -->
<svg width="381pt" height="86pt"
 viewBox="0.00 0.00 381.36 86.00" xmlns="http://www.w3.org/2000/svg" xmlns:xlink="http://www.w3.org/1999/xlink">
<g id="graph0" class="graph" transform="scale(1 1) rotate(0) translate(4 82)">
<title>ServoControl.h</title>
<polygon fill="#ffffff" stroke="transparent" points="-4,4 -4,-82 377.359,-82 377.359,4 -4,4"/>
<!-- Node6 -->
<g id="node1" class="node">
<title>Node6</title>
<polygon fill="#bfbfbf" stroke="#000000" points="181.4025,-57.5 181.4025,-77.5 264.0795,-77.5 264.0795,-57.5 181.4025,-57.5"/>
<text text-anchor="middle" x="222.741" y="-64.5" font-family="Helvetica,sans-Serif" font-size="10.00" fill="#000000">ServoControl.h</text>
</g>
<!-- Node7 -->
<g id="node2" class="node">
<title>Node7</title>
<g id="a_node2"><a xlink:href="BoeingSurfaceVehicleControl_8cpp.html" target="_top" xlink:title="BoeingSurfaceVehicleControl.cpp">
<polygon fill="#ffffff" stroke="#000000" points="0,-.5 0,-20.5 165.482,-20.5 165.482,-.5 0,-.5"/>
<text text-anchor="middle" x="82.741" y="-7.5" font-family="Helvetica,sans-Serif" font-size="10.00" fill="#000000">BoeingSurfaceVehicleControl.cpp</text>
</a>
</g>
</g>
<!-- Node6&#45;&gt;Node7 -->
<g id="edge1" class="edge">
<title>Node6&#45;&gt;Node7</title>
<path fill="none" stroke="#191970" d="M188.5615,-53.5841C163.5539,-43.4024 130.197,-29.8214 107.6718,-20.6504"/>
<polygon fill="#191970" stroke="#191970" points="187.4525,-56.9115 198.0341,-57.4408 190.0921,-50.4282 187.4525,-56.9115"/>
</g>
<!-- Node8 -->
<g id="node3" class="node">
<title>Node8</title>
<g id="a_node3"><a xlink:href="IOFactory_8cpp.html" target="_top" xlink:title="IOFactory.cpp">
<polygon fill="#ffffff" stroke="#000000" points="183.346,-.5 183.346,-20.5 262.136,-20.5 262.136,-.5 183.346,-.5"/>
<text text-anchor="middle" x="222.741" y="-7.5" font-family="Helvetica,sans-Serif" font-size="10.00" fill="#000000">IOFactory.cpp</text>
</a>
</g>
</g>
<!-- Node6&#45;&gt;Node8 -->
<g id="edge2" class="edge">
<title>Node6&#45;&gt;Node8</title>
<path fill="none" stroke="#191970" d="M222.741,-47.1771C222.741,-38.1625 222.741,-27.9556 222.741,-20.6022"/>
<polygon fill="#191970" stroke="#191970" points="219.2411,-47.3095 222.741,-57.3095 226.2411,-47.3096 219.2411,-47.3095"/>
</g>
<!-- Node9 -->
<g id="node4" class="node">
<title>Node9</title>
<g id="a_node4"><a xlink:href="ServoControl_8cpp.html" target="_top" xlink:title="ServoControl.cpp">
<polygon fill="#ffffff" stroke="#000000" points="280.123,-.5 280.123,-20.5 373.359,-20.5 373.359,-.5 280.123,-.5"/>
<text text-anchor="middle" x="326.741" y="-7.5" font-family="Helvetica,sans-Serif" font-size="10.00" fill="#000000">ServoControl.cpp</text>
</a>
</g>
</g>
<!-- Node6&#45;&gt;Node9 -->
<g id="edge3" class="edge">
<title>Node6&#45;&gt;Node9</title>
<path fill="none" stroke="#191970" d="M250.1219,-52.4931C268.4818,-42.4305 292.1647,-29.4505 308.3089,-20.6022"/>
<polygon fill="#191970" stroke="#191970" points="248.4212,-49.434 241.3341,-57.3095 251.7856,-55.5725 248.4212,-49.434"/>
</g>
</g>
</svg>
