<?xml version="1.0" encoding="UTF-8" standalone="no"?>
<!DOCTYPE svg PUBLIC "-//W3C//DTD SVG 1.1//EN"
 "http://www.w3.org/Graphics/SVG/1.1/DTD/svg11.dtd">
<!-- Generated by graphviz version 2.40.1 (20161225.0304)
 -->
<!-- Title: /home/jc/Documents/School/SeniorDesign/ControlCode/MainApplication/Headers/MotorControl/ServoControl.h Pages: 1 -->
<svg width="241pt" height="179pt"
 viewBox="0.00 0.00 241.12 179.00" xmlns="http://www.w3.org/2000/svg" xmlns:xlink="http://www.w3.org/1999/xlink">
<g id="graph0" class="graph" transform="scale(1 1) rotate(0) translate(4 175)">
<title>/home/jc/Documents/School/SeniorDesign/ControlCode/MainApplication/Headers/MotorControl/ServoControl.h</title>
<polygon fill="#ffffff" stroke="transparent" points="-4,4 -4,-175 237.1235,-175 237.1235,4 -4,4"/>
<!-- Node0 -->
<g id="node1" class="node">
<title>Node0</title>
<polygon fill="#bfbfbf" stroke="#000000" points="37.8285,-114.5 37.8285,-170.5 224.4045,-170.5 224.4045,-114.5 37.8285,-114.5"/>
<text text-anchor="start" x="45.8285" y="-157.5" font-family="Helvetica,sans-Serif" font-size="10.00" fill="#000000">/home/jc/Documents</text>
<text text-anchor="start" x="45.8285" y="-145.5" font-family="Helvetica,sans-Serif" font-size="10.00" fill="#000000">/School/SeniorDesign</text>
<text text-anchor="start" x="45.8285" y="-133.5" font-family="Helvetica,sans-Serif" font-size="10.00" fill="#000000">/ControlCode/MainApplication</text>
<text text-anchor="middle" x="131.1165" y="-121.5" font-family="Helvetica,sans-Serif" font-size="10.00" fill="#000000">/Headers/MotorControl/ServoControl.h</text>
</g>
<!-- Node1 -->
<g id="node2" class="node">
<title>Node1</title>
<g id="a_node2"><a xlink:href="MotorControl_8h.html" target="_top" xlink:title="MotorControl.h">
<polygon fill="#ffffff" stroke="#000000" points="37.0585,-57.5 37.0585,-77.5 119.1745,-77.5 119.1745,-57.5 37.0585,-57.5"/>
<text text-anchor="middle" x="78.1165" y="-64.5" font-family="Helvetica,sans-Serif" font-size="10.00" fill="#000000">MotorControl.h</text>
</a>
</g>
</g>
<!-- Node0&#45;&gt;Node1 -->
<g id="edge1" class="edge">
<title>Node0&#45;&gt;Node1</title>
<path fill="none" stroke="#191970" d="M111.0795,-114.1457C104.4491,-104.763 97.2438,-94.5669 91.2655,-86.1071"/>
<polygon fill="#191970" stroke="#191970" points="93.9749,-83.8763 85.3454,-77.7296 88.2582,-87.9161 93.9749,-83.8763"/>
</g>
<!-- Node4 -->
<g id="node5" class="node">
<title>Node4</title>
<g id="a_node5"><a xlink:href="LinearConverter_8h.html" target="_top" xlink:title="LinearConverter.h">
<polygon fill="#ffffff" stroke="#000000" points="137.1095,-57.5 137.1095,-77.5 233.1235,-77.5 233.1235,-57.5 137.1095,-57.5"/>
<text text-anchor="middle" x="185.1165" y="-64.5" font-family="Helvetica,sans-Serif" font-size="10.00" fill="#000000">LinearConverter.h</text>
</a>
</g>
</g>
<!-- Node0&#45;&gt;Node4 -->
<g id="edge4" class="edge">
<title>Node0&#45;&gt;Node4</title>
<path fill="none" stroke="#191970" d="M151.5316,-114.1457C158.2871,-104.763 165.6283,-94.5669 171.7194,-86.1071"/>
<polygon fill="#191970" stroke="#191970" points="174.7485,-87.89 177.7512,-77.7296 169.0678,-83.7998 174.7485,-87.89"/>
</g>
<!-- Node2 -->
<g id="node3" class="node">
<title>Node2</title>
<polygon fill="#ffffff" stroke="#bfbfbf" points="0,-.5 0,-20.5 48.233,-20.5 48.233,-.5 0,-.5"/>
<text text-anchor="middle" x="24.1165" y="-7.5" font-family="Helvetica,sans-Serif" font-size="10.00" fill="#000000">stdint.h</text>
</g>
<!-- Node1&#45;&gt;Node2 -->
<g id="edge2" class="edge">
<title>Node1&#45;&gt;Node2</title>
<path fill="none" stroke="#191970" d="M68.4624,-57.3095C60.7834,-49.204 49.8583,-37.672 40.7737,-28.0826"/>
<polygon fill="#191970" stroke="#191970" points="43.1054,-25.4547 33.687,-20.6022 38.0237,-30.2689 43.1054,-25.4547"/>
</g>
<!-- Node3 -->
<g id="node4" class="node">
<title>Node3</title>
<polygon fill="#ffffff" stroke="#bfbfbf" points="65.996,-.5 65.996,-20.5 124.237,-20.5 124.237,-.5 65.996,-.5"/>
<text text-anchor="middle" x="95.1165" y="-7.5" font-family="Helvetica,sans-Serif" font-size="10.00" fill="#000000">pthread.h</text>
</g>
<!-- Node1&#45;&gt;Node3 -->
<g id="edge3" class="edge">
<title>Node1&#45;&gt;Node3</title>
<path fill="none" stroke="#191970" d="M81.1558,-57.3095C83.3798,-49.8524 86.4688,-39.4951 89.1759,-30.4186"/>
<polygon fill="#191970" stroke="#191970" points="92.5994,-31.1855 92.1036,-20.6022 85.8914,-29.1848 92.5994,-31.1855"/>
</g>
<!-- Node5 -->
<g id="node6" class="node">
<title>Node5</title>
<g id="a_node6"><a xlink:href="Range_8h.html" target="_top" xlink:title="Range.h">
<polygon fill="#ffffff" stroke="#000000" points="158.22,-.5 158.22,-20.5 212.013,-20.5 212.013,-.5 158.22,-.5"/>
<text text-anchor="middle" x="185.1165" y="-7.5" font-family="Helvetica,sans-Serif" font-size="10.00" fill="#000000">Range.h</text>
</a>
</g>
</g>
<!-- Node4&#45;&gt;Node5 -->
<g id="edge5" class="edge">
<title>Node4&#45;&gt;Node5</title>
<path fill="none" stroke="#191970" d="M185.1165,-57.3095C185.1165,-49.9335 185.1165,-39.72 185.1165,-30.715"/>
<polygon fill="#191970" stroke="#191970" points="188.6166,-30.6022 185.1165,-20.6022 181.6166,-30.6023 188.6166,-30.6022"/>
</g>
</g>
</svg>
