<?xml version="1.0" encoding="UTF-8" standalone="no"?>
<!DOCTYPE svg PUBLIC "-//W3C//DTD SVG 1.1//EN"
 "http://www.w3.org/Graphics/SVG/1.1/DTD/svg11.dtd">
<!-- Generated by graphviz version 2.40.1 (20161225.0304)
 -->
<!-- Title: VehicleControl::IO::UserLED::Setup::Setup Pages: 1 -->
<svg width="635pt" height="227pt"
 viewBox="0.00 0.00 635.09 227.00" xmlns="http://www.w3.org/2000/svg" xmlns:xlink="http://www.w3.org/1999/xlink">
<g id="graph0" class="graph" transform="scale(1 1) rotate(0) translate(4 223)">
<title>VehicleControl::IO::UserLED::Setup::Setup</title>
<polygon fill="#ffffff" stroke="transparent" points="-4,4 -4,-223 631.093,-223 631.093,4 -4,4"/>
<!-- Node0 -->
<g id="node1" class="node">
<title>Node0</title>
<polygon fill="#bfbfbf" stroke="#000000" points="0,-90.5 0,-122.5 125.478,-122.5 125.478,-90.5 0,-90.5"/>
<text text-anchor="start" x="8" y="-109.5" font-family="Helvetica,sans-Serif" font-size="10.00" fill="#000000">VehicleControl::IO</text>
<text text-anchor="middle" x="62.739" y="-97.5" font-family="Helvetica,sans-Serif" font-size="10.00" fill="#000000">::UserLED::Setup::Setup</text>
</g>
<!-- Node1 -->
<g id="node2" class="node">
<title>Node1</title>
<g id="a_node2"><a xlink:href="classVehicleControl_1_1IO_1_1UserLED.html#ab9098f8d1bfe2edebc509b6ffd39d9f6" target="_top" xlink:title="UserLED constructs an instance of a user led. ">
<polygon fill="#ffffff" stroke="#000000" points="179.5395,-186.5 179.5395,-218.5 287.7635,-218.5 287.7635,-186.5 179.5395,-186.5"/>
<text text-anchor="start" x="187.5395" y="-205.5" font-family="Helvetica,sans-Serif" font-size="10.00" fill="#000000">VehicleControl::IO</text>
<text text-anchor="middle" x="233.6515" y="-193.5" font-family="Helvetica,sans-Serif" font-size="10.00" fill="#000000">::UserLED::UserLED</text>
</a>
</g>
</g>
<!-- Node0&#45;&gt;Node1 -->
<g id="edge1" class="edge">
<title>Node0&#45;&gt;Node1</title>
<path fill="none" stroke="#191970" d="M81.6883,-122.6988C100.8047,-138.3987 131.6764,-162.0444 161.478,-177.5 164.7924,-179.2189 168.2509,-180.8622 171.7815,-182.4256"/>
<polygon fill="#191970" stroke="#191970" points="170.6701,-185.7542 181.2468,-186.3747 173.3655,-179.2939 170.6701,-185.7542"/>
</g>
<!-- Node3 -->
<g id="node4" class="node">
<title>Node3</title>
<g id="a_node4"><a xlink:href="classVehicleControl_1_1IO_1_1UserLED.html#a25290e583af46bdaee89299f84992478" target="_top" xlink:title="~UserLED destroys the LED. ">
<polygon fill="#ffffff" stroke="#000000" points="176.62,-135.5 176.62,-167.5 290.683,-167.5 290.683,-135.5 176.62,-135.5"/>
<text text-anchor="start" x="184.62" y="-154.5" font-family="Helvetica,sans-Serif" font-size="10.00" fill="#000000">VehicleControl::IO</text>
<text text-anchor="middle" x="233.6515" y="-142.5" font-family="Helvetica,sans-Serif" font-size="10.00" fill="#000000">::UserLED::~UserLED</text>
</a>
</g>
</g>
<!-- Node0&#45;&gt;Node3 -->
<g id="edge3" class="edge">
<title>Node0&#45;&gt;Node3</title>
<path fill="none" stroke="#191970" d="M123.9596,-122.6189C137.7563,-126.2515 152.4717,-130.126 166.497,-133.8187"/>
<polygon fill="#191970" stroke="#191970" points="166.0031,-137.3079 176.5647,-136.4695 167.7855,-130.5386 166.0031,-137.3079"/>
</g>
<!-- Node4 -->
<g id="node5" class="node">
<title>Node4</title>
<g id="a_node5"><a xlink:href="classVehicleControl_1_1IO_1_1UserLED.html#a681c7658d0828edefed7028390adced0" target="_top" xlink:title="setState method sets the state of the LED ">
<polygon fill="#ffffff" stroke="#000000" points="341.825,-48.5 341.825,-80.5 446.178,-80.5 446.178,-48.5 341.825,-48.5"/>
<text text-anchor="start" x="349.825" y="-67.5" font-family="Helvetica,sans-Serif" font-size="10.00" fill="#000000">VehicleControl::IO</text>
<text text-anchor="middle" x="394.0015" y="-55.5" font-family="Helvetica,sans-Serif" font-size="10.00" fill="#000000">::UserLED::setState</text>
</a>
</g>
</g>
<!-- Node0&#45;&gt;Node4 -->
<g id="edge4" class="edge">
<title>Node0&#45;&gt;Node4</title>
<path fill="none" stroke="#191970" d="M125.5618,-104.6443C174.8653,-102.4539 245.0858,-97.7125 305.825,-87.5 314.3267,-86.0706 323.2042,-84.2075 331.9125,-82.1603"/>
<polygon fill="#191970" stroke="#191970" points="332.7592,-85.5565 341.6433,-79.7839 331.0984,-78.7563 332.7592,-85.5565"/>
</g>
<!-- Node5 -->
<g id="node6" class="node">
<title>Node5</title>
<g id="a_node6"><a xlink:href="classVehicleControl_1_1IO_1_1UserLED.html#a24318aac0770b5c67d10d8412fc5fda3" target="_top" xlink:title="state getter ">
<polygon fill="#ffffff" stroke="#000000" points="506.074,-.5 506.074,-32.5 603.197,-32.5 603.197,-.5 506.074,-.5"/>
<text text-anchor="start" x="514.074" y="-19.5" font-family="Helvetica,sans-Serif" font-size="10.00" fill="#000000">VehicleControl::IO</text>
<text text-anchor="middle" x="554.6355" y="-7.5" font-family="Helvetica,sans-Serif" font-size="10.00" fill="#000000">::UserLED::state</text>
</a>
</g>
</g>
<!-- Node0&#45;&gt;Node5 -->
<g id="edge7" class="edge">
<title>Node0&#45;&gt;Node5</title>
<path fill="none" stroke="#191970" d="M79.2147,-90.2504C97.5533,-73.3424 128.9184,-47.7895 161.478,-36.5 274.5695,2.7128 416.9327,-2.3669 495.5862,-9.4885"/>
<polygon fill="#191970" stroke="#191970" points="495.5007,-12.996 505.7866,-10.4562 496.162,-6.0273 495.5007,-12.996"/>
</g>
<!-- Node7 -->
<g id="node8" class="node">
<title>Node7</title>
<g id="a_node8"><a xlink:href="classVehicleControl_1_1IO_1_1UserLED.html#a899d101eb5e8129e5f3f6c13dce1afb6" target="_top" xlink:title="changeBlinkTime method changes the time of the blink ">
<polygon fill="#ffffff" stroke="#000000" points="161.478,-45.5 161.478,-77.5 305.825,-77.5 305.825,-45.5 161.478,-45.5"/>
<text text-anchor="start" x="169.478" y="-64.5" font-family="Helvetica,sans-Serif" font-size="10.00" fill="#000000">VehicleControl::IO</text>
<text text-anchor="middle" x="233.6515" y="-52.5" font-family="Helvetica,sans-Serif" font-size="10.00" fill="#000000">::UserLED::changeBlinkTime</text>
</a>
</g>
</g>
<!-- Node0&#45;&gt;Node7 -->
<g id="edge8" class="edge">
<title>Node0&#45;&gt;Node7</title>
<path fill="none" stroke="#191970" d="M123.9596,-90.3811C136.63,-87.045 150.0754,-83.505 163.0495,-80.089"/>
<polygon fill="#191970" stroke="#191970" points="164.0791,-83.4373 172.8583,-77.5064 162.2967,-76.668 164.0791,-83.4373"/>
</g>
<!-- Node2 -->
<g id="node3" class="node">
<title>Node2</title>
<g id="a_node3"><a xlink:href="namespaceVehicleControl_1_1IO.html#a6a8717b53bf4029a6a4cf9b0a004d6ac" target="_top" xlink:title="VehicleControl::IO\l::enumToString">
<polygon fill="#ffffff" stroke="#000000" points="345.44,-186.5 345.44,-218.5 442.563,-218.5 442.563,-186.5 345.44,-186.5"/>
<text text-anchor="start" x="353.44" y="-205.5" font-family="Helvetica,sans-Serif" font-size="10.00" fill="#000000">VehicleControl::IO</text>
<text text-anchor="middle" x="394.0015" y="-193.5" font-family="Helvetica,sans-Serif" font-size="10.00" fill="#000000">::enumToString</text>
</a>
</g>
</g>
<!-- Node1&#45;&gt;Node2 -->
<g id="edge2" class="edge">
<title>Node1&#45;&gt;Node2</title>
<path fill="none" stroke="#191970" d="M287.9387,-202.5C303.2176,-202.5 319.9016,-202.5 335.4194,-202.5"/>
<polygon fill="#191970" stroke="#191970" points="335.4221,-206.0001 345.422,-202.5 335.422,-199.0001 335.4221,-206.0001"/>
</g>
<!-- Node4&#45;&gt;Node5 -->
<g id="edge5" class="edge">
<title>Node4&#45;&gt;Node5</title>
<path fill="none" stroke="#191970" d="M446.5991,-48.783C462.4356,-44.0508 479.9109,-38.8289 496.1074,-33.9891"/>
<polygon fill="#191970" stroke="#191970" points="497.4214,-37.2495 506.0007,-31.0329 495.4172,-30.5425 497.4214,-37.2495"/>
</g>
<!-- Node6 -->
<g id="node7" class="node">
<title>Node6</title>
<g id="a_node7"><a xlink:href="classThreadHelper.html#a4426e115e7858a4b6f6eedbc77302756" target="_top" xlink:title="startDetachedThread ">
<polygon fill="#ffffff" stroke="#000000" points="482.178,-51.5 482.178,-83.5 627.093,-83.5 627.093,-51.5 482.178,-51.5"/>
<text text-anchor="start" x="490.178" y="-70.5" font-family="Helvetica,sans-Serif" font-size="10.00" fill="#000000">ThreadHelper::startDetached</text>
<text text-anchor="middle" x="554.6355" y="-58.5" font-family="Helvetica,sans-Serif" font-size="10.00" fill="#000000">Thread</text>
</a>
</g>
</g>
<!-- Node4&#45;&gt;Node6 -->
<g id="edge6" class="edge">
<title>Node4&#45;&gt;Node6</title>
<path fill="none" stroke="#191970" d="M446.5991,-65.4823C454.754,-65.6346 463.3434,-65.795 471.969,-65.9561"/>
<polygon fill="#191970" stroke="#191970" points="472.0238,-69.4577 482.0874,-66.1451 472.1545,-62.4589 472.0238,-69.4577"/>
</g>
<!-- Node7&#45;&gt;Node4 -->
<g id="edge9" class="edge">
<title>Node7&#45;&gt;Node4</title>
<path fill="none" stroke="#191970" d="M305.8521,-62.8508C314.3622,-63.01 322.9934,-63.1715 331.3569,-63.328"/>
<polygon fill="#191970" stroke="#191970" points="331.336,-66.8281 341.3998,-63.5159 331.467,-59.8293 331.336,-66.8281"/>
</g>
</g>
</svg>
