<?xml version="1.0" encoding="UTF-8" standalone="no"?>
<!DOCTYPE svg PUBLIC "-//W3C//DTD SVG 1.1//EN"
 "http://www.w3.org/Graphics/SVG/1.1/DTD/svg11.dtd">
<!-- Generated by graphviz version 2.40.1 (20161225.0304)
 -->
<!-- Title: Core::IO::Input::Setup::Setup Pages: 1 -->
<svg width="845pt" height="450pt"
 viewBox="0.00 0.00 844.97 449.62" xmlns="http://www.w3.org/2000/svg" xmlns:xlink="http://www.w3.org/1999/xlink">
<g id="graph0" class="graph" transform="scale(1 1) rotate(0) translate(4 445.6239)">
<title>Core::IO::Input::Setup::Setup</title>
<polygon fill="#ffffff" stroke="transparent" points="-4,4 -4,-445.6239 840.973,-445.6239 840.973,4 -4,4"/>
<!-- Node0 -->
<g id="node1" class="node">
<title>Node0</title>
<polygon fill="#bfbfbf" stroke="#000000" points="0,-211.6045 0,-243.6045 113.258,-243.6045 113.258,-211.6045 0,-211.6045"/>
<text text-anchor="start" x="8" y="-230.6045" font-family="Helvetica,sans-Serif" font-size="10.00" fill="#000000">Core::IO::Input::Setup</text>
<text text-anchor="middle" x="56.629" y="-218.6045" font-family="Helvetica,sans-Serif" font-size="10.00" fill="#000000">::Setup</text>
</g>
<!-- Node1 -->
<g id="node2" class="node">
<title>Node1</title>
<g id="a_node2"><a xlink:href="classCore_1_1IO_1_1Input.html#ae490cffe2162d4538dd108b0bd1f3695" target="_top" xlink:title="Input constructs an input based on the given setup. The constructor will automatically export the pin...">
<polygon fill="#ffffff" stroke="#000000" points="178.9835,-373.6045 178.9835,-393.6045 288.3515,-393.6045 288.3515,-373.6045 178.9835,-373.6045"/>
<text text-anchor="middle" x="233.6675" y="-380.6045" font-family="Helvetica,sans-Serif" font-size="10.00" fill="#000000">Core::IO::Input::Input</text>
</a>
</g>
</g>
<!-- Node0&#45;&gt;Node1 -->
<g id="edge1" class="edge">
<title>Node0&#45;&gt;Node1</title>
<path fill="none" stroke="#191970" d="M63.753,-243.9678C76.6874,-271.7543 106.6883,-328.1084 149.258,-358.6045 155.6353,-363.173 162.8485,-366.9146 170.3062,-369.9772"/>
<polygon fill="#191970" stroke="#191970" points="169.2456,-373.3166 179.8388,-373.5044 171.6748,-366.7516 169.2456,-373.3166"/>
</g>
<!-- Node2 -->
<g id="node3" class="node">
<title>Node2</title>
<g id="a_node3"><a xlink:href="classCore_1_1IO_1_1Input.html#a508adf10c37a35a1284b45132159ad85" target="_top" xlink:title="setEdgeType sets the desired edge ">
<polygon fill="#ffffff" stroke="#000000" points="354.077,-416.6045 354.077,-436.6045 500.121,-436.6045 500.121,-416.6045 354.077,-416.6045"/>
<text text-anchor="middle" x="427.099" y="-423.6045" font-family="Helvetica,sans-Serif" font-size="10.00" fill="#000000">Core::IO::Input::setEdgeType</text>
</a>
</g>
</g>
<!-- Node0&#45;&gt;Node2 -->
<g id="edge11" class="edge">
<title>Node0&#45;&gt;Node2</title>
<path fill="none" stroke="#191970" d="M59.7191,-243.7157C67.5239,-279.5126 91.6629,-365.5017 149.258,-403.6045 212.3166,-445.3218 301.8724,-444.6909 362.1078,-437.8605"/>
<polygon fill="#191970" stroke="#191970" points="362.7553,-441.3075 372.2566,-436.6198 361.9058,-434.3592 362.7553,-441.3075"/>
</g>
<!-- Node5 -->
<g id="node6" class="node">
<title>Node5</title>
<g id="a_node6"><a xlink:href="classCore_1_1IO_1_1Input.html#a35ee0fc0d31172da73135b8ddc543fff" target="_top" xlink:title="waitForEdgeThreaded does the same thing as waitForEdge(), but does so in a threaded manner...">
<polygon fill="#ffffff" stroke="#000000" points="367.146,-314.6045 367.146,-346.6045 487.052,-346.6045 487.052,-314.6045 367.146,-314.6045"/>
<text text-anchor="start" x="375.146" y="-333.6045" font-family="Helvetica,sans-Serif" font-size="10.00" fill="#000000">Core::IO::Input::waitFor</text>
<text text-anchor="middle" x="427.099" y="-321.6045" font-family="Helvetica,sans-Serif" font-size="10.00" fill="#000000">EdgeThreaded</text>
</a>
</g>
</g>
<!-- Node0&#45;&gt;Node5 -->
<g id="edge25" class="edge">
<title>Node0&#45;&gt;Node5</title>
<path fill="none" stroke="#191970" d="M66.0805,-243.8875C80.5746,-267.0488 110.7081,-308.5839 149.258,-325.6045 215.1438,-354.6944 298.6709,-351.557 356.8587,-343.8867"/>
<polygon fill="#191970" stroke="#191970" points="357.6369,-347.312 367.0564,-342.462 356.6683,-340.3793 357.6369,-347.312"/>
</g>
<!-- Node7 -->
<g id="node8" class="node">
<title>Node7</title>
<g id="a_node8"><a xlink:href="classCore_1_1IO_1_1Input.html#a0d76aba41f92c2d72d830c2e87a1e7c1" target="_top" xlink:title="~Input destroys the input. This automatically unexports the pin. ">
<polygon fill="#ffffff" stroke="#000000" points="176.064,-295.6045 176.064,-315.6045 291.271,-315.6045 291.271,-295.6045 176.064,-295.6045"/>
<text text-anchor="middle" x="233.6675" y="-302.6045" font-family="Helvetica,sans-Serif" font-size="10.00" fill="#000000">Core::IO::Input::~Input</text>
</a>
</g>
</g>
<!-- Node0&#45;&gt;Node7 -->
<g id="edge8" class="edge">
<title>Node0&#45;&gt;Node7</title>
<path fill="none" stroke="#191970" d="M77.1794,-243.6573C95.2258,-257.0052 122.6765,-275.545 149.258,-286.6045 154.7664,-288.8963 160.5975,-290.9344 166.5185,-292.7422"/>
<polygon fill="#191970" stroke="#191970" points="165.9518,-296.2191 176.5268,-295.5715 167.856,-289.4831 165.9518,-296.2191"/>
</g>
<!-- Node8 -->
<g id="node9" class="node">
<title>Node8</title>
<g id="a_node9"><a xlink:href="classCore_1_1IO_1_1Input.html#a7c79c442524c3ebf2456013de666f06e" target="_top" xlink:title="setDebounceTime sets the debounce time of the input. This ensures the input is in the proper state fo...">
<polygon fill="#ffffff" stroke="#000000" points="149.5375,-256.6045 149.5375,-276.6045 317.7975,-276.6045 317.7975,-256.6045 149.5375,-256.6045"/>
<text text-anchor="middle" x="233.6675" y="-263.6045" font-family="Helvetica,sans-Serif" font-size="10.00" fill="#000000">Core::IO::Input::setDebounceTime</text>
</a>
</g>
</g>
<!-- Node0&#45;&gt;Node8 -->
<g id="edge9" class="edge">
<title>Node0&#45;&gt;Node8</title>
<path fill="none" stroke="#191970" d="M113.6196,-240.159C134.294,-244.7134 157.6079,-249.8492 178.1532,-254.3752"/>
<polygon fill="#191970" stroke="#191970" points="177.4741,-257.8094 187.993,-256.5428 178.9801,-250.9734 177.4741,-257.8094"/>
</g>
<!-- Node9 -->
<g id="node10" class="node">
<title>Node9</title>
<g id="a_node10"><a xlink:href="classCore_1_1IO_1_1Input.html#ab57cb0d55fc3fa920123f9e661eda1db" target="_top" xlink:title="getDebounceTime getter ">
<polygon fill="#ffffff" stroke="#000000" points="149.258,-217.6045 149.258,-237.6045 318.077,-237.6045 318.077,-217.6045 149.258,-217.6045"/>
<text text-anchor="middle" x="233.6675" y="-224.6045" font-family="Helvetica,sans-Serif" font-size="10.00" fill="#000000">Core::IO::Input::getDebounceTime</text>
</a>
</g>
</g>
<!-- Node0&#45;&gt;Node9 -->
<g id="edge10" class="edge">
<title>Node0&#45;&gt;Node9</title>
<path fill="none" stroke="#191970" d="M113.6196,-227.6045C121.7567,-227.6045 130.3027,-227.6045 138.9278,-227.6045"/>
<polygon fill="#191970" stroke="#191970" points="139.0696,-231.1046 149.0695,-227.6045 139.0695,-224.1046 139.0696,-231.1046"/>
</g>
<!-- Node10 -->
<g id="node11" class="node">
<title>Node10</title>
<g id="a_node11"><a xlink:href="classCore_1_1IO_1_1Input.html#a95ed615611d3f5dc6952f2fd9a647f8f" target="_top" xlink:title="getEdgeType getter ">
<polygon fill="#ffffff" stroke="#000000" points="536.121,-88.6045 536.121,-108.6045 682.724,-108.6045 682.724,-88.6045 536.121,-88.6045"/>
<text text-anchor="middle" x="609.4225" y="-95.6045" font-family="Helvetica,sans-Serif" font-size="10.00" fill="#000000">Core::IO::Input::getEdgeType</text>
</a>
</g>
</g>
<!-- Node0&#45;&gt;Node10 -->
<g id="edge12" class="edge">
<title>Node0&#45;&gt;Node10</title>
<path fill="none" stroke="#191970" d="M64.7482,-211.3527C78.3169,-186.2078 108.2113,-138.6822 149.258,-118.6045 213.3203,-87.2688 411.5009,-89.89 525.808,-94.3615"/>
<polygon fill="#191970" stroke="#191970" points="525.7893,-97.8636 535.9226,-94.7706 526.0722,-90.8693 525.7893,-97.8636"/>
</g>
<!-- Node12 -->
<g id="node13" class="node">
<title>Node12</title>
<g id="a_node13"><a xlink:href="classCore_1_1IO_1_1Input.html#af505f10ed01aa26257a8709ba7211ba6" target="_top" xlink:title="setEdgeCallback setter ">
<polygon fill="#ffffff" stroke="#000000" points="171.759,-127.6045 171.759,-159.6045 295.576,-159.6045 295.576,-127.6045 171.759,-127.6045"/>
<text text-anchor="start" x="179.759" y="-146.6045" font-family="Helvetica,sans-Serif" font-size="10.00" fill="#000000">Core::IO::Input::setEdge</text>
<text text-anchor="middle" x="233.6675" y="-134.6045" font-family="Helvetica,sans-Serif" font-size="10.00" fill="#000000">Callback</text>
</a>
</g>
</g>
<!-- Node0&#45;&gt;Node12 -->
<g id="edge14" class="edge">
<title>Node0&#45;&gt;Node12</title>
<path fill="none" stroke="#191970" d="M81.9658,-211.5653C100.2457,-200.3793 125.744,-185.5551 149.258,-174.6045 157.8708,-170.5935 167.1591,-166.7375 176.3149,-163.1896"/>
<polygon fill="#191970" stroke="#191970" points="177.6602,-166.4228 185.7744,-159.6102 175.1829,-159.8758 177.6602,-166.4228"/>
</g>
<!-- Node13 -->
<g id="node14" class="node">
<title>Node13</title>
<g id="a_node14"><a xlink:href="namespaceVehicleControl.html#af89cecf99aa4e7787af7433d8f3b6970" target="_top" xlink:title="VehicleControl::callback">
<polygon fill="#ffffff" stroke="#000000" points="365.759,-178.6045 365.759,-198.6045 488.439,-198.6045 488.439,-178.6045 365.759,-178.6045"/>
<text text-anchor="middle" x="427.099" y="-185.6045" font-family="Helvetica,sans-Serif" font-size="10.00" fill="#000000">VehicleControl::callback</text>
</a>
</g>
</g>
<!-- Node0&#45;&gt;Node13 -->
<g id="edge20" class="edge">
<title>Node0&#45;&gt;Node13</title>
<path fill="none" stroke="#191970" d="M113.7458,-214.6737C125.4452,-212.3681 137.7118,-210.1973 149.258,-208.6045 218.938,-198.992 299.1267,-193.8463 355.3905,-191.1946"/>
<polygon fill="#191970" stroke="#191970" points="355.7799,-194.6806 365.6098,-190.728 355.4605,-187.6879 355.7799,-194.6806"/>
</g>
<!-- Node16 -->
<g id="node17" class="node">
<title>Node16</title>
<g id="a_node17"><a xlink:href="classCore_1_1IO_1_1Input.html#a6ebaffcb31befe3e8ad3f1c753875499" target="_top" xlink:title="waitForEdge method is a blocking wait for edge. Therefore, the callee will halt its thread until this...">
<polygon fill="#ffffff" stroke="#000000" points="355.473,-26.6045 355.473,-46.6045 498.725,-46.6045 498.725,-26.6045 355.473,-26.6045"/>
<text text-anchor="middle" x="427.099" y="-33.6045" font-family="Helvetica,sans-Serif" font-size="10.00" fill="#000000">Core::IO::Input::waitForEdge</text>
</a>
</g>
</g>
<!-- Node0&#45;&gt;Node16 -->
<g id="edge21" class="edge">
<title>Node0&#45;&gt;Node16</title>
<path fill="none" stroke="#191970" d="M58.3995,-211.4032C63.7138,-171.6803 83.4762,-69.6325 149.258,-27.6045 223.8801,20.0715 334.2623,-5.2177 390.8101,-23.3704"/>
<polygon fill="#191970" stroke="#191970" points="389.8008,-26.7231 400.3942,-26.5457 392.0023,-20.0783 389.8008,-26.7231"/>
</g>
<!-- Node19 -->
<g id="node20" class="node">
<title>Node19</title>
<g id="a_node20"><a xlink:href="classCore_1_1IO_1_1Input.html#a6bf5d36ec1e0413c4f11f8bdd01792a0" target="_top" xlink:title="cancelWaitForEdge method cancels waiting for the edge. ">
<polygon fill="#ffffff" stroke="#000000" points="165.655,-37.6045 165.655,-69.6045 301.68,-69.6045 301.68,-37.6045 165.655,-37.6045"/>
<text text-anchor="start" x="173.655" y="-56.6045" font-family="Helvetica,sans-Serif" font-size="10.00" fill="#000000">Core::IO::Input::cancelWait</text>
<text text-anchor="middle" x="233.6675" y="-44.6045" font-family="Helvetica,sans-Serif" font-size="10.00" fill="#000000">ForEdge</text>
</a>
</g>
</g>
<!-- Node0&#45;&gt;Node19 -->
<g id="edge26" class="edge">
<title>Node0&#45;&gt;Node19</title>
<path fill="none" stroke="#191970" d="M62.9738,-211.4486C75.2788,-182.1118 105.1143,-119.8646 149.258,-84.6045 154.221,-80.6402 159.7387,-77.153 165.5093,-74.0914"/>
<polygon fill="#191970" stroke="#191970" points="167.2656,-77.1298 174.7422,-69.6231 164.2162,-70.8289 167.2656,-77.1298"/>
</g>
<!-- Node1&#45;&gt;Node2 -->
<g id="edge2" class="edge">
<title>Node1&#45;&gt;Node2</title>
<path fill="none" stroke="#191970" d="M279.0186,-393.6861C306.7874,-399.8591 342.5147,-407.8013 371.9186,-414.3378"/>
<polygon fill="#191970" stroke="#191970" points="371.5108,-417.8326 382.032,-416.5861 373.0299,-410.9994 371.5108,-417.8326"/>
</g>
<!-- Node4 -->
<g id="node5" class="node">
<title>Node4</title>
<g id="a_node5"><a xlink:href="classCore_1_1IO_1_1IOBase.html#aca37988be943985f905a71ddae003214" target="_top" xlink:title="setActiveHighOrLow setter ">
<polygon fill="#ffffff" stroke="#000000" points="357.6955,-365.6045 357.6955,-397.6045 496.5025,-397.6045 496.5025,-365.6045 357.6955,-365.6045"/>
<text text-anchor="start" x="365.6955" y="-384.6045" font-family="Helvetica,sans-Serif" font-size="10.00" fill="#000000">Core::IO::IOBase::setActive</text>
<text text-anchor="middle" x="427.099" y="-372.6045" font-family="Helvetica,sans-Serif" font-size="10.00" fill="#000000">HighOrLow</text>
</a>
</g>
</g>
<!-- Node1&#45;&gt;Node4 -->
<g id="edge4" class="edge">
<title>Node1&#45;&gt;Node4</title>
<path fill="none" stroke="#191970" d="M288.5798,-383.0367C306.8416,-382.8479 327.5657,-382.6336 347.3172,-382.4294"/>
<polygon fill="#191970" stroke="#191970" points="347.5758,-385.927 357.5391,-382.3237 347.5034,-378.9274 347.5758,-385.927"/>
</g>
<!-- Node1&#45;&gt;Node5 -->
<g id="edge6" class="edge">
<title>Node1&#45;&gt;Node5</title>
<path fill="none" stroke="#191970" d="M270.5058,-373.5108C295.3231,-366.7109 328.8123,-357.5349 358.4512,-349.4139"/>
<polygon fill="#191970" stroke="#191970" points="359.6174,-352.7235 368.337,-346.7052 357.7675,-345.9723 359.6174,-352.7235"/>
</g>
<!-- Node3 -->
<g id="node4" class="node">
<title>Node3</title>
<g id="a_node4"><a xlink:href="classCore_1_1IO_1_1IOBase.html#a6a095d6e076e588f343984044a3bb084" target="_top" xlink:title="write write function that writes a single string value to a file in the path provided ...">
<polygon fill="#ffffff" stroke="#000000" points="549.7485,-394.6045 549.7485,-414.6045 669.0965,-414.6045 669.0965,-394.6045 549.7485,-394.6045"/>
<text text-anchor="middle" x="609.4225" y="-401.6045" font-family="Helvetica,sans-Serif" font-size="10.00" fill="#000000">Core::IO::IOBase::write</text>
</a>
</g>
</g>
<!-- Node2&#45;&gt;Node3 -->
<g id="edge3" class="edge">
<title>Node2&#45;&gt;Node3</title>
<path fill="none" stroke="#191970" d="M500.2064,-417.783C513.183,-416.2172 526.6681,-414.59 539.5521,-413.0354"/>
<polygon fill="#191970" stroke="#191970" points="540.2261,-416.4795 549.7348,-411.8067 539.3875,-409.5299 540.2261,-416.4795"/>
</g>
<!-- Node4&#45;&gt;Node3 -->
<g id="edge5" class="edge">
<title>Node4&#45;&gt;Node3</title>
<path fill="none" stroke="#191970" d="M496.5478,-390.3654C510.6381,-392.1429 525.4632,-394.0131 539.5675,-395.7923"/>
<polygon fill="#191970" stroke="#191970" points="539.33,-399.29 549.6894,-397.0692 540.2062,-392.3451 539.33,-399.29"/>
</g>
<!-- Node6 -->
<g id="node7" class="node">
<title>Node6</title>
<g id="a_node7"><a xlink:href="classCore_1_1ThreadHelper.html#a138066760eabf36c1681bbd177db0446" target="_top" xlink:title="startDetachedThread ">
<polygon fill="#ffffff" stroke="#000000" points="720.113,-279.6045 720.113,-311.6045 835.584,-311.6045 835.584,-279.6045 720.113,-279.6045"/>
<text text-anchor="start" x="728.113" y="-298.6045" font-family="Helvetica,sans-Serif" font-size="10.00" fill="#000000">Core::ThreadHelper</text>
<text text-anchor="middle" x="777.8485" y="-286.6045" font-family="Helvetica,sans-Serif" font-size="10.00" fill="#000000">::startDetachedThread</text>
</a>
</g>
</g>
<!-- Node5&#45;&gt;Node6 -->
<g id="edge7" class="edge">
<title>Node5&#45;&gt;Node6</title>
<path fill="none" stroke="#191970" d="M487.395,-324.5878C549.3069,-318.4098 645.4772,-308.8133 710.0092,-302.3739"/>
<polygon fill="#191970" stroke="#191970" points="710.4814,-305.8443 720.0844,-301.3686 709.7863,-298.8789 710.4814,-305.8443"/>
</g>
<!-- Node11 -->
<g id="node12" class="node">
<title>Node11</title>
<g id="a_node12"><a xlink:href="classCore_1_1IO_1_1IOBase.html#ab27139c5454e00719c3b5d8d17d6a8e8" target="_top" xlink:title="read function that reads the value of the given file filename ">
<polygon fill="#ffffff" stroke="#000000" points="718.724,-69.6045 718.724,-89.6045 836.973,-89.6045 836.973,-69.6045 718.724,-69.6045"/>
<text text-anchor="middle" x="777.8485" y="-76.6045" font-family="Helvetica,sans-Serif" font-size="10.00" fill="#000000">Core::IO::IOBase::read</text>
</a>
</g>
</g>
<!-- Node10&#45;&gt;Node11 -->
<g id="edge13" class="edge">
<title>Node10&#45;&gt;Node11</title>
<path fill="none" stroke="#191970" d="M682.8066,-90.3261C691.3147,-89.3663 699.9727,-88.3896 708.4254,-87.4361"/>
<polygon fill="#191970" stroke="#191970" points="709.0657,-90.8861 718.6103,-86.2871 708.2809,-83.9302 709.0657,-90.8861"/>
</g>
<!-- Node12&#45;&gt;Node13 -->
<g id="edge15" class="edge">
<title>Node12&#45;&gt;Node13</title>
<path fill="none" stroke="#191970" d="M295.6686,-158.0285C321.0176,-163.9257 350.0349,-170.6763 374.345,-176.3318"/>
<polygon fill="#191970" stroke="#191970" points="373.5702,-179.7449 384.1032,-178.6019 375.1564,-172.927 373.5702,-179.7449"/>
</g>
<!-- Node14 -->
<g id="node15" class="node">
<title>Node14</title>
<g id="a_node15"><a xlink:href="classCore_1_1IO_1_1UserLED.html#a5d7887f070c9ce082f8be1d3aae448d2" target="_top" xlink:title="state getter ">
<polygon fill="#ffffff" stroke="#000000" points="725.1225,-183.6045 725.1225,-215.6045 830.5745,-215.6045 830.5745,-183.6045 725.1225,-183.6045"/>
<text text-anchor="start" x="733.1225" y="-202.6045" font-family="Helvetica,sans-Serif" font-size="10.00" fill="#000000">Core::IO::UserLED::</text>
<text text-anchor="middle" x="777.8485" y="-190.6045" font-family="Helvetica,sans-Serif" font-size="10.00" fill="#000000">state</text>
</a>
</g>
</g>
<!-- Node13&#45;&gt;Node14 -->
<g id="edge16" class="edge">
<title>Node13&#45;&gt;Node14</title>
<path fill="none" stroke="#191970" d="M488.5963,-190.5331C552.06,-192.5235 650.5762,-195.6131 714.6558,-197.6227"/>
<polygon fill="#191970" stroke="#191970" points="714.9207,-201.1326 725.0256,-197.9479 715.1402,-194.1361 714.9207,-201.1326"/>
</g>
<!-- Node15 -->
<g id="node16" class="node">
<title>Node15</title>
<g id="a_node16"><a xlink:href="classCore_1_1IO_1_1UserLED.html#ac39c3ed451b83046ff37ecb4ccff142c" target="_top" xlink:title="setState method sets the state of the LED ">
<polygon fill="#ffffff" stroke="#000000" points="556.6965,-217.6045 556.6965,-249.6045 662.1485,-249.6045 662.1485,-217.6045 556.6965,-217.6045"/>
<text text-anchor="start" x="564.6965" y="-236.6045" font-family="Helvetica,sans-Serif" font-size="10.00" fill="#000000">Core::IO::UserLED::</text>
<text text-anchor="middle" x="609.4225" y="-224.6045" font-family="Helvetica,sans-Serif" font-size="10.00" fill="#000000">setState</text>
</a>
</g>
</g>
<!-- Node13&#45;&gt;Node15 -->
<g id="edge17" class="edge">
<title>Node13&#45;&gt;Node15</title>
<path fill="none" stroke="#191970" d="M468.016,-198.7034C491.1971,-204.4248 520.6817,-211.702 546.7225,-218.1292"/>
<polygon fill="#191970" stroke="#191970" points="545.9665,-221.5476 556.5139,-220.5459 547.6439,-214.7516 545.9665,-221.5476"/>
</g>
<!-- Node15&#45;&gt;Node6 -->
<g id="edge19" class="edge">
<title>Node15&#45;&gt;Node6</title>
<path fill="none" stroke="#191970" d="M653.2348,-249.7324C675.0677,-257.7694 701.6487,-267.5543 724.6442,-276.0192"/>
<polygon fill="#191970" stroke="#191970" points="723.6621,-279.3873 734.2556,-279.5573 726.0803,-272.8182 723.6621,-279.3873"/>
</g>
<!-- Node15&#45;&gt;Node14 -->
<g id="edge18" class="edge">
<title>Node15&#45;&gt;Node14</title>
<path fill="none" stroke="#191970" d="M662.2514,-222.94C678.9449,-219.5701 697.5584,-215.8126 714.8873,-212.3144"/>
<polygon fill="#191970" stroke="#191970" points="715.808,-215.6992 724.9177,-210.2896 714.4228,-208.8377 715.808,-215.6992"/>
</g>
<!-- Node17 -->
<g id="node18" class="node">
<title>Node17</title>
<g id="a_node18"><a xlink:href="classCore_1_1IO_1_1IOBase.html#adb7dec70c1c39b19d2166c8fdea6b1f9" target="_top" xlink:title="path getter ">
<polygon fill="#ffffff" stroke="#000000" points="550.573,-10.6045 550.573,-30.6045 668.272,-30.6045 668.272,-10.6045 550.573,-10.6045"/>
<text text-anchor="middle" x="609.4225" y="-17.6045" font-family="Helvetica,sans-Serif" font-size="10.00" fill="#000000">Core::IO::IOBase::path</text>
</a>
</g>
</g>
<!-- Node16&#45;&gt;Node17 -->
<g id="edge22" class="edge">
<title>Node16&#45;&gt;Node17</title>
<path fill="none" stroke="#191970" d="M498.8964,-30.3038C512.4753,-29.1122 526.6552,-27.8678 540.1543,-26.6832"/>
<polygon fill="#191970" stroke="#191970" points="540.6675,-30.1517 550.3232,-25.7908 540.0555,-23.1785 540.6675,-30.1517"/>
</g>
<!-- Node18 -->
<g id="node19" class="node">
<title>Node18</title>
<g id="a_node19"><a xlink:href="classCore_1_1IO_1_1IOBase.html#a5516fd4c88b5d0557f19c0c77add9dbf" target="_top" xlink:title="getValue getter ">
<polygon fill="#ffffff" stroke="#000000" points="540.57,-49.6045 540.57,-69.6045 678.275,-69.6045 678.275,-49.6045 540.57,-49.6045"/>
<text text-anchor="middle" x="609.4225" y="-56.6045" font-family="Helvetica,sans-Serif" font-size="10.00" fill="#000000">Core::IO::IOBase::getValue</text>
</a>
</g>
</g>
<!-- Node16&#45;&gt;Node18 -->
<g id="edge23" class="edge">
<title>Node16&#45;&gt;Node18</title>
<path fill="none" stroke="#191970" d="M498.8964,-45.6617C509.2421,-46.9668 519.9367,-48.3159 530.4132,-49.6375"/>
<polygon fill="#191970" stroke="#191970" points="530.013,-53.1147 540.3725,-50.8939 530.8892,-46.1697 530.013,-53.1147"/>
</g>
<!-- Node18&#45;&gt;Node11 -->
<g id="edge24" class="edge">
<title>Node18&#45;&gt;Node11</title>
<path fill="none" stroke="#191970" d="M678.4138,-67.797C688.3252,-68.9739 698.5276,-70.1854 708.447,-71.3633"/>
<polygon fill="#191970" stroke="#191970" points="708.3145,-74.8721 718.6575,-72.5758 709.14,-67.9209 708.3145,-74.8721"/>
</g>
<!-- Node19&#45;&gt;Node16 -->
<g id="edge27" class="edge">
<title>Node19&#45;&gt;Node16</title>
<path fill="none" stroke="#191970" d="M301.8642,-47.6109C315.7808,-46.3879 330.5625,-45.0887 344.908,-43.828"/>
<polygon fill="#191970" stroke="#191970" points="345.6029,-47.2805 355.258,-42.9183 344.99,-40.3074 345.6029,-47.2805"/>
</g>
</g>
</svg>
