<?xml version="1.0" encoding="UTF-8" standalone="no"?>
<!DOCTYPE svg PUBLIC "-//W3C//DTD SVG 1.1//EN"
 "http://www.w3.org/Graphics/SVG/1.1/DTD/svg11.dtd">
<!-- Generated by graphviz version 2.40.1 (20161225.0304)
 -->
<!-- Title: VehicleControl::IO::Output::Setup::Setup Pages: 1 -->
<svg width="571pt" height="335pt"
 viewBox="0.00 0.00 570.69 335.00" xmlns="http://www.w3.org/2000/svg" xmlns:xlink="http://www.w3.org/1999/xlink">
<g id="graph0" class="graph" transform="scale(1 1) rotate(0) translate(4 331)">
<title>VehicleControl::IO::Output::Setup::Setup</title>
<polygon fill="#ffffff" stroke="transparent" points="-4,4 -4,-331 566.689,-331 566.689,4 -4,4"/>
<!-- Node0 -->
<g id="node1" class="node">
<title>Node0</title>
<polygon fill="#bfbfbf" stroke="#000000" points="0,-153.5 0,-185.5 114.938,-185.5 114.938,-153.5 0,-153.5"/>
<text text-anchor="start" x="8" y="-172.5" font-family="Helvetica,sans-Serif" font-size="10.00" fill="#000000">VehicleControl::IO</text>
<text text-anchor="middle" x="57.469" y="-160.5" font-family="Helvetica,sans-Serif" font-size="10.00" fill="#000000">::Output::Setup::Setup</text>
</g>
<!-- Node1 -->
<g id="node2" class="node">
<title>Node1</title>
<g id="a_node2"><a xlink:href="classVehicleControl_1_1IO_1_1Output.html#a1a2250e217aed4d412299c82d31d8cc5" target="_top" xlink:title="Output constructs an output based on the given setup. The constructor will automatically export the p...">
<polygon fill="#ffffff" stroke="#000000" points="173.729,-294.5 173.729,-326.5 270.852,-326.5 270.852,-294.5 173.729,-294.5"/>
<text text-anchor="start" x="181.729" y="-313.5" font-family="Helvetica,sans-Serif" font-size="10.00" fill="#000000">VehicleControl::IO</text>
<text text-anchor="middle" x="222.2905" y="-301.5" font-family="Helvetica,sans-Serif" font-size="10.00" fill="#000000">::Output::Output</text>
</a>
</g>
</g>
<!-- Node0&#45;&gt;Node1 -->
<g id="edge1" class="edge">
<title>Node0&#45;&gt;Node1</title>
<path fill="none" stroke="#191970" d="M66.5038,-185.7586C81.1249,-210.6551 112.2745,-258.2015 150.938,-285.5 155.1198,-288.4526 159.6835,-291.0858 164.4156,-293.4284"/>
<polygon fill="#191970" stroke="#191970" points="163.111,-296.6792 173.6672,-297.5827 165.9784,-290.2934 163.111,-296.6792"/>
</g>
<!-- Node2 -->
<g id="node3" class="node">
<title>Node2</title>
<g id="a_node3"><a xlink:href="classVehicleControl_1_1IO_1_1Output.html#a693277160f76379d40d464a6a697b307" target="_top" xlink:title="~Output destroys the output. This automatically unexports the pin. ">
<polygon fill="#ffffff" stroke="#000000" points="173.729,-243.5 173.729,-275.5 270.852,-275.5 270.852,-243.5 173.729,-243.5"/>
<text text-anchor="start" x="181.729" y="-262.5" font-family="Helvetica,sans-Serif" font-size="10.00" fill="#000000">VehicleControl::IO</text>
<text text-anchor="middle" x="222.2905" y="-250.5" font-family="Helvetica,sans-Serif" font-size="10.00" fill="#000000">::Output::~Output</text>
</a>
</g>
</g>
<!-- Node0&#45;&gt;Node2 -->
<g id="edge2" class="edge">
<title>Node0&#45;&gt;Node2</title>
<path fill="none" stroke="#191970" d="M80.6923,-185.5635C99.2527,-198.0538 126.1712,-215.4021 150.938,-228.5 157.9058,-232.1849 165.4048,-235.8008 172.8307,-239.1876"/>
<polygon fill="#191970" stroke="#191970" points="171.5937,-242.4681 182.1524,-243.343 174.4439,-236.0746 171.5937,-242.4681"/>
</g>
<!-- Node3 -->
<g id="node4" class="node">
<title>Node3</title>
<g id="a_node4"><a xlink:href="classVehicleControl_1_1IO_1_1Output.html#a98a765948ebfdb90aaad27a140fac509" target="_top" xlink:title="setValue setter ">
<polygon fill="#ffffff" stroke="#000000" points="331.043,-175.5 331.043,-207.5 428.166,-207.5 428.166,-175.5 331.043,-175.5"/>
<text text-anchor="start" x="339.043" y="-194.5" font-family="Helvetica,sans-Serif" font-size="10.00" fill="#000000">VehicleControl::IO</text>
<text text-anchor="middle" x="379.6045" y="-182.5" font-family="Helvetica,sans-Serif" font-size="10.00" fill="#000000">::Output::setValue</text>
</a>
</g>
</g>
<!-- Node0&#45;&gt;Node3 -->
<g id="edge3" class="edge">
<title>Node0&#45;&gt;Node3</title>
<path fill="none" stroke="#191970" d="M105.4574,-185.533C119.9068,-189.6278 135.9182,-193.4499 150.938,-195.5 208.1767,-203.3126 274.2155,-200.9527 320.5626,-197.4596"/>
<polygon fill="#191970" stroke="#191970" points="321.0369,-200.933 330.728,-196.6515 320.4821,-193.955 321.0369,-200.933"/>
</g>
<!-- Node5 -->
<g id="node6" class="node">
<title>Node5</title>
<g id="a_node6"><a xlink:href="classVehicleControl_1_1IO_1_1Output.html#ab9f111f3ee65ae7c3408421db9980966" target="_top" xlink:title="isToggling getter ">
<polygon fill="#ffffff" stroke="#000000" points="170.945,-51.5 170.945,-83.5 273.636,-83.5 273.636,-51.5 170.945,-51.5"/>
<text text-anchor="start" x="178.945" y="-70.5" font-family="Helvetica,sans-Serif" font-size="10.00" fill="#000000">VehicleControl::IO</text>
<text text-anchor="middle" x="222.2905" y="-58.5" font-family="Helvetica,sans-Serif" font-size="10.00" fill="#000000">::Output::isToggling</text>
</a>
</g>
</g>
<!-- Node0&#45;&gt;Node5 -->
<g id="edge5" class="edge">
<title>Node0&#45;&gt;Node5</title>
<path fill="none" stroke="#191970" d="M73.3678,-153.3712C90.9864,-136.265 120.8971,-109.424 150.938,-92.5 154.2187,-90.6518 157.6602,-88.9038 161.1851,-87.2569"/>
<polygon fill="#191970" stroke="#191970" points="162.8856,-90.334 170.6579,-83.1338 160.0919,-83.9156 162.8856,-90.334"/>
</g>
<!-- Node6 -->
<g id="node7" class="node">
<title>Node6</title>
<g id="a_node7"><a xlink:href="classVehicleControl_1_1IO_1_1Output.html#a0ff845e3963d2a3e19080b402edfaaf6" target="_top" xlink:title="toggleOutput method toggles the output once ">
<polygon fill="#ffffff" stroke="#000000" points="165.1015,-153.5 165.1015,-185.5 279.4795,-185.5 279.4795,-153.5 165.1015,-153.5"/>
<text text-anchor="start" x="173.1015" y="-172.5" font-family="Helvetica,sans-Serif" font-size="10.00" fill="#000000">VehicleControl::IO</text>
<text text-anchor="middle" x="222.2905" y="-160.5" font-family="Helvetica,sans-Serif" font-size="10.00" fill="#000000">::Output::toggleOutput</text>
</a>
</g>
</g>
<!-- Node0&#45;&gt;Node6 -->
<g id="edge6" class="edge">
<title>Node0&#45;&gt;Node6</title>
<path fill="none" stroke="#191970" d="M115.1156,-169.5C127.861,-169.5 141.4777,-169.5 154.5819,-169.5"/>
<polygon fill="#191970" stroke="#191970" points="154.9548,-173.0001 164.9548,-169.5 154.9548,-166.0001 154.9548,-173.0001"/>
</g>
<!-- Node9 -->
<g id="node10" class="node">
<title>Node9</title>
<g id="a_node10"><a xlink:href="classVehicleControl_1_1IO_1_1Output.html#ae7094d2a9798b4339efe4ec622346e5d" target="_top" xlink:title="changeToggleTime changes the toggling time ">
<polygon fill="#ffffff" stroke="#000000" points="150.938,-.5 150.938,-32.5 293.643,-32.5 293.643,-.5 150.938,-.5"/>
<text text-anchor="start" x="158.938" y="-19.5" font-family="Helvetica,sans-Serif" font-size="10.00" fill="#000000">VehicleControl::IO</text>
<text text-anchor="middle" x="222.2905" y="-7.5" font-family="Helvetica,sans-Serif" font-size="10.00" fill="#000000">::Output::changeToggleTime</text>
</a>
</g>
</g>
<!-- Node0&#45;&gt;Node9 -->
<g id="edge10" class="edge">
<title>Node0&#45;&gt;Node9</title>
<path fill="none" stroke="#191970" d="M65.1747,-153.3001C78.7918,-126.3312 109.6208,-72.1687 150.938,-41.5 152.7792,-40.1334 154.7013,-38.8368 156.6847,-37.6072"/>
<polygon fill="#191970" stroke="#191970" points="158.6427,-40.5246 165.7134,-32.6344 155.2655,-34.3931 158.6427,-40.5246"/>
</g>
<!-- Node10 -->
<g id="node11" class="node">
<title>Node10</title>
<g id="a_node11"><a xlink:href="classVehicleControl_1_1IO_1_1Output.html#a522b8b858e6e80e33b5c82cbe6a40dac" target="_top" xlink:title="cancelToggle cancels toggling ">
<polygon fill="#ffffff" stroke="#000000" points="163.9955,-102.5 163.9955,-134.5 280.5855,-134.5 280.5855,-102.5 163.9955,-102.5"/>
<text text-anchor="start" x="171.9955" y="-121.5" font-family="Helvetica,sans-Serif" font-size="10.00" fill="#000000">VehicleControl::IO</text>
<text text-anchor="middle" x="222.2905" y="-109.5" font-family="Helvetica,sans-Serif" font-size="10.00" fill="#000000">::Output::cancelToggle</text>
</a>
</g>
</g>
<!-- Node0&#45;&gt;Node10 -->
<g id="edge11" class="edge">
<title>Node0&#45;&gt;Node10</title>
<path fill="none" stroke="#191970" d="M109.6196,-153.3633C125.8603,-148.338 143.9218,-142.7493 160.7422,-137.5446"/>
<polygon fill="#191970" stroke="#191970" points="161.9607,-140.8314 170.4792,-134.5317 159.8915,-134.1442 161.9607,-140.8314"/>
</g>
<!-- Node4 -->
<g id="node5" class="node">
<title>Node4</title>
<g id="a_node5"><a xlink:href="classVehicleControl_1_1IO_1_1IOBase.html#a09b22d396b771b2175df60b3a29b6c7f" target="_top" xlink:title="write write function that writes a single string value to a file in the path provided ...">
<polygon fill="#ffffff" stroke="#000000" points="465.566,-175.5 465.566,-207.5 562.689,-207.5 562.689,-175.5 465.566,-175.5"/>
<text text-anchor="start" x="473.566" y="-194.5" font-family="Helvetica,sans-Serif" font-size="10.00" fill="#000000">VehicleControl::IO</text>
<text text-anchor="middle" x="514.1275" y="-182.5" font-family="Helvetica,sans-Serif" font-size="10.00" fill="#000000">::IOBase::write</text>
</a>
</g>
</g>
<!-- Node3&#45;&gt;Node4 -->
<g id="edge4" class="edge">
<title>Node3&#45;&gt;Node4</title>
<path fill="none" stroke="#191970" d="M428.1704,-191.5C436.9192,-191.5 446.1265,-191.5 455.1329,-191.5"/>
<polygon fill="#191970" stroke="#191970" points="455.1811,-195.0001 465.1811,-191.5 455.181,-188.0001 455.1811,-195.0001"/>
</g>
<!-- Node6&#45;&gt;Node3 -->
<g id="edge9" class="edge">
<title>Node6&#45;&gt;Node3</title>
<path fill="none" stroke="#191970" d="M279.5295,-177.5047C292.9708,-179.3845 307.3153,-181.3905 320.823,-183.2795"/>
<polygon fill="#191970" stroke="#191970" points="320.572,-186.7784 330.9604,-184.6972 321.5416,-179.8459 320.572,-186.7784"/>
</g>
<!-- Node7 -->
<g id="node8" class="node">
<title>Node7</title>
<g id="a_node8"><a xlink:href="classVehicleControl_1_1IO_1_1IOBase.html#adcc9f65745e07f2e00425d4e0f5f8e54" target="_top" xlink:title="getValue getter ">
<polygon fill="#ffffff" stroke="#000000" points="329.643,-124.5 329.643,-156.5 429.566,-156.5 429.566,-124.5 329.643,-124.5"/>
<text text-anchor="start" x="337.643" y="-143.5" font-family="Helvetica,sans-Serif" font-size="10.00" fill="#000000">VehicleControl::IO</text>
<text text-anchor="middle" x="379.6045" y="-131.5" font-family="Helvetica,sans-Serif" font-size="10.00" fill="#000000">::IOBase::getValue</text>
</a>
</g>
</g>
<!-- Node6&#45;&gt;Node7 -->
<g id="edge7" class="edge">
<title>Node6&#45;&gt;Node7</title>
<path fill="none" stroke="#191970" d="M279.5295,-158.9483C292.5507,-156.5479 306.4196,-153.9912 319.5542,-151.5699"/>
<polygon fill="#191970" stroke="#191970" points="320.2292,-155.0046 329.429,-149.7496 318.9601,-148.1206 320.2292,-155.0046"/>
</g>
<!-- Node8 -->
<g id="node9" class="node">
<title>Node8</title>
<g id="a_node9"><a xlink:href="classVehicleControl_1_1IO_1_1IOBase.html#a1da47fda987bfedb4ec3c7fb446c09c7" target="_top" xlink:title="read function that reads the value of the given file filename ">
<polygon fill="#ffffff" stroke="#000000" points="465.566,-124.5 465.566,-156.5 562.689,-156.5 562.689,-124.5 465.566,-124.5"/>
<text text-anchor="start" x="473.566" y="-143.5" font-family="Helvetica,sans-Serif" font-size="10.00" fill="#000000">VehicleControl::IO</text>
<text text-anchor="middle" x="514.1275" y="-131.5" font-family="Helvetica,sans-Serif" font-size="10.00" fill="#000000">::IOBase::read</text>
</a>
</g>
</g>
<!-- Node7&#45;&gt;Node8 -->
<g id="edge8" class="edge">
<title>Node7&#45;&gt;Node8</title>
<path fill="none" stroke="#191970" d="M429.6959,-140.5C437.9807,-140.5 446.6379,-140.5 455.1175,-140.5"/>
<polygon fill="#191970" stroke="#191970" points="455.3358,-144.0001 465.3357,-140.5 455.3357,-137.0001 455.3358,-144.0001"/>
</g>
<!-- Node10&#45;&gt;Node3 -->
<g id="edge14" class="edge">
<title>Node10&#45;&gt;Node3</title>
<path fill="none" stroke="#191970" d="M270.4275,-134.5508C278.2966,-137.5974 286.2789,-140.9519 293.643,-144.5 310.5356,-152.6391 313.2439,-157.4075 329.643,-166.5 332.1878,-167.9109 334.8222,-169.3345 337.4904,-170.7484"/>
<polygon fill="#191970" stroke="#191970" points="336.1231,-173.9821 346.6107,-175.4857 339.3497,-167.7701 336.1231,-173.9821"/>
</g>
<!-- Node10&#45;&gt;Node7 -->
<g id="edge13" class="edge">
<title>Node10&#45;&gt;Node7</title>
<path fill="none" stroke="#191970" d="M280.8684,-126.692C293.4826,-128.456 306.8351,-130.3234 319.5062,-132.0954"/>
<polygon fill="#191970" stroke="#191970" points="319.1065,-135.5735 329.4949,-133.4923 320.0761,-128.6409 319.1065,-135.5735"/>
</g>
<!-- Node11 -->
<g id="node12" class="node">
<title>Node11</title>
<g id="a_node12"><a xlink:href="classVehicleControl_1_1IO_1_1IOBase.html#a8fa41e860d76951642da1d58b6756604" target="_top" xlink:title="path getter ">
<polygon fill="#ffffff" stroke="#000000" points="331.043,-73.5 331.043,-105.5 428.166,-105.5 428.166,-73.5 331.043,-73.5"/>
<text text-anchor="start" x="339.043" y="-92.5" font-family="Helvetica,sans-Serif" font-size="10.00" fill="#000000">VehicleControl::IO</text>
<text text-anchor="middle" x="379.6045" y="-80.5" font-family="Helvetica,sans-Serif" font-size="10.00" fill="#000000">::IOBase::path</text>
</a>
</g>
</g>
<!-- Node10&#45;&gt;Node11 -->
<g id="edge12" class="edge">
<title>Node10&#45;&gt;Node11</title>
<path fill="none" stroke="#191970" d="M280.8684,-107.7015C294.0252,-105.2761 307.9851,-102.7027 321.1373,-100.2781"/>
<polygon fill="#191970" stroke="#191970" points="321.811,-103.713 331.0108,-98.458 320.5419,-96.829 321.811,-103.713"/>
</g>
</g>
</svg>
