<?xml version="1.0" encoding="UTF-8" standalone="no"?>
<!DOCTYPE svg PUBLIC "-//W3C//DTD SVG 1.1//EN"
 "http://www.w3.org/Graphics/SVG/1.1/DTD/svg11.dtd">
<!-- Generated by graphviz version 2.40.1 (20161225.0304)
 -->
<!-- Title: LibBBB::IO::Input::Setup::Setup Pages: 1 -->
<svg width="697pt" height="502pt"
 viewBox="0.00 0.00 697.11 502.00" xmlns="http://www.w3.org/2000/svg" xmlns:xlink="http://www.w3.org/1999/xlink">
<g id="graph0" class="graph" transform="scale(1 1) rotate(0) translate(4 498)">
<title>LibBBB::IO::Input::Setup::Setup</title>
<polygon fill="#ffffff" stroke="transparent" points="-4,4 -4,-498 693.109,-498 693.109,4 -4,4"/>
<!-- Node0 -->
<g id="node1" class="node">
<title>Node0</title>
<polygon fill="#bfbfbf" stroke="#000000" points="0,-218.5 0,-250.5 98.811,-250.5 98.811,-218.5 0,-218.5"/>
<text text-anchor="start" x="8" y="-237.5" font-family="Helvetica,sans-Serif" font-size="10.00" fill="#000000">LibBBB::IO::Input::</text>
<text text-anchor="middle" x="49.4055" y="-225.5" font-family="Helvetica,sans-Serif" font-size="10.00" fill="#000000">Setup::Setup</text>
</g>
<!-- Node1 -->
<g id="node2" class="node">
<title>Node1</title>
<g id="a_node2"><a xlink:href="classLibBBB_1_1IO_1_1Input.html#a4e59f6e2c64f7a85adff569daf35b3d3" target="_top" xlink:title="Input constructs an input based on the given setup. The constructor will automatically export the pin...">
<polygon fill="#ffffff" stroke="#000000" points="137.023,-410.5 137.023,-442.5 235.834,-442.5 235.834,-410.5 137.023,-410.5"/>
<text text-anchor="start" x="145.023" y="-429.5" font-family="Helvetica,sans-Serif" font-size="10.00" fill="#000000">LibBBB::IO::Input::</text>
<text text-anchor="middle" x="186.4285" y="-417.5" font-family="Helvetica,sans-Serif" font-size="10.00" fill="#000000">Input</text>
</a>
</g>
</g>
<!-- Node0&#45;&gt;Node1 -->
<g id="edge1" class="edge">
<title>Node0&#45;&gt;Node1</title>
<path fill="none" stroke="#191970" d="M54.7425,-250.9016C65.5876,-282.1819 92.7924,-351.1881 134.811,-395.5 137.9297,-398.7889 141.4727,-401.853 145.2069,-404.6742"/>
<polygon fill="#191970" stroke="#191970" points="143.3759,-407.6629 153.5963,-410.4548 147.3477,-401.8988 143.3759,-407.6629"/>
</g>
<!-- Node2 -->
<g id="node3" class="node">
<title>Node2</title>
<g id="a_node3"><a xlink:href="classLibBBB_1_1IO_1_1Input.html#a9144216b06e8bff7a46a6c9aa246ad5e" target="_top" xlink:title="setEdgeType sets the desired edge ">
<polygon fill="#ffffff" stroke="#000000" points="285.9805,-461.5 285.9805,-493.5 384.7915,-493.5 384.7915,-461.5 285.9805,-461.5"/>
<text text-anchor="start" x="293.9805" y="-480.5" font-family="Helvetica,sans-Serif" font-size="10.00" fill="#000000">LibBBB::IO::Input::</text>
<text text-anchor="middle" x="335.386" y="-468.5" font-family="Helvetica,sans-Serif" font-size="10.00" fill="#000000">setEdgeType</text>
</a>
</g>
</g>
<!-- Node0&#45;&gt;Node2 -->
<g id="edge11" class="edge">
<title>Node0&#45;&gt;Node2</title>
<path fill="none" stroke="#191970" d="M50.3652,-250.6184C53.7565,-291.8005 68.8577,-401.2388 134.811,-452.5 174.3127,-483.2021 232.0255,-487.4611 275.4136,-485.2078"/>
<polygon fill="#191970" stroke="#191970" points="275.8031,-488.69 285.5558,-484.5505 275.3504,-481.7046 275.8031,-488.69"/>
</g>
<!-- Node5 -->
<g id="node6" class="node">
<title>Node5</title>
<g id="a_node6"><a xlink:href="classLibBBB_1_1IO_1_1Input.html#a3a448ebc4e13f3813b6b80566af3fe79" target="_top" xlink:title="waitForEdgeThreaded does the same thing as waitForEdge(), but does so in a threaded manner...">
<polygon fill="#ffffff" stroke="#000000" points="277.9305,-359.5 277.9305,-391.5 392.8415,-391.5 392.8415,-359.5 277.9305,-359.5"/>
<text text-anchor="start" x="285.9305" y="-378.5" font-family="Helvetica,sans-Serif" font-size="10.00" fill="#000000">LibBBB::IO::Input::</text>
<text text-anchor="middle" x="335.386" y="-366.5" font-family="Helvetica,sans-Serif" font-size="10.00" fill="#000000">waitForEdgeThreaded</text>
</a>
</g>
</g>
<!-- Node0&#45;&gt;Node5 -->
<g id="edge21" class="edge">
<title>Node0&#45;&gt;Node5</title>
<path fill="none" stroke="#191970" d="M54.7431,-250.5763C65.0999,-278.9069 90.8524,-337.1226 134.811,-362.5 174.6503,-385.4994 226.6468,-388.2588 267.7151,-385.5247"/>
<polygon fill="#191970" stroke="#191970" points="268.2132,-388.9964 277.9068,-384.7202 267.6623,-382.0181 268.2132,-388.9964"/>
</g>
<!-- Node7 -->
<g id="node8" class="node">
<title>Node7</title>
<g id="a_node8"><a xlink:href="classLibBBB_1_1IO_1_1Input.html#ab70913a918406a621c8a4d1778917f03" target="_top" xlink:title="~Input destroys the input. This automatically unexports the pin. ">
<polygon fill="#ffffff" stroke="#000000" points="137.023,-320.5 137.023,-352.5 235.834,-352.5 235.834,-320.5 137.023,-320.5"/>
<text text-anchor="start" x="145.023" y="-339.5" font-family="Helvetica,sans-Serif" font-size="10.00" fill="#000000">LibBBB::IO::Input::</text>
<text text-anchor="middle" x="186.4285" y="-327.5" font-family="Helvetica,sans-Serif" font-size="10.00" fill="#000000">~Input</text>
</a>
</g>
</g>
<!-- Node0&#45;&gt;Node7 -->
<g id="edge8" class="edge">
<title>Node0&#45;&gt;Node7</title>
<path fill="none" stroke="#191970" d="M64.6413,-250.7173C80.906,-267.4047 107.9798,-293.4431 134.811,-311.5 136.7239,-312.7873 138.713,-314.0463 140.749,-315.2715"/>
<polygon fill="#191970" stroke="#191970" points="139.4525,-318.558 149.8841,-320.4106 142.8846,-312.4571 139.4525,-318.558"/>
</g>
<!-- Node8 -->
<g id="node9" class="node">
<title>Node8</title>
<g id="a_node9"><a xlink:href="classLibBBB_1_1IO_1_1Input.html#a042ab20fe19f0ca17d09bf22bb16b2bf" target="_top" xlink:title="setDebounceTime sets the debounce time of the input. This ensures the input is in the proper state fo...">
<polygon fill="#ffffff" stroke="#000000" points="137.023,-269.5 137.023,-301.5 235.834,-301.5 235.834,-269.5 137.023,-269.5"/>
<text text-anchor="start" x="145.023" y="-288.5" font-family="Helvetica,sans-Serif" font-size="10.00" fill="#000000">LibBBB::IO::Input::</text>
<text text-anchor="middle" x="186.4285" y="-276.5" font-family="Helvetica,sans-Serif" font-size="10.00" fill="#000000">setDebounceTime</text>
</a>
</g>
</g>
<!-- Node0&#45;&gt;Node8 -->
<g id="edge9" class="edge">
<title>Node0&#45;&gt;Node8</title>
<path fill="none" stroke="#191970" d="M92.7604,-250.6367C105.7573,-255.4742 120.1568,-260.8337 133.6884,-265.8701"/>
<polygon fill="#191970" stroke="#191970" points="132.7628,-269.2601 143.3556,-269.4683 135.2046,-262.6998 132.7628,-269.2601"/>
</g>
<!-- Node9 -->
<g id="node10" class="node">
<title>Node9</title>
<g id="a_node10"><a xlink:href="classLibBBB_1_1IO_1_1Input.html#a0acdacb6841ff6144d14ee861081033e" target="_top" xlink:title="getDebounceTime getter ">
<polygon fill="#ffffff" stroke="#000000" points="137.023,-218.5 137.023,-250.5 235.834,-250.5 235.834,-218.5 137.023,-218.5"/>
<text text-anchor="start" x="145.023" y="-237.5" font-family="Helvetica,sans-Serif" font-size="10.00" fill="#000000">LibBBB::IO::Input::</text>
<text text-anchor="middle" x="186.4285" y="-225.5" font-family="Helvetica,sans-Serif" font-size="10.00" fill="#000000">getDebounceTime</text>
</a>
</g>
</g>
<!-- Node0&#45;&gt;Node9 -->
<g id="edge10" class="edge">
<title>Node0&#45;&gt;Node9</title>
<path fill="none" stroke="#191970" d="M98.8739,-234.5C107.7854,-234.5 117.1637,-234.5 126.3376,-234.5"/>
<polygon fill="#191970" stroke="#191970" points="126.5725,-238.0001 136.5724,-234.5 126.5724,-231.0001 126.5725,-238.0001"/>
</g>
<!-- Node10 -->
<g id="node11" class="node">
<title>Node10</title>
<g id="a_node11"><a xlink:href="classLibBBB_1_1IO_1_1Input.html#ad13e7774b58c80b4fc4fd79e1794b182" target="_top" xlink:title="getEdgeType getter ">
<polygon fill="#ffffff" stroke="#000000" points="441.3305,-160.5 441.3305,-192.5 540.1415,-192.5 540.1415,-160.5 441.3305,-160.5"/>
<text text-anchor="start" x="449.3305" y="-179.5" font-family="Helvetica,sans-Serif" font-size="10.00" fill="#000000">LibBBB::IO::Input::</text>
<text text-anchor="middle" x="490.736" y="-167.5" font-family="Helvetica,sans-Serif" font-size="10.00" fill="#000000">getEdgeType</text>
</a>
</g>
</g>
<!-- Node0&#45;&gt;Node10 -->
<g id="edge12" class="edge">
<title>Node0&#45;&gt;Node10</title>
<path fill="none" stroke="#191970" d="M98.2379,-218.4547C110.0997,-215.0451 122.8223,-211.7884 134.811,-209.5 237.7927,-189.8431 359.8603,-181.7588 430.9743,-178.5336"/>
<polygon fill="#191970" stroke="#191970" points="431.2506,-182.025 441.0884,-178.0923 430.9453,-175.0317 431.2506,-182.025"/>
</g>
<!-- Node12 -->
<g id="node13" class="node">
<title>Node12</title>
<g id="a_node13"><a xlink:href="classLibBBB_1_1IO_1_1Input.html#ab581bd59f9ca5bfb2e45ebdc81b5e3cc" target="_top" xlink:title="setEdgeCallback setter ">
<polygon fill="#ffffff" stroke="#000000" points="137.023,-128.5 137.023,-160.5 235.834,-160.5 235.834,-128.5 137.023,-128.5"/>
<text text-anchor="start" x="145.023" y="-147.5" font-family="Helvetica,sans-Serif" font-size="10.00" fill="#000000">LibBBB::IO::Input::</text>
<text text-anchor="middle" x="186.4285" y="-135.5" font-family="Helvetica,sans-Serif" font-size="10.00" fill="#000000">setEdgeCallback</text>
</a>
</g>
</g>
<!-- Node0&#45;&gt;Node12 -->
<g id="edge14" class="edge">
<title>Node0&#45;&gt;Node12</title>
<path fill="none" stroke="#191970" d="M71.9763,-218.3246C89.0415,-206.238 113.1522,-189.4649 134.811,-175.5 139.7638,-172.3066 145.0384,-169.0163 150.2529,-165.8267"/>
<polygon fill="#191970" stroke="#191970" points="152.1627,-168.762 158.9043,-160.5887 148.5373,-162.7739 152.1627,-168.762"/>
</g>
<!-- Node13 -->
<g id="node14" class="node">
<title>Node13</title>
<g id="a_node14"><a xlink:href="namespaceVehicleControl.html#af89cecf99aa4e7787af7433d8f3b6970" target="_top" xlink:title="VehicleControl::callback">
<polygon fill="#ffffff" stroke="#000000" points="274.046,-115.5 274.046,-135.5 396.726,-135.5 396.726,-115.5 274.046,-115.5"/>
<text text-anchor="middle" x="335.386" y="-122.5" font-family="Helvetica,sans-Serif" font-size="10.00" fill="#000000">VehicleControl::callback</text>
</a>
</g>
</g>
<!-- Node0&#45;&gt;Node13 -->
<g id="edge16" class="edge">
<title>Node0&#45;&gt;Node13</title>
<path fill="none" stroke="#191970" d="M55.6197,-218.4943C66.844,-192.1263 93.265,-140.3956 134.811,-119.5 184.6575,-94.4297 250.64,-103.0771 293.0581,-113.0655"/>
<polygon fill="#191970" stroke="#191970" points="292.2367,-116.4678 302.7851,-115.477 293.9212,-109.6735 292.2367,-116.4678"/>
</g>
<!-- Node14 -->
<g id="node15" class="node">
<title>Node14</title>
<g id="a_node15"><a xlink:href="classLibBBB_1_1IO_1_1Input.html#a0934c43a3f6be5e62dfc733552e5074d" target="_top" xlink:title="waitForEdge method is a blocking wait for edge. Therefore, the callee will halt its thread until this...">
<polygon fill="#ffffff" stroke="#000000" points="285.9805,-45.5 285.9805,-77.5 384.7915,-77.5 384.7915,-45.5 285.9805,-45.5"/>
<text text-anchor="start" x="293.9805" y="-64.5" font-family="Helvetica,sans-Serif" font-size="10.00" fill="#000000">LibBBB::IO::Input::</text>
<text text-anchor="middle" x="335.386" y="-52.5" font-family="Helvetica,sans-Serif" font-size="10.00" fill="#000000">waitForEdge</text>
</a>
</g>
</g>
<!-- Node0&#45;&gt;Node14 -->
<g id="edge17" class="edge">
<title>Node0&#45;&gt;Node14</title>
<path fill="none" stroke="#191970" d="M54.6052,-218.4326C64.8934,-189.3902 90.7473,-128.4029 134.811,-98.5 176.225,-70.3953 233.0522,-62.0462 275.6473,-60.205"/>
<polygon fill="#191970" stroke="#191970" points="275.9948,-63.6957 285.8767,-59.8748 275.769,-56.6993 275.9948,-63.6957"/>
</g>
<!-- Node17 -->
<g id="node18" class="node">
<title>Node17</title>
<g id="a_node18"><a xlink:href="classLibBBB_1_1IO_1_1Input.html#a463bb83321475919ec672e9ac75b31b1" target="_top" xlink:title="cancelWaitForEdge method cancels waiting for the edge. ">
<polygon fill="#ffffff" stroke="#000000" points="134.811,-.5 134.811,-32.5 238.046,-32.5 238.046,-.5 134.811,-.5"/>
<text text-anchor="start" x="142.811" y="-19.5" font-family="Helvetica,sans-Serif" font-size="10.00" fill="#000000">LibBBB::IO::Input::</text>
<text text-anchor="middle" x="186.4285" y="-7.5" font-family="Helvetica,sans-Serif" font-size="10.00" fill="#000000">cancelWaitForEdge</text>
</a>
</g>
</g>
<!-- Node0&#45;&gt;Node17 -->
<g id="edge22" class="edge">
<title>Node0&#45;&gt;Node17</title>
<path fill="none" stroke="#191970" d="M53.2519,-218.4318C62.2583,-183.6629 87.6084,-100.3313 134.811,-47.5 137.6709,-44.2991 140.9413,-41.3275 144.4171,-38.5939"/>
<polygon fill="#191970" stroke="#191970" points="146.6672,-41.2891 152.8031,-32.6519 142.6202,-35.5776 146.6672,-41.2891"/>
</g>
<!-- Node1&#45;&gt;Node2 -->
<g id="edge2" class="edge">
<title>Node1&#45;&gt;Node2</title>
<path fill="none" stroke="#191970" d="M233.5596,-442.6367C247.9628,-447.5681 263.9507,-453.042 278.9081,-458.1631"/>
<polygon fill="#191970" stroke="#191970" points="277.9669,-461.5403 288.5615,-461.4683 280.2344,-454.9177 277.9669,-461.5403"/>
</g>
<!-- Node4 -->
<g id="node5" class="node">
<title>Node4</title>
<g id="a_node5"><a xlink:href="classLibBBB_1_1IO_1_1IOBase.html#aa98e79cb377720c663e79411a32a5678" target="_top" xlink:title="setActiveHighOrLow setter ">
<polygon fill="#ffffff" stroke="#000000" points="279.3245,-410.5 279.3245,-442.5 391.4475,-442.5 391.4475,-410.5 279.3245,-410.5"/>
<text text-anchor="start" x="287.3245" y="-429.5" font-family="Helvetica,sans-Serif" font-size="10.00" fill="#000000">LibBBB::IO::IOBase</text>
<text text-anchor="middle" x="335.386" y="-417.5" font-family="Helvetica,sans-Serif" font-size="10.00" fill="#000000">::setActiveHighOrLow</text>
</a>
</g>
</g>
<!-- Node1&#45;&gt;Node4 -->
<g id="edge4" class="edge">
<title>Node1&#45;&gt;Node4</title>
<path fill="none" stroke="#191970" d="M236.0292,-426.5C246.6559,-426.5 258.0459,-426.5 269.1858,-426.5"/>
<polygon fill="#191970" stroke="#191970" points="269.317,-430.0001 279.317,-426.5 269.3169,-423.0001 269.317,-430.0001"/>
</g>
<!-- Node1&#45;&gt;Node5 -->
<g id="edge6" class="edge">
<title>Node1&#45;&gt;Node5</title>
<path fill="none" stroke="#191970" d="M233.5596,-410.3633C247.9628,-405.4319 263.9507,-399.958 278.9081,-394.8369"/>
<polygon fill="#191970" stroke="#191970" points="280.2344,-398.0823 288.5615,-391.5317 277.9669,-391.4597 280.2344,-398.0823"/>
</g>
<!-- Node3 -->
<g id="node4" class="node">
<title>Node3</title>
<g id="a_node4"><a xlink:href="classLibBBB_1_1IO_1_1IOBase.html#a8b8069af640a6ca1d8ad885015d2e2e5" target="_top" xlink:title="write write function that writes a single string value to a file in the path provided ...">
<polygon fill="#ffffff" stroke="#000000" points="438.5545,-435.5 438.5545,-467.5 542.9175,-467.5 542.9175,-435.5 438.5545,-435.5"/>
<text text-anchor="start" x="446.5545" y="-454.5" font-family="Helvetica,sans-Serif" font-size="10.00" fill="#000000">LibBBB::IO::IOBase</text>
<text text-anchor="middle" x="490.736" y="-442.5" font-family="Helvetica,sans-Serif" font-size="10.00" fill="#000000">::write</text>
</a>
</g>
</g>
<!-- Node2&#45;&gt;Node3 -->
<g id="edge3" class="edge">
<title>Node2&#45;&gt;Node3</title>
<path fill="none" stroke="#191970" d="M384.9668,-469.202C398.8192,-466.8836 414.0493,-464.3346 428.5316,-461.9108"/>
<polygon fill="#191970" stroke="#191970" points="429.1272,-465.3599 438.4123,-460.2571 427.9717,-458.4559 429.1272,-465.3599"/>
</g>
<!-- Node4&#45;&gt;Node3 -->
<g id="edge5" class="edge">
<title>Node4&#45;&gt;Node3</title>
<path fill="none" stroke="#191970" d="M391.4709,-435.5256C403.4211,-437.4487 416.1119,-439.491 428.2836,-441.4497"/>
<polygon fill="#191970" stroke="#191970" points="427.9291,-444.9376 438.3582,-443.071 429.0413,-438.0265 427.9291,-444.9376"/>
</g>
<!-- Node6 -->
<g id="node7" class="node">
<title>Node6</title>
<g id="a_node7"><a xlink:href="classLibBBB_1_1ThreadHelper.html#a6999e18135496ef252b1c43c374c20f9" target="_top" xlink:title="startDetachedThread ">
<polygon fill="#ffffff" stroke="#000000" points="432.726,-359.5 432.726,-391.5 548.746,-391.5 548.746,-359.5 432.726,-359.5"/>
<text text-anchor="start" x="440.726" y="-378.5" font-family="Helvetica,sans-Serif" font-size="10.00" fill="#000000">LibBBB::ThreadHelper</text>
<text text-anchor="middle" x="490.736" y="-366.5" font-family="Helvetica,sans-Serif" font-size="10.00" fill="#000000">::startDetachedThread</text>
</a>
</g>
</g>
<!-- Node5&#45;&gt;Node6 -->
<g id="edge7" class="edge">
<title>Node5&#45;&gt;Node6</title>
<path fill="none" stroke="#191970" d="M393.2326,-375.5C402.7724,-375.5 412.7399,-375.5 422.5052,-375.5"/>
<polygon fill="#191970" stroke="#191970" points="422.5822,-379.0001 432.5821,-375.5 422.5821,-372.0001 422.5822,-379.0001"/>
</g>
<!-- Node11 -->
<g id="node12" class="node">
<title>Node11</title>
<g id="a_node12"><a xlink:href="classLibBBB_1_1IO_1_1IOBase.html#aa317b2515288dbe3905b675a9033e2fa" target="_top" xlink:title="read function that reads the value of the given file filename ">
<polygon fill="#ffffff" stroke="#000000" points="584.746,-109.5 584.746,-141.5 689.109,-141.5 689.109,-109.5 584.746,-109.5"/>
<text text-anchor="start" x="592.746" y="-128.5" font-family="Helvetica,sans-Serif" font-size="10.00" fill="#000000">LibBBB::IO::IOBase</text>
<text text-anchor="middle" x="636.9275" y="-116.5" font-family="Helvetica,sans-Serif" font-size="10.00" fill="#000000">::read</text>
</a>
</g>
</g>
<!-- Node10&#45;&gt;Node11 -->
<g id="edge13" class="edge">
<title>Node10&#45;&gt;Node11</title>
<path fill="none" stroke="#191970" d="M536.9919,-160.3633C551.1277,-155.4319 566.8186,-149.958 581.4984,-144.8369"/>
<polygon fill="#191970" stroke="#191970" points="582.6834,-148.1304 590.9725,-141.5317 580.3777,-141.521 582.6834,-148.1304"/>
</g>
<!-- Node12&#45;&gt;Node13 -->
<g id="edge15" class="edge">
<title>Node12&#45;&gt;Node13</title>
<path fill="none" stroke="#191970" d="M236.0292,-138.1733C244.9169,-137.0396 254.3386,-135.8378 263.7014,-134.6436"/>
<polygon fill="#191970" stroke="#191970" points="264.3331,-138.0915 273.8098,-133.3542 263.4473,-131.1477 264.3331,-138.0915"/>
</g>
<!-- Node15 -->
<g id="node16" class="node">
<title>Node15</title>
<g id="a_node16"><a xlink:href="classLibBBB_1_1IO_1_1IOBase.html#a71d8f1f57eb6de8ed0187eaad8902b1c" target="_top" xlink:title="path getter ">
<polygon fill="#ffffff" stroke="#000000" points="438.5545,-96.5 438.5545,-128.5 542.9175,-128.5 542.9175,-96.5 438.5545,-96.5"/>
<text text-anchor="start" x="446.5545" y="-115.5" font-family="Helvetica,sans-Serif" font-size="10.00" fill="#000000">LibBBB::IO::IOBase</text>
<text text-anchor="middle" x="490.736" y="-103.5" font-family="Helvetica,sans-Serif" font-size="10.00" fill="#000000">::path</text>
</a>
</g>
</g>
<!-- Node14&#45;&gt;Node15 -->
<g id="edge18" class="edge">
<title>Node14&#45;&gt;Node15</title>
<path fill="none" stroke="#191970" d="M384.5397,-77.6367C399.7041,-82.6151 416.5528,-88.1463 432.2798,-93.3094"/>
<polygon fill="#191970" stroke="#191970" points="431.3092,-96.6744 441.902,-96.4683 433.4927,-90.0237 431.3092,-96.6744"/>
</g>
<!-- Node16 -->
<g id="node17" class="node">
<title>Node16</title>
<g id="a_node17"><a xlink:href="classLibBBB_1_1IO_1_1IOBase.html#a8ae8a79c81d61625f5b864abebe944a2" target="_top" xlink:title="getValue getter ">
<polygon fill="#ffffff" stroke="#000000" points="438.5545,-45.5 438.5545,-77.5 542.9175,-77.5 542.9175,-45.5 438.5545,-45.5"/>
<text text-anchor="start" x="446.5545" y="-64.5" font-family="Helvetica,sans-Serif" font-size="10.00" fill="#000000">LibBBB::IO::IOBase</text>
<text text-anchor="middle" x="490.736" y="-52.5" font-family="Helvetica,sans-Serif" font-size="10.00" fill="#000000">::getValue</text>
</a>
</g>
</g>
<!-- Node14&#45;&gt;Node16 -->
<g id="edge19" class="edge">
<title>Node14&#45;&gt;Node16</title>
<path fill="none" stroke="#191970" d="M384.9668,-61.5C398.686,-61.5 413.7566,-61.5 428.1137,-61.5"/>
<polygon fill="#191970" stroke="#191970" points="428.4123,-65.0001 438.4123,-61.5 428.4122,-58.0001 428.4123,-65.0001"/>
</g>
<!-- Node16&#45;&gt;Node11 -->
<g id="edge20" class="edge">
<title>Node16&#45;&gt;Node11</title>
<path fill="none" stroke="#191970" d="M528.2051,-77.5858C535.0439,-80.5394 542.1127,-83.6039 548.746,-86.5 562.7066,-92.5952 577.8845,-99.2851 591.6503,-105.3767"/>
<polygon fill="#191970" stroke="#191970" points="590.3618,-108.6339 600.9225,-109.4837 593.1967,-102.2336 590.3618,-108.6339"/>
</g>
<!-- Node17&#45;&gt;Node14 -->
<g id="edge23" class="edge">
<title>Node17&#45;&gt;Node14</title>
<path fill="none" stroke="#191970" d="M238.1086,-32.1125C250.3084,-35.7981 263.4115,-39.7565 275.9245,-43.5367"/>
<polygon fill="#191970" stroke="#191970" points="275.2198,-46.98 285.8047,-46.5215 277.2442,-40.2791 275.2198,-46.98"/>
</g>
</g>
</svg>
