<?xml version="1.0" encoding="UTF-8" standalone="no"?>
<!DOCTYPE svg PUBLIC "-//W3C//DTD SVG 1.1//EN"
 "http://www.w3.org/Graphics/SVG/1.1/DTD/svg11.dtd">
<!-- Generated by graphviz version 2.40.1 (20161225.0304)
 -->
<!-- Title: Core::IO::UserLED::Setup::Setup Pages: 1 -->
<svg width="594pt" height="227pt"
 viewBox="0.00 0.00 593.95 227.00" xmlns="http://www.w3.org/2000/svg" xmlns:xlink="http://www.w3.org/1999/xlink">
<g id="graph0" class="graph" transform="scale(1 1) rotate(0) translate(4 223)">
<title>Core::IO::UserLED::Setup::Setup</title>
<polygon fill="#ffffff" stroke="transparent" points="-4,4 -4,-223 589.947,-223 589.947,4 -4,4"/>
<!-- Node0 -->
<g id="node1" class="node">
<title>Node0</title>
<polygon fill="#bfbfbf" stroke="#000000" points="0,-90.5 0,-122.5 105.452,-122.5 105.452,-90.5 0,-90.5"/>
<text text-anchor="start" x="8" y="-109.5" font-family="Helvetica,sans-Serif" font-size="10.00" fill="#000000">Core::IO::UserLED::</text>
<text text-anchor="middle" x="52.726" y="-97.5" font-family="Helvetica,sans-Serif" font-size="10.00" fill="#000000">Setup::Setup</text>
</g>
<!-- Node1 -->
<g id="node2" class="node">
<title>Node1</title>
<g id="a_node2"><a xlink:href="classCore_1_1IO_1_1UserLED.html#a05d1f33cbf17cdb0974a06a03f5fbd01" target="_top" xlink:title="UserLED constructs an instance of a user led. ">
<polygon fill="#ffffff" stroke="#000000" points="141.452,-186.5 141.452,-218.5 246.904,-218.5 246.904,-186.5 141.452,-186.5"/>
<text text-anchor="start" x="149.452" y="-205.5" font-family="Helvetica,sans-Serif" font-size="10.00" fill="#000000">Core::IO::UserLED::</text>
<text text-anchor="middle" x="194.178" y="-193.5" font-family="Helvetica,sans-Serif" font-size="10.00" fill="#000000">UserLED</text>
</a>
</g>
</g>
<!-- Node0&#45;&gt;Node1 -->
<g id="edge1" class="edge">
<title>Node0&#45;&gt;Node1</title>
<path fill="none" stroke="#191970" d="M70.4878,-122.7743C87.7687,-138.0947 115.1897,-161.0782 141.452,-177.5 143.6316,-178.8629 145.8972,-180.2013 148.2102,-181.5065"/>
<polygon fill="#191970" stroke="#191970" points="146.8168,-184.7304 157.2858,-186.359 150.1174,-178.5573 146.8168,-184.7304"/>
</g>
<!-- Node3 -->
<g id="node4" class="node">
<title>Node3</title>
<g id="a_node4"><a xlink:href="classCore_1_1IO_1_1UserLED.html#a46e546826d37e61a9f36f29efe92a48c" target="_top" xlink:title="~UserLED destroys the LED. ">
<polygon fill="#ffffff" stroke="#000000" points="141.452,-135.5 141.452,-167.5 246.904,-167.5 246.904,-135.5 141.452,-135.5"/>
<text text-anchor="start" x="149.452" y="-154.5" font-family="Helvetica,sans-Serif" font-size="10.00" fill="#000000">Core::IO::UserLED::</text>
<text text-anchor="middle" x="194.178" y="-142.5" font-family="Helvetica,sans-Serif" font-size="10.00" fill="#000000">~UserLED</text>
</a>
</g>
</g>
<!-- Node0&#45;&gt;Node3 -->
<g id="edge3" class="edge">
<title>Node0&#45;&gt;Node3</title>
<path fill="none" stroke="#191970" d="M103.3939,-122.6189C113.3663,-125.7914 123.9187,-129.1485 134.164,-132.4078"/>
<polygon fill="#191970" stroke="#191970" points="133.2734,-135.7973 143.8639,-135.4936 135.3955,-129.1267 133.2734,-135.7973"/>
</g>
<!-- Node4 -->
<g id="node5" class="node">
<title>Node4</title>
<g id="a_node5"><a xlink:href="classCore_1_1IO_1_1UserLED.html#ac39c3ed451b83046ff37ecb4ccff142c" target="_top" xlink:title="setState method sets the state of the LED ">
<polygon fill="#ffffff" stroke="#000000" points="291.242,-48.5 291.242,-80.5 396.694,-80.5 396.694,-48.5 291.242,-48.5"/>
<text text-anchor="start" x="299.242" y="-67.5" font-family="Helvetica,sans-Serif" font-size="10.00" fill="#000000">Core::IO::UserLED::</text>
<text text-anchor="middle" x="343.968" y="-55.5" font-family="Helvetica,sans-Serif" font-size="10.00" fill="#000000">setState</text>
</a>
</g>
</g>
<!-- Node0&#45;&gt;Node4 -->
<g id="edge4" class="edge">
<title>Node0&#45;&gt;Node4</title>
<path fill="none" stroke="#191970" d="M105.7245,-103.2553C144.9041,-100.3864 199.4592,-95.4052 246.904,-87.5 258.0684,-85.6398 269.8585,-83.2304 281.2273,-80.6734"/>
<polygon fill="#191970" stroke="#191970" points="282.1266,-84.0579 291.0832,-78.3984 280.5522,-77.2372 282.1266,-84.0579"/>
</g>
<!-- Node5 -->
<g id="node6" class="node">
<title>Node5</title>
<g id="a_node6"><a xlink:href="classCore_1_1IO_1_1UserLED.html#a5d7887f070c9ce082f8be1d3aae448d2" target="_top" xlink:title="state getter ">
<polygon fill="#ffffff" stroke="#000000" points="460.7635,-.5 460.7635,-32.5 566.2155,-32.5 566.2155,-.5 460.7635,-.5"/>
<text text-anchor="start" x="468.7635" y="-19.5" font-family="Helvetica,sans-Serif" font-size="10.00" fill="#000000">Core::IO::UserLED::</text>
<text text-anchor="middle" x="513.4895" y="-7.5" font-family="Helvetica,sans-Serif" font-size="10.00" fill="#000000">state</text>
</a>
</g>
</g>
<!-- Node0&#45;&gt;Node5 -->
<g id="edge7" class="edge">
<title>Node0&#45;&gt;Node5</title>
<path fill="none" stroke="#191970" d="M67.2024,-90.278C83.4004,-73.3934 111.3464,-47.8605 141.452,-36.5 244.1899,2.2688 374.2753,-1.5858 450.2573,-8.5819"/>
<polygon fill="#191970" stroke="#191970" points="450.32,-12.1043 460.6111,-9.5858 450.9956,-5.137 450.32,-12.1043"/>
</g>
<!-- Node7 -->
<g id="node8" class="node">
<title>Node7</title>
<g id="a_node8"><a xlink:href="classCore_1_1IO_1_1UserLED.html#a4e161b02396d015ce4fd5434853e44bc" target="_top" xlink:title="changeBlinkTime method changes the time of the blink ">
<polygon fill="#ffffff" stroke="#000000" points="141.452,-45.5 141.452,-77.5 246.904,-77.5 246.904,-45.5 141.452,-45.5"/>
<text text-anchor="start" x="149.452" y="-64.5" font-family="Helvetica,sans-Serif" font-size="10.00" fill="#000000">Core::IO::UserLED::</text>
<text text-anchor="middle" x="194.178" y="-52.5" font-family="Helvetica,sans-Serif" font-size="10.00" fill="#000000">changeBlinkTime</text>
</a>
</g>
</g>
<!-- Node0&#45;&gt;Node7 -->
<g id="edge8" class="edge">
<title>Node0&#45;&gt;Node7</title>
<path fill="none" stroke="#191970" d="M103.3939,-90.3811C113.3663,-87.2086 123.9187,-83.8515 134.164,-80.5922"/>
<polygon fill="#191970" stroke="#191970" points="135.3955,-83.8733 143.8639,-77.5064 133.2734,-77.2027 135.3955,-83.8733"/>
</g>
<!-- Node2 -->
<g id="node3" class="node">
<title>Node2</title>
<g id="a_node3"><a xlink:href="namespaceCore_1_1IO.html#a703be42bd050b4027da2505a00b00a6d" target="_top" xlink:title="Core::IO::enumToString">
<polygon fill="#ffffff" stroke="#000000" points="282.904,-192.5 282.904,-212.5 405.032,-212.5 405.032,-192.5 282.904,-192.5"/>
<text text-anchor="middle" x="343.968" y="-199.5" font-family="Helvetica,sans-Serif" font-size="10.00" fill="#000000">Core::IO::enumToString</text>
</a>
</g>
</g>
<!-- Node1&#45;&gt;Node2 -->
<g id="edge2" class="edge">
<title>Node1&#45;&gt;Node2</title>
<path fill="none" stroke="#191970" d="M246.9884,-202.5C255.2823,-202.5 263.9731,-202.5 272.6013,-202.5"/>
<polygon fill="#191970" stroke="#191970" points="272.6739,-206.0001 282.6738,-202.5 272.6738,-199.0001 272.6739,-206.0001"/>
</g>
<!-- Node4&#45;&gt;Node5 -->
<g id="edge5" class="edge">
<title>Node4&#45;&gt;Node5</title>
<path fill="none" stroke="#191970" d="M397.1405,-49.4442C414.1816,-44.619 433.2104,-39.231 450.8622,-34.2329"/>
<polygon fill="#191970" stroke="#191970" points="451.8375,-37.5945 460.5056,-31.5024 449.9303,-30.8592 451.8375,-37.5945"/>
</g>
<!-- Node6 -->
<g id="node7" class="node">
<title>Node6</title>
<g id="a_node7"><a xlink:href="classThreadHelper.html#a4426e115e7858a4b6f6eedbc77302756" target="_top" xlink:title="startDetachedThread ">
<polygon fill="#ffffff" stroke="#000000" points="441.032,-51.5 441.032,-83.5 585.947,-83.5 585.947,-51.5 441.032,-51.5"/>
<text text-anchor="start" x="449.032" y="-70.5" font-family="Helvetica,sans-Serif" font-size="10.00" fill="#000000">ThreadHelper::startDetached</text>
<text text-anchor="middle" x="513.4895" y="-58.5" font-family="Helvetica,sans-Serif" font-size="10.00" fill="#000000">Thread</text>
</a>
</g>
</g>
<!-- Node4&#45;&gt;Node6 -->
<g id="edge6" class="edge">
<title>Node4&#45;&gt;Node6</title>
<path fill="none" stroke="#191970" d="M397.1405,-65.441C407.8799,-65.631 419.4088,-65.8351 430.885,-66.0382"/>
<polygon fill="#191970" stroke="#191970" points="430.8749,-69.5384 440.9353,-66.216 430.9989,-62.5395 430.8749,-69.5384"/>
</g>
<!-- Node7&#45;&gt;Node4 -->
<g id="edge9" class="edge">
<title>Node7&#45;&gt;Node4</title>
<path fill="none" stroke="#191970" d="M246.9884,-62.5577C257.9513,-62.7773 269.6076,-63.0107 280.8963,-63.2368"/>
<polygon fill="#191970" stroke="#191970" points="281.0616,-66.7407 291.1297,-63.4418 281.2018,-59.7421 281.0616,-66.7407"/>
</g>
</g>
</svg>
