<?xml version="1.0" encoding="UTF-8" standalone="no"?>
<!DOCTYPE svg PUBLIC "-//W3C//DTD SVG 1.1//EN"
 "http://www.w3.org/Graphics/SVG/1.1/DTD/svg11.dtd">
<!-- Generated by graphviz version 2.40.1 (20161225.0304)
 -->
<!-- Title: LibBBB::IO::Input::Setup::Setup Pages: 1 -->
<svg width="704pt" height="519pt"
 viewBox="0.00 0.00 704.32 519.00" xmlns="http://www.w3.org/2000/svg" xmlns:xlink="http://www.w3.org/1999/xlink">
<g id="graph0" class="graph" transform="scale(1 1) rotate(0) translate(4 515)">
<title>LibBBB::IO::Input::Setup::Setup</title>
<polygon fill="#ffffff" stroke="transparent" points="-4,4 -4,-515 700.318,-515 700.318,4 -4,4"/>
<!-- Node0 -->
<g id="node1" class="node">
<title>Node0</title>
<polygon fill="#bfbfbf" stroke="#000000" points="0,-237.5 0,-269.5 98.811,-269.5 98.811,-237.5 0,-237.5"/>
<text text-anchor="start" x="8" y="-256.5" font-family="Helvetica,sans-Serif" font-size="10.00" fill="#000000">LibBBB::IO::Input::</text>
<text text-anchor="middle" x="49.4055" y="-244.5" font-family="Helvetica,sans-Serif" font-size="10.00" fill="#000000">Setup::Setup</text>
</g>
<!-- Node1 -->
<g id="node2" class="node">
<title>Node1</title>
<g id="a_node2"><a xlink:href="classLibBBB_1_1IO_1_1Input.html#a4e59f6e2c64f7a85adff569daf35b3d3" target="_top" xlink:title="Input constructs an input based on the given setup. The constructor will automatically export the pin...">
<polygon fill="#ffffff" stroke="#000000" points="137.023,-429.5 137.023,-461.5 235.834,-461.5 235.834,-429.5 137.023,-429.5"/>
<text text-anchor="start" x="145.023" y="-448.5" font-family="Helvetica,sans-Serif" font-size="10.00" fill="#000000">LibBBB::IO::Input::</text>
<text text-anchor="middle" x="186.4285" y="-436.5" font-family="Helvetica,sans-Serif" font-size="10.00" fill="#000000">Input</text>
</a>
</g>
</g>
<!-- Node0&#45;&gt;Node1 -->
<g id="edge1" class="edge">
<title>Node0&#45;&gt;Node1</title>
<path fill="none" stroke="#191970" d="M54.7425,-269.9016C65.5876,-301.1819 92.7924,-370.1881 134.811,-414.5 137.9297,-417.7889 141.4727,-420.853 145.2069,-423.6742"/>
<polygon fill="#191970" stroke="#191970" points="143.3759,-426.6629 153.5963,-429.4548 147.3477,-420.8988 143.3759,-426.6629"/>
</g>
<!-- Node2 -->
<g id="node3" class="node">
<title>Node2</title>
<g id="a_node3"><a xlink:href="classLibBBB_1_1IO_1_1Input.html#a9144216b06e8bff7a46a6c9aa246ad5e" target="_top" xlink:title="setEdgeType sets the desired edge ">
<polygon fill="#ffffff" stroke="#000000" points="285.9805,-478.5 285.9805,-510.5 384.7915,-510.5 384.7915,-478.5 285.9805,-478.5"/>
<text text-anchor="start" x="293.9805" y="-497.5" font-family="Helvetica,sans-Serif" font-size="10.00" fill="#000000">LibBBB::IO::Input::</text>
<text text-anchor="middle" x="335.386" y="-485.5" font-family="Helvetica,sans-Serif" font-size="10.00" fill="#000000">setEdgeType</text>
</a>
</g>
</g>
<!-- Node0&#45;&gt;Node2 -->
<g id="edge11" class="edge">
<title>Node0&#45;&gt;Node2</title>
<path fill="none" stroke="#191970" d="M50.3358,-269.6563C53.6575,-310.9286 68.6065,-420.5636 134.811,-471.5 174.4166,-501.9717 232.1175,-505.6366 275.4748,-502.9021"/>
<polygon fill="#191970" stroke="#191970" points="275.9034,-506.3797 285.6092,-502.1315 275.3726,-499.3998 275.9034,-506.3797"/>
</g>
<!-- Node5 -->
<g id="node6" class="node">
<title>Node5</title>
<g id="a_node6"><a xlink:href="classLibBBB_1_1IO_1_1Input.html#a3a448ebc4e13f3813b6b80566af3fe79" target="_top" xlink:title="waitForEdgeThreaded does the same thing as waitForEdge(), but does so in a threaded manner...">
<polygon fill="#ffffff" stroke="#000000" points="277.9305,-376.5 277.9305,-408.5 392.8415,-408.5 392.8415,-376.5 277.9305,-376.5"/>
<text text-anchor="start" x="285.9305" y="-395.5" font-family="Helvetica,sans-Serif" font-size="10.00" fill="#000000">LibBBB::IO::Input::</text>
<text text-anchor="middle" x="335.386" y="-383.5" font-family="Helvetica,sans-Serif" font-size="10.00" fill="#000000">waitForEdgeThreaded</text>
</a>
</g>
</g>
<!-- Node0&#45;&gt;Node5 -->
<g id="edge25" class="edge">
<title>Node0&#45;&gt;Node5</title>
<path fill="none" stroke="#191970" d="M54.718,-269.6199C65.0351,-298.0197 90.7269,-356.3412 134.811,-381.5 174.6008,-404.2079 226.3707,-406.5072 267.3477,-403.3637"/>
<polygon fill="#191970" stroke="#191970" points="267.8698,-406.8311 277.5193,-402.4563 267.2478,-399.8588 267.8698,-406.8311"/>
</g>
<!-- Node7 -->
<g id="node8" class="node">
<title>Node7</title>
<g id="a_node8"><a xlink:href="classLibBBB_1_1IO_1_1Input.html#ab70913a918406a621c8a4d1778917f03" target="_top" xlink:title="~Input destroys the input. This automatically unexports the pin. ">
<polygon fill="#ffffff" stroke="#000000" points="137.023,-339.5 137.023,-371.5 235.834,-371.5 235.834,-339.5 137.023,-339.5"/>
<text text-anchor="start" x="145.023" y="-358.5" font-family="Helvetica,sans-Serif" font-size="10.00" fill="#000000">LibBBB::IO::Input::</text>
<text text-anchor="middle" x="186.4285" y="-346.5" font-family="Helvetica,sans-Serif" font-size="10.00" fill="#000000">~Input</text>
</a>
</g>
</g>
<!-- Node0&#45;&gt;Node7 -->
<g id="edge8" class="edge">
<title>Node0&#45;&gt;Node7</title>
<path fill="none" stroke="#191970" d="M64.6413,-269.7173C80.906,-286.4047 107.9798,-312.4431 134.811,-330.5 136.7239,-331.7873 138.713,-333.0463 140.749,-334.2715"/>
<polygon fill="#191970" stroke="#191970" points="139.4525,-337.558 149.8841,-339.4106 142.8846,-331.4571 139.4525,-337.558"/>
</g>
<!-- Node8 -->
<g id="node9" class="node">
<title>Node8</title>
<g id="a_node9"><a xlink:href="classLibBBB_1_1IO_1_1Input.html#a042ab20fe19f0ca17d09bf22bb16b2bf" target="_top" xlink:title="setDebounceTime sets the debounce time of the input. This ensures the input is in the proper state fo...">
<polygon fill="#ffffff" stroke="#000000" points="137.023,-288.5 137.023,-320.5 235.834,-320.5 235.834,-288.5 137.023,-288.5"/>
<text text-anchor="start" x="145.023" y="-307.5" font-family="Helvetica,sans-Serif" font-size="10.00" fill="#000000">LibBBB::IO::Input::</text>
<text text-anchor="middle" x="186.4285" y="-295.5" font-family="Helvetica,sans-Serif" font-size="10.00" fill="#000000">setDebounceTime</text>
</a>
</g>
</g>
<!-- Node0&#45;&gt;Node8 -->
<g id="edge9" class="edge">
<title>Node0&#45;&gt;Node8</title>
<path fill="none" stroke="#191970" d="M92.7604,-269.6367C105.7573,-274.4742 120.1568,-279.8337 133.6884,-284.8701"/>
<polygon fill="#191970" stroke="#191970" points="132.7628,-288.2601 143.3556,-288.4683 135.2046,-281.6998 132.7628,-288.2601"/>
</g>
<!-- Node9 -->
<g id="node10" class="node">
<title>Node9</title>
<g id="a_node10"><a xlink:href="classLibBBB_1_1IO_1_1Input.html#a0acdacb6841ff6144d14ee861081033e" target="_top" xlink:title="getDebounceTime getter ">
<polygon fill="#ffffff" stroke="#000000" points="137.023,-237.5 137.023,-269.5 235.834,-269.5 235.834,-237.5 137.023,-237.5"/>
<text text-anchor="start" x="145.023" y="-256.5" font-family="Helvetica,sans-Serif" font-size="10.00" fill="#000000">LibBBB::IO::Input::</text>
<text text-anchor="middle" x="186.4285" y="-244.5" font-family="Helvetica,sans-Serif" font-size="10.00" fill="#000000">getDebounceTime</text>
</a>
</g>
</g>
<!-- Node0&#45;&gt;Node9 -->
<g id="edge10" class="edge">
<title>Node0&#45;&gt;Node9</title>
<path fill="none" stroke="#191970" d="M98.8739,-253.5C107.7854,-253.5 117.1637,-253.5 126.3376,-253.5"/>
<polygon fill="#191970" stroke="#191970" points="126.5725,-257.0001 136.5724,-253.5 126.5724,-250.0001 126.5725,-257.0001"/>
</g>
<!-- Node10 -->
<g id="node11" class="node">
<title>Node10</title>
<g id="a_node11"><a xlink:href="classLibBBB_1_1IO_1_1Input.html#ad13e7774b58c80b4fc4fd79e1794b182" target="_top" xlink:title="getEdgeType getter ">
<polygon fill="#ffffff" stroke="#000000" points="439.1065,-102.5 439.1065,-134.5 537.9175,-134.5 537.9175,-102.5 439.1065,-102.5"/>
<text text-anchor="start" x="447.1065" y="-121.5" font-family="Helvetica,sans-Serif" font-size="10.00" fill="#000000">LibBBB::IO::Input::</text>
<text text-anchor="middle" x="488.512" y="-109.5" font-family="Helvetica,sans-Serif" font-size="10.00" fill="#000000">getEdgeType</text>
</a>
</g>
</g>
<!-- Node0&#45;&gt;Node10 -->
<g id="edge12" class="edge">
<title>Node0&#45;&gt;Node10</title>
<path fill="none" stroke="#191970" d="M55.9364,-237.329C67.457,-211.2075 94.0905,-160.4425 134.811,-138.5 227.7629,-88.4122 355.1105,-96.5086 428.9201,-107.2769"/>
<polygon fill="#191970" stroke="#191970" points="428.5574,-110.7619 438.9705,-108.8083 429.6119,-103.8418 428.5574,-110.7619"/>
</g>
<!-- Node12 -->
<g id="node13" class="node">
<title>Node12</title>
<g id="a_node13"><a xlink:href="classLibBBB_1_1IO_1_1Input.html#ab581bd59f9ca5bfb2e45ebdc81b5e3cc" target="_top" xlink:title="setEdgeCallback setter ">
<polygon fill="#ffffff" stroke="#000000" points="137.023,-147.5 137.023,-179.5 235.834,-179.5 235.834,-147.5 137.023,-147.5"/>
<text text-anchor="start" x="145.023" y="-166.5" font-family="Helvetica,sans-Serif" font-size="10.00" fill="#000000">LibBBB::IO::Input::</text>
<text text-anchor="middle" x="186.4285" y="-154.5" font-family="Helvetica,sans-Serif" font-size="10.00" fill="#000000">setEdgeCallback</text>
</a>
</g>
</g>
<!-- Node0&#45;&gt;Node12 -->
<g id="edge14" class="edge">
<title>Node0&#45;&gt;Node12</title>
<path fill="none" stroke="#191970" d="M71.9763,-237.3246C89.0415,-225.238 113.1522,-208.4649 134.811,-194.5 139.7638,-191.3066 145.0384,-188.0163 150.2529,-184.8267"/>
<polygon fill="#191970" stroke="#191970" points="152.1627,-187.762 158.9043,-179.5887 148.5373,-181.7739 152.1627,-187.762"/>
</g>
<!-- Node13 -->
<g id="node14" class="node">
<title>Node13</title>
<g id="a_node14"><a xlink:href="namespaceVehicleControl.html#af89cecf99aa4e7787af7433d8f3b6970" target="_top" xlink:title="VehicleControl::callback">
<polygon fill="#ffffff" stroke="#000000" points="274.046,-198.5 274.046,-218.5 396.726,-218.5 396.726,-198.5 274.046,-198.5"/>
<text text-anchor="middle" x="335.386" y="-205.5" font-family="Helvetica,sans-Serif" font-size="10.00" fill="#000000">VehicleControl::callback</text>
</a>
</g>
</g>
<!-- Node0&#45;&gt;Node13 -->
<g id="edge20" class="edge">
<title>Node0&#45;&gt;Node13</title>
<path fill="none" stroke="#191970" d="M98.7002,-237.3848C110.4327,-234.0199 122.982,-230.8004 134.811,-228.5 177.2233,-220.252 225.3803,-215.3077 263.8753,-212.3991"/>
<polygon fill="#191970" stroke="#191970" points="264.2327,-215.8824 273.9528,-211.6671 263.7255,-208.9008 264.2327,-215.8824"/>
</g>
<!-- Node16 -->
<g id="node17" class="node">
<title>Node16</title>
<g id="a_node17"><a xlink:href="classLibBBB_1_1IO_1_1Input.html#a0934c43a3f6be5e62dfc733552e5074d" target="_top" xlink:title="waitForEdge method is a blocking wait for edge. Therefore, the callee will halt its thread until this...">
<polygon fill="#ffffff" stroke="#000000" points="285.9805,-31.5 285.9805,-63.5 384.7915,-63.5 384.7915,-31.5 285.9805,-31.5"/>
<text text-anchor="start" x="293.9805" y="-50.5" font-family="Helvetica,sans-Serif" font-size="10.00" fill="#000000">LibBBB::IO::Input::</text>
<text text-anchor="middle" x="335.386" y="-38.5" font-family="Helvetica,sans-Serif" font-size="10.00" fill="#000000">waitForEdge</text>
</a>
</g>
</g>
<!-- Node0&#45;&gt;Node16 -->
<g id="edge21" class="edge">
<title>Node0&#45;&gt;Node16</title>
<path fill="none" stroke="#191970" d="M50.3656,-237.479C53.7484,-197.1621 68.8125,-91.5835 134.811,-47.5 175.8264,-20.1039 232.8582,-23.0243 275.6263,-31.1"/>
<polygon fill="#191970" stroke="#191970" points="275.1253,-34.5696 285.6217,-33.1287 276.5177,-27.7095 275.1253,-34.5696"/>
</g>
<!-- Node19 -->
<g id="node20" class="node">
<title>Node19</title>
<g id="a_node20"><a xlink:href="classLibBBB_1_1IO_1_1Input.html#a463bb83321475919ec672e9ac75b31b1" target="_top" xlink:title="cancelWaitForEdge method cancels waiting for the edge. ">
<polygon fill="#ffffff" stroke="#000000" points="134.811,-57.5 134.811,-89.5 238.046,-89.5 238.046,-57.5 134.811,-57.5"/>
<text text-anchor="start" x="142.811" y="-76.5" font-family="Helvetica,sans-Serif" font-size="10.00" fill="#000000">LibBBB::IO::Input::</text>
<text text-anchor="middle" x="186.4285" y="-64.5" font-family="Helvetica,sans-Serif" font-size="10.00" fill="#000000">cancelWaitForEdge</text>
</a>
</g>
</g>
<!-- Node0&#45;&gt;Node19 -->
<g id="edge26" class="edge">
<title>Node0&#45;&gt;Node19</title>
<path fill="none" stroke="#191970" d="M55.4188,-237.4277C67.0297,-208.098 94.9541,-145.177 134.811,-104.5 138.0254,-101.2194 141.657,-98.1518 145.4678,-95.3206"/>
<polygon fill="#191970" stroke="#191970" points="147.7074,-98.0301 154.0043,-89.5095 143.7683,-92.2435 147.7074,-98.0301"/>
</g>
<!-- Node1&#45;&gt;Node2 -->
<g id="edge2" class="edge">
<title>Node1&#45;&gt;Node2</title>
<path fill="none" stroke="#191970" d="M235.2028,-461.5444C248.4484,-465.9016 262.9303,-470.6655 276.6632,-475.183"/>
<polygon fill="#191970" stroke="#191970" points="275.9092,-478.6194 286.5022,-478.4195 278.0966,-471.9699 275.9092,-478.6194"/>
</g>
<!-- Node4 -->
<g id="node5" class="node">
<title>Node4</title>
<g id="a_node5"><a xlink:href="classLibBBB_1_1IO_1_1IOBase.html#aa98e79cb377720c663e79411a32a5678" target="_top" xlink:title="setActiveHighOrLow setter ">
<polygon fill="#ffffff" stroke="#000000" points="279.3245,-427.5 279.3245,-459.5 391.4475,-459.5 391.4475,-427.5 279.3245,-427.5"/>
<text text-anchor="start" x="287.3245" y="-446.5" font-family="Helvetica,sans-Serif" font-size="10.00" fill="#000000">LibBBB::IO::IOBase</text>
<text text-anchor="middle" x="335.386" y="-434.5" font-family="Helvetica,sans-Serif" font-size="10.00" fill="#000000">::setActiveHighOrLow</text>
</a>
</g>
</g>
<!-- Node1&#45;&gt;Node4 -->
<g id="edge4" class="edge">
<title>Node1&#45;&gt;Node4</title>
<path fill="none" stroke="#191970" d="M236.0292,-444.834C246.6559,-444.6913 258.0459,-444.5384 269.1858,-444.3888"/>
<polygon fill="#191970" stroke="#191970" points="269.3649,-447.8869 279.317,-444.2528 269.2708,-440.8875 269.3649,-447.8869"/>
</g>
<!-- Node1&#45;&gt;Node5 -->
<g id="edge6" class="edge">
<title>Node1&#45;&gt;Node5</title>
<path fill="none" stroke="#191970" d="M231.5249,-429.4544C246.9127,-423.9793 264.2933,-417.7952 280.3723,-412.0742"/>
<polygon fill="#191970" stroke="#191970" points="281.9379,-415.2322 290.186,-408.5824 279.5913,-408.6372 281.9379,-415.2322"/>
</g>
<!-- Node3 -->
<g id="node4" class="node">
<title>Node3</title>
<g id="a_node4"><a xlink:href="classLibBBB_1_1IO_1_1IOBase.html#a8b8069af640a6ca1d8ad885015d2e2e5" target="_top" xlink:title="write write function that writes a single string value to a file in the path provided ...">
<polygon fill="#ffffff" stroke="#000000" points="436.3305,-453.5 436.3305,-485.5 540.6935,-485.5 540.6935,-453.5 436.3305,-453.5"/>
<text text-anchor="start" x="444.3305" y="-472.5" font-family="Helvetica,sans-Serif" font-size="10.00" fill="#000000">LibBBB::IO::IOBase</text>
<text text-anchor="middle" x="488.512" y="-460.5" font-family="Helvetica,sans-Serif" font-size="10.00" fill="#000000">::write</text>
</a>
</g>
</g>
<!-- Node2&#45;&gt;Node3 -->
<g id="edge3" class="edge">
<title>Node2&#45;&gt;Node3</title>
<path fill="none" stroke="#191970" d="M385.1016,-486.3832C398.1148,-484.2586 412.3128,-481.9406 425.9036,-479.7217"/>
<polygon fill="#191970" stroke="#191970" points="426.8432,-483.1147 436.1485,-478.0491 425.7152,-476.2062 426.8432,-483.1147"/>
</g>
<!-- Node4&#45;&gt;Node3 -->
<g id="edge5" class="edge">
<title>Node4&#45;&gt;Node3</title>
<path fill="none" stroke="#191970" d="M391.535,-453.0338C402.8239,-454.9506 414.7516,-456.9759 426.2348,-458.9257"/>
<polygon fill="#191970" stroke="#191970" points="425.7397,-462.3916 436.1845,-460.6151 426.9115,-455.4904 425.7397,-462.3916"/>
</g>
<!-- Node6 -->
<g id="node7" class="node">
<title>Node6</title>
<g id="a_node7"><a xlink:href="classLibBBB_1_1ThreadHelper.html#a6999e18135496ef252b1c43c374c20f9" target="_top" xlink:title="startDetachedThread ">
<polygon fill="#ffffff" stroke="#000000" points="580.298,-326.5 580.298,-358.5 696.318,-358.5 696.318,-326.5 580.298,-326.5"/>
<text text-anchor="start" x="588.298" y="-345.5" font-family="Helvetica,sans-Serif" font-size="10.00" fill="#000000">LibBBB::ThreadHelper</text>
<text text-anchor="middle" x="638.308" y="-333.5" font-family="Helvetica,sans-Serif" font-size="10.00" fill="#000000">::startDetachedThread</text>
</a>
</g>
</g>
<!-- Node5&#45;&gt;Node6 -->
<g id="edge7" class="edge">
<title>Node5&#45;&gt;Node6</title>
<path fill="none" stroke="#191970" d="M393.0763,-382.9777C443.4722,-374.6594 516.7026,-362.5721 570.0117,-353.7729"/>
<polygon fill="#191970" stroke="#191970" points="570.7627,-357.1964 580.0592,-352.1145 569.6227,-350.2899 570.7627,-357.1964"/>
</g>
<!-- Node11 -->
<g id="node12" class="node">
<title>Node11</title>
<g id="a_node12"><a xlink:href="classLibBBB_1_1IO_1_1IOBase.html#aa317b2515288dbe3905b675a9033e2fa" target="_top" xlink:title="read function that reads the value of the given file filename ">
<polygon fill="#ffffff" stroke="#000000" points="586.1265,-77.5 586.1265,-109.5 690.4895,-109.5 690.4895,-77.5 586.1265,-77.5"/>
<text text-anchor="start" x="594.1265" y="-96.5" font-family="Helvetica,sans-Serif" font-size="10.00" fill="#000000">LibBBB::IO::IOBase</text>
<text text-anchor="middle" x="638.308" y="-84.5" font-family="Helvetica,sans-Serif" font-size="10.00" fill="#000000">::read</text>
</a>
</g>
</g>
<!-- Node10&#45;&gt;Node11 -->
<g id="edge13" class="edge">
<title>Node10&#45;&gt;Node11</title>
<path fill="none" stroke="#191970" d="M537.976,-110.2448C550.147,-108.2135 563.3348,-106.0125 576.0252,-103.8946"/>
<polygon fill="#191970" stroke="#191970" points="576.7796,-107.3172 586.067,-102.2187 575.6272,-100.4127 576.7796,-107.3172"/>
</g>
<!-- Node12&#45;&gt;Node13 -->
<g id="edge15" class="edge">
<title>Node12&#45;&gt;Node13</title>
<path fill="none" stroke="#191970" d="M236.0292,-178.4843C254.1405,-183.9558 274.4694,-190.0971 291.998,-195.3925"/>
<polygon fill="#191970" stroke="#191970" points="291.3721,-198.8596 301.957,-198.4011 293.3965,-192.1587 291.3721,-198.8596"/>
</g>
<!-- Node14 -->
<g id="node15" class="node">
<title>Node14</title>
<g id="a_node15"><a xlink:href="classLibBBB_1_1IO_1_1UserLED.html#a98c0a865b590a4149e3b5a8d8c97d6cd" target="_top" xlink:title="state getter ">
<polygon fill="#ffffff" stroke="#000000" points="582.522,-209.5 582.522,-241.5 694.094,-241.5 694.094,-209.5 582.522,-209.5"/>
<text text-anchor="start" x="590.522" y="-228.5" font-family="Helvetica,sans-Serif" font-size="10.00" fill="#000000">LibBBB::IO::UserLED</text>
<text text-anchor="middle" x="638.308" y="-216.5" font-family="Helvetica,sans-Serif" font-size="10.00" fill="#000000">::state</text>
</a>
</g>
</g>
<!-- Node13&#45;&gt;Node14 -->
<g id="edge16" class="edge">
<title>Node13&#45;&gt;Node14</title>
<path fill="none" stroke="#191970" d="M397.0519,-211.9607C447.9753,-214.8185 520.0935,-218.8658 572.2009,-221.7901"/>
<polygon fill="#191970" stroke="#191970" points="572.1629,-225.2933 582.3433,-222.3593 572.5552,-218.3043 572.1629,-225.2933"/>
</g>
<!-- Node15 -->
<g id="node16" class="node">
<title>Node15</title>
<g id="a_node16"><a xlink:href="classLibBBB_1_1IO_1_1UserLED.html#a5d6714d1ddc854308c1d4cc5448ded07" target="_top" xlink:title="setState method sets the state of the LED ">
<polygon fill="#ffffff" stroke="#000000" points="432.726,-237.5 432.726,-269.5 544.298,-269.5 544.298,-237.5 432.726,-237.5"/>
<text text-anchor="start" x="440.726" y="-256.5" font-family="Helvetica,sans-Serif" font-size="10.00" fill="#000000">LibBBB::IO::UserLED</text>
<text text-anchor="middle" x="488.512" y="-244.5" font-family="Helvetica,sans-Serif" font-size="10.00" fill="#000000">::setState</text>
</a>
</g>
</g>
<!-- Node13&#45;&gt;Node15 -->
<g id="edge17" class="edge">
<title>Node13&#45;&gt;Node15</title>
<path fill="none" stroke="#191970" d="M369.7505,-218.5989C385.8193,-223.3211 405.4947,-229.1032 424.1736,-234.5925"/>
<polygon fill="#191970" stroke="#191970" points="423.2451,-237.9676 433.8262,-237.4292 425.2188,-231.2516 423.2451,-237.9676"/>
</g>
<!-- Node15&#45;&gt;Node6 -->
<g id="edge19" class="edge">
<title>Node15&#45;&gt;Node6</title>
<path fill="none" stroke="#191970" d="M515.6389,-269.6172C539.954,-284.0638 575.7975,-305.3599 602.4673,-321.2055"/>
<polygon fill="#191970" stroke="#191970" points="600.7453,-324.2536 611.1302,-326.3525 604.3209,-318.2356 600.7453,-324.2536"/>
</g>
<!-- Node15&#45;&gt;Node14 -->
<g id="edge18" class="edge">
<title>Node15&#45;&gt;Node14</title>
<path fill="none" stroke="#191970" d="M544.7167,-242.9942C553.7397,-241.3076 563.1494,-239.5487 572.375,-237.8243"/>
<polygon fill="#191970" stroke="#191970" points="573.0999,-241.2495 582.2865,-235.9716 571.8136,-234.3686 573.0999,-241.2495"/>
</g>
<!-- Node17 -->
<g id="node18" class="node">
<title>Node17</title>
<g id="a_node18"><a xlink:href="classLibBBB_1_1IO_1_1IOBase.html#a71d8f1f57eb6de8ed0187eaad8902b1c" target="_top" xlink:title="path getter ">
<polygon fill="#ffffff" stroke="#000000" points="436.3305,-.5 436.3305,-32.5 540.6935,-32.5 540.6935,-.5 436.3305,-.5"/>
<text text-anchor="start" x="444.3305" y="-19.5" font-family="Helvetica,sans-Serif" font-size="10.00" fill="#000000">LibBBB::IO::IOBase</text>
<text text-anchor="middle" x="488.512" y="-7.5" font-family="Helvetica,sans-Serif" font-size="10.00" fill="#000000">::path</text>
</a>
</g>
</g>
<!-- Node16&#45;&gt;Node17 -->
<g id="edge22" class="edge">
<title>Node16&#45;&gt;Node17</title>
<path fill="none" stroke="#191970" d="M385.1016,-37.4352C398.2424,-34.7749 412.5913,-31.87 426.3032,-29.094"/>
<polygon fill="#191970" stroke="#191970" points="427.0419,-32.5156 436.1485,-27.1009 425.6529,-25.6548 427.0419,-32.5156"/>
</g>
<!-- Node18 -->
<g id="node19" class="node">
<title>Node18</title>
<g id="a_node19"><a xlink:href="classLibBBB_1_1IO_1_1IOBase.html#a8ae8a79c81d61625f5b864abebe944a2" target="_top" xlink:title="getValue getter ">
<polygon fill="#ffffff" stroke="#000000" points="436.3305,-51.5 436.3305,-83.5 540.6935,-83.5 540.6935,-51.5 436.3305,-51.5"/>
<text text-anchor="start" x="444.3305" y="-70.5" font-family="Helvetica,sans-Serif" font-size="10.00" fill="#000000">LibBBB::IO::IOBase</text>
<text text-anchor="middle" x="488.512" y="-58.5" font-family="Helvetica,sans-Serif" font-size="10.00" fill="#000000">::getValue</text>
</a>
</g>
</g>
<!-- Node16&#45;&gt;Node18 -->
<g id="edge23" class="edge">
<title>Node16&#45;&gt;Node18</title>
<path fill="none" stroke="#191970" d="M385.1016,-53.9934C398.1148,-55.6931 412.3128,-57.5475 425.9036,-59.3226"/>
<polygon fill="#191970" stroke="#191970" points="425.7794,-62.8361 436.1485,-60.6607 426.6861,-55.895 425.7794,-62.8361"/>
</g>
<!-- Node18&#45;&gt;Node11 -->
<g id="edge24" class="edge">
<title>Node18&#45;&gt;Node11</title>
<path fill="none" stroke="#191970" d="M540.9034,-76.5935C552.1923,-78.553 564.2333,-80.6429 575.8622,-82.6613"/>
<polygon fill="#191970" stroke="#191970" points="575.4949,-86.1498 585.9462,-84.4116 576.6921,-79.2529 575.4949,-86.1498"/>
</g>
<!-- Node19&#45;&gt;Node16 -->
<g id="edge27" class="edge">
<title>Node19&#45;&gt;Node16</title>
<path fill="none" stroke="#191970" d="M238.1086,-64.4794C250.3084,-62.35 263.4115,-60.0629 275.9245,-57.8788"/>
<polygon fill="#191970" stroke="#191970" points="276.5555,-61.3217 285.8047,-56.1542 275.3518,-54.4259 276.5555,-61.3217"/>
</g>
</g>
</svg>
