<?xml version="1.0" encoding="UTF-8" standalone="no"?>
<!DOCTYPE svg PUBLIC "-//W3C//DTD SVG 1.1//EN"
 "http://www.w3.org/Graphics/SVG/1.1/DTD/svg11.dtd">
<!-- Generated by graphviz version 2.40.1 (20161225.0304)
 -->
<!-- Title: VehicleControl::IO::Input::Setup::Setup Pages: 1 -->
<svg width="810pt" height="506pt"
 viewBox="0.00 0.00 810.47 506.00" xmlns="http://www.w3.org/2000/svg" xmlns:xlink="http://www.w3.org/1999/xlink">
<g id="graph0" class="graph" transform="scale(1 1) rotate(0) translate(4 502)">
<title>VehicleControl::IO::Input::Setup::Setup</title>
<polygon fill="#ffffff" stroke="transparent" points="-4,4 -4,-502 806.474,-502 806.474,4 -4,4"/>
<!-- Node0 -->
<g id="node1" class="node">
<title>Node0</title>
<polygon fill="#bfbfbf" stroke="#000000" points="0,-224.5 0,-256.5 107.159,-256.5 107.159,-224.5 0,-224.5"/>
<text text-anchor="start" x="8" y="-243.5" font-family="Helvetica,sans-Serif" font-size="10.00" fill="#000000">VehicleControl::IO</text>
<text text-anchor="middle" x="53.5795" y="-231.5" font-family="Helvetica,sans-Serif" font-size="10.00" fill="#000000">::Input::Setup::Setup</text>
</g>
<!-- Node1 -->
<g id="node2" class="node">
<title>Node1</title>
<g id="a_node2"><a xlink:href="classVehicleControl_1_1IO_1_1Input.html#aeb47b17475e36a509b1bd2ac115a42a0" target="_top" xlink:title="Input constructs an input based on the given setup. The constructor will automatically export the pin...">
<polygon fill="#ffffff" stroke="#000000" points="162.8905,-416.5 162.8905,-448.5 260.0135,-448.5 260.0135,-416.5 162.8905,-416.5"/>
<text text-anchor="start" x="170.8905" y="-435.5" font-family="Helvetica,sans-Serif" font-size="10.00" fill="#000000">VehicleControl::IO</text>
<text text-anchor="middle" x="211.452" y="-423.5" font-family="Helvetica,sans-Serif" font-size="10.00" fill="#000000">::Input::Input</text>
</a>
</g>
</g>
<!-- Node0&#45;&gt;Node1 -->
<g id="edge1" class="edge">
<title>Node0&#45;&gt;Node1</title>
<path fill="none" stroke="#191970" d="M58.7675,-256.8564C69.612,-288.672 97.5264,-359.448 143.159,-401.5 147.1686,-405.1949 151.6937,-408.5105 156.4584,-411.472"/>
<polygon fill="#191970" stroke="#191970" points="154.8052,-414.5579 165.2341,-416.4257 158.2462,-408.4621 154.8052,-414.5579"/>
</g>
<!-- Node2 -->
<g id="node3" class="node">
<title>Node2</title>
<g id="a_node3"><a xlink:href="classVehicleControl_1_1IO_1_1Input.html#ace52d2dc6464492817c2ea0683abd887" target="_top" xlink:title="setEdgeType sets the desired edge ">
<polygon fill="#ffffff" stroke="#000000" points="337.127,-465.5 337.127,-497.5 445.389,-497.5 445.389,-465.5 337.127,-465.5"/>
<text text-anchor="start" x="345.127" y="-484.5" font-family="Helvetica,sans-Serif" font-size="10.00" fill="#000000">VehicleControl::IO</text>
<text text-anchor="middle" x="391.258" y="-472.5" font-family="Helvetica,sans-Serif" font-size="10.00" fill="#000000">::Input::setEdgeType</text>
</a>
</g>
</g>
<!-- Node0&#45;&gt;Node2 -->
<g id="edge11" class="edge">
<title>Node0&#45;&gt;Node2</title>
<path fill="none" stroke="#191970" d="M54.7688,-256.7666C58.7606,-298.3013 75.5473,-408.5083 143.159,-458.5 195.6861,-497.3382 272.5777,-498.3581 326.8089,-492.6631"/>
<polygon fill="#191970" stroke="#191970" points="327.4668,-496.1105 336.9994,-491.4867 326.6639,-489.1567 327.4668,-496.1105"/>
</g>
<!-- Node5 -->
<g id="node6" class="node">
<title>Node5</title>
<g id="a_node6"><a xlink:href="classVehicleControl_1_1IO_1_1Input.html#a4170e7cac459efea0380175ea12f6e69" target="_top" xlink:title="waitForEdgeThreaded does the same thing as waitForEdge(), but does so in a threaded manner...">
<polygon fill="#ffffff" stroke="#000000" points="317.127,-363.5 317.127,-395.5 465.389,-395.5 465.389,-363.5 317.127,-363.5"/>
<text text-anchor="start" x="325.127" y="-382.5" font-family="Helvetica,sans-Serif" font-size="10.00" fill="#000000">VehicleControl::IO</text>
<text text-anchor="middle" x="391.258" y="-370.5" font-family="Helvetica,sans-Serif" font-size="10.00" fill="#000000">::Input::waitForEdgeThreaded</text>
</a>
</g>
</g>
<!-- Node0&#45;&gt;Node5 -->
<g id="edge26" class="edge">
<title>Node0&#45;&gt;Node5</title>
<path fill="none" stroke="#191970" d="M59.3646,-256.6897C70.5237,-285.2003 97.9884,-343.6915 143.159,-368.5 192.5674,-395.636 256.22,-397.9237 306.6802,-393.6659"/>
<polygon fill="#191970" stroke="#191970" points="307.2863,-397.1243 316.9126,-392.6987 306.6275,-390.1554 307.2863,-397.1243"/>
</g>
<!-- Node7 -->
<g id="node8" class="node">
<title>Node7</title>
<g id="a_node8"><a xlink:href="classVehicleControl_1_1IO_1_1Input.html#a5921d7a3b4fe7dde944af9a05e42081e" target="_top" xlink:title="~Input destroys the input. This automatically unexports the pin. ">
<polygon fill="#ffffff" stroke="#000000" points="162.8905,-326.5 162.8905,-358.5 260.0135,-358.5 260.0135,-326.5 162.8905,-326.5"/>
<text text-anchor="start" x="170.8905" y="-345.5" font-family="Helvetica,sans-Serif" font-size="10.00" fill="#000000">VehicleControl::IO</text>
<text text-anchor="middle" x="211.452" y="-333.5" font-family="Helvetica,sans-Serif" font-size="10.00" fill="#000000">::Input::~Input</text>
</a>
</g>
</g>
<!-- Node0&#45;&gt;Node7 -->
<g id="edge8" class="edge">
<title>Node0&#45;&gt;Node7</title>
<path fill="none" stroke="#191970" d="M68.7316,-256.5931C85.5442,-273.6688 114.1484,-300.4838 143.159,-317.5 146.399,-319.4004 149.8082,-321.1968 153.3036,-322.8875"/>
<polygon fill="#191970" stroke="#191970" points="152.1447,-326.204 162.7003,-327.1156 155.0171,-319.8205 152.1447,-326.204"/>
</g>
<!-- Node8 -->
<g id="node9" class="node">
<title>Node8</title>
<g id="a_node9"><a xlink:href="classVehicleControl_1_1IO_1_1Input.html#a882168647730a5029ff3c99a2014888c" target="_top" xlink:title="setDebounceTime sets the debounce time of the input. This ensures the input is in the proper state fo...">
<polygon fill="#ffffff" stroke="#000000" points="146.213,-275.5 146.213,-307.5 276.691,-307.5 276.691,-275.5 146.213,-275.5"/>
<text text-anchor="start" x="154.213" y="-294.5" font-family="Helvetica,sans-Serif" font-size="10.00" fill="#000000">VehicleControl::IO</text>
<text text-anchor="middle" x="211.452" y="-282.5" font-family="Helvetica,sans-Serif" font-size="10.00" fill="#000000">::Input::setDebounceTime</text>
</a>
</g>
</g>
<!-- Node0&#45;&gt;Node8 -->
<g id="edge9" class="edge">
<title>Node0&#45;&gt;Node8</title>
<path fill="none" stroke="#191970" d="M103.5313,-256.6367C118.942,-261.6151 136.0642,-267.1463 152.0466,-272.3094"/>
<polygon fill="#191970" stroke="#191970" points="151.2334,-275.7247 161.8251,-275.4683 153.3852,-269.0636 151.2334,-275.7247"/>
</g>
<!-- Node9 -->
<g id="node10" class="node">
<title>Node9</title>
<g id="a_node10"><a xlink:href="classVehicleControl_1_1IO_1_1Input.html#a7d42076fcf9fa487d02e5c6cb263f33c" target="_top" xlink:title="getDebounceTime getter ">
<polygon fill="#ffffff" stroke="#000000" points="145.9335,-224.5 145.9335,-256.5 276.9705,-256.5 276.9705,-224.5 145.9335,-224.5"/>
<text text-anchor="start" x="153.9335" y="-243.5" font-family="Helvetica,sans-Serif" font-size="10.00" fill="#000000">VehicleControl::IO</text>
<text text-anchor="middle" x="211.452" y="-231.5" font-family="Helvetica,sans-Serif" font-size="10.00" fill="#000000">::Input::getDebounceTime</text>
</a>
</g>
</g>
<!-- Node0&#45;&gt;Node9 -->
<g id="edge10" class="edge">
<title>Node0&#45;&gt;Node9</title>
<path fill="none" stroke="#191970" d="M107.4687,-240.5C116.5212,-240.5 126.0641,-240.5 135.5485,-240.5"/>
<polygon fill="#191970" stroke="#191970" points="135.7911,-244.0001 145.7911,-240.5 135.7911,-237.0001 135.7911,-244.0001"/>
</g>
<!-- Node10 -->
<g id="node11" class="node">
<title>Node10</title>
<g id="a_node11"><a xlink:href="classVehicleControl_1_1IO_1_1Input.html#ac9f955530d4e9be48fd1c936d29aab49" target="_top" xlink:title="getEdgeType getter ">
<polygon fill="#ffffff" stroke="#000000" points="336.8475,-.5 336.8475,-32.5 445.6685,-32.5 445.6685,-.5 336.8475,-.5"/>
<text text-anchor="start" x="344.8475" y="-19.5" font-family="Helvetica,sans-Serif" font-size="10.00" fill="#000000">VehicleControl::IO</text>
<text text-anchor="middle" x="391.258" y="-7.5" font-family="Helvetica,sans-Serif" font-size="10.00" fill="#000000">::Input::getEdgeType</text>
</a>
</g>
</g>
<!-- Node0&#45;&gt;Node10 -->
<g id="edge12" class="edge">
<title>Node0&#45;&gt;Node10</title>
<path fill="none" stroke="#191970" d="M55.8488,-224.3284C62.0801,-186.5422 83.1769,-92.3501 143.159,-48.5 195.9407,-9.9137 272.444,-5.6441 326.515,-8.6739"/>
<polygon fill="#191970" stroke="#191970" points="326.4691,-12.1784 336.6776,-9.3435 326.9293,-5.1936 326.4691,-12.1784"/>
</g>
<!-- Node12 -->
<g id="node13" class="node">
<title>Node12</title>
<g id="a_node13"><a xlink:href="classVehicleControl_1_1IO_1_1Input.html#aa963e2cb77f82fb52ce77187494e54ea" target="_top" xlink:title="setEdgeCallback setter ">
<polygon fill="#ffffff" stroke="#000000" points="149.2675,-134.5 149.2675,-166.5 273.6365,-166.5 273.6365,-134.5 149.2675,-134.5"/>
<text text-anchor="start" x="157.2675" y="-153.5" font-family="Helvetica,sans-Serif" font-size="10.00" fill="#000000">VehicleControl::IO</text>
<text text-anchor="middle" x="211.452" y="-141.5" font-family="Helvetica,sans-Serif" font-size="10.00" fill="#000000">::Input::setEdgeCallback</text>
</a>
</g>
</g>
<!-- Node0&#45;&gt;Node12 -->
<g id="edge14" class="edge">
<title>Node0&#45;&gt;Node12</title>
<path fill="none" stroke="#191970" d="M75.7987,-224.4579C93.566,-211.9793 119.3548,-194.6365 143.159,-181.5 149.7425,-177.8668 156.8311,-174.2953 163.8619,-170.9425"/>
<polygon fill="#191970" stroke="#191970" points="165.7718,-173.9141 173.3605,-166.5207 162.8176,-167.568 165.7718,-173.9141"/>
</g>
<!-- Node13 -->
<g id="node14" class="node">
<title>Node13</title>
<g id="a_node14"><a xlink:href="namespaceVehicleControl.html#af89cecf99aa4e7787af7433d8f3b6970" target="_top" xlink:title="VehicleControl::callback">
<polygon fill="#ffffff" stroke="#000000" points="329.918,-185.5 329.918,-205.5 452.598,-205.5 452.598,-185.5 329.918,-185.5"/>
<text text-anchor="middle" x="391.258" y="-192.5" font-family="Helvetica,sans-Serif" font-size="10.00" fill="#000000">VehicleControl::callback</text>
</a>
</g>
</g>
<!-- Node0&#45;&gt;Node13 -->
<g id="edge21" class="edge">
<title>Node0&#45;&gt;Node13</title>
<path fill="none" stroke="#191970" d="M104.8225,-224.3812C117.2632,-220.9743 130.6011,-217.7372 143.159,-215.5 202.064,-205.0062 269.827,-200.0132 319.6345,-197.6404"/>
<polygon fill="#191970" stroke="#191970" points="319.8328,-201.1351 329.6643,-197.1863 319.5162,-194.1422 319.8328,-201.1351"/>
</g>
<!-- Node17 -->
<g id="node18" class="node">
<title>Node17</title>
<g id="a_node18"><a xlink:href="classVehicleControl_1_1IO_1_1Input.html#a23f6d0d5f5cc67622adccf30c7bdb655" target="_top" xlink:title="waitForEdge method is a blocking wait for edge. Therefore, the callee will halt its thread until this...">
<polygon fill="#ffffff" stroke="#000000" points="338.523,-67.5 338.523,-99.5 443.993,-99.5 443.993,-67.5 338.523,-67.5"/>
<text text-anchor="start" x="346.523" y="-86.5" font-family="Helvetica,sans-Serif" font-size="10.00" fill="#000000">VehicleControl::IO</text>
<text text-anchor="middle" x="391.258" y="-74.5" font-family="Helvetica,sans-Serif" font-size="10.00" fill="#000000">::Input::waitForEdge</text>
</a>
</g>
</g>
<!-- Node0&#45;&gt;Node17 -->
<g id="edge22" class="edge">
<title>Node0&#45;&gt;Node17</title>
<path fill="none" stroke="#191970" d="M56.6015,-224.4423C64.1083,-189.6776 87.1958,-107.892 143.159,-74.5 201.0544,-39.9552 280.8243,-50.9849 334.1232,-64.7929"/>
<polygon fill="#191970" stroke="#191970" points="333.5188,-68.255 344.0856,-67.4858 335.3454,-61.4975 333.5188,-68.255"/>
</g>
<!-- Node20 -->
<g id="node21" class="node">
<title>Node20</title>
<g id="a_node21"><a xlink:href="classVehicleControl_1_1IO_1_1Input.html#af43084e3aa7a11f0dae0ae67a22112f1" target="_top" xlink:title="cancelWaitForEdge method cancels waiting for the edge. ">
<polygon fill="#ffffff" stroke="#000000" points="143.159,-83.5 143.159,-115.5 279.745,-115.5 279.745,-83.5 143.159,-83.5"/>
<text text-anchor="start" x="151.159" y="-102.5" font-family="Helvetica,sans-Serif" font-size="10.00" fill="#000000">VehicleControl::IO</text>
<text text-anchor="middle" x="211.452" y="-90.5" font-family="Helvetica,sans-Serif" font-size="10.00" fill="#000000">::Input::cancelWaitForEdge</text>
</a>
</g>
</g>
<!-- Node0&#45;&gt;Node20 -->
<g id="edge27" class="edge">
<title>Node0&#45;&gt;Node20</title>
<path fill="none" stroke="#191970" d="M62.1914,-224.4939C76.1414,-199.9624 105.9121,-153.0238 143.159,-125.5 145.6301,-123.674 148.2448,-121.9608 150.9539,-120.3554"/>
<polygon fill="#191970" stroke="#191970" points="152.6993,-123.3911 159.867,-115.5888 149.3982,-117.2183 152.6993,-123.3911"/>
</g>
<!-- Node1&#45;&gt;Node2 -->
<g id="edge2" class="edge">
<title>Node1&#45;&gt;Node2</title>
<path fill="none" stroke="#191970" d="M260.1101,-445.7601C280.6737,-451.364 304.9129,-457.9696 326.9224,-463.9675"/>
<polygon fill="#191970" stroke="#191970" points="326.2882,-467.4223 336.8567,-466.6748 328.1288,-460.6686 326.2882,-467.4223"/>
</g>
<!-- Node4 -->
<g id="node5" class="node">
<title>Node4</title>
<g id="a_node5"><a xlink:href="classVehicleControl_1_1IO_1_1IOBase.html#aae4d66f4082d7b5d5adf310cbc00b184" target="_top" xlink:title="setActiveHighOrLow setter ">
<polygon fill="#ffffff" stroke="#000000" points="315.745,-414.5 315.745,-446.5 466.771,-446.5 466.771,-414.5 315.745,-414.5"/>
<text text-anchor="start" x="323.745" y="-433.5" font-family="Helvetica,sans-Serif" font-size="10.00" fill="#000000">VehicleControl::IO</text>
<text text-anchor="middle" x="391.258" y="-421.5" font-family="Helvetica,sans-Serif" font-size="10.00" fill="#000000">::IOBase::setActiveHighOrLow</text>
</a>
</g>
</g>
<!-- Node1&#45;&gt;Node4 -->
<g id="edge4" class="edge">
<title>Node1&#45;&gt;Node4</title>
<path fill="none" stroke="#191970" d="M260.1101,-431.9588C274.1019,-431.8031 289.7955,-431.6286 305.3304,-431.4558"/>
<polygon fill="#191970" stroke="#191970" points="305.5363,-434.9538 315.4967,-431.3427 305.4584,-427.9542 305.5363,-434.9538"/>
</g>
<!-- Node1&#45;&gt;Node5 -->
<g id="edge6" class="edge">
<title>Node1&#45;&gt;Node5</title>
<path fill="none" stroke="#191970" d="M260.1101,-418.1574C280.7664,-412.0688 305.1314,-404.8869 327.2196,-398.3761"/>
<polygon fill="#191970" stroke="#191970" points="328.2543,-401.7201 336.8567,-395.5355 326.2751,-395.0057 328.2543,-401.7201"/>
</g>
<!-- Node3 -->
<g id="node4" class="node">
<title>Node3</title>
<g id="a_node4"><a xlink:href="classVehicleControl_1_1IO_1_1IOBase.html#a09b22d396b771b2175df60b3a29b6c7f" target="_top" xlink:title="write write function that writes a single string value to a file in the path provided ...">
<polygon fill="#ffffff" stroke="#000000" points="513.6035,-440.5 513.6035,-472.5 610.7265,-472.5 610.7265,-440.5 513.6035,-440.5"/>
<text text-anchor="start" x="521.6035" y="-459.5" font-family="Helvetica,sans-Serif" font-size="10.00" fill="#000000">VehicleControl::IO</text>
<text text-anchor="middle" x="562.165" y="-447.5" font-family="Helvetica,sans-Serif" font-size="10.00" fill="#000000">::IOBase::write</text>
</a>
</g>
</g>
<!-- Node2&#45;&gt;Node3 -->
<g id="edge3" class="edge">
<title>Node2&#45;&gt;Node3</title>
<path fill="none" stroke="#191970" d="M445.8039,-473.5211C464.1024,-470.8444 484.5862,-467.8481 503.2071,-465.1243"/>
<polygon fill="#191970" stroke="#191970" points="503.9466,-468.5534 513.3347,-463.6428 502.9334,-461.6271 503.9466,-468.5534"/>
</g>
<!-- Node4&#45;&gt;Node3 -->
<g id="edge5" class="edge">
<title>Node4&#45;&gt;Node3</title>
<path fill="none" stroke="#191970" d="M467.2156,-442.0554C479.3512,-443.9016 491.7455,-445.7871 503.403,-447.5606"/>
<polygon fill="#191970" stroke="#191970" points="503.0202,-451.0425 513.4329,-449.0864 504.0731,-444.1221 503.0202,-451.0425"/>
</g>
<!-- Node6 -->
<g id="node7" class="node">
<title>Node6</title>
<g id="a_node7"><a xlink:href="classThreadHelper.html#a4426e115e7858a4b6f6eedbc77302756" target="_top" xlink:title="startDetachedThread ">
<polygon fill="#ffffff" stroke="#000000" points="657.559,-323.5 657.559,-355.5 802.474,-355.5 802.474,-323.5 657.559,-323.5"/>
<text text-anchor="start" x="665.559" y="-342.5" font-family="Helvetica,sans-Serif" font-size="10.00" fill="#000000">ThreadHelper::startDetached</text>
<text text-anchor="middle" x="730.0165" y="-330.5" font-family="Helvetica,sans-Serif" font-size="10.00" fill="#000000">Thread</text>
</a>
</g>
</g>
<!-- Node5&#45;&gt;Node6 -->
<g id="edge7" class="edge">
<title>Node5&#45;&gt;Node6</title>
<path fill="none" stroke="#191970" d="M465.6,-370.7218C519.2304,-364.3892 591.6555,-355.8374 647.1468,-349.2851"/>
<polygon fill="#191970" stroke="#191970" points="647.7823,-352.7345 657.3029,-348.0859 646.9614,-345.7828 647.7823,-352.7345"/>
</g>
<!-- Node11 -->
<g id="node12" class="node">
<title>Node11</title>
<g id="a_node12"><a xlink:href="classVehicleControl_1_1IO_1_1IOBase.html#a1da47fda987bfedb4ec3c7fb446c09c7" target="_top" xlink:title="read function that reads the value of the given file filename ">
<polygon fill="#ffffff" stroke="#000000" points="681.455,-48.5 681.455,-80.5 778.578,-80.5 778.578,-48.5 681.455,-48.5"/>
<text text-anchor="start" x="689.455" y="-67.5" font-family="Helvetica,sans-Serif" font-size="10.00" fill="#000000">VehicleControl::IO</text>
<text text-anchor="middle" x="730.0165" y="-55.5" font-family="Helvetica,sans-Serif" font-size="10.00" fill="#000000">::IOBase::read</text>
</a>
</g>
</g>
<!-- Node10&#45;&gt;Node11 -->
<g id="edge13" class="edge">
<title>Node10&#45;&gt;Node11</title>
<path fill="none" stroke="#191970" d="M446.0491,-18.262C492.9308,-20.4259 562.0692,-25.1783 621.559,-35.5 637.9394,-38.3421 655.4448,-42.5097 671.5069,-46.8041"/>
<polygon fill="#191970" stroke="#191970" points="670.7292,-50.2199 681.2984,-49.4836 672.5769,-43.4681 670.7292,-50.2199"/>
</g>
<!-- Node12&#45;&gt;Node13 -->
<g id="edge15" class="edge">
<title>Node12&#45;&gt;Node13</title>
<path fill="none" stroke="#191970" d="M273.8348,-166.1125C295.8879,-171.6318 320.3861,-177.7629 341.2759,-182.991"/>
<polygon fill="#191970" stroke="#191970" points="340.6639,-186.4457 351.2145,-185.4783 342.3635,-179.6552 340.6639,-186.4457"/>
</g>
<!-- Node14 -->
<g id="node15" class="node">
<title>Node14</title>
<g id="a_node15"><a xlink:href="classVehicleControl_1_1Control.html#aa050ea7668adf370680b812948b07a9e" target="_top" xlink:title="instance method is the Singleton method of creating and accessing this class. This ensures there can ...">
<polygon fill="#ffffff" stroke="#000000" points="502.771,-163.5 502.771,-195.5 621.559,-195.5 621.559,-163.5 502.771,-163.5"/>
<text text-anchor="start" x="510.771" y="-182.5" font-family="Helvetica,sans-Serif" font-size="10.00" fill="#000000">VehicleControl::Control</text>
<text text-anchor="middle" x="562.165" y="-170.5" font-family="Helvetica,sans-Serif" font-size="10.00" fill="#000000">::instance</text>
</a>
</g>
</g>
<!-- Node13&#45;&gt;Node14 -->
<g id="edge16" class="edge">
<title>Node13&#45;&gt;Node14</title>
<path fill="none" stroke="#191970" d="M452.9593,-189.7236C465.7096,-188.53 479.2262,-187.2646 492.245,-186.0458"/>
<polygon fill="#191970" stroke="#191970" points="492.9248,-189.4975 502.555,-185.0806 492.2723,-182.528 492.9248,-189.4975"/>
</g>
<!-- Node15 -->
<g id="node16" class="node">
<title>Node15</title>
<g id="a_node16"><a xlink:href="classVehicleControl_1_1IO_1_1UserLED.html#a24318aac0770b5c67d10d8412fc5fda3" target="_top" xlink:title="state getter ">
<polygon fill="#ffffff" stroke="#000000" points="681.455,-221.5 681.455,-253.5 778.578,-253.5 778.578,-221.5 681.455,-221.5"/>
<text text-anchor="start" x="689.455" y="-240.5" font-family="Helvetica,sans-Serif" font-size="10.00" fill="#000000">VehicleControl::IO</text>
<text text-anchor="middle" x="730.0165" y="-228.5" font-family="Helvetica,sans-Serif" font-size="10.00" fill="#000000">::UserLED::state</text>
</a>
</g>
</g>
<!-- Node13&#45;&gt;Node15 -->
<g id="edge17" class="edge">
<title>Node13&#45;&gt;Node15</title>
<path fill="none" stroke="#191970" d="M452.6046,-203.1059C514.6067,-210.793 609.7557,-222.5898 670.9351,-230.175"/>
<polygon fill="#191970" stroke="#191970" points="670.8442,-233.6904 681.1989,-231.4475 671.7055,-226.7436 670.8442,-233.6904"/>
</g>
<!-- Node16 -->
<g id="node17" class="node">
<title>Node16</title>
<g id="a_node17"><a xlink:href="classVehicleControl_1_1IO_1_1UserLED.html#a681c7658d0828edefed7028390adced0" target="_top" xlink:title="setState method sets the state of the LED ">
<polygon fill="#ffffff" stroke="#000000" points="509.9885,-253.5 509.9885,-285.5 614.3415,-285.5 614.3415,-253.5 509.9885,-253.5"/>
<text text-anchor="start" x="517.9885" y="-272.5" font-family="Helvetica,sans-Serif" font-size="10.00" fill="#000000">VehicleControl::IO</text>
<text text-anchor="middle" x="562.165" y="-260.5" font-family="Helvetica,sans-Serif" font-size="10.00" fill="#000000">::UserLED::setState</text>
</a>
</g>
</g>
<!-- Node13&#45;&gt;Node16 -->
<g id="edge18" class="edge">
<title>Node13&#45;&gt;Node16</title>
<path fill="none" stroke="#191970" d="M414.6635,-205.6342C440.5408,-216.8387 482.8883,-235.1744 515.5857,-249.3319"/>
<polygon fill="#191970" stroke="#191970" points="514.3939,-252.6298 524.9614,-253.3914 517.1753,-246.2061 514.3939,-252.6298"/>
</g>
<!-- Node16&#45;&gt;Node6 -->
<g id="edge20" class="edge">
<title>Node16&#45;&gt;Node6</title>
<path fill="none" stroke="#191970" d="M600.6735,-285.5594C624.8963,-295.6611 656.3422,-308.7752 682.1625,-319.5432"/>
<polygon fill="#191970" stroke="#191970" points="680.8201,-322.7755 691.3969,-323.3943 683.5145,-316.3148 680.8201,-322.7755"/>
</g>
<!-- Node16&#45;&gt;Node15 -->
<g id="edge19" class="edge">
<title>Node16&#45;&gt;Node15</title>
<path fill="none" stroke="#191970" d="M614.3542,-259.5504C632.3805,-256.1138 652.6977,-252.2404 671.2168,-248.7098"/>
<polygon fill="#191970" stroke="#191970" points="672.1267,-252.0995 681.2943,-246.7886 670.8157,-245.2233 672.1267,-252.0995"/>
</g>
<!-- Node18 -->
<g id="node19" class="node">
<title>Node18</title>
<g id="a_node19"><a xlink:href="classVehicleControl_1_1IO_1_1IOBase.html#a8fa41e860d76951642da1d58b6756604" target="_top" xlink:title="path getter ">
<polygon fill="#ffffff" stroke="#000000" points="513.6035,-45.5 513.6035,-77.5 610.7265,-77.5 610.7265,-45.5 513.6035,-45.5"/>
<text text-anchor="start" x="521.6035" y="-64.5" font-family="Helvetica,sans-Serif" font-size="10.00" fill="#000000">VehicleControl::IO</text>
<text text-anchor="middle" x="562.165" y="-52.5" font-family="Helvetica,sans-Serif" font-size="10.00" fill="#000000">::IOBase::path</text>
</a>
</g>
</g>
<!-- Node17&#45;&gt;Node18 -->
<g id="edge23" class="edge">
<title>Node17&#45;&gt;Node18</title>
<path fill="none" stroke="#191970" d="M444.3972,-76.6597C463.0858,-74.254 484.1927,-71.537 503.323,-69.0744"/>
<polygon fill="#191970" stroke="#191970" points="503.9491,-72.5228 513.4204,-67.7746 503.0554,-65.5801 503.9491,-72.5228"/>
</g>
<!-- Node19 -->
<g id="node20" class="node">
<title>Node19</title>
<g id="a_node20"><a xlink:href="classVehicleControl_1_1IO_1_1IOBase.html#adcc9f65745e07f2e00425d4e0f5f8e54" target="_top" xlink:title="getValue getter ">
<polygon fill="#ffffff" stroke="#000000" points="512.2035,-96.5 512.2035,-128.5 612.1265,-128.5 612.1265,-96.5 512.2035,-96.5"/>
<text text-anchor="start" x="520.2035" y="-115.5" font-family="Helvetica,sans-Serif" font-size="10.00" fill="#000000">VehicleControl::IO</text>
<text text-anchor="middle" x="562.165" y="-103.5" font-family="Helvetica,sans-Serif" font-size="10.00" fill="#000000">::IOBase::getValue</text>
</a>
</g>
</g>
<!-- Node17&#45;&gt;Node19 -->
<g id="edge24" class="edge">
<title>Node17&#45;&gt;Node19</title>
<path fill="none" stroke="#191970" d="M444.3972,-92.5168C462.6705,-95.6175 483.2558,-99.1105 502.0448,-102.2986"/>
<polygon fill="#191970" stroke="#191970" points="501.5327,-105.7617 511.9773,-103.984 502.7037,-98.8603 501.5327,-105.7617"/>
</g>
<!-- Node19&#45;&gt;Node11 -->
<g id="edge25" class="edge">
<title>Node19&#45;&gt;Node11</title>
<path fill="none" stroke="#191970" d="M612.526,-98.0984C631.1104,-92.7839 652.3238,-86.7176 671.564,-81.2155"/>
<polygon fill="#191970" stroke="#191970" points="672.7688,-84.5113 681.4211,-78.3967 670.8442,-77.7811 672.7688,-84.5113"/>
</g>
<!-- Node20&#45;&gt;Node17 -->
<g id="edge28" class="edge">
<title>Node20&#45;&gt;Node17</title>
<path fill="none" stroke="#191970" d="M279.9419,-93.4054C295.8171,-91.9928 312.6381,-90.496 328.2644,-89.1055"/>
<polygon fill="#191970" stroke="#191970" points="328.6883,-92.5817 338.3387,-88.209 328.0678,-85.6092 328.6883,-92.5817"/>
</g>
</g>
</svg>
