<?xml version="1.0" encoding="UTF-8" standalone="no"?>
<!DOCTYPE svg PUBLIC "-//W3C//DTD SVG 1.1//EN"
 "http://www.w3.org/Graphics/SVG/1.1/DTD/svg11.dtd">
<!-- Generated by graphviz version 2.40.1 (20161225.0304)
 -->
<!-- Title: /home/jc/Documents/School/SeniorDesign/ControlCode/MainApplication/Headers/Core/ThreadHelper.h Pages: 1 -->
<svg width="1341pt" height="158pt"
 viewBox="0.00 0.00 1341.32 158.00" xmlns="http://www.w3.org/2000/svg" xmlns:xlink="http://www.w3.org/1999/xlink">
<g id="graph0" class="graph" transform="scale(1 1) rotate(0) translate(4 154)">
<title>/home/jc/Documents/School/SeniorDesign/ControlCode/MainApplication/Headers/Core/ThreadHelper.h</title>
<polygon fill="#ffffff" stroke="transparent" points="-4,4 -4,-154 1337.3215,-154 1337.3215,4 -4,4"/>
<!-- Node2 -->
<g id="node1" class="node">
<title>Node2</title>
<polygon fill="#bfbfbf" stroke="#000000" points="629.9675,-93.5 629.9675,-149.5 783.2105,-149.5 783.2105,-93.5 629.9675,-93.5"/>
<text text-anchor="start" x="637.9675" y="-136.5" font-family="Helvetica,sans-Serif" font-size="10.00" fill="#000000">/home/jc/Documents</text>
<text text-anchor="start" x="637.9675" y="-124.5" font-family="Helvetica,sans-Serif" font-size="10.00" fill="#000000">/School/SeniorDesign</text>
<text text-anchor="start" x="637.9675" y="-112.5" font-family="Helvetica,sans-Serif" font-size="10.00" fill="#000000">/ControlCode/MainApplication</text>
<text text-anchor="middle" x="706.589" y="-100.5" font-family="Helvetica,sans-Serif" font-size="10.00" fill="#000000">/Headers/Core/ThreadHelper.h</text>
</g>
<!-- Node3 -->
<g id="node2" class="node">
<title>Node3</title>
<g id="a_node2"><a xlink:href="BluetoothBase_8cpp.html" target="_top" xlink:title="/home/jc/Documents\l/School/SeniorDesign\l/ControlCode/MainApplication\l/Sources/Bluetooth/BluetoothBase.cpp">
<polygon fill="#ffffff" stroke="#000000" points="0,-.5 0,-56.5 187.178,-56.5 187.178,-.5 0,-.5"/>
<text text-anchor="start" x="8" y="-43.5" font-family="Helvetica,sans-Serif" font-size="10.00" fill="#000000">/home/jc/Documents</text>
<text text-anchor="start" x="8" y="-31.5" font-family="Helvetica,sans-Serif" font-size="10.00" fill="#000000">/School/SeniorDesign</text>
<text text-anchor="start" x="8" y="-19.5" font-family="Helvetica,sans-Serif" font-size="10.00" fill="#000000">/ControlCode/MainApplication</text>
<text text-anchor="middle" x="93.589" y="-7.5" font-family="Helvetica,sans-Serif" font-size="10.00" fill="#000000">/Sources/Bluetooth/BluetoothBase.cpp</text>
</a>
</g>
</g>
<!-- Node2&#45;&gt;Node3 -->
<g id="edge1" class="edge">
<title>Node2&#45;&gt;Node3</title>
<path fill="none" stroke="#191970" d="M619.3082,-114.3206C517.2571,-105.0377 343.5815,-86.4716 196.589,-57 193.4964,-56.3799 190.3603,-55.7166 187.2002,-55.0183"/>
<polygon fill="#191970" stroke="#191970" points="619.2915,-117.8332 629.5651,-115.2442 619.9193,-110.8614 619.2915,-117.8332"/>
</g>
<!-- Node4 -->
<g id="node3" class="node">
<title>Node4</title>
<g id="a_node3"><a xlink:href="BluetoothClient_8cpp.html" target="_top" xlink:title="/home/jc/Documents\l/School/SeniorDesign\l/ControlCode/MainApplication\l/Sources/Bluetooth/BluetoothClient.cpp">
<polygon fill="#ffffff" stroke="#000000" points="205.6165,-.5 205.6165,-56.5 395.5615,-56.5 395.5615,-.5 205.6165,-.5"/>
<text text-anchor="start" x="213.6165" y="-43.5" font-family="Helvetica,sans-Serif" font-size="10.00" fill="#000000">/home/jc/Documents</text>
<text text-anchor="start" x="213.6165" y="-31.5" font-family="Helvetica,sans-Serif" font-size="10.00" fill="#000000">/School/SeniorDesign</text>
<text text-anchor="start" x="213.6165" y="-19.5" font-family="Helvetica,sans-Serif" font-size="10.00" fill="#000000">/ControlCode/MainApplication</text>
<text text-anchor="middle" x="300.589" y="-7.5" font-family="Helvetica,sans-Serif" font-size="10.00" fill="#000000">/Sources/Bluetooth/BluetoothClient.cpp</text>
</a>
</g>
</g>
<!-- Node2&#45;&gt;Node4 -->
<g id="edge2" class="edge">
<title>Node2&#45;&gt;Node4</title>
<path fill="none" stroke="#191970" d="M619.7719,-104.3263C559.2548,-92.021 476.753,-74.5789 404.589,-57 401.6787,-56.2911 398.7259,-55.5594 395.7474,-54.8107"/>
<polygon fill="#191970" stroke="#191970" points="619.1728,-107.7759 629.6689,-106.3327 620.5638,-100.9155 619.1728,-107.7759"/>
</g>
<!-- Node5 -->
<g id="node4" class="node">
<title>Node5</title>
<g id="a_node4"><a xlink:href="BluetoothServer_8cpp.html" target="_top" xlink:title="/home/jc/Documents\l/School/SeniorDesign\l/ControlCode/MainApplication\l/Sources/Bluetooth/BluetoothServer.cpp">
<polygon fill="#ffffff" stroke="#000000" points="413.671,-.5 413.671,-56.5 607.507,-56.5 607.507,-.5 413.671,-.5"/>
<text text-anchor="start" x="421.671" y="-43.5" font-family="Helvetica,sans-Serif" font-size="10.00" fill="#000000">/home/jc/Documents</text>
<text text-anchor="start" x="421.671" y="-31.5" font-family="Helvetica,sans-Serif" font-size="10.00" fill="#000000">/School/SeniorDesign</text>
<text text-anchor="start" x="421.671" y="-19.5" font-family="Helvetica,sans-Serif" font-size="10.00" fill="#000000">/ControlCode/MainApplication</text>
<text text-anchor="middle" x="510.589" y="-7.5" font-family="Helvetica,sans-Serif" font-size="10.00" fill="#000000">/Sources/Bluetooth/BluetoothServer.cpp</text>
</a>
</g>
</g>
<!-- Node2&#45;&gt;Node5 -->
<g id="edge3" class="edge">
<title>Node2&#45;&gt;Node5</title>
<path fill="none" stroke="#191970" d="M638.4324,-89.1604C616.1061,-78.5668 591.4952,-66.8892 569.8785,-56.6323"/>
<polygon fill="#191970" stroke="#191970" points="636.9818,-92.3461 647.5167,-93.4708 639.9826,-86.0219 636.9818,-92.3461"/>
</g>
<!-- Node6 -->
<g id="node5" class="node">
<title>Node6</title>
<g id="a_node5"><a xlink:href="ThreadHelper_8cpp.html" target="_top" xlink:title="/home/jc/Documents\l/School/SeniorDesign\l/ControlCode/MainApplication\l/Sources/Core/ThreadHelper.cpp">
<polygon fill="#ffffff" stroke="#000000" points="625.2425,-.5 625.2425,-56.5 787.9355,-56.5 787.9355,-.5 625.2425,-.5"/>
<text text-anchor="start" x="633.2425" y="-43.5" font-family="Helvetica,sans-Serif" font-size="10.00" fill="#000000">/home/jc/Documents</text>
<text text-anchor="start" x="633.2425" y="-31.5" font-family="Helvetica,sans-Serif" font-size="10.00" fill="#000000">/School/SeniorDesign</text>
<text text-anchor="start" x="633.2425" y="-19.5" font-family="Helvetica,sans-Serif" font-size="10.00" fill="#000000">/ControlCode/MainApplication</text>
<text text-anchor="middle" x="706.589" y="-7.5" font-family="Helvetica,sans-Serif" font-size="10.00" fill="#000000">/Sources/Core/ThreadHelper.cpp</text>
</a>
</g>
</g>
<!-- Node2&#45;&gt;Node6 -->
<g id="edge4" class="edge">
<title>Node2&#45;&gt;Node6</title>
<path fill="none" stroke="#191970" d="M706.589,-83.1582C706.589,-74.2499 706.589,-64.9293 706.589,-56.5597"/>
<polygon fill="#191970" stroke="#191970" points="703.0891,-83.3445 706.589,-93.3446 710.0891,-83.3446 703.0891,-83.3445"/>
</g>
<!-- Node7 -->
<g id="node6" class="node">
<title>Node7</title>
<g id="a_node6"><a xlink:href="Input_8cpp.html" target="_top" xlink:title="/home/jc/Documents\l/School/SeniorDesign\l/ControlCode/MainApplication\l/Sources/IO/Input.cpp">
<polygon fill="#ffffff" stroke="#000000" points="805.4675,-.5 805.4675,-56.5 953.7105,-56.5 953.7105,-.5 805.4675,-.5"/>
<text text-anchor="start" x="813.4675" y="-43.5" font-family="Helvetica,sans-Serif" font-size="10.00" fill="#000000">/home/jc/Documents</text>
<text text-anchor="start" x="813.4675" y="-31.5" font-family="Helvetica,sans-Serif" font-size="10.00" fill="#000000">/School/SeniorDesign</text>
<text text-anchor="start" x="813.4675" y="-19.5" font-family="Helvetica,sans-Serif" font-size="10.00" fill="#000000">/ControlCode/MainApplication</text>
<text text-anchor="middle" x="879.589" y="-7.5" font-family="Helvetica,sans-Serif" font-size="10.00" fill="#000000">/Sources/IO/Input.cpp</text>
</a>
</g>
</g>
<!-- Node2&#45;&gt;Node7 -->
<g id="edge5" class="edge">
<title>Node2&#45;&gt;Node7</title>
<path fill="none" stroke="#191970" d="M768.03,-88.471C787.4398,-78.0369 808.692,-66.6123 827.3918,-56.5597"/>
<polygon fill="#191970" stroke="#191970" points="766.1149,-85.5268 758.9642,-93.3446 769.4294,-91.6924 766.1149,-85.5268"/>
</g>
<!-- Node8 -->
<g id="node7" class="node">
<title>Node8</title>
<g id="a_node7"><a xlink:href="UserLED_8cpp.html" target="_top" xlink:title="/home/jc/Documents\l/School/SeniorDesign\l/ControlCode/MainApplication\l/Sources/IO/UserLED.cpp">
<polygon fill="#ffffff" stroke="#000000" points="971.4675,-.5 971.4675,-56.5 1119.7105,-56.5 1119.7105,-.5 971.4675,-.5"/>
<text text-anchor="start" x="979.4675" y="-43.5" font-family="Helvetica,sans-Serif" font-size="10.00" fill="#000000">/home/jc/Documents</text>
<text text-anchor="start" x="979.4675" y="-31.5" font-family="Helvetica,sans-Serif" font-size="10.00" fill="#000000">/School/SeniorDesign</text>
<text text-anchor="start" x="979.4675" y="-19.5" font-family="Helvetica,sans-Serif" font-size="10.00" fill="#000000">/ControlCode/MainApplication</text>
<text text-anchor="middle" x="1045.589" y="-7.5" font-family="Helvetica,sans-Serif" font-size="10.00" fill="#000000">/Sources/IO/UserLED.cpp</text>
</a>
</g>
</g>
<!-- Node2&#45;&gt;Node8 -->
<g id="edge6" class="edge">
<title>Node2&#45;&gt;Node8</title>
<path fill="none" stroke="#191970" d="M792.9969,-101.6406C842.8515,-89.7067 906.5713,-73.6425 962.589,-57 965.3639,-56.1756 968.1841,-55.3166 971.0275,-54.4326"/>
<polygon fill="#191970" stroke="#191970" points="792.1334,-98.2483 783.2172,-103.9712 793.7562,-105.0576 792.1334,-98.2483"/>
</g>
<!-- Node9 -->
<g id="node8" class="node">
<title>Node9</title>
<g id="a_node8"><a xlink:href="MotorControl_8cpp.html" target="_top" xlink:title="/home/jc/Documents\l/School/SeniorDesign\l/ControlCode/MainApplication\l/Sources/MotorControl/MotorControl.cpp">
<polygon fill="#ffffff" stroke="#000000" points="1137.8565,-.5 1137.8565,-56.5 1333.3215,-56.5 1333.3215,-.5 1137.8565,-.5"/>
<text text-anchor="start" x="1145.8565" y="-43.5" font-family="Helvetica,sans-Serif" font-size="10.00" fill="#000000">/home/jc/Documents</text>
<text text-anchor="start" x="1145.8565" y="-31.5" font-family="Helvetica,sans-Serif" font-size="10.00" fill="#000000">/School/SeniorDesign</text>
<text text-anchor="start" x="1145.8565" y="-19.5" font-family="Helvetica,sans-Serif" font-size="10.00" fill="#000000">/ControlCode/MainApplication</text>
<text text-anchor="middle" x="1235.589" y="-7.5" font-family="Helvetica,sans-Serif" font-size="10.00" fill="#000000">/Sources/MotorControl/MotorControl.cpp</text>
</a>
</g>
</g>
<!-- Node2&#45;&gt;Node9 -->
<g id="edge7" class="edge">
<title>Node2&#45;&gt;Node9</title>
<path fill="none" stroke="#191970" d="M793.2121,-111.0593C878.8669,-100.0789 1013.4441,-81.06 1128.589,-57 1131.5998,-56.3709 1134.6523,-55.7091 1137.7293,-55.0211"/>
<polygon fill="#191970" stroke="#191970" points="792.7497,-107.5898 783.2722,-112.3256 793.6344,-114.5337 792.7497,-107.5898"/>
</g>
</g>
</svg>
