<?xml version="1.0" encoding="UTF-8" standalone="no"?>
<!DOCTYPE svg PUBLIC "-//W3C//DTD SVG 1.1//EN"
 "http://www.w3.org/Graphics/SVG/1.1/DTD/svg11.dtd">
<!-- Generated by graphviz version 2.40.1 (20161225.0304)
 -->
<!-- Title: ThreadHelper.h Pages: 1 -->
<svg width="746pt" height="86pt"
 viewBox="0.00 0.00 746.30 86.00" xmlns="http://www.w3.org/2000/svg" xmlns:xlink="http://www.w3.org/1999/xlink">
<g id="graph0" class="graph" transform="scale(1 1) rotate(0) translate(4 82)">
<title>ThreadHelper.h</title>
<polygon fill="#ffffff" stroke="transparent" points="-4,4 -4,-82 742.3,-82 742.3,4 -4,4"/>
<!-- Node2 -->
<g id="node1" class="node">
<title>Node2</title>
<polygon fill="#bfbfbf" stroke="#000000" points="368.2345,-57.5 368.2345,-77.5 453.6905,-77.5 453.6905,-57.5 368.2345,-57.5"/>
<text text-anchor="middle" x="410.9625" y="-64.5" font-family="Helvetica,sans-Serif" font-size="10.00" fill="#000000">ThreadHelper.h</text>
</g>
<!-- Node3 -->
<g id="node2" class="node">
<title>Node3</title>
<g id="a_node2"><a xlink:href="BluetoothBase_8cpp.html" target="_top" xlink:title="BluetoothBase.cpp">
<polygon fill="#ffffff" stroke="#000000" points="0,-.5 0,-20.5 99.925,-20.5 99.925,-.5 0,-.5"/>
<text text-anchor="middle" x="49.9625" y="-7.5" font-family="Helvetica,sans-Serif" font-size="10.00" fill="#000000">BluetoothBase.cpp</text>
</a>
</g>
</g>
<!-- Node2&#45;&gt;Node3 -->
<g id="edge1" class="edge">
<title>Node2&#45;&gt;Node3</title>
<path fill="none" stroke="#191970" d="M357.8493,-59.7053C297.4842,-50.7573 196.0311,-35.4487 108.9625,-21 106.0887,-20.5231 103.1377,-20.0249 100.1608,-19.5158"/>
<polygon fill="#191970" stroke="#191970" points="357.498,-63.1913 367.9026,-61.193 358.5227,-56.2668 357.498,-63.1913"/>
</g>
<!-- Node4 -->
<g id="node3" class="node">
<title>Node4</title>
<g id="a_node3"><a xlink:href="BluetoothClient_8cpp.html" target="_top" xlink:title="BluetoothClient.cpp">
<polygon fill="#ffffff" stroke="#000000" points="117.6165,-.5 117.6165,-20.5 220.3085,-20.5 220.3085,-.5 117.6165,-.5"/>
<text text-anchor="middle" x="168.9625" y="-7.5" font-family="Helvetica,sans-Serif" font-size="10.00" fill="#000000">BluetoothClient.cpp</text>
</a>
</g>
</g>
<!-- Node2&#45;&gt;Node4 -->
<g id="edge2" class="edge">
<title>Node2&#45;&gt;Node4</title>
<path fill="none" stroke="#191970" d="M358.3316,-55.1035C314.3945,-44.7547 252.555,-30.1891 211.6496,-20.5544"/>
<polygon fill="#191970" stroke="#191970" points="357.7187,-58.5548 368.2548,-57.4408 359.3236,-51.7413 357.7187,-58.5548"/>
</g>
<!-- Node5 -->
<g id="node4" class="node">
<title>Node5</title>
<g id="a_node4"><a xlink:href="BluetoothServer_8cpp.html" target="_top" xlink:title="BluetoothServer.cpp">
<polygon fill="#ffffff" stroke="#000000" points="238.671,-.5 238.671,-20.5 345.254,-20.5 345.254,-.5 238.671,-.5"/>
<text text-anchor="middle" x="291.9625" y="-7.5" font-family="Helvetica,sans-Serif" font-size="10.00" fill="#000000">BluetoothServer.cpp</text>
</a>
</g>
</g>
<!-- Node2&#45;&gt;Node5 -->
<g id="edge3" class="edge">
<title>Node2&#45;&gt;Node5</title>
<path fill="none" stroke="#191970" d="M380.7747,-53.0403C359.6527,-42.923 331.9612,-29.659 313.1537,-20.6504"/>
<polygon fill="#191970" stroke="#191970" points="379.4308,-56.2774 389.9616,-57.4408 382.4548,-49.9642 379.4308,-56.2774"/>
</g>
<!-- Node6 -->
<g id="node5" class="node">
<title>Node6</title>
<g id="a_node5"><a xlink:href="ThreadHelper_8cpp.html" target="_top" xlink:title="ThreadHelper.cpp">
<polygon fill="#ffffff" stroke="#000000" points="362.955,-.5 362.955,-20.5 458.97,-20.5 458.97,-.5 362.955,-.5"/>
<text text-anchor="middle" x="410.9625" y="-7.5" font-family="Helvetica,sans-Serif" font-size="10.00" fill="#000000">ThreadHelper.cpp</text>
</a>
</g>
</g>
<!-- Node2&#45;&gt;Node6 -->
<g id="edge4" class="edge">
<title>Node2&#45;&gt;Node6</title>
<path fill="none" stroke="#191970" d="M410.9625,-47.1771C410.9625,-38.1625 410.9625,-27.9556 410.9625,-20.6022"/>
<polygon fill="#191970" stroke="#191970" points="407.4626,-47.3095 410.9625,-57.3095 414.4626,-47.3096 407.4626,-47.3095"/>
</g>
<!-- Node7 -->
<g id="node6" class="node">
<title>Node7</title>
<g id="a_node6"><a xlink:href="Input_8cpp.html" target="_top" xlink:title="Input.cpp">
<polygon fill="#ffffff" stroke="#000000" points="477.3965,-.5 477.3965,-20.5 534.5285,-20.5 534.5285,-.5 477.3965,-.5"/>
<text text-anchor="middle" x="505.9625" y="-7.5" font-family="Helvetica,sans-Serif" font-size="10.00" fill="#000000">Input.cpp</text>
</a>
</g>
</g>
<!-- Node2&#45;&gt;Node7 -->
<g id="edge5" class="edge">
<title>Node2&#45;&gt;Node7</title>
<path fill="none" stroke="#191970" d="M436.6659,-52.078C453.3363,-42.0757 474.5804,-29.3293 489.1254,-20.6022"/>
<polygon fill="#191970" stroke="#191970" points="434.7208,-49.1633 427.9466,-57.3095 438.3223,-55.1658 434.7208,-49.1633"/>
</g>
<!-- Node8 -->
<g id="node7" class="node">
<title>Node8</title>
<g id="a_node7"><a xlink:href="UserLED_8cpp.html" target="_top" xlink:title="UserLED.cpp">
<polygon fill="#ffffff" stroke="#000000" points="552.237,-.5 552.237,-20.5 627.688,-20.5 627.688,-.5 552.237,-.5"/>
<text text-anchor="middle" x="589.9625" y="-7.5" font-family="Helvetica,sans-Serif" font-size="10.00" fill="#000000">UserLED.cpp</text>
</a>
</g>
</g>
<!-- Node2&#45;&gt;Node8 -->
<g id="edge6" class="edge">
<title>Node2&#45;&gt;Node8</title>
<path fill="none" stroke="#191970" d="M452.1707,-54.3778C484.5011,-44.0827 528.8324,-29.966 558.3882,-20.5544"/>
<polygon fill="#191970" stroke="#191970" points="451.0186,-51.0715 442.5521,-57.4408 453.1426,-57.7414 451.0186,-51.0715"/>
</g>
<!-- Node9 -->
<g id="node8" class="node">
<title>Node9</title>
<g id="a_node8"><a xlink:href="MotorControl_8cpp.html" target="_top" xlink:title="MotorControl.cpp">
<polygon fill="#ffffff" stroke="#000000" points="645.625,-.5 645.625,-20.5 738.3,-20.5 738.3,-.5 645.625,-.5"/>
<text text-anchor="middle" x="691.9625" y="-7.5" font-family="Helvetica,sans-Serif" font-size="10.00" fill="#000000">MotorControl.cpp</text>
</a>
</g>
</g>
<!-- Node2&#45;&gt;Node9 -->
<g id="edge7" class="edge">
<title>Node2&#45;&gt;Node9</title>
<path fill="none" stroke="#191970" d="M464.0222,-56.737C516.2699,-46.1387 595.2953,-30.1086 645.2358,-19.9784"/>
<polygon fill="#191970" stroke="#191970" points="463.0508,-53.3627 453.9462,-58.7809 464.4425,-60.223 463.0508,-53.3627"/>
</g>
</g>
</svg>
