<?xml version="1.0" encoding="UTF-8" standalone="no"?>
<!DOCTYPE svg PUBLIC "-//W3C//DTD SVG 1.1//EN"
 "http://www.w3.org/Graphics/SVG/1.1/DTD/svg11.dtd">
<!-- Generated by graphviz version 2.40.1 (20161225.0304)
 -->
<!-- Title: ThreadHelper.h Pages: 1 -->
<svg width="746pt" height="86pt"
 viewBox="0.00 0.00 745.97 86.00" xmlns="http://www.w3.org/2000/svg" xmlns:xlink="http://www.w3.org/1999/xlink">
<g id="graph0" class="graph" transform="scale(1 1) rotate(0) translate(4 82)">
<title>ThreadHelper.h</title>
<polygon fill="#ffffff" stroke="transparent" points="-4,4 -4,-82 741.97,-82 741.97,4 -4,4"/>
<!-- Node2 -->
<g id="node1" class="node">
<title>Node2</title>
<polygon fill="#bfbfbf" stroke="#000000" points="349.2345,-57.5 349.2345,-77.5 434.6905,-77.5 434.6905,-57.5 349.2345,-57.5"/>
<text text-anchor="middle" x="391.9625" y="-64.5" font-family="Helvetica,sans-Serif" font-size="10.00" fill="#000000">ThreadHelper.h</text>
</g>
<!-- Node3 -->
<g id="node2" class="node">
<title>Node3</title>
<g id="a_node2"><a xlink:href="BluetoothBase_8cpp.html" target="_top" xlink:title="BluetoothBase.cpp">
<polygon fill="#ffffff" stroke="#000000" points="0,-.5 0,-20.5 99.925,-20.5 99.925,-.5 0,-.5"/>
<text text-anchor="middle" x="49.9625" y="-7.5" font-family="Helvetica,sans-Serif" font-size="10.00" fill="#000000">BluetoothBase.cpp</text>
</a>
</g>
</g>
<!-- Node2&#45;&gt;Node3 -->
<g id="edge1" class="edge">
<title>Node2&#45;&gt;Node3</title>
<path fill="none" stroke="#191970" d="M338.5819,-58.9454C281.6601,-49.7727 188.8914,-34.6783 108.9625,-21 106.0911,-20.5086 103.142,-19.9991 100.1666,-19.4813"/>
<polygon fill="#191970" stroke="#191970" points="338.3529,-62.4536 348.7821,-60.5876 339.4656,-55.5425 338.3529,-62.4536"/>
</g>
<!-- Node4 -->
<g id="node3" class="node">
<title>Node4</title>
<g id="a_node3"><a xlink:href="BluetoothClient_8cpp.html" target="_top" xlink:title="BluetoothClient.cpp">
<polygon fill="#ffffff" stroke="#000000" points="117.6165,-.5 117.6165,-20.5 220.3085,-20.5 220.3085,-.5 117.6165,-.5"/>
<text text-anchor="middle" x="168.9625" y="-7.5" font-family="Helvetica,sans-Serif" font-size="10.00" fill="#000000">BluetoothClient.cpp</text>
</a>
</g>
</g>
<!-- Node2&#45;&gt;Node4 -->
<g id="edge2" class="edge">
<title>Node2&#45;&gt;Node4</title>
<path fill="none" stroke="#191970" d="M342.6947,-54.9069C302.2573,-44.5709 245.7539,-30.1283 208.2981,-20.5544"/>
<polygon fill="#191970" stroke="#191970" points="342.0526,-58.3552 352.6079,-57.4408 343.7862,-51.5733 342.0526,-58.3552"/>
</g>
<!-- Node5 -->
<g id="node4" class="node">
<title>Node5</title>
<g id="a_node4"><a xlink:href="BluetoothServer_8cpp.html" target="_top" xlink:title="BluetoothServer.cpp">
<polygon fill="#ffffff" stroke="#000000" points="238.671,-.5 238.671,-20.5 345.254,-20.5 345.254,-.5 238.671,-.5"/>
<text text-anchor="middle" x="291.9625" y="-7.5" font-family="Helvetica,sans-Serif" font-size="10.00" fill="#000000">BluetoothServer.cpp</text>
</a>
</g>
</g>
<!-- Node2&#45;&gt;Node5 -->
<g id="edge3" class="edge">
<title>Node2&#45;&gt;Node5</title>
<path fill="none" stroke="#191970" d="M365.3925,-52.3551C347.7732,-42.3121 325.138,-29.4101 309.6857,-20.6022"/>
<polygon fill="#191970" stroke="#191970" points="363.6635,-55.3982 374.0845,-57.3095 367.1299,-49.3167 363.6635,-55.3982"/>
</g>
<!-- Node6 -->
<g id="node5" class="node">
<title>Node6</title>
<g id="a_node5"><a xlink:href="Input_8cpp.html" target="_top" xlink:title="Input.cpp">
<polygon fill="#ffffff" stroke="#000000" points="363.3965,-.5 363.3965,-20.5 420.5285,-20.5 420.5285,-.5 363.3965,-.5"/>
<text text-anchor="middle" x="391.9625" y="-7.5" font-family="Helvetica,sans-Serif" font-size="10.00" fill="#000000">Input.cpp</text>
</a>
</g>
</g>
<!-- Node2&#45;&gt;Node6 -->
<g id="edge4" class="edge">
<title>Node2&#45;&gt;Node6</title>
<path fill="none" stroke="#191970" d="M391.9625,-47.1771C391.9625,-38.1625 391.9625,-27.9556 391.9625,-20.6022"/>
<polygon fill="#191970" stroke="#191970" points="388.4626,-47.3095 391.9625,-57.3095 395.4626,-47.3096 388.4626,-47.3095"/>
</g>
<!-- Node7 -->
<g id="node6" class="node">
<title>Node7</title>
<g id="a_node6"><a xlink:href="UserLED_8cpp.html" target="_top" xlink:title="UserLED.cpp">
<polygon fill="#ffffff" stroke="#000000" points="438.237,-.5 438.237,-20.5 513.688,-20.5 513.688,-.5 438.237,-.5"/>
<text text-anchor="middle" x="475.9625" y="-7.5" font-family="Helvetica,sans-Serif" font-size="10.00" fill="#000000">UserLED.cpp</text>
</a>
</g>
</g>
<!-- Node2&#45;&gt;Node7 -->
<g id="edge5" class="edge">
<title>Node2&#45;&gt;Node7</title>
<path fill="none" stroke="#191970" d="M415.5127,-51.5195C430.1236,-41.605 448.4523,-29.1676 461.075,-20.6022"/>
<polygon fill="#191970" stroke="#191970" points="413.2895,-48.7983 406.98,-57.3095 417.2201,-54.5907 413.2895,-48.7983"/>
</g>
<!-- Node8 -->
<g id="node7" class="node">
<title>Node8</title>
<g id="a_node7"><a xlink:href="MotorControl_8cpp.html" target="_top" xlink:title="MotorControl.cpp">
<polygon fill="#ffffff" stroke="#000000" points="531.625,-.5 531.625,-20.5 624.3,-20.5 624.3,-.5 531.625,-.5"/>
<text text-anchor="middle" x="577.9625" y="-7.5" font-family="Helvetica,sans-Serif" font-size="10.00" fill="#000000">MotorControl.cpp</text>
</a>
</g>
</g>
<!-- Node2&#45;&gt;Node8 -->
<g id="edge6" class="edge">
<title>Node2&#45;&gt;Node8</title>
<path fill="none" stroke="#191970" d="M434.7822,-54.3778C468.3769,-44.0827 514.4418,-29.966 545.1534,-20.5544"/>
<polygon fill="#191970" stroke="#191970" points="433.323,-51.1643 424.7874,-57.4408 435.3741,-57.8571 433.323,-51.1643"/>
</g>
<!-- Node9 -->
<g id="node8" class="node">
<title>Node9</title>
<g id="a_node8"><a xlink:href="ThreadHelper_8cpp.html" target="_top" xlink:title="ThreadHelper.cpp">
<polygon fill="#ffffff" stroke="#000000" points="641.955,-.5 641.955,-20.5 737.97,-20.5 737.97,-.5 641.955,-.5"/>
<text text-anchor="middle" x="689.9625" y="-7.5" font-family="Helvetica,sans-Serif" font-size="10.00" fill="#000000">ThreadHelper.cpp</text>
</a>
</g>
</g>
<!-- Node2&#45;&gt;Node9 -->
<g id="edge7" class="edge">
<title>Node2&#45;&gt;Node9</title>
<path fill="none" stroke="#191970" d="M445.0175,-57.3519C500.823,-46.6777 587.8726,-30.0273 641.7741,-19.7172"/>
<polygon fill="#191970" stroke="#191970" points="444.1404,-53.9561 434.976,-59.2726 445.4555,-60.8315 444.1404,-53.9561"/>
</g>
</g>
</svg>
