<?xml version="1.0" encoding="UTF-8" standalone="no"?>
<!DOCTYPE svg PUBLIC "-//W3C//DTD SVG 1.1//EN"
 "http://www.w3.org/Graphics/SVG/1.1/DTD/svg11.dtd">
<!-- Generated by graphviz version 2.40.1 (20161225.0304)
 -->
<!-- Title: /home/jc/Documents/School/SeniorDesign/ControlCode/MainApplication/Headers/Core/ThreadHelper.h Pages: 1 -->
<svg width="161pt" height="122pt"
 viewBox="0.00 0.00 161.24 122.00" xmlns="http://www.w3.org/2000/svg" xmlns:xlink="http://www.w3.org/1999/xlink">
<g id="graph0" class="graph" transform="scale(1 1) rotate(0) translate(4 118)">
<title>/home/jc/Documents/School/SeniorDesign/ControlCode/MainApplication/Headers/Core/ThreadHelper.h</title>
<polygon fill="#ffffff" stroke="transparent" points="-4,4 -4,-118 157.243,-118 157.243,4 -4,4"/>
<!-- Node0 -->
<g id="node1" class="node">
<title>Node0</title>
<polygon fill="#bfbfbf" stroke="#000000" points="0,-57.5 0,-113.5 153.243,-113.5 153.243,-57.5 0,-57.5"/>
<text text-anchor="start" x="8" y="-100.5" font-family="Helvetica,sans-Serif" font-size="10.00" fill="#000000">/home/jc/Documents</text>
<text text-anchor="start" x="8" y="-88.5" font-family="Helvetica,sans-Serif" font-size="10.00" fill="#000000">/School/SeniorDesign</text>
<text text-anchor="start" x="8" y="-76.5" font-family="Helvetica,sans-Serif" font-size="10.00" fill="#000000">/ControlCode/MainApplication</text>
<text text-anchor="middle" x="76.6215" y="-64.5" font-family="Helvetica,sans-Serif" font-size="10.00" fill="#000000">/Headers/Core/ThreadHelper.h</text>
</g>
<!-- Node1 -->
<g id="node2" class="node">
<title>Node1</title>
<polygon fill="#ffffff" stroke="#bfbfbf" points="47.501,-.5 47.501,-20.5 105.742,-20.5 105.742,-.5 47.501,-.5"/>
<text text-anchor="middle" x="76.6215" y="-7.5" font-family="Helvetica,sans-Serif" font-size="10.00" fill="#000000">pthread.h</text>
</g>
<!-- Node0&#45;&gt;Node1 -->
<g id="edge1" class="edge">
<title>Node0&#45;&gt;Node1</title>
<path fill="none" stroke="#191970" d="M76.6215,-57.1457C76.6215,-48.3619 76.6215,-38.8652 76.6215,-30.7476"/>
<polygon fill="#191970" stroke="#191970" points="80.1216,-30.7295 76.6215,-20.7296 73.1216,-30.7296 80.1216,-30.7295"/>
</g>
</g>
</svg>
