<?xml version="1.0" encoding="UTF-8" standalone="no"?>
<!DOCTYPE svg PUBLIC "-//W3C//DTD SVG 1.1//EN"
 "http://www.w3.org/Graphics/SVG/1.1/DTD/svg11.dtd">
<!-- Generated by graphviz version 2.40.1 (20161225.0304)
 -->
<!-- Title: /home/jc/Documents/School/SeniorDesign/ControlCode/MainApplication/Sources/Core/ThreadHelper.cpp Pages: 1 -->
<svg width="173pt" height="179pt"
 viewBox="0.00 0.00 173.07 179.00" xmlns="http://www.w3.org/2000/svg" xmlns:xlink="http://www.w3.org/1999/xlink">
<g id="graph0" class="graph" transform="scale(1 1) rotate(0) translate(4 175)">
<title>/home/jc/Documents/School/SeniorDesign/ControlCode/MainApplication/Sources/Core/ThreadHelper.cpp</title>
<polygon fill="#ffffff" stroke="transparent" points="-4,4 -4,-175 169.0745,-175 169.0745,4 -4,4"/>
<!-- Node0 -->
<g id="node1" class="node">
<title>Node0</title>
<polygon fill="#bfbfbf" stroke="#000000" points="2.3815,-114.5 2.3815,-170.5 165.0745,-170.5 165.0745,-114.5 2.3815,-114.5"/>
<text text-anchor="start" x="10.3815" y="-157.5" font-family="Helvetica,sans-Serif" font-size="10.00" fill="#000000">/home/jc/Documents</text>
<text text-anchor="start" x="10.3815" y="-145.5" font-family="Helvetica,sans-Serif" font-size="10.00" fill="#000000">/School/SeniorDesign</text>
<text text-anchor="start" x="10.3815" y="-133.5" font-family="Helvetica,sans-Serif" font-size="10.00" fill="#000000">/ControlCode/MainApplication</text>
<text text-anchor="middle" x="83.728" y="-121.5" font-family="Helvetica,sans-Serif" font-size="10.00" fill="#000000">/Sources/Core/ThreadHelper.cpp</text>
</g>
<!-- Node1 -->
<g id="node2" class="node">
<title>Node1</title>
<g id="a_node2"><a xlink:href="ThreadHelper_8h.html" target="_top" xlink:title="ThreadHelper.h">
<polygon fill="#ffffff" stroke="#000000" points="0,-57.5 0,-77.5 85.456,-77.5 85.456,-57.5 0,-57.5"/>
<text text-anchor="middle" x="42.728" y="-64.5" font-family="Helvetica,sans-Serif" font-size="10.00" fill="#000000">ThreadHelper.h</text>
</a>
</g>
</g>
<!-- Node0&#45;&gt;Node1 -->
<g id="edge1" class="edge">
<title>Node0&#45;&gt;Node1</title>
<path fill="none" stroke="#191970" d="M68.2277,-114.1457C63.2076,-104.9627 57.7615,-95.0004 53.1964,-86.6494"/>
<polygon fill="#191970" stroke="#191970" points="56.188,-84.8252 48.3202,-77.7296 50.0459,-88.1829 56.188,-84.8252"/>
</g>
<!-- Node3 -->
<g id="node4" class="node">
<title>Node3</title>
<polygon fill="#ffffff" stroke="#bfbfbf" points="103.001,-57.5 103.001,-77.5 148.455,-77.5 148.455,-57.5 103.001,-57.5"/>
<text text-anchor="middle" x="125.728" y="-64.5" font-family="Helvetica,sans-Serif" font-size="10.00" fill="#000000">stdio.h</text>
</g>
<!-- Node0&#45;&gt;Node3 -->
<g id="edge3" class="edge">
<title>Node0&#45;&gt;Node3</title>
<path fill="none" stroke="#191970" d="M99.6064,-114.1457C104.7489,-104.9627 110.3278,-95.0004 115.0043,-86.6494"/>
<polygon fill="#191970" stroke="#191970" points="118.1671,-88.1648 119.9994,-77.7296 112.0596,-84.7445 118.1671,-88.1648"/>
</g>
<!-- Node2 -->
<g id="node3" class="node">
<title>Node2</title>
<polygon fill="#ffffff" stroke="#bfbfbf" points="13.6075,-.5 13.6075,-20.5 71.8485,-20.5 71.8485,-.5 13.6075,-.5"/>
<text text-anchor="middle" x="42.728" y="-7.5" font-family="Helvetica,sans-Serif" font-size="10.00" fill="#000000">pthread.h</text>
</g>
<!-- Node1&#45;&gt;Node2 -->
<g id="edge2" class="edge">
<title>Node1&#45;&gt;Node2</title>
<path fill="none" stroke="#191970" d="M42.728,-57.3095C42.728,-49.9335 42.728,-39.72 42.728,-30.715"/>
<polygon fill="#191970" stroke="#191970" points="46.2281,-30.6022 42.728,-20.6022 39.2281,-30.6023 46.2281,-30.6022"/>
</g>
</g>
</svg>
