<?xml version="1.0" encoding="UTF-8" standalone="no"?>
<!DOCTYPE svg PUBLIC "-//W3C//DTD SVG 1.1//EN"
 "http://www.w3.org/Graphics/SVG/1.1/DTD/svg11.dtd">
<!-- Generated by graphviz version 2.40.1 (20161225.0304)
 -->
<!-- Title: UserLED.h Pages: 1 -->
<svg width="296pt" height="200pt"
 viewBox="0.00 0.00 296.12 200.00" xmlns="http://www.w3.org/2000/svg" xmlns:xlink="http://www.w3.org/1999/xlink">
<g id="graph0" class="graph" transform="scale(1 1) rotate(0) translate(4 196)">
<title>UserLED.h</title>
<polygon fill="#ffffff" stroke="transparent" points="-4,4 -4,-196 292.1205,-196 292.1205,4 -4,4"/>
<!-- Node3 -->
<g id="node1" class="node">
<title>Node3</title>
<polygon fill="#bfbfbf" stroke="#000000" points="71.2795,-171.5 71.2795,-191.5 136.1715,-191.5 136.1715,-171.5 71.2795,-171.5"/>
<text text-anchor="middle" x="103.7255" y="-178.5" font-family="Helvetica,sans-Serif" font-size="10.00" fill="#000000">UserLED.h</text>
</g>
<!-- Node4 -->
<g id="node2" class="node">
<title>Node4</title>
<g id="a_node2"><a xlink:href="UserLED_8cpp.html" target="_top" xlink:title="UserLED.cpp">
<polygon fill="#ffffff" stroke="#000000" points="0,-114.5 0,-134.5 75.451,-134.5 75.451,-114.5 0,-114.5"/>
<text text-anchor="middle" x="37.7255" y="-121.5" font-family="Helvetica,sans-Serif" font-size="10.00" fill="#000000">UserLED.cpp</text>
</a>
</g>
</g>
<!-- Node3&#45;&gt;Node4 -->
<g id="edge1" class="edge">
<title>Node3&#45;&gt;Node4</title>
<path fill="none" stroke="#191970" d="M84.2402,-164.6718C72.9302,-154.9041 59.06,-142.9252 49.4228,-134.6022"/>
<polygon fill="#191970" stroke="#191970" points="82.0701,-167.4222 91.926,-171.3095 86.6455,-162.1244 82.0701,-167.4222"/>
</g>
<!-- Node5 -->
<g id="node3" class="node">
<title>Node5</title>
<g id="a_node3"><a xlink:href="BoeingSurfaceVehicleControl_8h.html" target="_top" xlink:title="BoeingSurfaceVehicleControl.h">
<polygon fill="#ffffff" stroke="#000000" points="93.264,-114.5 93.264,-134.5 248.187,-134.5 248.187,-114.5 93.264,-114.5"/>
<text text-anchor="middle" x="170.7255" y="-121.5" font-family="Helvetica,sans-Serif" font-size="10.00" fill="#000000">BoeingSurfaceVehicleControl.h</text>
</a>
</g>
</g>
<!-- Node3&#45;&gt;Node5 -->
<g id="edge2" class="edge">
<title>Node3&#45;&gt;Node5</title>
<path fill="none" stroke="#191970" d="M123.506,-164.6718C134.9874,-154.9041 149.0678,-142.9252 158.8509,-134.6022"/>
<polygon fill="#191970" stroke="#191970" points="121.0524,-162.1639 115.7038,-171.3095 125.5883,-167.4955 121.0524,-162.1639"/>
</g>
<!-- Node6 -->
<g id="node4" class="node">
<title>Node6</title>
<g id="a_node4"><a xlink:href="IOFactory_8h.html" target="_top" xlink:title="IOFactory.h">
<polygon fill="#ffffff" stroke="#000000" points="136.61,-57.5 136.61,-77.5 204.841,-77.5 204.841,-57.5 136.61,-57.5"/>
<text text-anchor="middle" x="170.7255" y="-64.5" font-family="Helvetica,sans-Serif" font-size="10.00" fill="#000000">IOFactory.h</text>
</a>
</g>
</g>
<!-- Node5&#45;&gt;Node6 -->
<g id="edge3" class="edge">
<title>Node5&#45;&gt;Node6</title>
<path fill="none" stroke="#191970" d="M170.7255,-104.1771C170.7255,-95.1625 170.7255,-84.9556 170.7255,-77.6022"/>
<polygon fill="#191970" stroke="#191970" points="167.2256,-104.3095 170.7255,-114.3095 174.2256,-104.3096 167.2256,-104.3095"/>
</g>
<!-- Node7 -->
<g id="node5" class="node">
<title>Node7</title>
<g id="a_node5"><a xlink:href="BoeingSurfaceVehicleControl_8cpp.html" target="_top" xlink:title="BoeingSurfaceVehicleControl.cpp">
<polygon fill="#ffffff" stroke="#000000" points="25.9845,-.5 25.9845,-20.5 191.4665,-20.5 191.4665,-.5 25.9845,-.5"/>
<text text-anchor="middle" x="108.7255" y="-7.5" font-family="Helvetica,sans-Serif" font-size="10.00" fill="#000000">BoeingSurfaceVehicleControl.cpp</text>
</a>
</g>
</g>
<!-- Node5&#45;&gt;Node7 -->
<g id="edge7" class="edge">
<title>Node5&#45;&gt;Node7</title>
<path fill="none" stroke="#191970" d="M150.9597,-107.1474C142.7486,-99.018 133.7495,-88.7608 127.7255,-78 117.2591,-59.3038 112.2035,-34.4106 110.0659,-20.6781"/>
<polygon fill="#191970" stroke="#191970" points="148.794,-109.9162 158.4679,-114.2366 153.5997,-104.8265 148.794,-109.9162"/>
</g>
<!-- Node9 -->
<g id="node7" class="node">
<title>Node9</title>
<g id="a_node7"><a xlink:href="main_8cpp.html" target="_top" xlink:title="main.cpp">
<polygon fill="#ffffff" stroke="#000000" points="222.444,-57.5 222.444,-77.5 279.007,-77.5 279.007,-57.5 222.444,-57.5"/>
<text text-anchor="middle" x="250.7255" y="-64.5" font-family="Helvetica,sans-Serif" font-size="10.00" fill="#000000">main.cpp</text>
</a>
</g>
</g>
<!-- Node5&#45;&gt;Node9 -->
<g id="edge6" class="edge">
<title>Node5&#45;&gt;Node9</title>
<path fill="none" stroke="#191970" d="M193.549,-108.2383C207.3983,-98.3707 224.6387,-86.0868 236.5469,-77.6022"/>
<polygon fill="#191970" stroke="#191970" points="191.1411,-105.6563 185.0279,-114.3095 195.2031,-111.3572 191.1411,-105.6563"/>
</g>
<!-- Node6&#45;&gt;Node7 -->
<g id="edge4" class="edge">
<title>Node6&#45;&gt;Node7</title>
<path fill="none" stroke="#191970" d="M152.111,-50.3867C141.544,-40.6718 128.6791,-28.8444 119.7139,-20.6022"/>
<polygon fill="#191970" stroke="#191970" points="149.9106,-53.1181 159.6411,-57.3095 154.6482,-47.9649 149.9106,-53.1181"/>
</g>
<!-- Node8 -->
<g id="node6" class="node">
<title>Node8</title>
<g id="a_node6"><a xlink:href="IOFactory_8cpp.html" target="_top" xlink:title="IOFactory.cpp">
<polygon fill="#ffffff" stroke="#000000" points="209.3305,-.5 209.3305,-20.5 288.1205,-20.5 288.1205,-.5 209.3305,-.5"/>
<text text-anchor="middle" x="248.7255" y="-7.5" font-family="Helvetica,sans-Serif" font-size="10.00" fill="#000000">IOFactory.cpp</text>
</a>
</g>
</g>
<!-- Node6&#45;&gt;Node8 -->
<g id="edge5" class="edge">
<title>Node6&#45;&gt;Node8</title>
<path fill="none" stroke="#191970" d="M192.9784,-51.2383C206.4814,-41.3707 223.2909,-29.0868 234.9014,-20.6022"/>
<polygon fill="#191970" stroke="#191970" points="190.6792,-48.5835 184.6703,-57.3095 194.8093,-54.2352 190.6792,-48.5835"/>
</g>
</g>
</svg>
